G04 EAGLE Gerber RS-274X export*
G75*
%MOMM*%
%FSLAX34Y34*%
%LPD*%
%INSilkscreen Top*%
%IPPOS*%
%AMOC8*
5,1,8,0,0,1.08239X$1,22.5*%
G01*
%ADD10C,0.076200*%
%ADD11C,0.050800*%
%ADD12C,0.203200*%
%ADD13C,0.127000*%
%ADD14C,0.050000*%
%ADD15C,0.063400*%
%ADD16C,0.250000*%
%ADD17C,0.152400*%


D10*
X35941Y145161D02*
X38396Y152527D01*
X40852Y145161D01*
X40238Y147003D02*
X36555Y147003D01*
X43665Y146798D02*
X45302Y152527D01*
X43665Y146798D02*
X47758Y146798D01*
X46530Y148435D02*
X46530Y145161D01*
X61341Y145161D02*
X63796Y152527D01*
X66252Y145161D01*
X65638Y147003D02*
X61955Y147003D01*
X69065Y145161D02*
X71112Y145161D01*
X71201Y145163D01*
X71290Y145169D01*
X71379Y145179D01*
X71467Y145192D01*
X71555Y145209D01*
X71642Y145231D01*
X71727Y145256D01*
X71812Y145284D01*
X71895Y145317D01*
X71977Y145353D01*
X72057Y145392D01*
X72135Y145435D01*
X72211Y145481D01*
X72286Y145531D01*
X72358Y145584D01*
X72427Y145640D01*
X72494Y145699D01*
X72559Y145760D01*
X72620Y145825D01*
X72679Y145892D01*
X72735Y145961D01*
X72788Y146033D01*
X72838Y146108D01*
X72884Y146184D01*
X72927Y146262D01*
X72966Y146342D01*
X73002Y146424D01*
X73035Y146507D01*
X73063Y146592D01*
X73088Y146677D01*
X73110Y146764D01*
X73127Y146852D01*
X73140Y146940D01*
X73150Y147029D01*
X73156Y147118D01*
X73158Y147207D01*
X73156Y147296D01*
X73150Y147385D01*
X73140Y147474D01*
X73127Y147562D01*
X73110Y147650D01*
X73088Y147737D01*
X73063Y147822D01*
X73035Y147907D01*
X73002Y147990D01*
X72966Y148072D01*
X72927Y148152D01*
X72884Y148230D01*
X72838Y148306D01*
X72788Y148381D01*
X72735Y148453D01*
X72679Y148522D01*
X72620Y148589D01*
X72559Y148654D01*
X72494Y148715D01*
X72427Y148774D01*
X72358Y148830D01*
X72286Y148883D01*
X72211Y148933D01*
X72135Y148979D01*
X72057Y149022D01*
X71977Y149061D01*
X71895Y149097D01*
X71812Y149130D01*
X71727Y149158D01*
X71642Y149183D01*
X71555Y149205D01*
X71467Y149222D01*
X71379Y149235D01*
X71290Y149245D01*
X71201Y149251D01*
X71112Y149253D01*
X71521Y152527D02*
X69065Y152527D01*
X71521Y152527D02*
X71600Y152525D01*
X71679Y152519D01*
X71758Y152510D01*
X71836Y152497D01*
X71913Y152479D01*
X71989Y152459D01*
X72064Y152434D01*
X72138Y152406D01*
X72211Y152375D01*
X72282Y152339D01*
X72351Y152301D01*
X72418Y152259D01*
X72483Y152214D01*
X72546Y152166D01*
X72607Y152115D01*
X72664Y152061D01*
X72720Y152005D01*
X72772Y151946D01*
X72822Y151884D01*
X72868Y151820D01*
X72912Y151754D01*
X72952Y151686D01*
X72988Y151616D01*
X73022Y151544D01*
X73052Y151470D01*
X73078Y151396D01*
X73101Y151320D01*
X73119Y151243D01*
X73135Y151166D01*
X73146Y151087D01*
X73154Y151009D01*
X73158Y150930D01*
X73158Y150850D01*
X73154Y150771D01*
X73146Y150693D01*
X73135Y150614D01*
X73119Y150537D01*
X73101Y150460D01*
X73078Y150384D01*
X73052Y150310D01*
X73022Y150236D01*
X72988Y150164D01*
X72952Y150094D01*
X72912Y150026D01*
X72868Y149960D01*
X72822Y149896D01*
X72772Y149834D01*
X72720Y149775D01*
X72664Y149719D01*
X72607Y149665D01*
X72546Y149614D01*
X72483Y149566D01*
X72418Y149521D01*
X72351Y149479D01*
X72282Y149441D01*
X72211Y149405D01*
X72138Y149374D01*
X72064Y149346D01*
X71989Y149321D01*
X71913Y149301D01*
X71836Y149283D01*
X71758Y149270D01*
X71679Y149261D01*
X71600Y149255D01*
X71521Y149253D01*
X69884Y149253D01*
X86741Y145161D02*
X89196Y152527D01*
X91652Y145161D01*
X91038Y147003D02*
X87355Y147003D01*
X96716Y152528D02*
X96801Y152526D01*
X96886Y152520D01*
X96970Y152510D01*
X97054Y152497D01*
X97138Y152479D01*
X97220Y152458D01*
X97301Y152433D01*
X97381Y152404D01*
X97460Y152371D01*
X97537Y152335D01*
X97612Y152295D01*
X97686Y152252D01*
X97757Y152206D01*
X97826Y152156D01*
X97893Y152103D01*
X97957Y152047D01*
X98018Y151988D01*
X98077Y151927D01*
X98133Y151863D01*
X98186Y151796D01*
X98236Y151727D01*
X98282Y151656D01*
X98325Y151582D01*
X98365Y151507D01*
X98401Y151430D01*
X98434Y151351D01*
X98463Y151271D01*
X98488Y151190D01*
X98509Y151108D01*
X98527Y151024D01*
X98540Y150940D01*
X98550Y150856D01*
X98556Y150771D01*
X98558Y150686D01*
X96716Y152527D02*
X96620Y152525D01*
X96524Y152519D01*
X96429Y152509D01*
X96334Y152496D01*
X96239Y152478D01*
X96146Y152457D01*
X96053Y152432D01*
X95962Y152403D01*
X95871Y152371D01*
X95782Y152335D01*
X95695Y152295D01*
X95609Y152252D01*
X95525Y152206D01*
X95443Y152156D01*
X95363Y152102D01*
X95286Y152046D01*
X95211Y151986D01*
X95138Y151924D01*
X95068Y151858D01*
X95000Y151790D01*
X94935Y151719D01*
X94874Y151646D01*
X94815Y151570D01*
X94759Y151491D01*
X94707Y151411D01*
X94658Y151328D01*
X94612Y151244D01*
X94570Y151158D01*
X94532Y151070D01*
X94497Y150981D01*
X94465Y150890D01*
X97944Y149254D02*
X98004Y149313D01*
X98061Y149375D01*
X98116Y149439D01*
X98167Y149506D01*
X98216Y149575D01*
X98262Y149645D01*
X98305Y149718D01*
X98345Y149792D01*
X98381Y149868D01*
X98414Y149946D01*
X98444Y150025D01*
X98471Y150105D01*
X98494Y150186D01*
X98513Y150268D01*
X98529Y150350D01*
X98542Y150434D01*
X98551Y150518D01*
X98556Y150602D01*
X98558Y150686D01*
X97944Y149253D02*
X94465Y145161D01*
X98558Y145161D01*
X112141Y145161D02*
X114596Y152527D01*
X117052Y145161D01*
X116438Y147003D02*
X112755Y147003D01*
X119865Y150890D02*
X121912Y152527D01*
X121912Y145161D01*
X123958Y145161D02*
X119865Y145161D01*
X137541Y145161D02*
X139996Y152527D01*
X142452Y145161D01*
X141838Y147003D02*
X138155Y147003D01*
X145266Y148844D02*
X145268Y148997D01*
X145274Y149150D01*
X145283Y149302D01*
X145297Y149455D01*
X145314Y149607D01*
X145335Y149758D01*
X145360Y149909D01*
X145389Y150059D01*
X145421Y150209D01*
X145458Y150357D01*
X145498Y150505D01*
X145541Y150652D01*
X145589Y150797D01*
X145640Y150941D01*
X145694Y151084D01*
X145753Y151226D01*
X145814Y151365D01*
X145880Y151504D01*
X145906Y151574D01*
X145936Y151644D01*
X145969Y151711D01*
X146005Y151777D01*
X146044Y151841D01*
X146087Y151903D01*
X146133Y151962D01*
X146181Y152020D01*
X146232Y152074D01*
X146286Y152127D01*
X146343Y152176D01*
X146402Y152223D01*
X146463Y152266D01*
X146526Y152307D01*
X146591Y152344D01*
X146658Y152379D01*
X146727Y152409D01*
X146797Y152437D01*
X146868Y152460D01*
X146940Y152481D01*
X147013Y152497D01*
X147087Y152510D01*
X147162Y152520D01*
X147237Y152525D01*
X147312Y152527D01*
X147387Y152525D01*
X147462Y152520D01*
X147537Y152510D01*
X147611Y152497D01*
X147684Y152481D01*
X147756Y152460D01*
X147827Y152437D01*
X147897Y152409D01*
X147966Y152379D01*
X148033Y152344D01*
X148098Y152307D01*
X148161Y152266D01*
X148222Y152223D01*
X148281Y152176D01*
X148338Y152127D01*
X148392Y152074D01*
X148443Y152020D01*
X148492Y151962D01*
X148537Y151903D01*
X148580Y151841D01*
X148619Y151777D01*
X148656Y151711D01*
X148688Y151643D01*
X148718Y151574D01*
X148744Y151504D01*
X148809Y151366D01*
X148871Y151226D01*
X148929Y151084D01*
X148984Y150941D01*
X149035Y150797D01*
X149083Y150652D01*
X149126Y150505D01*
X149166Y150358D01*
X149203Y150209D01*
X149235Y150059D01*
X149264Y149909D01*
X149289Y149758D01*
X149310Y149607D01*
X149327Y149455D01*
X149341Y149302D01*
X149350Y149150D01*
X149356Y148997D01*
X149358Y148844D01*
X145265Y148844D02*
X145267Y148691D01*
X145273Y148538D01*
X145282Y148385D01*
X145296Y148233D01*
X145313Y148081D01*
X145334Y147930D01*
X145359Y147779D01*
X145388Y147628D01*
X145420Y147479D01*
X145457Y147330D01*
X145497Y147183D01*
X145540Y147036D01*
X145588Y146891D01*
X145639Y146746D01*
X145694Y146604D01*
X145752Y146462D01*
X145814Y146322D01*
X145879Y146184D01*
X145880Y146184D02*
X145906Y146113D01*
X145936Y146044D01*
X145969Y145977D01*
X146005Y145911D01*
X146044Y145847D01*
X146087Y145785D01*
X146133Y145726D01*
X146181Y145668D01*
X146232Y145614D01*
X146286Y145561D01*
X146343Y145512D01*
X146402Y145465D01*
X146463Y145422D01*
X146526Y145381D01*
X146591Y145344D01*
X146658Y145309D01*
X146727Y145279D01*
X146797Y145251D01*
X146868Y145228D01*
X146940Y145207D01*
X147013Y145191D01*
X147087Y145178D01*
X147162Y145168D01*
X147237Y145163D01*
X147312Y145161D01*
X148743Y146184D02*
X148808Y146322D01*
X148870Y146462D01*
X148928Y146604D01*
X148983Y146747D01*
X149034Y146891D01*
X149082Y147036D01*
X149125Y147183D01*
X149165Y147331D01*
X149202Y147479D01*
X149234Y147629D01*
X149263Y147779D01*
X149288Y147930D01*
X149309Y148081D01*
X149326Y148233D01*
X149340Y148386D01*
X149349Y148538D01*
X149355Y148691D01*
X149357Y148844D01*
X148744Y146184D02*
X148718Y146114D01*
X148688Y146044D01*
X148656Y145977D01*
X148619Y145911D01*
X148580Y145847D01*
X148537Y145785D01*
X148491Y145726D01*
X148443Y145668D01*
X148392Y145614D01*
X148338Y145561D01*
X148281Y145512D01*
X148222Y145465D01*
X148161Y145422D01*
X148098Y145381D01*
X148033Y145344D01*
X147966Y145309D01*
X147897Y145279D01*
X147827Y145251D01*
X147756Y145228D01*
X147684Y145207D01*
X147611Y145191D01*
X147537Y145178D01*
X147462Y145168D01*
X147387Y145163D01*
X147312Y145161D01*
X145675Y146798D02*
X148948Y150890D01*
X162941Y149253D02*
X164987Y149253D01*
X165076Y149251D01*
X165165Y149245D01*
X165254Y149235D01*
X165342Y149222D01*
X165430Y149205D01*
X165517Y149183D01*
X165602Y149158D01*
X165687Y149130D01*
X165770Y149097D01*
X165852Y149061D01*
X165932Y149022D01*
X166010Y148979D01*
X166086Y148933D01*
X166161Y148883D01*
X166233Y148830D01*
X166302Y148774D01*
X166369Y148715D01*
X166434Y148654D01*
X166495Y148589D01*
X166554Y148522D01*
X166610Y148453D01*
X166663Y148381D01*
X166713Y148306D01*
X166759Y148230D01*
X166802Y148152D01*
X166841Y148072D01*
X166877Y147990D01*
X166910Y147907D01*
X166938Y147822D01*
X166963Y147737D01*
X166985Y147650D01*
X167002Y147562D01*
X167015Y147474D01*
X167025Y147385D01*
X167031Y147296D01*
X167033Y147207D01*
X167031Y147118D01*
X167025Y147029D01*
X167015Y146940D01*
X167002Y146852D01*
X166985Y146764D01*
X166963Y146677D01*
X166938Y146592D01*
X166910Y146507D01*
X166877Y146424D01*
X166841Y146342D01*
X166802Y146262D01*
X166759Y146184D01*
X166713Y146108D01*
X166663Y146033D01*
X166610Y145961D01*
X166554Y145892D01*
X166495Y145825D01*
X166434Y145760D01*
X166369Y145699D01*
X166302Y145640D01*
X166233Y145584D01*
X166161Y145531D01*
X166086Y145481D01*
X166010Y145435D01*
X165932Y145392D01*
X165852Y145353D01*
X165770Y145317D01*
X165687Y145284D01*
X165602Y145256D01*
X165517Y145231D01*
X165430Y145209D01*
X165342Y145192D01*
X165254Y145179D01*
X165165Y145169D01*
X165076Y145163D01*
X164987Y145161D01*
X162941Y145161D01*
X162941Y152527D01*
X164987Y152527D01*
X165066Y152525D01*
X165145Y152519D01*
X165224Y152510D01*
X165302Y152497D01*
X165379Y152479D01*
X165455Y152459D01*
X165530Y152434D01*
X165604Y152406D01*
X165677Y152375D01*
X165748Y152339D01*
X165817Y152301D01*
X165884Y152259D01*
X165949Y152214D01*
X166012Y152166D01*
X166073Y152115D01*
X166130Y152061D01*
X166186Y152005D01*
X166238Y151946D01*
X166288Y151884D01*
X166334Y151820D01*
X166378Y151754D01*
X166418Y151686D01*
X166454Y151616D01*
X166488Y151544D01*
X166518Y151470D01*
X166544Y151396D01*
X166567Y151320D01*
X166585Y151243D01*
X166601Y151166D01*
X166612Y151087D01*
X166620Y151009D01*
X166624Y150930D01*
X166624Y150850D01*
X166620Y150771D01*
X166612Y150693D01*
X166601Y150614D01*
X166585Y150537D01*
X166567Y150460D01*
X166544Y150384D01*
X166518Y150310D01*
X166488Y150236D01*
X166454Y150164D01*
X166418Y150094D01*
X166378Y150026D01*
X166334Y149960D01*
X166288Y149896D01*
X166238Y149834D01*
X166186Y149775D01*
X166130Y149719D01*
X166073Y149665D01*
X166012Y149614D01*
X165949Y149566D01*
X165884Y149521D01*
X165817Y149479D01*
X165748Y149441D01*
X165677Y149405D01*
X165604Y149374D01*
X165530Y149346D01*
X165455Y149321D01*
X165379Y149301D01*
X165302Y149283D01*
X165224Y149270D01*
X165145Y149261D01*
X165066Y149255D01*
X164987Y149253D01*
X169895Y148844D02*
X169897Y148997D01*
X169903Y149150D01*
X169912Y149302D01*
X169926Y149455D01*
X169943Y149607D01*
X169964Y149758D01*
X169989Y149909D01*
X170018Y150059D01*
X170050Y150209D01*
X170087Y150357D01*
X170127Y150505D01*
X170170Y150652D01*
X170218Y150797D01*
X170269Y150941D01*
X170323Y151084D01*
X170382Y151226D01*
X170443Y151365D01*
X170509Y151504D01*
X170535Y151574D01*
X170565Y151644D01*
X170598Y151711D01*
X170634Y151777D01*
X170673Y151841D01*
X170716Y151903D01*
X170762Y151962D01*
X170810Y152020D01*
X170861Y152074D01*
X170915Y152127D01*
X170972Y152176D01*
X171031Y152223D01*
X171092Y152266D01*
X171155Y152307D01*
X171220Y152344D01*
X171287Y152379D01*
X171356Y152409D01*
X171426Y152437D01*
X171497Y152460D01*
X171569Y152481D01*
X171642Y152497D01*
X171716Y152510D01*
X171791Y152520D01*
X171866Y152525D01*
X171941Y152527D01*
X172016Y152525D01*
X172091Y152520D01*
X172166Y152510D01*
X172240Y152497D01*
X172313Y152481D01*
X172385Y152460D01*
X172456Y152437D01*
X172526Y152409D01*
X172595Y152379D01*
X172662Y152344D01*
X172727Y152307D01*
X172790Y152266D01*
X172851Y152223D01*
X172910Y152176D01*
X172967Y152127D01*
X173021Y152074D01*
X173072Y152020D01*
X173121Y151962D01*
X173166Y151903D01*
X173209Y151841D01*
X173248Y151777D01*
X173285Y151711D01*
X173317Y151643D01*
X173347Y151574D01*
X173373Y151504D01*
X173438Y151366D01*
X173500Y151226D01*
X173558Y151084D01*
X173613Y150941D01*
X173664Y150797D01*
X173712Y150652D01*
X173755Y150505D01*
X173795Y150358D01*
X173832Y150209D01*
X173864Y150059D01*
X173893Y149909D01*
X173918Y149758D01*
X173939Y149607D01*
X173956Y149455D01*
X173970Y149302D01*
X173979Y149150D01*
X173985Y148997D01*
X173987Y148844D01*
X169894Y148844D02*
X169896Y148691D01*
X169902Y148538D01*
X169911Y148385D01*
X169925Y148233D01*
X169942Y148081D01*
X169963Y147930D01*
X169988Y147779D01*
X170017Y147628D01*
X170049Y147479D01*
X170086Y147330D01*
X170126Y147183D01*
X170169Y147036D01*
X170217Y146891D01*
X170268Y146746D01*
X170323Y146604D01*
X170381Y146462D01*
X170443Y146322D01*
X170508Y146184D01*
X170509Y146184D02*
X170535Y146113D01*
X170565Y146044D01*
X170598Y145977D01*
X170634Y145911D01*
X170673Y145847D01*
X170716Y145785D01*
X170762Y145726D01*
X170810Y145668D01*
X170861Y145614D01*
X170915Y145561D01*
X170972Y145512D01*
X171031Y145465D01*
X171092Y145422D01*
X171155Y145381D01*
X171220Y145344D01*
X171287Y145309D01*
X171356Y145279D01*
X171426Y145251D01*
X171497Y145228D01*
X171569Y145207D01*
X171642Y145191D01*
X171716Y145178D01*
X171791Y145168D01*
X171866Y145163D01*
X171941Y145161D01*
X173373Y146184D02*
X173438Y146322D01*
X173500Y146462D01*
X173558Y146604D01*
X173613Y146747D01*
X173664Y146891D01*
X173712Y147036D01*
X173755Y147183D01*
X173795Y147331D01*
X173832Y147479D01*
X173864Y147629D01*
X173893Y147779D01*
X173918Y147930D01*
X173939Y148081D01*
X173956Y148233D01*
X173970Y148386D01*
X173979Y148538D01*
X173985Y148691D01*
X173987Y148844D01*
X173373Y146184D02*
X173347Y146114D01*
X173317Y146044D01*
X173285Y145977D01*
X173248Y145911D01*
X173209Y145847D01*
X173166Y145785D01*
X173120Y145726D01*
X173072Y145668D01*
X173021Y145614D01*
X172967Y145561D01*
X172910Y145512D01*
X172851Y145465D01*
X172790Y145422D01*
X172727Y145381D01*
X172662Y145344D01*
X172595Y145309D01*
X172526Y145279D01*
X172456Y145251D01*
X172385Y145228D01*
X172313Y145207D01*
X172240Y145191D01*
X172166Y145178D01*
X172091Y145168D01*
X172016Y145163D01*
X171941Y145161D01*
X170304Y146798D02*
X173578Y150890D01*
X189611Y149253D02*
X191657Y149253D01*
X191746Y149251D01*
X191835Y149245D01*
X191924Y149235D01*
X192012Y149222D01*
X192100Y149205D01*
X192187Y149183D01*
X192272Y149158D01*
X192357Y149130D01*
X192440Y149097D01*
X192522Y149061D01*
X192602Y149022D01*
X192680Y148979D01*
X192756Y148933D01*
X192831Y148883D01*
X192903Y148830D01*
X192972Y148774D01*
X193039Y148715D01*
X193104Y148654D01*
X193165Y148589D01*
X193224Y148522D01*
X193280Y148453D01*
X193333Y148381D01*
X193383Y148306D01*
X193429Y148230D01*
X193472Y148152D01*
X193511Y148072D01*
X193547Y147990D01*
X193580Y147907D01*
X193608Y147822D01*
X193633Y147737D01*
X193655Y147650D01*
X193672Y147562D01*
X193685Y147474D01*
X193695Y147385D01*
X193701Y147296D01*
X193703Y147207D01*
X193701Y147118D01*
X193695Y147029D01*
X193685Y146940D01*
X193672Y146852D01*
X193655Y146764D01*
X193633Y146677D01*
X193608Y146592D01*
X193580Y146507D01*
X193547Y146424D01*
X193511Y146342D01*
X193472Y146262D01*
X193429Y146184D01*
X193383Y146108D01*
X193333Y146033D01*
X193280Y145961D01*
X193224Y145892D01*
X193165Y145825D01*
X193104Y145760D01*
X193039Y145699D01*
X192972Y145640D01*
X192903Y145584D01*
X192831Y145531D01*
X192756Y145481D01*
X192680Y145435D01*
X192602Y145392D01*
X192522Y145353D01*
X192440Y145317D01*
X192357Y145284D01*
X192272Y145256D01*
X192187Y145231D01*
X192100Y145209D01*
X192012Y145192D01*
X191924Y145179D01*
X191835Y145169D01*
X191746Y145163D01*
X191657Y145161D01*
X189611Y145161D01*
X189611Y152527D01*
X191657Y152527D01*
X191736Y152525D01*
X191815Y152519D01*
X191894Y152510D01*
X191972Y152497D01*
X192049Y152479D01*
X192125Y152459D01*
X192200Y152434D01*
X192274Y152406D01*
X192347Y152375D01*
X192418Y152339D01*
X192487Y152301D01*
X192554Y152259D01*
X192619Y152214D01*
X192682Y152166D01*
X192743Y152115D01*
X192800Y152061D01*
X192856Y152005D01*
X192908Y151946D01*
X192958Y151884D01*
X193004Y151820D01*
X193048Y151754D01*
X193088Y151686D01*
X193124Y151616D01*
X193158Y151544D01*
X193188Y151470D01*
X193214Y151396D01*
X193237Y151320D01*
X193255Y151243D01*
X193271Y151166D01*
X193282Y151087D01*
X193290Y151009D01*
X193294Y150930D01*
X193294Y150850D01*
X193290Y150771D01*
X193282Y150693D01*
X193271Y150614D01*
X193255Y150537D01*
X193237Y150460D01*
X193214Y150384D01*
X193188Y150310D01*
X193158Y150236D01*
X193124Y150164D01*
X193088Y150094D01*
X193048Y150026D01*
X193004Y149960D01*
X192958Y149896D01*
X192908Y149834D01*
X192856Y149775D01*
X192800Y149719D01*
X192743Y149665D01*
X192682Y149614D01*
X192619Y149566D01*
X192554Y149521D01*
X192487Y149479D01*
X192418Y149441D01*
X192347Y149405D01*
X192274Y149374D01*
X192200Y149346D01*
X192125Y149321D01*
X192049Y149301D01*
X191972Y149283D01*
X191894Y149270D01*
X191815Y149261D01*
X191736Y149255D01*
X191657Y149253D01*
X196565Y150890D02*
X198611Y152527D01*
X198611Y145161D01*
X196565Y145161D02*
X200657Y145161D01*
X215011Y149253D02*
X217057Y149253D01*
X217146Y149251D01*
X217235Y149245D01*
X217324Y149235D01*
X217412Y149222D01*
X217500Y149205D01*
X217587Y149183D01*
X217672Y149158D01*
X217757Y149130D01*
X217840Y149097D01*
X217922Y149061D01*
X218002Y149022D01*
X218080Y148979D01*
X218156Y148933D01*
X218231Y148883D01*
X218303Y148830D01*
X218372Y148774D01*
X218439Y148715D01*
X218504Y148654D01*
X218565Y148589D01*
X218624Y148522D01*
X218680Y148453D01*
X218733Y148381D01*
X218783Y148306D01*
X218829Y148230D01*
X218872Y148152D01*
X218911Y148072D01*
X218947Y147990D01*
X218980Y147907D01*
X219008Y147822D01*
X219033Y147737D01*
X219055Y147650D01*
X219072Y147562D01*
X219085Y147474D01*
X219095Y147385D01*
X219101Y147296D01*
X219103Y147207D01*
X219101Y147118D01*
X219095Y147029D01*
X219085Y146940D01*
X219072Y146852D01*
X219055Y146764D01*
X219033Y146677D01*
X219008Y146592D01*
X218980Y146507D01*
X218947Y146424D01*
X218911Y146342D01*
X218872Y146262D01*
X218829Y146184D01*
X218783Y146108D01*
X218733Y146033D01*
X218680Y145961D01*
X218624Y145892D01*
X218565Y145825D01*
X218504Y145760D01*
X218439Y145699D01*
X218372Y145640D01*
X218303Y145584D01*
X218231Y145531D01*
X218156Y145481D01*
X218080Y145435D01*
X218002Y145392D01*
X217922Y145353D01*
X217840Y145317D01*
X217757Y145284D01*
X217672Y145256D01*
X217587Y145231D01*
X217500Y145209D01*
X217412Y145192D01*
X217324Y145179D01*
X217235Y145169D01*
X217146Y145163D01*
X217057Y145161D01*
X215011Y145161D01*
X215011Y152527D01*
X217057Y152527D01*
X217136Y152525D01*
X217215Y152519D01*
X217294Y152510D01*
X217372Y152497D01*
X217449Y152479D01*
X217525Y152459D01*
X217600Y152434D01*
X217674Y152406D01*
X217747Y152375D01*
X217818Y152339D01*
X217887Y152301D01*
X217954Y152259D01*
X218019Y152214D01*
X218082Y152166D01*
X218143Y152115D01*
X218200Y152061D01*
X218256Y152005D01*
X218308Y151946D01*
X218358Y151884D01*
X218404Y151820D01*
X218448Y151754D01*
X218488Y151686D01*
X218524Y151616D01*
X218558Y151544D01*
X218588Y151470D01*
X218614Y151396D01*
X218637Y151320D01*
X218655Y151243D01*
X218671Y151166D01*
X218682Y151087D01*
X218690Y151009D01*
X218694Y150930D01*
X218694Y150850D01*
X218690Y150771D01*
X218682Y150693D01*
X218671Y150614D01*
X218655Y150537D01*
X218637Y150460D01*
X218614Y150384D01*
X218588Y150310D01*
X218558Y150236D01*
X218524Y150164D01*
X218488Y150094D01*
X218448Y150026D01*
X218404Y149960D01*
X218358Y149896D01*
X218308Y149834D01*
X218256Y149775D01*
X218200Y149719D01*
X218143Y149665D01*
X218082Y149614D01*
X218019Y149566D01*
X217954Y149521D01*
X217887Y149479D01*
X217818Y149441D01*
X217747Y149405D01*
X217674Y149374D01*
X217600Y149346D01*
X217525Y149321D01*
X217449Y149301D01*
X217372Y149283D01*
X217294Y149270D01*
X217215Y149261D01*
X217136Y149255D01*
X217057Y149253D01*
X224215Y152528D02*
X224300Y152526D01*
X224385Y152520D01*
X224469Y152510D01*
X224553Y152497D01*
X224637Y152479D01*
X224719Y152458D01*
X224800Y152433D01*
X224880Y152404D01*
X224959Y152371D01*
X225036Y152335D01*
X225111Y152295D01*
X225185Y152252D01*
X225256Y152206D01*
X225325Y152156D01*
X225392Y152103D01*
X225456Y152047D01*
X225517Y151988D01*
X225576Y151927D01*
X225632Y151863D01*
X225685Y151796D01*
X225735Y151727D01*
X225781Y151656D01*
X225824Y151582D01*
X225864Y151507D01*
X225900Y151430D01*
X225933Y151351D01*
X225962Y151271D01*
X225987Y151190D01*
X226008Y151108D01*
X226026Y151024D01*
X226039Y150940D01*
X226049Y150856D01*
X226055Y150771D01*
X226057Y150686D01*
X224215Y152527D02*
X224119Y152525D01*
X224023Y152519D01*
X223928Y152509D01*
X223833Y152496D01*
X223738Y152478D01*
X223645Y152457D01*
X223552Y152432D01*
X223461Y152403D01*
X223370Y152371D01*
X223281Y152335D01*
X223194Y152295D01*
X223108Y152252D01*
X223024Y152206D01*
X222942Y152156D01*
X222862Y152102D01*
X222785Y152046D01*
X222710Y151986D01*
X222637Y151924D01*
X222567Y151858D01*
X222499Y151790D01*
X222434Y151719D01*
X222373Y151646D01*
X222314Y151570D01*
X222258Y151491D01*
X222206Y151411D01*
X222157Y151328D01*
X222111Y151244D01*
X222069Y151158D01*
X222031Y151070D01*
X221996Y150981D01*
X221964Y150890D01*
X225443Y149254D02*
X225503Y149313D01*
X225560Y149375D01*
X225615Y149439D01*
X225666Y149506D01*
X225715Y149575D01*
X225761Y149645D01*
X225804Y149718D01*
X225844Y149792D01*
X225880Y149868D01*
X225913Y149946D01*
X225943Y150025D01*
X225970Y150105D01*
X225993Y150186D01*
X226012Y150268D01*
X226028Y150350D01*
X226041Y150434D01*
X226050Y150518D01*
X226055Y150602D01*
X226057Y150686D01*
X225443Y149253D02*
X221965Y145161D01*
X226057Y145161D01*
X239141Y149253D02*
X241187Y149253D01*
X241276Y149251D01*
X241365Y149245D01*
X241454Y149235D01*
X241542Y149222D01*
X241630Y149205D01*
X241717Y149183D01*
X241802Y149158D01*
X241887Y149130D01*
X241970Y149097D01*
X242052Y149061D01*
X242132Y149022D01*
X242210Y148979D01*
X242286Y148933D01*
X242361Y148883D01*
X242433Y148830D01*
X242502Y148774D01*
X242569Y148715D01*
X242634Y148654D01*
X242695Y148589D01*
X242754Y148522D01*
X242810Y148453D01*
X242863Y148381D01*
X242913Y148306D01*
X242959Y148230D01*
X243002Y148152D01*
X243041Y148072D01*
X243077Y147990D01*
X243110Y147907D01*
X243138Y147822D01*
X243163Y147737D01*
X243185Y147650D01*
X243202Y147562D01*
X243215Y147474D01*
X243225Y147385D01*
X243231Y147296D01*
X243233Y147207D01*
X243231Y147118D01*
X243225Y147029D01*
X243215Y146940D01*
X243202Y146852D01*
X243185Y146764D01*
X243163Y146677D01*
X243138Y146592D01*
X243110Y146507D01*
X243077Y146424D01*
X243041Y146342D01*
X243002Y146262D01*
X242959Y146184D01*
X242913Y146108D01*
X242863Y146033D01*
X242810Y145961D01*
X242754Y145892D01*
X242695Y145825D01*
X242634Y145760D01*
X242569Y145699D01*
X242502Y145640D01*
X242433Y145584D01*
X242361Y145531D01*
X242286Y145481D01*
X242210Y145435D01*
X242132Y145392D01*
X242052Y145353D01*
X241970Y145317D01*
X241887Y145284D01*
X241802Y145256D01*
X241717Y145231D01*
X241630Y145209D01*
X241542Y145192D01*
X241454Y145179D01*
X241365Y145169D01*
X241276Y145163D01*
X241187Y145161D01*
X239141Y145161D01*
X239141Y152527D01*
X241187Y152527D01*
X241266Y152525D01*
X241345Y152519D01*
X241424Y152510D01*
X241502Y152497D01*
X241579Y152479D01*
X241655Y152459D01*
X241730Y152434D01*
X241804Y152406D01*
X241877Y152375D01*
X241948Y152339D01*
X242017Y152301D01*
X242084Y152259D01*
X242149Y152214D01*
X242212Y152166D01*
X242273Y152115D01*
X242330Y152061D01*
X242386Y152005D01*
X242438Y151946D01*
X242488Y151884D01*
X242534Y151820D01*
X242578Y151754D01*
X242618Y151686D01*
X242654Y151616D01*
X242688Y151544D01*
X242718Y151470D01*
X242744Y151396D01*
X242767Y151320D01*
X242785Y151243D01*
X242801Y151166D01*
X242812Y151087D01*
X242820Y151009D01*
X242824Y150930D01*
X242824Y150850D01*
X242820Y150771D01*
X242812Y150693D01*
X242801Y150614D01*
X242785Y150537D01*
X242767Y150460D01*
X242744Y150384D01*
X242718Y150310D01*
X242688Y150236D01*
X242654Y150164D01*
X242618Y150094D01*
X242578Y150026D01*
X242534Y149960D01*
X242488Y149896D01*
X242438Y149834D01*
X242386Y149775D01*
X242330Y149719D01*
X242273Y149665D01*
X242212Y149614D01*
X242149Y149566D01*
X242084Y149521D01*
X242017Y149479D01*
X241948Y149441D01*
X241877Y149405D01*
X241804Y149374D01*
X241730Y149346D01*
X241655Y149321D01*
X241579Y149301D01*
X241502Y149283D01*
X241424Y149270D01*
X241345Y149261D01*
X241266Y149255D01*
X241187Y149253D01*
X246095Y145161D02*
X248141Y145161D01*
X248230Y145163D01*
X248319Y145169D01*
X248408Y145179D01*
X248496Y145192D01*
X248584Y145209D01*
X248671Y145231D01*
X248756Y145256D01*
X248841Y145284D01*
X248924Y145317D01*
X249006Y145353D01*
X249086Y145392D01*
X249164Y145435D01*
X249240Y145481D01*
X249315Y145531D01*
X249387Y145584D01*
X249456Y145640D01*
X249523Y145699D01*
X249588Y145760D01*
X249649Y145825D01*
X249708Y145892D01*
X249764Y145961D01*
X249817Y146033D01*
X249867Y146108D01*
X249913Y146184D01*
X249956Y146262D01*
X249995Y146342D01*
X250031Y146424D01*
X250064Y146507D01*
X250092Y146592D01*
X250117Y146677D01*
X250139Y146764D01*
X250156Y146852D01*
X250169Y146940D01*
X250179Y147029D01*
X250185Y147118D01*
X250187Y147207D01*
X250185Y147296D01*
X250179Y147385D01*
X250169Y147474D01*
X250156Y147562D01*
X250139Y147650D01*
X250117Y147737D01*
X250092Y147822D01*
X250064Y147907D01*
X250031Y147990D01*
X249995Y148072D01*
X249956Y148152D01*
X249913Y148230D01*
X249867Y148306D01*
X249817Y148381D01*
X249764Y148453D01*
X249708Y148522D01*
X249649Y148589D01*
X249588Y148654D01*
X249523Y148715D01*
X249456Y148774D01*
X249387Y148830D01*
X249315Y148883D01*
X249240Y148933D01*
X249164Y148979D01*
X249086Y149022D01*
X249006Y149061D01*
X248924Y149097D01*
X248841Y149130D01*
X248756Y149158D01*
X248671Y149183D01*
X248584Y149205D01*
X248496Y149222D01*
X248408Y149235D01*
X248319Y149245D01*
X248230Y149251D01*
X248141Y149253D01*
X248550Y152527D02*
X246095Y152527D01*
X248550Y152527D02*
X248629Y152525D01*
X248708Y152519D01*
X248787Y152510D01*
X248865Y152497D01*
X248942Y152479D01*
X249018Y152459D01*
X249093Y152434D01*
X249167Y152406D01*
X249240Y152375D01*
X249311Y152339D01*
X249380Y152301D01*
X249447Y152259D01*
X249512Y152214D01*
X249575Y152166D01*
X249636Y152115D01*
X249693Y152061D01*
X249749Y152005D01*
X249801Y151946D01*
X249851Y151884D01*
X249897Y151820D01*
X249941Y151754D01*
X249981Y151686D01*
X250017Y151616D01*
X250051Y151544D01*
X250081Y151470D01*
X250107Y151396D01*
X250130Y151320D01*
X250148Y151243D01*
X250164Y151166D01*
X250175Y151087D01*
X250183Y151009D01*
X250187Y150930D01*
X250187Y150850D01*
X250183Y150771D01*
X250175Y150693D01*
X250164Y150614D01*
X250148Y150537D01*
X250130Y150460D01*
X250107Y150384D01*
X250081Y150310D01*
X250051Y150236D01*
X250017Y150164D01*
X249981Y150094D01*
X249941Y150026D01*
X249897Y149960D01*
X249851Y149896D01*
X249801Y149834D01*
X249749Y149775D01*
X249693Y149719D01*
X249636Y149665D01*
X249575Y149614D01*
X249512Y149566D01*
X249447Y149521D01*
X249380Y149479D01*
X249311Y149441D01*
X249240Y149405D01*
X249167Y149374D01*
X249093Y149346D01*
X249018Y149321D01*
X248942Y149301D01*
X248865Y149283D01*
X248787Y149270D01*
X248708Y149261D01*
X248629Y149255D01*
X248550Y149253D01*
X246913Y149253D01*
X264541Y149253D02*
X266587Y149253D01*
X266676Y149251D01*
X266765Y149245D01*
X266854Y149235D01*
X266942Y149222D01*
X267030Y149205D01*
X267117Y149183D01*
X267202Y149158D01*
X267287Y149130D01*
X267370Y149097D01*
X267452Y149061D01*
X267532Y149022D01*
X267610Y148979D01*
X267686Y148933D01*
X267761Y148883D01*
X267833Y148830D01*
X267902Y148774D01*
X267969Y148715D01*
X268034Y148654D01*
X268095Y148589D01*
X268154Y148522D01*
X268210Y148453D01*
X268263Y148381D01*
X268313Y148306D01*
X268359Y148230D01*
X268402Y148152D01*
X268441Y148072D01*
X268477Y147990D01*
X268510Y147907D01*
X268538Y147822D01*
X268563Y147737D01*
X268585Y147650D01*
X268602Y147562D01*
X268615Y147474D01*
X268625Y147385D01*
X268631Y147296D01*
X268633Y147207D01*
X268631Y147118D01*
X268625Y147029D01*
X268615Y146940D01*
X268602Y146852D01*
X268585Y146764D01*
X268563Y146677D01*
X268538Y146592D01*
X268510Y146507D01*
X268477Y146424D01*
X268441Y146342D01*
X268402Y146262D01*
X268359Y146184D01*
X268313Y146108D01*
X268263Y146033D01*
X268210Y145961D01*
X268154Y145892D01*
X268095Y145825D01*
X268034Y145760D01*
X267969Y145699D01*
X267902Y145640D01*
X267833Y145584D01*
X267761Y145531D01*
X267686Y145481D01*
X267610Y145435D01*
X267532Y145392D01*
X267452Y145353D01*
X267370Y145317D01*
X267287Y145284D01*
X267202Y145256D01*
X267117Y145231D01*
X267030Y145209D01*
X266942Y145192D01*
X266854Y145179D01*
X266765Y145169D01*
X266676Y145163D01*
X266587Y145161D01*
X264541Y145161D01*
X264541Y152527D01*
X266587Y152527D01*
X266666Y152525D01*
X266745Y152519D01*
X266824Y152510D01*
X266902Y152497D01*
X266979Y152479D01*
X267055Y152459D01*
X267130Y152434D01*
X267204Y152406D01*
X267277Y152375D01*
X267348Y152339D01*
X267417Y152301D01*
X267484Y152259D01*
X267549Y152214D01*
X267612Y152166D01*
X267673Y152115D01*
X267730Y152061D01*
X267786Y152005D01*
X267838Y151946D01*
X267888Y151884D01*
X267934Y151820D01*
X267978Y151754D01*
X268018Y151686D01*
X268054Y151616D01*
X268088Y151544D01*
X268118Y151470D01*
X268144Y151396D01*
X268167Y151320D01*
X268185Y151243D01*
X268201Y151166D01*
X268212Y151087D01*
X268220Y151009D01*
X268224Y150930D01*
X268224Y150850D01*
X268220Y150771D01*
X268212Y150693D01*
X268201Y150614D01*
X268185Y150537D01*
X268167Y150460D01*
X268144Y150384D01*
X268118Y150310D01*
X268088Y150236D01*
X268054Y150164D01*
X268018Y150094D01*
X267978Y150026D01*
X267934Y149960D01*
X267888Y149896D01*
X267838Y149834D01*
X267786Y149775D01*
X267730Y149719D01*
X267673Y149665D01*
X267612Y149614D01*
X267549Y149566D01*
X267484Y149521D01*
X267417Y149479D01*
X267348Y149441D01*
X267277Y149405D01*
X267204Y149374D01*
X267130Y149346D01*
X267055Y149321D01*
X266979Y149301D01*
X266902Y149283D01*
X266824Y149270D01*
X266745Y149261D01*
X266666Y149255D01*
X266587Y149253D01*
X271495Y146798D02*
X273132Y152527D01*
X271495Y146798D02*
X275587Y146798D01*
X274359Y148435D02*
X274359Y145161D01*
X269127Y37493D02*
X267081Y37493D01*
X269127Y37493D02*
X269216Y37491D01*
X269305Y37485D01*
X269394Y37475D01*
X269482Y37462D01*
X269570Y37445D01*
X269657Y37423D01*
X269742Y37398D01*
X269827Y37370D01*
X269910Y37337D01*
X269992Y37301D01*
X270072Y37262D01*
X270150Y37219D01*
X270226Y37173D01*
X270301Y37123D01*
X270373Y37070D01*
X270442Y37014D01*
X270509Y36955D01*
X270574Y36894D01*
X270635Y36829D01*
X270694Y36762D01*
X270750Y36693D01*
X270803Y36621D01*
X270853Y36546D01*
X270899Y36470D01*
X270942Y36392D01*
X270981Y36312D01*
X271017Y36230D01*
X271050Y36147D01*
X271078Y36062D01*
X271103Y35977D01*
X271125Y35890D01*
X271142Y35802D01*
X271155Y35714D01*
X271165Y35625D01*
X271171Y35536D01*
X271173Y35447D01*
X271171Y35358D01*
X271165Y35269D01*
X271155Y35180D01*
X271142Y35092D01*
X271125Y35004D01*
X271103Y34917D01*
X271078Y34832D01*
X271050Y34747D01*
X271017Y34664D01*
X270981Y34582D01*
X270942Y34502D01*
X270899Y34424D01*
X270853Y34348D01*
X270803Y34273D01*
X270750Y34201D01*
X270694Y34132D01*
X270635Y34065D01*
X270574Y34000D01*
X270509Y33939D01*
X270442Y33880D01*
X270373Y33824D01*
X270301Y33771D01*
X270226Y33721D01*
X270150Y33675D01*
X270072Y33632D01*
X269992Y33593D01*
X269910Y33557D01*
X269827Y33524D01*
X269742Y33496D01*
X269657Y33471D01*
X269570Y33449D01*
X269482Y33432D01*
X269394Y33419D01*
X269305Y33409D01*
X269216Y33403D01*
X269127Y33401D01*
X267081Y33401D01*
X267081Y40767D01*
X269127Y40767D01*
X269206Y40765D01*
X269285Y40759D01*
X269364Y40750D01*
X269442Y40737D01*
X269519Y40719D01*
X269595Y40699D01*
X269670Y40674D01*
X269744Y40646D01*
X269817Y40615D01*
X269888Y40579D01*
X269957Y40541D01*
X270024Y40499D01*
X270089Y40454D01*
X270152Y40406D01*
X270213Y40355D01*
X270270Y40301D01*
X270326Y40245D01*
X270378Y40186D01*
X270428Y40124D01*
X270474Y40060D01*
X270518Y39994D01*
X270558Y39926D01*
X270594Y39856D01*
X270628Y39784D01*
X270658Y39710D01*
X270684Y39636D01*
X270707Y39560D01*
X270725Y39483D01*
X270741Y39406D01*
X270752Y39327D01*
X270760Y39249D01*
X270764Y39170D01*
X270764Y39090D01*
X270760Y39011D01*
X270752Y38933D01*
X270741Y38854D01*
X270725Y38777D01*
X270707Y38700D01*
X270684Y38624D01*
X270658Y38550D01*
X270628Y38476D01*
X270594Y38404D01*
X270558Y38334D01*
X270518Y38266D01*
X270474Y38200D01*
X270428Y38136D01*
X270378Y38074D01*
X270326Y38015D01*
X270270Y37959D01*
X270213Y37905D01*
X270152Y37854D01*
X270089Y37806D01*
X270024Y37761D01*
X269957Y37719D01*
X269888Y37681D01*
X269817Y37645D01*
X269744Y37614D01*
X269670Y37586D01*
X269595Y37561D01*
X269519Y37541D01*
X269442Y37523D01*
X269364Y37510D01*
X269285Y37501D01*
X269206Y37495D01*
X269127Y37493D01*
X274035Y33401D02*
X276490Y33401D01*
X276568Y33403D01*
X276646Y33408D01*
X276723Y33418D01*
X276800Y33431D01*
X276876Y33447D01*
X276951Y33467D01*
X277025Y33491D01*
X277098Y33518D01*
X277170Y33549D01*
X277240Y33583D01*
X277309Y33620D01*
X277375Y33661D01*
X277440Y33705D01*
X277502Y33751D01*
X277562Y33801D01*
X277620Y33853D01*
X277675Y33908D01*
X277727Y33966D01*
X277777Y34026D01*
X277823Y34088D01*
X277867Y34153D01*
X277908Y34220D01*
X277945Y34288D01*
X277979Y34358D01*
X278010Y34430D01*
X278037Y34503D01*
X278061Y34577D01*
X278081Y34652D01*
X278097Y34728D01*
X278110Y34805D01*
X278120Y34882D01*
X278125Y34960D01*
X278127Y35038D01*
X278127Y35856D01*
X278125Y35934D01*
X278120Y36012D01*
X278110Y36089D01*
X278097Y36166D01*
X278081Y36242D01*
X278061Y36317D01*
X278037Y36391D01*
X278010Y36464D01*
X277979Y36536D01*
X277945Y36606D01*
X277908Y36675D01*
X277867Y36741D01*
X277823Y36806D01*
X277777Y36868D01*
X277727Y36928D01*
X277675Y36986D01*
X277620Y37041D01*
X277562Y37093D01*
X277502Y37143D01*
X277440Y37189D01*
X277375Y37233D01*
X277309Y37274D01*
X277240Y37311D01*
X277170Y37345D01*
X277098Y37376D01*
X277025Y37403D01*
X276951Y37427D01*
X276876Y37447D01*
X276800Y37463D01*
X276723Y37476D01*
X276646Y37486D01*
X276568Y37491D01*
X276490Y37493D01*
X274035Y37493D01*
X274035Y40767D01*
X278127Y40767D01*
X239917Y33401D02*
X237871Y33401D01*
X239917Y33401D02*
X240006Y33403D01*
X240095Y33409D01*
X240184Y33419D01*
X240272Y33432D01*
X240360Y33449D01*
X240447Y33471D01*
X240532Y33496D01*
X240617Y33524D01*
X240700Y33557D01*
X240782Y33593D01*
X240862Y33632D01*
X240940Y33675D01*
X241016Y33721D01*
X241091Y33771D01*
X241163Y33824D01*
X241232Y33880D01*
X241299Y33939D01*
X241364Y34000D01*
X241425Y34065D01*
X241484Y34132D01*
X241540Y34201D01*
X241593Y34273D01*
X241643Y34348D01*
X241689Y34424D01*
X241732Y34502D01*
X241771Y34582D01*
X241807Y34664D01*
X241840Y34747D01*
X241868Y34832D01*
X241893Y34917D01*
X241915Y35004D01*
X241932Y35092D01*
X241945Y35180D01*
X241955Y35269D01*
X241961Y35358D01*
X241963Y35447D01*
X241961Y35536D01*
X241955Y35625D01*
X241945Y35714D01*
X241932Y35802D01*
X241915Y35890D01*
X241893Y35977D01*
X241868Y36062D01*
X241840Y36147D01*
X241807Y36230D01*
X241771Y36312D01*
X241732Y36392D01*
X241689Y36470D01*
X241643Y36546D01*
X241593Y36621D01*
X241540Y36693D01*
X241484Y36762D01*
X241425Y36829D01*
X241364Y36894D01*
X241299Y36955D01*
X241232Y37014D01*
X241163Y37070D01*
X241091Y37123D01*
X241016Y37173D01*
X240940Y37219D01*
X240862Y37262D01*
X240782Y37301D01*
X240700Y37337D01*
X240617Y37370D01*
X240532Y37398D01*
X240447Y37423D01*
X240360Y37445D01*
X240272Y37462D01*
X240184Y37475D01*
X240095Y37485D01*
X240006Y37491D01*
X239917Y37493D01*
X240326Y40767D02*
X237871Y40767D01*
X240326Y40767D02*
X240405Y40765D01*
X240484Y40759D01*
X240563Y40750D01*
X240641Y40737D01*
X240718Y40719D01*
X240794Y40699D01*
X240869Y40674D01*
X240943Y40646D01*
X241016Y40615D01*
X241087Y40579D01*
X241156Y40541D01*
X241223Y40499D01*
X241288Y40454D01*
X241351Y40406D01*
X241412Y40355D01*
X241469Y40301D01*
X241525Y40245D01*
X241577Y40186D01*
X241627Y40124D01*
X241673Y40060D01*
X241717Y39994D01*
X241757Y39926D01*
X241793Y39856D01*
X241827Y39784D01*
X241857Y39710D01*
X241883Y39636D01*
X241906Y39560D01*
X241924Y39483D01*
X241940Y39406D01*
X241951Y39327D01*
X241959Y39249D01*
X241963Y39170D01*
X241963Y39090D01*
X241959Y39011D01*
X241951Y38933D01*
X241940Y38854D01*
X241924Y38777D01*
X241906Y38700D01*
X241883Y38624D01*
X241857Y38550D01*
X241827Y38476D01*
X241793Y38404D01*
X241757Y38334D01*
X241717Y38266D01*
X241673Y38200D01*
X241627Y38136D01*
X241577Y38074D01*
X241525Y38015D01*
X241469Y37959D01*
X241412Y37905D01*
X241351Y37854D01*
X241288Y37806D01*
X241223Y37761D01*
X241156Y37719D01*
X241087Y37681D01*
X241016Y37645D01*
X240943Y37614D01*
X240869Y37586D01*
X240794Y37561D01*
X240718Y37541D01*
X240641Y37523D01*
X240563Y37510D01*
X240484Y37501D01*
X240405Y37495D01*
X240326Y37493D01*
X238689Y37493D01*
X244777Y40767D02*
X247232Y33401D01*
X249688Y40767D01*
X252501Y33401D02*
X254547Y33401D01*
X254636Y33403D01*
X254725Y33409D01*
X254814Y33419D01*
X254902Y33432D01*
X254990Y33449D01*
X255077Y33471D01*
X255162Y33496D01*
X255247Y33524D01*
X255330Y33557D01*
X255412Y33593D01*
X255492Y33632D01*
X255570Y33675D01*
X255646Y33721D01*
X255721Y33771D01*
X255793Y33824D01*
X255862Y33880D01*
X255929Y33939D01*
X255994Y34000D01*
X256055Y34065D01*
X256114Y34132D01*
X256170Y34201D01*
X256223Y34273D01*
X256273Y34348D01*
X256319Y34424D01*
X256362Y34502D01*
X256401Y34582D01*
X256437Y34664D01*
X256470Y34747D01*
X256498Y34832D01*
X256523Y34917D01*
X256545Y35004D01*
X256562Y35092D01*
X256575Y35180D01*
X256585Y35269D01*
X256591Y35358D01*
X256593Y35447D01*
X256591Y35536D01*
X256585Y35625D01*
X256575Y35714D01*
X256562Y35802D01*
X256545Y35890D01*
X256523Y35977D01*
X256498Y36062D01*
X256470Y36147D01*
X256437Y36230D01*
X256401Y36312D01*
X256362Y36392D01*
X256319Y36470D01*
X256273Y36546D01*
X256223Y36621D01*
X256170Y36693D01*
X256114Y36762D01*
X256055Y36829D01*
X255994Y36894D01*
X255929Y36955D01*
X255862Y37014D01*
X255793Y37070D01*
X255721Y37123D01*
X255646Y37173D01*
X255570Y37219D01*
X255492Y37262D01*
X255412Y37301D01*
X255330Y37337D01*
X255247Y37370D01*
X255162Y37398D01*
X255077Y37423D01*
X254990Y37445D01*
X254902Y37462D01*
X254814Y37475D01*
X254725Y37485D01*
X254636Y37491D01*
X254547Y37493D01*
X254957Y40767D02*
X252501Y40767D01*
X254957Y40767D02*
X255036Y40765D01*
X255115Y40759D01*
X255194Y40750D01*
X255272Y40737D01*
X255349Y40719D01*
X255425Y40699D01*
X255500Y40674D01*
X255574Y40646D01*
X255647Y40615D01*
X255718Y40579D01*
X255787Y40541D01*
X255854Y40499D01*
X255919Y40454D01*
X255982Y40406D01*
X256043Y40355D01*
X256100Y40301D01*
X256156Y40245D01*
X256208Y40186D01*
X256258Y40124D01*
X256304Y40060D01*
X256348Y39994D01*
X256388Y39926D01*
X256424Y39856D01*
X256458Y39784D01*
X256488Y39710D01*
X256514Y39636D01*
X256537Y39560D01*
X256555Y39483D01*
X256571Y39406D01*
X256582Y39327D01*
X256590Y39249D01*
X256594Y39170D01*
X256594Y39090D01*
X256590Y39011D01*
X256582Y38933D01*
X256571Y38854D01*
X256555Y38777D01*
X256537Y38700D01*
X256514Y38624D01*
X256488Y38550D01*
X256458Y38476D01*
X256424Y38404D01*
X256388Y38334D01*
X256348Y38266D01*
X256304Y38200D01*
X256258Y38136D01*
X256208Y38074D01*
X256156Y38015D01*
X256100Y37959D01*
X256043Y37905D01*
X255982Y37854D01*
X255919Y37806D01*
X255854Y37761D01*
X255787Y37719D01*
X255718Y37681D01*
X255647Y37645D01*
X255574Y37614D01*
X255500Y37586D01*
X255425Y37561D01*
X255349Y37541D01*
X255272Y37523D01*
X255194Y37510D01*
X255115Y37501D01*
X255036Y37495D01*
X254957Y37493D01*
X253320Y37493D01*
X217057Y37493D02*
X215011Y37493D01*
X217057Y37493D02*
X217146Y37491D01*
X217235Y37485D01*
X217324Y37475D01*
X217412Y37462D01*
X217500Y37445D01*
X217587Y37423D01*
X217672Y37398D01*
X217757Y37370D01*
X217840Y37337D01*
X217922Y37301D01*
X218002Y37262D01*
X218080Y37219D01*
X218156Y37173D01*
X218231Y37123D01*
X218303Y37070D01*
X218372Y37014D01*
X218439Y36955D01*
X218504Y36894D01*
X218565Y36829D01*
X218624Y36762D01*
X218680Y36693D01*
X218733Y36621D01*
X218783Y36546D01*
X218829Y36470D01*
X218872Y36392D01*
X218911Y36312D01*
X218947Y36230D01*
X218980Y36147D01*
X219008Y36062D01*
X219033Y35977D01*
X219055Y35890D01*
X219072Y35802D01*
X219085Y35714D01*
X219095Y35625D01*
X219101Y35536D01*
X219103Y35447D01*
X219101Y35358D01*
X219095Y35269D01*
X219085Y35180D01*
X219072Y35092D01*
X219055Y35004D01*
X219033Y34917D01*
X219008Y34832D01*
X218980Y34747D01*
X218947Y34664D01*
X218911Y34582D01*
X218872Y34502D01*
X218829Y34424D01*
X218783Y34348D01*
X218733Y34273D01*
X218680Y34201D01*
X218624Y34132D01*
X218565Y34065D01*
X218504Y34000D01*
X218439Y33939D01*
X218372Y33880D01*
X218303Y33824D01*
X218231Y33771D01*
X218156Y33721D01*
X218080Y33675D01*
X218002Y33632D01*
X217922Y33593D01*
X217840Y33557D01*
X217757Y33524D01*
X217672Y33496D01*
X217587Y33471D01*
X217500Y33449D01*
X217412Y33432D01*
X217324Y33419D01*
X217235Y33409D01*
X217146Y33403D01*
X217057Y33401D01*
X215011Y33401D01*
X215011Y40767D01*
X217057Y40767D01*
X217136Y40765D01*
X217215Y40759D01*
X217294Y40750D01*
X217372Y40737D01*
X217449Y40719D01*
X217525Y40699D01*
X217600Y40674D01*
X217674Y40646D01*
X217747Y40615D01*
X217818Y40579D01*
X217887Y40541D01*
X217954Y40499D01*
X218019Y40454D01*
X218082Y40406D01*
X218143Y40355D01*
X218200Y40301D01*
X218256Y40245D01*
X218308Y40186D01*
X218358Y40124D01*
X218404Y40060D01*
X218448Y39994D01*
X218488Y39926D01*
X218524Y39856D01*
X218558Y39784D01*
X218588Y39710D01*
X218614Y39636D01*
X218637Y39560D01*
X218655Y39483D01*
X218671Y39406D01*
X218682Y39327D01*
X218690Y39249D01*
X218694Y39170D01*
X218694Y39090D01*
X218690Y39011D01*
X218682Y38933D01*
X218671Y38854D01*
X218655Y38777D01*
X218637Y38700D01*
X218614Y38624D01*
X218588Y38550D01*
X218558Y38476D01*
X218524Y38404D01*
X218488Y38334D01*
X218448Y38266D01*
X218404Y38200D01*
X218358Y38136D01*
X218308Y38074D01*
X218256Y38015D01*
X218200Y37959D01*
X218143Y37905D01*
X218082Y37854D01*
X218019Y37806D01*
X217954Y37761D01*
X217887Y37719D01*
X217818Y37681D01*
X217747Y37645D01*
X217674Y37614D01*
X217600Y37586D01*
X217525Y37561D01*
X217449Y37541D01*
X217372Y37523D01*
X217294Y37510D01*
X217215Y37501D01*
X217136Y37495D01*
X217057Y37493D01*
X221965Y37493D02*
X224420Y37493D01*
X224498Y37491D01*
X224576Y37486D01*
X224653Y37476D01*
X224730Y37463D01*
X224806Y37447D01*
X224881Y37427D01*
X224955Y37403D01*
X225028Y37376D01*
X225100Y37345D01*
X225170Y37311D01*
X225239Y37274D01*
X225305Y37233D01*
X225370Y37189D01*
X225432Y37143D01*
X225492Y37093D01*
X225550Y37041D01*
X225605Y36986D01*
X225657Y36928D01*
X225707Y36868D01*
X225753Y36806D01*
X225797Y36741D01*
X225838Y36675D01*
X225875Y36606D01*
X225909Y36536D01*
X225940Y36464D01*
X225967Y36391D01*
X225991Y36317D01*
X226011Y36242D01*
X226027Y36166D01*
X226040Y36089D01*
X226050Y36012D01*
X226055Y35934D01*
X226057Y35856D01*
X226057Y35447D01*
X226055Y35358D01*
X226049Y35269D01*
X226039Y35180D01*
X226026Y35092D01*
X226009Y35004D01*
X225987Y34917D01*
X225962Y34832D01*
X225934Y34747D01*
X225901Y34664D01*
X225865Y34582D01*
X225826Y34502D01*
X225783Y34424D01*
X225737Y34348D01*
X225687Y34273D01*
X225634Y34201D01*
X225578Y34132D01*
X225519Y34065D01*
X225458Y34000D01*
X225393Y33939D01*
X225326Y33880D01*
X225257Y33824D01*
X225185Y33771D01*
X225110Y33721D01*
X225034Y33675D01*
X224956Y33632D01*
X224876Y33593D01*
X224794Y33557D01*
X224711Y33524D01*
X224626Y33496D01*
X224541Y33471D01*
X224454Y33449D01*
X224366Y33432D01*
X224278Y33419D01*
X224189Y33409D01*
X224100Y33403D01*
X224011Y33401D01*
X223922Y33403D01*
X223833Y33409D01*
X223744Y33419D01*
X223656Y33432D01*
X223568Y33449D01*
X223481Y33471D01*
X223396Y33496D01*
X223311Y33524D01*
X223228Y33557D01*
X223146Y33593D01*
X223066Y33632D01*
X222988Y33675D01*
X222912Y33721D01*
X222837Y33771D01*
X222765Y33824D01*
X222696Y33880D01*
X222629Y33939D01*
X222564Y34000D01*
X222503Y34065D01*
X222444Y34132D01*
X222388Y34201D01*
X222335Y34273D01*
X222285Y34348D01*
X222239Y34424D01*
X222196Y34502D01*
X222157Y34582D01*
X222121Y34664D01*
X222088Y34747D01*
X222060Y34832D01*
X222035Y34917D01*
X222013Y35004D01*
X221996Y35092D01*
X221983Y35180D01*
X221973Y35269D01*
X221967Y35358D01*
X221965Y35447D01*
X221965Y37493D01*
X221964Y37493D02*
X221966Y37607D01*
X221972Y37721D01*
X221982Y37835D01*
X221996Y37949D01*
X222014Y38062D01*
X222036Y38174D01*
X222061Y38285D01*
X222091Y38395D01*
X222124Y38505D01*
X222161Y38613D01*
X222202Y38719D01*
X222247Y38825D01*
X222295Y38928D01*
X222347Y39030D01*
X222403Y39130D01*
X222461Y39228D01*
X222524Y39324D01*
X222589Y39417D01*
X222658Y39509D01*
X222730Y39597D01*
X222805Y39684D01*
X222883Y39767D01*
X222964Y39848D01*
X223047Y39926D01*
X223134Y40001D01*
X223222Y40073D01*
X223314Y40142D01*
X223407Y40207D01*
X223503Y40269D01*
X223601Y40328D01*
X223701Y40384D01*
X223803Y40436D01*
X223906Y40484D01*
X224012Y40529D01*
X224118Y40570D01*
X224226Y40607D01*
X224336Y40640D01*
X224446Y40670D01*
X224557Y40695D01*
X224669Y40717D01*
X224782Y40735D01*
X224896Y40749D01*
X225010Y40759D01*
X225124Y40765D01*
X225238Y40767D01*
X189893Y37493D02*
X188666Y37493D01*
X189893Y37493D02*
X189893Y33401D01*
X187438Y33401D01*
X187360Y33403D01*
X187282Y33408D01*
X187205Y33418D01*
X187128Y33431D01*
X187052Y33447D01*
X186977Y33467D01*
X186903Y33491D01*
X186830Y33518D01*
X186758Y33549D01*
X186688Y33583D01*
X186620Y33620D01*
X186553Y33661D01*
X186488Y33705D01*
X186426Y33751D01*
X186366Y33801D01*
X186308Y33853D01*
X186253Y33908D01*
X186201Y33966D01*
X186151Y34026D01*
X186105Y34088D01*
X186061Y34153D01*
X186020Y34220D01*
X185983Y34288D01*
X185949Y34358D01*
X185918Y34430D01*
X185891Y34503D01*
X185867Y34577D01*
X185847Y34652D01*
X185831Y34728D01*
X185818Y34805D01*
X185808Y34882D01*
X185803Y34960D01*
X185801Y35038D01*
X185801Y39130D01*
X185803Y39210D01*
X185809Y39290D01*
X185819Y39370D01*
X185832Y39449D01*
X185850Y39528D01*
X185871Y39605D01*
X185897Y39681D01*
X185926Y39756D01*
X185958Y39830D01*
X185994Y39902D01*
X186034Y39972D01*
X186077Y40039D01*
X186123Y40105D01*
X186173Y40168D01*
X186225Y40229D01*
X186280Y40288D01*
X186339Y40343D01*
X186399Y40395D01*
X186463Y40445D01*
X186529Y40491D01*
X186596Y40534D01*
X186666Y40574D01*
X186738Y40610D01*
X186812Y40642D01*
X186886Y40671D01*
X186963Y40697D01*
X187040Y40718D01*
X187119Y40736D01*
X187198Y40749D01*
X187278Y40759D01*
X187358Y40765D01*
X187438Y40767D01*
X189893Y40767D01*
X193604Y40767D02*
X193604Y33401D01*
X197696Y33401D02*
X193604Y40767D01*
X197696Y40767D02*
X197696Y33401D01*
X201407Y33401D02*
X201407Y40767D01*
X203453Y40767D01*
X203542Y40765D01*
X203631Y40759D01*
X203720Y40749D01*
X203808Y40736D01*
X203896Y40719D01*
X203983Y40697D01*
X204068Y40672D01*
X204153Y40644D01*
X204236Y40611D01*
X204318Y40575D01*
X204398Y40536D01*
X204476Y40493D01*
X204552Y40447D01*
X204627Y40397D01*
X204699Y40344D01*
X204768Y40288D01*
X204835Y40229D01*
X204900Y40168D01*
X204961Y40103D01*
X205020Y40036D01*
X205076Y39967D01*
X205129Y39895D01*
X205179Y39820D01*
X205225Y39744D01*
X205268Y39666D01*
X205307Y39586D01*
X205343Y39504D01*
X205376Y39421D01*
X205404Y39336D01*
X205429Y39251D01*
X205451Y39164D01*
X205468Y39076D01*
X205481Y38988D01*
X205491Y38899D01*
X205497Y38810D01*
X205499Y38721D01*
X205499Y35447D01*
X205497Y35358D01*
X205491Y35269D01*
X205481Y35180D01*
X205468Y35092D01*
X205451Y35004D01*
X205429Y34917D01*
X205404Y34832D01*
X205376Y34747D01*
X205343Y34664D01*
X205307Y34582D01*
X205268Y34502D01*
X205225Y34424D01*
X205179Y34348D01*
X205129Y34273D01*
X205076Y34201D01*
X205020Y34132D01*
X204961Y34065D01*
X204900Y34000D01*
X204835Y33939D01*
X204768Y33880D01*
X204699Y33824D01*
X204627Y33771D01*
X204552Y33721D01*
X204476Y33675D01*
X204398Y33632D01*
X204318Y33593D01*
X204236Y33557D01*
X204153Y33524D01*
X204068Y33496D01*
X203983Y33471D01*
X203896Y33449D01*
X203808Y33432D01*
X203720Y33419D01*
X203631Y33409D01*
X203542Y33403D01*
X203453Y33401D01*
X201407Y33401D01*
X166257Y37493D02*
X164211Y37493D01*
X166257Y37493D02*
X166346Y37491D01*
X166435Y37485D01*
X166524Y37475D01*
X166612Y37462D01*
X166700Y37445D01*
X166787Y37423D01*
X166872Y37398D01*
X166957Y37370D01*
X167040Y37337D01*
X167122Y37301D01*
X167202Y37262D01*
X167280Y37219D01*
X167356Y37173D01*
X167431Y37123D01*
X167503Y37070D01*
X167572Y37014D01*
X167639Y36955D01*
X167704Y36894D01*
X167765Y36829D01*
X167824Y36762D01*
X167880Y36693D01*
X167933Y36621D01*
X167983Y36546D01*
X168029Y36470D01*
X168072Y36392D01*
X168111Y36312D01*
X168147Y36230D01*
X168180Y36147D01*
X168208Y36062D01*
X168233Y35977D01*
X168255Y35890D01*
X168272Y35802D01*
X168285Y35714D01*
X168295Y35625D01*
X168301Y35536D01*
X168303Y35447D01*
X168301Y35358D01*
X168295Y35269D01*
X168285Y35180D01*
X168272Y35092D01*
X168255Y35004D01*
X168233Y34917D01*
X168208Y34832D01*
X168180Y34747D01*
X168147Y34664D01*
X168111Y34582D01*
X168072Y34502D01*
X168029Y34424D01*
X167983Y34348D01*
X167933Y34273D01*
X167880Y34201D01*
X167824Y34132D01*
X167765Y34065D01*
X167704Y34000D01*
X167639Y33939D01*
X167572Y33880D01*
X167503Y33824D01*
X167431Y33771D01*
X167356Y33721D01*
X167280Y33675D01*
X167202Y33632D01*
X167122Y33593D01*
X167040Y33557D01*
X166957Y33524D01*
X166872Y33496D01*
X166787Y33471D01*
X166700Y33449D01*
X166612Y33432D01*
X166524Y33419D01*
X166435Y33409D01*
X166346Y33403D01*
X166257Y33401D01*
X164211Y33401D01*
X164211Y40767D01*
X166257Y40767D01*
X166336Y40765D01*
X166415Y40759D01*
X166494Y40750D01*
X166572Y40737D01*
X166649Y40719D01*
X166725Y40699D01*
X166800Y40674D01*
X166874Y40646D01*
X166947Y40615D01*
X167018Y40579D01*
X167087Y40541D01*
X167154Y40499D01*
X167219Y40454D01*
X167282Y40406D01*
X167343Y40355D01*
X167400Y40301D01*
X167456Y40245D01*
X167508Y40186D01*
X167558Y40124D01*
X167604Y40060D01*
X167648Y39994D01*
X167688Y39926D01*
X167724Y39856D01*
X167758Y39784D01*
X167788Y39710D01*
X167814Y39636D01*
X167837Y39560D01*
X167855Y39483D01*
X167871Y39406D01*
X167882Y39327D01*
X167890Y39249D01*
X167894Y39170D01*
X167894Y39090D01*
X167890Y39011D01*
X167882Y38933D01*
X167871Y38854D01*
X167855Y38777D01*
X167837Y38700D01*
X167814Y38624D01*
X167788Y38550D01*
X167758Y38476D01*
X167724Y38404D01*
X167688Y38334D01*
X167648Y38266D01*
X167604Y38200D01*
X167558Y38136D01*
X167508Y38074D01*
X167456Y38015D01*
X167400Y37959D01*
X167343Y37905D01*
X167282Y37854D01*
X167219Y37806D01*
X167154Y37761D01*
X167087Y37719D01*
X167018Y37681D01*
X166947Y37645D01*
X166874Y37614D01*
X166800Y37586D01*
X166725Y37561D01*
X166649Y37541D01*
X166572Y37523D01*
X166494Y37510D01*
X166415Y37501D01*
X166336Y37495D01*
X166257Y37493D01*
X171165Y39949D02*
X171165Y40767D01*
X175257Y40767D01*
X173211Y33401D01*
X140815Y33401D02*
X139178Y33401D01*
X139100Y33403D01*
X139022Y33408D01*
X138945Y33418D01*
X138868Y33431D01*
X138792Y33447D01*
X138717Y33467D01*
X138643Y33491D01*
X138570Y33518D01*
X138498Y33549D01*
X138428Y33583D01*
X138360Y33620D01*
X138293Y33661D01*
X138228Y33705D01*
X138166Y33751D01*
X138106Y33801D01*
X138048Y33853D01*
X137993Y33908D01*
X137941Y33966D01*
X137891Y34026D01*
X137845Y34088D01*
X137801Y34153D01*
X137760Y34220D01*
X137723Y34288D01*
X137689Y34358D01*
X137658Y34430D01*
X137631Y34503D01*
X137607Y34577D01*
X137587Y34652D01*
X137571Y34728D01*
X137558Y34805D01*
X137548Y34882D01*
X137543Y34960D01*
X137541Y35038D01*
X137541Y39130D01*
X137543Y39210D01*
X137549Y39290D01*
X137559Y39370D01*
X137572Y39449D01*
X137590Y39528D01*
X137611Y39605D01*
X137637Y39681D01*
X137666Y39756D01*
X137698Y39830D01*
X137734Y39902D01*
X137774Y39972D01*
X137817Y40039D01*
X137863Y40105D01*
X137913Y40168D01*
X137965Y40229D01*
X138020Y40288D01*
X138079Y40343D01*
X138139Y40395D01*
X138203Y40445D01*
X138269Y40491D01*
X138336Y40534D01*
X138406Y40574D01*
X138478Y40610D01*
X138552Y40642D01*
X138626Y40671D01*
X138703Y40697D01*
X138780Y40718D01*
X138859Y40736D01*
X138938Y40749D01*
X139018Y40759D01*
X139098Y40765D01*
X139178Y40767D01*
X140815Y40767D01*
X143660Y39130D02*
X145706Y40767D01*
X145706Y33401D01*
X143660Y33401D02*
X147752Y33401D01*
X114145Y33401D02*
X112508Y33401D01*
X112430Y33403D01*
X112352Y33408D01*
X112275Y33418D01*
X112198Y33431D01*
X112122Y33447D01*
X112047Y33467D01*
X111973Y33491D01*
X111900Y33518D01*
X111828Y33549D01*
X111758Y33583D01*
X111690Y33620D01*
X111623Y33661D01*
X111558Y33705D01*
X111496Y33751D01*
X111436Y33801D01*
X111378Y33853D01*
X111323Y33908D01*
X111271Y33966D01*
X111221Y34026D01*
X111175Y34088D01*
X111131Y34153D01*
X111090Y34220D01*
X111053Y34288D01*
X111019Y34358D01*
X110988Y34430D01*
X110961Y34503D01*
X110937Y34577D01*
X110917Y34652D01*
X110901Y34728D01*
X110888Y34805D01*
X110878Y34882D01*
X110873Y34960D01*
X110871Y35038D01*
X110871Y39130D01*
X110873Y39210D01*
X110879Y39290D01*
X110889Y39370D01*
X110902Y39449D01*
X110920Y39528D01*
X110941Y39605D01*
X110967Y39681D01*
X110996Y39756D01*
X111028Y39830D01*
X111064Y39902D01*
X111104Y39972D01*
X111147Y40039D01*
X111193Y40105D01*
X111243Y40168D01*
X111295Y40229D01*
X111350Y40288D01*
X111409Y40343D01*
X111469Y40395D01*
X111533Y40445D01*
X111599Y40491D01*
X111666Y40534D01*
X111736Y40574D01*
X111808Y40610D01*
X111882Y40642D01*
X111956Y40671D01*
X112033Y40697D01*
X112110Y40718D01*
X112189Y40736D01*
X112268Y40749D01*
X112348Y40759D01*
X112428Y40765D01*
X112508Y40767D01*
X114145Y40767D01*
X117604Y39744D02*
X117538Y39605D01*
X117477Y39466D01*
X117418Y39324D01*
X117364Y39181D01*
X117313Y39037D01*
X117265Y38892D01*
X117222Y38745D01*
X117182Y38597D01*
X117145Y38449D01*
X117113Y38299D01*
X117084Y38149D01*
X117059Y37998D01*
X117038Y37847D01*
X117021Y37695D01*
X117007Y37542D01*
X116998Y37390D01*
X116992Y37237D01*
X116990Y37084D01*
X117604Y39744D02*
X117630Y39814D01*
X117660Y39884D01*
X117693Y39951D01*
X117729Y40017D01*
X117768Y40081D01*
X117811Y40143D01*
X117857Y40202D01*
X117905Y40260D01*
X117956Y40314D01*
X118010Y40367D01*
X118067Y40416D01*
X118126Y40463D01*
X118187Y40506D01*
X118250Y40547D01*
X118315Y40584D01*
X118382Y40619D01*
X118451Y40649D01*
X118521Y40677D01*
X118592Y40700D01*
X118664Y40721D01*
X118737Y40737D01*
X118811Y40750D01*
X118886Y40760D01*
X118961Y40765D01*
X119036Y40767D01*
X119111Y40765D01*
X119186Y40760D01*
X119261Y40750D01*
X119335Y40737D01*
X119408Y40721D01*
X119480Y40700D01*
X119551Y40677D01*
X119621Y40649D01*
X119690Y40619D01*
X119757Y40584D01*
X119822Y40547D01*
X119885Y40506D01*
X119946Y40463D01*
X120005Y40416D01*
X120062Y40367D01*
X120116Y40314D01*
X120167Y40260D01*
X120216Y40202D01*
X120261Y40143D01*
X120304Y40081D01*
X120343Y40017D01*
X120380Y39951D01*
X120412Y39883D01*
X120442Y39814D01*
X120468Y39744D01*
X120533Y39606D01*
X120595Y39466D01*
X120653Y39324D01*
X120708Y39181D01*
X120759Y39037D01*
X120807Y38892D01*
X120850Y38745D01*
X120890Y38598D01*
X120927Y38449D01*
X120959Y38299D01*
X120988Y38149D01*
X121013Y37998D01*
X121034Y37847D01*
X121051Y37695D01*
X121065Y37542D01*
X121074Y37390D01*
X121080Y37237D01*
X121082Y37084D01*
X116990Y37084D02*
X116992Y36931D01*
X116998Y36778D01*
X117007Y36625D01*
X117021Y36473D01*
X117038Y36321D01*
X117059Y36170D01*
X117084Y36019D01*
X117113Y35868D01*
X117145Y35719D01*
X117182Y35570D01*
X117222Y35423D01*
X117265Y35276D01*
X117313Y35131D01*
X117364Y34986D01*
X117419Y34844D01*
X117477Y34702D01*
X117539Y34562D01*
X117604Y34424D01*
X117630Y34353D01*
X117660Y34284D01*
X117693Y34217D01*
X117729Y34151D01*
X117768Y34087D01*
X117811Y34025D01*
X117857Y33966D01*
X117905Y33908D01*
X117956Y33854D01*
X118010Y33801D01*
X118067Y33752D01*
X118126Y33705D01*
X118187Y33662D01*
X118250Y33621D01*
X118315Y33584D01*
X118382Y33549D01*
X118451Y33519D01*
X118521Y33491D01*
X118592Y33468D01*
X118664Y33447D01*
X118737Y33431D01*
X118811Y33418D01*
X118886Y33408D01*
X118961Y33403D01*
X119036Y33401D01*
X120468Y34424D02*
X120533Y34562D01*
X120595Y34702D01*
X120653Y34844D01*
X120708Y34987D01*
X120759Y35131D01*
X120807Y35276D01*
X120850Y35423D01*
X120890Y35571D01*
X120927Y35719D01*
X120959Y35869D01*
X120988Y36019D01*
X121013Y36170D01*
X121034Y36321D01*
X121051Y36473D01*
X121065Y36626D01*
X121074Y36778D01*
X121080Y36931D01*
X121082Y37084D01*
X120468Y34424D02*
X120442Y34354D01*
X120412Y34284D01*
X120380Y34217D01*
X120343Y34151D01*
X120304Y34087D01*
X120261Y34025D01*
X120215Y33966D01*
X120167Y33908D01*
X120116Y33854D01*
X120062Y33801D01*
X120005Y33752D01*
X119946Y33705D01*
X119885Y33662D01*
X119822Y33621D01*
X119757Y33584D01*
X119690Y33549D01*
X119621Y33519D01*
X119551Y33491D01*
X119480Y33468D01*
X119408Y33447D01*
X119335Y33431D01*
X119261Y33418D01*
X119186Y33408D01*
X119111Y33403D01*
X119036Y33401D01*
X117399Y35038D02*
X120673Y39130D01*
X89196Y40767D02*
X86741Y33401D01*
X91652Y33401D02*
X89196Y40767D01*
X87355Y35243D02*
X91038Y35243D01*
X94465Y39949D02*
X94465Y40767D01*
X98558Y40767D01*
X96512Y33401D01*
X63796Y40767D02*
X61341Y33401D01*
X66252Y33401D02*
X63796Y40767D01*
X61955Y35243D02*
X65638Y35243D01*
X69065Y37493D02*
X71521Y37493D01*
X71599Y37491D01*
X71677Y37486D01*
X71754Y37476D01*
X71831Y37463D01*
X71907Y37447D01*
X71982Y37427D01*
X72056Y37403D01*
X72129Y37376D01*
X72201Y37345D01*
X72271Y37311D01*
X72340Y37274D01*
X72406Y37233D01*
X72471Y37189D01*
X72533Y37143D01*
X72593Y37093D01*
X72651Y37041D01*
X72706Y36986D01*
X72758Y36928D01*
X72808Y36868D01*
X72854Y36806D01*
X72898Y36741D01*
X72939Y36675D01*
X72976Y36606D01*
X73010Y36536D01*
X73041Y36464D01*
X73068Y36391D01*
X73092Y36317D01*
X73112Y36242D01*
X73128Y36166D01*
X73141Y36089D01*
X73151Y36012D01*
X73156Y35934D01*
X73158Y35856D01*
X73158Y35447D01*
X73156Y35358D01*
X73150Y35269D01*
X73140Y35180D01*
X73127Y35092D01*
X73110Y35004D01*
X73088Y34917D01*
X73063Y34832D01*
X73035Y34747D01*
X73002Y34664D01*
X72966Y34582D01*
X72927Y34502D01*
X72884Y34424D01*
X72838Y34348D01*
X72788Y34273D01*
X72735Y34201D01*
X72679Y34132D01*
X72620Y34065D01*
X72559Y34000D01*
X72494Y33939D01*
X72427Y33880D01*
X72358Y33824D01*
X72286Y33771D01*
X72211Y33721D01*
X72135Y33675D01*
X72057Y33632D01*
X71977Y33593D01*
X71895Y33557D01*
X71812Y33524D01*
X71727Y33496D01*
X71642Y33471D01*
X71555Y33449D01*
X71467Y33432D01*
X71379Y33419D01*
X71290Y33409D01*
X71201Y33403D01*
X71112Y33401D01*
X71023Y33403D01*
X70934Y33409D01*
X70845Y33419D01*
X70757Y33432D01*
X70669Y33449D01*
X70582Y33471D01*
X70497Y33496D01*
X70412Y33524D01*
X70329Y33557D01*
X70247Y33593D01*
X70167Y33632D01*
X70089Y33675D01*
X70013Y33721D01*
X69938Y33771D01*
X69866Y33824D01*
X69797Y33880D01*
X69730Y33939D01*
X69665Y34000D01*
X69604Y34065D01*
X69545Y34132D01*
X69489Y34201D01*
X69436Y34273D01*
X69386Y34348D01*
X69340Y34424D01*
X69297Y34502D01*
X69258Y34582D01*
X69222Y34664D01*
X69189Y34747D01*
X69161Y34832D01*
X69136Y34917D01*
X69114Y35004D01*
X69097Y35092D01*
X69084Y35180D01*
X69074Y35269D01*
X69068Y35358D01*
X69066Y35447D01*
X69065Y35447D02*
X69065Y37493D01*
X69067Y37607D01*
X69073Y37721D01*
X69083Y37835D01*
X69097Y37949D01*
X69115Y38062D01*
X69137Y38174D01*
X69162Y38285D01*
X69192Y38395D01*
X69225Y38505D01*
X69262Y38613D01*
X69303Y38719D01*
X69348Y38825D01*
X69396Y38928D01*
X69448Y39030D01*
X69504Y39130D01*
X69562Y39228D01*
X69625Y39324D01*
X69690Y39417D01*
X69759Y39509D01*
X69831Y39597D01*
X69906Y39684D01*
X69984Y39767D01*
X70065Y39848D01*
X70148Y39926D01*
X70235Y40001D01*
X70323Y40073D01*
X70415Y40142D01*
X70508Y40207D01*
X70604Y40269D01*
X70702Y40328D01*
X70802Y40384D01*
X70904Y40436D01*
X71007Y40484D01*
X71113Y40529D01*
X71219Y40570D01*
X71327Y40607D01*
X71437Y40640D01*
X71547Y40670D01*
X71658Y40695D01*
X71770Y40717D01*
X71883Y40735D01*
X71997Y40749D01*
X72111Y40759D01*
X72225Y40765D01*
X72339Y40767D01*
X38396Y40767D02*
X35941Y33401D01*
X40852Y33401D02*
X38396Y40767D01*
X36555Y35243D02*
X40238Y35243D01*
X43665Y33401D02*
X46121Y33401D01*
X46199Y33403D01*
X46277Y33408D01*
X46354Y33418D01*
X46431Y33431D01*
X46507Y33447D01*
X46582Y33467D01*
X46656Y33491D01*
X46729Y33518D01*
X46801Y33549D01*
X46871Y33583D01*
X46940Y33620D01*
X47006Y33661D01*
X47071Y33705D01*
X47133Y33751D01*
X47193Y33801D01*
X47251Y33853D01*
X47306Y33908D01*
X47358Y33966D01*
X47408Y34026D01*
X47454Y34088D01*
X47498Y34153D01*
X47539Y34220D01*
X47576Y34288D01*
X47610Y34358D01*
X47641Y34430D01*
X47668Y34503D01*
X47692Y34577D01*
X47712Y34652D01*
X47728Y34728D01*
X47741Y34805D01*
X47751Y34882D01*
X47756Y34960D01*
X47758Y35038D01*
X47758Y35856D01*
X47756Y35934D01*
X47751Y36012D01*
X47741Y36089D01*
X47728Y36166D01*
X47712Y36242D01*
X47692Y36317D01*
X47668Y36391D01*
X47641Y36464D01*
X47610Y36536D01*
X47576Y36606D01*
X47539Y36675D01*
X47498Y36741D01*
X47454Y36806D01*
X47408Y36868D01*
X47358Y36928D01*
X47306Y36986D01*
X47251Y37041D01*
X47193Y37093D01*
X47133Y37143D01*
X47071Y37189D01*
X47006Y37233D01*
X46940Y37274D01*
X46871Y37311D01*
X46801Y37345D01*
X46729Y37376D01*
X46656Y37403D01*
X46582Y37427D01*
X46507Y37447D01*
X46431Y37463D01*
X46354Y37476D01*
X46277Y37486D01*
X46199Y37491D01*
X46121Y37493D01*
X43665Y37493D01*
X43665Y40767D01*
X47758Y40767D01*
X287401Y33401D02*
X289447Y33401D01*
X289536Y33403D01*
X289625Y33409D01*
X289714Y33419D01*
X289802Y33432D01*
X289890Y33449D01*
X289977Y33471D01*
X290062Y33496D01*
X290147Y33524D01*
X290230Y33557D01*
X290312Y33593D01*
X290392Y33632D01*
X290470Y33675D01*
X290546Y33721D01*
X290621Y33771D01*
X290693Y33824D01*
X290762Y33880D01*
X290829Y33939D01*
X290894Y34000D01*
X290955Y34065D01*
X291014Y34132D01*
X291070Y34201D01*
X291123Y34273D01*
X291173Y34348D01*
X291219Y34424D01*
X291262Y34502D01*
X291301Y34582D01*
X291337Y34664D01*
X291370Y34747D01*
X291398Y34832D01*
X291423Y34917D01*
X291445Y35004D01*
X291462Y35092D01*
X291475Y35180D01*
X291485Y35269D01*
X291491Y35358D01*
X291493Y35447D01*
X291491Y35536D01*
X291485Y35625D01*
X291475Y35714D01*
X291462Y35802D01*
X291445Y35890D01*
X291423Y35977D01*
X291398Y36062D01*
X291370Y36147D01*
X291337Y36230D01*
X291301Y36312D01*
X291262Y36392D01*
X291219Y36470D01*
X291173Y36546D01*
X291123Y36621D01*
X291070Y36693D01*
X291014Y36762D01*
X290955Y36829D01*
X290894Y36894D01*
X290829Y36955D01*
X290762Y37014D01*
X290693Y37070D01*
X290621Y37123D01*
X290546Y37173D01*
X290470Y37219D01*
X290392Y37262D01*
X290312Y37301D01*
X290230Y37337D01*
X290147Y37370D01*
X290062Y37398D01*
X289977Y37423D01*
X289890Y37445D01*
X289802Y37462D01*
X289714Y37475D01*
X289625Y37485D01*
X289536Y37491D01*
X289447Y37493D01*
X289856Y40767D02*
X287401Y40767D01*
X289856Y40767D02*
X289935Y40765D01*
X290014Y40759D01*
X290093Y40750D01*
X290171Y40737D01*
X290248Y40719D01*
X290324Y40699D01*
X290399Y40674D01*
X290473Y40646D01*
X290546Y40615D01*
X290617Y40579D01*
X290686Y40541D01*
X290753Y40499D01*
X290818Y40454D01*
X290881Y40406D01*
X290942Y40355D01*
X290999Y40301D01*
X291055Y40245D01*
X291107Y40186D01*
X291157Y40124D01*
X291203Y40060D01*
X291247Y39994D01*
X291287Y39926D01*
X291323Y39856D01*
X291357Y39784D01*
X291387Y39710D01*
X291413Y39636D01*
X291436Y39560D01*
X291454Y39483D01*
X291470Y39406D01*
X291481Y39327D01*
X291489Y39249D01*
X291493Y39170D01*
X291493Y39090D01*
X291489Y39011D01*
X291481Y38933D01*
X291470Y38854D01*
X291454Y38777D01*
X291436Y38700D01*
X291413Y38624D01*
X291387Y38550D01*
X291357Y38476D01*
X291323Y38404D01*
X291287Y38334D01*
X291247Y38266D01*
X291203Y38200D01*
X291157Y38136D01*
X291107Y38074D01*
X291055Y38015D01*
X290999Y37959D01*
X290942Y37905D01*
X290881Y37854D01*
X290818Y37806D01*
X290753Y37761D01*
X290686Y37719D01*
X290617Y37681D01*
X290546Y37645D01*
X290473Y37614D01*
X290399Y37586D01*
X290324Y37561D01*
X290248Y37541D01*
X290171Y37523D01*
X290093Y37510D01*
X290014Y37501D01*
X289935Y37495D01*
X289856Y37493D01*
X288219Y37493D01*
X294307Y40767D02*
X296762Y33401D01*
X299218Y40767D01*
X302031Y33401D02*
X304077Y33401D01*
X304166Y33403D01*
X304255Y33409D01*
X304344Y33419D01*
X304432Y33432D01*
X304520Y33449D01*
X304607Y33471D01*
X304692Y33496D01*
X304777Y33524D01*
X304860Y33557D01*
X304942Y33593D01*
X305022Y33632D01*
X305100Y33675D01*
X305176Y33721D01*
X305251Y33771D01*
X305323Y33824D01*
X305392Y33880D01*
X305459Y33939D01*
X305524Y34000D01*
X305585Y34065D01*
X305644Y34132D01*
X305700Y34201D01*
X305753Y34273D01*
X305803Y34348D01*
X305849Y34424D01*
X305892Y34502D01*
X305931Y34582D01*
X305967Y34664D01*
X306000Y34747D01*
X306028Y34832D01*
X306053Y34917D01*
X306075Y35004D01*
X306092Y35092D01*
X306105Y35180D01*
X306115Y35269D01*
X306121Y35358D01*
X306123Y35447D01*
X306121Y35536D01*
X306115Y35625D01*
X306105Y35714D01*
X306092Y35802D01*
X306075Y35890D01*
X306053Y35977D01*
X306028Y36062D01*
X306000Y36147D01*
X305967Y36230D01*
X305931Y36312D01*
X305892Y36392D01*
X305849Y36470D01*
X305803Y36546D01*
X305753Y36621D01*
X305700Y36693D01*
X305644Y36762D01*
X305585Y36829D01*
X305524Y36894D01*
X305459Y36955D01*
X305392Y37014D01*
X305323Y37070D01*
X305251Y37123D01*
X305176Y37173D01*
X305100Y37219D01*
X305022Y37262D01*
X304942Y37301D01*
X304860Y37337D01*
X304777Y37370D01*
X304692Y37398D01*
X304607Y37423D01*
X304520Y37445D01*
X304432Y37462D01*
X304344Y37475D01*
X304255Y37485D01*
X304166Y37491D01*
X304077Y37493D01*
X304487Y40767D02*
X302031Y40767D01*
X304487Y40767D02*
X304566Y40765D01*
X304645Y40759D01*
X304724Y40750D01*
X304802Y40737D01*
X304879Y40719D01*
X304955Y40699D01*
X305030Y40674D01*
X305104Y40646D01*
X305177Y40615D01*
X305248Y40579D01*
X305317Y40541D01*
X305384Y40499D01*
X305449Y40454D01*
X305512Y40406D01*
X305573Y40355D01*
X305630Y40301D01*
X305686Y40245D01*
X305738Y40186D01*
X305788Y40124D01*
X305834Y40060D01*
X305878Y39994D01*
X305918Y39926D01*
X305954Y39856D01*
X305988Y39784D01*
X306018Y39710D01*
X306044Y39636D01*
X306067Y39560D01*
X306085Y39483D01*
X306101Y39406D01*
X306112Y39327D01*
X306120Y39249D01*
X306124Y39170D01*
X306124Y39090D01*
X306120Y39011D01*
X306112Y38933D01*
X306101Y38854D01*
X306085Y38777D01*
X306067Y38700D01*
X306044Y38624D01*
X306018Y38550D01*
X305988Y38476D01*
X305954Y38404D01*
X305918Y38334D01*
X305878Y38266D01*
X305834Y38200D01*
X305788Y38136D01*
X305738Y38074D01*
X305686Y38015D01*
X305630Y37959D01*
X305573Y37905D01*
X305512Y37854D01*
X305449Y37806D01*
X305384Y37761D01*
X305317Y37719D01*
X305248Y37681D01*
X305177Y37645D01*
X305104Y37614D01*
X305030Y37586D01*
X304955Y37561D01*
X304879Y37541D01*
X304802Y37523D01*
X304724Y37510D01*
X304645Y37501D01*
X304566Y37495D01*
X304487Y37493D01*
X302850Y37493D01*
X316611Y33401D02*
X319066Y33401D01*
X319144Y33403D01*
X319222Y33408D01*
X319299Y33418D01*
X319376Y33431D01*
X319452Y33447D01*
X319527Y33467D01*
X319601Y33491D01*
X319674Y33518D01*
X319746Y33549D01*
X319816Y33583D01*
X319885Y33620D01*
X319951Y33661D01*
X320016Y33705D01*
X320078Y33751D01*
X320138Y33801D01*
X320196Y33853D01*
X320251Y33908D01*
X320303Y33966D01*
X320353Y34026D01*
X320399Y34088D01*
X320443Y34153D01*
X320484Y34220D01*
X320521Y34288D01*
X320555Y34358D01*
X320586Y34430D01*
X320613Y34503D01*
X320637Y34577D01*
X320657Y34652D01*
X320673Y34728D01*
X320686Y34805D01*
X320696Y34882D01*
X320701Y34960D01*
X320703Y35038D01*
X320703Y35856D01*
X320701Y35934D01*
X320696Y36012D01*
X320686Y36089D01*
X320673Y36166D01*
X320657Y36242D01*
X320637Y36317D01*
X320613Y36391D01*
X320586Y36464D01*
X320555Y36536D01*
X320521Y36606D01*
X320484Y36675D01*
X320443Y36741D01*
X320399Y36806D01*
X320353Y36868D01*
X320303Y36928D01*
X320251Y36986D01*
X320196Y37041D01*
X320138Y37093D01*
X320078Y37143D01*
X320016Y37189D01*
X319951Y37233D01*
X319885Y37274D01*
X319816Y37311D01*
X319746Y37345D01*
X319674Y37376D01*
X319601Y37403D01*
X319527Y37427D01*
X319452Y37447D01*
X319376Y37463D01*
X319299Y37476D01*
X319222Y37486D01*
X319144Y37491D01*
X319066Y37493D01*
X316611Y37493D01*
X316611Y40767D01*
X320703Y40767D01*
X323517Y40767D02*
X325972Y33401D01*
X328428Y40767D01*
D11*
X65507Y52278D02*
X65507Y57866D01*
X67059Y57866D01*
X67136Y57864D01*
X67214Y57858D01*
X67290Y57849D01*
X67367Y57835D01*
X67442Y57818D01*
X67516Y57797D01*
X67590Y57772D01*
X67662Y57744D01*
X67732Y57712D01*
X67801Y57677D01*
X67868Y57638D01*
X67933Y57596D01*
X67996Y57551D01*
X68057Y57503D01*
X68115Y57452D01*
X68170Y57398D01*
X68223Y57341D01*
X68272Y57282D01*
X68319Y57220D01*
X68363Y57156D01*
X68403Y57090D01*
X68440Y57022D01*
X68474Y56952D01*
X68504Y56881D01*
X68530Y56808D01*
X68553Y56734D01*
X68572Y56659D01*
X68587Y56584D01*
X68599Y56507D01*
X68607Y56430D01*
X68611Y56353D01*
X68611Y56275D01*
X68607Y56198D01*
X68599Y56121D01*
X68587Y56044D01*
X68572Y55969D01*
X68553Y55894D01*
X68530Y55820D01*
X68504Y55747D01*
X68474Y55676D01*
X68440Y55606D01*
X68403Y55538D01*
X68363Y55472D01*
X68319Y55408D01*
X68272Y55346D01*
X68223Y55287D01*
X68170Y55230D01*
X68115Y55176D01*
X68057Y55125D01*
X67996Y55077D01*
X67933Y55032D01*
X67868Y54990D01*
X67801Y54951D01*
X67732Y54916D01*
X67662Y54884D01*
X67590Y54856D01*
X67516Y54831D01*
X67442Y54810D01*
X67367Y54793D01*
X67290Y54779D01*
X67214Y54770D01*
X67136Y54764D01*
X67059Y54762D01*
X65507Y54762D01*
X67369Y54762D02*
X68611Y52278D01*
X71151Y52278D02*
X73635Y52278D01*
X71151Y52278D02*
X71151Y57866D01*
X73635Y57866D01*
X73014Y55382D02*
X71151Y55382D01*
X77392Y52278D02*
X77462Y52280D01*
X77531Y52286D01*
X77600Y52296D01*
X77668Y52309D01*
X77736Y52327D01*
X77802Y52348D01*
X77867Y52373D01*
X77931Y52401D01*
X77993Y52433D01*
X78053Y52468D01*
X78111Y52507D01*
X78166Y52549D01*
X78220Y52594D01*
X78270Y52642D01*
X78318Y52692D01*
X78363Y52746D01*
X78405Y52801D01*
X78444Y52859D01*
X78479Y52919D01*
X78511Y52981D01*
X78539Y53045D01*
X78564Y53110D01*
X78585Y53176D01*
X78603Y53244D01*
X78616Y53312D01*
X78626Y53381D01*
X78632Y53450D01*
X78634Y53520D01*
X77392Y52278D02*
X77293Y52280D01*
X77195Y52285D01*
X77097Y52295D01*
X76999Y52308D01*
X76902Y52324D01*
X76805Y52344D01*
X76710Y52368D01*
X76615Y52396D01*
X76521Y52427D01*
X76429Y52461D01*
X76338Y52499D01*
X76248Y52540D01*
X76160Y52585D01*
X76074Y52633D01*
X75990Y52684D01*
X75908Y52738D01*
X75827Y52796D01*
X75749Y52856D01*
X75674Y52919D01*
X75600Y52985D01*
X75530Y53054D01*
X75684Y56624D02*
X75686Y56694D01*
X75692Y56763D01*
X75702Y56832D01*
X75715Y56900D01*
X75733Y56968D01*
X75754Y57034D01*
X75779Y57099D01*
X75807Y57163D01*
X75839Y57225D01*
X75874Y57285D01*
X75913Y57343D01*
X75955Y57398D01*
X76000Y57452D01*
X76048Y57502D01*
X76098Y57550D01*
X76152Y57595D01*
X76207Y57637D01*
X76265Y57676D01*
X76325Y57711D01*
X76387Y57743D01*
X76451Y57771D01*
X76516Y57796D01*
X76582Y57817D01*
X76650Y57835D01*
X76718Y57848D01*
X76787Y57858D01*
X76856Y57864D01*
X76926Y57866D01*
X77020Y57864D01*
X77113Y57858D01*
X77206Y57849D01*
X77299Y57836D01*
X77391Y57819D01*
X77482Y57799D01*
X77573Y57774D01*
X77662Y57747D01*
X77750Y57715D01*
X77837Y57680D01*
X77923Y57642D01*
X78006Y57600D01*
X78088Y57555D01*
X78169Y57507D01*
X78247Y57455D01*
X78323Y57400D01*
X76305Y55538D02*
X76246Y55574D01*
X76190Y55614D01*
X76136Y55657D01*
X76084Y55702D01*
X76035Y55751D01*
X75989Y55802D01*
X75946Y55855D01*
X75905Y55911D01*
X75868Y55969D01*
X75833Y56029D01*
X75803Y56090D01*
X75775Y56153D01*
X75751Y56218D01*
X75731Y56284D01*
X75714Y56351D01*
X75701Y56418D01*
X75692Y56486D01*
X75686Y56555D01*
X75684Y56624D01*
X78012Y54606D02*
X78071Y54570D01*
X78127Y54530D01*
X78181Y54487D01*
X78233Y54442D01*
X78282Y54393D01*
X78328Y54342D01*
X78371Y54289D01*
X78412Y54233D01*
X78449Y54175D01*
X78484Y54115D01*
X78514Y54054D01*
X78542Y53991D01*
X78566Y53926D01*
X78586Y53860D01*
X78603Y53793D01*
X78616Y53726D01*
X78625Y53658D01*
X78631Y53589D01*
X78633Y53520D01*
X78013Y54606D02*
X76305Y55538D01*
X81026Y52278D02*
X83510Y52278D01*
X81026Y52278D02*
X81026Y57866D01*
X83510Y57866D01*
X82889Y55382D02*
X81026Y55382D01*
X86774Y57866D02*
X86774Y52278D01*
X85222Y57866D02*
X88326Y57866D01*
D12*
X308610Y22860D02*
X308610Y10160D01*
D10*
X302863Y149493D02*
X301636Y149493D01*
X302863Y149493D02*
X302863Y145401D01*
X300408Y145401D01*
X300330Y145403D01*
X300252Y145408D01*
X300175Y145418D01*
X300098Y145431D01*
X300022Y145447D01*
X299947Y145467D01*
X299873Y145491D01*
X299800Y145518D01*
X299728Y145549D01*
X299658Y145583D01*
X299590Y145620D01*
X299523Y145661D01*
X299458Y145705D01*
X299396Y145751D01*
X299336Y145801D01*
X299278Y145853D01*
X299223Y145908D01*
X299171Y145966D01*
X299121Y146026D01*
X299075Y146088D01*
X299031Y146153D01*
X298990Y146220D01*
X298953Y146288D01*
X298919Y146358D01*
X298888Y146430D01*
X298861Y146503D01*
X298837Y146577D01*
X298817Y146652D01*
X298801Y146728D01*
X298788Y146805D01*
X298778Y146882D01*
X298773Y146960D01*
X298771Y147038D01*
X298771Y151130D01*
X298773Y151210D01*
X298779Y151290D01*
X298789Y151370D01*
X298802Y151449D01*
X298820Y151528D01*
X298841Y151605D01*
X298867Y151681D01*
X298896Y151756D01*
X298928Y151830D01*
X298964Y151902D01*
X299004Y151972D01*
X299047Y152039D01*
X299093Y152105D01*
X299143Y152168D01*
X299195Y152229D01*
X299250Y152288D01*
X299309Y152343D01*
X299369Y152395D01*
X299433Y152445D01*
X299499Y152491D01*
X299566Y152534D01*
X299636Y152574D01*
X299708Y152610D01*
X299782Y152642D01*
X299856Y152671D01*
X299933Y152697D01*
X300010Y152718D01*
X300089Y152736D01*
X300168Y152749D01*
X300248Y152759D01*
X300328Y152765D01*
X300408Y152767D01*
X302863Y152767D01*
X306574Y152767D02*
X306574Y145401D01*
X310666Y145401D02*
X306574Y152767D01*
X310666Y152767D02*
X310666Y145401D01*
X314377Y145401D02*
X314377Y152767D01*
X316423Y152767D01*
X316512Y152765D01*
X316601Y152759D01*
X316690Y152749D01*
X316778Y152736D01*
X316866Y152719D01*
X316953Y152697D01*
X317038Y152672D01*
X317123Y152644D01*
X317206Y152611D01*
X317288Y152575D01*
X317368Y152536D01*
X317446Y152493D01*
X317522Y152447D01*
X317597Y152397D01*
X317669Y152344D01*
X317738Y152288D01*
X317805Y152229D01*
X317870Y152168D01*
X317931Y152103D01*
X317990Y152036D01*
X318046Y151967D01*
X318099Y151895D01*
X318149Y151820D01*
X318195Y151744D01*
X318238Y151666D01*
X318277Y151586D01*
X318313Y151504D01*
X318346Y151421D01*
X318374Y151336D01*
X318399Y151251D01*
X318421Y151164D01*
X318438Y151076D01*
X318451Y150988D01*
X318461Y150899D01*
X318467Y150810D01*
X318469Y150721D01*
X318469Y147447D01*
X318467Y147358D01*
X318461Y147269D01*
X318451Y147180D01*
X318438Y147092D01*
X318421Y147004D01*
X318399Y146917D01*
X318374Y146832D01*
X318346Y146747D01*
X318313Y146664D01*
X318277Y146582D01*
X318238Y146502D01*
X318195Y146424D01*
X318149Y146348D01*
X318099Y146273D01*
X318046Y146201D01*
X317990Y146132D01*
X317931Y146065D01*
X317870Y146000D01*
X317805Y145939D01*
X317738Y145880D01*
X317669Y145824D01*
X317597Y145771D01*
X317522Y145721D01*
X317446Y145675D01*
X317368Y145632D01*
X317288Y145593D01*
X317206Y145557D01*
X317123Y145524D01*
X317038Y145496D01*
X316953Y145471D01*
X316866Y145449D01*
X316778Y145432D01*
X316690Y145419D01*
X316601Y145409D01*
X316512Y145403D01*
X316423Y145401D01*
X314377Y145401D01*
D11*
X430028Y139410D02*
X430028Y137857D01*
X430028Y139410D02*
X430030Y139487D01*
X430036Y139565D01*
X430045Y139641D01*
X430059Y139718D01*
X430076Y139793D01*
X430097Y139867D01*
X430122Y139941D01*
X430150Y140013D01*
X430182Y140083D01*
X430217Y140152D01*
X430256Y140219D01*
X430298Y140284D01*
X430343Y140347D01*
X430391Y140408D01*
X430442Y140466D01*
X430496Y140521D01*
X430553Y140574D01*
X430612Y140623D01*
X430674Y140670D01*
X430738Y140714D01*
X430804Y140754D01*
X430872Y140791D01*
X430942Y140825D01*
X431013Y140855D01*
X431086Y140881D01*
X431160Y140904D01*
X431235Y140923D01*
X431310Y140938D01*
X431387Y140950D01*
X431464Y140958D01*
X431541Y140962D01*
X431619Y140962D01*
X431696Y140958D01*
X431773Y140950D01*
X431850Y140938D01*
X431925Y140923D01*
X432000Y140904D01*
X432074Y140881D01*
X432147Y140855D01*
X432218Y140825D01*
X432288Y140791D01*
X432356Y140754D01*
X432422Y140714D01*
X432486Y140670D01*
X432548Y140623D01*
X432607Y140574D01*
X432664Y140521D01*
X432718Y140466D01*
X432769Y140408D01*
X432817Y140347D01*
X432862Y140284D01*
X432904Y140219D01*
X432943Y140152D01*
X432978Y140083D01*
X433010Y140013D01*
X433038Y139941D01*
X433063Y139867D01*
X433084Y139793D01*
X433101Y139718D01*
X433115Y139641D01*
X433124Y139565D01*
X433130Y139487D01*
X433132Y139410D01*
X433132Y137857D01*
X427544Y137857D01*
X427544Y139410D01*
X427546Y139480D01*
X427552Y139549D01*
X427562Y139618D01*
X427575Y139686D01*
X427593Y139754D01*
X427614Y139820D01*
X427639Y139885D01*
X427667Y139949D01*
X427699Y140011D01*
X427734Y140071D01*
X427773Y140129D01*
X427815Y140184D01*
X427860Y140238D01*
X427908Y140288D01*
X427958Y140336D01*
X428012Y140381D01*
X428067Y140423D01*
X428125Y140462D01*
X428185Y140497D01*
X428247Y140529D01*
X428311Y140557D01*
X428376Y140582D01*
X428442Y140603D01*
X428510Y140621D01*
X428578Y140634D01*
X428647Y140644D01*
X428716Y140650D01*
X428786Y140652D01*
X428856Y140650D01*
X428925Y140644D01*
X428994Y140634D01*
X429062Y140621D01*
X429130Y140603D01*
X429196Y140582D01*
X429261Y140557D01*
X429325Y140529D01*
X429387Y140497D01*
X429447Y140462D01*
X429505Y140423D01*
X429560Y140381D01*
X429614Y140336D01*
X429664Y140288D01*
X429712Y140238D01*
X429757Y140184D01*
X429799Y140129D01*
X429838Y140071D01*
X429873Y140011D01*
X429905Y139949D01*
X429933Y139885D01*
X429958Y139820D01*
X429979Y139754D01*
X429997Y139686D01*
X430010Y139618D01*
X430020Y139549D01*
X430026Y139480D01*
X430028Y139410D01*
X427544Y144264D02*
X433132Y144264D01*
X427544Y142712D02*
X427544Y145817D01*
X427544Y148016D02*
X433132Y148016D01*
X433132Y151120D02*
X427544Y148016D01*
X427544Y151120D02*
X433132Y151120D01*
X432666Y153619D02*
X432356Y153619D01*
X432356Y153929D01*
X432666Y153929D01*
X432666Y153619D01*
X430183Y153619D02*
X429872Y153619D01*
X429872Y153929D01*
X430183Y153929D01*
X430183Y153619D01*
X433132Y155935D02*
X427544Y157797D01*
X433132Y159660D01*
X431735Y159194D02*
X431735Y156400D01*
X430338Y161732D02*
X430207Y161734D01*
X430077Y161739D01*
X429947Y161749D01*
X429817Y161762D01*
X429687Y161778D01*
X429558Y161798D01*
X429430Y161822D01*
X429303Y161850D01*
X429176Y161881D01*
X429050Y161916D01*
X428925Y161954D01*
X428801Y161996D01*
X428679Y162041D01*
X428558Y162090D01*
X428438Y162142D01*
X428320Y162198D01*
X428320Y162197D02*
X428260Y162220D01*
X428200Y162246D01*
X428143Y162275D01*
X428087Y162308D01*
X428033Y162344D01*
X427981Y162382D01*
X427931Y162424D01*
X427884Y162468D01*
X427839Y162515D01*
X427797Y162565D01*
X427758Y162616D01*
X427722Y162670D01*
X427689Y162726D01*
X427659Y162783D01*
X427632Y162842D01*
X427609Y162903D01*
X427589Y162964D01*
X427573Y163027D01*
X427560Y163091D01*
X427551Y163155D01*
X427546Y163219D01*
X427544Y163284D01*
X427546Y163349D01*
X427551Y163413D01*
X427560Y163477D01*
X427573Y163541D01*
X427589Y163604D01*
X427609Y163665D01*
X427632Y163726D01*
X427659Y163785D01*
X427689Y163842D01*
X427722Y163898D01*
X427758Y163952D01*
X427797Y164003D01*
X427839Y164053D01*
X427884Y164100D01*
X427931Y164144D01*
X427981Y164186D01*
X428033Y164224D01*
X428087Y164260D01*
X428143Y164293D01*
X428200Y164322D01*
X428260Y164348D01*
X428320Y164371D01*
X428320Y164370D02*
X428438Y164426D01*
X428558Y164478D01*
X428679Y164527D01*
X428801Y164572D01*
X428925Y164614D01*
X429050Y164652D01*
X429176Y164687D01*
X429302Y164718D01*
X429430Y164746D01*
X429558Y164770D01*
X429687Y164790D01*
X429817Y164806D01*
X429947Y164819D01*
X430077Y164829D01*
X430207Y164834D01*
X430338Y164836D01*
X430338Y161732D02*
X430469Y161734D01*
X430599Y161739D01*
X430729Y161749D01*
X430859Y161762D01*
X430989Y161778D01*
X431118Y161798D01*
X431246Y161822D01*
X431373Y161850D01*
X431500Y161881D01*
X431626Y161916D01*
X431751Y161954D01*
X431875Y161996D01*
X431997Y162041D01*
X432118Y162090D01*
X432238Y162142D01*
X432356Y162198D01*
X432356Y162197D02*
X432416Y162220D01*
X432476Y162246D01*
X432533Y162275D01*
X432589Y162308D01*
X432643Y162344D01*
X432695Y162382D01*
X432745Y162424D01*
X432792Y162468D01*
X432837Y162515D01*
X432879Y162565D01*
X432918Y162616D01*
X432954Y162670D01*
X432987Y162726D01*
X433017Y162783D01*
X433044Y162842D01*
X433067Y162903D01*
X433087Y162964D01*
X433103Y163027D01*
X433116Y163091D01*
X433125Y163155D01*
X433130Y163219D01*
X433132Y163284D01*
X432356Y164370D02*
X432238Y164426D01*
X432118Y164478D01*
X431997Y164527D01*
X431875Y164572D01*
X431751Y164614D01*
X431626Y164652D01*
X431500Y164687D01*
X431374Y164718D01*
X431246Y164746D01*
X431118Y164770D01*
X430989Y164790D01*
X430859Y164806D01*
X430729Y164819D01*
X430599Y164829D01*
X430469Y164834D01*
X430338Y164836D01*
X432356Y164371D02*
X432416Y164348D01*
X432476Y164322D01*
X432533Y164293D01*
X432589Y164260D01*
X432643Y164224D01*
X432695Y164186D01*
X432745Y164144D01*
X432792Y164100D01*
X432837Y164053D01*
X432879Y164003D01*
X432918Y163952D01*
X432954Y163898D01*
X432987Y163842D01*
X433017Y163785D01*
X433044Y163726D01*
X433067Y163665D01*
X433087Y163604D01*
X433103Y163541D01*
X433116Y163477D01*
X433125Y163413D01*
X433130Y163349D01*
X433132Y163284D01*
X431890Y162042D02*
X428786Y164526D01*
X434086Y10696D02*
X434086Y9144D01*
X434086Y10696D02*
X434084Y10773D01*
X434078Y10851D01*
X434069Y10927D01*
X434055Y11004D01*
X434038Y11079D01*
X434017Y11153D01*
X433992Y11227D01*
X433964Y11299D01*
X433932Y11369D01*
X433897Y11438D01*
X433858Y11505D01*
X433816Y11570D01*
X433771Y11633D01*
X433723Y11694D01*
X433672Y11752D01*
X433618Y11807D01*
X433561Y11860D01*
X433502Y11909D01*
X433440Y11956D01*
X433376Y12000D01*
X433310Y12040D01*
X433242Y12077D01*
X433172Y12111D01*
X433101Y12141D01*
X433028Y12167D01*
X432954Y12190D01*
X432879Y12209D01*
X432804Y12224D01*
X432727Y12236D01*
X432650Y12244D01*
X432573Y12248D01*
X432495Y12248D01*
X432418Y12244D01*
X432341Y12236D01*
X432264Y12224D01*
X432189Y12209D01*
X432114Y12190D01*
X432040Y12167D01*
X431967Y12141D01*
X431896Y12111D01*
X431826Y12077D01*
X431758Y12040D01*
X431692Y12000D01*
X431628Y11956D01*
X431566Y11909D01*
X431507Y11860D01*
X431450Y11807D01*
X431396Y11752D01*
X431345Y11694D01*
X431297Y11633D01*
X431252Y11570D01*
X431210Y11505D01*
X431171Y11438D01*
X431136Y11369D01*
X431104Y11299D01*
X431076Y11227D01*
X431051Y11153D01*
X431030Y11079D01*
X431013Y11004D01*
X430999Y10927D01*
X430990Y10851D01*
X430984Y10773D01*
X430982Y10696D01*
X428498Y11007D02*
X428498Y9144D01*
X428498Y11007D02*
X428500Y11077D01*
X428506Y11146D01*
X428516Y11215D01*
X428529Y11283D01*
X428547Y11351D01*
X428568Y11417D01*
X428593Y11482D01*
X428621Y11546D01*
X428653Y11608D01*
X428688Y11668D01*
X428727Y11726D01*
X428769Y11781D01*
X428814Y11835D01*
X428862Y11885D01*
X428912Y11933D01*
X428966Y11978D01*
X429021Y12020D01*
X429079Y12059D01*
X429139Y12094D01*
X429201Y12126D01*
X429265Y12154D01*
X429330Y12179D01*
X429396Y12200D01*
X429464Y12218D01*
X429532Y12231D01*
X429601Y12241D01*
X429670Y12247D01*
X429740Y12249D01*
X429810Y12247D01*
X429879Y12241D01*
X429948Y12231D01*
X430016Y12218D01*
X430084Y12200D01*
X430150Y12179D01*
X430215Y12154D01*
X430279Y12126D01*
X430341Y12094D01*
X430401Y12059D01*
X430459Y12020D01*
X430514Y11978D01*
X430568Y11933D01*
X430618Y11885D01*
X430666Y11835D01*
X430711Y11781D01*
X430753Y11726D01*
X430792Y11668D01*
X430827Y11608D01*
X430859Y11546D01*
X430887Y11482D01*
X430912Y11417D01*
X430933Y11351D01*
X430951Y11283D01*
X430964Y11215D01*
X430974Y11146D01*
X430980Y11077D01*
X430982Y11007D01*
X430982Y9765D01*
X428498Y14320D02*
X434086Y16183D01*
X428498Y18045D01*
X434086Y20117D02*
X434086Y21669D01*
X434084Y21746D01*
X434078Y21824D01*
X434069Y21900D01*
X434055Y21977D01*
X434038Y22052D01*
X434017Y22126D01*
X433992Y22200D01*
X433964Y22272D01*
X433932Y22342D01*
X433897Y22411D01*
X433858Y22478D01*
X433816Y22543D01*
X433771Y22606D01*
X433723Y22667D01*
X433672Y22725D01*
X433618Y22780D01*
X433561Y22833D01*
X433502Y22882D01*
X433440Y22929D01*
X433376Y22973D01*
X433310Y23013D01*
X433242Y23050D01*
X433172Y23084D01*
X433101Y23114D01*
X433028Y23140D01*
X432954Y23163D01*
X432879Y23182D01*
X432804Y23197D01*
X432727Y23209D01*
X432650Y23217D01*
X432573Y23221D01*
X432495Y23221D01*
X432418Y23217D01*
X432341Y23209D01*
X432264Y23197D01*
X432189Y23182D01*
X432114Y23163D01*
X432040Y23140D01*
X431967Y23114D01*
X431896Y23084D01*
X431826Y23050D01*
X431758Y23013D01*
X431692Y22973D01*
X431628Y22929D01*
X431566Y22882D01*
X431507Y22833D01*
X431450Y22780D01*
X431396Y22725D01*
X431345Y22667D01*
X431297Y22606D01*
X431252Y22543D01*
X431210Y22478D01*
X431171Y22411D01*
X431136Y22342D01*
X431104Y22272D01*
X431076Y22200D01*
X431051Y22126D01*
X431030Y22052D01*
X431013Y21977D01*
X430999Y21900D01*
X430990Y21824D01*
X430984Y21746D01*
X430982Y21669D01*
X428498Y21979D02*
X428498Y20117D01*
X428498Y21979D02*
X428500Y22049D01*
X428506Y22118D01*
X428516Y22187D01*
X428529Y22255D01*
X428547Y22323D01*
X428568Y22389D01*
X428593Y22454D01*
X428621Y22518D01*
X428653Y22580D01*
X428688Y22640D01*
X428727Y22698D01*
X428769Y22753D01*
X428814Y22807D01*
X428862Y22857D01*
X428912Y22905D01*
X428966Y22950D01*
X429021Y22992D01*
X429079Y23031D01*
X429139Y23066D01*
X429201Y23098D01*
X429265Y23126D01*
X429330Y23151D01*
X429396Y23172D01*
X429464Y23190D01*
X429532Y23203D01*
X429601Y23213D01*
X429670Y23219D01*
X429740Y23221D01*
X429810Y23219D01*
X429879Y23213D01*
X429948Y23203D01*
X430016Y23190D01*
X430084Y23172D01*
X430150Y23151D01*
X430215Y23126D01*
X430279Y23098D01*
X430341Y23066D01*
X430401Y23031D01*
X430459Y22992D01*
X430514Y22950D01*
X430568Y22905D01*
X430618Y22857D01*
X430666Y22807D01*
X430711Y22753D01*
X430753Y22698D01*
X430792Y22640D01*
X430827Y22580D01*
X430859Y22518D01*
X430887Y22454D01*
X430912Y22389D01*
X430933Y22323D01*
X430951Y22255D01*
X430964Y22187D01*
X430974Y22118D01*
X430980Y22049D01*
X430982Y21979D01*
X430982Y20738D01*
X433310Y25537D02*
X433620Y25537D01*
X433310Y25537D02*
X433310Y25848D01*
X433620Y25848D01*
X433620Y25537D01*
X431137Y25537D02*
X430826Y25537D01*
X430826Y25848D01*
X431137Y25848D01*
X431137Y25537D01*
X428498Y28429D02*
X434086Y28429D01*
X428498Y28429D02*
X428498Y29982D01*
X428500Y30059D01*
X428506Y30137D01*
X428515Y30213D01*
X428529Y30290D01*
X428546Y30365D01*
X428567Y30439D01*
X428592Y30513D01*
X428620Y30585D01*
X428652Y30655D01*
X428687Y30724D01*
X428726Y30791D01*
X428768Y30856D01*
X428813Y30919D01*
X428861Y30980D01*
X428912Y31038D01*
X428966Y31093D01*
X429023Y31146D01*
X429082Y31195D01*
X429144Y31242D01*
X429208Y31286D01*
X429274Y31326D01*
X429342Y31363D01*
X429412Y31397D01*
X429483Y31427D01*
X429556Y31453D01*
X429630Y31476D01*
X429705Y31495D01*
X429780Y31510D01*
X429857Y31522D01*
X429934Y31530D01*
X430011Y31534D01*
X430089Y31534D01*
X430166Y31530D01*
X430243Y31522D01*
X430320Y31510D01*
X430395Y31495D01*
X430470Y31476D01*
X430544Y31453D01*
X430617Y31427D01*
X430688Y31397D01*
X430758Y31363D01*
X430826Y31326D01*
X430892Y31286D01*
X430956Y31242D01*
X431018Y31195D01*
X431077Y31146D01*
X431134Y31093D01*
X431188Y31038D01*
X431239Y30980D01*
X431287Y30919D01*
X431332Y30856D01*
X431374Y30791D01*
X431413Y30724D01*
X431448Y30655D01*
X431480Y30585D01*
X431508Y30513D01*
X431533Y30439D01*
X431554Y30365D01*
X431571Y30290D01*
X431585Y30213D01*
X431594Y30137D01*
X431600Y30059D01*
X431602Y29982D01*
X431602Y28429D01*
X428498Y33450D02*
X434086Y34692D01*
X430361Y35934D01*
X434086Y37175D01*
X428498Y38417D01*
X428498Y40818D02*
X434086Y40818D01*
X428498Y40818D02*
X428498Y42370D01*
X428500Y42447D01*
X428506Y42525D01*
X428515Y42601D01*
X428529Y42678D01*
X428546Y42753D01*
X428567Y42827D01*
X428592Y42901D01*
X428620Y42973D01*
X428652Y43043D01*
X428687Y43112D01*
X428726Y43179D01*
X428768Y43244D01*
X428813Y43307D01*
X428861Y43368D01*
X428912Y43426D01*
X428966Y43481D01*
X429023Y43534D01*
X429082Y43583D01*
X429144Y43630D01*
X429208Y43674D01*
X429274Y43714D01*
X429342Y43751D01*
X429412Y43785D01*
X429483Y43815D01*
X429556Y43841D01*
X429630Y43864D01*
X429705Y43883D01*
X429780Y43898D01*
X429857Y43910D01*
X429934Y43918D01*
X430011Y43922D01*
X430089Y43922D01*
X430166Y43918D01*
X430243Y43910D01*
X430320Y43898D01*
X430395Y43883D01*
X430470Y43864D01*
X430544Y43841D01*
X430617Y43815D01*
X430688Y43785D01*
X430758Y43751D01*
X430826Y43714D01*
X430892Y43674D01*
X430956Y43630D01*
X431018Y43583D01*
X431077Y43534D01*
X431134Y43481D01*
X431188Y43426D01*
X431239Y43368D01*
X431287Y43307D01*
X431332Y43244D01*
X431374Y43179D01*
X431413Y43112D01*
X431448Y43043D01*
X431480Y42973D01*
X431508Y42901D01*
X431533Y42827D01*
X431554Y42753D01*
X431571Y42678D01*
X431585Y42601D01*
X431594Y42525D01*
X431600Y42447D01*
X431602Y42370D01*
X431602Y40818D01*
X431602Y42681D02*
X434086Y43923D01*
X260604Y49784D02*
X260604Y55372D01*
X260604Y49784D02*
X263088Y49784D01*
X265359Y49784D02*
X267842Y49784D01*
X265359Y49784D02*
X265359Y55372D01*
X267842Y55372D01*
X267221Y52888D02*
X265359Y52888D01*
X270103Y55372D02*
X270103Y49784D01*
X270103Y55372D02*
X271655Y55372D01*
X271731Y55370D01*
X271807Y55365D01*
X271883Y55355D01*
X271958Y55342D01*
X272032Y55325D01*
X272106Y55305D01*
X272178Y55281D01*
X272249Y55254D01*
X272319Y55223D01*
X272387Y55189D01*
X272453Y55151D01*
X272517Y55110D01*
X272580Y55067D01*
X272640Y55020D01*
X272697Y54970D01*
X272752Y54917D01*
X272805Y54862D01*
X272855Y54805D01*
X272902Y54745D01*
X272945Y54682D01*
X272986Y54618D01*
X273024Y54552D01*
X273058Y54484D01*
X273089Y54414D01*
X273116Y54343D01*
X273140Y54270D01*
X273160Y54197D01*
X273177Y54123D01*
X273190Y54048D01*
X273200Y53972D01*
X273205Y53896D01*
X273207Y53820D01*
X273207Y51336D01*
X273205Y51257D01*
X273199Y51179D01*
X273189Y51101D01*
X273175Y51024D01*
X273157Y50947D01*
X273136Y50871D01*
X273110Y50797D01*
X273081Y50724D01*
X273048Y50653D01*
X273012Y50583D01*
X272972Y50515D01*
X272929Y50449D01*
X272882Y50386D01*
X272833Y50325D01*
X272780Y50267D01*
X272724Y50211D01*
X272666Y50158D01*
X272605Y50109D01*
X272542Y50062D01*
X272476Y50019D01*
X272408Y49979D01*
X272339Y49943D01*
X272267Y49910D01*
X272194Y49881D01*
X272120Y49855D01*
X272044Y49834D01*
X271967Y49816D01*
X271890Y49802D01*
X271812Y49792D01*
X271734Y49786D01*
X271655Y49784D01*
X270103Y49784D01*
X275706Y50250D02*
X275706Y50560D01*
X276016Y50560D01*
X276016Y50250D01*
X275706Y50250D01*
X275706Y52733D02*
X275706Y53044D01*
X276016Y53044D01*
X276016Y52733D01*
X275706Y52733D01*
X278022Y49784D02*
X279884Y55372D01*
X281747Y49784D01*
X281281Y51181D02*
X278487Y51181D01*
X283819Y54130D02*
X285371Y55372D01*
X285371Y49784D01*
X283819Y49784D02*
X286923Y49784D01*
D13*
X110602Y82488D02*
X110602Y128012D01*
X181997Y128012D01*
X181997Y82488D01*
X110602Y82488D01*
D14*
X114188Y88250D02*
X114190Y88325D01*
X114196Y88399D01*
X114206Y88473D01*
X114219Y88546D01*
X114237Y88619D01*
X114258Y88690D01*
X114283Y88761D01*
X114312Y88830D01*
X114345Y88897D01*
X114381Y88962D01*
X114420Y89026D01*
X114462Y89087D01*
X114508Y89146D01*
X114557Y89203D01*
X114609Y89256D01*
X114663Y89307D01*
X114720Y89356D01*
X114780Y89400D01*
X114842Y89442D01*
X114906Y89481D01*
X114972Y89516D01*
X115039Y89547D01*
X115109Y89575D01*
X115179Y89599D01*
X115251Y89620D01*
X115324Y89636D01*
X115397Y89649D01*
X115472Y89658D01*
X115546Y89663D01*
X115621Y89664D01*
X115695Y89661D01*
X115770Y89654D01*
X115843Y89643D01*
X115917Y89629D01*
X115989Y89610D01*
X116060Y89588D01*
X116130Y89562D01*
X116199Y89532D01*
X116265Y89499D01*
X116330Y89462D01*
X116393Y89422D01*
X116454Y89378D01*
X116512Y89332D01*
X116568Y89282D01*
X116621Y89230D01*
X116672Y89175D01*
X116719Y89117D01*
X116763Y89057D01*
X116804Y88994D01*
X116842Y88930D01*
X116876Y88864D01*
X116907Y88795D01*
X116934Y88726D01*
X116957Y88655D01*
X116976Y88583D01*
X116992Y88510D01*
X117004Y88436D01*
X117012Y88362D01*
X117016Y88287D01*
X117016Y88213D01*
X117012Y88138D01*
X117004Y88064D01*
X116992Y87990D01*
X116976Y87917D01*
X116957Y87845D01*
X116934Y87774D01*
X116907Y87705D01*
X116876Y87636D01*
X116842Y87570D01*
X116804Y87506D01*
X116763Y87443D01*
X116719Y87383D01*
X116672Y87325D01*
X116621Y87270D01*
X116568Y87218D01*
X116512Y87168D01*
X116454Y87122D01*
X116393Y87078D01*
X116330Y87038D01*
X116265Y87001D01*
X116199Y86968D01*
X116130Y86938D01*
X116060Y86912D01*
X115989Y86890D01*
X115917Y86871D01*
X115843Y86857D01*
X115770Y86846D01*
X115695Y86839D01*
X115621Y86836D01*
X115546Y86837D01*
X115472Y86842D01*
X115397Y86851D01*
X115324Y86864D01*
X115251Y86880D01*
X115179Y86901D01*
X115109Y86925D01*
X115039Y86953D01*
X114972Y86984D01*
X114906Y87019D01*
X114842Y87058D01*
X114780Y87100D01*
X114720Y87144D01*
X114663Y87193D01*
X114609Y87244D01*
X114557Y87297D01*
X114508Y87354D01*
X114462Y87413D01*
X114420Y87474D01*
X114381Y87538D01*
X114345Y87603D01*
X114312Y87670D01*
X114283Y87739D01*
X114258Y87810D01*
X114237Y87881D01*
X114219Y87954D01*
X114206Y88027D01*
X114196Y88101D01*
X114190Y88175D01*
X114188Y88250D01*
D12*
X37070Y62710D02*
X36972Y62712D01*
X36874Y62718D01*
X36776Y62727D01*
X36679Y62741D01*
X36582Y62758D01*
X36486Y62779D01*
X36391Y62804D01*
X36297Y62832D01*
X36205Y62865D01*
X36113Y62900D01*
X36023Y62940D01*
X35935Y62982D01*
X35848Y63029D01*
X35764Y63078D01*
X35681Y63131D01*
X35601Y63187D01*
X35522Y63247D01*
X35446Y63309D01*
X35373Y63374D01*
X35302Y63442D01*
X35234Y63513D01*
X35169Y63586D01*
X35107Y63662D01*
X35047Y63741D01*
X34991Y63821D01*
X34938Y63904D01*
X34889Y63988D01*
X34842Y64075D01*
X34800Y64163D01*
X34760Y64253D01*
X34725Y64345D01*
X34692Y64437D01*
X34664Y64531D01*
X34639Y64626D01*
X34618Y64722D01*
X34601Y64819D01*
X34587Y64916D01*
X34578Y65014D01*
X34572Y65112D01*
X34570Y65210D01*
X34570Y120210D01*
X34572Y120308D01*
X34578Y120406D01*
X34587Y120504D01*
X34601Y120601D01*
X34618Y120698D01*
X34639Y120794D01*
X34664Y120889D01*
X34692Y120983D01*
X34725Y121075D01*
X34760Y121167D01*
X34800Y121257D01*
X34842Y121345D01*
X34889Y121432D01*
X34938Y121516D01*
X34991Y121599D01*
X35047Y121679D01*
X35107Y121758D01*
X35169Y121834D01*
X35234Y121907D01*
X35302Y121978D01*
X35373Y122046D01*
X35446Y122111D01*
X35522Y122173D01*
X35601Y122233D01*
X35681Y122289D01*
X35764Y122342D01*
X35848Y122391D01*
X35935Y122438D01*
X36023Y122480D01*
X36113Y122520D01*
X36205Y122555D01*
X36297Y122588D01*
X36391Y122616D01*
X36486Y122641D01*
X36582Y122662D01*
X36679Y122679D01*
X36776Y122693D01*
X36874Y122702D01*
X36972Y122708D01*
X37070Y122710D01*
X67070Y122710D02*
X67168Y122708D01*
X67266Y122702D01*
X67364Y122693D01*
X67461Y122679D01*
X67558Y122662D01*
X67654Y122641D01*
X67749Y122616D01*
X67843Y122588D01*
X67935Y122555D01*
X68027Y122520D01*
X68117Y122480D01*
X68205Y122438D01*
X68292Y122391D01*
X68376Y122342D01*
X68459Y122289D01*
X68539Y122233D01*
X68618Y122173D01*
X68694Y122111D01*
X68767Y122046D01*
X68838Y121978D01*
X68906Y121907D01*
X68971Y121834D01*
X69033Y121758D01*
X69093Y121679D01*
X69149Y121599D01*
X69202Y121516D01*
X69251Y121432D01*
X69298Y121345D01*
X69340Y121257D01*
X69380Y121167D01*
X69415Y121075D01*
X69448Y120983D01*
X69476Y120889D01*
X69501Y120794D01*
X69522Y120698D01*
X69539Y120601D01*
X69553Y120504D01*
X69562Y120406D01*
X69568Y120308D01*
X69570Y120210D01*
X69570Y65210D01*
X69568Y65112D01*
X69562Y65014D01*
X69553Y64916D01*
X69539Y64819D01*
X69522Y64722D01*
X69501Y64626D01*
X69476Y64531D01*
X69448Y64437D01*
X69415Y64345D01*
X69380Y64253D01*
X69340Y64163D01*
X69298Y64075D01*
X69251Y63988D01*
X69202Y63904D01*
X69149Y63821D01*
X69093Y63741D01*
X69033Y63662D01*
X68971Y63586D01*
X68906Y63513D01*
X68838Y63442D01*
X68767Y63374D01*
X68694Y63309D01*
X68618Y63247D01*
X68539Y63187D01*
X68459Y63131D01*
X68376Y63078D01*
X68292Y63029D01*
X68205Y62982D01*
X68117Y62940D01*
X68027Y62900D01*
X67935Y62865D01*
X67843Y62832D01*
X67749Y62804D01*
X67654Y62779D01*
X67558Y62758D01*
X67461Y62741D01*
X67364Y62727D01*
X67266Y62718D01*
X67168Y62712D01*
X67070Y62710D01*
X63070Y62710D01*
X41070Y62710D02*
X37070Y62710D01*
X37070Y122710D02*
X41070Y122710D01*
X63070Y122710D02*
X67070Y122710D01*
X44570Y107710D02*
X44570Y77710D01*
X59570Y77710D02*
X59570Y107710D01*
X59570Y77710D02*
X44570Y77710D01*
X44570Y107710D02*
X59570Y107710D01*
D15*
X409900Y13740D02*
X411650Y15490D01*
X409900Y13740D02*
X408400Y15240D01*
X410150Y16990D01*
X411650Y15490D01*
D16*
X412650Y11240D03*
D12*
X392410Y49630D02*
X371410Y49630D01*
X346410Y56630D02*
X346410Y65630D01*
X346410Y109630D02*
X346410Y118630D01*
X371410Y125630D02*
X392410Y125630D01*
D17*
X206756Y129540D02*
X189484Y129540D01*
X186944Y111760D02*
X186946Y111660D01*
X186952Y111561D01*
X186962Y111461D01*
X186975Y111363D01*
X186993Y111264D01*
X187014Y111167D01*
X187039Y111071D01*
X187068Y110975D01*
X187101Y110881D01*
X187137Y110788D01*
X187177Y110697D01*
X187221Y110607D01*
X187268Y110519D01*
X187318Y110433D01*
X187372Y110349D01*
X187429Y110267D01*
X187489Y110188D01*
X187553Y110110D01*
X187619Y110036D01*
X187688Y109964D01*
X187760Y109895D01*
X187834Y109829D01*
X187912Y109765D01*
X187991Y109705D01*
X188073Y109648D01*
X188157Y109594D01*
X188243Y109544D01*
X188331Y109497D01*
X188421Y109453D01*
X188512Y109413D01*
X188605Y109377D01*
X188699Y109344D01*
X188795Y109315D01*
X188891Y109290D01*
X188988Y109269D01*
X189087Y109251D01*
X189185Y109238D01*
X189285Y109228D01*
X189384Y109222D01*
X189484Y109220D01*
X206756Y109220D02*
X206856Y109222D01*
X206955Y109228D01*
X207055Y109238D01*
X207153Y109251D01*
X207252Y109269D01*
X207349Y109290D01*
X207445Y109315D01*
X207541Y109344D01*
X207635Y109377D01*
X207728Y109413D01*
X207819Y109453D01*
X207909Y109497D01*
X207997Y109544D01*
X208083Y109594D01*
X208167Y109648D01*
X208249Y109705D01*
X208328Y109765D01*
X208406Y109829D01*
X208480Y109895D01*
X208552Y109964D01*
X208621Y110036D01*
X208687Y110110D01*
X208751Y110188D01*
X208811Y110267D01*
X208868Y110349D01*
X208922Y110433D01*
X208972Y110519D01*
X209019Y110607D01*
X209063Y110697D01*
X209103Y110788D01*
X209139Y110881D01*
X209172Y110975D01*
X209201Y111071D01*
X209226Y111167D01*
X209247Y111264D01*
X209265Y111363D01*
X209278Y111461D01*
X209288Y111561D01*
X209294Y111660D01*
X209296Y111760D01*
X209296Y127000D02*
X209294Y127100D01*
X209288Y127199D01*
X209278Y127299D01*
X209265Y127397D01*
X209247Y127496D01*
X209226Y127593D01*
X209201Y127689D01*
X209172Y127785D01*
X209139Y127879D01*
X209103Y127972D01*
X209063Y128063D01*
X209019Y128153D01*
X208972Y128241D01*
X208922Y128327D01*
X208868Y128411D01*
X208811Y128493D01*
X208751Y128572D01*
X208687Y128650D01*
X208621Y128724D01*
X208552Y128796D01*
X208480Y128865D01*
X208406Y128931D01*
X208328Y128995D01*
X208249Y129055D01*
X208167Y129112D01*
X208083Y129166D01*
X207997Y129216D01*
X207909Y129263D01*
X207819Y129307D01*
X207728Y129347D01*
X207635Y129383D01*
X207541Y129416D01*
X207445Y129445D01*
X207349Y129470D01*
X207252Y129491D01*
X207153Y129509D01*
X207055Y129522D01*
X206955Y129532D01*
X206856Y129538D01*
X206756Y129540D01*
X189484Y129540D02*
X189384Y129538D01*
X189285Y129532D01*
X189185Y129522D01*
X189087Y129509D01*
X188988Y129491D01*
X188891Y129470D01*
X188795Y129445D01*
X188699Y129416D01*
X188605Y129383D01*
X188512Y129347D01*
X188421Y129307D01*
X188331Y129263D01*
X188243Y129216D01*
X188157Y129166D01*
X188073Y129112D01*
X187991Y129055D01*
X187912Y128995D01*
X187834Y128931D01*
X187760Y128865D01*
X187688Y128796D01*
X187619Y128724D01*
X187553Y128650D01*
X187489Y128572D01*
X187429Y128493D01*
X187372Y128411D01*
X187318Y128327D01*
X187268Y128241D01*
X187221Y128153D01*
X187177Y128063D01*
X187137Y127972D01*
X187101Y127879D01*
X187068Y127785D01*
X187039Y127689D01*
X187014Y127593D01*
X186993Y127496D01*
X186975Y127397D01*
X186962Y127299D01*
X186952Y127199D01*
X186946Y127100D01*
X186944Y127000D01*
X186944Y111760D01*
X209296Y111760D02*
X209296Y127000D01*
X206756Y109220D02*
X189484Y109220D01*
D11*
X212344Y114745D02*
X216690Y114745D01*
X216760Y114743D01*
X216829Y114737D01*
X216898Y114727D01*
X216966Y114714D01*
X217034Y114696D01*
X217100Y114675D01*
X217165Y114650D01*
X217229Y114622D01*
X217291Y114590D01*
X217351Y114555D01*
X217409Y114516D01*
X217464Y114474D01*
X217518Y114429D01*
X217568Y114381D01*
X217616Y114331D01*
X217661Y114277D01*
X217703Y114222D01*
X217742Y114164D01*
X217777Y114104D01*
X217809Y114042D01*
X217837Y113978D01*
X217862Y113913D01*
X217883Y113847D01*
X217901Y113779D01*
X217914Y113711D01*
X217924Y113642D01*
X217930Y113573D01*
X217932Y113503D01*
X217932Y112882D01*
X217932Y117553D02*
X212344Y117553D01*
X212344Y119105D01*
X212346Y119182D01*
X212352Y119260D01*
X212361Y119336D01*
X212375Y119413D01*
X212392Y119488D01*
X212413Y119562D01*
X212438Y119636D01*
X212466Y119708D01*
X212498Y119778D01*
X212533Y119847D01*
X212572Y119914D01*
X212614Y119979D01*
X212659Y120042D01*
X212707Y120103D01*
X212758Y120161D01*
X212812Y120216D01*
X212869Y120269D01*
X212928Y120318D01*
X212990Y120365D01*
X213054Y120409D01*
X213120Y120449D01*
X213188Y120486D01*
X213258Y120520D01*
X213329Y120550D01*
X213402Y120576D01*
X213476Y120599D01*
X213551Y120618D01*
X213626Y120633D01*
X213703Y120645D01*
X213780Y120653D01*
X213857Y120657D01*
X213935Y120657D01*
X214012Y120653D01*
X214089Y120645D01*
X214166Y120633D01*
X214241Y120618D01*
X214316Y120599D01*
X214390Y120576D01*
X214463Y120550D01*
X214534Y120520D01*
X214604Y120486D01*
X214672Y120449D01*
X214738Y120409D01*
X214802Y120365D01*
X214864Y120318D01*
X214923Y120269D01*
X214980Y120216D01*
X215034Y120161D01*
X215085Y120103D01*
X215133Y120042D01*
X215178Y119979D01*
X215220Y119914D01*
X215259Y119847D01*
X215294Y119778D01*
X215326Y119708D01*
X215354Y119636D01*
X215379Y119562D01*
X215400Y119488D01*
X215417Y119413D01*
X215431Y119336D01*
X215440Y119260D01*
X215446Y119182D01*
X215448Y119105D01*
X215448Y117553D01*
X213586Y122773D02*
X212344Y124326D01*
X217932Y124326D01*
X217932Y125878D02*
X217932Y122773D01*
D17*
X206756Y101600D02*
X189484Y101600D01*
X186944Y83820D02*
X186946Y83720D01*
X186952Y83621D01*
X186962Y83521D01*
X186975Y83423D01*
X186993Y83324D01*
X187014Y83227D01*
X187039Y83131D01*
X187068Y83035D01*
X187101Y82941D01*
X187137Y82848D01*
X187177Y82757D01*
X187221Y82667D01*
X187268Y82579D01*
X187318Y82493D01*
X187372Y82409D01*
X187429Y82327D01*
X187489Y82248D01*
X187553Y82170D01*
X187619Y82096D01*
X187688Y82024D01*
X187760Y81955D01*
X187834Y81889D01*
X187912Y81825D01*
X187991Y81765D01*
X188073Y81708D01*
X188157Y81654D01*
X188243Y81604D01*
X188331Y81557D01*
X188421Y81513D01*
X188512Y81473D01*
X188605Y81437D01*
X188699Y81404D01*
X188795Y81375D01*
X188891Y81350D01*
X188988Y81329D01*
X189087Y81311D01*
X189185Y81298D01*
X189285Y81288D01*
X189384Y81282D01*
X189484Y81280D01*
X206756Y81280D02*
X206856Y81282D01*
X206955Y81288D01*
X207055Y81298D01*
X207153Y81311D01*
X207252Y81329D01*
X207349Y81350D01*
X207445Y81375D01*
X207541Y81404D01*
X207635Y81437D01*
X207728Y81473D01*
X207819Y81513D01*
X207909Y81557D01*
X207997Y81604D01*
X208083Y81654D01*
X208167Y81708D01*
X208249Y81765D01*
X208328Y81825D01*
X208406Y81889D01*
X208480Y81955D01*
X208552Y82024D01*
X208621Y82096D01*
X208687Y82170D01*
X208751Y82248D01*
X208811Y82327D01*
X208868Y82409D01*
X208922Y82493D01*
X208972Y82579D01*
X209019Y82667D01*
X209063Y82757D01*
X209103Y82848D01*
X209139Y82941D01*
X209172Y83035D01*
X209201Y83131D01*
X209226Y83227D01*
X209247Y83324D01*
X209265Y83423D01*
X209278Y83521D01*
X209288Y83621D01*
X209294Y83720D01*
X209296Y83820D01*
X209296Y99060D02*
X209294Y99160D01*
X209288Y99259D01*
X209278Y99359D01*
X209265Y99457D01*
X209247Y99556D01*
X209226Y99653D01*
X209201Y99749D01*
X209172Y99845D01*
X209139Y99939D01*
X209103Y100032D01*
X209063Y100123D01*
X209019Y100213D01*
X208972Y100301D01*
X208922Y100387D01*
X208868Y100471D01*
X208811Y100553D01*
X208751Y100632D01*
X208687Y100710D01*
X208621Y100784D01*
X208552Y100856D01*
X208480Y100925D01*
X208406Y100991D01*
X208328Y101055D01*
X208249Y101115D01*
X208167Y101172D01*
X208083Y101226D01*
X207997Y101276D01*
X207909Y101323D01*
X207819Y101367D01*
X207728Y101407D01*
X207635Y101443D01*
X207541Y101476D01*
X207445Y101505D01*
X207349Y101530D01*
X207252Y101551D01*
X207153Y101569D01*
X207055Y101582D01*
X206955Y101592D01*
X206856Y101598D01*
X206756Y101600D01*
X189484Y101600D02*
X189384Y101598D01*
X189285Y101592D01*
X189185Y101582D01*
X189087Y101569D01*
X188988Y101551D01*
X188891Y101530D01*
X188795Y101505D01*
X188699Y101476D01*
X188605Y101443D01*
X188512Y101407D01*
X188421Y101367D01*
X188331Y101323D01*
X188243Y101276D01*
X188157Y101226D01*
X188073Y101172D01*
X187991Y101115D01*
X187912Y101055D01*
X187834Y100991D01*
X187760Y100925D01*
X187688Y100856D01*
X187619Y100784D01*
X187553Y100710D01*
X187489Y100632D01*
X187429Y100553D01*
X187372Y100471D01*
X187318Y100387D01*
X187268Y100301D01*
X187221Y100213D01*
X187177Y100123D01*
X187137Y100032D01*
X187101Y99939D01*
X187068Y99845D01*
X187039Y99749D01*
X187014Y99653D01*
X186993Y99556D01*
X186975Y99457D01*
X186962Y99359D01*
X186952Y99259D01*
X186946Y99160D01*
X186944Y99060D01*
X186944Y83820D01*
X209296Y83820D02*
X209296Y99060D01*
X206756Y81280D02*
X189484Y81280D01*
D11*
X212344Y86805D02*
X216690Y86805D01*
X216760Y86803D01*
X216829Y86797D01*
X216898Y86787D01*
X216966Y86774D01*
X217034Y86756D01*
X217100Y86735D01*
X217165Y86710D01*
X217229Y86682D01*
X217291Y86650D01*
X217351Y86615D01*
X217409Y86576D01*
X217464Y86534D01*
X217518Y86489D01*
X217568Y86441D01*
X217616Y86391D01*
X217661Y86337D01*
X217703Y86282D01*
X217742Y86224D01*
X217777Y86164D01*
X217809Y86102D01*
X217837Y86038D01*
X217862Y85973D01*
X217883Y85907D01*
X217901Y85839D01*
X217914Y85771D01*
X217924Y85702D01*
X217930Y85633D01*
X217932Y85563D01*
X217932Y84942D01*
X217932Y89613D02*
X212344Y89613D01*
X212344Y91165D01*
X212346Y91242D01*
X212352Y91320D01*
X212361Y91396D01*
X212375Y91473D01*
X212392Y91548D01*
X212413Y91622D01*
X212438Y91696D01*
X212466Y91768D01*
X212498Y91838D01*
X212533Y91907D01*
X212572Y91974D01*
X212614Y92039D01*
X212659Y92102D01*
X212707Y92163D01*
X212758Y92221D01*
X212812Y92276D01*
X212869Y92329D01*
X212928Y92378D01*
X212990Y92425D01*
X213054Y92469D01*
X213120Y92509D01*
X213188Y92546D01*
X213258Y92580D01*
X213329Y92610D01*
X213402Y92636D01*
X213476Y92659D01*
X213551Y92678D01*
X213626Y92693D01*
X213703Y92705D01*
X213780Y92713D01*
X213857Y92717D01*
X213935Y92717D01*
X214012Y92713D01*
X214089Y92705D01*
X214166Y92693D01*
X214241Y92678D01*
X214316Y92659D01*
X214390Y92636D01*
X214463Y92610D01*
X214534Y92580D01*
X214604Y92546D01*
X214672Y92509D01*
X214738Y92469D01*
X214802Y92425D01*
X214864Y92378D01*
X214923Y92329D01*
X214980Y92276D01*
X215034Y92221D01*
X215085Y92163D01*
X215133Y92102D01*
X215178Y92039D01*
X215220Y91974D01*
X215259Y91907D01*
X215294Y91838D01*
X215326Y91768D01*
X215354Y91696D01*
X215379Y91622D01*
X215400Y91548D01*
X215417Y91473D01*
X215431Y91396D01*
X215440Y91320D01*
X215446Y91242D01*
X215448Y91165D01*
X215448Y89613D01*
X212344Y96541D02*
X212346Y96614D01*
X212352Y96687D01*
X212361Y96760D01*
X212375Y96831D01*
X212392Y96903D01*
X212412Y96973D01*
X212437Y97042D01*
X212465Y97109D01*
X212496Y97175D01*
X212531Y97240D01*
X212569Y97302D01*
X212611Y97362D01*
X212655Y97420D01*
X212703Y97476D01*
X212753Y97529D01*
X212806Y97579D01*
X212862Y97627D01*
X212920Y97671D01*
X212980Y97713D01*
X213043Y97751D01*
X213107Y97786D01*
X213173Y97817D01*
X213240Y97845D01*
X213309Y97870D01*
X213379Y97890D01*
X213451Y97907D01*
X213522Y97921D01*
X213595Y97930D01*
X213668Y97936D01*
X213741Y97938D01*
X212344Y96541D02*
X212346Y96457D01*
X212352Y96374D01*
X212361Y96291D01*
X212375Y96208D01*
X212392Y96127D01*
X212414Y96046D01*
X212439Y95966D01*
X212467Y95888D01*
X212499Y95810D01*
X212535Y95735D01*
X212574Y95661D01*
X212617Y95589D01*
X212663Y95519D01*
X212712Y95452D01*
X212765Y95386D01*
X212820Y95324D01*
X212878Y95264D01*
X212939Y95206D01*
X213002Y95152D01*
X213068Y95100D01*
X213136Y95052D01*
X213207Y95007D01*
X213279Y94965D01*
X213354Y94927D01*
X213430Y94892D01*
X213507Y94861D01*
X213586Y94833D01*
X214827Y97471D02*
X214774Y97525D01*
X214717Y97576D01*
X214658Y97624D01*
X214597Y97669D01*
X214534Y97710D01*
X214468Y97749D01*
X214401Y97784D01*
X214332Y97816D01*
X214261Y97844D01*
X214190Y97868D01*
X214117Y97889D01*
X214043Y97906D01*
X213968Y97920D01*
X213893Y97929D01*
X213817Y97935D01*
X213741Y97937D01*
X214828Y97472D02*
X217932Y94833D01*
X217932Y97938D01*
D12*
X200660Y181610D02*
X187960Y181610D01*
X200660Y181610D02*
X207010Y175260D01*
X207010Y162560D02*
X200660Y156210D01*
X162560Y181610D02*
X156210Y175260D01*
X162560Y181610D02*
X175260Y181610D01*
X181610Y175260D01*
X181610Y162560D02*
X175260Y156210D01*
X162560Y156210D01*
X156210Y162560D01*
X181610Y175260D02*
X187960Y181610D01*
X181610Y162560D02*
X187960Y156210D01*
X200660Y156210D01*
X124460Y181610D02*
X111760Y181610D01*
X124460Y181610D02*
X130810Y175260D01*
X130810Y162560D02*
X124460Y156210D01*
X130810Y175260D02*
X137160Y181610D01*
X149860Y181610D01*
X156210Y175260D01*
X156210Y162560D02*
X149860Y156210D01*
X137160Y156210D01*
X130810Y162560D01*
X86360Y181610D02*
X80010Y175260D01*
X86360Y181610D02*
X99060Y181610D01*
X105410Y175260D01*
X105410Y162560D02*
X99060Y156210D01*
X86360Y156210D01*
X80010Y162560D01*
X105410Y175260D02*
X111760Y181610D01*
X105410Y162560D02*
X111760Y156210D01*
X124460Y156210D01*
X48260Y181610D02*
X35560Y181610D01*
X48260Y181610D02*
X54610Y175260D01*
X54610Y162560D02*
X48260Y156210D01*
X54610Y175260D02*
X60960Y181610D01*
X73660Y181610D01*
X80010Y175260D01*
X80010Y162560D02*
X73660Y156210D01*
X60960Y156210D01*
X54610Y162560D01*
X29210Y162560D02*
X29210Y175260D01*
X35560Y181610D01*
X29210Y162560D02*
X35560Y156210D01*
X48260Y156210D01*
X213360Y181610D02*
X226060Y181610D01*
X232410Y175260D01*
X232410Y162560D02*
X226060Y156210D01*
X207010Y175260D02*
X213360Y181610D01*
X207010Y162560D02*
X213360Y156210D01*
X226060Y156210D01*
X238760Y181610D02*
X251460Y181610D01*
X257810Y175260D01*
X257810Y162560D02*
X251460Y156210D01*
X232410Y175260D02*
X238760Y181610D01*
X232410Y162560D02*
X238760Y156210D01*
X251460Y156210D01*
X264160Y181610D02*
X276860Y181610D01*
X283210Y175260D01*
X283210Y162560D01*
X276860Y156210D01*
X257810Y175260D02*
X264160Y181610D01*
X257810Y162560D02*
X264160Y156210D01*
X276860Y156210D01*
X124460Y3810D02*
X111760Y3810D01*
X105410Y10160D01*
X105410Y22860D02*
X111760Y29210D01*
X149860Y3810D02*
X156210Y10160D01*
X149860Y3810D02*
X137160Y3810D01*
X130810Y10160D01*
X130810Y22860D02*
X137160Y29210D01*
X149860Y29210D01*
X156210Y22860D01*
X130810Y10160D02*
X124460Y3810D01*
X130810Y22860D02*
X124460Y29210D01*
X111760Y29210D01*
X187960Y3810D02*
X200660Y3810D01*
X187960Y3810D02*
X181610Y10160D01*
X181610Y22860D02*
X187960Y29210D01*
X181610Y10160D02*
X175260Y3810D01*
X162560Y3810D01*
X156210Y10160D01*
X156210Y22860D02*
X162560Y29210D01*
X175260Y29210D01*
X181610Y22860D01*
X226060Y3810D02*
X232410Y10160D01*
X226060Y3810D02*
X213360Y3810D01*
X207010Y10160D01*
X207010Y22860D02*
X213360Y29210D01*
X226060Y29210D01*
X232410Y22860D01*
X207010Y10160D02*
X200660Y3810D01*
X207010Y22860D02*
X200660Y29210D01*
X187960Y29210D01*
X264160Y3810D02*
X276860Y3810D01*
X264160Y3810D02*
X257810Y10160D01*
X257810Y22860D02*
X264160Y29210D01*
X257810Y10160D02*
X251460Y3810D01*
X238760Y3810D01*
X232410Y10160D01*
X232410Y22860D02*
X238760Y29210D01*
X251460Y29210D01*
X257810Y22860D01*
X283210Y22860D02*
X283210Y10160D01*
X276860Y3810D01*
X283210Y22860D02*
X276860Y29210D01*
X264160Y29210D01*
X99060Y3810D02*
X86360Y3810D01*
X80010Y10160D01*
X80010Y22860D02*
X86360Y29210D01*
X105410Y10160D02*
X99060Y3810D01*
X105410Y22860D02*
X99060Y29210D01*
X86360Y29210D01*
X73660Y3810D02*
X60960Y3810D01*
X54610Y10160D01*
X54610Y22860D02*
X60960Y29210D01*
X80010Y10160D02*
X73660Y3810D01*
X80010Y22860D02*
X73660Y29210D01*
X60960Y29210D01*
X48260Y3810D02*
X35560Y3810D01*
X29210Y10160D01*
X29210Y22860D01*
X35560Y29210D01*
X54610Y10160D02*
X48260Y3810D01*
X54610Y22860D02*
X48260Y29210D01*
X35560Y29210D01*
X289560Y29210D02*
X302260Y29210D01*
X308610Y22860D01*
X308610Y10160D02*
X302260Y3810D01*
X308610Y22860D02*
X314960Y29210D01*
X327660Y29210D01*
X334010Y22860D01*
X334010Y10160D02*
X327660Y3810D01*
X314960Y3810D01*
X308610Y10160D01*
X283210Y10160D02*
X283210Y22860D01*
X289560Y29210D01*
X283210Y10160D02*
X289560Y3810D01*
X302260Y3810D01*
X334010Y10160D02*
X334010Y22860D01*
X302260Y181610D02*
X289560Y181610D01*
X302260Y181610D02*
X308610Y175260D01*
X308610Y162560D02*
X302260Y156210D01*
X308610Y175260D02*
X314960Y181610D01*
X327660Y181610D01*
X334010Y175260D01*
X334010Y162560D02*
X327660Y156210D01*
X314960Y156210D01*
X308610Y162560D01*
X283210Y162560D02*
X283210Y175260D01*
X289560Y181610D01*
X283210Y162560D02*
X289560Y156210D01*
X302260Y156210D01*
X334010Y162560D02*
X334010Y175260D01*
D17*
X241046Y109220D02*
X223774Y109220D01*
X243586Y127000D02*
X243584Y127100D01*
X243578Y127199D01*
X243568Y127299D01*
X243555Y127397D01*
X243537Y127496D01*
X243516Y127593D01*
X243491Y127689D01*
X243462Y127785D01*
X243429Y127879D01*
X243393Y127972D01*
X243353Y128063D01*
X243309Y128153D01*
X243262Y128241D01*
X243212Y128327D01*
X243158Y128411D01*
X243101Y128493D01*
X243041Y128572D01*
X242977Y128650D01*
X242911Y128724D01*
X242842Y128796D01*
X242770Y128865D01*
X242696Y128931D01*
X242618Y128995D01*
X242539Y129055D01*
X242457Y129112D01*
X242373Y129166D01*
X242287Y129216D01*
X242199Y129263D01*
X242109Y129307D01*
X242018Y129347D01*
X241925Y129383D01*
X241831Y129416D01*
X241735Y129445D01*
X241639Y129470D01*
X241542Y129491D01*
X241443Y129509D01*
X241345Y129522D01*
X241245Y129532D01*
X241146Y129538D01*
X241046Y129540D01*
X223774Y129540D02*
X223674Y129538D01*
X223575Y129532D01*
X223475Y129522D01*
X223377Y129509D01*
X223278Y129491D01*
X223181Y129470D01*
X223085Y129445D01*
X222989Y129416D01*
X222895Y129383D01*
X222802Y129347D01*
X222711Y129307D01*
X222621Y129263D01*
X222533Y129216D01*
X222447Y129166D01*
X222363Y129112D01*
X222281Y129055D01*
X222202Y128995D01*
X222124Y128931D01*
X222050Y128865D01*
X221978Y128796D01*
X221909Y128724D01*
X221843Y128650D01*
X221779Y128572D01*
X221719Y128493D01*
X221662Y128411D01*
X221608Y128327D01*
X221558Y128241D01*
X221511Y128153D01*
X221467Y128063D01*
X221427Y127972D01*
X221391Y127879D01*
X221358Y127785D01*
X221329Y127689D01*
X221304Y127593D01*
X221283Y127496D01*
X221265Y127397D01*
X221252Y127299D01*
X221242Y127199D01*
X221236Y127100D01*
X221234Y127000D01*
X221234Y111760D02*
X221236Y111660D01*
X221242Y111561D01*
X221252Y111461D01*
X221265Y111363D01*
X221283Y111264D01*
X221304Y111167D01*
X221329Y111071D01*
X221358Y110975D01*
X221391Y110881D01*
X221427Y110788D01*
X221467Y110697D01*
X221511Y110607D01*
X221558Y110519D01*
X221608Y110433D01*
X221662Y110349D01*
X221719Y110267D01*
X221779Y110188D01*
X221843Y110110D01*
X221909Y110036D01*
X221978Y109964D01*
X222050Y109895D01*
X222124Y109829D01*
X222202Y109765D01*
X222281Y109705D01*
X222363Y109648D01*
X222447Y109594D01*
X222533Y109544D01*
X222621Y109497D01*
X222711Y109453D01*
X222802Y109413D01*
X222895Y109377D01*
X222989Y109344D01*
X223085Y109315D01*
X223181Y109290D01*
X223278Y109269D01*
X223377Y109251D01*
X223475Y109238D01*
X223575Y109228D01*
X223674Y109222D01*
X223774Y109220D01*
X241046Y109220D02*
X241146Y109222D01*
X241245Y109228D01*
X241345Y109238D01*
X241443Y109251D01*
X241542Y109269D01*
X241639Y109290D01*
X241735Y109315D01*
X241831Y109344D01*
X241925Y109377D01*
X242018Y109413D01*
X242109Y109453D01*
X242199Y109497D01*
X242287Y109544D01*
X242373Y109594D01*
X242457Y109648D01*
X242539Y109705D01*
X242618Y109765D01*
X242696Y109829D01*
X242770Y109895D01*
X242842Y109964D01*
X242911Y110036D01*
X242977Y110110D01*
X243041Y110188D01*
X243101Y110267D01*
X243158Y110349D01*
X243212Y110433D01*
X243262Y110519D01*
X243309Y110607D01*
X243353Y110697D01*
X243393Y110788D01*
X243429Y110881D01*
X243462Y110975D01*
X243491Y111071D01*
X243516Y111167D01*
X243537Y111264D01*
X243555Y111363D01*
X243568Y111461D01*
X243578Y111561D01*
X243584Y111660D01*
X243586Y111760D01*
X243586Y127000D01*
X221234Y127000D02*
X221234Y111760D01*
X223774Y129540D02*
X241046Y129540D01*
D11*
X246634Y114745D02*
X250980Y114745D01*
X251050Y114743D01*
X251119Y114737D01*
X251188Y114727D01*
X251256Y114714D01*
X251324Y114696D01*
X251390Y114675D01*
X251455Y114650D01*
X251519Y114622D01*
X251581Y114590D01*
X251641Y114555D01*
X251699Y114516D01*
X251754Y114474D01*
X251808Y114429D01*
X251858Y114381D01*
X251906Y114331D01*
X251951Y114277D01*
X251993Y114222D01*
X252032Y114164D01*
X252067Y114104D01*
X252099Y114042D01*
X252127Y113978D01*
X252152Y113913D01*
X252173Y113847D01*
X252191Y113779D01*
X252204Y113711D01*
X252214Y113642D01*
X252220Y113573D01*
X252222Y113503D01*
X252222Y112882D01*
X252222Y117553D02*
X246634Y117553D01*
X246634Y119105D01*
X246636Y119182D01*
X246642Y119260D01*
X246651Y119336D01*
X246665Y119413D01*
X246682Y119488D01*
X246703Y119562D01*
X246728Y119636D01*
X246756Y119708D01*
X246788Y119778D01*
X246823Y119847D01*
X246862Y119914D01*
X246904Y119979D01*
X246949Y120042D01*
X246997Y120103D01*
X247048Y120161D01*
X247102Y120216D01*
X247159Y120269D01*
X247218Y120318D01*
X247280Y120365D01*
X247344Y120409D01*
X247410Y120449D01*
X247478Y120486D01*
X247548Y120520D01*
X247619Y120550D01*
X247692Y120576D01*
X247766Y120599D01*
X247841Y120618D01*
X247916Y120633D01*
X247993Y120645D01*
X248070Y120653D01*
X248147Y120657D01*
X248225Y120657D01*
X248302Y120653D01*
X248379Y120645D01*
X248456Y120633D01*
X248531Y120618D01*
X248606Y120599D01*
X248680Y120576D01*
X248753Y120550D01*
X248824Y120520D01*
X248894Y120486D01*
X248962Y120449D01*
X249028Y120409D01*
X249092Y120365D01*
X249154Y120318D01*
X249213Y120269D01*
X249270Y120216D01*
X249324Y120161D01*
X249375Y120103D01*
X249423Y120042D01*
X249468Y119979D01*
X249510Y119914D01*
X249549Y119847D01*
X249584Y119778D01*
X249616Y119708D01*
X249644Y119636D01*
X249669Y119562D01*
X249690Y119488D01*
X249707Y119413D01*
X249721Y119336D01*
X249730Y119260D01*
X249736Y119182D01*
X249738Y119105D01*
X249738Y117553D01*
X252222Y122773D02*
X252222Y124326D01*
X252220Y124403D01*
X252214Y124481D01*
X252205Y124557D01*
X252191Y124634D01*
X252174Y124709D01*
X252153Y124783D01*
X252128Y124857D01*
X252100Y124929D01*
X252068Y124999D01*
X252033Y125068D01*
X251994Y125135D01*
X251952Y125200D01*
X251907Y125263D01*
X251859Y125324D01*
X251808Y125382D01*
X251754Y125437D01*
X251697Y125490D01*
X251638Y125539D01*
X251576Y125586D01*
X251512Y125630D01*
X251446Y125670D01*
X251378Y125707D01*
X251308Y125741D01*
X251237Y125771D01*
X251164Y125797D01*
X251090Y125820D01*
X251015Y125839D01*
X250940Y125854D01*
X250863Y125866D01*
X250786Y125874D01*
X250709Y125878D01*
X250631Y125878D01*
X250554Y125874D01*
X250477Y125866D01*
X250400Y125854D01*
X250325Y125839D01*
X250250Y125820D01*
X250176Y125797D01*
X250103Y125771D01*
X250032Y125741D01*
X249962Y125707D01*
X249894Y125670D01*
X249828Y125630D01*
X249764Y125586D01*
X249702Y125539D01*
X249643Y125490D01*
X249586Y125437D01*
X249532Y125382D01*
X249481Y125324D01*
X249433Y125263D01*
X249388Y125200D01*
X249346Y125135D01*
X249307Y125068D01*
X249272Y124999D01*
X249240Y124929D01*
X249212Y124857D01*
X249187Y124783D01*
X249166Y124709D01*
X249149Y124634D01*
X249135Y124557D01*
X249126Y124481D01*
X249120Y124403D01*
X249118Y124326D01*
X246634Y124636D02*
X246634Y122773D01*
X246634Y124636D02*
X246636Y124706D01*
X246642Y124775D01*
X246652Y124844D01*
X246665Y124912D01*
X246683Y124980D01*
X246704Y125046D01*
X246729Y125111D01*
X246757Y125175D01*
X246789Y125237D01*
X246824Y125297D01*
X246863Y125355D01*
X246905Y125410D01*
X246950Y125464D01*
X246998Y125514D01*
X247048Y125562D01*
X247102Y125607D01*
X247157Y125649D01*
X247215Y125688D01*
X247275Y125723D01*
X247337Y125755D01*
X247401Y125783D01*
X247466Y125808D01*
X247532Y125829D01*
X247600Y125847D01*
X247668Y125860D01*
X247737Y125870D01*
X247806Y125876D01*
X247876Y125878D01*
X247946Y125876D01*
X248015Y125870D01*
X248084Y125860D01*
X248152Y125847D01*
X248220Y125829D01*
X248286Y125808D01*
X248351Y125783D01*
X248415Y125755D01*
X248477Y125723D01*
X248537Y125688D01*
X248595Y125649D01*
X248650Y125607D01*
X248704Y125562D01*
X248754Y125514D01*
X248802Y125464D01*
X248847Y125410D01*
X248889Y125355D01*
X248928Y125297D01*
X248963Y125237D01*
X248995Y125175D01*
X249023Y125111D01*
X249048Y125046D01*
X249069Y124980D01*
X249087Y124912D01*
X249100Y124844D01*
X249110Y124775D01*
X249116Y124706D01*
X249118Y124636D01*
X249118Y123394D01*
D15*
X242570Y53570D02*
X240820Y51820D01*
X242570Y53570D02*
X244070Y52070D01*
X242320Y50320D01*
X240820Y51820D01*
D16*
X239820Y56070D03*
D17*
X241046Y81280D02*
X223774Y81280D01*
X243586Y99060D02*
X243584Y99160D01*
X243578Y99259D01*
X243568Y99359D01*
X243555Y99457D01*
X243537Y99556D01*
X243516Y99653D01*
X243491Y99749D01*
X243462Y99845D01*
X243429Y99939D01*
X243393Y100032D01*
X243353Y100123D01*
X243309Y100213D01*
X243262Y100301D01*
X243212Y100387D01*
X243158Y100471D01*
X243101Y100553D01*
X243041Y100632D01*
X242977Y100710D01*
X242911Y100784D01*
X242842Y100856D01*
X242770Y100925D01*
X242696Y100991D01*
X242618Y101055D01*
X242539Y101115D01*
X242457Y101172D01*
X242373Y101226D01*
X242287Y101276D01*
X242199Y101323D01*
X242109Y101367D01*
X242018Y101407D01*
X241925Y101443D01*
X241831Y101476D01*
X241735Y101505D01*
X241639Y101530D01*
X241542Y101551D01*
X241443Y101569D01*
X241345Y101582D01*
X241245Y101592D01*
X241146Y101598D01*
X241046Y101600D01*
X223774Y101600D02*
X223674Y101598D01*
X223575Y101592D01*
X223475Y101582D01*
X223377Y101569D01*
X223278Y101551D01*
X223181Y101530D01*
X223085Y101505D01*
X222989Y101476D01*
X222895Y101443D01*
X222802Y101407D01*
X222711Y101367D01*
X222621Y101323D01*
X222533Y101276D01*
X222447Y101226D01*
X222363Y101172D01*
X222281Y101115D01*
X222202Y101055D01*
X222124Y100991D01*
X222050Y100925D01*
X221978Y100856D01*
X221909Y100784D01*
X221843Y100710D01*
X221779Y100632D01*
X221719Y100553D01*
X221662Y100471D01*
X221608Y100387D01*
X221558Y100301D01*
X221511Y100213D01*
X221467Y100123D01*
X221427Y100032D01*
X221391Y99939D01*
X221358Y99845D01*
X221329Y99749D01*
X221304Y99653D01*
X221283Y99556D01*
X221265Y99457D01*
X221252Y99359D01*
X221242Y99259D01*
X221236Y99160D01*
X221234Y99060D01*
X221234Y83820D02*
X221236Y83720D01*
X221242Y83621D01*
X221252Y83521D01*
X221265Y83423D01*
X221283Y83324D01*
X221304Y83227D01*
X221329Y83131D01*
X221358Y83035D01*
X221391Y82941D01*
X221427Y82848D01*
X221467Y82757D01*
X221511Y82667D01*
X221558Y82579D01*
X221608Y82493D01*
X221662Y82409D01*
X221719Y82327D01*
X221779Y82248D01*
X221843Y82170D01*
X221909Y82096D01*
X221978Y82024D01*
X222050Y81955D01*
X222124Y81889D01*
X222202Y81825D01*
X222281Y81765D01*
X222363Y81708D01*
X222447Y81654D01*
X222533Y81604D01*
X222621Y81557D01*
X222711Y81513D01*
X222802Y81473D01*
X222895Y81437D01*
X222989Y81404D01*
X223085Y81375D01*
X223181Y81350D01*
X223278Y81329D01*
X223377Y81311D01*
X223475Y81298D01*
X223575Y81288D01*
X223674Y81282D01*
X223774Y81280D01*
X241046Y81280D02*
X241146Y81282D01*
X241245Y81288D01*
X241345Y81298D01*
X241443Y81311D01*
X241542Y81329D01*
X241639Y81350D01*
X241735Y81375D01*
X241831Y81404D01*
X241925Y81437D01*
X242018Y81473D01*
X242109Y81513D01*
X242199Y81557D01*
X242287Y81604D01*
X242373Y81654D01*
X242457Y81708D01*
X242539Y81765D01*
X242618Y81825D01*
X242696Y81889D01*
X242770Y81955D01*
X242842Y82024D01*
X242911Y82096D01*
X242977Y82170D01*
X243041Y82248D01*
X243101Y82327D01*
X243158Y82409D01*
X243212Y82493D01*
X243262Y82579D01*
X243309Y82667D01*
X243353Y82757D01*
X243393Y82848D01*
X243429Y82941D01*
X243462Y83035D01*
X243491Y83131D01*
X243516Y83227D01*
X243537Y83324D01*
X243555Y83423D01*
X243568Y83521D01*
X243578Y83621D01*
X243584Y83720D01*
X243586Y83820D01*
X243586Y99060D01*
X221234Y99060D02*
X221234Y83820D01*
X223774Y101600D02*
X241046Y101600D01*
D11*
X246634Y88075D02*
X250980Y88075D01*
X251050Y88073D01*
X251119Y88067D01*
X251188Y88057D01*
X251256Y88044D01*
X251324Y88026D01*
X251390Y88005D01*
X251455Y87980D01*
X251519Y87952D01*
X251581Y87920D01*
X251641Y87885D01*
X251699Y87846D01*
X251754Y87804D01*
X251808Y87759D01*
X251858Y87711D01*
X251906Y87661D01*
X251951Y87607D01*
X251993Y87552D01*
X252032Y87494D01*
X252067Y87434D01*
X252099Y87372D01*
X252127Y87308D01*
X252152Y87243D01*
X252173Y87177D01*
X252191Y87109D01*
X252204Y87041D01*
X252214Y86972D01*
X252220Y86903D01*
X252222Y86833D01*
X252222Y86212D01*
X252222Y90883D02*
X246634Y90883D01*
X246634Y92435D01*
X246636Y92512D01*
X246642Y92590D01*
X246651Y92666D01*
X246665Y92743D01*
X246682Y92818D01*
X246703Y92892D01*
X246728Y92966D01*
X246756Y93038D01*
X246788Y93108D01*
X246823Y93177D01*
X246862Y93244D01*
X246904Y93309D01*
X246949Y93372D01*
X246997Y93433D01*
X247048Y93491D01*
X247102Y93546D01*
X247159Y93599D01*
X247218Y93648D01*
X247280Y93695D01*
X247344Y93739D01*
X247410Y93779D01*
X247478Y93816D01*
X247548Y93850D01*
X247619Y93880D01*
X247692Y93906D01*
X247766Y93929D01*
X247841Y93948D01*
X247916Y93963D01*
X247993Y93975D01*
X248070Y93983D01*
X248147Y93987D01*
X248225Y93987D01*
X248302Y93983D01*
X248379Y93975D01*
X248456Y93963D01*
X248531Y93948D01*
X248606Y93929D01*
X248680Y93906D01*
X248753Y93880D01*
X248824Y93850D01*
X248894Y93816D01*
X248962Y93779D01*
X249028Y93739D01*
X249092Y93695D01*
X249154Y93648D01*
X249213Y93599D01*
X249270Y93546D01*
X249324Y93491D01*
X249375Y93433D01*
X249423Y93372D01*
X249468Y93309D01*
X249510Y93244D01*
X249549Y93177D01*
X249584Y93108D01*
X249616Y93038D01*
X249644Y92966D01*
X249669Y92892D01*
X249690Y92818D01*
X249707Y92743D01*
X249721Y92666D01*
X249730Y92590D01*
X249736Y92512D01*
X249738Y92435D01*
X249738Y90883D01*
X250980Y96103D02*
X246634Y97345D01*
X250980Y96103D02*
X250980Y99208D01*
X249738Y98276D02*
X252222Y98276D01*
D12*
X409770Y146330D02*
X409868Y146332D01*
X409966Y146338D01*
X410064Y146347D01*
X410161Y146361D01*
X410258Y146378D01*
X410354Y146399D01*
X410449Y146424D01*
X410543Y146452D01*
X410635Y146485D01*
X410727Y146520D01*
X410817Y146560D01*
X410905Y146602D01*
X410992Y146649D01*
X411076Y146698D01*
X411159Y146751D01*
X411239Y146807D01*
X411318Y146867D01*
X411394Y146929D01*
X411467Y146994D01*
X411538Y147062D01*
X411606Y147133D01*
X411671Y147206D01*
X411733Y147282D01*
X411793Y147361D01*
X411849Y147441D01*
X411902Y147524D01*
X411951Y147608D01*
X411998Y147695D01*
X412040Y147783D01*
X412080Y147873D01*
X412115Y147965D01*
X412148Y148057D01*
X412176Y148151D01*
X412201Y148246D01*
X412222Y148342D01*
X412239Y148439D01*
X412253Y148536D01*
X412262Y148634D01*
X412268Y148732D01*
X412270Y148830D01*
X409770Y146330D02*
X354770Y146330D01*
X354672Y146332D01*
X354574Y146338D01*
X354476Y146347D01*
X354379Y146361D01*
X354282Y146378D01*
X354186Y146399D01*
X354091Y146424D01*
X353997Y146452D01*
X353905Y146485D01*
X353813Y146520D01*
X353723Y146560D01*
X353635Y146602D01*
X353548Y146649D01*
X353464Y146698D01*
X353381Y146751D01*
X353301Y146807D01*
X353222Y146867D01*
X353146Y146929D01*
X353073Y146994D01*
X353002Y147062D01*
X352934Y147133D01*
X352869Y147206D01*
X352807Y147282D01*
X352747Y147361D01*
X352691Y147441D01*
X352638Y147524D01*
X352589Y147608D01*
X352542Y147695D01*
X352500Y147783D01*
X352460Y147873D01*
X352425Y147965D01*
X352392Y148057D01*
X352364Y148151D01*
X352339Y148246D01*
X352318Y148342D01*
X352301Y148439D01*
X352287Y148536D01*
X352278Y148634D01*
X352272Y148732D01*
X352270Y148830D01*
X352270Y178830D02*
X352272Y178928D01*
X352278Y179026D01*
X352287Y179124D01*
X352301Y179221D01*
X352318Y179318D01*
X352339Y179414D01*
X352364Y179509D01*
X352392Y179603D01*
X352425Y179695D01*
X352460Y179787D01*
X352500Y179877D01*
X352542Y179965D01*
X352589Y180052D01*
X352638Y180136D01*
X352691Y180219D01*
X352747Y180299D01*
X352807Y180378D01*
X352869Y180454D01*
X352934Y180527D01*
X353002Y180598D01*
X353073Y180666D01*
X353146Y180731D01*
X353222Y180793D01*
X353301Y180853D01*
X353381Y180909D01*
X353464Y180962D01*
X353548Y181011D01*
X353635Y181058D01*
X353723Y181100D01*
X353813Y181140D01*
X353905Y181175D01*
X353997Y181208D01*
X354091Y181236D01*
X354186Y181261D01*
X354282Y181282D01*
X354379Y181299D01*
X354476Y181313D01*
X354574Y181322D01*
X354672Y181328D01*
X354770Y181330D01*
X409770Y181330D01*
X409868Y181328D01*
X409966Y181322D01*
X410064Y181313D01*
X410161Y181299D01*
X410258Y181282D01*
X410354Y181261D01*
X410449Y181236D01*
X410543Y181208D01*
X410635Y181175D01*
X410727Y181140D01*
X410817Y181100D01*
X410905Y181058D01*
X410992Y181011D01*
X411076Y180962D01*
X411159Y180909D01*
X411239Y180853D01*
X411318Y180793D01*
X411394Y180731D01*
X411467Y180666D01*
X411538Y180598D01*
X411606Y180527D01*
X411671Y180454D01*
X411733Y180378D01*
X411793Y180299D01*
X411849Y180219D01*
X411902Y180136D01*
X411951Y180052D01*
X411998Y179965D01*
X412040Y179877D01*
X412080Y179787D01*
X412115Y179695D01*
X412148Y179603D01*
X412176Y179509D01*
X412201Y179414D01*
X412222Y179318D01*
X412239Y179221D01*
X412253Y179124D01*
X412262Y179026D01*
X412268Y178928D01*
X412270Y178830D01*
X412270Y174830D01*
X412270Y152830D02*
X412270Y148830D01*
X352270Y148830D02*
X352270Y152830D01*
X352270Y174830D02*
X352270Y178830D01*
X367270Y156330D02*
X397270Y156330D01*
X397270Y171330D02*
X367270Y171330D01*
X397270Y171330D02*
X397270Y156330D01*
X367270Y156330D02*
X367270Y171330D01*
X29210Y59690D02*
X29210Y46990D01*
X22860Y40640D01*
X10160Y40640D02*
X3810Y46990D01*
X29210Y85090D02*
X22860Y91440D01*
X29210Y85090D02*
X29210Y72390D01*
X22860Y66040D01*
X10160Y66040D02*
X3810Y72390D01*
X3810Y85090D01*
X10160Y91440D01*
X22860Y66040D02*
X29210Y59690D01*
X10160Y66040D02*
X3810Y59690D01*
X3810Y46990D01*
X29210Y123190D02*
X29210Y135890D01*
X29210Y123190D02*
X22860Y116840D01*
X10160Y116840D02*
X3810Y123190D01*
X22860Y116840D02*
X29210Y110490D01*
X29210Y97790D01*
X22860Y91440D01*
X10160Y91440D02*
X3810Y97790D01*
X3810Y110490D01*
X10160Y116840D01*
X10160Y142240D02*
X22860Y142240D01*
X29210Y135890D01*
X10160Y142240D02*
X3810Y135890D01*
X3810Y123190D01*
X10160Y40640D02*
X22860Y40640D01*
M02*
