G04 EAGLE Gerber RS-274X export*
G75*
%MOMM*%
%FSLAX34Y34*%
%LPD*%
%INBottom Copper*%
%IPPOS*%
%AMOC8*
5,1,8,0,0,1.08239X$1,22.5*%
G01*
%ADD10R,1.900000X0.900000*%
%ADD11R,1.900000X3.200000*%
%ADD12R,1.800000X1.600000*%
%ADD13C,1.879600*%
%ADD14R,1.500000X1.300000*%
%ADD15R,1.300000X1.500000*%
%ADD16C,0.406400*%
%ADD17C,0.858000*%
%ADD18C,0.254000*%
%ADD19C,0.203200*%

G36*
X436082Y2009D02*
X436082Y2009D01*
X436140Y2007D01*
X436222Y2029D01*
X436306Y2041D01*
X436359Y2064D01*
X436415Y2079D01*
X436488Y2122D01*
X436565Y2157D01*
X436610Y2195D01*
X436660Y2224D01*
X436718Y2286D01*
X436782Y2340D01*
X436814Y2389D01*
X436854Y2432D01*
X436893Y2507D01*
X436940Y2577D01*
X436957Y2633D01*
X436984Y2685D01*
X436995Y2753D01*
X437025Y2848D01*
X437028Y2948D01*
X437039Y3016D01*
X437039Y183014D01*
X437031Y183072D01*
X437033Y183130D01*
X437011Y183212D01*
X436999Y183296D01*
X436976Y183349D01*
X436961Y183405D01*
X436918Y183478D01*
X436883Y183555D01*
X436845Y183600D01*
X436816Y183650D01*
X436754Y183708D01*
X436700Y183772D01*
X436651Y183804D01*
X436608Y183844D01*
X436533Y183883D01*
X436463Y183930D01*
X436407Y183947D01*
X436355Y183974D01*
X436287Y183985D01*
X436192Y184015D01*
X436092Y184018D01*
X436024Y184029D01*
X409742Y184029D01*
X409713Y184025D01*
X409684Y184028D01*
X409573Y184005D01*
X409460Y183989D01*
X409434Y183977D01*
X409405Y183972D01*
X409304Y183919D01*
X409201Y183873D01*
X409179Y183854D01*
X409153Y183841D01*
X409070Y183763D01*
X408984Y183690D01*
X408968Y183665D01*
X408946Y183645D01*
X408889Y183547D01*
X408826Y183453D01*
X408818Y183425D01*
X408803Y183400D01*
X408775Y183290D01*
X408741Y183182D01*
X408740Y183152D01*
X408733Y183124D01*
X408736Y183011D01*
X408733Y182898D01*
X408741Y182869D01*
X408742Y182840D01*
X408777Y182732D01*
X408805Y182623D01*
X408820Y182597D01*
X408829Y182569D01*
X408875Y182505D01*
X408950Y182378D01*
X408996Y182335D01*
X409024Y182296D01*
X409651Y181669D01*
X410691Y179159D01*
X410691Y176441D01*
X409651Y173931D01*
X407729Y172009D01*
X405219Y170969D01*
X403350Y170969D01*
X403292Y170961D01*
X403234Y170963D01*
X403152Y170941D01*
X403068Y170929D01*
X403015Y170906D01*
X402959Y170891D01*
X402886Y170848D01*
X402809Y170813D01*
X402764Y170775D01*
X402714Y170746D01*
X402656Y170684D01*
X402592Y170630D01*
X402560Y170581D01*
X402520Y170538D01*
X402481Y170463D01*
X402434Y170393D01*
X402417Y170337D01*
X402390Y170285D01*
X402379Y170217D01*
X402349Y170122D01*
X402346Y170022D01*
X402335Y169954D01*
X402335Y155698D01*
X401442Y154805D01*
X387178Y154805D01*
X386253Y155730D01*
X386245Y155785D01*
X386241Y155794D01*
X386240Y155804D01*
X386183Y155924D01*
X386129Y156045D01*
X386123Y156052D01*
X386119Y156061D01*
X386031Y156161D01*
X385946Y156262D01*
X385937Y156267D01*
X385931Y156274D01*
X385820Y156346D01*
X385709Y156419D01*
X385699Y156422D01*
X385691Y156427D01*
X385565Y156465D01*
X385438Y156505D01*
X385428Y156505D01*
X385419Y156508D01*
X385286Y156509D01*
X385154Y156512D01*
X385144Y156510D01*
X385134Y156510D01*
X385006Y156474D01*
X384879Y156441D01*
X384870Y156436D01*
X384861Y156433D01*
X384747Y156363D01*
X384634Y156295D01*
X384627Y156288D01*
X384619Y156283D01*
X384530Y156185D01*
X384440Y156088D01*
X384435Y156079D01*
X384429Y156072D01*
X384405Y156020D01*
X384310Y155835D01*
X384304Y155799D01*
X384289Y155767D01*
X384178Y155349D01*
X383843Y154770D01*
X383370Y154297D01*
X382791Y153962D01*
X382144Y153789D01*
X377341Y153789D01*
X377341Y162814D01*
X377333Y162872D01*
X377334Y162930D01*
X377313Y163012D01*
X377301Y163095D01*
X377277Y163149D01*
X377263Y163205D01*
X377220Y163278D01*
X377185Y163355D01*
X377147Y163399D01*
X377117Y163450D01*
X377056Y163507D01*
X377001Y163572D01*
X376953Y163604D01*
X376910Y163644D01*
X376835Y163683D01*
X376765Y163729D01*
X376709Y163747D01*
X376657Y163774D01*
X376589Y163785D01*
X376494Y163815D01*
X376394Y163818D01*
X376326Y163829D01*
X375309Y163829D01*
X375309Y163831D01*
X376326Y163831D01*
X376384Y163839D01*
X376442Y163838D01*
X376524Y163859D01*
X376607Y163871D01*
X376661Y163895D01*
X376717Y163909D01*
X376790Y163952D01*
X376867Y163987D01*
X376911Y164025D01*
X376962Y164055D01*
X377019Y164116D01*
X377084Y164171D01*
X377116Y164219D01*
X377156Y164262D01*
X377195Y164337D01*
X377241Y164407D01*
X377259Y164463D01*
X377286Y164515D01*
X377297Y164583D01*
X377327Y164678D01*
X377330Y164778D01*
X377341Y164846D01*
X377341Y173871D01*
X382144Y173871D01*
X382791Y173698D01*
X383370Y173363D01*
X383843Y172890D01*
X384178Y172311D01*
X384289Y171893D01*
X384293Y171884D01*
X384295Y171875D01*
X384349Y171754D01*
X384401Y171632D01*
X384407Y171624D01*
X384411Y171615D01*
X384496Y171514D01*
X384580Y171411D01*
X384588Y171406D01*
X384595Y171398D01*
X384705Y171325D01*
X384814Y171249D01*
X384823Y171246D01*
X384831Y171241D01*
X384958Y171201D01*
X385083Y171158D01*
X385093Y171158D01*
X385102Y171155D01*
X385235Y171152D01*
X385367Y171146D01*
X385377Y171148D01*
X385386Y171148D01*
X385515Y171181D01*
X385643Y171212D01*
X385652Y171217D01*
X385661Y171219D01*
X385775Y171287D01*
X385891Y171353D01*
X385897Y171360D01*
X385906Y171365D01*
X385997Y171462D01*
X386089Y171556D01*
X386094Y171565D01*
X386100Y171572D01*
X386161Y171691D01*
X386223Y171807D01*
X386225Y171816D01*
X386230Y171825D01*
X386239Y171881D01*
X386249Y171925D01*
X387178Y172855D01*
X390754Y172855D01*
X390812Y172863D01*
X390870Y172861D01*
X390952Y172883D01*
X391036Y172895D01*
X391089Y172918D01*
X391145Y172933D01*
X391218Y172976D01*
X391295Y173011D01*
X391340Y173049D01*
X391390Y173078D01*
X391448Y173140D01*
X391512Y173194D01*
X391544Y173243D01*
X391584Y173286D01*
X391623Y173361D01*
X391670Y173431D01*
X391687Y173487D01*
X391714Y173539D01*
X391725Y173607D01*
X391755Y173702D01*
X391758Y173802D01*
X391769Y173870D01*
X391769Y175652D01*
X396458Y180341D01*
X396841Y180341D01*
X396842Y180341D01*
X396844Y180341D01*
X396984Y180361D01*
X397122Y180381D01*
X397123Y180381D01*
X397125Y180381D01*
X397255Y180440D01*
X397381Y180497D01*
X397383Y180498D01*
X397384Y180499D01*
X397491Y180589D01*
X397598Y180680D01*
X397599Y180682D01*
X397601Y180683D01*
X397608Y180695D01*
X397756Y180917D01*
X397765Y180946D01*
X397778Y180967D01*
X398069Y181669D01*
X398696Y182296D01*
X398714Y182320D01*
X398736Y182339D01*
X398799Y182433D01*
X398867Y182523D01*
X398877Y182551D01*
X398894Y182575D01*
X398928Y182683D01*
X398968Y182789D01*
X398971Y182818D01*
X398979Y182846D01*
X398982Y182960D01*
X398992Y183072D01*
X398986Y183101D01*
X398987Y183130D01*
X398958Y183240D01*
X398936Y183351D01*
X398922Y183377D01*
X398915Y183405D01*
X398857Y183503D01*
X398805Y183603D01*
X398785Y183625D01*
X398770Y183650D01*
X398687Y183727D01*
X398609Y183809D01*
X398584Y183824D01*
X398562Y183844D01*
X398461Y183896D01*
X398364Y183953D01*
X398335Y183960D01*
X398309Y183974D01*
X398232Y183987D01*
X398088Y184023D01*
X398026Y184021D01*
X397978Y184029D01*
X3016Y184029D01*
X2958Y184021D01*
X2900Y184023D01*
X2818Y184001D01*
X2734Y183989D01*
X2681Y183966D01*
X2625Y183951D01*
X2552Y183908D01*
X2475Y183873D01*
X2430Y183835D01*
X2380Y183806D01*
X2322Y183744D01*
X2258Y183690D01*
X2226Y183641D01*
X2186Y183598D01*
X2147Y183523D01*
X2100Y183453D01*
X2083Y183397D01*
X2056Y183345D01*
X2045Y183277D01*
X2015Y183182D01*
X2012Y183082D01*
X2001Y183014D01*
X2001Y3016D01*
X2009Y2958D01*
X2007Y2900D01*
X2029Y2818D01*
X2041Y2734D01*
X2064Y2681D01*
X2079Y2625D01*
X2122Y2552D01*
X2157Y2475D01*
X2195Y2430D01*
X2224Y2380D01*
X2286Y2322D01*
X2340Y2258D01*
X2389Y2226D01*
X2432Y2186D01*
X2507Y2147D01*
X2577Y2100D01*
X2633Y2083D01*
X2685Y2056D01*
X2753Y2045D01*
X2848Y2015D01*
X2948Y2012D01*
X3016Y2001D01*
X436024Y2001D01*
X436082Y2009D01*
G37*
%LPC*%
G36*
X319137Y5587D02*
X319137Y5587D01*
X315123Y7250D01*
X312050Y10323D01*
X310387Y14337D01*
X310387Y18683D01*
X312050Y22697D01*
X315123Y25770D01*
X319137Y27433D01*
X323483Y27433D01*
X325486Y26603D01*
X325488Y26602D01*
X325489Y26602D01*
X325621Y26568D01*
X325762Y26532D01*
X325763Y26532D01*
X325765Y26531D01*
X325906Y26536D01*
X326046Y26540D01*
X326047Y26540D01*
X326049Y26540D01*
X326183Y26584D01*
X326317Y26627D01*
X326318Y26627D01*
X326319Y26628D01*
X326332Y26637D01*
X326553Y26785D01*
X326572Y26808D01*
X326593Y26823D01*
X328436Y28666D01*
X328488Y28736D01*
X328548Y28800D01*
X328574Y28849D01*
X328607Y28893D01*
X328638Y28975D01*
X328678Y29053D01*
X328686Y29100D01*
X328708Y29159D01*
X328714Y29227D01*
X328719Y29245D01*
X328721Y29311D01*
X328733Y29384D01*
X328733Y39006D01*
X328721Y39093D01*
X328718Y39180D01*
X328701Y39233D01*
X328693Y39288D01*
X328658Y39367D01*
X328631Y39451D01*
X328603Y39490D01*
X328577Y39547D01*
X328481Y39660D01*
X328436Y39724D01*
X326484Y41676D01*
X326414Y41728D01*
X326350Y41788D01*
X326301Y41814D01*
X326257Y41847D01*
X326175Y41878D01*
X326097Y41918D01*
X326050Y41926D01*
X325991Y41948D01*
X325843Y41960D01*
X325766Y41973D01*
X304787Y41973D01*
X302406Y44354D01*
X296934Y49826D01*
X294553Y52207D01*
X294553Y57590D01*
X294545Y57648D01*
X294547Y57706D01*
X294525Y57788D01*
X294513Y57872D01*
X294490Y57925D01*
X294475Y57981D01*
X294432Y58054D01*
X294397Y58131D01*
X294359Y58176D01*
X294330Y58226D01*
X294268Y58284D01*
X294214Y58348D01*
X294165Y58380D01*
X294122Y58420D01*
X294047Y58459D01*
X293977Y58506D01*
X293921Y58523D01*
X293869Y58550D01*
X293801Y58561D01*
X293706Y58591D01*
X293606Y58594D01*
X293538Y58605D01*
X291186Y58605D01*
X291099Y58593D01*
X291012Y58590D01*
X290959Y58573D01*
X290904Y58565D01*
X290824Y58530D01*
X290741Y58503D01*
X290702Y58475D01*
X290645Y58449D01*
X290532Y58353D01*
X290468Y58308D01*
X279343Y47183D01*
X274430Y47183D01*
X274372Y47175D01*
X274314Y47177D01*
X274232Y47155D01*
X274148Y47143D01*
X274095Y47120D01*
X274039Y47105D01*
X273966Y47062D01*
X273889Y47027D01*
X273844Y46989D01*
X273794Y46960D01*
X273736Y46898D01*
X273672Y46844D01*
X273640Y46795D01*
X273600Y46752D01*
X273561Y46677D01*
X273514Y46607D01*
X273497Y46551D01*
X273470Y46499D01*
X273459Y46431D01*
X273429Y46336D01*
X273426Y46236D01*
X273415Y46168D01*
X273415Y42108D01*
X272522Y41215D01*
X253258Y41215D01*
X252365Y42108D01*
X252365Y59372D01*
X253258Y60265D01*
X272522Y60265D01*
X273415Y59372D01*
X273415Y55312D01*
X273423Y55254D01*
X273421Y55196D01*
X273443Y55114D01*
X273455Y55030D01*
X273478Y54977D01*
X273493Y54921D01*
X273536Y54848D01*
X273571Y54771D01*
X273609Y54726D01*
X273638Y54676D01*
X273700Y54618D01*
X273754Y54554D01*
X273803Y54522D01*
X273846Y54482D01*
X273921Y54443D01*
X273991Y54396D01*
X274047Y54379D01*
X274099Y54352D01*
X274167Y54341D01*
X274262Y54311D01*
X274362Y54308D01*
X274430Y54297D01*
X275976Y54297D01*
X276063Y54309D01*
X276150Y54312D01*
X276203Y54329D01*
X276258Y54337D01*
X276338Y54372D01*
X276421Y54399D01*
X276460Y54427D01*
X276517Y54453D01*
X276630Y54549D01*
X276694Y54594D01*
X286788Y64688D01*
X286840Y64758D01*
X286900Y64822D01*
X286926Y64871D01*
X286959Y64915D01*
X286990Y64997D01*
X287030Y65075D01*
X287038Y65122D01*
X287060Y65181D01*
X287072Y65328D01*
X287085Y65406D01*
X287085Y69762D01*
X287978Y70655D01*
X308242Y70655D01*
X309135Y69762D01*
X309135Y59498D01*
X308242Y58605D01*
X302682Y58605D01*
X302624Y58597D01*
X302566Y58599D01*
X302484Y58577D01*
X302400Y58565D01*
X302347Y58542D01*
X302291Y58527D01*
X302218Y58484D01*
X302141Y58449D01*
X302096Y58411D01*
X302046Y58382D01*
X301988Y58320D01*
X301924Y58266D01*
X301892Y58217D01*
X301852Y58174D01*
X301813Y58099D01*
X301766Y58029D01*
X301749Y57973D01*
X301722Y57921D01*
X301711Y57853D01*
X301681Y57758D01*
X301678Y57658D01*
X301667Y57590D01*
X301667Y55574D01*
X301679Y55487D01*
X301682Y55400D01*
X301699Y55347D01*
X301707Y55292D01*
X301742Y55212D01*
X301769Y55129D01*
X301797Y55090D01*
X301823Y55033D01*
X301919Y54920D01*
X301964Y54856D01*
X307436Y49384D01*
X307506Y49332D01*
X307570Y49272D01*
X307619Y49246D01*
X307663Y49213D01*
X307745Y49182D01*
X307823Y49142D01*
X307870Y49134D01*
X307929Y49112D01*
X308076Y49100D01*
X308154Y49087D01*
X314722Y49087D01*
X314751Y49091D01*
X314780Y49088D01*
X314891Y49111D01*
X315004Y49127D01*
X315030Y49139D01*
X315059Y49144D01*
X315160Y49197D01*
X315263Y49243D01*
X315285Y49262D01*
X315311Y49275D01*
X315394Y49353D01*
X315480Y49426D01*
X315496Y49451D01*
X315518Y49471D01*
X315575Y49569D01*
X315638Y49663D01*
X315647Y49691D01*
X315661Y49716D01*
X315689Y49826D01*
X315723Y49934D01*
X315724Y49964D01*
X315731Y49992D01*
X315728Y50105D01*
X315731Y50218D01*
X315723Y50247D01*
X315722Y50276D01*
X315687Y50384D01*
X315659Y50493D01*
X315644Y50519D01*
X315635Y50547D01*
X315589Y50611D01*
X315514Y50738D01*
X315468Y50781D01*
X315440Y50820D01*
X314249Y52011D01*
X313209Y54521D01*
X313209Y57239D01*
X314249Y59749D01*
X316186Y61686D01*
X316238Y61756D01*
X316298Y61820D01*
X316324Y61869D01*
X316357Y61913D01*
X316388Y61995D01*
X316428Y62073D01*
X316436Y62120D01*
X316458Y62179D01*
X316470Y62327D01*
X316483Y62404D01*
X316483Y96966D01*
X316471Y97053D01*
X316468Y97140D01*
X316451Y97193D01*
X316443Y97248D01*
X316408Y97328D01*
X316381Y97411D01*
X316353Y97450D01*
X316327Y97507D01*
X316231Y97620D01*
X316186Y97684D01*
X309471Y104399D01*
X309424Y104434D01*
X309384Y104477D01*
X309311Y104519D01*
X309244Y104570D01*
X309189Y104591D01*
X309139Y104620D01*
X309057Y104641D01*
X308978Y104671D01*
X308920Y104676D01*
X308863Y104690D01*
X308779Y104688D01*
X308695Y104695D01*
X308638Y104683D01*
X308579Y104681D01*
X308499Y104655D01*
X308416Y104639D01*
X308364Y104612D01*
X308344Y104605D01*
X287978Y104605D01*
X287085Y105498D01*
X287085Y115762D01*
X287978Y116655D01*
X292424Y116655D01*
X292453Y116659D01*
X292483Y116656D01*
X292594Y116679D01*
X292706Y116695D01*
X292732Y116707D01*
X292761Y116712D01*
X292862Y116764D01*
X292965Y116811D01*
X292988Y116830D01*
X293014Y116843D01*
X293096Y116921D01*
X293182Y116994D01*
X293198Y117019D01*
X293220Y117039D01*
X293277Y117137D01*
X293340Y117231D01*
X293349Y117259D01*
X293363Y117284D01*
X293391Y117394D01*
X293426Y117502D01*
X293426Y117532D01*
X293434Y117560D01*
X293430Y117673D01*
X293433Y117786D01*
X293425Y117815D01*
X293424Y117844D01*
X293390Y117952D01*
X293361Y118061D01*
X293346Y118087D01*
X293337Y118115D01*
X293292Y118178D01*
X293216Y118306D01*
X293170Y118349D01*
X293142Y118388D01*
X275148Y136382D01*
X275124Y136400D01*
X275105Y136422D01*
X275011Y136485D01*
X274921Y136553D01*
X274893Y136563D01*
X274869Y136580D01*
X274761Y136614D01*
X274655Y136654D01*
X274626Y136657D01*
X274598Y136666D01*
X274484Y136668D01*
X274372Y136678D01*
X274343Y136672D01*
X274314Y136673D01*
X274204Y136644D01*
X274093Y136622D01*
X274067Y136608D01*
X274039Y136601D01*
X273941Y136543D01*
X273841Y136491D01*
X273819Y136471D01*
X273794Y136456D01*
X273717Y136373D01*
X273635Y136295D01*
X273620Y136270D01*
X273600Y136248D01*
X273548Y136148D01*
X273491Y136050D01*
X273484Y136021D01*
X273470Y135995D01*
X273457Y135918D01*
X273421Y135774D01*
X273423Y135712D01*
X273415Y135664D01*
X273415Y132398D01*
X272522Y131505D01*
X253258Y131505D01*
X252365Y132398D01*
X252365Y149662D01*
X253258Y150555D01*
X272522Y150555D01*
X273415Y149662D01*
X273415Y145602D01*
X273423Y145544D01*
X273421Y145486D01*
X273443Y145404D01*
X273455Y145320D01*
X273478Y145267D01*
X273493Y145211D01*
X273536Y145138D01*
X273571Y145061D01*
X273609Y145016D01*
X273638Y144966D01*
X273700Y144908D01*
X273754Y144844D01*
X273803Y144812D01*
X273846Y144772D01*
X273921Y144733D01*
X273991Y144686D01*
X274047Y144669D01*
X274099Y144642D01*
X274167Y144631D01*
X274262Y144601D01*
X274362Y144598D01*
X274430Y144587D01*
X277003Y144587D01*
X279384Y142206D01*
X301667Y119923D01*
X301667Y117670D01*
X301675Y117612D01*
X301673Y117554D01*
X301695Y117472D01*
X301707Y117388D01*
X301730Y117335D01*
X301745Y117279D01*
X301788Y117206D01*
X301823Y117129D01*
X301861Y117084D01*
X301890Y117034D01*
X301952Y116976D01*
X302006Y116912D01*
X302055Y116880D01*
X302098Y116840D01*
X302173Y116801D01*
X302243Y116754D01*
X302299Y116737D01*
X302351Y116710D01*
X302419Y116699D01*
X302514Y116669D01*
X302614Y116666D01*
X302682Y116655D01*
X304411Y116655D01*
X304498Y116667D01*
X304585Y116670D01*
X304638Y116687D01*
X304693Y116695D01*
X304772Y116730D01*
X304856Y116757D01*
X304895Y116785D01*
X304952Y116811D01*
X305065Y116907D01*
X305129Y116952D01*
X324710Y136533D01*
X324711Y136534D01*
X324712Y136535D01*
X324797Y136649D01*
X324881Y136760D01*
X324881Y136762D01*
X324882Y136763D01*
X324932Y136895D01*
X324982Y137026D01*
X324982Y137027D01*
X324983Y137029D01*
X324994Y137173D01*
X325006Y137309D01*
X325005Y137311D01*
X325005Y137312D01*
X325002Y137328D01*
X324950Y137588D01*
X324936Y137615D01*
X324930Y137639D01*
X324639Y138341D01*
X324639Y141059D01*
X325679Y143569D01*
X327601Y145491D01*
X330111Y146531D01*
X332829Y146531D01*
X335339Y145491D01*
X337261Y143569D01*
X338301Y141059D01*
X338301Y138341D01*
X337261Y135831D01*
X335339Y133909D01*
X332829Y132869D01*
X330111Y132869D01*
X329409Y133160D01*
X329408Y133160D01*
X329407Y133161D01*
X329273Y133195D01*
X329134Y133231D01*
X329133Y133231D01*
X329131Y133231D01*
X328990Y133227D01*
X328850Y133223D01*
X328848Y133222D01*
X328847Y133222D01*
X328714Y133179D01*
X328579Y133136D01*
X328578Y133135D01*
X328576Y133135D01*
X328564Y133126D01*
X328343Y132978D01*
X328323Y132954D01*
X328303Y132940D01*
X310364Y115001D01*
X310329Y114955D01*
X310287Y114914D01*
X310244Y114841D01*
X310194Y114774D01*
X310173Y114719D01*
X310143Y114669D01*
X310122Y114587D01*
X310092Y114508D01*
X310087Y114450D01*
X310073Y114394D01*
X310076Y114309D01*
X310069Y114225D01*
X310080Y114168D01*
X310082Y114109D01*
X310108Y114029D01*
X310125Y113946D01*
X310152Y113895D01*
X310170Y113839D01*
X310210Y113783D01*
X310256Y113694D01*
X310324Y113622D01*
X310364Y113566D01*
X312124Y111806D01*
X321216Y102714D01*
X323597Y100333D01*
X323597Y62404D01*
X323609Y62317D01*
X323612Y62230D01*
X323629Y62177D01*
X323637Y62122D01*
X323672Y62043D01*
X323699Y61959D01*
X323727Y61920D01*
X323753Y61863D01*
X323849Y61750D01*
X323894Y61686D01*
X325831Y59749D01*
X326871Y57239D01*
X326871Y54521D01*
X325831Y52011D01*
X324640Y50820D01*
X324622Y50796D01*
X324600Y50777D01*
X324537Y50683D01*
X324469Y50593D01*
X324459Y50565D01*
X324442Y50541D01*
X324408Y50433D01*
X324368Y50327D01*
X324365Y50298D01*
X324357Y50270D01*
X324354Y50156D01*
X324344Y50044D01*
X324350Y50015D01*
X324349Y49986D01*
X324378Y49876D01*
X324400Y49765D01*
X324414Y49739D01*
X324421Y49711D01*
X324479Y49613D01*
X324531Y49513D01*
X324551Y49491D01*
X324566Y49466D01*
X324649Y49389D01*
X324727Y49307D01*
X324752Y49292D01*
X324774Y49272D01*
X324875Y49220D01*
X324972Y49163D01*
X325001Y49156D01*
X325027Y49142D01*
X325104Y49129D01*
X325248Y49093D01*
X325310Y49095D01*
X325358Y49087D01*
X325766Y49087D01*
X325853Y49099D01*
X325940Y49102D01*
X325993Y49119D01*
X326048Y49127D01*
X326127Y49162D01*
X326211Y49189D01*
X326250Y49217D01*
X326307Y49243D01*
X326420Y49339D01*
X326484Y49384D01*
X328421Y51321D01*
X330931Y52361D01*
X333649Y52361D01*
X336159Y51321D01*
X338081Y49399D01*
X339121Y46889D01*
X339121Y44171D01*
X338081Y41661D01*
X336144Y39724D01*
X336092Y39654D01*
X336032Y39590D01*
X336006Y39541D01*
X335973Y39497D01*
X335942Y39415D01*
X335902Y39337D01*
X335894Y39290D01*
X335872Y39231D01*
X335860Y39083D01*
X335847Y39006D01*
X335847Y26017D01*
X331623Y21793D01*
X331622Y21792D01*
X331621Y21791D01*
X331536Y21677D01*
X331452Y21566D01*
X331451Y21564D01*
X331450Y21563D01*
X331401Y21431D01*
X331351Y21300D01*
X331351Y21298D01*
X331350Y21297D01*
X331338Y21152D01*
X331327Y21017D01*
X331327Y21015D01*
X331327Y21014D01*
X331331Y20998D01*
X331383Y20738D01*
X331397Y20711D01*
X331403Y20686D01*
X332233Y18683D01*
X332233Y14337D01*
X330570Y10323D01*
X327497Y7250D01*
X323483Y5587D01*
X319137Y5587D01*
G37*
%LPD*%
%LPC*%
G36*
X35471Y73179D02*
X35471Y73179D01*
X32961Y74219D01*
X31039Y76141D01*
X29999Y78651D01*
X29999Y81369D01*
X31039Y83879D01*
X32961Y85801D01*
X35471Y86841D01*
X36748Y86841D01*
X36834Y86853D01*
X36922Y86856D01*
X36975Y86873D01*
X37029Y86881D01*
X37109Y86916D01*
X37192Y86943D01*
X37232Y86971D01*
X37289Y86997D01*
X37402Y87093D01*
X37466Y87138D01*
X64255Y113927D01*
X64256Y113928D01*
X64257Y113929D01*
X64345Y114048D01*
X64426Y114154D01*
X64426Y114156D01*
X64427Y114157D01*
X64478Y114291D01*
X64527Y114420D01*
X64527Y114422D01*
X64527Y114423D01*
X64539Y114561D01*
X64550Y114703D01*
X64550Y114705D01*
X64550Y114706D01*
X64547Y114721D01*
X64494Y114982D01*
X64480Y115009D01*
X64475Y115033D01*
X64289Y115481D01*
X64289Y118199D01*
X65329Y120709D01*
X67251Y122631D01*
X69761Y123671D01*
X72479Y123671D01*
X74989Y122631D01*
X76911Y120709D01*
X77951Y118199D01*
X77951Y118110D01*
X77959Y118052D01*
X77957Y117994D01*
X77979Y117912D01*
X77991Y117828D01*
X78014Y117775D01*
X78029Y117719D01*
X78072Y117646D01*
X78107Y117569D01*
X78145Y117524D01*
X78174Y117474D01*
X78236Y117416D01*
X78290Y117352D01*
X78339Y117320D01*
X78382Y117280D01*
X78457Y117241D01*
X78527Y117194D01*
X78583Y117177D01*
X78635Y117150D01*
X78703Y117139D01*
X78798Y117109D01*
X78898Y117106D01*
X78966Y117095D01*
X96408Y117095D01*
X111350Y102152D01*
X111420Y102100D01*
X111484Y102040D01*
X111533Y102014D01*
X111577Y101981D01*
X111659Y101950D01*
X111737Y101910D01*
X111785Y101902D01*
X111843Y101880D01*
X111991Y101868D01*
X112068Y101855D01*
X120342Y101855D01*
X120428Y101867D01*
X120516Y101870D01*
X120569Y101887D01*
X120623Y101895D01*
X120703Y101930D01*
X120786Y101957D01*
X120826Y101985D01*
X120883Y102011D01*
X120996Y102107D01*
X121060Y102152D01*
X144738Y125830D01*
X144790Y125900D01*
X144850Y125964D01*
X144876Y126013D01*
X144909Y126057D01*
X144940Y126139D01*
X144980Y126217D01*
X144988Y126265D01*
X145010Y126323D01*
X145022Y126471D01*
X145035Y126548D01*
X145035Y139512D01*
X145928Y140405D01*
X160192Y140405D01*
X161085Y139512D01*
X161085Y134936D01*
X161092Y134888D01*
X161091Y134882D01*
X161093Y134877D01*
X161091Y134820D01*
X161113Y134738D01*
X161125Y134654D01*
X161148Y134601D01*
X161163Y134545D01*
X161206Y134472D01*
X161241Y134395D01*
X161279Y134350D01*
X161308Y134300D01*
X161370Y134242D01*
X161424Y134178D01*
X161473Y134146D01*
X161516Y134106D01*
X161591Y134067D01*
X161661Y134020D01*
X161717Y134003D01*
X161769Y133976D01*
X161837Y133965D01*
X161932Y133935D01*
X162032Y133932D01*
X162100Y133921D01*
X163020Y133921D01*
X163078Y133929D01*
X163136Y133927D01*
X163218Y133949D01*
X163302Y133961D01*
X163355Y133984D01*
X163411Y133999D01*
X163484Y134042D01*
X163561Y134077D01*
X163606Y134115D01*
X163656Y134144D01*
X163714Y134206D01*
X163778Y134260D01*
X163810Y134309D01*
X163850Y134352D01*
X163889Y134427D01*
X163936Y134497D01*
X163953Y134553D01*
X163980Y134605D01*
X163991Y134673D01*
X164021Y134768D01*
X164024Y134868D01*
X164035Y134936D01*
X164035Y139512D01*
X164928Y140405D01*
X179192Y140405D01*
X180085Y139512D01*
X180085Y134936D01*
X180092Y134888D01*
X180091Y134882D01*
X180093Y134877D01*
X180091Y134820D01*
X180113Y134738D01*
X180125Y134654D01*
X180148Y134601D01*
X180163Y134545D01*
X180206Y134472D01*
X180241Y134395D01*
X180279Y134350D01*
X180308Y134300D01*
X180370Y134242D01*
X180424Y134178D01*
X180473Y134146D01*
X180516Y134106D01*
X180591Y134067D01*
X180661Y134020D01*
X180717Y134003D01*
X180769Y133976D01*
X180837Y133965D01*
X180932Y133935D01*
X181032Y133932D01*
X181100Y133921D01*
X186810Y133921D01*
X186868Y133929D01*
X186926Y133927D01*
X187008Y133949D01*
X187092Y133961D01*
X187145Y133984D01*
X187201Y133999D01*
X187274Y134042D01*
X187351Y134077D01*
X187396Y134115D01*
X187446Y134144D01*
X187504Y134206D01*
X187568Y134260D01*
X187600Y134309D01*
X187640Y134352D01*
X187679Y134427D01*
X187726Y134497D01*
X187743Y134553D01*
X187770Y134605D01*
X187781Y134673D01*
X187793Y134709D01*
X188718Y135635D01*
X204982Y135635D01*
X205875Y134742D01*
X205875Y120478D01*
X204950Y119553D01*
X204895Y119545D01*
X204886Y119541D01*
X204876Y119540D01*
X204756Y119483D01*
X204635Y119429D01*
X204628Y119423D01*
X204619Y119419D01*
X204519Y119331D01*
X204418Y119246D01*
X204413Y119237D01*
X204405Y119231D01*
X204334Y119119D01*
X204261Y119009D01*
X204258Y119000D01*
X204252Y118991D01*
X204215Y118864D01*
X204175Y118738D01*
X204175Y118728D01*
X204172Y118719D01*
X204171Y118586D01*
X204168Y118454D01*
X204170Y118444D01*
X204170Y118434D01*
X204206Y118306D01*
X204239Y118179D01*
X204244Y118170D01*
X204247Y118161D01*
X204317Y118048D01*
X204385Y117934D01*
X204392Y117927D01*
X204397Y117919D01*
X204495Y117831D01*
X204592Y117740D01*
X204601Y117735D01*
X204608Y117729D01*
X204659Y117705D01*
X204845Y117610D01*
X204881Y117604D01*
X204913Y117589D01*
X205331Y117478D01*
X205910Y117143D01*
X206383Y116670D01*
X206718Y116091D01*
X206891Y115444D01*
X206891Y110641D01*
X197866Y110641D01*
X197808Y110633D01*
X197750Y110634D01*
X197668Y110613D01*
X197585Y110601D01*
X197531Y110577D01*
X197475Y110563D01*
X197402Y110520D01*
X197325Y110485D01*
X197281Y110447D01*
X197230Y110417D01*
X197173Y110356D01*
X197108Y110301D01*
X197076Y110253D01*
X197036Y110210D01*
X196997Y110135D01*
X196951Y110065D01*
X196933Y110009D01*
X196906Y109957D01*
X196895Y109889D01*
X196865Y109794D01*
X196862Y109694D01*
X196851Y109626D01*
X196851Y108609D01*
X196849Y108609D01*
X196849Y109626D01*
X196841Y109682D01*
X196842Y109734D01*
X196842Y109742D01*
X196821Y109824D01*
X196809Y109907D01*
X196785Y109961D01*
X196771Y110017D01*
X196728Y110090D01*
X196693Y110167D01*
X196655Y110211D01*
X196625Y110262D01*
X196564Y110319D01*
X196509Y110384D01*
X196461Y110416D01*
X196418Y110456D01*
X196343Y110495D01*
X196273Y110541D01*
X196217Y110559D01*
X196165Y110586D01*
X196097Y110597D01*
X196002Y110627D01*
X195902Y110630D01*
X195834Y110641D01*
X186809Y110641D01*
X186809Y115444D01*
X186982Y116091D01*
X187317Y116670D01*
X187790Y117143D01*
X188369Y117478D01*
X188787Y117589D01*
X188796Y117593D01*
X188805Y117595D01*
X188926Y117649D01*
X189048Y117701D01*
X189056Y117707D01*
X189065Y117711D01*
X189166Y117797D01*
X189269Y117880D01*
X189274Y117888D01*
X189282Y117895D01*
X189355Y118005D01*
X189431Y118114D01*
X189434Y118123D01*
X189439Y118131D01*
X189479Y118257D01*
X189522Y118383D01*
X189522Y118393D01*
X189525Y118402D01*
X189528Y118535D01*
X189534Y118667D01*
X189532Y118676D01*
X189532Y118686D01*
X189499Y118815D01*
X189468Y118943D01*
X189463Y118952D01*
X189461Y118961D01*
X189393Y119075D01*
X189327Y119191D01*
X189320Y119197D01*
X189315Y119206D01*
X189219Y119296D01*
X189124Y119389D01*
X189115Y119394D01*
X189108Y119400D01*
X188990Y119461D01*
X188873Y119523D01*
X188864Y119525D01*
X188855Y119530D01*
X188799Y119539D01*
X188755Y119549D01*
X187825Y120478D01*
X187825Y127824D01*
X187817Y127882D01*
X187819Y127940D01*
X187797Y128022D01*
X187785Y128106D01*
X187762Y128159D01*
X187747Y128215D01*
X187704Y128288D01*
X187669Y128365D01*
X187631Y128410D01*
X187602Y128460D01*
X187540Y128518D01*
X187486Y128582D01*
X187437Y128614D01*
X187394Y128654D01*
X187319Y128693D01*
X187249Y128740D01*
X187193Y128757D01*
X187141Y128784D01*
X187073Y128795D01*
X186978Y128825D01*
X186878Y128828D01*
X186810Y128839D01*
X181100Y128839D01*
X181042Y128831D01*
X180984Y128833D01*
X180902Y128811D01*
X180818Y128799D01*
X180765Y128776D01*
X180709Y128761D01*
X180636Y128718D01*
X180559Y128683D01*
X180514Y128645D01*
X180464Y128616D01*
X180406Y128554D01*
X180342Y128500D01*
X180310Y128451D01*
X180270Y128408D01*
X180231Y128333D01*
X180184Y128263D01*
X180167Y128207D01*
X180140Y128155D01*
X180129Y128087D01*
X180099Y127992D01*
X180096Y127892D01*
X180085Y127824D01*
X180085Y123248D01*
X179192Y122355D01*
X164928Y122355D01*
X164035Y123248D01*
X164035Y127824D01*
X164027Y127882D01*
X164029Y127940D01*
X164007Y128022D01*
X163995Y128106D01*
X163972Y128159D01*
X163957Y128215D01*
X163914Y128288D01*
X163879Y128365D01*
X163841Y128410D01*
X163812Y128460D01*
X163750Y128518D01*
X163696Y128582D01*
X163647Y128614D01*
X163604Y128654D01*
X163529Y128693D01*
X163459Y128740D01*
X163403Y128757D01*
X163351Y128784D01*
X163283Y128795D01*
X163188Y128825D01*
X163088Y128828D01*
X163020Y128839D01*
X162100Y128839D01*
X162042Y128831D01*
X161984Y128833D01*
X161902Y128811D01*
X161818Y128799D01*
X161765Y128776D01*
X161709Y128761D01*
X161636Y128718D01*
X161559Y128683D01*
X161514Y128645D01*
X161464Y128616D01*
X161406Y128554D01*
X161342Y128500D01*
X161310Y128451D01*
X161270Y128408D01*
X161231Y128333D01*
X161184Y128263D01*
X161167Y128207D01*
X161140Y128155D01*
X161129Y128087D01*
X161099Y127992D01*
X161096Y127892D01*
X161085Y127824D01*
X161085Y123248D01*
X160192Y122355D01*
X149588Y122355D01*
X149502Y122343D01*
X149414Y122340D01*
X149361Y122323D01*
X149307Y122315D01*
X149227Y122280D01*
X149144Y122253D01*
X149104Y122225D01*
X149047Y122199D01*
X148934Y122103D01*
X148870Y122058D01*
X144950Y118138D01*
X144933Y118114D01*
X144910Y118095D01*
X144847Y118001D01*
X144779Y117911D01*
X144769Y117883D01*
X144753Y117859D01*
X144718Y117751D01*
X144678Y117645D01*
X144676Y117616D01*
X144667Y117588D01*
X144664Y117474D01*
X144655Y117362D01*
X144660Y117333D01*
X144660Y117304D01*
X144688Y117194D01*
X144710Y117083D01*
X144724Y117057D01*
X144731Y117029D01*
X144789Y116931D01*
X144841Y116831D01*
X144862Y116809D01*
X144877Y116784D01*
X144959Y116707D01*
X145037Y116625D01*
X145063Y116610D01*
X145084Y116590D01*
X145185Y116538D01*
X145282Y116481D01*
X145311Y116474D01*
X145337Y116460D01*
X145414Y116447D01*
X145558Y116411D01*
X145620Y116413D01*
X145668Y116405D01*
X160192Y116405D01*
X161117Y115480D01*
X161125Y115425D01*
X161129Y115416D01*
X161130Y115406D01*
X161152Y115359D01*
X161163Y115317D01*
X161202Y115252D01*
X161241Y115165D01*
X161247Y115158D01*
X161251Y115149D01*
X161288Y115107D01*
X161308Y115073D01*
X161360Y115025D01*
X161424Y114948D01*
X161433Y114943D01*
X161439Y114936D01*
X161488Y114904D01*
X161516Y114878D01*
X161575Y114848D01*
X161661Y114791D01*
X161671Y114788D01*
X161679Y114783D01*
X161737Y114765D01*
X161769Y114749D01*
X161820Y114740D01*
X161932Y114705D01*
X161942Y114705D01*
X161951Y114702D01*
X162053Y114701D01*
X162100Y114693D01*
X162101Y114693D01*
X162144Y114700D01*
X162216Y114698D01*
X162226Y114700D01*
X162236Y114700D01*
X162325Y114725D01*
X162382Y114733D01*
X162423Y114752D01*
X162491Y114769D01*
X162500Y114774D01*
X162509Y114777D01*
X162585Y114824D01*
X162642Y114850D01*
X162678Y114880D01*
X162736Y114915D01*
X162743Y114922D01*
X162751Y114927D01*
X162808Y114991D01*
X162859Y115033D01*
X162887Y115076D01*
X162930Y115122D01*
X162935Y115131D01*
X162941Y115138D01*
X162965Y115190D01*
X162972Y115203D01*
X163016Y115270D01*
X163033Y115323D01*
X163060Y115375D01*
X163066Y115411D01*
X163081Y115443D01*
X163192Y115861D01*
X163527Y116440D01*
X164000Y116913D01*
X164579Y117248D01*
X165226Y117421D01*
X170029Y117421D01*
X170029Y108396D01*
X170037Y108338D01*
X170035Y108280D01*
X170057Y108198D01*
X170069Y108115D01*
X170093Y108061D01*
X170107Y108005D01*
X170150Y107932D01*
X170185Y107855D01*
X170223Y107811D01*
X170253Y107760D01*
X170314Y107703D01*
X170369Y107638D01*
X170417Y107606D01*
X170460Y107566D01*
X170535Y107527D01*
X170605Y107481D01*
X170661Y107463D01*
X170713Y107436D01*
X170781Y107425D01*
X170876Y107395D01*
X170976Y107392D01*
X171044Y107381D01*
X172061Y107381D01*
X172061Y107379D01*
X171044Y107379D01*
X170986Y107371D01*
X170928Y107372D01*
X170846Y107351D01*
X170763Y107339D01*
X170709Y107315D01*
X170653Y107301D01*
X170580Y107258D01*
X170503Y107223D01*
X170458Y107185D01*
X170408Y107155D01*
X170350Y107094D01*
X170286Y107039D01*
X170254Y106991D01*
X170214Y106948D01*
X170175Y106873D01*
X170129Y106803D01*
X170111Y106747D01*
X170084Y106695D01*
X170073Y106627D01*
X170043Y106532D01*
X170040Y106432D01*
X170029Y106364D01*
X170029Y97339D01*
X165226Y97339D01*
X164579Y97512D01*
X164000Y97847D01*
X163527Y98320D01*
X163192Y98899D01*
X163081Y99317D01*
X163077Y99326D01*
X163075Y99335D01*
X163021Y99456D01*
X162969Y99578D01*
X162963Y99586D01*
X162959Y99595D01*
X162874Y99696D01*
X162790Y99799D01*
X162782Y99804D01*
X162775Y99812D01*
X162665Y99885D01*
X162556Y99961D01*
X162547Y99964D01*
X162539Y99969D01*
X162412Y100009D01*
X162287Y100052D01*
X162277Y100052D01*
X162268Y100055D01*
X162135Y100058D01*
X162003Y100064D01*
X161993Y100062D01*
X161984Y100062D01*
X161855Y100029D01*
X161727Y99998D01*
X161718Y99993D01*
X161709Y99991D01*
X161595Y99923D01*
X161479Y99857D01*
X161473Y99850D01*
X161464Y99845D01*
X161373Y99748D01*
X161281Y99654D01*
X161276Y99645D01*
X161270Y99638D01*
X161209Y99519D01*
X161147Y99403D01*
X161145Y99394D01*
X161140Y99385D01*
X161131Y99329D01*
X161121Y99285D01*
X160192Y98355D01*
X147436Y98355D01*
X147407Y98351D01*
X147378Y98354D01*
X147267Y98331D01*
X147154Y98315D01*
X147128Y98303D01*
X147099Y98298D01*
X146998Y98245D01*
X146895Y98199D01*
X146873Y98180D01*
X146847Y98167D01*
X146764Y98089D01*
X146678Y98016D01*
X146662Y97991D01*
X146640Y97971D01*
X146583Y97873D01*
X146520Y97779D01*
X146511Y97751D01*
X146497Y97726D01*
X146469Y97616D01*
X146435Y97508D01*
X146434Y97478D01*
X146427Y97450D01*
X146430Y97337D01*
X146427Y97224D01*
X146435Y97195D01*
X146436Y97166D01*
X146471Y97058D01*
X146499Y96949D01*
X146514Y96923D01*
X146523Y96895D01*
X146569Y96831D01*
X146644Y96704D01*
X146690Y96661D01*
X146718Y96622D01*
X148031Y95309D01*
X149071Y92799D01*
X149071Y90081D01*
X148031Y87571D01*
X146109Y85649D01*
X143599Y84609D01*
X140881Y84609D01*
X138371Y85649D01*
X136449Y87571D01*
X135409Y90081D01*
X135409Y92799D01*
X136449Y95309D01*
X138371Y97231D01*
X139073Y97522D01*
X139074Y97522D01*
X139075Y97523D01*
X139154Y97569D01*
X139201Y97590D01*
X139227Y97613D01*
X139317Y97666D01*
X139319Y97667D01*
X139320Y97668D01*
X139415Y97770D01*
X139513Y97873D01*
X139513Y97874D01*
X139514Y97875D01*
X139577Y97998D01*
X139643Y98125D01*
X139643Y98127D01*
X139644Y98128D01*
X139646Y98143D01*
X139698Y98404D01*
X139695Y98435D01*
X139699Y98459D01*
X139699Y105192D01*
X144645Y110138D01*
X144656Y110144D01*
X144714Y110206D01*
X144778Y110260D01*
X144810Y110309D01*
X144850Y110352D01*
X144889Y110427D01*
X144936Y110497D01*
X144953Y110553D01*
X144980Y110605D01*
X144991Y110673D01*
X145021Y110768D01*
X145024Y110868D01*
X145035Y110936D01*
X145035Y115772D01*
X145031Y115801D01*
X145034Y115830D01*
X145011Y115941D01*
X144995Y116053D01*
X144983Y116080D01*
X144978Y116109D01*
X144926Y116209D01*
X144879Y116313D01*
X144860Y116335D01*
X144847Y116361D01*
X144769Y116443D01*
X144696Y116530D01*
X144671Y116546D01*
X144651Y116567D01*
X144553Y116625D01*
X144459Y116687D01*
X144431Y116696D01*
X144406Y116711D01*
X144296Y116739D01*
X144188Y116773D01*
X144158Y116774D01*
X144130Y116781D01*
X144017Y116778D01*
X143904Y116780D01*
X143875Y116773D01*
X143846Y116772D01*
X143738Y116737D01*
X143629Y116709D01*
X143603Y116694D01*
X143575Y116685D01*
X143512Y116639D01*
X143384Y116563D01*
X143341Y116518D01*
X143302Y116490D01*
X125012Y98200D01*
X123078Y96265D01*
X109332Y96265D01*
X94390Y111208D01*
X94320Y111260D01*
X94256Y111320D01*
X94207Y111346D01*
X94163Y111379D01*
X94081Y111410D01*
X94003Y111450D01*
X93955Y111458D01*
X93897Y111480D01*
X93749Y111492D01*
X93672Y111505D01*
X75866Y111505D01*
X75779Y111493D01*
X75692Y111490D01*
X75639Y111473D01*
X75584Y111465D01*
X75505Y111430D01*
X75421Y111403D01*
X75382Y111375D01*
X75325Y111349D01*
X75212Y111253D01*
X75148Y111208D01*
X74989Y111049D01*
X72479Y110009D01*
X69761Y110009D01*
X69313Y110195D01*
X69312Y110195D01*
X69311Y110196D01*
X69178Y110230D01*
X69038Y110266D01*
X69037Y110266D01*
X69035Y110266D01*
X68894Y110262D01*
X68754Y110258D01*
X68753Y110257D01*
X68751Y110257D01*
X68617Y110214D01*
X68483Y110171D01*
X68482Y110170D01*
X68480Y110170D01*
X68468Y110161D01*
X68247Y110013D01*
X68227Y109989D01*
X68207Y109975D01*
X42951Y84719D01*
X42950Y84718D01*
X42949Y84717D01*
X42863Y84602D01*
X42780Y84492D01*
X42780Y84490D01*
X42779Y84489D01*
X42728Y84354D01*
X42679Y84226D01*
X42679Y84225D01*
X42679Y84223D01*
X42667Y84079D01*
X42656Y83943D01*
X42656Y83941D01*
X42656Y83940D01*
X42659Y83924D01*
X42712Y83664D01*
X42726Y83637D01*
X42731Y83613D01*
X43661Y81369D01*
X43661Y78651D01*
X42621Y76141D01*
X40699Y74219D01*
X38189Y73179D01*
X35471Y73179D01*
G37*
%LPD*%
%LPC*%
G36*
X214541Y68099D02*
X214541Y68099D01*
X212031Y69139D01*
X210109Y71061D01*
X209069Y73571D01*
X209069Y76289D01*
X210109Y78799D01*
X212031Y80721D01*
X212733Y81012D01*
X212734Y81012D01*
X212735Y81013D01*
X212852Y81082D01*
X212977Y81156D01*
X212979Y81157D01*
X212980Y81158D01*
X213075Y81260D01*
X213173Y81363D01*
X213173Y81364D01*
X213174Y81365D01*
X213239Y81491D01*
X213303Y81615D01*
X213303Y81617D01*
X213304Y81618D01*
X213306Y81633D01*
X213358Y81894D01*
X213355Y81925D01*
X213359Y81949D01*
X213359Y133147D01*
X213347Y133234D01*
X213344Y133321D01*
X213327Y133374D01*
X213319Y133429D01*
X213284Y133508D01*
X213257Y133592D01*
X213229Y133631D01*
X213203Y133688D01*
X213107Y133801D01*
X213062Y133865D01*
X193555Y153372D01*
X193485Y153424D01*
X193421Y153484D01*
X193372Y153510D01*
X193328Y153543D01*
X193246Y153574D01*
X193168Y153614D01*
X193121Y153622D01*
X193062Y153644D01*
X192914Y153656D01*
X192837Y153669D01*
X122138Y153669D01*
X118117Y157690D01*
X118047Y157742D01*
X117983Y157802D01*
X117934Y157828D01*
X117890Y157861D01*
X117808Y157892D01*
X117730Y157932D01*
X117683Y157940D01*
X117624Y157962D01*
X117476Y157974D01*
X117399Y157987D01*
X115937Y157987D01*
X111923Y159650D01*
X108850Y162723D01*
X107187Y166737D01*
X107187Y171083D01*
X108850Y175097D01*
X111923Y178170D01*
X115937Y179833D01*
X120283Y179833D01*
X124297Y178170D01*
X127370Y175097D01*
X129033Y171083D01*
X129033Y166737D01*
X127370Y162723D01*
X125131Y160484D01*
X125113Y160460D01*
X125091Y160441D01*
X125028Y160347D01*
X124960Y160257D01*
X124950Y160229D01*
X124933Y160205D01*
X124899Y160097D01*
X124859Y159991D01*
X124856Y159962D01*
X124848Y159934D01*
X124845Y159820D01*
X124835Y159708D01*
X124841Y159679D01*
X124840Y159650D01*
X124869Y159540D01*
X124891Y159429D01*
X124905Y159403D01*
X124912Y159375D01*
X124970Y159277D01*
X125022Y159177D01*
X125042Y159155D01*
X125057Y159130D01*
X125140Y159053D01*
X125218Y158971D01*
X125243Y158956D01*
X125265Y158936D01*
X125365Y158884D01*
X125463Y158827D01*
X125492Y158820D01*
X125518Y158806D01*
X125595Y158793D01*
X125739Y158757D01*
X125801Y158759D01*
X125849Y158751D01*
X135771Y158751D01*
X135800Y158755D01*
X135829Y158752D01*
X135941Y158775D01*
X136053Y158791D01*
X136079Y158803D01*
X136108Y158808D01*
X136209Y158861D01*
X136312Y158907D01*
X136334Y158926D01*
X136361Y158939D01*
X136443Y159017D01*
X136529Y159090D01*
X136545Y159115D01*
X136567Y159135D01*
X136624Y159233D01*
X136687Y159327D01*
X136696Y159355D01*
X136710Y159380D01*
X136738Y159490D01*
X136772Y159598D01*
X136773Y159628D01*
X136780Y159656D01*
X136777Y159769D01*
X136780Y159882D01*
X136772Y159911D01*
X136771Y159940D01*
X136736Y160048D01*
X136708Y160157D01*
X136693Y160183D01*
X136684Y160211D01*
X136638Y160274D01*
X136563Y160402D01*
X136517Y160445D01*
X136489Y160484D01*
X134250Y162723D01*
X132587Y166737D01*
X132587Y171083D01*
X134250Y175097D01*
X137323Y178170D01*
X141337Y179833D01*
X145683Y179833D01*
X149697Y178170D01*
X152770Y175097D01*
X154433Y171083D01*
X154433Y166737D01*
X152770Y162723D01*
X150531Y160484D01*
X150513Y160460D01*
X150491Y160441D01*
X150428Y160347D01*
X150360Y160257D01*
X150350Y160229D01*
X150333Y160205D01*
X150299Y160097D01*
X150259Y159991D01*
X150256Y159962D01*
X150248Y159934D01*
X150245Y159820D01*
X150235Y159708D01*
X150241Y159679D01*
X150240Y159650D01*
X150269Y159540D01*
X150291Y159429D01*
X150305Y159403D01*
X150312Y159375D01*
X150370Y159277D01*
X150422Y159177D01*
X150442Y159155D01*
X150457Y159130D01*
X150540Y159053D01*
X150618Y158971D01*
X150643Y158956D01*
X150665Y158936D01*
X150765Y158884D01*
X150863Y158827D01*
X150892Y158820D01*
X150918Y158806D01*
X150995Y158793D01*
X151139Y158757D01*
X151201Y158759D01*
X151249Y158751D01*
X161171Y158751D01*
X161200Y158755D01*
X161229Y158752D01*
X161341Y158775D01*
X161453Y158791D01*
X161479Y158803D01*
X161508Y158808D01*
X161609Y158861D01*
X161712Y158907D01*
X161734Y158926D01*
X161761Y158939D01*
X161843Y159017D01*
X161929Y159090D01*
X161945Y159115D01*
X161967Y159135D01*
X162024Y159233D01*
X162087Y159327D01*
X162096Y159355D01*
X162110Y159380D01*
X162138Y159490D01*
X162172Y159598D01*
X162173Y159628D01*
X162180Y159656D01*
X162177Y159769D01*
X162180Y159882D01*
X162172Y159911D01*
X162171Y159940D01*
X162136Y160048D01*
X162108Y160157D01*
X162093Y160183D01*
X162084Y160211D01*
X162038Y160274D01*
X161963Y160402D01*
X161917Y160445D01*
X161889Y160484D01*
X159650Y162723D01*
X157987Y166737D01*
X157987Y171083D01*
X159650Y175097D01*
X162723Y178170D01*
X166737Y179833D01*
X171083Y179833D01*
X175097Y178170D01*
X178170Y175097D01*
X179833Y171083D01*
X179833Y166737D01*
X178170Y162723D01*
X175931Y160484D01*
X175913Y160460D01*
X175891Y160441D01*
X175828Y160347D01*
X175760Y160257D01*
X175750Y160229D01*
X175733Y160205D01*
X175699Y160097D01*
X175659Y159991D01*
X175656Y159962D01*
X175648Y159934D01*
X175645Y159820D01*
X175635Y159708D01*
X175641Y159679D01*
X175640Y159650D01*
X175669Y159540D01*
X175691Y159429D01*
X175705Y159403D01*
X175712Y159375D01*
X175770Y159277D01*
X175822Y159177D01*
X175842Y159155D01*
X175857Y159130D01*
X175940Y159053D01*
X176018Y158971D01*
X176043Y158956D01*
X176065Y158936D01*
X176165Y158884D01*
X176263Y158827D01*
X176292Y158820D01*
X176318Y158806D01*
X176395Y158793D01*
X176539Y158757D01*
X176601Y158759D01*
X176649Y158751D01*
X186571Y158751D01*
X186600Y158755D01*
X186629Y158752D01*
X186741Y158775D01*
X186853Y158791D01*
X186879Y158803D01*
X186908Y158808D01*
X187009Y158861D01*
X187112Y158907D01*
X187134Y158926D01*
X187161Y158939D01*
X187243Y159017D01*
X187329Y159090D01*
X187345Y159115D01*
X187367Y159135D01*
X187424Y159233D01*
X187487Y159327D01*
X187496Y159355D01*
X187510Y159380D01*
X187538Y159490D01*
X187572Y159598D01*
X187573Y159628D01*
X187580Y159656D01*
X187577Y159769D01*
X187580Y159882D01*
X187572Y159911D01*
X187571Y159940D01*
X187536Y160048D01*
X187508Y160157D01*
X187493Y160183D01*
X187484Y160211D01*
X187438Y160274D01*
X187363Y160402D01*
X187317Y160445D01*
X187289Y160484D01*
X185050Y162723D01*
X183387Y166737D01*
X183387Y171083D01*
X185050Y175097D01*
X188123Y178170D01*
X192137Y179833D01*
X196483Y179833D01*
X200497Y178170D01*
X203570Y175097D01*
X205233Y171083D01*
X205233Y166737D01*
X203570Y162723D01*
X200497Y159650D01*
X197634Y158464D01*
X197535Y158406D01*
X197433Y158353D01*
X197413Y158334D01*
X197389Y158320D01*
X197311Y158236D01*
X197227Y158157D01*
X197213Y158133D01*
X197194Y158113D01*
X197142Y158011D01*
X197084Y157912D01*
X197077Y157885D01*
X197064Y157860D01*
X197042Y157747D01*
X197013Y157636D01*
X197014Y157609D01*
X197009Y157581D01*
X197019Y157467D01*
X197022Y157352D01*
X197031Y157326D01*
X197033Y157298D01*
X197075Y157191D01*
X197110Y157082D01*
X197124Y157061D01*
X197135Y157033D01*
X197296Y156821D01*
X197305Y156808D01*
X218441Y135672D01*
X218441Y81949D01*
X218441Y81948D01*
X218441Y81946D01*
X218461Y81806D01*
X218481Y81668D01*
X218481Y81667D01*
X218481Y81665D01*
X218540Y81535D01*
X218597Y81409D01*
X218598Y81407D01*
X218599Y81406D01*
X218690Y81299D01*
X218780Y81192D01*
X218782Y81191D01*
X218783Y81189D01*
X218795Y81182D01*
X219017Y81034D01*
X219046Y81025D01*
X219067Y81012D01*
X219769Y80721D01*
X221691Y78799D01*
X222731Y76289D01*
X222731Y73571D01*
X221691Y71061D01*
X219769Y69139D01*
X217259Y68099D01*
X214541Y68099D01*
G37*
%LPD*%
%LPC*%
G36*
X217537Y5587D02*
X217537Y5587D01*
X213523Y7250D01*
X210450Y10323D01*
X208787Y14337D01*
X208787Y18712D01*
X208775Y18799D01*
X208772Y18886D01*
X208755Y18939D01*
X208747Y18993D01*
X208712Y19073D01*
X208685Y19157D01*
X208657Y19196D01*
X208631Y19253D01*
X208535Y19366D01*
X208490Y19430D01*
X207664Y20256D01*
X207577Y20321D01*
X207494Y20392D01*
X207464Y20407D01*
X207437Y20427D01*
X207335Y20466D01*
X207236Y20511D01*
X207203Y20516D01*
X207171Y20528D01*
X207063Y20537D01*
X206955Y20553D01*
X206921Y20549D01*
X206888Y20552D01*
X206781Y20530D01*
X206673Y20516D01*
X206642Y20503D01*
X206609Y20496D01*
X206512Y20446D01*
X206413Y20402D01*
X206387Y20380D01*
X206357Y20365D01*
X206278Y20290D01*
X206194Y20220D01*
X206175Y20192D01*
X206150Y20169D01*
X206095Y20075D01*
X206034Y19985D01*
X206024Y19953D01*
X206007Y19924D01*
X205980Y19818D01*
X205946Y19715D01*
X205946Y19685D01*
X205937Y19648D01*
X205944Y19430D01*
X205943Y19379D01*
X206076Y18541D01*
X196341Y18541D01*
X196341Y28276D01*
X197179Y28143D01*
X197288Y28141D01*
X197396Y28132D01*
X197430Y28139D01*
X197464Y28138D01*
X197568Y28167D01*
X197675Y28188D01*
X197705Y28204D01*
X197738Y28213D01*
X197831Y28269D01*
X197927Y28319D01*
X197952Y28342D01*
X197981Y28360D01*
X198055Y28440D01*
X198134Y28515D01*
X198151Y28544D01*
X198174Y28569D01*
X198222Y28666D01*
X198277Y28760D01*
X198286Y28793D01*
X198301Y28823D01*
X198321Y28930D01*
X198347Y29036D01*
X198346Y29070D01*
X198353Y29103D01*
X198342Y29211D01*
X198338Y29320D01*
X198328Y29352D01*
X198325Y29386D01*
X198284Y29487D01*
X198251Y29590D01*
X198233Y29615D01*
X198219Y29650D01*
X198085Y29823D01*
X198056Y29864D01*
X168403Y59517D01*
X168356Y59552D01*
X168316Y59595D01*
X168243Y59637D01*
X168176Y59688D01*
X168121Y59709D01*
X168071Y59738D01*
X167989Y59759D01*
X167910Y59789D01*
X167852Y59794D01*
X167795Y59808D01*
X167711Y59806D01*
X167627Y59813D01*
X167569Y59801D01*
X167511Y59799D01*
X167431Y59773D01*
X167348Y59757D01*
X167296Y59730D01*
X167240Y59712D01*
X167184Y59672D01*
X167096Y59626D01*
X167023Y59557D01*
X166967Y59517D01*
X166429Y58979D01*
X163919Y57939D01*
X161201Y57939D01*
X160499Y58230D01*
X160498Y58230D01*
X160497Y58231D01*
X160363Y58265D01*
X160224Y58301D01*
X160223Y58301D01*
X160221Y58301D01*
X160080Y58297D01*
X159940Y58293D01*
X159938Y58292D01*
X159937Y58292D01*
X159803Y58249D01*
X159669Y58206D01*
X159668Y58205D01*
X159666Y58205D01*
X159654Y58196D01*
X159433Y58048D01*
X159413Y58024D01*
X159393Y58010D01*
X142312Y40929D01*
X140526Y39143D01*
X41084Y39143D01*
X22809Y57418D01*
X22808Y57419D01*
X22807Y57420D01*
X22693Y57505D01*
X22582Y57589D01*
X22580Y57589D01*
X22579Y57590D01*
X22447Y57640D01*
X22316Y57690D01*
X22314Y57690D01*
X22313Y57691D01*
X22168Y57702D01*
X22033Y57714D01*
X22031Y57713D01*
X22030Y57714D01*
X22014Y57710D01*
X21754Y57658D01*
X21727Y57644D01*
X21702Y57638D01*
X18683Y56387D01*
X14337Y56387D01*
X10323Y58050D01*
X7250Y61123D01*
X5587Y65137D01*
X5587Y69483D01*
X7250Y73497D01*
X10323Y76570D01*
X14337Y78233D01*
X18683Y78233D01*
X22697Y76570D01*
X25770Y73497D01*
X27433Y69483D01*
X27433Y65137D01*
X26182Y62118D01*
X26181Y62116D01*
X26181Y62115D01*
X26147Y61980D01*
X26111Y61842D01*
X26111Y61841D01*
X26111Y61839D01*
X26115Y61699D01*
X26119Y61558D01*
X26120Y61557D01*
X26120Y61555D01*
X26163Y61422D01*
X26206Y61287D01*
X26207Y61286D01*
X26207Y61285D01*
X26216Y61272D01*
X26364Y61051D01*
X26387Y61032D01*
X26402Y61011D01*
X42891Y44522D01*
X42961Y44470D01*
X43025Y44410D01*
X43074Y44384D01*
X43118Y44351D01*
X43200Y44320D01*
X43278Y44280D01*
X43325Y44272D01*
X43384Y44250D01*
X43532Y44238D01*
X43609Y44225D01*
X138001Y44225D01*
X138088Y44237D01*
X138175Y44240D01*
X138228Y44257D01*
X138283Y44265D01*
X138362Y44300D01*
X138446Y44327D01*
X138485Y44355D01*
X138542Y44381D01*
X138655Y44477D01*
X138719Y44522D01*
X155800Y61603D01*
X155801Y61604D01*
X155802Y61605D01*
X155885Y61716D01*
X155971Y61830D01*
X155971Y61832D01*
X155972Y61833D01*
X156021Y61962D01*
X156072Y62096D01*
X156072Y62097D01*
X156073Y62099D01*
X156084Y62240D01*
X156096Y62379D01*
X156095Y62381D01*
X156095Y62382D01*
X156092Y62398D01*
X156040Y62658D01*
X156026Y62685D01*
X156020Y62709D01*
X155729Y63411D01*
X155729Y66129D01*
X156769Y68639D01*
X158691Y70561D01*
X161201Y71601D01*
X163919Y71601D01*
X166429Y70561D01*
X168351Y68639D01*
X169392Y66125D01*
X169403Y66049D01*
X169406Y65962D01*
X169423Y65909D01*
X169431Y65854D01*
X169466Y65775D01*
X169493Y65691D01*
X169521Y65652D01*
X169547Y65595D01*
X169643Y65482D01*
X169688Y65418D01*
X210712Y24394D01*
X210758Y24359D01*
X210799Y24317D01*
X210871Y24274D01*
X210939Y24224D01*
X210993Y24203D01*
X211044Y24173D01*
X211126Y24152D01*
X211204Y24122D01*
X211263Y24118D01*
X211319Y24103D01*
X211404Y24106D01*
X211488Y24099D01*
X211545Y24110D01*
X211604Y24112D01*
X211684Y24138D01*
X211767Y24155D01*
X211818Y24182D01*
X211874Y24200D01*
X211930Y24240D01*
X212019Y24286D01*
X212091Y24354D01*
X212147Y24394D01*
X213523Y25770D01*
X217537Y27433D01*
X221883Y27433D01*
X225897Y25770D01*
X228970Y22697D01*
X230633Y18683D01*
X230633Y14337D01*
X228970Y10323D01*
X225897Y7250D01*
X221883Y5587D01*
X217537Y5587D01*
G37*
%LPD*%
%LPC*%
G36*
X14337Y107187D02*
X14337Y107187D01*
X10323Y108850D01*
X7250Y111923D01*
X5587Y115937D01*
X5587Y120283D01*
X7250Y124297D01*
X10323Y127370D01*
X14337Y129033D01*
X18683Y129033D01*
X22697Y127370D01*
X25770Y124297D01*
X26495Y122547D01*
X26495Y122546D01*
X26496Y122545D01*
X26567Y122424D01*
X26639Y122303D01*
X26640Y122302D01*
X26641Y122300D01*
X26745Y122203D01*
X26846Y122107D01*
X26847Y122107D01*
X26848Y122106D01*
X26974Y122041D01*
X27099Y121977D01*
X27100Y121977D01*
X27102Y121976D01*
X27117Y121974D01*
X27377Y121922D01*
X27408Y121925D01*
X27433Y121921D01*
X37897Y121921D01*
X37984Y121933D01*
X38071Y121936D01*
X38124Y121953D01*
X38179Y121961D01*
X38258Y121996D01*
X38342Y122023D01*
X38381Y122051D01*
X38438Y122077D01*
X38551Y122173D01*
X38615Y122218D01*
X74241Y157844D01*
X74292Y157913D01*
X74352Y157975D01*
X74378Y158026D01*
X74412Y158071D01*
X74442Y158152D01*
X74482Y158228D01*
X74493Y158284D01*
X74513Y158337D01*
X74520Y158423D01*
X74537Y158507D01*
X74532Y158564D01*
X74537Y158620D01*
X74520Y158704D01*
X74512Y158790D01*
X74492Y158843D01*
X74481Y158899D01*
X74441Y158975D01*
X74410Y159055D01*
X74376Y159101D01*
X74350Y159151D01*
X74291Y159214D01*
X74239Y159282D01*
X74193Y159316D01*
X74154Y159357D01*
X74080Y159401D01*
X74011Y159452D01*
X73958Y159472D01*
X73909Y159501D01*
X73825Y159522D01*
X73745Y159553D01*
X73688Y159557D01*
X73633Y159571D01*
X73547Y159568D01*
X73462Y159575D01*
X73413Y159564D01*
X73349Y159562D01*
X73211Y159518D01*
X73134Y159500D01*
X69483Y157987D01*
X65137Y157987D01*
X61123Y159650D01*
X58050Y162723D01*
X56387Y166737D01*
X56387Y171083D01*
X58050Y175097D01*
X61123Y178170D01*
X65137Y179833D01*
X69483Y179833D01*
X73497Y178170D01*
X76570Y175097D01*
X78233Y171083D01*
X78233Y166737D01*
X76720Y163086D01*
X76699Y163002D01*
X76668Y162922D01*
X76663Y162865D01*
X76649Y162810D01*
X76652Y162724D01*
X76644Y162639D01*
X76656Y162583D01*
X76657Y162526D01*
X76683Y162444D01*
X76700Y162360D01*
X76727Y162309D01*
X76744Y162255D01*
X76792Y162184D01*
X76831Y162108D01*
X76871Y162066D01*
X76902Y162019D01*
X76968Y161964D01*
X77027Y161902D01*
X77076Y161873D01*
X77120Y161836D01*
X77198Y161801D01*
X77272Y161758D01*
X77328Y161744D01*
X77380Y161721D01*
X77465Y161709D01*
X77548Y161688D01*
X77605Y161690D01*
X77661Y161682D01*
X77746Y161694D01*
X77832Y161697D01*
X77886Y161714D01*
X77943Y161722D01*
X78021Y161758D01*
X78103Y161784D01*
X78143Y161813D01*
X78202Y161839D01*
X78312Y161934D01*
X78376Y161979D01*
X81702Y165305D01*
X81703Y165306D01*
X81704Y165307D01*
X81791Y165423D01*
X81873Y165532D01*
X81874Y165534D01*
X81875Y165535D01*
X81924Y165665D01*
X81974Y165798D01*
X81974Y165800D01*
X81975Y165801D01*
X81986Y165940D01*
X81998Y166081D01*
X81997Y166083D01*
X81998Y166085D01*
X81994Y166099D01*
X81942Y166360D01*
X81928Y166387D01*
X81922Y166412D01*
X81787Y166737D01*
X81787Y171083D01*
X83450Y175097D01*
X86523Y178170D01*
X90537Y179833D01*
X94883Y179833D01*
X98897Y178170D01*
X101970Y175097D01*
X103633Y171083D01*
X103633Y166737D01*
X101970Y162723D01*
X98897Y159650D01*
X94883Y157987D01*
X90537Y157987D01*
X86523Y159650D01*
X85596Y160577D01*
X85549Y160612D01*
X85509Y160655D01*
X85436Y160697D01*
X85369Y160748D01*
X85314Y160769D01*
X85264Y160798D01*
X85182Y160819D01*
X85103Y160849D01*
X85045Y160854D01*
X84988Y160868D01*
X84904Y160866D01*
X84820Y160873D01*
X84763Y160861D01*
X84704Y160859D01*
X84624Y160833D01*
X84541Y160817D01*
X84489Y160790D01*
X84434Y160772D01*
X84377Y160732D01*
X84289Y160686D01*
X84216Y160617D01*
X84160Y160577D01*
X40422Y116839D01*
X28448Y116839D01*
X28390Y116831D01*
X28332Y116833D01*
X28250Y116811D01*
X28166Y116799D01*
X28113Y116776D01*
X28057Y116761D01*
X27984Y116718D01*
X27907Y116683D01*
X27862Y116645D01*
X27812Y116616D01*
X27754Y116554D01*
X27690Y116500D01*
X27658Y116451D01*
X27618Y116408D01*
X27579Y116333D01*
X27532Y116263D01*
X27515Y116207D01*
X27488Y116155D01*
X27477Y116087D01*
X27447Y115992D01*
X27446Y115970D01*
X25770Y111923D01*
X22697Y108850D01*
X18683Y107187D01*
X14337Y107187D01*
G37*
%LPD*%
%LPC*%
G36*
X268337Y5587D02*
X268337Y5587D01*
X264323Y7250D01*
X261250Y10323D01*
X259587Y14337D01*
X259587Y18683D01*
X260838Y21702D01*
X260839Y21704D01*
X260839Y21705D01*
X260873Y21840D01*
X260909Y21978D01*
X260909Y21979D01*
X260909Y21981D01*
X260905Y22121D01*
X260901Y22262D01*
X260900Y22263D01*
X260900Y22265D01*
X260857Y22398D01*
X260814Y22533D01*
X260813Y22534D01*
X260813Y22535D01*
X260804Y22548D01*
X260656Y22769D01*
X260633Y22788D01*
X260618Y22809D01*
X248245Y35182D01*
X248175Y35234D01*
X248111Y35294D01*
X248062Y35320D01*
X248018Y35353D01*
X247936Y35384D01*
X247858Y35424D01*
X247811Y35432D01*
X247752Y35454D01*
X247604Y35466D01*
X247527Y35479D01*
X240319Y35479D01*
X240318Y35479D01*
X240316Y35479D01*
X240176Y35459D01*
X240038Y35439D01*
X240037Y35439D01*
X240035Y35439D01*
X239905Y35380D01*
X239779Y35323D01*
X239777Y35322D01*
X239776Y35321D01*
X239669Y35231D01*
X239562Y35140D01*
X239561Y35138D01*
X239559Y35137D01*
X239552Y35125D01*
X239404Y34903D01*
X239395Y34874D01*
X239382Y34853D01*
X239091Y34151D01*
X237169Y32229D01*
X234659Y31189D01*
X231941Y31189D01*
X229431Y32229D01*
X227509Y34151D01*
X226469Y36661D01*
X226469Y39379D01*
X227509Y41889D01*
X229431Y43811D01*
X231941Y44851D01*
X234659Y44851D01*
X237169Y43811D01*
X239091Y41889D01*
X239382Y41187D01*
X239382Y41186D01*
X239383Y41185D01*
X239452Y41068D01*
X239526Y40943D01*
X239527Y40941D01*
X239528Y40940D01*
X239630Y40845D01*
X239733Y40747D01*
X239734Y40747D01*
X239735Y40746D01*
X239861Y40681D01*
X239985Y40617D01*
X239987Y40617D01*
X239988Y40616D01*
X240003Y40614D01*
X240264Y40562D01*
X240295Y40565D01*
X240319Y40561D01*
X250052Y40561D01*
X251838Y38775D01*
X264211Y26402D01*
X264212Y26401D01*
X264213Y26400D01*
X264328Y26314D01*
X264438Y26231D01*
X264440Y26231D01*
X264441Y26230D01*
X264573Y26180D01*
X264704Y26130D01*
X264706Y26130D01*
X264707Y26129D01*
X264852Y26118D01*
X264987Y26106D01*
X264989Y26107D01*
X264990Y26106D01*
X265006Y26110D01*
X265266Y26162D01*
X265293Y26176D01*
X265318Y26182D01*
X268337Y27433D01*
X272683Y27433D01*
X276697Y25770D01*
X279770Y22697D01*
X281433Y18683D01*
X281433Y14337D01*
X279770Y10323D01*
X276697Y7250D01*
X272683Y5587D01*
X268337Y5587D01*
G37*
%LPD*%
%LPC*%
G36*
X166737Y5587D02*
X166737Y5587D01*
X162723Y7250D01*
X159650Y10323D01*
X157987Y14337D01*
X157987Y18683D01*
X159650Y22697D01*
X162723Y25770D01*
X166737Y27433D01*
X171083Y27433D01*
X175097Y25770D01*
X178170Y22697D01*
X179833Y18683D01*
X179833Y14337D01*
X178170Y10323D01*
X175097Y7250D01*
X171083Y5587D01*
X166737Y5587D01*
G37*
%LPD*%
%LPC*%
G36*
X293737Y5587D02*
X293737Y5587D01*
X289723Y7250D01*
X286650Y10323D01*
X284987Y14337D01*
X284987Y18683D01*
X286650Y22697D01*
X289723Y25770D01*
X293737Y27433D01*
X298083Y27433D01*
X302097Y25770D01*
X305170Y22697D01*
X306833Y18683D01*
X306833Y14337D01*
X305170Y10323D01*
X302097Y7250D01*
X298083Y5587D01*
X293737Y5587D01*
G37*
%LPD*%
%LPC*%
G36*
X115937Y5587D02*
X115937Y5587D01*
X111923Y7250D01*
X108850Y10323D01*
X107187Y14337D01*
X107187Y18683D01*
X108850Y22697D01*
X111923Y25770D01*
X115937Y27433D01*
X120283Y27433D01*
X124297Y25770D01*
X127370Y22697D01*
X129033Y18683D01*
X129033Y14337D01*
X127370Y10323D01*
X124297Y7250D01*
X120283Y5587D01*
X115937Y5587D01*
G37*
%LPD*%
%LPC*%
G36*
X242937Y157987D02*
X242937Y157987D01*
X238923Y159650D01*
X235850Y162723D01*
X234187Y166737D01*
X234187Y171083D01*
X235850Y175097D01*
X238923Y178170D01*
X242937Y179833D01*
X247283Y179833D01*
X251297Y178170D01*
X254370Y175097D01*
X256033Y171083D01*
X256033Y166737D01*
X254370Y162723D01*
X251297Y159650D01*
X247283Y157987D01*
X242937Y157987D01*
G37*
%LPD*%
%LPC*%
G36*
X268337Y157987D02*
X268337Y157987D01*
X264323Y159650D01*
X261250Y162723D01*
X259587Y166737D01*
X259587Y171083D01*
X261250Y175097D01*
X264323Y178170D01*
X268337Y179833D01*
X272683Y179833D01*
X276697Y178170D01*
X279770Y175097D01*
X281433Y171083D01*
X281433Y166737D01*
X279770Y162723D01*
X276697Y159650D01*
X272683Y157987D01*
X268337Y157987D01*
G37*
%LPD*%
%LPC*%
G36*
X39737Y157987D02*
X39737Y157987D01*
X35723Y159650D01*
X32650Y162723D01*
X30987Y166737D01*
X30987Y171083D01*
X32650Y175097D01*
X35723Y178170D01*
X39737Y179833D01*
X44083Y179833D01*
X48097Y178170D01*
X51170Y175097D01*
X52833Y171083D01*
X52833Y166737D01*
X51170Y162723D01*
X48097Y159650D01*
X44083Y157987D01*
X39737Y157987D01*
G37*
%LPD*%
%LPC*%
G36*
X217537Y157987D02*
X217537Y157987D01*
X213523Y159650D01*
X210450Y162723D01*
X208787Y166737D01*
X208787Y171083D01*
X210450Y175097D01*
X213523Y178170D01*
X217537Y179833D01*
X221883Y179833D01*
X225897Y178170D01*
X228970Y175097D01*
X230633Y171083D01*
X230633Y166737D01*
X228970Y162723D01*
X225897Y159650D01*
X221883Y157987D01*
X217537Y157987D01*
G37*
%LPD*%
%LPC*%
G36*
X39737Y5587D02*
X39737Y5587D01*
X35723Y7250D01*
X32650Y10323D01*
X30987Y14337D01*
X30987Y18683D01*
X32650Y22697D01*
X35723Y25770D01*
X39737Y27433D01*
X44083Y27433D01*
X48097Y25770D01*
X51170Y22697D01*
X52833Y18683D01*
X52833Y14337D01*
X51170Y10323D01*
X48097Y7250D01*
X44083Y5587D01*
X39737Y5587D01*
G37*
%LPD*%
%LPC*%
G36*
X14337Y30987D02*
X14337Y30987D01*
X10323Y32650D01*
X7250Y35723D01*
X5587Y39737D01*
X5587Y44083D01*
X7250Y48097D01*
X10323Y51170D01*
X14337Y52833D01*
X18683Y52833D01*
X22697Y51170D01*
X25770Y48097D01*
X27433Y44083D01*
X27433Y39737D01*
X25770Y35723D01*
X22697Y32650D01*
X18683Y30987D01*
X14337Y30987D01*
G37*
%LPD*%
%LPC*%
G36*
X242937Y5587D02*
X242937Y5587D01*
X238923Y7250D01*
X235850Y10323D01*
X234187Y14337D01*
X234187Y18683D01*
X235850Y22697D01*
X238923Y25770D01*
X242937Y27433D01*
X247283Y27433D01*
X251297Y25770D01*
X254370Y22697D01*
X256033Y18683D01*
X256033Y14337D01*
X254370Y10323D01*
X251297Y7250D01*
X247283Y5587D01*
X242937Y5587D01*
G37*
%LPD*%
%LPC*%
G36*
X65137Y5587D02*
X65137Y5587D01*
X61123Y7250D01*
X58050Y10323D01*
X56387Y14337D01*
X56387Y18683D01*
X58050Y22697D01*
X61123Y25770D01*
X65137Y27433D01*
X69483Y27433D01*
X73497Y25770D01*
X76570Y22697D01*
X78233Y18683D01*
X78233Y14337D01*
X76570Y10323D01*
X73497Y7250D01*
X69483Y5587D01*
X65137Y5587D01*
G37*
%LPD*%
%LPC*%
G36*
X90537Y5587D02*
X90537Y5587D01*
X86523Y7250D01*
X83450Y10323D01*
X81787Y14337D01*
X81787Y18683D01*
X83450Y22697D01*
X86523Y25770D01*
X90537Y27433D01*
X94883Y27433D01*
X98897Y25770D01*
X101970Y22697D01*
X103633Y18683D01*
X103633Y14337D01*
X101970Y10323D01*
X98897Y7250D01*
X94883Y5587D01*
X90537Y5587D01*
G37*
%LPD*%
%LPC*%
G36*
X141337Y5587D02*
X141337Y5587D01*
X137323Y7250D01*
X134250Y10323D01*
X132587Y14337D01*
X132587Y18683D01*
X134250Y22697D01*
X137323Y25770D01*
X141337Y27433D01*
X145683Y27433D01*
X149697Y25770D01*
X152770Y22697D01*
X154433Y18683D01*
X154433Y14337D01*
X152770Y10323D01*
X149697Y7250D01*
X145683Y5587D01*
X141337Y5587D01*
G37*
%LPD*%
%LPC*%
G36*
X14337Y132587D02*
X14337Y132587D01*
X10323Y134250D01*
X7250Y137323D01*
X5587Y141337D01*
X5587Y145683D01*
X7250Y149697D01*
X10323Y152770D01*
X14337Y154433D01*
X18683Y154433D01*
X22697Y152770D01*
X25770Y149697D01*
X27433Y145683D01*
X27433Y141337D01*
X25770Y137323D01*
X22697Y134250D01*
X18683Y132587D01*
X14337Y132587D01*
G37*
%LPD*%
%LPC*%
G36*
X378117Y59129D02*
X378117Y59129D01*
X375728Y60119D01*
X373899Y61948D01*
X373048Y64002D01*
X372909Y64337D01*
X372909Y66923D01*
X373048Y67258D01*
X373899Y69312D01*
X375728Y71141D01*
X378117Y72131D01*
X380703Y72131D01*
X383092Y71141D01*
X384921Y69312D01*
X385911Y66923D01*
X385911Y64337D01*
X384921Y61948D01*
X383092Y60119D01*
X380703Y59129D01*
X378117Y59129D01*
G37*
%LPD*%
%LPC*%
G36*
X378117Y103129D02*
X378117Y103129D01*
X375728Y104119D01*
X373899Y105948D01*
X373048Y108002D01*
X372909Y108337D01*
X372909Y110923D01*
X373048Y111258D01*
X373899Y113312D01*
X375728Y115141D01*
X378117Y116131D01*
X380703Y116131D01*
X383092Y115141D01*
X384921Y113312D01*
X385911Y110923D01*
X385911Y108337D01*
X384921Y105948D01*
X383092Y104119D01*
X380703Y103129D01*
X378117Y103129D01*
G37*
%LPD*%
%LPC*%
G36*
X264921Y115061D02*
X264921Y115061D01*
X264921Y123571D01*
X272224Y123571D01*
X272871Y123398D01*
X273450Y123063D01*
X273923Y122590D01*
X274258Y122011D01*
X274431Y121364D01*
X274431Y115061D01*
X264921Y115061D01*
G37*
%LPD*%
%LPC*%
G36*
X264921Y80771D02*
X264921Y80771D01*
X264921Y89281D01*
X272224Y89281D01*
X272871Y89108D01*
X273450Y88773D01*
X273923Y88300D01*
X274258Y87721D01*
X274431Y87074D01*
X274431Y80771D01*
X264921Y80771D01*
G37*
%LPD*%
%LPC*%
G36*
X264921Y76709D02*
X264921Y76709D01*
X274431Y76709D01*
X274431Y70406D01*
X274258Y69759D01*
X273923Y69180D01*
X273450Y68707D01*
X272871Y68372D01*
X272224Y68199D01*
X264921Y68199D01*
X264921Y76709D01*
G37*
%LPD*%
%LPC*%
G36*
X264921Y110999D02*
X264921Y110999D01*
X274431Y110999D01*
X274431Y104696D01*
X274258Y104049D01*
X273923Y103470D01*
X273450Y102997D01*
X272871Y102662D01*
X272224Y102489D01*
X264921Y102489D01*
X264921Y110999D01*
G37*
%LPD*%
%LPC*%
G36*
X251349Y115061D02*
X251349Y115061D01*
X251349Y121364D01*
X251522Y122011D01*
X251857Y122590D01*
X252330Y123063D01*
X252909Y123398D01*
X253556Y123571D01*
X260859Y123571D01*
X260859Y115061D01*
X251349Y115061D01*
G37*
%LPD*%
%LPC*%
G36*
X251349Y80771D02*
X251349Y80771D01*
X251349Y87074D01*
X251522Y87721D01*
X251857Y88300D01*
X252330Y88773D01*
X252909Y89108D01*
X253556Y89281D01*
X260859Y89281D01*
X260859Y80771D01*
X251349Y80771D01*
G37*
%LPD*%
%LPC*%
G36*
X253556Y68199D02*
X253556Y68199D01*
X252909Y68372D01*
X252330Y68707D01*
X251857Y69180D01*
X251522Y69759D01*
X251349Y70406D01*
X251349Y76709D01*
X260859Y76709D01*
X260859Y68199D01*
X253556Y68199D01*
G37*
%LPD*%
%LPC*%
G36*
X253556Y102489D02*
X253556Y102489D01*
X252909Y102662D01*
X252330Y102997D01*
X251857Y103470D01*
X251522Y104049D01*
X251349Y104696D01*
X251349Y110999D01*
X260859Y110999D01*
X260859Y102489D01*
X253556Y102489D01*
G37*
%LPD*%
%LPC*%
G36*
X297941Y170941D02*
X297941Y170941D01*
X297941Y180676D01*
X298706Y180555D01*
X300493Y179974D01*
X302167Y179121D01*
X303688Y178016D01*
X305016Y176688D01*
X306121Y175167D01*
X306974Y173493D01*
X307555Y171706D01*
X307607Y171374D01*
X307644Y171255D01*
X307677Y171133D01*
X307686Y171119D01*
X307691Y171103D01*
X307759Y170997D01*
X307793Y170941D01*
X297941Y170941D01*
G37*
%LPD*%
%LPC*%
G36*
X309423Y170941D02*
X309423Y170941D01*
X309432Y170954D01*
X309506Y171056D01*
X309511Y171071D01*
X309521Y171086D01*
X309610Y171356D01*
X309610Y171365D01*
X309613Y171374D01*
X309665Y171706D01*
X310246Y173493D01*
X311099Y175167D01*
X312204Y176688D01*
X313532Y178016D01*
X315053Y179121D01*
X316727Y179974D01*
X318514Y180555D01*
X319279Y180676D01*
X319279Y170941D01*
X309423Y170941D01*
G37*
%LPD*%
%LPC*%
G36*
X297941Y166879D02*
X297941Y166879D01*
X307797Y166879D01*
X307788Y166865D01*
X307714Y166764D01*
X307709Y166750D01*
X307699Y166734D01*
X307610Y166464D01*
X307610Y166455D01*
X307607Y166446D01*
X307555Y166114D01*
X306974Y164327D01*
X306121Y162653D01*
X305016Y161132D01*
X303688Y159804D01*
X302167Y158699D01*
X300493Y157846D01*
X298706Y157265D01*
X297941Y157144D01*
X297941Y166879D01*
G37*
%LPD*%
%LPC*%
G36*
X318514Y157265D02*
X318514Y157265D01*
X316727Y157846D01*
X315053Y158699D01*
X313532Y159804D01*
X312204Y161132D01*
X311099Y162653D01*
X310246Y164327D01*
X309665Y166114D01*
X309613Y166446D01*
X309576Y166566D01*
X309543Y166687D01*
X309534Y166701D01*
X309529Y166718D01*
X309461Y166823D01*
X309427Y166879D01*
X319279Y166879D01*
X319279Y157144D01*
X318514Y157265D01*
G37*
%LPD*%
%LPC*%
G36*
X323341Y170941D02*
X323341Y170941D01*
X323341Y180676D01*
X324106Y180555D01*
X325893Y179974D01*
X327567Y179121D01*
X329088Y178016D01*
X330416Y176688D01*
X331521Y175167D01*
X332374Y173493D01*
X332955Y171706D01*
X333076Y170941D01*
X323341Y170941D01*
G37*
%LPD*%
%LPC*%
G36*
X18541Y94741D02*
X18541Y94741D01*
X18541Y104476D01*
X19306Y104355D01*
X21093Y103774D01*
X22767Y102921D01*
X24288Y101816D01*
X25616Y100488D01*
X26721Y98967D01*
X27574Y97293D01*
X28155Y95506D01*
X28276Y94741D01*
X18541Y94741D01*
G37*
%LPD*%
%LPC*%
G36*
X284144Y170941D02*
X284144Y170941D01*
X284265Y171706D01*
X284846Y173493D01*
X285699Y175167D01*
X286804Y176688D01*
X288132Y178016D01*
X289653Y179121D01*
X291327Y179974D01*
X293114Y180555D01*
X293879Y180676D01*
X293879Y170941D01*
X284144Y170941D01*
G37*
%LPD*%
%LPC*%
G36*
X182544Y18541D02*
X182544Y18541D01*
X182665Y19306D01*
X183246Y21093D01*
X184099Y22767D01*
X185204Y24288D01*
X186532Y25616D01*
X188053Y26721D01*
X189727Y27574D01*
X191514Y28155D01*
X192279Y28276D01*
X192279Y18541D01*
X182544Y18541D01*
G37*
%LPD*%
%LPC*%
G36*
X323341Y166879D02*
X323341Y166879D01*
X333076Y166879D01*
X332955Y166114D01*
X332374Y164327D01*
X331521Y162653D01*
X330416Y161132D01*
X329088Y159804D01*
X327567Y158699D01*
X325893Y157846D01*
X324106Y157265D01*
X323341Y157144D01*
X323341Y166879D01*
G37*
%LPD*%
%LPC*%
G36*
X4744Y94741D02*
X4744Y94741D01*
X4865Y95506D01*
X5446Y97293D01*
X6299Y98967D01*
X7404Y100488D01*
X8732Y101816D01*
X10253Y102921D01*
X11927Y103774D01*
X13714Y104355D01*
X14479Y104476D01*
X14479Y94741D01*
X4744Y94741D01*
G37*
%LPD*%
%LPC*%
G36*
X18541Y90679D02*
X18541Y90679D01*
X28276Y90679D01*
X28155Y89914D01*
X27574Y88127D01*
X26721Y86453D01*
X25616Y84932D01*
X24288Y83604D01*
X22767Y82499D01*
X21093Y81646D01*
X19306Y81065D01*
X18541Y80944D01*
X18541Y90679D01*
G37*
%LPD*%
%LPC*%
G36*
X196341Y14479D02*
X196341Y14479D01*
X206076Y14479D01*
X205955Y13714D01*
X205374Y11927D01*
X204521Y10253D01*
X203416Y8732D01*
X202088Y7404D01*
X200567Y6299D01*
X198893Y5446D01*
X197106Y4865D01*
X196341Y4744D01*
X196341Y14479D01*
G37*
%LPD*%
%LPC*%
G36*
X191514Y4865D02*
X191514Y4865D01*
X189727Y5446D01*
X188053Y6299D01*
X186532Y7404D01*
X185204Y8732D01*
X184099Y10253D01*
X183246Y11927D01*
X182665Y13714D01*
X182544Y14479D01*
X192279Y14479D01*
X192279Y4744D01*
X191514Y4865D01*
G37*
%LPD*%
%LPC*%
G36*
X293114Y157265D02*
X293114Y157265D01*
X291327Y157846D01*
X289653Y158699D01*
X288132Y159804D01*
X286804Y161132D01*
X285699Y162653D01*
X284846Y164327D01*
X284265Y166114D01*
X284144Y166879D01*
X293879Y166879D01*
X293879Y157144D01*
X293114Y157265D01*
G37*
%LPD*%
%LPC*%
G36*
X13714Y81065D02*
X13714Y81065D01*
X11927Y81646D01*
X10253Y82499D01*
X8732Y83604D01*
X7404Y84932D01*
X6299Y86453D01*
X5446Y88127D01*
X4865Y89914D01*
X4744Y90679D01*
X14479Y90679D01*
X14479Y80944D01*
X13714Y81065D01*
G37*
%LPD*%
%LPC*%
G36*
X174091Y109411D02*
X174091Y109411D01*
X174091Y117421D01*
X178894Y117421D01*
X179541Y117248D01*
X180120Y116913D01*
X180593Y116440D01*
X180928Y115861D01*
X181101Y115214D01*
X181101Y109411D01*
X174091Y109411D01*
G37*
%LPD*%
%LPC*%
G36*
X174091Y97339D02*
X174091Y97339D01*
X174091Y105349D01*
X181101Y105349D01*
X181101Y99546D01*
X180928Y98899D01*
X180593Y98320D01*
X180120Y97847D01*
X179541Y97512D01*
X178894Y97339D01*
X174091Y97339D01*
G37*
%LPD*%
%LPC*%
G36*
X198881Y99569D02*
X198881Y99569D01*
X198881Y106579D01*
X206891Y106579D01*
X206891Y101776D01*
X206718Y101129D01*
X206383Y100550D01*
X205910Y100077D01*
X205331Y99742D01*
X204684Y99569D01*
X198881Y99569D01*
G37*
%LPD*%
%LPC*%
G36*
X366269Y165861D02*
X366269Y165861D01*
X366269Y171664D01*
X366442Y172311D01*
X366777Y172890D01*
X367250Y173363D01*
X367829Y173698D01*
X368476Y173871D01*
X373279Y173871D01*
X373279Y165861D01*
X366269Y165861D01*
G37*
%LPD*%
%LPC*%
G36*
X368476Y153789D02*
X368476Y153789D01*
X367829Y153962D01*
X367250Y154297D01*
X366777Y154770D01*
X366442Y155349D01*
X366269Y155996D01*
X366269Y161799D01*
X373279Y161799D01*
X373279Y153789D01*
X368476Y153789D01*
G37*
%LPD*%
%LPC*%
G36*
X189016Y99569D02*
X189016Y99569D01*
X188369Y99742D01*
X187790Y100077D01*
X187317Y100550D01*
X186982Y101129D01*
X186809Y101776D01*
X186809Y106579D01*
X194819Y106579D01*
X194819Y99569D01*
X189016Y99569D01*
G37*
%LPD*%
%LPC*%
G36*
X300141Y89661D02*
X300141Y89661D01*
X300141Y94671D01*
X307944Y94671D01*
X308591Y94498D01*
X309170Y94163D01*
X309643Y93690D01*
X309978Y93111D01*
X310151Y92464D01*
X310151Y89661D01*
X300141Y89661D01*
G37*
%LPD*%
%LPC*%
G36*
X286069Y89661D02*
X286069Y89661D01*
X286069Y92464D01*
X286242Y93111D01*
X286577Y93690D01*
X287050Y94163D01*
X287629Y94498D01*
X288276Y94671D01*
X296079Y94671D01*
X296079Y89661D01*
X286069Y89661D01*
G37*
%LPD*%
%LPC*%
G36*
X300141Y80589D02*
X300141Y80589D01*
X300141Y85599D01*
X310151Y85599D01*
X310151Y82796D01*
X309978Y82149D01*
X309643Y81570D01*
X309170Y81097D01*
X308591Y80762D01*
X307944Y80589D01*
X300141Y80589D01*
G37*
%LPD*%
%LPC*%
G36*
X288276Y80589D02*
X288276Y80589D01*
X287629Y80762D01*
X287050Y81097D01*
X286577Y81570D01*
X286242Y82149D01*
X286069Y82796D01*
X286069Y85599D01*
X296079Y85599D01*
X296079Y80589D01*
X288276Y80589D01*
G37*
%LPD*%
%LPC*%
G36*
X16509Y92709D02*
X16509Y92709D01*
X16509Y92711D01*
X16511Y92711D01*
X16511Y92709D01*
X16509Y92709D01*
G37*
%LPD*%
%LPC*%
G36*
X321309Y168909D02*
X321309Y168909D01*
X321309Y168911D01*
X321311Y168911D01*
X321311Y168909D01*
X321309Y168909D01*
G37*
%LPD*%
%LPC*%
G36*
X295909Y168909D02*
X295909Y168909D01*
X295909Y168911D01*
X295911Y168911D01*
X295911Y168909D01*
X295909Y168909D01*
G37*
%LPD*%
%LPC*%
G36*
X194309Y16509D02*
X194309Y16509D01*
X194309Y16511D01*
X194311Y16511D01*
X194311Y16509D01*
X194309Y16509D01*
G37*
%LPD*%
%LPC*%
G36*
X298109Y87629D02*
X298109Y87629D01*
X298109Y87631D01*
X298111Y87631D01*
X298111Y87629D01*
X298109Y87629D01*
G37*
%LPD*%
%LPC*%
G36*
X262889Y113029D02*
X262889Y113029D01*
X262889Y113031D01*
X262891Y113031D01*
X262891Y113029D01*
X262889Y113029D01*
G37*
%LPD*%
%LPC*%
G36*
X262889Y78739D02*
X262889Y78739D01*
X262889Y78741D01*
X262891Y78741D01*
X262891Y78739D01*
X262889Y78739D01*
G37*
%LPD*%
D10*
X298110Y64630D03*
X298110Y87630D03*
X298110Y110630D03*
D11*
X359110Y87630D03*
D12*
X262890Y141030D03*
X262890Y113030D03*
X262890Y50740D03*
X262890Y78740D03*
D13*
X16510Y143510D03*
X16510Y118110D03*
X16510Y92710D03*
X16510Y67310D03*
X16510Y41910D03*
X41910Y168910D03*
X67310Y168910D03*
X92710Y168910D03*
X118110Y168910D03*
X143510Y168910D03*
X168910Y168910D03*
X194310Y168910D03*
X219710Y168910D03*
X245110Y168910D03*
X270510Y168910D03*
X270510Y16510D03*
X245110Y16510D03*
X219710Y16510D03*
X194310Y16510D03*
X168910Y16510D03*
X143510Y16510D03*
X118110Y16510D03*
X92710Y16510D03*
X67310Y16510D03*
X41910Y16510D03*
X295910Y16510D03*
X321310Y16510D03*
X295910Y168910D03*
X321310Y168910D03*
D14*
X196850Y127610D03*
X196850Y108610D03*
D15*
X172060Y131380D03*
X172060Y107380D03*
X153060Y107380D03*
X153060Y131380D03*
X375310Y163830D03*
X394310Y163830D03*
D16*
X298110Y87630D02*
X295570Y87630D01*
X359110Y87630D02*
X383220Y87630D01*
D17*
X383220Y87630D03*
X281620Y100330D03*
D16*
X294320Y87630D02*
X298110Y87630D01*
X294320Y87630D02*
X281620Y100330D01*
D17*
X80010Y67310D03*
X156210Y91440D03*
D18*
X132080Y67310D01*
X80010Y67310D01*
D16*
X295910Y168910D02*
X321310Y168910D01*
D17*
X215999Y62230D03*
X397510Y87630D03*
X397510Y113030D03*
X410210Y100330D03*
X422910Y87630D03*
X422910Y113030D03*
X422910Y62230D03*
X410210Y74930D03*
X397510Y62230D03*
X384810Y36830D03*
D16*
X390840Y113030D02*
X397510Y113030D01*
X390840Y113030D02*
X334960Y168910D01*
X397510Y49530D02*
X384810Y36830D01*
X397510Y49530D02*
X397510Y62230D01*
X397510Y87630D02*
X383220Y87630D01*
X397510Y113030D02*
X410210Y100330D01*
X422910Y113030D01*
X410210Y100330D02*
X422910Y87630D01*
X410210Y100330D02*
X397510Y87630D01*
X410210Y74930D01*
X422910Y87630D01*
X410210Y74930D02*
X422910Y62230D01*
X410210Y74930D02*
X397510Y62230D01*
X334960Y168910D02*
X321310Y168910D01*
D19*
X172060Y107290D02*
X156210Y91440D01*
X172060Y107290D02*
X172060Y107380D01*
X195620Y107380D01*
X196850Y108610D01*
D17*
X105410Y123190D03*
D19*
X375310Y163830D02*
X375310Y172060D01*
X370840Y176530D01*
X328930Y176530D01*
X321310Y168910D01*
D16*
X281620Y100330D02*
X281620Y97790D01*
X262890Y79060D01*
X262890Y78740D01*
X281620Y100330D02*
X268920Y113030D01*
X262890Y113030D01*
X215999Y62230D02*
X185420Y62230D01*
X156210Y91440D01*
X228699Y62230D02*
X245209Y78740D01*
X228699Y62230D02*
X215999Y62230D01*
X245209Y78740D02*
X262890Y78740D01*
D19*
X92710Y168910D02*
X88900Y168910D01*
X39370Y119380D01*
X17780Y119380D01*
X16510Y118110D01*
D17*
X162560Y64770D03*
D19*
X166743Y64770D02*
X215003Y16510D01*
X166743Y64770D02*
X162560Y64770D01*
X215003Y16510D02*
X219710Y16510D01*
X162560Y64770D02*
X139474Y41684D01*
X42136Y41684D01*
X16510Y67310D01*
D17*
X332290Y45530D03*
D16*
X298110Y53680D02*
X298110Y64630D01*
X306260Y45530D02*
X332290Y45530D01*
X306260Y45530D02*
X298110Y53680D01*
X332290Y45530D02*
X332290Y27490D01*
X321310Y16510D01*
X298110Y64630D02*
X291760Y64630D01*
X277870Y50740D01*
X262890Y50740D01*
D17*
X71120Y116840D03*
D18*
X73660Y114300D02*
X95250Y114300D01*
X73660Y114300D02*
X71120Y116840D01*
D17*
X320040Y55880D03*
D16*
X320040Y98860D02*
X308270Y110630D01*
X320040Y98860D02*
X320040Y55880D01*
X298110Y110630D02*
X298110Y118450D01*
X275530Y141030D01*
X298110Y110630D02*
X304800Y110630D01*
X308270Y110630D01*
D19*
X153650Y130790D02*
X153060Y131380D01*
D18*
X153650Y130790D02*
X121920Y99060D01*
X110490Y99060D01*
X95250Y114300D01*
D19*
X153060Y131380D02*
X172060Y131380D01*
X193080Y131380D01*
X196850Y127610D01*
D17*
X36830Y80010D03*
D18*
X36830Y82550D02*
X71120Y116840D01*
X36830Y82550D02*
X36830Y80010D01*
D17*
X331470Y139700D03*
D19*
X304800Y113030D01*
X304800Y110630D01*
D16*
X275530Y141030D02*
X262890Y141030D01*
D19*
X215900Y134620D02*
X215900Y74930D01*
D17*
X215900Y74930D03*
D19*
X215900Y134620D02*
X194310Y156210D01*
X123190Y156210D01*
X118110Y161290D01*
X118110Y168910D01*
D17*
X142240Y91440D03*
D19*
X142240Y104140D01*
X145480Y107380D01*
X153060Y107380D01*
D17*
X233300Y38020D03*
D19*
X249000Y38020D02*
X270510Y16510D01*
X249000Y38020D02*
X233300Y38020D01*
D17*
X403860Y177800D03*
D19*
X397510Y177800D01*
X394310Y174600D01*
X394310Y163830D01*
M02*
