G04 EAGLE Gerber RS-274X export*
G75*
%MOMM*%
%FSLAX34Y34*%
%LPD*%
%INTop Copper*%
%IPPOS*%
%AMOC8*
5,1,8,0,0,1.08239X$1,22.5*%
G01*
%ADD10R,0.400000X1.000000*%
%ADD11R,1.500000X1.300000*%
%ADD12R,1.600000X2.300000*%
%ADD13R,1.300000X1.500000*%
%ADD14R,1.200000X1.200000*%
%ADD15R,2.500000X0.500000*%
%ADD16R,2.500000X2.000000*%
%ADD17R,0.400000X1.499997*%
%ADD18R,0.635000X1.270000*%
%ADD19C,1.879600*%
%ADD20R,2.300000X1.600000*%
%ADD21C,0.406400*%
%ADD22C,0.858000*%
%ADD23C,0.203200*%
%ADD24C,0.254000*%

G36*
X435026Y2003D02*
X435026Y2003D01*
X435044Y2001D01*
X435226Y2022D01*
X435409Y2041D01*
X435426Y2046D01*
X435443Y2048D01*
X435618Y2105D01*
X435794Y2159D01*
X435809Y2167D01*
X435826Y2173D01*
X435986Y2263D01*
X436148Y2351D01*
X436161Y2362D01*
X436177Y2371D01*
X436316Y2491D01*
X436457Y2608D01*
X436468Y2622D01*
X436482Y2634D01*
X436594Y2779D01*
X436709Y2922D01*
X436717Y2938D01*
X436728Y2952D01*
X436810Y3117D01*
X436895Y3279D01*
X436900Y3296D01*
X436908Y3312D01*
X436955Y3491D01*
X437006Y3666D01*
X437008Y3684D01*
X437012Y3701D01*
X437039Y4032D01*
X437039Y181998D01*
X437037Y182016D01*
X437039Y182034D01*
X437018Y182216D01*
X436999Y182399D01*
X436994Y182416D01*
X436992Y182433D01*
X436935Y182608D01*
X436881Y182784D01*
X436873Y182799D01*
X436867Y182816D01*
X436777Y182976D01*
X436689Y183138D01*
X436678Y183151D01*
X436669Y183167D01*
X436549Y183306D01*
X436432Y183447D01*
X436418Y183458D01*
X436406Y183472D01*
X436261Y183584D01*
X436118Y183699D01*
X436102Y183707D01*
X436088Y183718D01*
X435923Y183800D01*
X435761Y183885D01*
X435744Y183890D01*
X435728Y183898D01*
X435549Y183945D01*
X435374Y183996D01*
X435356Y183998D01*
X435339Y184002D01*
X435008Y184029D01*
X412228Y184029D01*
X412219Y184028D01*
X412210Y184029D01*
X412018Y184008D01*
X411827Y183989D01*
X411819Y183987D01*
X411810Y183986D01*
X411627Y183928D01*
X411442Y183871D01*
X411434Y183867D01*
X411426Y183864D01*
X411257Y183771D01*
X411088Y183679D01*
X411081Y183674D01*
X411073Y183669D01*
X410926Y183544D01*
X410779Y183422D01*
X410773Y183415D01*
X410766Y183409D01*
X410647Y183257D01*
X410527Y183108D01*
X410522Y183100D01*
X410517Y183093D01*
X410430Y182921D01*
X410341Y182751D01*
X410339Y182742D01*
X410335Y182734D01*
X410283Y182548D01*
X410230Y182364D01*
X410229Y182355D01*
X410227Y182346D01*
X410212Y182154D01*
X410197Y181962D01*
X410198Y181954D01*
X410197Y181945D01*
X410222Y181752D01*
X410244Y181563D01*
X410246Y181554D01*
X410248Y181545D01*
X410309Y181362D01*
X410369Y181180D01*
X410373Y181172D01*
X410376Y181164D01*
X410471Y180998D01*
X410566Y180829D01*
X410572Y180822D01*
X410577Y180815D01*
X410791Y180562D01*
X413096Y178257D01*
X416349Y175004D01*
X416351Y174985D01*
X416356Y174968D01*
X416358Y174951D01*
X416415Y174776D01*
X416469Y174600D01*
X416477Y174585D01*
X416483Y174568D01*
X416573Y174408D01*
X416661Y174246D01*
X416672Y174233D01*
X416681Y174217D01*
X416801Y174078D01*
X416918Y173937D01*
X416932Y173926D01*
X416944Y173912D01*
X417089Y173800D01*
X417232Y173685D01*
X417248Y173677D01*
X417262Y173666D01*
X417427Y173584D01*
X417589Y173499D01*
X417606Y173494D01*
X417622Y173486D01*
X417801Y173439D01*
X417976Y173388D01*
X417994Y173386D01*
X418011Y173382D01*
X418342Y173355D01*
X425902Y173355D01*
X426795Y172462D01*
X426795Y155198D01*
X425902Y154305D01*
X407660Y154305D01*
X407633Y154303D01*
X407606Y154305D01*
X407433Y154283D01*
X407259Y154265D01*
X407234Y154258D01*
X407207Y154254D01*
X407042Y154199D01*
X406874Y154147D01*
X406851Y154134D01*
X406825Y154126D01*
X406674Y154039D01*
X406520Y153955D01*
X406500Y153938D01*
X406476Y153925D01*
X406223Y153710D01*
X400135Y147622D01*
X400130Y147615D01*
X400123Y147610D01*
X400003Y147460D01*
X399880Y147311D01*
X399876Y147303D01*
X399871Y147296D01*
X399782Y147126D01*
X399692Y146955D01*
X399689Y146946D01*
X399685Y146939D01*
X399632Y146754D01*
X399577Y146569D01*
X399576Y146560D01*
X399574Y146552D01*
X399558Y146360D01*
X399541Y146168D01*
X399542Y146159D01*
X399541Y146150D01*
X399563Y145961D01*
X399584Y145768D01*
X399587Y145759D01*
X399588Y145751D01*
X399647Y145569D01*
X399705Y145384D01*
X399710Y145376D01*
X399713Y145368D01*
X399808Y145199D01*
X399900Y145032D01*
X399906Y145025D01*
X399910Y145017D01*
X400036Y144871D01*
X400161Y144725D01*
X400168Y144719D01*
X400174Y144712D01*
X400325Y144595D01*
X400477Y144475D01*
X400485Y144471D01*
X400492Y144466D01*
X400664Y144380D01*
X400836Y144293D01*
X400844Y144290D01*
X400852Y144286D01*
X401039Y144236D01*
X401224Y144185D01*
X401232Y144184D01*
X401241Y144182D01*
X401572Y144155D01*
X422542Y144155D01*
X423435Y143262D01*
X423435Y121998D01*
X422542Y121105D01*
X396278Y121105D01*
X395385Y121998D01*
X395385Y137968D01*
X395384Y137977D01*
X395385Y137986D01*
X395364Y138179D01*
X395345Y138369D01*
X395343Y138377D01*
X395342Y138386D01*
X395284Y138570D01*
X395227Y138754D01*
X395223Y138762D01*
X395220Y138770D01*
X395128Y138938D01*
X395035Y139108D01*
X395030Y139115D01*
X395025Y139122D01*
X394901Y139270D01*
X394778Y139417D01*
X394771Y139423D01*
X394765Y139429D01*
X394613Y139549D01*
X394464Y139669D01*
X394456Y139674D01*
X394449Y139679D01*
X394276Y139767D01*
X394107Y139855D01*
X394098Y139857D01*
X394090Y139861D01*
X393904Y139913D01*
X393720Y139966D01*
X393711Y139967D01*
X393702Y139969D01*
X393509Y139984D01*
X393318Y139999D01*
X393310Y139998D01*
X393301Y139999D01*
X393108Y139975D01*
X392919Y139952D01*
X392910Y139950D01*
X392901Y139948D01*
X392718Y139887D01*
X392536Y139827D01*
X392528Y139823D01*
X392520Y139820D01*
X392353Y139724D01*
X392185Y139630D01*
X392178Y139624D01*
X392171Y139619D01*
X391918Y139405D01*
X379056Y126543D01*
X379039Y126522D01*
X379018Y126504D01*
X378911Y126366D01*
X378801Y126231D01*
X378788Y126207D01*
X378772Y126186D01*
X378693Y126029D01*
X378612Y125875D01*
X378604Y125850D01*
X378592Y125826D01*
X378547Y125656D01*
X378497Y125489D01*
X378495Y125463D01*
X378488Y125437D01*
X378461Y125106D01*
X378461Y122138D01*
X375670Y119347D01*
X375667Y119344D01*
X375664Y119341D01*
X375537Y119184D01*
X375415Y119036D01*
X375413Y119032D01*
X375410Y119028D01*
X375317Y118850D01*
X375227Y118680D01*
X375225Y118676D01*
X375223Y118672D01*
X375168Y118483D01*
X375112Y118294D01*
X375111Y118290D01*
X375110Y118285D01*
X375093Y118092D01*
X375075Y117893D01*
X375076Y117889D01*
X375076Y117884D01*
X375097Y117694D01*
X375119Y117493D01*
X375120Y117488D01*
X375121Y117484D01*
X375179Y117301D01*
X375240Y117109D01*
X375243Y117105D01*
X375244Y117101D01*
X375342Y116926D01*
X375435Y116757D01*
X375438Y116753D01*
X375440Y116749D01*
X375570Y116598D01*
X375696Y116450D01*
X375699Y116447D01*
X375702Y116443D01*
X375858Y116322D01*
X376012Y116200D01*
X376016Y116198D01*
X376019Y116195D01*
X376196Y116106D01*
X376371Y116018D01*
X376375Y116016D01*
X376379Y116014D01*
X376568Y115963D01*
X376758Y115910D01*
X376763Y115909D01*
X376767Y115908D01*
X376959Y115895D01*
X377160Y115880D01*
X377165Y115881D01*
X377169Y115881D01*
X377361Y115906D01*
X377559Y115931D01*
X377564Y115932D01*
X377568Y115933D01*
X377884Y116034D01*
X378117Y116131D01*
X380703Y116131D01*
X383092Y115141D01*
X384921Y113312D01*
X385911Y110923D01*
X385911Y108337D01*
X384921Y105948D01*
X383092Y104119D01*
X380703Y103129D01*
X378117Y103129D01*
X375728Y104119D01*
X373899Y105948D01*
X373359Y107252D01*
X373357Y107256D01*
X373355Y107260D01*
X373262Y107433D01*
X373168Y107607D01*
X373166Y107611D01*
X373163Y107614D01*
X373039Y107763D01*
X372912Y107917D01*
X372909Y107920D01*
X372906Y107924D01*
X372753Y108046D01*
X372599Y108171D01*
X372595Y108173D01*
X372592Y108176D01*
X372419Y108266D01*
X372243Y108358D01*
X372239Y108359D01*
X372235Y108361D01*
X372047Y108415D01*
X371856Y108471D01*
X371852Y108472D01*
X371848Y108473D01*
X371650Y108489D01*
X371455Y108506D01*
X371451Y108505D01*
X371446Y108506D01*
X371252Y108483D01*
X371055Y108461D01*
X371051Y108459D01*
X371047Y108459D01*
X370861Y108398D01*
X370672Y108338D01*
X370668Y108335D01*
X370664Y108334D01*
X370492Y108237D01*
X370320Y108141D01*
X370317Y108138D01*
X370313Y108136D01*
X370165Y108008D01*
X370015Y107879D01*
X370012Y107876D01*
X370008Y107873D01*
X369887Y107716D01*
X369766Y107562D01*
X369764Y107558D01*
X369762Y107555D01*
X369673Y107377D01*
X369586Y107203D01*
X369584Y107198D01*
X369582Y107194D01*
X369531Y107002D01*
X369479Y106814D01*
X369479Y106810D01*
X369478Y106806D01*
X369451Y106475D01*
X369451Y105661D01*
X354410Y105661D01*
X339369Y105661D01*
X339369Y106465D01*
X339542Y107111D01*
X339877Y107690D01*
X340350Y108163D01*
X340980Y108527D01*
X341104Y108566D01*
X341152Y108593D01*
X341204Y108612D01*
X341328Y108690D01*
X341456Y108761D01*
X341498Y108797D01*
X341545Y108826D01*
X341651Y108927D01*
X341763Y109021D01*
X341797Y109065D01*
X341838Y109103D01*
X341922Y109222D01*
X342013Y109337D01*
X342038Y109387D01*
X342070Y109432D01*
X342129Y109566D01*
X342195Y109696D01*
X342210Y109750D01*
X342232Y109800D01*
X342264Y109943D01*
X342303Y110084D01*
X342307Y110139D01*
X342319Y110193D01*
X342322Y110340D01*
X342332Y110486D01*
X342325Y110541D01*
X342327Y110596D01*
X342300Y110740D01*
X342282Y110885D01*
X342264Y110938D01*
X342254Y110992D01*
X342200Y111128D01*
X342154Y111267D01*
X342126Y111315D01*
X342106Y111366D01*
X342026Y111488D01*
X341953Y111616D01*
X341912Y111664D01*
X341886Y111704D01*
X341828Y111763D01*
X341738Y111869D01*
X339765Y113842D01*
X339764Y113843D01*
X309423Y144184D01*
X309402Y144201D01*
X309384Y144222D01*
X309246Y144329D01*
X309111Y144439D01*
X309087Y144452D01*
X309066Y144468D01*
X308909Y144546D01*
X308755Y144628D01*
X308730Y144636D01*
X308706Y144648D01*
X308536Y144693D01*
X308369Y144743D01*
X308343Y144745D01*
X308317Y144752D01*
X307986Y144779D01*
X262498Y144779D01*
X262471Y144777D01*
X262444Y144779D01*
X262271Y144757D01*
X262097Y144739D01*
X262072Y144732D01*
X262045Y144728D01*
X261879Y144673D01*
X261712Y144621D01*
X261689Y144608D01*
X261663Y144600D01*
X261512Y144513D01*
X261358Y144429D01*
X261338Y144412D01*
X261314Y144399D01*
X261061Y144184D01*
X241769Y124892D01*
X241752Y124871D01*
X241731Y124853D01*
X241624Y124715D01*
X241514Y124580D01*
X241501Y124556D01*
X241485Y124535D01*
X241407Y124378D01*
X241325Y124224D01*
X241317Y124199D01*
X241305Y124175D01*
X241260Y124005D01*
X241210Y123838D01*
X241208Y123812D01*
X241201Y123786D01*
X241174Y123455D01*
X241174Y113792D01*
X241176Y113774D01*
X241174Y113756D01*
X241195Y113574D01*
X241214Y113391D01*
X241219Y113374D01*
X241221Y113357D01*
X241278Y113182D01*
X241332Y113006D01*
X241340Y112991D01*
X241346Y112974D01*
X241436Y112814D01*
X241524Y112652D01*
X241535Y112639D01*
X241544Y112623D01*
X241664Y112484D01*
X241781Y112343D01*
X241795Y112332D01*
X241807Y112318D01*
X241952Y112206D01*
X242095Y112091D01*
X242111Y112083D01*
X242125Y112072D01*
X242290Y111990D01*
X242452Y111905D01*
X242469Y111900D01*
X242485Y111892D01*
X242664Y111845D01*
X242839Y111794D01*
X242857Y111792D01*
X242874Y111788D01*
X243205Y111761D01*
X246176Y111761D01*
X263588Y94350D01*
X263608Y94333D01*
X263626Y94312D01*
X263764Y94205D01*
X263899Y94095D01*
X263923Y94082D01*
X263944Y94066D01*
X264101Y93988D01*
X264255Y93906D01*
X264280Y93898D01*
X264304Y93886D01*
X264474Y93841D01*
X264641Y93791D01*
X264667Y93789D01*
X264693Y93782D01*
X265024Y93755D01*
X291788Y93755D01*
X303051Y82492D01*
X303051Y77666D01*
X303053Y77639D01*
X303051Y77612D01*
X303073Y77438D01*
X303091Y77265D01*
X303098Y77240D01*
X303102Y77213D01*
X303157Y77047D01*
X303209Y76880D01*
X303222Y76857D01*
X303230Y76831D01*
X303317Y76680D01*
X303400Y76526D01*
X303418Y76506D01*
X303431Y76482D01*
X303646Y76229D01*
X304074Y75801D01*
X304087Y75790D01*
X304099Y75776D01*
X304243Y75663D01*
X304385Y75546D01*
X304401Y75538D01*
X304415Y75527D01*
X304579Y75443D01*
X304741Y75358D01*
X304758Y75353D01*
X304774Y75344D01*
X304951Y75295D01*
X305127Y75243D01*
X305145Y75241D01*
X305162Y75236D01*
X305345Y75223D01*
X305528Y75206D01*
X305545Y75208D01*
X305563Y75207D01*
X305745Y75230D01*
X305928Y75250D01*
X305945Y75255D01*
X305963Y75258D01*
X306136Y75316D01*
X306312Y75371D01*
X306328Y75380D01*
X306344Y75386D01*
X306504Y75478D01*
X306664Y75566D01*
X306678Y75578D01*
X306693Y75587D01*
X306946Y75801D01*
X307878Y76733D01*
X313142Y76733D01*
X314035Y75840D01*
X314035Y73297D01*
X314036Y73279D01*
X314035Y73261D01*
X314056Y73079D01*
X314075Y72896D01*
X314080Y72879D01*
X314082Y72861D01*
X314139Y72687D01*
X314193Y72511D01*
X314201Y72496D01*
X314207Y72479D01*
X314297Y72318D01*
X314384Y72157D01*
X314396Y72144D01*
X314405Y72128D01*
X314525Y71989D01*
X314642Y71848D01*
X314656Y71837D01*
X314668Y71823D01*
X314813Y71711D01*
X314956Y71596D01*
X314972Y71587D01*
X314986Y71576D01*
X315151Y71494D01*
X315313Y71410D01*
X315330Y71405D01*
X315346Y71397D01*
X315525Y71349D01*
X315700Y71299D01*
X315718Y71297D01*
X315735Y71293D01*
X316066Y71266D01*
X318574Y71266D01*
X323597Y66243D01*
X323597Y62825D01*
X323599Y62798D01*
X323597Y62771D01*
X323619Y62598D01*
X323637Y62424D01*
X323644Y62399D01*
X323648Y62372D01*
X323704Y62206D01*
X323755Y62039D01*
X323767Y62016D01*
X323776Y61990D01*
X323863Y61839D01*
X323947Y61685D01*
X323964Y61665D01*
X323977Y61641D01*
X324192Y61388D01*
X325266Y60314D01*
X325273Y60309D01*
X325278Y60302D01*
X325427Y60182D01*
X325577Y60059D01*
X325585Y60055D01*
X325592Y60050D01*
X325762Y59961D01*
X325933Y59871D01*
X325942Y59868D01*
X325949Y59864D01*
X326134Y59811D01*
X326319Y59756D01*
X326328Y59755D01*
X326336Y59753D01*
X326527Y59737D01*
X326720Y59720D01*
X326729Y59720D01*
X326738Y59720D01*
X326927Y59742D01*
X327120Y59763D01*
X327129Y59766D01*
X327137Y59767D01*
X327320Y59826D01*
X327504Y59884D01*
X327512Y59889D01*
X327520Y59892D01*
X327687Y59986D01*
X327856Y60079D01*
X327863Y60085D01*
X327871Y60089D01*
X328016Y60215D01*
X328163Y60340D01*
X328169Y60347D01*
X328176Y60353D01*
X328292Y60503D01*
X328413Y60656D01*
X328417Y60664D01*
X328422Y60671D01*
X328508Y60843D01*
X328595Y61015D01*
X328598Y61023D01*
X328602Y61031D01*
X328651Y61217D01*
X328703Y61402D01*
X328704Y61411D01*
X328706Y61420D01*
X328733Y61751D01*
X328733Y64843D01*
X338701Y74811D01*
X338712Y74825D01*
X338726Y74836D01*
X338840Y74981D01*
X338956Y75122D01*
X338964Y75138D01*
X338975Y75152D01*
X339059Y75316D01*
X339145Y75478D01*
X339150Y75495D01*
X339158Y75511D01*
X339207Y75688D01*
X339259Y75864D01*
X339261Y75882D01*
X339266Y75899D01*
X339279Y76082D01*
X339296Y76265D01*
X339294Y76283D01*
X339295Y76301D01*
X339272Y76482D01*
X339252Y76665D01*
X339247Y76682D01*
X339245Y76700D01*
X339186Y76874D01*
X339131Y77049D01*
X339122Y77065D01*
X339117Y77082D01*
X339025Y77240D01*
X338936Y77401D01*
X338924Y77415D01*
X338916Y77430D01*
X338701Y77683D01*
X337212Y79172D01*
X337212Y79173D01*
X316675Y99710D01*
X316654Y99727D01*
X316637Y99747D01*
X316499Y99854D01*
X316363Y99965D01*
X316340Y99977D01*
X316318Y99994D01*
X316162Y100072D01*
X316008Y100153D01*
X315982Y100161D01*
X315958Y100173D01*
X315789Y100218D01*
X315622Y100268D01*
X315595Y100270D01*
X315569Y100277D01*
X315238Y100305D01*
X308824Y100305D01*
X301036Y108092D01*
X301016Y108109D01*
X300998Y108129D01*
X300860Y108236D01*
X300725Y108347D01*
X300701Y108359D01*
X300680Y108376D01*
X300523Y108454D01*
X300369Y108535D01*
X300344Y108543D01*
X300320Y108555D01*
X300150Y108600D01*
X299983Y108650D01*
X299957Y108652D01*
X299931Y108659D01*
X299600Y108687D01*
X297878Y108687D01*
X297446Y109119D01*
X297382Y109171D01*
X297325Y109230D01*
X297227Y109299D01*
X297134Y109374D01*
X297062Y109413D01*
X296994Y109460D01*
X296884Y109507D01*
X296779Y109563D01*
X296700Y109586D01*
X296624Y109619D01*
X296507Y109644D01*
X296393Y109678D01*
X296311Y109685D01*
X296230Y109702D01*
X296111Y109703D01*
X295992Y109714D01*
X295910Y109705D01*
X295828Y109706D01*
X295711Y109684D01*
X295591Y109671D01*
X295513Y109646D01*
X295432Y109630D01*
X295322Y109585D01*
X295208Y109549D01*
X295136Y109509D01*
X295060Y109478D01*
X294960Y109412D01*
X294855Y109354D01*
X294793Y109301D01*
X294724Y109256D01*
X294639Y109171D01*
X294548Y109094D01*
X294497Y109029D01*
X294439Y108971D01*
X294352Y108846D01*
X294299Y108778D01*
X294280Y108742D01*
X294275Y108736D01*
X294273Y108731D01*
X294250Y108698D01*
X294223Y108651D01*
X293750Y108178D01*
X293171Y107844D01*
X292525Y107671D01*
X292221Y107671D01*
X292221Y117711D01*
X292221Y117712D01*
X292221Y127752D01*
X292525Y127752D01*
X293171Y127579D01*
X293750Y127244D01*
X294223Y126771D01*
X294250Y126724D01*
X294298Y126657D01*
X294338Y126585D01*
X294415Y126494D01*
X294485Y126397D01*
X294545Y126341D01*
X294598Y126278D01*
X294692Y126204D01*
X294780Y126123D01*
X294850Y126080D01*
X294914Y126029D01*
X295021Y125975D01*
X295123Y125912D01*
X295200Y125884D01*
X295273Y125846D01*
X295389Y125814D01*
X295501Y125773D01*
X295582Y125760D01*
X295661Y125738D01*
X295781Y125730D01*
X295899Y125711D01*
X295981Y125715D01*
X296063Y125709D01*
X296181Y125724D01*
X296301Y125729D01*
X296381Y125749D01*
X296462Y125759D01*
X296575Y125797D01*
X296692Y125826D01*
X296766Y125862D01*
X296844Y125888D01*
X296948Y125947D01*
X297056Y125998D01*
X297121Y126048D01*
X297193Y126089D01*
X297309Y126187D01*
X297378Y126239D01*
X297406Y126269D01*
X297446Y126303D01*
X297878Y126736D01*
X303142Y126736D01*
X304074Y125804D01*
X304087Y125792D01*
X304099Y125779D01*
X304243Y125665D01*
X304385Y125549D01*
X304401Y125540D01*
X304415Y125529D01*
X304579Y125446D01*
X304741Y125360D01*
X304758Y125355D01*
X304774Y125347D01*
X304951Y125298D01*
X305127Y125245D01*
X305145Y125244D01*
X305162Y125239D01*
X305345Y125226D01*
X305528Y125209D01*
X305546Y125211D01*
X305563Y125210D01*
X305745Y125233D01*
X305928Y125252D01*
X305945Y125258D01*
X305963Y125260D01*
X306137Y125318D01*
X306312Y125374D01*
X306328Y125383D01*
X306344Y125388D01*
X306503Y125480D01*
X306664Y125569D01*
X306678Y125580D01*
X306693Y125589D01*
X306946Y125804D01*
X307878Y126736D01*
X313142Y126736D01*
X314035Y125843D01*
X314035Y121637D01*
X314037Y121610D01*
X314035Y121584D01*
X314057Y121410D01*
X314075Y121236D01*
X314082Y121211D01*
X314086Y121184D01*
X314142Y121018D01*
X314193Y120851D01*
X314206Y120828D01*
X314214Y120803D01*
X314301Y120651D01*
X314384Y120497D01*
X314402Y120477D01*
X314415Y120454D01*
X314630Y120201D01*
X321890Y112940D01*
X323973Y110857D01*
X323973Y108008D01*
X323976Y107981D01*
X323974Y107954D01*
X323996Y107780D01*
X324013Y107607D01*
X324021Y107582D01*
X324024Y107555D01*
X324080Y107389D01*
X324131Y107222D01*
X324144Y107199D01*
X324153Y107173D01*
X324240Y107022D01*
X324323Y106868D01*
X324340Y106848D01*
X324354Y106824D01*
X324568Y106571D01*
X336918Y94222D01*
X336925Y94216D01*
X336930Y94209D01*
X337080Y94089D01*
X337229Y93967D01*
X337237Y93963D01*
X337244Y93957D01*
X337414Y93869D01*
X337585Y93778D01*
X337594Y93776D01*
X337601Y93772D01*
X337786Y93718D01*
X337971Y93663D01*
X337980Y93663D01*
X337988Y93660D01*
X338180Y93645D01*
X338372Y93627D01*
X338381Y93628D01*
X338390Y93627D01*
X338579Y93649D01*
X338772Y93670D01*
X338781Y93673D01*
X338789Y93674D01*
X338971Y93734D01*
X339156Y93792D01*
X339164Y93796D01*
X339172Y93799D01*
X339341Y93894D01*
X339508Y93987D01*
X339515Y93993D01*
X339523Y93997D01*
X339669Y94123D01*
X339815Y94247D01*
X339821Y94254D01*
X339828Y94260D01*
X339945Y94412D01*
X340065Y94563D01*
X340069Y94571D01*
X340074Y94578D01*
X340160Y94750D01*
X340247Y94922D01*
X340250Y94931D01*
X340254Y94939D01*
X340304Y95125D01*
X340355Y95310D01*
X340356Y95319D01*
X340358Y95328D01*
X340385Y95658D01*
X340385Y98220D01*
X340383Y98247D01*
X340385Y98274D01*
X340363Y98447D01*
X340345Y98621D01*
X340338Y98646D01*
X340334Y98673D01*
X340279Y98839D01*
X340227Y99006D01*
X340214Y99029D01*
X340206Y99055D01*
X340119Y99206D01*
X340035Y99360D01*
X340018Y99380D01*
X340005Y99404D01*
X339905Y99522D01*
X339542Y100149D01*
X339369Y100795D01*
X339369Y101599D01*
X354410Y101599D01*
X369451Y101599D01*
X369451Y100795D01*
X369278Y100149D01*
X368909Y99510D01*
X368885Y99480D01*
X368775Y99345D01*
X368762Y99321D01*
X368746Y99300D01*
X368668Y99143D01*
X368586Y98989D01*
X368578Y98964D01*
X368566Y98940D01*
X368521Y98770D01*
X368471Y98603D01*
X368469Y98577D01*
X368462Y98551D01*
X368435Y98220D01*
X368435Y91938D01*
X368424Y91795D01*
X368408Y91612D01*
X368410Y91594D01*
X368408Y91575D01*
X368431Y91393D01*
X368435Y91363D01*
X368435Y83937D01*
X368424Y83795D01*
X368408Y83613D01*
X368410Y83595D01*
X368408Y83577D01*
X368431Y83394D01*
X368435Y83363D01*
X368435Y75937D01*
X368424Y75795D01*
X368408Y75613D01*
X368410Y75595D01*
X368408Y75577D01*
X368431Y75394D01*
X368435Y75363D01*
X368435Y68498D01*
X367542Y67605D01*
X342397Y67605D01*
X342370Y67603D01*
X342343Y67605D01*
X342169Y67583D01*
X341996Y67565D01*
X341970Y67558D01*
X341944Y67554D01*
X341778Y67498D01*
X341611Y67447D01*
X341587Y67434D01*
X341562Y67426D01*
X341411Y67339D01*
X341257Y67255D01*
X341237Y67238D01*
X341213Y67225D01*
X340960Y67010D01*
X336442Y62492D01*
X336425Y62471D01*
X336404Y62453D01*
X336298Y62316D01*
X336187Y62180D01*
X336174Y62156D01*
X336158Y62135D01*
X336080Y61979D01*
X335998Y61824D01*
X335990Y61799D01*
X335978Y61775D01*
X335933Y61606D01*
X335883Y61439D01*
X335881Y61412D01*
X335874Y61386D01*
X335847Y61055D01*
X335847Y52475D01*
X335849Y52448D01*
X335847Y52422D01*
X335869Y52248D01*
X335887Y52074D01*
X335894Y52049D01*
X335898Y52022D01*
X335953Y51857D01*
X336005Y51689D01*
X336018Y51666D01*
X336026Y51640D01*
X336113Y51489D01*
X336197Y51335D01*
X336214Y51315D01*
X336227Y51292D01*
X336442Y51039D01*
X336918Y50562D01*
X336925Y50557D01*
X336930Y50550D01*
X337080Y50429D01*
X337229Y50307D01*
X337237Y50303D01*
X337244Y50298D01*
X337414Y50210D01*
X337585Y50119D01*
X337594Y50116D01*
X337601Y50112D01*
X337786Y50059D01*
X337971Y50004D01*
X337980Y50003D01*
X337988Y50001D01*
X338181Y49985D01*
X338372Y49968D01*
X338381Y49968D01*
X338390Y49968D01*
X338579Y49990D01*
X338772Y50011D01*
X338781Y50014D01*
X338789Y50015D01*
X338973Y50075D01*
X339156Y50132D01*
X339164Y50137D01*
X339172Y50140D01*
X339341Y50235D01*
X339508Y50327D01*
X339515Y50333D01*
X339523Y50337D01*
X339668Y50463D01*
X339815Y50588D01*
X339821Y50595D01*
X339828Y50601D01*
X339944Y50751D01*
X340065Y50904D01*
X340069Y50912D01*
X340074Y50919D01*
X340160Y51091D01*
X340247Y51263D01*
X340250Y51271D01*
X340254Y51279D01*
X340304Y51467D01*
X340355Y51650D01*
X340356Y51659D01*
X340358Y51668D01*
X340385Y51999D01*
X340385Y53262D01*
X341278Y54155D01*
X367542Y54155D01*
X368435Y53262D01*
X368435Y31998D01*
X367542Y31105D01*
X341278Y31105D01*
X340385Y31998D01*
X340385Y39061D01*
X340384Y39070D01*
X340385Y39079D01*
X340364Y39271D01*
X340345Y39462D01*
X340343Y39470D01*
X340342Y39479D01*
X340284Y39662D01*
X340227Y39847D01*
X340223Y39855D01*
X340220Y39863D01*
X340127Y40032D01*
X340035Y40201D01*
X340030Y40208D01*
X340025Y40216D01*
X339900Y40363D01*
X339778Y40510D01*
X339771Y40516D01*
X339765Y40523D01*
X339614Y40642D01*
X339464Y40762D01*
X339456Y40767D01*
X339449Y40772D01*
X339278Y40859D01*
X339107Y40948D01*
X339098Y40950D01*
X339090Y40954D01*
X338905Y41006D01*
X338720Y41059D01*
X338711Y41060D01*
X338702Y41062D01*
X338510Y41077D01*
X338318Y41092D01*
X338310Y41091D01*
X338301Y41092D01*
X338110Y41068D01*
X337919Y41045D01*
X337910Y41043D01*
X337901Y41041D01*
X337720Y40981D01*
X337536Y40920D01*
X337528Y40916D01*
X337520Y40913D01*
X337353Y40817D01*
X337185Y40723D01*
X337178Y40717D01*
X337171Y40712D01*
X336918Y40498D01*
X336159Y39739D01*
X333649Y38699D01*
X330931Y38699D01*
X329052Y39478D01*
X329048Y39479D01*
X329044Y39481D01*
X328857Y39537D01*
X328667Y39594D01*
X328662Y39595D01*
X328658Y39596D01*
X328460Y39614D01*
X328266Y39632D01*
X328262Y39632D01*
X328257Y39632D01*
X328055Y39610D01*
X327865Y39591D01*
X327861Y39589D01*
X327857Y39589D01*
X327664Y39528D01*
X327481Y39471D01*
X327477Y39469D01*
X327473Y39467D01*
X327298Y39371D01*
X327128Y39278D01*
X327124Y39275D01*
X327120Y39272D01*
X326971Y39145D01*
X326820Y39018D01*
X326817Y39015D01*
X326813Y39012D01*
X326691Y38857D01*
X326569Y38704D01*
X326567Y38700D01*
X326564Y38696D01*
X326473Y38516D01*
X326385Y38345D01*
X326384Y38341D01*
X326382Y38337D01*
X326327Y38141D01*
X326275Y37958D01*
X326275Y37954D01*
X326274Y37949D01*
X326259Y37745D01*
X326244Y37557D01*
X326244Y37552D01*
X326244Y37548D01*
X326270Y37347D01*
X326293Y37157D01*
X326294Y37153D01*
X326295Y37148D01*
X326358Y36960D01*
X326419Y36775D01*
X326421Y36771D01*
X326423Y36767D01*
X326521Y36596D01*
X326619Y36425D01*
X326621Y36422D01*
X326624Y36418D01*
X326838Y36165D01*
X345307Y17696D01*
X345328Y17679D01*
X345346Y17658D01*
X345484Y17551D01*
X345619Y17441D01*
X345643Y17428D01*
X345664Y17412D01*
X345821Y17334D01*
X345975Y17252D01*
X346000Y17244D01*
X346024Y17232D01*
X346194Y17187D01*
X346361Y17137D01*
X346387Y17135D01*
X346413Y17128D01*
X346744Y17101D01*
X348644Y17101D01*
X348662Y17103D01*
X348680Y17101D01*
X348862Y17122D01*
X349045Y17141D01*
X349062Y17146D01*
X349079Y17148D01*
X349254Y17205D01*
X349430Y17259D01*
X349445Y17267D01*
X349462Y17273D01*
X349622Y17363D01*
X349784Y17451D01*
X349797Y17462D01*
X349813Y17471D01*
X349952Y17591D01*
X350093Y17708D01*
X350104Y17722D01*
X350118Y17734D01*
X350230Y17879D01*
X350345Y18022D01*
X350353Y18038D01*
X350364Y18052D01*
X350446Y18217D01*
X350531Y18379D01*
X350536Y18396D01*
X350544Y18412D01*
X350591Y18591D01*
X350642Y18766D01*
X350644Y18784D01*
X350648Y18801D01*
X350675Y19132D01*
X350675Y22692D01*
X351568Y23585D01*
X365832Y23585D01*
X366764Y22653D01*
X366778Y22641D01*
X366789Y22628D01*
X366933Y22514D01*
X367075Y22398D01*
X367091Y22389D01*
X367105Y22378D01*
X367269Y22295D01*
X367431Y22209D01*
X367448Y22204D01*
X367464Y22196D01*
X367641Y22146D01*
X367817Y22094D01*
X367835Y22093D01*
X367852Y22088D01*
X368035Y22074D01*
X368218Y22058D01*
X368236Y22060D01*
X368253Y22058D01*
X368435Y22081D01*
X368618Y22101D01*
X368635Y22107D01*
X368653Y22109D01*
X368827Y22167D01*
X369002Y22223D01*
X369018Y22231D01*
X369034Y22237D01*
X369193Y22329D01*
X369354Y22417D01*
X369368Y22429D01*
X369383Y22438D01*
X369636Y22653D01*
X370568Y23585D01*
X384832Y23585D01*
X385725Y22692D01*
X385725Y19132D01*
X385727Y19114D01*
X385725Y19096D01*
X385746Y18914D01*
X385765Y18731D01*
X385770Y18714D01*
X385772Y18697D01*
X385829Y18522D01*
X385883Y18346D01*
X385891Y18331D01*
X385897Y18314D01*
X385987Y18154D01*
X386075Y17992D01*
X386086Y17979D01*
X386095Y17963D01*
X386215Y17824D01*
X386332Y17683D01*
X386346Y17672D01*
X386358Y17658D01*
X386503Y17546D01*
X386646Y17431D01*
X386662Y17423D01*
X386676Y17412D01*
X386841Y17330D01*
X387003Y17245D01*
X387020Y17240D01*
X387036Y17232D01*
X387215Y17185D01*
X387390Y17134D01*
X387408Y17132D01*
X387425Y17128D01*
X387756Y17101D01*
X389844Y17101D01*
X389862Y17103D01*
X389880Y17101D01*
X390062Y17122D01*
X390245Y17141D01*
X390262Y17146D01*
X390279Y17148D01*
X390454Y17205D01*
X390630Y17259D01*
X390645Y17267D01*
X390662Y17273D01*
X390822Y17363D01*
X390984Y17451D01*
X390997Y17462D01*
X391013Y17471D01*
X391152Y17591D01*
X391293Y17708D01*
X391304Y17722D01*
X391318Y17734D01*
X391430Y17879D01*
X391545Y18022D01*
X391553Y18038D01*
X391564Y18052D01*
X391646Y18217D01*
X391731Y18379D01*
X391736Y18396D01*
X391744Y18412D01*
X391791Y18591D01*
X391842Y18766D01*
X391844Y18784D01*
X391848Y18801D01*
X391875Y19132D01*
X391875Y21872D01*
X392768Y22765D01*
X406032Y22765D01*
X406925Y21872D01*
X406925Y8608D01*
X406032Y7715D01*
X392768Y7715D01*
X391875Y8608D01*
X391875Y9988D01*
X391873Y10006D01*
X391875Y10024D01*
X391854Y10206D01*
X391835Y10389D01*
X391830Y10406D01*
X391828Y10423D01*
X391771Y10598D01*
X391717Y10774D01*
X391709Y10789D01*
X391703Y10806D01*
X391613Y10966D01*
X391525Y11128D01*
X391514Y11141D01*
X391505Y11157D01*
X391385Y11296D01*
X391268Y11437D01*
X391254Y11448D01*
X391242Y11462D01*
X391097Y11574D01*
X390954Y11689D01*
X390938Y11697D01*
X390924Y11708D01*
X390759Y11790D01*
X390597Y11875D01*
X390580Y11880D01*
X390564Y11888D01*
X390385Y11935D01*
X390210Y11986D01*
X390192Y11988D01*
X390175Y11992D01*
X389844Y12019D01*
X387756Y12019D01*
X387738Y12017D01*
X387720Y12019D01*
X387538Y11998D01*
X387355Y11979D01*
X387338Y11974D01*
X387321Y11972D01*
X387146Y11915D01*
X386970Y11861D01*
X386955Y11853D01*
X386938Y11847D01*
X386778Y11757D01*
X386616Y11669D01*
X386603Y11658D01*
X386587Y11649D01*
X386448Y11529D01*
X386307Y11412D01*
X386296Y11398D01*
X386282Y11386D01*
X386170Y11241D01*
X386055Y11098D01*
X386047Y11082D01*
X386036Y11068D01*
X385954Y10903D01*
X385869Y10741D01*
X385864Y10724D01*
X385856Y10708D01*
X385809Y10529D01*
X385758Y10354D01*
X385756Y10336D01*
X385752Y10319D01*
X385725Y9988D01*
X385725Y6428D01*
X384765Y5468D01*
X384759Y5461D01*
X384752Y5456D01*
X384631Y5305D01*
X384510Y5157D01*
X384505Y5149D01*
X384500Y5142D01*
X384411Y4972D01*
X384321Y4801D01*
X384318Y4792D01*
X384314Y4785D01*
X384261Y4600D01*
X384206Y4415D01*
X384205Y4406D01*
X384203Y4398D01*
X384187Y4207D01*
X384170Y4014D01*
X384171Y4005D01*
X384170Y3996D01*
X384192Y3807D01*
X384213Y3614D01*
X384216Y3605D01*
X384217Y3597D01*
X384276Y3415D01*
X384335Y3230D01*
X384339Y3222D01*
X384342Y3214D01*
X384436Y3047D01*
X384529Y2878D01*
X384535Y2871D01*
X384540Y2863D01*
X384665Y2718D01*
X384790Y2571D01*
X384797Y2565D01*
X384803Y2558D01*
X384953Y2442D01*
X385106Y2321D01*
X385114Y2317D01*
X385121Y2312D01*
X385292Y2227D01*
X385465Y2139D01*
X385473Y2136D01*
X385481Y2132D01*
X385667Y2083D01*
X385853Y2031D01*
X385862Y2030D01*
X385870Y2028D01*
X386201Y2001D01*
X435008Y2001D01*
X435026Y2003D01*
G37*
G36*
X38189Y2001D02*
X38189Y2001D01*
X38193Y2001D01*
X38387Y2021D01*
X38585Y2041D01*
X38589Y2042D01*
X38594Y2042D01*
X38779Y2100D01*
X38970Y2159D01*
X38974Y2161D01*
X38978Y2162D01*
X39150Y2256D01*
X39324Y2351D01*
X39327Y2353D01*
X39331Y2356D01*
X39481Y2481D01*
X39633Y2608D01*
X39636Y2612D01*
X39639Y2615D01*
X39761Y2767D01*
X39885Y2922D01*
X39887Y2926D01*
X39890Y2929D01*
X39980Y3104D01*
X40071Y3279D01*
X40072Y3284D01*
X40074Y3288D01*
X40127Y3475D01*
X40182Y3666D01*
X40183Y3671D01*
X40184Y3675D01*
X40199Y3868D01*
X40215Y4068D01*
X40215Y4072D01*
X40215Y4076D01*
X40192Y4267D01*
X40168Y4467D01*
X40167Y4472D01*
X40166Y4476D01*
X40106Y4659D01*
X40043Y4850D01*
X40041Y4854D01*
X40040Y4858D01*
X39944Y5027D01*
X39846Y5201D01*
X39843Y5204D01*
X39840Y5208D01*
X39711Y5357D01*
X39582Y5505D01*
X39579Y5508D01*
X39576Y5512D01*
X39419Y5632D01*
X39264Y5752D01*
X39260Y5754D01*
X39257Y5757D01*
X38962Y5909D01*
X35723Y7250D01*
X32650Y10323D01*
X30987Y14337D01*
X30987Y18683D01*
X32650Y22697D01*
X35723Y25770D01*
X39737Y27433D01*
X44083Y27433D01*
X48097Y25770D01*
X48306Y25561D01*
X48319Y25550D01*
X48331Y25537D01*
X48475Y25423D01*
X48617Y25306D01*
X48633Y25298D01*
X48647Y25287D01*
X48811Y25203D01*
X48973Y25118D01*
X48990Y25113D01*
X49006Y25105D01*
X49183Y25055D01*
X49359Y25003D01*
X49377Y25001D01*
X49394Y24997D01*
X49577Y24983D01*
X49760Y24967D01*
X49778Y24968D01*
X49795Y24967D01*
X49977Y24990D01*
X50160Y25010D01*
X50177Y25015D01*
X50195Y25018D01*
X50368Y25076D01*
X50544Y25131D01*
X50560Y25140D01*
X50576Y25146D01*
X50736Y25238D01*
X50896Y25326D01*
X50910Y25338D01*
X50925Y25347D01*
X51178Y25561D01*
X102114Y76497D01*
X104198Y78581D01*
X111026Y78581D01*
X111044Y78583D01*
X111062Y78581D01*
X111244Y78602D01*
X111427Y78621D01*
X111444Y78626D01*
X111461Y78628D01*
X111636Y78685D01*
X111812Y78739D01*
X111827Y78747D01*
X111844Y78753D01*
X112004Y78843D01*
X112166Y78931D01*
X112179Y78942D01*
X112195Y78951D01*
X112334Y79071D01*
X112475Y79188D01*
X112486Y79202D01*
X112500Y79214D01*
X112612Y79359D01*
X112727Y79502D01*
X112735Y79518D01*
X112746Y79532D01*
X112828Y79697D01*
X112913Y79859D01*
X112918Y79876D01*
X112926Y79892D01*
X112973Y80071D01*
X113024Y80246D01*
X113026Y80264D01*
X113030Y80281D01*
X113057Y80612D01*
X113057Y81681D01*
X113141Y81784D01*
X113262Y81933D01*
X113267Y81941D01*
X113272Y81948D01*
X113361Y82118D01*
X113451Y82289D01*
X113454Y82298D01*
X113458Y82305D01*
X113511Y82489D01*
X113566Y82675D01*
X113567Y82684D01*
X113569Y82692D01*
X113585Y82883D01*
X113602Y83076D01*
X113601Y83085D01*
X113602Y83094D01*
X113580Y83282D01*
X113559Y83476D01*
X113556Y83485D01*
X113555Y83493D01*
X113495Y83676D01*
X113437Y83860D01*
X113433Y83868D01*
X113430Y83876D01*
X113335Y84045D01*
X113243Y84212D01*
X113237Y84219D01*
X113232Y84227D01*
X113107Y84372D01*
X112982Y84519D01*
X112975Y84525D01*
X112969Y84532D01*
X112818Y84649D01*
X112666Y84769D01*
X112658Y84773D01*
X112651Y84778D01*
X112479Y84864D01*
X112307Y84951D01*
X112299Y84954D01*
X112291Y84958D01*
X112103Y85008D01*
X111919Y85059D01*
X111911Y85060D01*
X111902Y85062D01*
X111571Y85089D01*
X94876Y85089D01*
X94858Y85087D01*
X94840Y85089D01*
X94658Y85068D01*
X94475Y85049D01*
X94458Y85044D01*
X94441Y85042D01*
X94266Y84985D01*
X94090Y84931D01*
X94075Y84923D01*
X94058Y84917D01*
X93898Y84827D01*
X93736Y84739D01*
X93723Y84728D01*
X93707Y84719D01*
X93568Y84599D01*
X93427Y84482D01*
X93416Y84468D01*
X93402Y84456D01*
X93290Y84311D01*
X93175Y84168D01*
X93167Y84152D01*
X93156Y84138D01*
X93074Y83973D01*
X92989Y83811D01*
X92984Y83794D01*
X92976Y83778D01*
X92929Y83599D01*
X92878Y83424D01*
X92876Y83406D01*
X92872Y83389D01*
X92845Y83058D01*
X92845Y77348D01*
X91952Y76455D01*
X75688Y76455D01*
X74795Y77348D01*
X74795Y88160D01*
X74793Y88187D01*
X74795Y88214D01*
X74773Y88388D01*
X74755Y88561D01*
X74748Y88586D01*
X74744Y88613D01*
X74688Y88779D01*
X74637Y88946D01*
X74624Y88969D01*
X74616Y88995D01*
X74529Y89146D01*
X74445Y89300D01*
X74428Y89320D01*
X74415Y89344D01*
X74200Y89597D01*
X56693Y107104D01*
X54609Y109188D01*
X54609Y109190D01*
X54588Y109372D01*
X54569Y109555D01*
X54564Y109572D01*
X54562Y109589D01*
X54505Y109764D01*
X54451Y109940D01*
X54443Y109955D01*
X54437Y109972D01*
X54347Y110132D01*
X54259Y110294D01*
X54248Y110307D01*
X54239Y110323D01*
X54119Y110462D01*
X54002Y110603D01*
X53988Y110614D01*
X53976Y110628D01*
X53831Y110740D01*
X53688Y110855D01*
X53672Y110863D01*
X53658Y110874D01*
X53493Y110956D01*
X53331Y111041D01*
X53314Y111046D01*
X53298Y111054D01*
X53119Y111101D01*
X52944Y111152D01*
X52926Y111154D01*
X52909Y111158D01*
X52578Y111185D01*
X43438Y111185D01*
X42545Y112078D01*
X42545Y136342D01*
X43438Y137235D01*
X60702Y137235D01*
X61595Y136342D01*
X61595Y121879D01*
X61596Y121870D01*
X61595Y121861D01*
X61616Y121669D01*
X61635Y121478D01*
X61637Y121470D01*
X61638Y121461D01*
X61696Y121277D01*
X61753Y121093D01*
X61757Y121085D01*
X61760Y121077D01*
X61853Y120908D01*
X61945Y120739D01*
X61950Y120732D01*
X61955Y120724D01*
X62080Y120577D01*
X62202Y120430D01*
X62209Y120424D01*
X62215Y120417D01*
X62366Y120298D01*
X62516Y120178D01*
X62524Y120173D01*
X62531Y120168D01*
X62704Y120080D01*
X62873Y119992D01*
X62882Y119990D01*
X62890Y119986D01*
X63076Y119934D01*
X63260Y119881D01*
X63269Y119880D01*
X63278Y119878D01*
X63471Y119863D01*
X63662Y119848D01*
X63670Y119849D01*
X63679Y119848D01*
X63872Y119872D01*
X64061Y119895D01*
X64070Y119897D01*
X64079Y119899D01*
X64262Y119960D01*
X64444Y120020D01*
X64452Y120024D01*
X64460Y120027D01*
X64626Y120122D01*
X64795Y120217D01*
X64802Y120223D01*
X64809Y120228D01*
X65062Y120442D01*
X67251Y122631D01*
X69761Y123671D01*
X72479Y123671D01*
X74989Y122631D01*
X76088Y121532D01*
X76109Y121515D01*
X76127Y121494D01*
X76265Y121387D01*
X76400Y121277D01*
X76424Y121264D01*
X76445Y121248D01*
X76602Y121170D01*
X76756Y121088D01*
X76781Y121080D01*
X76805Y121068D01*
X76975Y121023D01*
X77142Y120973D01*
X77168Y120971D01*
X77194Y120964D01*
X77525Y120937D01*
X95263Y120937D01*
X110178Y106022D01*
X110199Y106005D01*
X110217Y105984D01*
X110354Y105877D01*
X110490Y105767D01*
X110513Y105754D01*
X110535Y105738D01*
X110692Y105660D01*
X110846Y105578D01*
X110871Y105570D01*
X110895Y105558D01*
X111065Y105513D01*
X111231Y105463D01*
X111258Y105461D01*
X111284Y105454D01*
X111615Y105427D01*
X125034Y105427D01*
X125043Y105428D01*
X125052Y105427D01*
X125244Y105448D01*
X125435Y105467D01*
X125443Y105469D01*
X125452Y105470D01*
X125635Y105528D01*
X125820Y105585D01*
X125828Y105589D01*
X125836Y105592D01*
X126005Y105685D01*
X126174Y105777D01*
X126181Y105782D01*
X126189Y105787D01*
X126336Y105912D01*
X126483Y106034D01*
X126489Y106041D01*
X126496Y106047D01*
X126615Y106199D01*
X126735Y106348D01*
X126740Y106356D01*
X126745Y106363D01*
X126832Y106535D01*
X126921Y106705D01*
X126923Y106714D01*
X126927Y106722D01*
X126979Y106908D01*
X127032Y107092D01*
X127033Y107101D01*
X127035Y107110D01*
X127050Y107302D01*
X127065Y107494D01*
X127064Y107502D01*
X127065Y107511D01*
X127040Y107704D01*
X127018Y107893D01*
X127016Y107902D01*
X127014Y107911D01*
X126954Y108092D01*
X126893Y108276D01*
X126889Y108284D01*
X126886Y108292D01*
X126791Y108458D01*
X126696Y108627D01*
X126690Y108634D01*
X126685Y108641D01*
X126471Y108894D01*
X124217Y111148D01*
X124196Y111165D01*
X124178Y111186D01*
X124040Y111292D01*
X123905Y111403D01*
X123881Y111416D01*
X123860Y111432D01*
X123712Y111506D01*
X114041Y121177D01*
X114041Y127003D01*
X114039Y127030D01*
X114041Y127056D01*
X114019Y127230D01*
X114001Y127404D01*
X113993Y127429D01*
X113990Y127456D01*
X113935Y127621D01*
X113883Y127789D01*
X113870Y127812D01*
X113862Y127838D01*
X113775Y127989D01*
X113691Y128143D01*
X113674Y128163D01*
X113661Y128186D01*
X113446Y128439D01*
X113057Y128828D01*
X113057Y129888D01*
X113055Y129906D01*
X113057Y129924D01*
X113036Y130106D01*
X113017Y130289D01*
X113012Y130306D01*
X113010Y130323D01*
X112953Y130498D01*
X112899Y130674D01*
X112891Y130689D01*
X112885Y130706D01*
X112795Y130866D01*
X112707Y131028D01*
X112696Y131041D01*
X112687Y131057D01*
X112567Y131196D01*
X112450Y131337D01*
X112436Y131348D01*
X112424Y131362D01*
X112279Y131474D01*
X112136Y131589D01*
X112120Y131597D01*
X112106Y131608D01*
X111941Y131690D01*
X111779Y131775D01*
X111762Y131780D01*
X111746Y131788D01*
X111567Y131835D01*
X111392Y131886D01*
X111374Y131888D01*
X111357Y131892D01*
X111026Y131919D01*
X75308Y131919D01*
X48689Y158538D01*
X48672Y158552D01*
X48657Y158569D01*
X48516Y158680D01*
X48377Y158793D01*
X48358Y158803D01*
X48340Y158817D01*
X48179Y158898D01*
X48022Y158982D01*
X48000Y158988D01*
X47980Y158998D01*
X47807Y159046D01*
X47636Y159096D01*
X47614Y159098D01*
X47592Y159104D01*
X47413Y159117D01*
X47235Y159133D01*
X47213Y159130D01*
X47190Y159132D01*
X47013Y159109D01*
X46835Y159089D01*
X46813Y159083D01*
X46791Y159080D01*
X46475Y158978D01*
X44083Y157987D01*
X39737Y157987D01*
X35723Y159650D01*
X32650Y162723D01*
X30987Y166737D01*
X30987Y171083D01*
X32650Y175097D01*
X35723Y178170D01*
X37431Y178877D01*
X37431Y178878D01*
X39737Y179833D01*
X44083Y179833D01*
X48097Y178170D01*
X51170Y175097D01*
X52733Y171323D01*
X52738Y171315D01*
X52740Y171306D01*
X52832Y171138D01*
X52924Y170968D01*
X52929Y170961D01*
X52934Y170953D01*
X53057Y170807D01*
X53180Y170657D01*
X53187Y170652D01*
X53193Y170645D01*
X53343Y170525D01*
X53493Y170404D01*
X53501Y170399D01*
X53507Y170394D01*
X53679Y170306D01*
X53849Y170217D01*
X53858Y170214D01*
X53866Y170210D01*
X54050Y170158D01*
X54236Y170103D01*
X54244Y170103D01*
X54253Y170100D01*
X54444Y170085D01*
X54637Y170069D01*
X54646Y170070D01*
X54654Y170069D01*
X54845Y170092D01*
X55037Y170114D01*
X55045Y170117D01*
X55054Y170118D01*
X55237Y170178D01*
X55420Y170237D01*
X55428Y170241D01*
X55436Y170244D01*
X55604Y170340D01*
X55772Y170433D01*
X55778Y170439D01*
X55786Y170444D01*
X55931Y170570D01*
X56077Y170695D01*
X56083Y170702D01*
X56090Y170708D01*
X56207Y170860D01*
X56326Y171012D01*
X56330Y171020D01*
X56335Y171027D01*
X56487Y171323D01*
X58050Y175097D01*
X61123Y178170D01*
X62831Y178877D01*
X62831Y178878D01*
X65137Y179833D01*
X69483Y179833D01*
X73497Y178170D01*
X76570Y175097D01*
X78133Y171323D01*
X78138Y171315D01*
X78140Y171306D01*
X78232Y171138D01*
X78324Y170968D01*
X78329Y170961D01*
X78334Y170953D01*
X78457Y170807D01*
X78580Y170657D01*
X78587Y170652D01*
X78593Y170645D01*
X78743Y170525D01*
X78893Y170404D01*
X78901Y170399D01*
X78907Y170394D01*
X79079Y170306D01*
X79249Y170217D01*
X79258Y170214D01*
X79266Y170210D01*
X79450Y170158D01*
X79636Y170103D01*
X79644Y170103D01*
X79653Y170100D01*
X79844Y170085D01*
X80037Y170069D01*
X80046Y170070D01*
X80054Y170069D01*
X80245Y170092D01*
X80437Y170114D01*
X80445Y170117D01*
X80454Y170118D01*
X80637Y170178D01*
X80820Y170237D01*
X80828Y170241D01*
X80836Y170244D01*
X81004Y170340D01*
X81172Y170433D01*
X81178Y170439D01*
X81186Y170444D01*
X81331Y170570D01*
X81477Y170695D01*
X81483Y170702D01*
X81490Y170708D01*
X81607Y170860D01*
X81726Y171012D01*
X81730Y171020D01*
X81735Y171027D01*
X81887Y171323D01*
X83450Y175097D01*
X86523Y178170D01*
X88231Y178877D01*
X88231Y178878D01*
X90537Y179833D01*
X94883Y179833D01*
X98897Y178170D01*
X101970Y175097D01*
X103533Y171323D01*
X103538Y171315D01*
X103540Y171306D01*
X103632Y171138D01*
X103724Y170968D01*
X103729Y170961D01*
X103734Y170953D01*
X103857Y170807D01*
X103980Y170657D01*
X103987Y170652D01*
X103993Y170645D01*
X104143Y170525D01*
X104293Y170404D01*
X104301Y170399D01*
X104307Y170394D01*
X104479Y170306D01*
X104649Y170217D01*
X104658Y170214D01*
X104666Y170210D01*
X104850Y170158D01*
X105036Y170103D01*
X105044Y170103D01*
X105053Y170100D01*
X105244Y170085D01*
X105437Y170069D01*
X105446Y170070D01*
X105454Y170069D01*
X105645Y170092D01*
X105837Y170114D01*
X105845Y170117D01*
X105854Y170118D01*
X106037Y170178D01*
X106220Y170237D01*
X106228Y170241D01*
X106236Y170244D01*
X106404Y170340D01*
X106572Y170433D01*
X106578Y170439D01*
X106586Y170444D01*
X106731Y170570D01*
X106877Y170695D01*
X106883Y170702D01*
X106890Y170708D01*
X107007Y170860D01*
X107126Y171012D01*
X107130Y171020D01*
X107135Y171027D01*
X107287Y171323D01*
X108850Y175097D01*
X111923Y178170D01*
X113631Y178877D01*
X113631Y178878D01*
X115937Y179833D01*
X120283Y179833D01*
X124297Y178170D01*
X127370Y175097D01*
X128933Y171323D01*
X128938Y171315D01*
X128940Y171306D01*
X129032Y171138D01*
X129124Y170968D01*
X129129Y170961D01*
X129134Y170953D01*
X129257Y170807D01*
X129380Y170657D01*
X129387Y170652D01*
X129393Y170645D01*
X129543Y170525D01*
X129693Y170404D01*
X129701Y170399D01*
X129707Y170394D01*
X129879Y170306D01*
X130049Y170217D01*
X130058Y170214D01*
X130066Y170210D01*
X130250Y170158D01*
X130436Y170103D01*
X130444Y170103D01*
X130453Y170100D01*
X130644Y170085D01*
X130837Y170069D01*
X130846Y170070D01*
X130854Y170069D01*
X131045Y170092D01*
X131237Y170114D01*
X131245Y170117D01*
X131254Y170118D01*
X131437Y170178D01*
X131620Y170237D01*
X131628Y170241D01*
X131636Y170244D01*
X131804Y170340D01*
X131972Y170433D01*
X131978Y170439D01*
X131986Y170444D01*
X132131Y170570D01*
X132277Y170695D01*
X132283Y170702D01*
X132290Y170708D01*
X132407Y170860D01*
X132526Y171012D01*
X132530Y171020D01*
X132535Y171027D01*
X132687Y171323D01*
X134250Y175097D01*
X137323Y178170D01*
X139031Y178877D01*
X139031Y178878D01*
X141337Y179833D01*
X145683Y179833D01*
X149697Y178170D01*
X152770Y175097D01*
X154333Y171323D01*
X154338Y171315D01*
X154340Y171306D01*
X154432Y171138D01*
X154524Y170968D01*
X154529Y170961D01*
X154534Y170953D01*
X154657Y170807D01*
X154780Y170657D01*
X154787Y170652D01*
X154793Y170645D01*
X154943Y170525D01*
X155093Y170404D01*
X155101Y170399D01*
X155107Y170394D01*
X155279Y170306D01*
X155449Y170217D01*
X155458Y170214D01*
X155466Y170210D01*
X155650Y170158D01*
X155836Y170103D01*
X155844Y170103D01*
X155853Y170100D01*
X156044Y170085D01*
X156237Y170069D01*
X156246Y170070D01*
X156254Y170069D01*
X156445Y170092D01*
X156637Y170114D01*
X156645Y170117D01*
X156654Y170118D01*
X156837Y170178D01*
X157020Y170237D01*
X157028Y170241D01*
X157036Y170244D01*
X157204Y170340D01*
X157372Y170433D01*
X157378Y170439D01*
X157386Y170444D01*
X157531Y170570D01*
X157677Y170695D01*
X157683Y170702D01*
X157690Y170708D01*
X157807Y170860D01*
X157926Y171012D01*
X157930Y171020D01*
X157935Y171027D01*
X158087Y171323D01*
X159650Y175097D01*
X162723Y178170D01*
X164431Y178877D01*
X164431Y178878D01*
X166737Y179833D01*
X171083Y179833D01*
X175097Y178170D01*
X178170Y175097D01*
X179733Y171323D01*
X179738Y171315D01*
X179740Y171306D01*
X179832Y171138D01*
X179924Y170968D01*
X179929Y170961D01*
X179934Y170953D01*
X180057Y170807D01*
X180180Y170657D01*
X180187Y170652D01*
X180193Y170645D01*
X180343Y170525D01*
X180493Y170404D01*
X180501Y170399D01*
X180507Y170394D01*
X180679Y170306D01*
X180849Y170217D01*
X180858Y170214D01*
X180866Y170210D01*
X181050Y170158D01*
X181236Y170103D01*
X181244Y170103D01*
X181253Y170100D01*
X181444Y170085D01*
X181637Y170069D01*
X181646Y170070D01*
X181654Y170069D01*
X181845Y170092D01*
X182037Y170114D01*
X182045Y170117D01*
X182054Y170118D01*
X182237Y170178D01*
X182420Y170237D01*
X182428Y170241D01*
X182436Y170244D01*
X182604Y170340D01*
X182772Y170433D01*
X182778Y170439D01*
X182786Y170444D01*
X182931Y170570D01*
X183077Y170695D01*
X183083Y170702D01*
X183090Y170708D01*
X183207Y170860D01*
X183326Y171012D01*
X183330Y171020D01*
X183335Y171027D01*
X183487Y171323D01*
X185050Y175097D01*
X188123Y178170D01*
X189831Y178877D01*
X189831Y178878D01*
X192137Y179833D01*
X196483Y179833D01*
X200497Y178170D01*
X203570Y175097D01*
X205133Y171323D01*
X205138Y171315D01*
X205140Y171306D01*
X205232Y171138D01*
X205324Y170968D01*
X205329Y170961D01*
X205334Y170953D01*
X205457Y170807D01*
X205580Y170657D01*
X205587Y170652D01*
X205593Y170645D01*
X205743Y170525D01*
X205893Y170404D01*
X205901Y170399D01*
X205907Y170394D01*
X206079Y170306D01*
X206249Y170217D01*
X206258Y170214D01*
X206266Y170210D01*
X206450Y170158D01*
X206636Y170103D01*
X206644Y170103D01*
X206653Y170100D01*
X206844Y170085D01*
X207037Y170069D01*
X207046Y170070D01*
X207054Y170069D01*
X207245Y170092D01*
X207437Y170114D01*
X207445Y170117D01*
X207454Y170118D01*
X207637Y170178D01*
X207820Y170237D01*
X207828Y170241D01*
X207836Y170244D01*
X208004Y170340D01*
X208172Y170433D01*
X208178Y170439D01*
X208186Y170444D01*
X208331Y170570D01*
X208477Y170695D01*
X208483Y170702D01*
X208490Y170708D01*
X208607Y170860D01*
X208726Y171012D01*
X208730Y171020D01*
X208735Y171027D01*
X208887Y171323D01*
X210450Y175097D01*
X213523Y178170D01*
X215231Y178877D01*
X215231Y178878D01*
X217537Y179833D01*
X221883Y179833D01*
X225897Y178170D01*
X228970Y175097D01*
X230533Y171323D01*
X230538Y171315D01*
X230540Y171306D01*
X230632Y171138D01*
X230724Y170968D01*
X230729Y170961D01*
X230734Y170953D01*
X230857Y170807D01*
X230980Y170657D01*
X230987Y170652D01*
X230993Y170645D01*
X231143Y170525D01*
X231293Y170404D01*
X231301Y170399D01*
X231307Y170394D01*
X231479Y170306D01*
X231649Y170217D01*
X231658Y170214D01*
X231666Y170210D01*
X231850Y170158D01*
X232036Y170103D01*
X232044Y170103D01*
X232053Y170100D01*
X232244Y170085D01*
X232437Y170069D01*
X232446Y170070D01*
X232454Y170069D01*
X232645Y170092D01*
X232837Y170114D01*
X232845Y170117D01*
X232854Y170118D01*
X233037Y170178D01*
X233220Y170237D01*
X233228Y170241D01*
X233236Y170244D01*
X233404Y170340D01*
X233572Y170433D01*
X233578Y170439D01*
X233586Y170444D01*
X233731Y170570D01*
X233877Y170695D01*
X233883Y170702D01*
X233890Y170708D01*
X234007Y170860D01*
X234126Y171012D01*
X234130Y171020D01*
X234135Y171027D01*
X234287Y171323D01*
X235850Y175097D01*
X238923Y178170D01*
X240631Y178877D01*
X240631Y178878D01*
X242937Y179833D01*
X247283Y179833D01*
X251297Y178170D01*
X254370Y175097D01*
X255933Y171323D01*
X255938Y171315D01*
X255940Y171306D01*
X256032Y171138D01*
X256124Y170968D01*
X256129Y170961D01*
X256134Y170953D01*
X256257Y170807D01*
X256380Y170657D01*
X256387Y170652D01*
X256393Y170645D01*
X256543Y170525D01*
X256693Y170404D01*
X256701Y170399D01*
X256707Y170394D01*
X256879Y170306D01*
X257049Y170217D01*
X257058Y170214D01*
X257066Y170210D01*
X257250Y170158D01*
X257436Y170103D01*
X257444Y170103D01*
X257453Y170100D01*
X257644Y170085D01*
X257837Y170069D01*
X257846Y170070D01*
X257854Y170069D01*
X258045Y170092D01*
X258237Y170114D01*
X258245Y170117D01*
X258254Y170118D01*
X258437Y170178D01*
X258620Y170237D01*
X258628Y170241D01*
X258636Y170244D01*
X258804Y170340D01*
X258972Y170433D01*
X258978Y170439D01*
X258986Y170444D01*
X259131Y170570D01*
X259277Y170695D01*
X259283Y170702D01*
X259290Y170708D01*
X259407Y170860D01*
X259526Y171012D01*
X259530Y171020D01*
X259535Y171027D01*
X259687Y171323D01*
X261250Y175097D01*
X264323Y178170D01*
X266031Y178877D01*
X266031Y178878D01*
X268337Y179833D01*
X272683Y179833D01*
X276697Y178170D01*
X279770Y175097D01*
X280800Y172611D01*
X280842Y172533D01*
X280875Y172450D01*
X280937Y172356D01*
X280990Y172256D01*
X281046Y172188D01*
X281095Y172113D01*
X281174Y172033D01*
X281246Y171946D01*
X281315Y171890D01*
X281378Y171827D01*
X281471Y171763D01*
X281559Y171692D01*
X281637Y171651D01*
X281711Y171601D01*
X281815Y171558D01*
X281915Y171505D01*
X282001Y171480D01*
X282083Y171446D01*
X282193Y171424D01*
X282302Y171392D01*
X282390Y171384D01*
X282477Y171367D01*
X282591Y171367D01*
X282703Y171357D01*
X282791Y171367D01*
X282880Y171367D01*
X282991Y171390D01*
X283103Y171403D01*
X283188Y171430D01*
X283275Y171447D01*
X283379Y171491D01*
X283486Y171526D01*
X283564Y171569D01*
X283646Y171603D01*
X283739Y171667D01*
X283838Y171722D01*
X283905Y171780D01*
X283979Y171830D01*
X284058Y171910D01*
X284144Y171984D01*
X284198Y172054D01*
X284261Y172117D01*
X284322Y172212D01*
X284392Y172301D01*
X284432Y172380D01*
X284480Y172455D01*
X284535Y172585D01*
X284573Y172661D01*
X284585Y172705D01*
X284608Y172761D01*
X284846Y173493D01*
X285699Y175167D01*
X286804Y176688D01*
X288132Y178016D01*
X289653Y179121D01*
X291327Y179974D01*
X291611Y180066D01*
X291688Y180100D01*
X291769Y180125D01*
X291872Y180181D01*
X291979Y180228D01*
X292049Y180276D01*
X292123Y180317D01*
X292213Y180392D01*
X292309Y180459D01*
X292367Y180520D01*
X292432Y180574D01*
X292505Y180666D01*
X292586Y180751D01*
X292631Y180822D01*
X292684Y180888D01*
X292738Y180992D01*
X292801Y181092D01*
X292831Y181170D01*
X292870Y181245D01*
X292902Y181358D01*
X292944Y181468D01*
X292958Y181551D01*
X292981Y181632D01*
X292991Y181749D01*
X293010Y181865D01*
X293007Y181949D01*
X293014Y182034D01*
X293000Y182150D01*
X292996Y182267D01*
X292977Y182350D01*
X292967Y182433D01*
X292931Y182545D01*
X292904Y182659D01*
X292868Y182736D01*
X292842Y182816D01*
X292785Y182919D01*
X292736Y183025D01*
X292686Y183093D01*
X292644Y183167D01*
X292568Y183256D01*
X292499Y183351D01*
X292436Y183408D01*
X292381Y183472D01*
X292288Y183543D01*
X292202Y183623D01*
X292130Y183667D01*
X292063Y183718D01*
X291958Y183771D01*
X291858Y183831D01*
X291778Y183860D01*
X291703Y183898D01*
X291589Y183928D01*
X291479Y183968D01*
X291395Y183980D01*
X291314Y184002D01*
X291165Y184014D01*
X291081Y184027D01*
X291038Y184025D01*
X290983Y184029D01*
X4032Y184029D01*
X4014Y184027D01*
X3996Y184029D01*
X3814Y184008D01*
X3631Y183989D01*
X3614Y183984D01*
X3597Y183982D01*
X3422Y183925D01*
X3246Y183871D01*
X3231Y183863D01*
X3214Y183857D01*
X3054Y183767D01*
X2892Y183679D01*
X2879Y183668D01*
X2863Y183659D01*
X2724Y183539D01*
X2583Y183422D01*
X2572Y183408D01*
X2558Y183396D01*
X2446Y183251D01*
X2331Y183108D01*
X2323Y183092D01*
X2312Y183078D01*
X2230Y182913D01*
X2145Y182751D01*
X2140Y182734D01*
X2132Y182718D01*
X2085Y182539D01*
X2034Y182364D01*
X2032Y182346D01*
X2028Y182329D01*
X2001Y181998D01*
X2001Y133266D01*
X2001Y133261D01*
X2001Y133257D01*
X2021Y133063D01*
X2041Y132865D01*
X2042Y132861D01*
X2042Y132856D01*
X2100Y132671D01*
X2159Y132480D01*
X2161Y132476D01*
X2162Y132472D01*
X2256Y132300D01*
X2351Y132126D01*
X2353Y132123D01*
X2356Y132119D01*
X2481Y131969D01*
X2608Y131817D01*
X2612Y131814D01*
X2615Y131811D01*
X2767Y131689D01*
X2922Y131565D01*
X2926Y131563D01*
X2929Y131560D01*
X3104Y131470D01*
X3279Y131379D01*
X3284Y131378D01*
X3288Y131376D01*
X3475Y131323D01*
X3666Y131268D01*
X3671Y131267D01*
X3675Y131266D01*
X3868Y131251D01*
X4068Y131235D01*
X4072Y131235D01*
X4076Y131235D01*
X4269Y131259D01*
X4467Y131282D01*
X4472Y131283D01*
X4476Y131284D01*
X4659Y131344D01*
X4850Y131407D01*
X4854Y131409D01*
X4858Y131410D01*
X5027Y131506D01*
X5201Y131604D01*
X5204Y131607D01*
X5208Y131610D01*
X5357Y131739D01*
X5505Y131868D01*
X5508Y131871D01*
X5512Y131874D01*
X5632Y132031D01*
X5752Y132186D01*
X5754Y132190D01*
X5757Y132193D01*
X5909Y132488D01*
X7250Y135727D01*
X10323Y138800D01*
X13905Y140284D01*
X14337Y140463D01*
X18683Y140463D01*
X22697Y138800D01*
X25770Y135727D01*
X27433Y131713D01*
X27433Y127367D01*
X25770Y123353D01*
X22697Y120280D01*
X21189Y119655D01*
X21188Y119655D01*
X20211Y119250D01*
X20133Y119208D01*
X20050Y119175D01*
X19956Y119114D01*
X19856Y119060D01*
X19788Y119004D01*
X19714Y118955D01*
X19633Y118876D01*
X19546Y118804D01*
X19490Y118735D01*
X19427Y118673D01*
X19363Y118579D01*
X19292Y118491D01*
X19251Y118413D01*
X19201Y118339D01*
X19158Y118235D01*
X19105Y118135D01*
X19080Y118050D01*
X19046Y117968D01*
X19024Y117857D01*
X18992Y117748D01*
X18984Y117660D01*
X18967Y117573D01*
X18967Y117460D01*
X18957Y117347D01*
X18967Y117259D01*
X18967Y117170D01*
X18990Y117059D01*
X19003Y116947D01*
X19030Y116862D01*
X19047Y116776D01*
X19091Y116671D01*
X19126Y116564D01*
X19169Y116486D01*
X19203Y116404D01*
X19267Y116311D01*
X19322Y116212D01*
X19380Y116145D01*
X19430Y116071D01*
X19510Y115992D01*
X19584Y115906D01*
X19654Y115852D01*
X19717Y115790D01*
X19812Y115728D01*
X19901Y115658D01*
X19980Y115618D01*
X20055Y115570D01*
X20185Y115515D01*
X20261Y115477D01*
X20305Y115465D01*
X20361Y115442D01*
X21093Y115204D01*
X22767Y114351D01*
X24288Y113246D01*
X25616Y111918D01*
X26721Y110397D01*
X27574Y108723D01*
X28155Y106936D01*
X28195Y106679D01*
X17018Y106679D01*
X17000Y106677D01*
X16983Y106679D01*
X16800Y106658D01*
X16618Y106639D01*
X16601Y106634D01*
X16583Y106632D01*
X16408Y106575D01*
X16233Y106521D01*
X16217Y106513D01*
X16200Y106507D01*
X16040Y106417D01*
X15879Y106329D01*
X15865Y106318D01*
X15849Y106309D01*
X15710Y106189D01*
X15569Y106072D01*
X15558Y106058D01*
X15545Y106046D01*
X15432Y105901D01*
X15317Y105758D01*
X15309Y105742D01*
X15298Y105728D01*
X15216Y105563D01*
X15132Y105401D01*
X15127Y105384D01*
X15119Y105368D01*
X15071Y105189D01*
X15020Y105014D01*
X15019Y104996D01*
X15014Y104979D01*
X14987Y104648D01*
X14987Y103632D01*
X14989Y103614D01*
X14987Y103596D01*
X15009Y103414D01*
X15027Y103231D01*
X15032Y103214D01*
X15034Y103197D01*
X15091Y103022D01*
X15145Y102846D01*
X15153Y102831D01*
X15159Y102814D01*
X15249Y102654D01*
X15337Y102492D01*
X15348Y102479D01*
X15357Y102463D01*
X15477Y102324D01*
X15595Y102183D01*
X15608Y102172D01*
X15620Y102158D01*
X15765Y102046D01*
X15908Y101931D01*
X15924Y101923D01*
X15938Y101912D01*
X16103Y101830D01*
X16266Y101745D01*
X16283Y101740D01*
X16299Y101732D01*
X16477Y101684D01*
X16652Y101634D01*
X16670Y101632D01*
X16687Y101628D01*
X17018Y101601D01*
X28195Y101601D01*
X28155Y101344D01*
X27574Y99557D01*
X26721Y97883D01*
X25616Y96362D01*
X24288Y95034D01*
X22767Y93929D01*
X21093Y93076D01*
X20361Y92838D01*
X20279Y92802D01*
X20195Y92776D01*
X20096Y92722D01*
X19992Y92676D01*
X19919Y92625D01*
X19842Y92583D01*
X19755Y92510D01*
X19663Y92445D01*
X19601Y92381D01*
X19533Y92324D01*
X19463Y92235D01*
X19385Y92153D01*
X19338Y92078D01*
X19282Y92009D01*
X19231Y91908D01*
X19171Y91813D01*
X19139Y91730D01*
X19099Y91651D01*
X19068Y91542D01*
X19028Y91436D01*
X19013Y91348D01*
X18989Y91263D01*
X18980Y91151D01*
X18962Y91039D01*
X18965Y90950D01*
X18958Y90862D01*
X18971Y90750D01*
X18975Y90637D01*
X18996Y90550D01*
X19006Y90462D01*
X19042Y90355D01*
X19068Y90245D01*
X19105Y90164D01*
X19133Y90080D01*
X19189Y89982D01*
X19236Y89879D01*
X19288Y89807D01*
X19332Y89730D01*
X19407Y89645D01*
X19473Y89554D01*
X19538Y89494D01*
X19597Y89427D01*
X19686Y89358D01*
X19770Y89281D01*
X19846Y89235D01*
X19916Y89181D01*
X20042Y89117D01*
X20114Y89073D01*
X20157Y89057D01*
X20211Y89030D01*
X22697Y88000D01*
X25770Y84927D01*
X27433Y80913D01*
X27433Y76567D01*
X27095Y75751D01*
X27093Y75747D01*
X27091Y75743D01*
X27036Y75557D01*
X26978Y75366D01*
X26978Y75362D01*
X26977Y75357D01*
X26958Y75152D01*
X26940Y74965D01*
X26941Y74961D01*
X26940Y74956D01*
X26962Y74756D01*
X26982Y74565D01*
X26983Y74560D01*
X26984Y74556D01*
X27043Y74367D01*
X27102Y74180D01*
X27104Y74176D01*
X27105Y74172D01*
X27199Y74001D01*
X27295Y73827D01*
X27298Y73824D01*
X27300Y73820D01*
X27429Y73668D01*
X27554Y73519D01*
X27557Y73516D01*
X27560Y73513D01*
X27717Y73389D01*
X27869Y73268D01*
X27873Y73266D01*
X27876Y73263D01*
X28053Y73173D01*
X28227Y73084D01*
X28231Y73083D01*
X28235Y73081D01*
X28425Y73028D01*
X28614Y72974D01*
X28619Y72974D01*
X28623Y72973D01*
X28824Y72958D01*
X29016Y72943D01*
X29020Y72944D01*
X29025Y72943D01*
X29223Y72968D01*
X29415Y72992D01*
X29420Y72993D01*
X29424Y72994D01*
X29610Y73056D01*
X29798Y73118D01*
X29802Y73121D01*
X29806Y73122D01*
X29977Y73220D01*
X30147Y73318D01*
X30151Y73321D01*
X30155Y73323D01*
X30408Y73538D01*
X37024Y80154D01*
X37041Y80175D01*
X37062Y80193D01*
X37169Y80330D01*
X37279Y80466D01*
X37292Y80489D01*
X37308Y80511D01*
X37386Y80668D01*
X37468Y80822D01*
X37476Y80847D01*
X37488Y80871D01*
X37533Y81041D01*
X37583Y81207D01*
X37585Y81234D01*
X37592Y81260D01*
X37619Y81591D01*
X37619Y83909D01*
X38659Y86419D01*
X40581Y88341D01*
X43091Y89381D01*
X45809Y89381D01*
X48319Y88341D01*
X50241Y86419D01*
X51281Y83909D01*
X51281Y81191D01*
X50241Y78681D01*
X48666Y77106D01*
X48649Y77085D01*
X48628Y77067D01*
X48521Y76929D01*
X48411Y76794D01*
X48398Y76770D01*
X48382Y76749D01*
X48304Y76593D01*
X48222Y76438D01*
X48214Y76413D01*
X48202Y76389D01*
X48157Y76220D01*
X48107Y76052D01*
X48105Y76026D01*
X48098Y76000D01*
X48071Y75669D01*
X48071Y65209D01*
X41529Y65209D01*
X41529Y69695D01*
X41528Y69704D01*
X41529Y69713D01*
X41508Y69907D01*
X41489Y70096D01*
X41487Y70104D01*
X41486Y70113D01*
X41428Y70297D01*
X41371Y70481D01*
X41367Y70489D01*
X41364Y70497D01*
X41272Y70665D01*
X41179Y70835D01*
X41174Y70842D01*
X41169Y70850D01*
X41045Y70997D01*
X40922Y71144D01*
X40915Y71150D01*
X40909Y71157D01*
X40757Y71276D01*
X40608Y71397D01*
X40600Y71401D01*
X40593Y71406D01*
X40420Y71494D01*
X40251Y71582D01*
X40242Y71585D01*
X40234Y71589D01*
X40048Y71641D01*
X39864Y71693D01*
X39855Y71694D01*
X39846Y71697D01*
X39653Y71711D01*
X39462Y71726D01*
X39454Y71725D01*
X39445Y71726D01*
X39252Y71702D01*
X39063Y71679D01*
X39054Y71677D01*
X39045Y71676D01*
X38862Y71614D01*
X38680Y71555D01*
X38672Y71550D01*
X38664Y71547D01*
X38497Y71451D01*
X38329Y71357D01*
X38322Y71351D01*
X38315Y71346D01*
X38062Y71132D01*
X26931Y60001D01*
X26917Y59984D01*
X26900Y59969D01*
X26790Y59828D01*
X26676Y59689D01*
X26665Y59670D01*
X26652Y59652D01*
X26571Y59492D01*
X26487Y59334D01*
X26481Y59312D01*
X26471Y59292D01*
X26424Y59120D01*
X26372Y58948D01*
X26370Y58926D01*
X26365Y58904D01*
X26352Y58725D01*
X26336Y58547D01*
X26338Y58525D01*
X26337Y58502D01*
X26360Y58325D01*
X26379Y58147D01*
X26386Y58125D01*
X26389Y58103D01*
X26491Y57787D01*
X27433Y55513D01*
X27433Y51167D01*
X25770Y47153D01*
X22697Y44080D01*
X18683Y42417D01*
X14337Y42417D01*
X10323Y44080D01*
X7250Y47153D01*
X5909Y50392D01*
X5907Y50395D01*
X5905Y50400D01*
X5812Y50572D01*
X5718Y50746D01*
X5716Y50750D01*
X5713Y50754D01*
X5589Y50903D01*
X5462Y51057D01*
X5459Y51060D01*
X5456Y51063D01*
X5303Y51186D01*
X5149Y51311D01*
X5145Y51313D01*
X5142Y51315D01*
X4967Y51406D01*
X4793Y51498D01*
X4789Y51499D01*
X4785Y51501D01*
X4595Y51555D01*
X4406Y51611D01*
X4402Y51611D01*
X4398Y51612D01*
X4200Y51629D01*
X4005Y51645D01*
X4001Y51645D01*
X3996Y51645D01*
X3799Y51622D01*
X3605Y51600D01*
X3601Y51599D01*
X3597Y51598D01*
X3408Y51537D01*
X3222Y51477D01*
X3218Y51475D01*
X3214Y51473D01*
X3041Y51376D01*
X2870Y51281D01*
X2867Y51278D01*
X2863Y51276D01*
X2714Y51147D01*
X2565Y51019D01*
X2562Y51015D01*
X2558Y51012D01*
X2440Y50859D01*
X2316Y50702D01*
X2314Y50698D01*
X2312Y50694D01*
X2225Y50519D01*
X2136Y50342D01*
X2134Y50338D01*
X2132Y50334D01*
X2080Y50139D01*
X2029Y49954D01*
X2029Y49949D01*
X2028Y49945D01*
X2001Y49614D01*
X2001Y4032D01*
X2003Y4014D01*
X2001Y3996D01*
X2022Y3814D01*
X2041Y3631D01*
X2046Y3614D01*
X2048Y3597D01*
X2105Y3422D01*
X2159Y3246D01*
X2167Y3231D01*
X2173Y3214D01*
X2263Y3054D01*
X2351Y2892D01*
X2362Y2879D01*
X2371Y2863D01*
X2491Y2724D01*
X2608Y2583D01*
X2622Y2572D01*
X2634Y2558D01*
X2779Y2446D01*
X2922Y2331D01*
X2938Y2323D01*
X2952Y2312D01*
X3117Y2230D01*
X3279Y2145D01*
X3296Y2140D01*
X3312Y2132D01*
X3491Y2085D01*
X3666Y2034D01*
X3684Y2032D01*
X3701Y2028D01*
X4032Y2001D01*
X38184Y2001D01*
X38189Y2001D01*
G37*
G36*
X370510Y122172D02*
X370510Y122172D01*
X370519Y122171D01*
X370711Y122195D01*
X370901Y122218D01*
X370910Y122220D01*
X370919Y122222D01*
X371101Y122283D01*
X371284Y122343D01*
X371292Y122347D01*
X371300Y122350D01*
X371468Y122446D01*
X371635Y122540D01*
X371642Y122546D01*
X371649Y122551D01*
X371902Y122765D01*
X372784Y123648D01*
X372801Y123668D01*
X372822Y123686D01*
X372928Y123823D01*
X373039Y123959D01*
X373052Y123983D01*
X373068Y124004D01*
X373146Y124160D01*
X373228Y124315D01*
X373236Y124340D01*
X373248Y124364D01*
X373293Y124534D01*
X373343Y124701D01*
X373345Y124727D01*
X373352Y124753D01*
X373379Y125084D01*
X373379Y128052D01*
X400150Y154823D01*
X400167Y154844D01*
X400188Y154862D01*
X400295Y155000D01*
X400405Y155135D01*
X400418Y155159D01*
X400434Y155180D01*
X400512Y155337D01*
X400594Y155491D01*
X400602Y155516D01*
X400614Y155540D01*
X400659Y155710D01*
X400709Y155877D01*
X400711Y155903D01*
X400718Y155929D01*
X400745Y156260D01*
X400745Y170413D01*
X400743Y170440D01*
X400745Y170467D01*
X400723Y170640D01*
X400705Y170814D01*
X400698Y170839D01*
X400694Y170866D01*
X400639Y171032D01*
X400587Y171199D01*
X400574Y171222D01*
X400566Y171248D01*
X400479Y171399D01*
X400395Y171553D01*
X400378Y171573D01*
X400365Y171597D01*
X400150Y171850D01*
X398069Y173931D01*
X397029Y176441D01*
X397029Y179159D01*
X397883Y181221D01*
X397887Y181234D01*
X397893Y181245D01*
X397945Y181425D01*
X398000Y181606D01*
X398001Y181619D01*
X398005Y181632D01*
X398020Y181820D01*
X398038Y182007D01*
X398037Y182020D01*
X398038Y182034D01*
X398016Y182221D01*
X397996Y182407D01*
X397992Y182420D01*
X397991Y182433D01*
X397932Y182613D01*
X397876Y182792D01*
X397870Y182803D01*
X397866Y182816D01*
X397773Y182981D01*
X397683Y183145D01*
X397675Y183155D01*
X397668Y183167D01*
X397545Y183309D01*
X397424Y183453D01*
X397414Y183461D01*
X397405Y183472D01*
X397256Y183587D01*
X397109Y183704D01*
X397097Y183710D01*
X397087Y183718D01*
X396918Y183802D01*
X396751Y183888D01*
X396738Y183892D01*
X396726Y183898D01*
X396543Y183947D01*
X396364Y183998D01*
X396350Y183999D01*
X396337Y184002D01*
X396007Y184029D01*
X326237Y184029D01*
X326153Y184021D01*
X326069Y184022D01*
X325953Y184001D01*
X325836Y183989D01*
X325756Y183965D01*
X325673Y183949D01*
X325564Y183906D01*
X325451Y183871D01*
X325377Y183831D01*
X325299Y183800D01*
X325201Y183735D01*
X325097Y183679D01*
X325033Y183626D01*
X324962Y183579D01*
X324878Y183497D01*
X324788Y183422D01*
X324735Y183356D01*
X324675Y183297D01*
X324609Y183199D01*
X324536Y183108D01*
X324497Y183033D01*
X324450Y182963D01*
X324404Y182855D01*
X324350Y182751D01*
X324327Y182670D01*
X324294Y182592D01*
X324271Y182477D01*
X324239Y182364D01*
X324232Y182280D01*
X324215Y182197D01*
X324216Y182079D01*
X324206Y181962D01*
X324216Y181879D01*
X324216Y181794D01*
X324239Y181679D01*
X324253Y181563D01*
X324279Y181482D01*
X324296Y181400D01*
X324341Y181291D01*
X324378Y181180D01*
X324419Y181106D01*
X324452Y181029D01*
X324518Y180931D01*
X324576Y180829D01*
X324631Y180765D01*
X324678Y180696D01*
X324762Y180613D01*
X324839Y180525D01*
X324905Y180473D01*
X324966Y180414D01*
X325064Y180350D01*
X325157Y180278D01*
X325232Y180240D01*
X325303Y180194D01*
X325440Y180137D01*
X325517Y180098D01*
X325558Y180087D01*
X325609Y180066D01*
X325893Y179974D01*
X327567Y179121D01*
X329088Y178016D01*
X330416Y176688D01*
X331521Y175167D01*
X332374Y173493D01*
X332955Y171706D01*
X332995Y171449D01*
X321818Y171449D01*
X321800Y171447D01*
X321783Y171449D01*
X321600Y171428D01*
X321418Y171409D01*
X321401Y171404D01*
X321383Y171402D01*
X321305Y171377D01*
X321168Y171416D01*
X321150Y171418D01*
X321133Y171422D01*
X320802Y171449D01*
X296418Y171449D01*
X296400Y171447D01*
X296383Y171449D01*
X296200Y171428D01*
X296018Y171409D01*
X296001Y171404D01*
X295983Y171402D01*
X295808Y171345D01*
X295633Y171291D01*
X295617Y171283D01*
X295600Y171277D01*
X295440Y171187D01*
X295279Y171099D01*
X295265Y171088D01*
X295249Y171079D01*
X295110Y170959D01*
X294969Y170842D01*
X294958Y170828D01*
X294945Y170816D01*
X294832Y170671D01*
X294717Y170528D01*
X294709Y170512D01*
X294698Y170498D01*
X294616Y170333D01*
X294576Y170257D01*
X294424Y170171D01*
X294262Y170083D01*
X294249Y170072D01*
X294233Y170063D01*
X294094Y169943D01*
X293953Y169825D01*
X293942Y169812D01*
X293928Y169800D01*
X293816Y169655D01*
X293701Y169512D01*
X293693Y169496D01*
X293682Y169482D01*
X293599Y169316D01*
X293515Y169154D01*
X293510Y169137D01*
X293502Y169121D01*
X293454Y168943D01*
X293404Y168768D01*
X293402Y168750D01*
X293398Y168733D01*
X293371Y168402D01*
X293371Y157225D01*
X293114Y157265D01*
X291327Y157846D01*
X289653Y158699D01*
X288132Y159804D01*
X286804Y161132D01*
X285699Y162653D01*
X284846Y164327D01*
X284608Y165059D01*
X284572Y165141D01*
X284546Y165225D01*
X284492Y165324D01*
X284446Y165428D01*
X284395Y165501D01*
X284353Y165578D01*
X284280Y165665D01*
X284215Y165757D01*
X284151Y165819D01*
X284094Y165887D01*
X284005Y165957D01*
X283923Y166035D01*
X283848Y166082D01*
X283779Y166138D01*
X283678Y166189D01*
X283583Y166249D01*
X283500Y166281D01*
X283421Y166321D01*
X283312Y166352D01*
X283206Y166392D01*
X283119Y166407D01*
X283033Y166431D01*
X282921Y166440D01*
X282809Y166458D01*
X282720Y166455D01*
X282632Y166462D01*
X282520Y166449D01*
X282407Y166445D01*
X282320Y166424D01*
X282232Y166414D01*
X282125Y166378D01*
X282015Y166352D01*
X281934Y166315D01*
X281850Y166287D01*
X281752Y166231D01*
X281649Y166184D01*
X281577Y166132D01*
X281500Y166088D01*
X281415Y166014D01*
X281324Y165947D01*
X281264Y165881D01*
X281197Y165823D01*
X281128Y165734D01*
X281051Y165650D01*
X281005Y165574D01*
X280951Y165504D01*
X280887Y165378D01*
X280843Y165306D01*
X280827Y165263D01*
X280800Y165209D01*
X279770Y162723D01*
X276697Y159650D01*
X272683Y157987D01*
X268337Y157987D01*
X265945Y158978D01*
X265923Y158985D01*
X265904Y158995D01*
X265731Y159043D01*
X265559Y159095D01*
X265537Y159097D01*
X265516Y159103D01*
X265336Y159116D01*
X265159Y159133D01*
X265136Y159131D01*
X265114Y159132D01*
X264935Y159110D01*
X264758Y159091D01*
X264737Y159085D01*
X264715Y159082D01*
X264544Y159025D01*
X264374Y158971D01*
X264354Y158961D01*
X264333Y158954D01*
X264177Y158864D01*
X264021Y158778D01*
X264004Y158764D01*
X263984Y158753D01*
X263731Y158538D01*
X258521Y153328D01*
X258516Y153321D01*
X258509Y153316D01*
X258389Y153166D01*
X258266Y153017D01*
X258262Y153009D01*
X258257Y153002D01*
X258168Y152831D01*
X258078Y152661D01*
X258075Y152653D01*
X258071Y152645D01*
X258018Y152459D01*
X257963Y152275D01*
X257962Y152266D01*
X257960Y152258D01*
X257944Y152066D01*
X257927Y151874D01*
X257928Y151865D01*
X257927Y151856D01*
X257949Y151667D01*
X257970Y151474D01*
X257973Y151465D01*
X257974Y151457D01*
X258033Y151275D01*
X258091Y151090D01*
X258096Y151082D01*
X258099Y151074D01*
X258194Y150905D01*
X258286Y150738D01*
X258292Y150731D01*
X258296Y150723D01*
X258422Y150577D01*
X258547Y150431D01*
X258554Y150425D01*
X258560Y150418D01*
X258711Y150301D01*
X258863Y150181D01*
X258871Y150177D01*
X258878Y150172D01*
X259050Y150086D01*
X259222Y149999D01*
X259230Y149996D01*
X259238Y149992D01*
X259425Y149942D01*
X259610Y149891D01*
X259618Y149890D01*
X259627Y149888D01*
X259958Y149861D01*
X310932Y149861D01*
X321172Y139621D01*
X321179Y139616D01*
X321184Y139609D01*
X321334Y139489D01*
X321483Y139366D01*
X321491Y139362D01*
X321498Y139357D01*
X321668Y139268D01*
X321839Y139178D01*
X321848Y139175D01*
X321855Y139171D01*
X322040Y139118D01*
X322225Y139063D01*
X322234Y139062D01*
X322242Y139060D01*
X322434Y139044D01*
X322626Y139027D01*
X322635Y139028D01*
X322644Y139027D01*
X322833Y139049D01*
X323026Y139070D01*
X323035Y139073D01*
X323043Y139074D01*
X323225Y139133D01*
X323410Y139191D01*
X323418Y139196D01*
X323426Y139199D01*
X323595Y139294D01*
X323762Y139386D01*
X323769Y139392D01*
X323777Y139396D01*
X323923Y139522D01*
X324069Y139647D01*
X324075Y139654D01*
X324082Y139660D01*
X324199Y139811D01*
X324319Y139963D01*
X324323Y139971D01*
X324328Y139978D01*
X324414Y140150D01*
X324501Y140322D01*
X324504Y140330D01*
X324508Y140338D01*
X324558Y140525D01*
X324609Y140710D01*
X324610Y140718D01*
X324612Y140727D01*
X324639Y141058D01*
X324639Y141059D01*
X325679Y143569D01*
X327601Y145491D01*
X330111Y146531D01*
X332829Y146531D01*
X333080Y146427D01*
X333102Y146420D01*
X333121Y146410D01*
X333294Y146362D01*
X333466Y146310D01*
X333488Y146308D01*
X333509Y146302D01*
X333689Y146289D01*
X333866Y146272D01*
X333888Y146274D01*
X333911Y146273D01*
X334089Y146295D01*
X334267Y146314D01*
X334288Y146320D01*
X334310Y146323D01*
X334480Y146380D01*
X334651Y146433D01*
X334671Y146444D01*
X334692Y146451D01*
X334847Y146541D01*
X335004Y146627D01*
X335021Y146641D01*
X335041Y146652D01*
X335294Y146867D01*
X339265Y150838D01*
X339270Y150845D01*
X339277Y150850D01*
X339397Y151000D01*
X339520Y151149D01*
X339524Y151157D01*
X339529Y151164D01*
X339618Y151335D01*
X339708Y151505D01*
X339711Y151513D01*
X339715Y151521D01*
X339768Y151706D01*
X339823Y151891D01*
X339824Y151900D01*
X339826Y151908D01*
X339842Y152100D01*
X339859Y152292D01*
X339859Y152301D01*
X339859Y152310D01*
X339837Y152498D01*
X339816Y152692D01*
X339813Y152701D01*
X339812Y152709D01*
X339753Y152891D01*
X339695Y153076D01*
X339690Y153084D01*
X339687Y153092D01*
X339594Y153259D01*
X339500Y153428D01*
X339494Y153435D01*
X339490Y153443D01*
X339364Y153588D01*
X339239Y153735D01*
X339232Y153741D01*
X339226Y153748D01*
X339091Y153852D01*
X337745Y155198D01*
X337745Y172462D01*
X338638Y173355D01*
X362902Y173355D01*
X363795Y172462D01*
X363795Y155198D01*
X362902Y154305D01*
X350262Y154305D01*
X350244Y154303D01*
X350226Y154305D01*
X350044Y154284D01*
X349861Y154265D01*
X349844Y154260D01*
X349827Y154258D01*
X349652Y154201D01*
X349476Y154147D01*
X349461Y154139D01*
X349444Y154133D01*
X349284Y154043D01*
X349122Y153955D01*
X349109Y153944D01*
X349093Y153935D01*
X348954Y153815D01*
X348813Y153698D01*
X348802Y153684D01*
X348788Y153672D01*
X348676Y153527D01*
X348561Y153384D01*
X348553Y153368D01*
X348542Y153354D01*
X348460Y153189D01*
X348375Y153027D01*
X348370Y153010D01*
X348362Y152994D01*
X348315Y152815D01*
X348268Y152655D01*
X343235Y147622D01*
X343230Y147615D01*
X343223Y147610D01*
X343103Y147460D01*
X342980Y147311D01*
X342976Y147303D01*
X342971Y147296D01*
X342882Y147126D01*
X342792Y146955D01*
X342789Y146946D01*
X342785Y146939D01*
X342732Y146754D01*
X342677Y146569D01*
X342676Y146560D01*
X342674Y146552D01*
X342658Y146360D01*
X342641Y146168D01*
X342642Y146159D01*
X342641Y146150D01*
X342663Y145961D01*
X342684Y145768D01*
X342687Y145759D01*
X342688Y145751D01*
X342747Y145569D01*
X342805Y145384D01*
X342810Y145376D01*
X342813Y145368D01*
X342908Y145199D01*
X343000Y145032D01*
X343006Y145025D01*
X343010Y145017D01*
X343136Y144871D01*
X343261Y144725D01*
X343268Y144719D01*
X343274Y144712D01*
X343425Y144595D01*
X343577Y144475D01*
X343585Y144471D01*
X343592Y144466D01*
X343764Y144380D01*
X343936Y144293D01*
X343944Y144290D01*
X343952Y144286D01*
X344139Y144236D01*
X344324Y144185D01*
X344332Y144184D01*
X344341Y144182D01*
X344672Y144155D01*
X367542Y144155D01*
X368435Y143262D01*
X368435Y124202D01*
X368436Y124193D01*
X368435Y124184D01*
X368456Y123992D01*
X368475Y123801D01*
X368477Y123793D01*
X368478Y123784D01*
X368536Y123600D01*
X368593Y123416D01*
X368597Y123408D01*
X368600Y123400D01*
X368693Y123231D01*
X368785Y123062D01*
X368790Y123055D01*
X368795Y123047D01*
X368920Y122900D01*
X369042Y122753D01*
X369049Y122747D01*
X369055Y122740D01*
X369207Y122620D01*
X369356Y122501D01*
X369364Y122496D01*
X369371Y122491D01*
X369544Y122403D01*
X369713Y122315D01*
X369722Y122313D01*
X369730Y122309D01*
X369915Y122257D01*
X370100Y122204D01*
X370109Y122203D01*
X370118Y122201D01*
X370310Y122186D01*
X370502Y122171D01*
X370510Y122172D01*
G37*
G36*
X237397Y25052D02*
X237397Y25052D01*
X237415Y25051D01*
X237597Y25074D01*
X237779Y25093D01*
X237797Y25099D01*
X237814Y25101D01*
X237987Y25159D01*
X238163Y25215D01*
X238179Y25224D01*
X238196Y25229D01*
X238354Y25320D01*
X238516Y25410D01*
X238529Y25421D01*
X238545Y25430D01*
X238798Y25645D01*
X238923Y25770D01*
X243296Y27581D01*
X243327Y27591D01*
X243350Y27604D01*
X243376Y27612D01*
X243527Y27699D01*
X243681Y27783D01*
X243701Y27800D01*
X243725Y27813D01*
X243978Y28028D01*
X257028Y41078D01*
X257033Y41085D01*
X257040Y41090D01*
X257160Y41240D01*
X257283Y41389D01*
X257287Y41397D01*
X257293Y41404D01*
X257381Y41574D01*
X257471Y41745D01*
X257474Y41754D01*
X257478Y41761D01*
X257531Y41946D01*
X257586Y42131D01*
X257587Y42140D01*
X257589Y42148D01*
X257605Y42340D01*
X257623Y42532D01*
X257622Y42541D01*
X257622Y42550D01*
X257600Y42738D01*
X257579Y42932D01*
X257576Y42941D01*
X257575Y42949D01*
X257516Y43131D01*
X257458Y43316D01*
X257453Y43324D01*
X257451Y43332D01*
X257356Y43501D01*
X257263Y43668D01*
X257257Y43675D01*
X257253Y43683D01*
X257127Y43829D01*
X257002Y43975D01*
X256995Y43981D01*
X256990Y43988D01*
X256838Y44105D01*
X256686Y44225D01*
X256678Y44229D01*
X256671Y44234D01*
X256499Y44320D01*
X256328Y44407D01*
X256319Y44410D01*
X256311Y44414D01*
X256124Y44464D01*
X255940Y44515D01*
X255931Y44516D01*
X255922Y44518D01*
X255591Y44545D01*
X246438Y44545D01*
X245545Y45438D01*
X245545Y58794D01*
X245543Y58812D01*
X245545Y58830D01*
X245524Y59012D01*
X245505Y59195D01*
X245500Y59212D01*
X245498Y59229D01*
X245441Y59404D01*
X245387Y59580D01*
X245379Y59595D01*
X245373Y59612D01*
X245283Y59772D01*
X245195Y59934D01*
X245184Y59947D01*
X245175Y59963D01*
X245055Y60102D01*
X244938Y60243D01*
X244924Y60254D01*
X244912Y60268D01*
X244767Y60380D01*
X244624Y60495D01*
X244608Y60503D01*
X244594Y60514D01*
X244430Y60596D01*
X244267Y60681D01*
X244250Y60686D01*
X244234Y60694D01*
X244055Y60741D01*
X243880Y60792D01*
X243862Y60794D01*
X243845Y60798D01*
X243587Y60819D01*
X243530Y60859D01*
X243412Y60911D01*
X243299Y60972D01*
X243228Y60992D01*
X243161Y61022D01*
X243036Y61050D01*
X242913Y61086D01*
X242840Y61093D01*
X242768Y61109D01*
X242640Y61111D01*
X242512Y61123D01*
X242439Y61115D01*
X242366Y61116D01*
X242239Y61093D01*
X242112Y61079D01*
X242042Y61057D01*
X241970Y61044D01*
X241850Y60997D01*
X241728Y60958D01*
X241664Y60922D01*
X241595Y60895D01*
X241488Y60825D01*
X241375Y60763D01*
X241319Y60716D01*
X241258Y60676D01*
X241166Y60586D01*
X241068Y60503D01*
X241023Y60445D01*
X240971Y60394D01*
X240898Y60287D01*
X240819Y60187D01*
X240786Y60121D01*
X240744Y60061D01*
X240695Y59942D01*
X240636Y59828D01*
X240617Y59757D01*
X240588Y59690D01*
X240563Y59564D01*
X240528Y59440D01*
X240523Y59367D01*
X240509Y59295D01*
X240508Y59167D01*
X240499Y59038D01*
X240508Y58965D01*
X240508Y58892D01*
X240538Y58725D01*
X240549Y58639D01*
X240560Y58607D01*
X240568Y58566D01*
X240611Y58405D01*
X240611Y55069D01*
X233038Y55069D01*
X233020Y55067D01*
X233003Y55069D01*
X232820Y55048D01*
X232638Y55029D01*
X232621Y55024D01*
X232603Y55022D01*
X232428Y54965D01*
X232253Y54911D01*
X232237Y54903D01*
X232220Y54897D01*
X232071Y54813D01*
X232017Y54840D01*
X231854Y54925D01*
X231837Y54930D01*
X231821Y54938D01*
X231643Y54985D01*
X231468Y55036D01*
X231450Y55038D01*
X231433Y55042D01*
X231102Y55069D01*
X223529Y55069D01*
X223529Y58405D01*
X223702Y59051D01*
X223926Y59438D01*
X223990Y59579D01*
X224060Y59718D01*
X224073Y59763D01*
X224092Y59805D01*
X224127Y59956D01*
X224168Y60106D01*
X224172Y60152D01*
X224182Y60198D01*
X224186Y60352D01*
X224198Y60507D01*
X224192Y60554D01*
X224193Y60600D01*
X224167Y60753D01*
X224147Y60907D01*
X224132Y60951D01*
X224124Y60997D01*
X224068Y61141D01*
X224019Y61288D01*
X223996Y61329D01*
X223979Y61372D01*
X223895Y61503D01*
X223818Y61637D01*
X223784Y61677D01*
X223775Y61691D01*
X223775Y68241D01*
X223774Y68250D01*
X223775Y68259D01*
X223754Y68451D01*
X223735Y68642D01*
X223733Y68650D01*
X223732Y68659D01*
X223674Y68843D01*
X223617Y69027D01*
X223613Y69035D01*
X223610Y69043D01*
X223517Y69212D01*
X223425Y69381D01*
X223420Y69388D01*
X223415Y69396D01*
X223290Y69543D01*
X223168Y69690D01*
X223161Y69696D01*
X223155Y69703D01*
X223003Y69823D01*
X222854Y69942D01*
X222846Y69947D01*
X222839Y69952D01*
X222666Y70040D01*
X222497Y70128D01*
X222488Y70130D01*
X222480Y70134D01*
X222295Y70186D01*
X222110Y70239D01*
X222101Y70240D01*
X222092Y70242D01*
X221900Y70257D01*
X221708Y70272D01*
X221700Y70271D01*
X221691Y70272D01*
X221499Y70248D01*
X221309Y70225D01*
X221300Y70223D01*
X221291Y70221D01*
X221109Y70160D01*
X220926Y70100D01*
X220918Y70096D01*
X220910Y70093D01*
X220742Y69997D01*
X220575Y69903D01*
X220568Y69897D01*
X220561Y69892D01*
X220308Y69678D01*
X219769Y69139D01*
X217259Y68099D01*
X214541Y68099D01*
X212031Y69139D01*
X210109Y71061D01*
X209069Y73571D01*
X209069Y76289D01*
X210109Y78799D01*
X212031Y80721D01*
X214651Y81806D01*
X214658Y81808D01*
X214685Y81812D01*
X214851Y81867D01*
X215018Y81919D01*
X215041Y81932D01*
X215067Y81940D01*
X215218Y82027D01*
X215372Y82111D01*
X215392Y82128D01*
X215416Y82141D01*
X215669Y82356D01*
X223051Y89738D01*
X223068Y89759D01*
X223089Y89777D01*
X223196Y89915D01*
X223306Y90050D01*
X223319Y90074D01*
X223335Y90095D01*
X223413Y90252D01*
X223495Y90406D01*
X223503Y90431D01*
X223515Y90455D01*
X223560Y90625D01*
X223610Y90792D01*
X223612Y90818D01*
X223619Y90844D01*
X223646Y91175D01*
X223646Y98540D01*
X223644Y98560D01*
X223646Y98579D01*
X223624Y98760D01*
X223606Y98941D01*
X223601Y98960D01*
X223598Y98979D01*
X223542Y99152D01*
X223488Y99326D01*
X223479Y99343D01*
X223473Y99362D01*
X223383Y99520D01*
X223296Y99680D01*
X223284Y99695D01*
X223274Y99712D01*
X223155Y99849D01*
X223039Y99989D01*
X223023Y100001D01*
X223010Y100016D01*
X222867Y100127D01*
X222725Y100241D01*
X222708Y100250D01*
X222692Y100263D01*
X222529Y100343D01*
X222368Y100427D01*
X222349Y100432D01*
X222331Y100441D01*
X222155Y100488D01*
X221981Y100538D01*
X221961Y100540D01*
X221942Y100545D01*
X221611Y100572D01*
X213271Y100556D01*
X213247Y100554D01*
X213222Y100556D01*
X213046Y100534D01*
X212871Y100516D01*
X212847Y100508D01*
X212822Y100505D01*
X212655Y100449D01*
X212486Y100397D01*
X212464Y100385D01*
X212441Y100377D01*
X212287Y100289D01*
X212132Y100205D01*
X212113Y100189D01*
X212092Y100176D01*
X211839Y99961D01*
X207479Y95601D01*
X207462Y95581D01*
X207441Y95563D01*
X207334Y95425D01*
X207224Y95290D01*
X207211Y95266D01*
X207195Y95245D01*
X207117Y95088D01*
X207035Y94934D01*
X207027Y94909D01*
X207015Y94885D01*
X206970Y94715D01*
X206920Y94548D01*
X206918Y94522D01*
X206911Y94496D01*
X206884Y94165D01*
X206884Y84458D01*
X205991Y83565D01*
X190249Y83565D01*
X189356Y84458D01*
X189356Y86868D01*
X189354Y86886D01*
X189356Y86904D01*
X189335Y87085D01*
X189316Y87269D01*
X189311Y87286D01*
X189309Y87303D01*
X189252Y87478D01*
X189198Y87654D01*
X189190Y87669D01*
X189184Y87686D01*
X189094Y87846D01*
X189006Y88008D01*
X188995Y88021D01*
X188986Y88037D01*
X188866Y88176D01*
X188749Y88317D01*
X188735Y88328D01*
X188723Y88342D01*
X188578Y88454D01*
X188435Y88569D01*
X188419Y88577D01*
X188405Y88588D01*
X188240Y88670D01*
X188078Y88755D01*
X188061Y88760D01*
X188045Y88768D01*
X187866Y88815D01*
X187691Y88866D01*
X187673Y88868D01*
X187656Y88872D01*
X187325Y88899D01*
X186908Y88899D01*
X168255Y107552D01*
X168234Y107569D01*
X168216Y107590D01*
X168078Y107697D01*
X167943Y107807D01*
X167919Y107820D01*
X167898Y107836D01*
X167741Y107914D01*
X167587Y107996D01*
X167562Y108004D01*
X167538Y108016D01*
X167368Y108061D01*
X167201Y108111D01*
X167175Y108113D01*
X167149Y108120D01*
X166818Y108147D01*
X165685Y108147D01*
X165676Y108146D01*
X165667Y108147D01*
X165475Y108126D01*
X165284Y108107D01*
X165275Y108105D01*
X165267Y108104D01*
X165084Y108046D01*
X164899Y107989D01*
X164891Y107985D01*
X164883Y107982D01*
X164714Y107889D01*
X164545Y107797D01*
X164538Y107792D01*
X164530Y107787D01*
X164382Y107661D01*
X164236Y107540D01*
X164230Y107533D01*
X164223Y107527D01*
X164103Y107375D01*
X163983Y107226D01*
X163979Y107218D01*
X163974Y107211D01*
X163886Y107038D01*
X163798Y106869D01*
X163795Y106860D01*
X163791Y106852D01*
X163740Y106666D01*
X163687Y106482D01*
X163686Y106473D01*
X163683Y106464D01*
X163669Y106271D01*
X163654Y106080D01*
X163655Y106072D01*
X163654Y106063D01*
X163678Y105870D01*
X163701Y105681D01*
X163703Y105672D01*
X163704Y105663D01*
X163766Y105480D01*
X163825Y105298D01*
X163830Y105290D01*
X163833Y105282D01*
X163928Y105116D01*
X164023Y104947D01*
X164029Y104940D01*
X164034Y104933D01*
X164248Y104680D01*
X166180Y102748D01*
X170292Y98636D01*
X172971Y95957D01*
X172971Y84596D01*
X172973Y84578D01*
X172971Y84560D01*
X172992Y84378D01*
X173011Y84195D01*
X173016Y84178D01*
X173018Y84161D01*
X173075Y83986D01*
X173129Y83810D01*
X173137Y83795D01*
X173143Y83778D01*
X173234Y83617D01*
X173321Y83456D01*
X173332Y83443D01*
X173341Y83427D01*
X173461Y83288D01*
X173578Y83147D01*
X173592Y83136D01*
X173604Y83122D01*
X173749Y83010D01*
X173892Y82895D01*
X173908Y82887D01*
X173922Y82876D01*
X174087Y82794D01*
X174249Y82709D01*
X174266Y82704D01*
X174282Y82696D01*
X174461Y82649D01*
X174636Y82598D01*
X174654Y82596D01*
X174671Y82592D01*
X175002Y82565D01*
X178650Y82565D01*
X179543Y81672D01*
X179543Y79342D01*
X179545Y79324D01*
X179543Y79306D01*
X179564Y79124D01*
X179583Y78941D01*
X179588Y78924D01*
X179590Y78907D01*
X179647Y78732D01*
X179701Y78556D01*
X179709Y78541D01*
X179715Y78524D01*
X179805Y78363D01*
X179893Y78202D01*
X179904Y78189D01*
X179913Y78173D01*
X180033Y78034D01*
X180150Y77893D01*
X180164Y77882D01*
X180176Y77868D01*
X180321Y77756D01*
X180464Y77641D01*
X180480Y77633D01*
X180494Y77622D01*
X180644Y77547D01*
X182964Y75227D01*
X201875Y56316D01*
X201896Y56299D01*
X201914Y56278D01*
X202052Y56171D01*
X202187Y56061D01*
X202211Y56048D01*
X202232Y56032D01*
X202388Y55954D01*
X202543Y55872D01*
X202568Y55864D01*
X202592Y55852D01*
X202762Y55807D01*
X202929Y55757D01*
X202955Y55755D01*
X202981Y55748D01*
X203312Y55721D01*
X215283Y55721D01*
X221339Y49666D01*
X221359Y49649D01*
X221377Y49628D01*
X221515Y49521D01*
X221650Y49411D01*
X221674Y49398D01*
X221695Y49382D01*
X221852Y49304D01*
X222006Y49222D01*
X222031Y49214D01*
X222055Y49202D01*
X222225Y49157D01*
X222392Y49107D01*
X222418Y49105D01*
X222444Y49098D01*
X222775Y49071D01*
X231102Y49071D01*
X231120Y49072D01*
X231137Y49071D01*
X231320Y49092D01*
X231502Y49111D01*
X231519Y49116D01*
X231537Y49118D01*
X231712Y49175D01*
X231887Y49229D01*
X231903Y49237D01*
X231920Y49243D01*
X232069Y49327D01*
X232123Y49300D01*
X232286Y49215D01*
X232303Y49210D01*
X232319Y49202D01*
X232497Y49154D01*
X232672Y49104D01*
X232690Y49102D01*
X232707Y49098D01*
X233038Y49071D01*
X240611Y49071D01*
X240611Y45735D01*
X240438Y45089D01*
X240103Y44510D01*
X239579Y43986D01*
X239565Y43969D01*
X239548Y43955D01*
X239438Y43814D01*
X239324Y43675D01*
X239314Y43655D01*
X239300Y43638D01*
X239220Y43478D01*
X239136Y43319D01*
X239129Y43298D01*
X239119Y43278D01*
X239072Y43105D01*
X239021Y42933D01*
X239019Y42911D01*
X239013Y42889D01*
X239001Y42710D01*
X238985Y42532D01*
X238987Y42510D01*
X238985Y42488D01*
X239009Y42310D01*
X239028Y42132D01*
X239035Y42111D01*
X239038Y42089D01*
X239139Y41773D01*
X240131Y39379D01*
X240131Y36661D01*
X239091Y34151D01*
X237169Y32229D01*
X234442Y31100D01*
X234431Y31093D01*
X234418Y31089D01*
X234253Y30998D01*
X234087Y30909D01*
X234077Y30901D01*
X234065Y30894D01*
X233922Y30773D01*
X233777Y30653D01*
X233769Y30643D01*
X233758Y30634D01*
X233642Y30486D01*
X233523Y30340D01*
X233517Y30329D01*
X233509Y30318D01*
X233423Y30150D01*
X233336Y29984D01*
X233333Y29971D01*
X233326Y29959D01*
X233276Y29777D01*
X233223Y29597D01*
X233222Y29584D01*
X233218Y29571D01*
X233205Y29383D01*
X233189Y29196D01*
X233190Y29183D01*
X233189Y29170D01*
X233213Y28982D01*
X233234Y28796D01*
X233238Y28784D01*
X233239Y28770D01*
X233299Y28592D01*
X233357Y28413D01*
X233363Y28401D01*
X233368Y28389D01*
X233462Y28225D01*
X233553Y28061D01*
X233562Y28051D01*
X233569Y28040D01*
X233783Y27787D01*
X235925Y25645D01*
X235939Y25634D01*
X235951Y25620D01*
X236095Y25506D01*
X236237Y25390D01*
X236252Y25381D01*
X236266Y25370D01*
X236431Y25287D01*
X236592Y25201D01*
X236609Y25196D01*
X236625Y25188D01*
X236802Y25139D01*
X236978Y25086D01*
X236996Y25085D01*
X237013Y25080D01*
X237196Y25067D01*
X237379Y25050D01*
X237397Y25052D01*
G37*
G36*
X193820Y13972D02*
X193820Y13972D01*
X193837Y13971D01*
X194020Y13992D01*
X194202Y14011D01*
X194219Y14016D01*
X194237Y14018D01*
X194412Y14075D01*
X194587Y14129D01*
X194603Y14137D01*
X194620Y14143D01*
X194780Y14233D01*
X194941Y14320D01*
X194955Y14332D01*
X194971Y14341D01*
X195110Y14461D01*
X195251Y14578D01*
X195262Y14592D01*
X195275Y14604D01*
X195388Y14749D01*
X195503Y14892D01*
X195511Y14908D01*
X195522Y14922D01*
X195604Y15087D01*
X195644Y15163D01*
X195796Y15249D01*
X195958Y15337D01*
X195971Y15348D01*
X195987Y15357D01*
X196126Y15477D01*
X196267Y15595D01*
X196278Y15608D01*
X196292Y15620D01*
X196404Y15765D01*
X196519Y15908D01*
X196527Y15924D01*
X196538Y15938D01*
X196620Y16103D01*
X196705Y16266D01*
X196710Y16283D01*
X196718Y16299D01*
X196765Y16477D01*
X196816Y16652D01*
X196818Y16670D01*
X196822Y16687D01*
X196849Y17018D01*
X196849Y28195D01*
X197106Y28155D01*
X198893Y27574D01*
X200567Y26721D01*
X202088Y25616D01*
X203416Y24288D01*
X204521Y22767D01*
X205374Y21093D01*
X205612Y20361D01*
X205648Y20279D01*
X205674Y20195D01*
X205728Y20096D01*
X205774Y19992D01*
X205825Y19919D01*
X205867Y19842D01*
X205940Y19755D01*
X206005Y19663D01*
X206069Y19601D01*
X206126Y19533D01*
X206215Y19463D01*
X206297Y19385D01*
X206372Y19338D01*
X206441Y19282D01*
X206542Y19231D01*
X206637Y19171D01*
X206720Y19139D01*
X206799Y19099D01*
X206908Y19068D01*
X207014Y19028D01*
X207102Y19013D01*
X207187Y18989D01*
X207299Y18980D01*
X207411Y18962D01*
X207500Y18965D01*
X207588Y18958D01*
X207700Y18971D01*
X207813Y18975D01*
X207900Y18996D01*
X207988Y19006D01*
X208095Y19042D01*
X208205Y19068D01*
X208286Y19105D01*
X208370Y19133D01*
X208468Y19189D01*
X208571Y19236D01*
X208643Y19288D01*
X208720Y19332D01*
X208805Y19407D01*
X208896Y19473D01*
X208956Y19538D01*
X209023Y19597D01*
X209092Y19686D01*
X209169Y19770D01*
X209215Y19846D01*
X209269Y19916D01*
X209333Y20042D01*
X209377Y20114D01*
X209393Y20157D01*
X209420Y20211D01*
X210450Y22697D01*
X213523Y25770D01*
X217537Y27433D01*
X219173Y27433D01*
X219182Y27434D01*
X219191Y27433D01*
X219385Y27454D01*
X219574Y27473D01*
X219582Y27475D01*
X219591Y27476D01*
X219775Y27534D01*
X219959Y27591D01*
X219967Y27595D01*
X219975Y27598D01*
X220143Y27690D01*
X220313Y27783D01*
X220320Y27788D01*
X220328Y27793D01*
X220475Y27917D01*
X220622Y28040D01*
X220628Y28047D01*
X220635Y28053D01*
X220754Y28204D01*
X220875Y28354D01*
X220879Y28362D01*
X220884Y28369D01*
X220972Y28541D01*
X221060Y28711D01*
X221063Y28720D01*
X221067Y28728D01*
X221119Y28914D01*
X221171Y29098D01*
X221172Y29107D01*
X221175Y29116D01*
X221189Y29309D01*
X221204Y29500D01*
X221203Y29508D01*
X221204Y29517D01*
X221180Y29708D01*
X221157Y29899D01*
X221155Y29908D01*
X221154Y29917D01*
X221092Y30100D01*
X221033Y30282D01*
X221028Y30290D01*
X221025Y30298D01*
X220929Y30465D01*
X220835Y30633D01*
X220829Y30640D01*
X220824Y30647D01*
X220610Y30900D01*
X209942Y41568D01*
X209921Y41585D01*
X209903Y41606D01*
X209766Y41713D01*
X209630Y41823D01*
X209607Y41836D01*
X209585Y41852D01*
X209428Y41930D01*
X209274Y42012D01*
X209249Y42020D01*
X209225Y42032D01*
X209055Y42077D01*
X208889Y42127D01*
X208862Y42129D01*
X208836Y42136D01*
X208505Y42163D01*
X193546Y42163D01*
X193528Y42161D01*
X193510Y42163D01*
X193328Y42142D01*
X193145Y42123D01*
X193128Y42118D01*
X193111Y42116D01*
X192936Y42059D01*
X192760Y42005D01*
X192745Y41997D01*
X192728Y41991D01*
X192568Y41901D01*
X192406Y41813D01*
X192393Y41802D01*
X192377Y41793D01*
X192238Y41673D01*
X192097Y41556D01*
X192086Y41542D01*
X192072Y41530D01*
X191960Y41385D01*
X191845Y41242D01*
X191837Y41226D01*
X191826Y41212D01*
X191744Y41047D01*
X191659Y40885D01*
X191654Y40868D01*
X191646Y40852D01*
X191599Y40673D01*
X191548Y40498D01*
X191546Y40480D01*
X191542Y40463D01*
X191515Y40132D01*
X191515Y37588D01*
X190622Y36695D01*
X176358Y36695D01*
X176129Y36925D01*
X176065Y36977D01*
X176008Y37036D01*
X175910Y37104D01*
X175817Y37180D01*
X175745Y37219D01*
X175677Y37265D01*
X175567Y37313D01*
X175461Y37369D01*
X175383Y37392D01*
X175307Y37425D01*
X175190Y37449D01*
X175076Y37483D01*
X174993Y37491D01*
X174913Y37508D01*
X174794Y37509D01*
X174675Y37520D01*
X174593Y37511D01*
X174510Y37512D01*
X174393Y37489D01*
X174274Y37476D01*
X174196Y37452D01*
X174115Y37436D01*
X174004Y37391D01*
X173890Y37355D01*
X173818Y37315D01*
X173742Y37284D01*
X173643Y37218D01*
X173538Y37160D01*
X173475Y37107D01*
X173407Y37061D01*
X173322Y36977D01*
X173231Y36900D01*
X173180Y36835D01*
X173122Y36777D01*
X173081Y36718D01*
X172550Y36187D01*
X171971Y35852D01*
X171325Y35679D01*
X167739Y35679D01*
X167739Y42471D01*
X173434Y42471D01*
X173452Y42472D01*
X173470Y42471D01*
X173652Y42492D01*
X173835Y42511D01*
X173852Y42516D01*
X173869Y42518D01*
X174044Y42575D01*
X174220Y42629D01*
X174235Y42637D01*
X174252Y42643D01*
X174412Y42733D01*
X174574Y42820D01*
X174587Y42832D01*
X174603Y42841D01*
X174742Y42961D01*
X174883Y43078D01*
X174894Y43092D01*
X174908Y43104D01*
X175020Y43249D01*
X175135Y43392D01*
X175143Y43408D01*
X175154Y43422D01*
X175236Y43587D01*
X175321Y43749D01*
X175326Y43766D01*
X175334Y43782D01*
X175381Y43961D01*
X175432Y44136D01*
X175434Y44154D01*
X175438Y44171D01*
X175465Y44502D01*
X175465Y46938D01*
X175463Y46956D01*
X175465Y46974D01*
X175444Y47156D01*
X175425Y47339D01*
X175420Y47356D01*
X175418Y47373D01*
X175361Y47548D01*
X175307Y47724D01*
X175299Y47739D01*
X175293Y47756D01*
X175203Y47916D01*
X175115Y48078D01*
X175104Y48091D01*
X175095Y48107D01*
X174975Y48246D01*
X174858Y48387D01*
X174844Y48398D01*
X174832Y48412D01*
X174687Y48524D01*
X174544Y48639D01*
X174528Y48647D01*
X174514Y48658D01*
X174349Y48740D01*
X174187Y48825D01*
X174170Y48830D01*
X174154Y48838D01*
X173975Y48885D01*
X173800Y48936D01*
X173782Y48938D01*
X173765Y48942D01*
X173434Y48969D01*
X165708Y48969D01*
X165690Y48967D01*
X165673Y48969D01*
X165490Y48948D01*
X165308Y48929D01*
X165291Y48924D01*
X165273Y48922D01*
X165098Y48865D01*
X164923Y48811D01*
X164907Y48803D01*
X164890Y48797D01*
X164730Y48707D01*
X164569Y48619D01*
X164555Y48608D01*
X164539Y48599D01*
X164487Y48554D01*
X164382Y48639D01*
X164366Y48647D01*
X164352Y48658D01*
X164187Y48740D01*
X164024Y48825D01*
X164007Y48830D01*
X163991Y48838D01*
X163813Y48885D01*
X163638Y48936D01*
X163620Y48938D01*
X163603Y48942D01*
X163272Y48969D01*
X155449Y48969D01*
X155449Y53555D01*
X155622Y54201D01*
X155957Y54780D01*
X156430Y55253D01*
X157009Y55588D01*
X157612Y55749D01*
X157749Y55801D01*
X157888Y55845D01*
X157937Y55872D01*
X157989Y55891D01*
X158113Y55969D01*
X158240Y56040D01*
X158283Y56075D01*
X158330Y56105D01*
X158436Y56206D01*
X158547Y56300D01*
X158582Y56344D01*
X158622Y56382D01*
X158706Y56501D01*
X158797Y56616D01*
X158822Y56666D01*
X158854Y56711D01*
X158913Y56845D01*
X158979Y56975D01*
X158994Y57028D01*
X159017Y57079D01*
X159048Y57222D01*
X159087Y57363D01*
X159091Y57418D01*
X159103Y57472D01*
X159106Y57618D01*
X159117Y57764D01*
X159110Y57820D01*
X159111Y57875D01*
X159085Y58019D01*
X159066Y58164D01*
X159049Y58216D01*
X159039Y58271D01*
X158985Y58407D01*
X158938Y58546D01*
X158910Y58594D01*
X158890Y58645D01*
X158810Y58767D01*
X158737Y58894D01*
X158696Y58943D01*
X158670Y58983D01*
X158612Y59042D01*
X158522Y59147D01*
X158039Y59631D01*
X156999Y62141D01*
X156999Y64859D01*
X157344Y65691D01*
X157348Y65704D01*
X157354Y65715D01*
X157406Y65896D01*
X157460Y66076D01*
X157462Y66089D01*
X157465Y66102D01*
X157481Y66291D01*
X157498Y66477D01*
X157497Y66490D01*
X157498Y66504D01*
X157478Y66673D01*
X157559Y66749D01*
X157679Y66853D01*
X157706Y66887D01*
X157737Y66917D01*
X157829Y67046D01*
X157926Y67171D01*
X157945Y67210D01*
X157970Y67245D01*
X158084Y67489D01*
X158105Y67532D01*
X158106Y67532D01*
X158107Y67539D01*
X158111Y67546D01*
X158160Y67733D01*
X158210Y67921D01*
X158211Y67929D01*
X158213Y67936D01*
X158215Y67983D01*
X158237Y68252D01*
X158237Y76040D01*
X158237Y83581D01*
X158541Y83581D01*
X159187Y83408D01*
X159771Y83070D01*
X159778Y83062D01*
X159916Y82955D01*
X160051Y82845D01*
X160075Y82832D01*
X160096Y82816D01*
X160253Y82738D01*
X160407Y82656D01*
X160432Y82648D01*
X160456Y82636D01*
X160626Y82591D01*
X160793Y82541D01*
X160819Y82539D01*
X160845Y82532D01*
X161176Y82505D01*
X163826Y82505D01*
X163844Y82507D01*
X163862Y82505D01*
X164044Y82526D01*
X164227Y82545D01*
X164244Y82550D01*
X164261Y82552D01*
X164436Y82609D01*
X164612Y82663D01*
X164627Y82671D01*
X164644Y82677D01*
X164804Y82767D01*
X164966Y82855D01*
X164979Y82866D01*
X164995Y82875D01*
X165134Y82995D01*
X165275Y83112D01*
X165286Y83126D01*
X165300Y83138D01*
X165412Y83283D01*
X165527Y83426D01*
X165535Y83442D01*
X165546Y83456D01*
X165628Y83621D01*
X165713Y83783D01*
X165718Y83800D01*
X165726Y83816D01*
X165773Y83995D01*
X165824Y84170D01*
X165826Y84188D01*
X165830Y84205D01*
X165857Y84536D01*
X165857Y92169D01*
X165855Y92196D01*
X165857Y92223D01*
X165835Y92397D01*
X165817Y92570D01*
X165810Y92595D01*
X165806Y92622D01*
X165751Y92787D01*
X165699Y92955D01*
X165686Y92979D01*
X165678Y93004D01*
X165591Y93155D01*
X165507Y93309D01*
X165490Y93329D01*
X165477Y93353D01*
X165262Y93606D01*
X161150Y97718D01*
X161129Y97735D01*
X161112Y97756D01*
X160974Y97863D01*
X160838Y97973D01*
X160815Y97986D01*
X160793Y98002D01*
X160637Y98080D01*
X160483Y98162D01*
X160457Y98170D01*
X160433Y98182D01*
X160264Y98227D01*
X160097Y98277D01*
X160070Y98279D01*
X160044Y98286D01*
X159713Y98313D01*
X149827Y98313D01*
X149813Y98312D01*
X149800Y98313D01*
X149614Y98292D01*
X149426Y98273D01*
X149413Y98269D01*
X149400Y98268D01*
X149221Y98210D01*
X149041Y98155D01*
X149029Y98149D01*
X149016Y98145D01*
X148852Y98053D01*
X148687Y97963D01*
X148677Y97955D01*
X148665Y97948D01*
X148522Y97826D01*
X148378Y97706D01*
X148369Y97695D01*
X148359Y97687D01*
X148243Y97538D01*
X148125Y97392D01*
X148119Y97380D01*
X148111Y97370D01*
X148026Y97201D01*
X147940Y97035D01*
X147936Y97022D01*
X147930Y97010D01*
X147880Y96828D01*
X147828Y96648D01*
X147827Y96634D01*
X147824Y96621D01*
X147811Y96433D01*
X147796Y96246D01*
X147797Y96233D01*
X147796Y96220D01*
X147821Y96032D01*
X147842Y95847D01*
X147847Y95834D01*
X147848Y95821D01*
X147950Y95505D01*
X149071Y92799D01*
X149071Y90081D01*
X148031Y87571D01*
X146492Y86032D01*
X146487Y86025D01*
X146480Y86020D01*
X146360Y85870D01*
X146237Y85721D01*
X146233Y85713D01*
X146228Y85706D01*
X146139Y85536D01*
X146049Y85365D01*
X146046Y85356D01*
X146042Y85349D01*
X145989Y85164D01*
X145934Y84979D01*
X145933Y84970D01*
X145931Y84962D01*
X145915Y84769D01*
X145898Y84578D01*
X145898Y84569D01*
X145898Y84560D01*
X145920Y84371D01*
X145941Y84178D01*
X145944Y84169D01*
X145945Y84161D01*
X146004Y83978D01*
X146062Y83794D01*
X146067Y83786D01*
X146070Y83778D01*
X146164Y83611D01*
X146257Y83442D01*
X146263Y83435D01*
X146267Y83427D01*
X146393Y83282D01*
X146518Y83135D01*
X146525Y83129D01*
X146531Y83122D01*
X146681Y83006D01*
X146834Y82885D01*
X146842Y82881D01*
X146849Y82876D01*
X147020Y82790D01*
X147193Y82703D01*
X147201Y82700D01*
X147209Y82696D01*
X147395Y82646D01*
X147580Y82595D01*
X147589Y82594D01*
X147598Y82592D01*
X147929Y82565D01*
X151296Y82565D01*
X151323Y82567D01*
X151350Y82565D01*
X151523Y82587D01*
X151697Y82605D01*
X151722Y82612D01*
X151749Y82616D01*
X151915Y82671D01*
X152082Y82723D01*
X152105Y82736D01*
X152131Y82744D01*
X152282Y82831D01*
X152436Y82915D01*
X152456Y82932D01*
X152480Y82945D01*
X152598Y83045D01*
X153225Y83408D01*
X153871Y83581D01*
X154175Y83581D01*
X154175Y76040D01*
X154175Y68499D01*
X153872Y68499D01*
X153688Y68549D01*
X153607Y68562D01*
X153528Y68585D01*
X153408Y68594D01*
X153290Y68614D01*
X153208Y68611D01*
X153126Y68617D01*
X153008Y68603D01*
X152888Y68599D01*
X152808Y68580D01*
X152727Y68571D01*
X152613Y68533D01*
X152496Y68506D01*
X152422Y68471D01*
X152344Y68446D01*
X152240Y68387D01*
X152131Y68337D01*
X152065Y68288D01*
X151993Y68248D01*
X151903Y68170D01*
X151806Y68099D01*
X151751Y68038D01*
X151688Y67985D01*
X151615Y67890D01*
X151534Y67802D01*
X151492Y67731D01*
X151442Y67667D01*
X151388Y67560D01*
X151327Y67457D01*
X151299Y67380D01*
X151262Y67306D01*
X151231Y67190D01*
X151191Y67078D01*
X151179Y66997D01*
X151158Y66917D01*
X151145Y66765D01*
X151133Y66679D01*
X151135Y66639D01*
X151131Y66586D01*
X151131Y38724D01*
X151133Y38697D01*
X151131Y38670D01*
X151153Y38497D01*
X151171Y38323D01*
X151178Y38298D01*
X151182Y38271D01*
X151237Y38105D01*
X151289Y37938D01*
X151302Y37915D01*
X151310Y37889D01*
X151397Y37738D01*
X151481Y37584D01*
X151498Y37564D01*
X151511Y37540D01*
X151726Y37287D01*
X151982Y37031D01*
X151989Y37026D01*
X151994Y37019D01*
X152145Y36898D01*
X152293Y36776D01*
X152301Y36772D01*
X152308Y36767D01*
X152479Y36678D01*
X152649Y36588D01*
X152657Y36585D01*
X152665Y36581D01*
X152851Y36528D01*
X153035Y36473D01*
X153044Y36472D01*
X153052Y36470D01*
X153244Y36454D01*
X153436Y36437D01*
X153445Y36438D01*
X153454Y36437D01*
X153643Y36459D01*
X153836Y36480D01*
X153845Y36483D01*
X153853Y36484D01*
X154035Y36543D01*
X154220Y36601D01*
X154228Y36606D01*
X154236Y36609D01*
X154405Y36704D01*
X154572Y36796D01*
X154579Y36802D01*
X154587Y36806D01*
X154733Y36932D01*
X154879Y37057D01*
X154885Y37064D01*
X154892Y37070D01*
X155009Y37221D01*
X155129Y37373D01*
X155133Y37381D01*
X155138Y37388D01*
X155224Y37560D01*
X155311Y37732D01*
X155314Y37740D01*
X155318Y37748D01*
X155368Y37935D01*
X155419Y38120D01*
X155420Y38128D01*
X155422Y38137D01*
X155449Y38468D01*
X155449Y42471D01*
X161241Y42471D01*
X161241Y35679D01*
X158238Y35679D01*
X158229Y35678D01*
X158220Y35679D01*
X158027Y35658D01*
X157837Y35639D01*
X157829Y35637D01*
X157820Y35636D01*
X157635Y35577D01*
X157452Y35521D01*
X157444Y35517D01*
X157436Y35514D01*
X157268Y35421D01*
X157098Y35329D01*
X157091Y35324D01*
X157084Y35319D01*
X156936Y35195D01*
X156789Y35072D01*
X156783Y35065D01*
X156777Y35059D01*
X156657Y34907D01*
X156537Y34758D01*
X156532Y34750D01*
X156527Y34743D01*
X156439Y34570D01*
X156351Y34401D01*
X156349Y34392D01*
X156345Y34384D01*
X156293Y34198D01*
X156240Y34014D01*
X156239Y34005D01*
X156237Y33996D01*
X156222Y33802D01*
X156207Y33612D01*
X156208Y33604D01*
X156207Y33595D01*
X156231Y33402D01*
X156254Y33213D01*
X156256Y33204D01*
X156258Y33195D01*
X156319Y33013D01*
X156379Y32830D01*
X156383Y32822D01*
X156386Y32814D01*
X156482Y32647D01*
X156576Y32479D01*
X156582Y32472D01*
X156587Y32465D01*
X156801Y32212D01*
X162131Y26882D01*
X162148Y26868D01*
X162163Y26851D01*
X162304Y26741D01*
X162443Y26627D01*
X162462Y26617D01*
X162480Y26603D01*
X162641Y26522D01*
X162798Y26438D01*
X162820Y26432D01*
X162840Y26422D01*
X163013Y26375D01*
X163184Y26324D01*
X163206Y26322D01*
X163228Y26316D01*
X163407Y26303D01*
X163585Y26287D01*
X163607Y26290D01*
X163630Y26288D01*
X163807Y26311D01*
X163985Y26331D01*
X164007Y26337D01*
X164029Y26340D01*
X164345Y26442D01*
X166737Y27433D01*
X171083Y27433D01*
X175097Y25770D01*
X178170Y22697D01*
X179200Y20211D01*
X179242Y20133D01*
X179275Y20050D01*
X179337Y19956D01*
X179390Y19856D01*
X179446Y19788D01*
X179495Y19713D01*
X179574Y19633D01*
X179646Y19546D01*
X179715Y19490D01*
X179778Y19427D01*
X179871Y19363D01*
X179959Y19292D01*
X180037Y19251D01*
X180111Y19201D01*
X180215Y19158D01*
X180315Y19105D01*
X180401Y19080D01*
X180483Y19046D01*
X180593Y19024D01*
X180702Y18992D01*
X180790Y18984D01*
X180877Y18967D01*
X180991Y18967D01*
X181103Y18957D01*
X181191Y18967D01*
X181280Y18967D01*
X181391Y18990D01*
X181392Y18990D01*
X181254Y18945D01*
X181078Y18891D01*
X181063Y18883D01*
X181046Y18877D01*
X180886Y18787D01*
X180724Y18699D01*
X180711Y18688D01*
X180695Y18679D01*
X180556Y18559D01*
X180415Y18442D01*
X180404Y18428D01*
X180390Y18416D01*
X180278Y18271D01*
X180163Y18128D01*
X180155Y18112D01*
X180144Y18098D01*
X180062Y17933D01*
X179977Y17771D01*
X179972Y17754D01*
X179964Y17738D01*
X179917Y17559D01*
X179866Y17384D01*
X179864Y17366D01*
X179860Y17349D01*
X179833Y17018D01*
X179833Y16002D01*
X179835Y15984D01*
X179833Y15966D01*
X179854Y15784D01*
X179873Y15601D01*
X179878Y15584D01*
X179880Y15567D01*
X179937Y15392D01*
X179991Y15216D01*
X179999Y15201D01*
X180005Y15184D01*
X180095Y15024D01*
X180183Y14862D01*
X180194Y14849D01*
X180203Y14833D01*
X180323Y14694D01*
X180440Y14553D01*
X180454Y14542D01*
X180466Y14528D01*
X180611Y14416D01*
X180754Y14301D01*
X180770Y14293D01*
X180784Y14282D01*
X180949Y14200D01*
X181111Y14115D01*
X181128Y14110D01*
X181144Y14102D01*
X181323Y14054D01*
X181498Y14004D01*
X181516Y14002D01*
X181533Y13998D01*
X181864Y13971D01*
X193802Y13971D01*
X193820Y13972D01*
G37*
%LPC*%
G36*
X396278Y31105D02*
X396278Y31105D01*
X395385Y31998D01*
X395385Y53262D01*
X396278Y54155D01*
X422542Y54155D01*
X423435Y53262D01*
X423435Y31998D01*
X422542Y31105D01*
X396278Y31105D01*
G37*
%LPD*%
%LPC*%
G36*
X287855Y107671D02*
X287855Y107671D01*
X287209Y107844D01*
X286630Y108178D01*
X286068Y108740D01*
X286054Y108751D01*
X286043Y108765D01*
X285898Y108879D01*
X285756Y108995D01*
X285741Y109004D01*
X285727Y109015D01*
X285562Y109098D01*
X285401Y109184D01*
X285384Y109189D01*
X285368Y109197D01*
X285190Y109246D01*
X285015Y109299D01*
X284997Y109300D01*
X284980Y109305D01*
X284797Y109318D01*
X284614Y109335D01*
X284596Y109333D01*
X284578Y109334D01*
X284396Y109311D01*
X284214Y109292D01*
X284197Y109286D01*
X284179Y109284D01*
X284005Y109226D01*
X283830Y109170D01*
X283814Y109161D01*
X283797Y109156D01*
X283638Y109064D01*
X283477Y108975D01*
X283464Y108964D01*
X283448Y108955D01*
X283195Y108740D01*
X283142Y108687D01*
X277878Y108687D01*
X276946Y109619D01*
X276933Y109630D01*
X276921Y109644D01*
X276777Y109758D01*
X276635Y109874D01*
X276619Y109882D01*
X276605Y109893D01*
X276441Y109977D01*
X276279Y110062D01*
X276262Y110067D01*
X276246Y110076D01*
X276069Y110125D01*
X275893Y110177D01*
X275875Y110179D01*
X275858Y110184D01*
X275675Y110197D01*
X275492Y110214D01*
X275474Y110212D01*
X275457Y110213D01*
X275275Y110190D01*
X275092Y110170D01*
X275075Y110165D01*
X275057Y110162D01*
X274883Y110104D01*
X274708Y110049D01*
X274692Y110040D01*
X274676Y110034D01*
X274517Y109943D01*
X274356Y109854D01*
X274342Y109842D01*
X274327Y109833D01*
X274074Y109619D01*
X273142Y108687D01*
X267878Y108687D01*
X266985Y109580D01*
X266985Y125843D01*
X267878Y126736D01*
X273142Y126736D01*
X274074Y125804D01*
X274087Y125793D01*
X274099Y125779D01*
X274244Y125665D01*
X274385Y125549D01*
X274401Y125540D01*
X274415Y125529D01*
X274579Y125446D01*
X274741Y125360D01*
X274758Y125355D01*
X274774Y125347D01*
X274951Y125298D01*
X275127Y125245D01*
X275145Y125244D01*
X275162Y125239D01*
X275345Y125226D01*
X275528Y125209D01*
X275546Y125211D01*
X275563Y125210D01*
X275745Y125233D01*
X275928Y125252D01*
X275945Y125258D01*
X275963Y125260D01*
X276136Y125318D01*
X276312Y125374D01*
X276328Y125383D01*
X276344Y125388D01*
X276503Y125480D01*
X276664Y125569D01*
X276678Y125580D01*
X276693Y125589D01*
X276946Y125804D01*
X277878Y126736D01*
X283142Y126736D01*
X283195Y126682D01*
X283209Y126671D01*
X283221Y126657D01*
X283365Y126544D01*
X283507Y126427D01*
X283523Y126419D01*
X283537Y126408D01*
X283700Y126325D01*
X283862Y126239D01*
X283880Y126233D01*
X283896Y126225D01*
X284072Y126176D01*
X284248Y126124D01*
X284266Y126122D01*
X284283Y126117D01*
X284466Y126104D01*
X284649Y126087D01*
X284667Y126089D01*
X284685Y126088D01*
X284867Y126111D01*
X285050Y126131D01*
X285067Y126136D01*
X285084Y126138D01*
X285258Y126197D01*
X285433Y126252D01*
X285449Y126261D01*
X285466Y126267D01*
X285626Y126359D01*
X285786Y126447D01*
X285799Y126459D01*
X285815Y126468D01*
X286068Y126682D01*
X286630Y127244D01*
X287209Y127579D01*
X287855Y127752D01*
X288159Y127752D01*
X288159Y117712D01*
X288159Y117711D01*
X288159Y107671D01*
X287855Y107671D01*
G37*
%LPD*%
%LPC*%
G36*
X378117Y59129D02*
X378117Y59129D01*
X375728Y60119D01*
X373899Y61948D01*
X372909Y64337D01*
X372909Y66923D01*
X373899Y69312D01*
X375728Y71141D01*
X375921Y71221D01*
X378117Y72131D01*
X380703Y72131D01*
X383092Y71141D01*
X384921Y69312D01*
X385911Y66923D01*
X385911Y64337D01*
X384921Y61948D01*
X383092Y60119D01*
X380703Y59129D01*
X378117Y59129D01*
G37*
%LPD*%
%LPC*%
G36*
X318514Y157265D02*
X318514Y157265D01*
X316727Y157846D01*
X315053Y158699D01*
X313532Y159804D01*
X312204Y161132D01*
X311099Y162653D01*
X310420Y163986D01*
X310392Y164029D01*
X310371Y164076D01*
X310284Y164198D01*
X310202Y164325D01*
X310167Y164361D01*
X310137Y164403D01*
X310027Y164506D01*
X309922Y164614D01*
X309880Y164643D01*
X309843Y164678D01*
X309715Y164757D01*
X309591Y164842D01*
X309544Y164863D01*
X309500Y164889D01*
X309359Y164942D01*
X309221Y165001D01*
X309171Y165011D01*
X309123Y165029D01*
X308974Y165053D01*
X308827Y165083D01*
X308776Y165084D01*
X308725Y165092D01*
X308574Y165085D01*
X308424Y165086D01*
X308374Y165077D01*
X308323Y165075D01*
X308176Y165038D01*
X308029Y165010D01*
X307982Y164991D01*
X307932Y164978D01*
X307796Y164914D01*
X307656Y164857D01*
X307614Y164829D01*
X307567Y164807D01*
X307447Y164717D01*
X307321Y164634D01*
X307285Y164597D01*
X307244Y164567D01*
X307143Y164456D01*
X307037Y164349D01*
X307009Y164306D01*
X306974Y164268D01*
X306853Y164072D01*
X306814Y164013D01*
X306809Y164000D01*
X306800Y163986D01*
X306121Y162653D01*
X305016Y161132D01*
X303688Y159804D01*
X302167Y158699D01*
X300493Y157846D01*
X298706Y157265D01*
X298449Y157225D01*
X298449Y166371D01*
X318771Y166371D01*
X318771Y157225D01*
X318514Y157265D01*
G37*
%LPD*%
%LPC*%
G36*
X56069Y65209D02*
X56069Y65209D01*
X56069Y75251D01*
X60405Y75251D01*
X61051Y75078D01*
X61630Y74743D01*
X62103Y74270D01*
X62438Y73691D01*
X62611Y73045D01*
X62611Y65209D01*
X56069Y65209D01*
G37*
%LPD*%
%LPC*%
G36*
X56069Y47169D02*
X56069Y47169D01*
X56069Y57211D01*
X62611Y57211D01*
X62611Y49375D01*
X62438Y48729D01*
X62103Y48150D01*
X61630Y47677D01*
X61051Y47342D01*
X60405Y47169D01*
X56069Y47169D01*
G37*
%LPD*%
%LPC*%
G36*
X43735Y47169D02*
X43735Y47169D01*
X43089Y47342D01*
X42510Y47677D01*
X42037Y48150D01*
X41702Y48729D01*
X41529Y49375D01*
X41529Y57211D01*
X48071Y57211D01*
X48071Y47169D01*
X43735Y47169D01*
G37*
%LPD*%
%LPC*%
G36*
X181588Y19030D02*
X181588Y19030D01*
X181675Y19047D01*
X181779Y19091D01*
X181886Y19126D01*
X181964Y19169D01*
X182046Y19203D01*
X182139Y19267D01*
X182238Y19322D01*
X182305Y19380D01*
X182379Y19430D01*
X182458Y19510D01*
X182544Y19584D01*
X182598Y19654D01*
X182661Y19717D01*
X182722Y19812D01*
X182792Y19901D01*
X182832Y19980D01*
X182880Y20055D01*
X182935Y20185D01*
X182973Y20261D01*
X182985Y20305D01*
X183008Y20361D01*
X183246Y21093D01*
X184099Y22767D01*
X185204Y24288D01*
X186532Y25616D01*
X188053Y26721D01*
X189727Y27574D01*
X191514Y28155D01*
X191771Y28195D01*
X191771Y19049D01*
X181864Y19049D01*
X181846Y19047D01*
X181828Y19049D01*
X181646Y19028D01*
X181552Y19018D01*
X181588Y19030D01*
G37*
%LPD*%
%LPC*%
G36*
X323849Y166371D02*
X323849Y166371D01*
X332995Y166371D01*
X332955Y166114D01*
X332374Y164327D01*
X331521Y162653D01*
X330416Y161132D01*
X329088Y159804D01*
X327567Y158699D01*
X325893Y157846D01*
X324106Y157265D01*
X323849Y157225D01*
X323849Y166371D01*
G37*
%LPD*%
%LPC*%
G36*
X423399Y18239D02*
X423399Y18239D01*
X423399Y23781D01*
X426735Y23781D01*
X427381Y23608D01*
X427960Y23273D01*
X428433Y22800D01*
X428768Y22221D01*
X428941Y21575D01*
X428941Y18239D01*
X423399Y18239D01*
G37*
%LPD*%
%LPC*%
G36*
X411859Y18239D02*
X411859Y18239D01*
X411859Y21575D01*
X412032Y22221D01*
X412367Y22800D01*
X412840Y23273D01*
X413419Y23608D01*
X414065Y23781D01*
X417401Y23781D01*
X417401Y18239D01*
X411859Y18239D01*
G37*
%LPD*%
%LPC*%
G36*
X423399Y6699D02*
X423399Y6699D01*
X423399Y12241D01*
X428941Y12241D01*
X428941Y8905D01*
X428768Y8259D01*
X428433Y7680D01*
X427960Y7207D01*
X427381Y6872D01*
X426735Y6699D01*
X423399Y6699D01*
G37*
%LPD*%
%LPC*%
G36*
X414065Y6699D02*
X414065Y6699D01*
X413419Y6872D01*
X412840Y7207D01*
X412367Y7680D01*
X412032Y8259D01*
X411859Y8905D01*
X411859Y12241D01*
X417401Y12241D01*
X417401Y6699D01*
X414065Y6699D01*
G37*
%LPD*%
D10*
X176018Y76040D03*
X169414Y76040D03*
X162810Y75980D03*
X156206Y76040D03*
X149602Y76040D03*
X142998Y76040D03*
X136394Y76040D03*
X129790Y76040D03*
X123186Y76040D03*
X116582Y76040D03*
X116582Y134460D03*
X123186Y134460D03*
X129790Y134460D03*
X136394Y134460D03*
X142998Y134460D03*
X149602Y134460D03*
X156206Y134460D03*
X162810Y134520D03*
X169414Y134460D03*
X176018Y134460D03*
D11*
X83820Y84480D03*
X83820Y103480D03*
D12*
X52070Y61210D03*
X52070Y124210D03*
D13*
X183490Y45720D03*
X164490Y45720D03*
D14*
X420400Y15240D03*
X399400Y15240D03*
D13*
X377700Y14560D03*
X358700Y14560D03*
D15*
X354410Y87630D03*
X354410Y79630D03*
X354410Y103630D03*
X354410Y95630D03*
D16*
X409410Y132630D03*
X409410Y42630D03*
X354410Y132630D03*
X354410Y42630D03*
D15*
X354410Y71630D03*
D17*
X310510Y117711D03*
X290190Y117711D03*
X300510Y117711D03*
X280510Y117711D03*
X270510Y117711D03*
X270510Y67709D03*
X280510Y67709D03*
X290190Y67709D03*
X300510Y67709D03*
X310510Y67709D03*
D18*
X202184Y119380D03*
X194056Y119380D03*
X202184Y91440D03*
X194056Y91440D03*
D19*
X41910Y168910D03*
X67310Y168910D03*
X92710Y168910D03*
X118110Y168910D03*
X143510Y168910D03*
X168910Y168910D03*
X194310Y168910D03*
X219710Y168910D03*
X245110Y168910D03*
X270510Y168910D03*
X270510Y16510D03*
X245110Y16510D03*
X219710Y16510D03*
X194310Y16510D03*
X168910Y16510D03*
X143510Y16510D03*
X118110Y16510D03*
X92710Y16510D03*
X67310Y16510D03*
X41910Y16510D03*
X295910Y16510D03*
X321310Y16510D03*
X295910Y168910D03*
X321310Y168910D03*
D18*
X228346Y119380D03*
X236474Y119380D03*
D14*
X232070Y52070D03*
X253070Y52070D03*
D13*
X250800Y69850D03*
X231800Y69850D03*
D18*
X228346Y91440D03*
X236474Y91440D03*
D20*
X413770Y163830D03*
X350770Y163830D03*
D19*
X16510Y129540D03*
X16510Y104140D03*
X16510Y78740D03*
X16510Y53340D03*
D21*
X343090Y103630D02*
X354410Y103630D01*
X343090Y103630D02*
X315640Y131080D01*
D22*
X383220Y87630D03*
D21*
X383220Y91214D01*
X370407Y104027D01*
X354807Y104027D01*
X354410Y103630D01*
X290190Y117711D02*
X290190Y125730D01*
X290190Y117711D02*
X290190Y107630D01*
X282890Y100330D02*
X281620Y100330D01*
D22*
X281620Y100330D03*
D21*
X282890Y100330D02*
X290190Y107630D01*
X290190Y125730D02*
X295540Y131080D01*
X315640Y131080D01*
D22*
X80010Y67310D03*
D21*
X156206Y69871D02*
X156206Y76040D01*
X156206Y88896D01*
D23*
X156210Y88900D01*
D22*
X156210Y88900D03*
D21*
X156206Y69871D02*
X154460Y68125D01*
X154460Y56360D01*
D23*
X52070Y61210D02*
X52070Y67310D01*
D21*
X57150Y67310D02*
X80010Y67310D01*
D24*
X57150Y67310D02*
X52070Y67310D01*
D23*
X407670Y87630D02*
X430530Y64770D01*
X407670Y87630D02*
X397510Y87630D01*
D22*
X215999Y62230D03*
X397510Y87630D03*
X397510Y113030D03*
X410210Y100330D03*
X422910Y87630D03*
X422910Y113030D03*
X422910Y62230D03*
X410210Y74930D03*
X397510Y62230D03*
X384810Y36830D03*
D21*
X232070Y52070D02*
X224450Y52070D01*
D23*
X215999Y60521D02*
X215999Y62230D01*
D21*
X215999Y60521D02*
X224450Y52070D01*
D23*
X420400Y15240D02*
X430530Y25370D01*
X430530Y64770D01*
D21*
X57150Y87296D02*
X47700Y96746D01*
X57150Y87296D02*
X57150Y67310D01*
D22*
X105410Y123190D03*
D24*
X164490Y46330D02*
X164490Y45720D01*
D21*
X164490Y46330D02*
X154460Y56360D01*
X167030Y40611D02*
X191131Y16510D01*
X165760Y45720D02*
X164490Y45720D01*
X165760Y45720D02*
X167030Y44450D01*
X167030Y40611D01*
X191131Y16510D02*
X194310Y16510D01*
X47700Y96746D02*
X38100Y96746D01*
X23904Y96746D01*
X16510Y104140D01*
D23*
X130266Y134460D02*
X130266Y141782D01*
X130266Y134460D02*
X129790Y134460D01*
X130266Y141782D02*
X117108Y154940D01*
X106680Y154940D01*
X92710Y168910D01*
X162810Y64520D02*
X163830Y63500D01*
D22*
X163830Y63500D03*
D23*
X162810Y64520D02*
X162810Y75980D01*
X136394Y34794D02*
X118110Y16510D01*
X129874Y87630D02*
X86970Y87630D01*
X83820Y84480D01*
X82550Y85750D01*
X81640Y85750D01*
X57150Y110240D01*
X57150Y119130D02*
X52070Y124210D01*
X57150Y119130D02*
X57150Y110240D01*
X136394Y76040D02*
X136394Y34794D01*
X136394Y76040D02*
X135124Y77310D01*
X135124Y82380D01*
X129874Y87630D01*
X398720Y14560D02*
X399400Y15240D01*
X398720Y14560D02*
X377700Y14560D01*
X313526Y117711D02*
X310510Y117711D01*
X313526Y117711D02*
X321433Y109805D01*
X321433Y106114D01*
X339917Y87630D01*
X354410Y87630D01*
X300510Y112211D02*
X300510Y117711D01*
X300510Y112211D02*
X309876Y102845D01*
X317132Y102845D01*
X340348Y79630D01*
X354410Y79630D01*
X300510Y81440D02*
X300510Y67709D01*
X210820Y119380D02*
X202184Y119380D01*
X290736Y91214D02*
X300510Y81440D01*
X220980Y109220D02*
X210820Y119380D01*
X263130Y91214D02*
X290736Y91214D01*
X263130Y91214D02*
X245124Y109220D01*
X220980Y109220D01*
X290130Y67769D02*
X290190Y67709D01*
X290130Y67769D02*
X290130Y79120D01*
X202184Y91440D02*
X202184Y93980D01*
X204244Y96040D01*
X204244Y95960D01*
X211378Y103094D01*
X242116Y103149D02*
X260147Y85118D01*
X284132Y85118D01*
X290130Y79120D01*
X242116Y103149D02*
X211378Y103094D01*
D21*
X332290Y63370D02*
X332290Y45530D01*
X340550Y71630D02*
X354410Y71630D01*
X340550Y71630D02*
X332290Y63370D01*
D22*
X332290Y45530D03*
D21*
X284160Y54610D02*
X280510Y58260D01*
X284160Y54610D02*
X304480Y54610D01*
X169414Y94484D02*
X162028Y101870D01*
X210820Y45720D02*
X240030Y16510D01*
X245110Y16510D01*
X169414Y70616D02*
X169414Y76040D01*
X169414Y94484D01*
D22*
X71120Y116840D03*
D23*
X71120Y116180D01*
D21*
X83820Y103480D01*
X109300Y101870D02*
X162028Y101870D01*
X109300Y101870D02*
X93790Y117380D01*
D22*
X320040Y55880D03*
D21*
X317101Y67709D02*
X310510Y67709D01*
X320040Y64770D02*
X320040Y55880D01*
X320040Y64770D02*
X317101Y67709D01*
D23*
X320040Y55880D02*
X320040Y39370D01*
X344850Y14560D02*
X358700Y14560D01*
X344850Y14560D02*
X320040Y39370D01*
D21*
X245110Y24130D02*
X245110Y16510D01*
X245110Y24130D02*
X266700Y45720D01*
X308610Y45720D01*
X318770Y55880D01*
X320040Y55880D01*
X248380Y16510D02*
X245110Y16510D01*
X263874Y32004D02*
X280416Y32004D01*
X295910Y16510D01*
X263874Y32004D02*
X248380Y16510D01*
X310510Y60640D02*
X310510Y67709D01*
X310510Y60640D02*
X304480Y54610D01*
X280510Y58260D02*
X280510Y67709D01*
D22*
X44450Y82550D03*
D21*
X72320Y117380D02*
X93790Y117380D01*
D24*
X72320Y117380D02*
X71120Y116180D01*
D21*
X183490Y56540D02*
X183490Y45720D01*
X183490Y56540D02*
X169414Y70616D01*
X183490Y45720D02*
X210820Y45720D01*
D23*
X331470Y139700D02*
X331720Y139700D01*
X345690Y158750D02*
X350770Y163830D01*
X345690Y158750D02*
X345690Y153670D01*
X331720Y139700D01*
D22*
X331470Y139700D03*
D21*
X44450Y82550D02*
X16510Y54610D01*
X16510Y53340D01*
D23*
X118110Y168910D02*
X136394Y150626D01*
X136394Y134460D01*
D22*
X215900Y74930D03*
D23*
X215900Y78994D02*
X228346Y91440D01*
X215900Y78994D02*
X215900Y74930D01*
X142998Y134460D02*
X142998Y168398D01*
X143510Y168910D01*
X186690Y129540D02*
X222250Y129540D01*
X186690Y129540D02*
X180340Y123190D01*
X147696Y123190D01*
X228346Y123444D02*
X228346Y119380D01*
X228346Y123444D02*
X222250Y129540D01*
X143792Y133666D02*
X142998Y134460D01*
X143792Y133666D02*
X143792Y127094D01*
X147696Y123190D01*
X149602Y149602D02*
X168910Y168910D01*
X149602Y149602D02*
X149602Y134460D01*
X167132Y155702D02*
X178935Y155702D01*
X192143Y168910D02*
X194310Y168910D01*
X192143Y168910D02*
X178935Y155702D01*
X167132Y155702D02*
X156206Y144776D01*
X156206Y134460D01*
X200294Y149494D02*
X219710Y168910D01*
X200294Y149494D02*
X169537Y149494D01*
X162810Y142767D01*
X162810Y134520D01*
X220042Y143842D02*
X245110Y168910D01*
X220042Y143842D02*
X173089Y143842D01*
X169414Y140167D01*
X169414Y134460D01*
X238600Y137000D02*
X270510Y168910D01*
X238600Y137000D02*
X177288Y137000D01*
X176018Y135730D01*
X176018Y134460D01*
X105250Y76040D02*
X45720Y16510D01*
X41910Y16510D01*
X105250Y76040D02*
X116582Y76040D01*
X123186Y76040D02*
X123186Y67306D01*
X72390Y16510D01*
X67310Y16510D01*
X92710Y19050D02*
X129790Y56130D01*
X92710Y19050D02*
X92710Y16510D01*
X129790Y56130D02*
X129790Y76040D01*
X142240Y75282D02*
X142998Y76040D01*
X142240Y75282D02*
X142240Y17780D01*
X143510Y16510D01*
X142998Y76040D02*
X142998Y90682D01*
X142240Y91440D01*
D22*
X142240Y91440D03*
D23*
X149602Y76040D02*
X148590Y75028D01*
X148590Y36830D01*
X168910Y16510D01*
D22*
X233300Y38020D03*
D23*
X201418Y53180D02*
X179828Y74770D01*
X177288Y74770D01*
X176018Y76040D01*
X201418Y53180D02*
X214231Y53180D01*
X229391Y38020D02*
X233300Y38020D01*
X229391Y38020D02*
X214231Y53180D01*
X236474Y123190D02*
X260604Y147320D01*
X236474Y123190D02*
X236474Y119380D01*
X260604Y147320D02*
X309880Y147320D01*
X342900Y114300D01*
X375920Y123190D02*
X375920Y127000D01*
X375920Y123190D02*
X367030Y114300D01*
X411230Y161290D02*
X413770Y163830D01*
X411230Y161290D02*
X410210Y161290D01*
X375920Y127000D01*
X367030Y114300D02*
X342900Y114300D01*
X413770Y163830D02*
X413770Y173990D01*
X409960Y177800D01*
X403860Y177800D01*
D22*
X403860Y177800D03*
D23*
X253340Y67310D02*
X250800Y69850D01*
X253340Y67310D02*
X253340Y52044D01*
X253070Y52070D01*
X236474Y74524D02*
X236474Y91440D01*
X236474Y74524D02*
X231800Y69850D01*
X194056Y91440D02*
X187960Y91440D01*
X168712Y110688D01*
X128270Y110688D01*
X76360Y134460D02*
X41910Y168910D01*
X76360Y134460D02*
X116582Y134460D01*
X124674Y114284D02*
X128270Y110688D01*
X124674Y114284D02*
X124527Y114284D01*
X116582Y122229D01*
X116582Y134460D01*
X132080Y116570D02*
X194056Y116570D01*
X194056Y119380D01*
X75827Y168910D02*
X67310Y168910D01*
X101227Y143510D02*
X119380Y143510D01*
X123186Y139704D01*
X123186Y134460D01*
X101227Y143510D02*
X75827Y168910D01*
X123186Y125464D02*
X132080Y116570D01*
X123186Y125464D02*
X123186Y134460D01*
M02*
