G04 EAGLE Gerber RS-274X export*
G75*
%MOMM*%
%FSLAX34Y34*%
%LPD*%
%INSilkscreen Bottom*%
%IPPOS*%
%AMOC8*
5,1,8,0,0,1.08239X$1,22.5*%
G01*
%ADD10C,0.076200*%
%ADD11C,0.203200*%
%ADD12C,0.050800*%
%ADD13C,0.200000*%
%ADD14C,0.100000*%


D10*
X31228Y71783D02*
X31150Y71781D01*
X31072Y71776D01*
X30995Y71766D01*
X30918Y71753D01*
X30842Y71737D01*
X30767Y71717D01*
X30693Y71693D01*
X30620Y71666D01*
X30548Y71635D01*
X30478Y71601D01*
X30410Y71564D01*
X30343Y71523D01*
X30278Y71479D01*
X30216Y71433D01*
X30156Y71383D01*
X30098Y71331D01*
X30043Y71276D01*
X29991Y71218D01*
X29941Y71158D01*
X29895Y71096D01*
X29851Y71031D01*
X29810Y70965D01*
X29773Y70896D01*
X29739Y70826D01*
X29708Y70754D01*
X29681Y70681D01*
X29657Y70607D01*
X29637Y70532D01*
X29621Y70456D01*
X29608Y70379D01*
X29598Y70302D01*
X29593Y70224D01*
X29591Y70146D01*
X29593Y70032D01*
X29598Y69919D01*
X29608Y69805D01*
X29621Y69692D01*
X29638Y69580D01*
X29658Y69468D01*
X29682Y69357D01*
X29710Y69246D01*
X29741Y69137D01*
X29776Y69029D01*
X29815Y68922D01*
X29857Y68816D01*
X29902Y68712D01*
X29951Y68609D01*
X30004Y68508D01*
X30059Y68409D01*
X30118Y68311D01*
X30180Y68216D01*
X30245Y68123D01*
X30313Y68031D01*
X30384Y67943D01*
X30458Y67856D01*
X30535Y67772D01*
X30614Y67691D01*
X35320Y67895D02*
X35398Y67897D01*
X35476Y67902D01*
X35553Y67912D01*
X35630Y67925D01*
X35706Y67941D01*
X35781Y67961D01*
X35855Y67985D01*
X35928Y68012D01*
X36000Y68043D01*
X36070Y68077D01*
X36139Y68114D01*
X36205Y68155D01*
X36270Y68199D01*
X36332Y68245D01*
X36392Y68295D01*
X36450Y68347D01*
X36505Y68402D01*
X36557Y68460D01*
X36607Y68520D01*
X36653Y68582D01*
X36697Y68647D01*
X36738Y68714D01*
X36775Y68782D01*
X36809Y68852D01*
X36840Y68924D01*
X36867Y68997D01*
X36891Y69071D01*
X36911Y69146D01*
X36927Y69222D01*
X36940Y69299D01*
X36950Y69376D01*
X36955Y69454D01*
X36957Y69532D01*
X36955Y69642D01*
X36949Y69751D01*
X36939Y69861D01*
X36926Y69969D01*
X36908Y70078D01*
X36887Y70185D01*
X36861Y70292D01*
X36832Y70398D01*
X36800Y70503D01*
X36763Y70606D01*
X36723Y70708D01*
X36679Y70809D01*
X36631Y70908D01*
X36581Y71005D01*
X36526Y71100D01*
X36468Y71193D01*
X36407Y71284D01*
X36343Y71373D01*
X33887Y68714D02*
X33929Y68647D01*
X33973Y68582D01*
X34021Y68520D01*
X34071Y68460D01*
X34124Y68402D01*
X34180Y68347D01*
X34239Y68295D01*
X34299Y68245D01*
X34363Y68198D01*
X34428Y68155D01*
X34495Y68114D01*
X34564Y68077D01*
X34635Y68043D01*
X34707Y68012D01*
X34781Y67985D01*
X34855Y67961D01*
X34931Y67941D01*
X35008Y67925D01*
X35085Y67912D01*
X35163Y67902D01*
X35242Y67897D01*
X35320Y67895D01*
X32660Y70965D02*
X32618Y71031D01*
X32574Y71096D01*
X32527Y71158D01*
X32476Y71218D01*
X32423Y71276D01*
X32367Y71331D01*
X32309Y71384D01*
X32248Y71433D01*
X32185Y71480D01*
X32120Y71523D01*
X32053Y71564D01*
X31984Y71601D01*
X31913Y71635D01*
X31841Y71666D01*
X31767Y71693D01*
X31692Y71717D01*
X31617Y71737D01*
X31540Y71753D01*
X31463Y71766D01*
X31385Y71776D01*
X31306Y71781D01*
X31228Y71783D01*
X32660Y70965D02*
X33888Y68714D01*
X36957Y74510D02*
X29591Y76147D01*
X34502Y77784D01*
X29591Y79421D01*
X36957Y81058D01*
X36957Y84272D02*
X29591Y84272D01*
X36957Y84272D02*
X36957Y86318D01*
X36955Y86407D01*
X36949Y86496D01*
X36939Y86585D01*
X36926Y86673D01*
X36909Y86761D01*
X36887Y86848D01*
X36862Y86933D01*
X36834Y87018D01*
X36801Y87101D01*
X36765Y87183D01*
X36726Y87263D01*
X36683Y87341D01*
X36637Y87417D01*
X36587Y87492D01*
X36534Y87564D01*
X36478Y87633D01*
X36419Y87700D01*
X36358Y87765D01*
X36293Y87826D01*
X36226Y87885D01*
X36157Y87941D01*
X36085Y87994D01*
X36010Y88044D01*
X35934Y88090D01*
X35856Y88133D01*
X35776Y88172D01*
X35694Y88208D01*
X35611Y88241D01*
X35526Y88269D01*
X35441Y88294D01*
X35354Y88316D01*
X35266Y88333D01*
X35178Y88346D01*
X35089Y88356D01*
X35000Y88362D01*
X34911Y88364D01*
X31637Y88364D01*
X31548Y88362D01*
X31459Y88356D01*
X31370Y88346D01*
X31282Y88333D01*
X31194Y88316D01*
X31107Y88294D01*
X31022Y88269D01*
X30937Y88241D01*
X30854Y88208D01*
X30772Y88172D01*
X30692Y88133D01*
X30614Y88090D01*
X30538Y88044D01*
X30463Y87994D01*
X30391Y87941D01*
X30322Y87885D01*
X30255Y87826D01*
X30190Y87765D01*
X30129Y87700D01*
X30070Y87633D01*
X30014Y87564D01*
X29961Y87492D01*
X29911Y87417D01*
X29865Y87341D01*
X29822Y87263D01*
X29783Y87183D01*
X29747Y87101D01*
X29714Y87018D01*
X29686Y86933D01*
X29661Y86848D01*
X29639Y86761D01*
X29622Y86673D01*
X29609Y86585D01*
X29599Y86496D01*
X29593Y86407D01*
X29591Y86318D01*
X29591Y84272D01*
X29591Y45607D02*
X29591Y43561D01*
X29591Y45607D02*
X29593Y45696D01*
X29599Y45785D01*
X29609Y45874D01*
X29622Y45962D01*
X29639Y46050D01*
X29661Y46137D01*
X29686Y46222D01*
X29714Y46307D01*
X29747Y46390D01*
X29783Y46472D01*
X29822Y46552D01*
X29865Y46630D01*
X29911Y46706D01*
X29961Y46781D01*
X30014Y46853D01*
X30070Y46922D01*
X30129Y46989D01*
X30190Y47054D01*
X30255Y47115D01*
X30322Y47174D01*
X30391Y47230D01*
X30463Y47283D01*
X30538Y47333D01*
X30614Y47379D01*
X30692Y47422D01*
X30772Y47461D01*
X30854Y47497D01*
X30937Y47530D01*
X31022Y47558D01*
X31107Y47583D01*
X31194Y47605D01*
X31282Y47622D01*
X31370Y47635D01*
X31459Y47645D01*
X31548Y47651D01*
X31637Y47653D01*
X31726Y47651D01*
X31815Y47645D01*
X31904Y47635D01*
X31992Y47622D01*
X32080Y47605D01*
X32167Y47583D01*
X32252Y47558D01*
X32337Y47530D01*
X32420Y47497D01*
X32502Y47461D01*
X32582Y47422D01*
X32660Y47379D01*
X32736Y47333D01*
X32811Y47283D01*
X32883Y47230D01*
X32952Y47174D01*
X33019Y47115D01*
X33084Y47054D01*
X33145Y46989D01*
X33204Y46922D01*
X33260Y46853D01*
X33313Y46781D01*
X33363Y46706D01*
X33409Y46630D01*
X33452Y46552D01*
X33491Y46472D01*
X33527Y46390D01*
X33560Y46307D01*
X33588Y46222D01*
X33613Y46137D01*
X33635Y46050D01*
X33652Y45962D01*
X33665Y45874D01*
X33675Y45785D01*
X33681Y45696D01*
X33683Y45607D01*
X36957Y46016D02*
X36957Y43561D01*
X36957Y46016D02*
X36955Y46095D01*
X36949Y46174D01*
X36940Y46253D01*
X36927Y46331D01*
X36909Y46408D01*
X36889Y46484D01*
X36864Y46559D01*
X36836Y46633D01*
X36805Y46706D01*
X36769Y46777D01*
X36731Y46846D01*
X36689Y46913D01*
X36644Y46978D01*
X36596Y47041D01*
X36545Y47102D01*
X36491Y47159D01*
X36435Y47215D01*
X36376Y47267D01*
X36314Y47317D01*
X36250Y47363D01*
X36184Y47407D01*
X36116Y47447D01*
X36046Y47483D01*
X35974Y47517D01*
X35900Y47547D01*
X35826Y47573D01*
X35750Y47596D01*
X35673Y47614D01*
X35596Y47630D01*
X35517Y47641D01*
X35439Y47649D01*
X35360Y47653D01*
X35280Y47653D01*
X35201Y47649D01*
X35123Y47641D01*
X35044Y47630D01*
X34967Y47614D01*
X34890Y47596D01*
X34814Y47573D01*
X34740Y47547D01*
X34666Y47517D01*
X34594Y47483D01*
X34524Y47447D01*
X34456Y47407D01*
X34390Y47363D01*
X34326Y47317D01*
X34264Y47267D01*
X34205Y47215D01*
X34149Y47159D01*
X34095Y47102D01*
X34044Y47041D01*
X33996Y46978D01*
X33951Y46913D01*
X33909Y46846D01*
X33871Y46777D01*
X33835Y46706D01*
X33804Y46633D01*
X33776Y46559D01*
X33751Y46484D01*
X33731Y46408D01*
X33713Y46331D01*
X33700Y46253D01*
X33691Y46174D01*
X33685Y46095D01*
X33683Y46016D01*
X33683Y44379D01*
X36957Y50467D02*
X29591Y52922D01*
X36957Y55378D01*
X29591Y58191D02*
X29591Y60237D01*
X29593Y60326D01*
X29599Y60415D01*
X29609Y60504D01*
X29622Y60592D01*
X29639Y60680D01*
X29661Y60767D01*
X29686Y60852D01*
X29714Y60937D01*
X29747Y61020D01*
X29783Y61102D01*
X29822Y61182D01*
X29865Y61260D01*
X29911Y61336D01*
X29961Y61411D01*
X30014Y61483D01*
X30070Y61552D01*
X30129Y61619D01*
X30190Y61684D01*
X30255Y61745D01*
X30322Y61804D01*
X30391Y61860D01*
X30463Y61913D01*
X30538Y61963D01*
X30614Y62009D01*
X30692Y62052D01*
X30772Y62091D01*
X30854Y62127D01*
X30937Y62160D01*
X31022Y62188D01*
X31107Y62213D01*
X31194Y62235D01*
X31282Y62252D01*
X31370Y62265D01*
X31459Y62275D01*
X31548Y62281D01*
X31637Y62283D01*
X31726Y62281D01*
X31815Y62275D01*
X31904Y62265D01*
X31992Y62252D01*
X32080Y62235D01*
X32167Y62213D01*
X32252Y62188D01*
X32337Y62160D01*
X32420Y62127D01*
X32502Y62091D01*
X32582Y62052D01*
X32660Y62009D01*
X32736Y61963D01*
X32811Y61913D01*
X32883Y61860D01*
X32952Y61804D01*
X33019Y61745D01*
X33084Y61684D01*
X33145Y61619D01*
X33204Y61552D01*
X33260Y61483D01*
X33313Y61411D01*
X33363Y61336D01*
X33409Y61260D01*
X33452Y61182D01*
X33491Y61102D01*
X33527Y61020D01*
X33560Y60937D01*
X33588Y60852D01*
X33613Y60767D01*
X33635Y60680D01*
X33652Y60592D01*
X33665Y60504D01*
X33675Y60415D01*
X33681Y60326D01*
X33683Y60237D01*
X36957Y60647D02*
X36957Y58191D01*
X36957Y60647D02*
X36955Y60726D01*
X36949Y60805D01*
X36940Y60884D01*
X36927Y60962D01*
X36909Y61039D01*
X36889Y61115D01*
X36864Y61190D01*
X36836Y61264D01*
X36805Y61337D01*
X36769Y61408D01*
X36731Y61477D01*
X36689Y61544D01*
X36644Y61609D01*
X36596Y61672D01*
X36545Y61733D01*
X36491Y61790D01*
X36435Y61846D01*
X36376Y61898D01*
X36314Y61948D01*
X36250Y61994D01*
X36184Y62038D01*
X36116Y62078D01*
X36046Y62114D01*
X35974Y62148D01*
X35900Y62178D01*
X35826Y62204D01*
X35750Y62227D01*
X35673Y62245D01*
X35596Y62261D01*
X35517Y62272D01*
X35439Y62280D01*
X35360Y62284D01*
X35280Y62284D01*
X35201Y62280D01*
X35123Y62272D01*
X35044Y62261D01*
X34967Y62245D01*
X34890Y62227D01*
X34814Y62204D01*
X34740Y62178D01*
X34666Y62148D01*
X34594Y62114D01*
X34524Y62078D01*
X34456Y62038D01*
X34390Y61994D01*
X34326Y61948D01*
X34264Y61898D01*
X34205Y61846D01*
X34149Y61790D01*
X34095Y61733D01*
X34044Y61672D01*
X33996Y61609D01*
X33951Y61544D01*
X33909Y61477D01*
X33871Y61408D01*
X33835Y61337D01*
X33804Y61264D01*
X33776Y61190D01*
X33751Y61115D01*
X33731Y61039D01*
X33713Y60962D01*
X33700Y60884D01*
X33691Y60805D01*
X33685Y60726D01*
X33683Y60647D01*
X33683Y59010D01*
X33683Y97226D02*
X33683Y98453D01*
X29591Y98453D01*
X29591Y95998D01*
X29593Y95920D01*
X29598Y95842D01*
X29608Y95765D01*
X29621Y95688D01*
X29637Y95612D01*
X29657Y95537D01*
X29681Y95463D01*
X29708Y95390D01*
X29739Y95318D01*
X29773Y95248D01*
X29810Y95180D01*
X29851Y95113D01*
X29895Y95048D01*
X29941Y94986D01*
X29991Y94926D01*
X30043Y94868D01*
X30098Y94813D01*
X30156Y94761D01*
X30216Y94711D01*
X30278Y94665D01*
X30343Y94621D01*
X30409Y94580D01*
X30478Y94543D01*
X30548Y94509D01*
X30620Y94478D01*
X30693Y94451D01*
X30767Y94427D01*
X30842Y94407D01*
X30918Y94391D01*
X30995Y94378D01*
X31072Y94368D01*
X31150Y94363D01*
X31228Y94361D01*
X35320Y94361D01*
X35398Y94363D01*
X35476Y94368D01*
X35553Y94378D01*
X35630Y94391D01*
X35706Y94407D01*
X35781Y94427D01*
X35855Y94451D01*
X35928Y94478D01*
X36000Y94509D01*
X36070Y94543D01*
X36139Y94580D01*
X36205Y94621D01*
X36270Y94665D01*
X36332Y94711D01*
X36392Y94761D01*
X36450Y94813D01*
X36505Y94868D01*
X36557Y94926D01*
X36607Y94986D01*
X36653Y95048D01*
X36697Y95113D01*
X36738Y95180D01*
X36775Y95248D01*
X36809Y95318D01*
X36840Y95390D01*
X36867Y95463D01*
X36891Y95537D01*
X36911Y95612D01*
X36927Y95688D01*
X36940Y95765D01*
X36950Y95842D01*
X36955Y95920D01*
X36957Y95998D01*
X36957Y98453D01*
X36957Y102164D02*
X29591Y102164D01*
X29591Y106256D02*
X36957Y102164D01*
X36957Y106256D02*
X29591Y106256D01*
X29591Y109967D02*
X36957Y109967D01*
X36957Y112013D01*
X36955Y112102D01*
X36949Y112191D01*
X36939Y112280D01*
X36926Y112368D01*
X36909Y112456D01*
X36887Y112543D01*
X36862Y112628D01*
X36834Y112713D01*
X36801Y112796D01*
X36765Y112878D01*
X36726Y112958D01*
X36683Y113036D01*
X36637Y113112D01*
X36587Y113187D01*
X36534Y113259D01*
X36478Y113328D01*
X36419Y113395D01*
X36358Y113460D01*
X36293Y113521D01*
X36226Y113580D01*
X36157Y113636D01*
X36085Y113689D01*
X36010Y113739D01*
X35934Y113785D01*
X35856Y113828D01*
X35776Y113867D01*
X35694Y113903D01*
X35611Y113936D01*
X35526Y113964D01*
X35441Y113989D01*
X35354Y114011D01*
X35266Y114028D01*
X35178Y114041D01*
X35089Y114051D01*
X35000Y114057D01*
X34911Y114059D01*
X31637Y114059D01*
X31548Y114057D01*
X31459Y114051D01*
X31370Y114041D01*
X31282Y114028D01*
X31194Y114011D01*
X31107Y113989D01*
X31022Y113964D01*
X30937Y113936D01*
X30854Y113903D01*
X30772Y113867D01*
X30692Y113828D01*
X30614Y113785D01*
X30538Y113739D01*
X30463Y113689D01*
X30391Y113636D01*
X30322Y113580D01*
X30255Y113521D01*
X30190Y113460D01*
X30129Y113395D01*
X30070Y113328D01*
X30014Y113259D01*
X29961Y113187D01*
X29911Y113112D01*
X29865Y113036D01*
X29822Y112958D01*
X29783Y112878D01*
X29747Y112796D01*
X29714Y112713D01*
X29686Y112628D01*
X29661Y112543D01*
X29639Y112456D01*
X29622Y112368D01*
X29609Y112280D01*
X29599Y112191D01*
X29593Y112102D01*
X29591Y112013D01*
X29591Y109967D01*
X29591Y122216D02*
X29593Y122294D01*
X29598Y122372D01*
X29608Y122449D01*
X29621Y122526D01*
X29637Y122602D01*
X29657Y122677D01*
X29681Y122751D01*
X29708Y122824D01*
X29739Y122896D01*
X29773Y122966D01*
X29810Y123035D01*
X29851Y123101D01*
X29895Y123166D01*
X29941Y123228D01*
X29991Y123288D01*
X30043Y123346D01*
X30098Y123401D01*
X30156Y123453D01*
X30216Y123503D01*
X30278Y123549D01*
X30343Y123593D01*
X30410Y123634D01*
X30478Y123671D01*
X30548Y123705D01*
X30620Y123736D01*
X30693Y123763D01*
X30767Y123787D01*
X30842Y123807D01*
X30918Y123823D01*
X30995Y123836D01*
X31072Y123846D01*
X31150Y123851D01*
X31228Y123853D01*
X29591Y122216D02*
X29593Y122102D01*
X29598Y121989D01*
X29608Y121875D01*
X29621Y121762D01*
X29638Y121650D01*
X29658Y121538D01*
X29682Y121427D01*
X29710Y121316D01*
X29741Y121207D01*
X29776Y121099D01*
X29815Y120992D01*
X29857Y120886D01*
X29902Y120782D01*
X29951Y120679D01*
X30004Y120578D01*
X30059Y120479D01*
X30118Y120381D01*
X30180Y120286D01*
X30245Y120193D01*
X30313Y120101D01*
X30384Y120013D01*
X30458Y119926D01*
X30535Y119842D01*
X30614Y119761D01*
X35320Y119965D02*
X35398Y119967D01*
X35476Y119972D01*
X35553Y119982D01*
X35630Y119995D01*
X35706Y120011D01*
X35781Y120031D01*
X35855Y120055D01*
X35928Y120082D01*
X36000Y120113D01*
X36070Y120147D01*
X36139Y120184D01*
X36205Y120225D01*
X36270Y120269D01*
X36332Y120315D01*
X36392Y120365D01*
X36450Y120417D01*
X36505Y120472D01*
X36557Y120530D01*
X36607Y120590D01*
X36653Y120652D01*
X36697Y120717D01*
X36738Y120784D01*
X36775Y120852D01*
X36809Y120922D01*
X36840Y120994D01*
X36867Y121067D01*
X36891Y121141D01*
X36911Y121216D01*
X36927Y121292D01*
X36940Y121369D01*
X36950Y121446D01*
X36955Y121524D01*
X36957Y121602D01*
X36955Y121712D01*
X36949Y121821D01*
X36939Y121931D01*
X36926Y122039D01*
X36908Y122148D01*
X36887Y122255D01*
X36861Y122362D01*
X36832Y122468D01*
X36800Y122573D01*
X36763Y122676D01*
X36723Y122778D01*
X36679Y122879D01*
X36631Y122978D01*
X36581Y123075D01*
X36526Y123170D01*
X36468Y123263D01*
X36407Y123354D01*
X36343Y123443D01*
X33887Y120784D02*
X33929Y120717D01*
X33973Y120652D01*
X34021Y120590D01*
X34071Y120530D01*
X34124Y120472D01*
X34180Y120417D01*
X34239Y120365D01*
X34299Y120315D01*
X34363Y120268D01*
X34428Y120225D01*
X34495Y120184D01*
X34564Y120147D01*
X34635Y120113D01*
X34707Y120082D01*
X34781Y120055D01*
X34855Y120031D01*
X34931Y120011D01*
X35008Y119995D01*
X35085Y119982D01*
X35163Y119972D01*
X35242Y119967D01*
X35320Y119965D01*
X32660Y123035D02*
X32618Y123101D01*
X32574Y123166D01*
X32527Y123228D01*
X32476Y123288D01*
X32423Y123346D01*
X32367Y123401D01*
X32309Y123454D01*
X32248Y123503D01*
X32185Y123550D01*
X32120Y123593D01*
X32053Y123634D01*
X31984Y123671D01*
X31913Y123705D01*
X31841Y123736D01*
X31767Y123763D01*
X31692Y123787D01*
X31617Y123807D01*
X31540Y123823D01*
X31463Y123836D01*
X31385Y123846D01*
X31306Y123851D01*
X31228Y123853D01*
X32660Y123035D02*
X33888Y120784D01*
X36957Y126580D02*
X29591Y128217D01*
X34502Y129854D01*
X29591Y131491D01*
X36957Y133128D01*
X29591Y137712D02*
X29591Y139349D01*
X29591Y137712D02*
X29593Y137634D01*
X29598Y137556D01*
X29608Y137479D01*
X29621Y137402D01*
X29637Y137326D01*
X29657Y137251D01*
X29681Y137177D01*
X29708Y137104D01*
X29739Y137032D01*
X29773Y136962D01*
X29810Y136894D01*
X29851Y136827D01*
X29895Y136762D01*
X29941Y136700D01*
X29991Y136640D01*
X30043Y136582D01*
X30098Y136527D01*
X30156Y136475D01*
X30216Y136425D01*
X30278Y136379D01*
X30343Y136335D01*
X30409Y136294D01*
X30478Y136257D01*
X30548Y136223D01*
X30620Y136192D01*
X30693Y136165D01*
X30767Y136141D01*
X30842Y136121D01*
X30918Y136105D01*
X30995Y136092D01*
X31072Y136082D01*
X31150Y136077D01*
X31228Y136075D01*
X35320Y136075D01*
X35398Y136077D01*
X35476Y136082D01*
X35553Y136092D01*
X35630Y136105D01*
X35706Y136121D01*
X35781Y136141D01*
X35855Y136165D01*
X35928Y136192D01*
X36000Y136223D01*
X36070Y136257D01*
X36139Y136294D01*
X36205Y136335D01*
X36270Y136379D01*
X36332Y136425D01*
X36392Y136475D01*
X36450Y136527D01*
X36505Y136582D01*
X36557Y136640D01*
X36607Y136700D01*
X36653Y136762D01*
X36697Y136827D01*
X36738Y136894D01*
X36775Y136962D01*
X36809Y137032D01*
X36840Y137104D01*
X36867Y137177D01*
X36891Y137251D01*
X36911Y137326D01*
X36927Y137402D01*
X36940Y137479D01*
X36950Y137556D01*
X36955Y137634D01*
X36957Y137712D01*
X36957Y139349D01*
X423799Y30099D02*
X423799Y22733D01*
X423799Y30099D02*
X421753Y30099D01*
X421664Y30097D01*
X421575Y30091D01*
X421486Y30081D01*
X421398Y30068D01*
X421310Y30051D01*
X421223Y30029D01*
X421138Y30004D01*
X421053Y29976D01*
X420970Y29943D01*
X420888Y29907D01*
X420808Y29868D01*
X420730Y29825D01*
X420654Y29779D01*
X420579Y29729D01*
X420507Y29676D01*
X420438Y29620D01*
X420371Y29561D01*
X420306Y29500D01*
X420245Y29435D01*
X420186Y29368D01*
X420130Y29299D01*
X420077Y29227D01*
X420027Y29152D01*
X419981Y29076D01*
X419938Y28998D01*
X419899Y28918D01*
X419863Y28836D01*
X419830Y28753D01*
X419802Y28668D01*
X419777Y28583D01*
X419755Y28496D01*
X419738Y28408D01*
X419725Y28320D01*
X419715Y28231D01*
X419709Y28142D01*
X419707Y28053D01*
X419709Y27964D01*
X419715Y27875D01*
X419725Y27786D01*
X419738Y27698D01*
X419755Y27610D01*
X419777Y27523D01*
X419802Y27438D01*
X419830Y27353D01*
X419863Y27270D01*
X419899Y27188D01*
X419938Y27108D01*
X419981Y27030D01*
X420027Y26954D01*
X420077Y26879D01*
X420130Y26807D01*
X420186Y26738D01*
X420245Y26671D01*
X420306Y26606D01*
X420371Y26545D01*
X420438Y26486D01*
X420507Y26430D01*
X420579Y26377D01*
X420654Y26327D01*
X420730Y26281D01*
X420808Y26238D01*
X420888Y26199D01*
X420970Y26163D01*
X421053Y26130D01*
X421138Y26102D01*
X421223Y26077D01*
X421310Y26055D01*
X421398Y26038D01*
X421486Y26025D01*
X421575Y26015D01*
X421664Y26009D01*
X421753Y26007D01*
X423799Y26007D01*
X417255Y30099D02*
X414799Y26621D01*
X412344Y30099D01*
X414799Y26621D02*
X414799Y22733D01*
X409169Y26825D02*
X407123Y26825D01*
X407034Y26823D01*
X406945Y26817D01*
X406856Y26807D01*
X406768Y26794D01*
X406680Y26777D01*
X406593Y26755D01*
X406508Y26730D01*
X406423Y26702D01*
X406340Y26669D01*
X406258Y26633D01*
X406178Y26594D01*
X406100Y26551D01*
X406024Y26505D01*
X405949Y26455D01*
X405877Y26402D01*
X405808Y26346D01*
X405741Y26287D01*
X405676Y26226D01*
X405615Y26161D01*
X405556Y26094D01*
X405500Y26025D01*
X405447Y25953D01*
X405397Y25878D01*
X405351Y25802D01*
X405308Y25724D01*
X405269Y25644D01*
X405233Y25562D01*
X405200Y25479D01*
X405172Y25394D01*
X405147Y25309D01*
X405125Y25222D01*
X405108Y25134D01*
X405095Y25046D01*
X405085Y24957D01*
X405079Y24868D01*
X405077Y24779D01*
X405079Y24690D01*
X405085Y24601D01*
X405095Y24512D01*
X405108Y24424D01*
X405125Y24336D01*
X405147Y24249D01*
X405172Y24164D01*
X405200Y24079D01*
X405233Y23996D01*
X405269Y23914D01*
X405308Y23834D01*
X405351Y23756D01*
X405397Y23680D01*
X405447Y23605D01*
X405500Y23533D01*
X405556Y23464D01*
X405615Y23397D01*
X405676Y23332D01*
X405741Y23271D01*
X405808Y23212D01*
X405877Y23156D01*
X405949Y23103D01*
X406024Y23053D01*
X406100Y23007D01*
X406178Y22964D01*
X406258Y22925D01*
X406340Y22889D01*
X406423Y22856D01*
X406508Y22828D01*
X406593Y22803D01*
X406680Y22781D01*
X406768Y22764D01*
X406856Y22751D01*
X406945Y22741D01*
X407034Y22735D01*
X407123Y22733D01*
X409169Y22733D01*
X409169Y30099D01*
X407123Y30099D01*
X407044Y30097D01*
X406965Y30091D01*
X406886Y30082D01*
X406808Y30069D01*
X406731Y30051D01*
X406655Y30031D01*
X406580Y30006D01*
X406506Y29978D01*
X406433Y29947D01*
X406362Y29911D01*
X406293Y29873D01*
X406226Y29831D01*
X406161Y29786D01*
X406098Y29738D01*
X406037Y29687D01*
X405980Y29633D01*
X405924Y29577D01*
X405872Y29518D01*
X405822Y29456D01*
X405776Y29392D01*
X405732Y29326D01*
X405692Y29258D01*
X405656Y29188D01*
X405622Y29116D01*
X405592Y29042D01*
X405566Y28968D01*
X405543Y28892D01*
X405525Y28815D01*
X405509Y28738D01*
X405498Y28659D01*
X405490Y28581D01*
X405486Y28502D01*
X405486Y28422D01*
X405490Y28343D01*
X405498Y28265D01*
X405509Y28186D01*
X405525Y28109D01*
X405543Y28032D01*
X405566Y27956D01*
X405592Y27882D01*
X405622Y27808D01*
X405656Y27736D01*
X405692Y27666D01*
X405732Y27598D01*
X405776Y27532D01*
X405822Y27468D01*
X405872Y27406D01*
X405924Y27347D01*
X405980Y27291D01*
X406037Y27237D01*
X406098Y27186D01*
X406161Y27138D01*
X406226Y27093D01*
X406293Y27051D01*
X406362Y27013D01*
X406433Y26977D01*
X406506Y26946D01*
X406580Y26918D01*
X406655Y26893D01*
X406731Y26873D01*
X406808Y26855D01*
X406886Y26842D01*
X406965Y26833D01*
X407044Y26827D01*
X407123Y26825D01*
X401971Y24779D02*
X401971Y30099D01*
X401971Y24779D02*
X401969Y24690D01*
X401963Y24601D01*
X401953Y24512D01*
X401940Y24424D01*
X401923Y24336D01*
X401901Y24249D01*
X401876Y24164D01*
X401848Y24079D01*
X401815Y23996D01*
X401779Y23914D01*
X401740Y23834D01*
X401697Y23756D01*
X401651Y23680D01*
X401601Y23605D01*
X401548Y23533D01*
X401492Y23464D01*
X401433Y23397D01*
X401372Y23332D01*
X401307Y23271D01*
X401240Y23212D01*
X401171Y23156D01*
X401099Y23103D01*
X401024Y23053D01*
X400948Y23007D01*
X400870Y22964D01*
X400790Y22925D01*
X400708Y22889D01*
X400625Y22856D01*
X400540Y22828D01*
X400455Y22803D01*
X400368Y22781D01*
X400280Y22764D01*
X400192Y22751D01*
X400103Y22741D01*
X400014Y22735D01*
X399925Y22733D01*
X399836Y22735D01*
X399747Y22741D01*
X399658Y22751D01*
X399570Y22764D01*
X399482Y22781D01*
X399395Y22803D01*
X399310Y22828D01*
X399225Y22856D01*
X399142Y22889D01*
X399060Y22925D01*
X398980Y22964D01*
X398902Y23007D01*
X398826Y23053D01*
X398751Y23103D01*
X398679Y23156D01*
X398610Y23212D01*
X398543Y23271D01*
X398478Y23332D01*
X398417Y23397D01*
X398358Y23464D01*
X398302Y23533D01*
X398249Y23605D01*
X398199Y23680D01*
X398153Y23756D01*
X398110Y23834D01*
X398071Y23914D01*
X398035Y23996D01*
X398002Y24079D01*
X397974Y24164D01*
X397949Y24249D01*
X397927Y24336D01*
X397910Y24424D01*
X397897Y24512D01*
X397887Y24601D01*
X397881Y24690D01*
X397879Y24779D01*
X397879Y30099D01*
X391304Y26825D02*
X390076Y26825D01*
X390076Y22733D01*
X392531Y22733D01*
X392609Y22735D01*
X392687Y22740D01*
X392764Y22750D01*
X392841Y22763D01*
X392917Y22779D01*
X392992Y22799D01*
X393066Y22823D01*
X393139Y22850D01*
X393211Y22881D01*
X393281Y22915D01*
X393350Y22952D01*
X393416Y22993D01*
X393481Y23037D01*
X393543Y23083D01*
X393603Y23133D01*
X393661Y23185D01*
X393716Y23240D01*
X393768Y23298D01*
X393818Y23358D01*
X393864Y23420D01*
X393908Y23485D01*
X393949Y23552D01*
X393986Y23620D01*
X394020Y23690D01*
X394051Y23762D01*
X394078Y23835D01*
X394102Y23909D01*
X394122Y23984D01*
X394138Y24060D01*
X394151Y24137D01*
X394161Y24214D01*
X394166Y24292D01*
X394168Y24370D01*
X394168Y28462D01*
X394166Y28540D01*
X394161Y28618D01*
X394151Y28695D01*
X394138Y28772D01*
X394122Y28848D01*
X394102Y28923D01*
X394078Y28997D01*
X394051Y29070D01*
X394020Y29142D01*
X393986Y29212D01*
X393949Y29281D01*
X393908Y29347D01*
X393864Y29412D01*
X393818Y29474D01*
X393768Y29534D01*
X393716Y29592D01*
X393661Y29647D01*
X393603Y29699D01*
X393543Y29749D01*
X393481Y29795D01*
X393416Y29839D01*
X393350Y29880D01*
X393281Y29917D01*
X393211Y29951D01*
X393139Y29982D01*
X393066Y30009D01*
X392992Y30033D01*
X392917Y30053D01*
X392841Y30069D01*
X392764Y30082D01*
X392687Y30092D01*
X392609Y30097D01*
X392531Y30099D01*
X390076Y30099D01*
X386609Y22733D02*
X384563Y22733D01*
X384474Y22735D01*
X384385Y22741D01*
X384296Y22751D01*
X384208Y22764D01*
X384120Y22781D01*
X384033Y22803D01*
X383948Y22828D01*
X383863Y22856D01*
X383780Y22889D01*
X383698Y22925D01*
X383618Y22964D01*
X383540Y23007D01*
X383464Y23053D01*
X383389Y23103D01*
X383317Y23156D01*
X383248Y23212D01*
X383181Y23271D01*
X383116Y23332D01*
X383055Y23397D01*
X382996Y23464D01*
X382940Y23533D01*
X382887Y23605D01*
X382837Y23680D01*
X382791Y23756D01*
X382748Y23834D01*
X382709Y23914D01*
X382673Y23996D01*
X382640Y24079D01*
X382612Y24164D01*
X382587Y24249D01*
X382565Y24336D01*
X382548Y24424D01*
X382535Y24512D01*
X382525Y24601D01*
X382519Y24690D01*
X382517Y24779D01*
X382519Y24868D01*
X382525Y24957D01*
X382535Y25046D01*
X382548Y25134D01*
X382565Y25222D01*
X382587Y25309D01*
X382612Y25394D01*
X382640Y25479D01*
X382673Y25562D01*
X382709Y25644D01*
X382748Y25724D01*
X382791Y25802D01*
X382837Y25878D01*
X382887Y25953D01*
X382940Y26025D01*
X382996Y26094D01*
X383055Y26161D01*
X383116Y26226D01*
X383181Y26287D01*
X383248Y26346D01*
X383317Y26402D01*
X383389Y26455D01*
X383464Y26505D01*
X383540Y26551D01*
X383618Y26594D01*
X383698Y26633D01*
X383780Y26669D01*
X383863Y26702D01*
X383948Y26730D01*
X384033Y26755D01*
X384120Y26777D01*
X384208Y26794D01*
X384296Y26807D01*
X384385Y26817D01*
X384474Y26823D01*
X384563Y26825D01*
X384154Y30099D02*
X386609Y30099D01*
X384154Y30099D02*
X384075Y30097D01*
X383996Y30091D01*
X383917Y30082D01*
X383839Y30069D01*
X383762Y30051D01*
X383686Y30031D01*
X383611Y30006D01*
X383537Y29978D01*
X383464Y29947D01*
X383393Y29911D01*
X383324Y29873D01*
X383257Y29831D01*
X383192Y29786D01*
X383129Y29738D01*
X383068Y29687D01*
X383011Y29633D01*
X382955Y29577D01*
X382903Y29518D01*
X382853Y29456D01*
X382807Y29392D01*
X382763Y29326D01*
X382723Y29258D01*
X382687Y29188D01*
X382653Y29116D01*
X382623Y29042D01*
X382597Y28968D01*
X382574Y28892D01*
X382556Y28815D01*
X382540Y28738D01*
X382529Y28659D01*
X382521Y28581D01*
X382517Y28502D01*
X382517Y28422D01*
X382521Y28343D01*
X382529Y28265D01*
X382540Y28186D01*
X382556Y28109D01*
X382574Y28032D01*
X382597Y27956D01*
X382623Y27882D01*
X382653Y27808D01*
X382687Y27736D01*
X382723Y27666D01*
X382763Y27598D01*
X382807Y27532D01*
X382853Y27468D01*
X382903Y27406D01*
X382955Y27347D01*
X383011Y27291D01*
X383068Y27237D01*
X383129Y27186D01*
X383192Y27138D01*
X383257Y27093D01*
X383324Y27051D01*
X383393Y27013D01*
X383464Y26977D01*
X383537Y26946D01*
X383611Y26918D01*
X383686Y26893D01*
X383762Y26873D01*
X383839Y26855D01*
X383917Y26842D01*
X383996Y26833D01*
X384075Y26827D01*
X384154Y26825D01*
X385791Y26825D01*
X377043Y30100D02*
X376958Y30098D01*
X376873Y30092D01*
X376789Y30082D01*
X376705Y30069D01*
X376621Y30051D01*
X376539Y30030D01*
X376458Y30005D01*
X376378Y29976D01*
X376299Y29943D01*
X376222Y29907D01*
X376147Y29867D01*
X376073Y29824D01*
X376002Y29778D01*
X375933Y29728D01*
X375866Y29675D01*
X375802Y29619D01*
X375741Y29560D01*
X375682Y29499D01*
X375626Y29435D01*
X375573Y29368D01*
X375523Y29299D01*
X375477Y29228D01*
X375434Y29154D01*
X375394Y29079D01*
X375358Y29002D01*
X375325Y28923D01*
X375296Y28843D01*
X375271Y28762D01*
X375250Y28680D01*
X375232Y28596D01*
X375219Y28512D01*
X375209Y28428D01*
X375203Y28343D01*
X375201Y28258D01*
X377043Y30099D02*
X377139Y30097D01*
X377235Y30091D01*
X377330Y30081D01*
X377425Y30068D01*
X377520Y30050D01*
X377613Y30029D01*
X377706Y30004D01*
X377797Y29975D01*
X377888Y29943D01*
X377977Y29907D01*
X378064Y29867D01*
X378150Y29824D01*
X378234Y29778D01*
X378316Y29728D01*
X378396Y29674D01*
X378473Y29618D01*
X378548Y29558D01*
X378621Y29496D01*
X378691Y29430D01*
X378759Y29362D01*
X378824Y29291D01*
X378885Y29218D01*
X378944Y29142D01*
X379000Y29063D01*
X379052Y28983D01*
X379101Y28900D01*
X379147Y28816D01*
X379189Y28730D01*
X379227Y28642D01*
X379262Y28553D01*
X379294Y28462D01*
X375816Y26826D02*
X375756Y26885D01*
X375699Y26947D01*
X375644Y27011D01*
X375593Y27078D01*
X375544Y27147D01*
X375498Y27217D01*
X375455Y27290D01*
X375415Y27364D01*
X375379Y27440D01*
X375346Y27518D01*
X375316Y27597D01*
X375289Y27677D01*
X375266Y27758D01*
X375247Y27840D01*
X375231Y27922D01*
X375218Y28006D01*
X375209Y28090D01*
X375204Y28174D01*
X375202Y28258D01*
X375816Y26825D02*
X379294Y22733D01*
X375202Y22733D01*
X371900Y25598D02*
X366990Y25598D01*
X361438Y30100D02*
X361353Y30098D01*
X361268Y30092D01*
X361184Y30082D01*
X361100Y30069D01*
X361016Y30051D01*
X360934Y30030D01*
X360853Y30005D01*
X360773Y29976D01*
X360694Y29943D01*
X360617Y29907D01*
X360542Y29867D01*
X360468Y29824D01*
X360397Y29778D01*
X360328Y29728D01*
X360261Y29675D01*
X360197Y29619D01*
X360136Y29560D01*
X360077Y29499D01*
X360021Y29435D01*
X359968Y29368D01*
X359918Y29299D01*
X359872Y29228D01*
X359829Y29154D01*
X359789Y29079D01*
X359753Y29002D01*
X359720Y28923D01*
X359691Y28843D01*
X359666Y28762D01*
X359645Y28680D01*
X359627Y28596D01*
X359614Y28512D01*
X359604Y28428D01*
X359598Y28343D01*
X359596Y28258D01*
X361438Y30099D02*
X361534Y30097D01*
X361630Y30091D01*
X361725Y30081D01*
X361820Y30068D01*
X361915Y30050D01*
X362008Y30029D01*
X362101Y30004D01*
X362192Y29975D01*
X362283Y29943D01*
X362372Y29907D01*
X362459Y29867D01*
X362545Y29824D01*
X362629Y29778D01*
X362711Y29728D01*
X362791Y29674D01*
X362868Y29618D01*
X362943Y29558D01*
X363016Y29496D01*
X363086Y29430D01*
X363154Y29362D01*
X363219Y29291D01*
X363280Y29218D01*
X363339Y29142D01*
X363395Y29063D01*
X363447Y28983D01*
X363496Y28900D01*
X363542Y28816D01*
X363584Y28730D01*
X363622Y28642D01*
X363657Y28553D01*
X363689Y28462D01*
X360210Y26826D02*
X360150Y26885D01*
X360093Y26947D01*
X360038Y27011D01*
X359987Y27078D01*
X359938Y27147D01*
X359892Y27217D01*
X359849Y27290D01*
X359809Y27364D01*
X359773Y27440D01*
X359740Y27518D01*
X359710Y27597D01*
X359683Y27677D01*
X359660Y27758D01*
X359641Y27840D01*
X359625Y27922D01*
X359612Y28006D01*
X359603Y28090D01*
X359598Y28174D01*
X359596Y28258D01*
X360210Y26825D02*
X363688Y22733D01*
X359596Y22733D01*
X356167Y22733D02*
X356167Y30099D01*
X356167Y22733D02*
X354121Y22733D01*
X354052Y22735D01*
X353984Y22741D01*
X353915Y22750D01*
X353848Y22764D01*
X353781Y22781D01*
X353715Y22802D01*
X353651Y22826D01*
X353588Y22855D01*
X353527Y22886D01*
X353468Y22921D01*
X353410Y22959D01*
X353355Y23001D01*
X353303Y23045D01*
X353253Y23093D01*
X353205Y23143D01*
X353161Y23195D01*
X353119Y23250D01*
X353081Y23308D01*
X353046Y23367D01*
X353015Y23428D01*
X352986Y23491D01*
X352962Y23555D01*
X352941Y23621D01*
X352924Y23688D01*
X352910Y23755D01*
X352901Y23824D01*
X352895Y23892D01*
X352893Y23961D01*
X352893Y26416D01*
X352895Y26485D01*
X352901Y26553D01*
X352910Y26622D01*
X352924Y26689D01*
X352941Y26756D01*
X352962Y26822D01*
X352986Y26886D01*
X353015Y26949D01*
X353046Y27010D01*
X353081Y27069D01*
X353119Y27127D01*
X353161Y27182D01*
X353205Y27234D01*
X353253Y27284D01*
X353303Y27332D01*
X353355Y27376D01*
X353410Y27418D01*
X353468Y27456D01*
X353527Y27491D01*
X353588Y27522D01*
X353651Y27551D01*
X353715Y27575D01*
X353781Y27596D01*
X353848Y27613D01*
X353915Y27627D01*
X353984Y27636D01*
X354052Y27642D01*
X354121Y27644D01*
X356167Y27644D01*
X423799Y17907D02*
X423799Y10541D01*
X423799Y17907D02*
X421753Y17907D01*
X421664Y17905D01*
X421575Y17899D01*
X421486Y17889D01*
X421398Y17876D01*
X421310Y17859D01*
X421223Y17837D01*
X421138Y17812D01*
X421053Y17784D01*
X420970Y17751D01*
X420888Y17715D01*
X420808Y17676D01*
X420730Y17633D01*
X420654Y17587D01*
X420579Y17537D01*
X420507Y17484D01*
X420438Y17428D01*
X420371Y17369D01*
X420306Y17308D01*
X420245Y17243D01*
X420186Y17176D01*
X420130Y17107D01*
X420077Y17035D01*
X420027Y16960D01*
X419981Y16884D01*
X419938Y16806D01*
X419899Y16726D01*
X419863Y16644D01*
X419830Y16561D01*
X419802Y16476D01*
X419777Y16391D01*
X419755Y16304D01*
X419738Y16216D01*
X419725Y16128D01*
X419715Y16039D01*
X419709Y15950D01*
X419707Y15861D01*
X419709Y15772D01*
X419715Y15683D01*
X419725Y15594D01*
X419738Y15506D01*
X419755Y15418D01*
X419777Y15331D01*
X419802Y15246D01*
X419830Y15161D01*
X419863Y15078D01*
X419899Y14996D01*
X419938Y14916D01*
X419981Y14838D01*
X420027Y14762D01*
X420077Y14687D01*
X420130Y14615D01*
X420186Y14546D01*
X420245Y14479D01*
X420306Y14414D01*
X420371Y14353D01*
X420438Y14294D01*
X420507Y14238D01*
X420579Y14185D01*
X420654Y14135D01*
X420730Y14089D01*
X420808Y14046D01*
X420888Y14007D01*
X420970Y13971D01*
X421053Y13938D01*
X421138Y13910D01*
X421223Y13885D01*
X421310Y13863D01*
X421398Y13846D01*
X421486Y13833D01*
X421575Y13823D01*
X421664Y13817D01*
X421753Y13815D01*
X423799Y13815D01*
X421344Y13815D02*
X419707Y10541D01*
X415386Y10541D02*
X413340Y10541D01*
X415386Y10541D02*
X415455Y10543D01*
X415523Y10549D01*
X415592Y10558D01*
X415659Y10572D01*
X415726Y10589D01*
X415792Y10610D01*
X415856Y10634D01*
X415919Y10663D01*
X415980Y10694D01*
X416039Y10729D01*
X416097Y10767D01*
X416152Y10809D01*
X416204Y10853D01*
X416254Y10901D01*
X416302Y10951D01*
X416346Y11003D01*
X416388Y11058D01*
X416426Y11116D01*
X416461Y11175D01*
X416492Y11236D01*
X416521Y11299D01*
X416545Y11363D01*
X416566Y11429D01*
X416583Y11496D01*
X416597Y11563D01*
X416606Y11632D01*
X416612Y11700D01*
X416614Y11769D01*
X416613Y11769D02*
X416613Y13815D01*
X416614Y13815D02*
X416612Y13894D01*
X416606Y13973D01*
X416597Y14052D01*
X416584Y14130D01*
X416566Y14207D01*
X416546Y14283D01*
X416521Y14358D01*
X416493Y14432D01*
X416462Y14505D01*
X416426Y14576D01*
X416388Y14645D01*
X416346Y14712D01*
X416301Y14777D01*
X416253Y14840D01*
X416202Y14901D01*
X416148Y14958D01*
X416092Y15014D01*
X416033Y15066D01*
X415971Y15116D01*
X415907Y15162D01*
X415841Y15206D01*
X415773Y15246D01*
X415703Y15282D01*
X415631Y15316D01*
X415557Y15346D01*
X415483Y15372D01*
X415407Y15395D01*
X415330Y15413D01*
X415253Y15429D01*
X415174Y15440D01*
X415096Y15448D01*
X415017Y15452D01*
X414937Y15452D01*
X414858Y15448D01*
X414780Y15440D01*
X414701Y15429D01*
X414624Y15413D01*
X414547Y15395D01*
X414471Y15372D01*
X414397Y15346D01*
X414323Y15316D01*
X414251Y15282D01*
X414181Y15246D01*
X414113Y15206D01*
X414047Y15162D01*
X413983Y15116D01*
X413921Y15066D01*
X413862Y15014D01*
X413806Y14958D01*
X413752Y14901D01*
X413701Y14840D01*
X413653Y14777D01*
X413608Y14712D01*
X413566Y14645D01*
X413528Y14576D01*
X413492Y14505D01*
X413461Y14432D01*
X413433Y14358D01*
X413408Y14283D01*
X413388Y14207D01*
X413370Y14130D01*
X413357Y14052D01*
X413348Y13973D01*
X413342Y13894D01*
X413340Y13815D01*
X413340Y12996D01*
X416613Y12996D01*
X410517Y15452D02*
X408881Y10541D01*
X407244Y15452D01*
X404099Y17907D02*
X404099Y10541D01*
X404099Y17907D02*
X402053Y17907D01*
X401964Y17905D01*
X401875Y17899D01*
X401786Y17889D01*
X401698Y17876D01*
X401610Y17859D01*
X401523Y17837D01*
X401438Y17812D01*
X401353Y17784D01*
X401270Y17751D01*
X401188Y17715D01*
X401108Y17676D01*
X401030Y17633D01*
X400954Y17587D01*
X400879Y17537D01*
X400807Y17484D01*
X400738Y17428D01*
X400671Y17369D01*
X400606Y17308D01*
X400545Y17243D01*
X400486Y17176D01*
X400430Y17107D01*
X400377Y17035D01*
X400327Y16960D01*
X400281Y16884D01*
X400238Y16806D01*
X400199Y16726D01*
X400163Y16644D01*
X400130Y16561D01*
X400102Y16476D01*
X400077Y16391D01*
X400055Y16304D01*
X400038Y16216D01*
X400025Y16128D01*
X400015Y16039D01*
X400009Y15950D01*
X400007Y15861D01*
X400007Y12587D01*
X400009Y12498D01*
X400015Y12409D01*
X400025Y12320D01*
X400038Y12232D01*
X400055Y12144D01*
X400077Y12057D01*
X400102Y11972D01*
X400130Y11887D01*
X400163Y11804D01*
X400199Y11722D01*
X400238Y11642D01*
X400281Y11564D01*
X400327Y11488D01*
X400377Y11413D01*
X400430Y11341D01*
X400486Y11272D01*
X400545Y11205D01*
X400606Y11140D01*
X400671Y11079D01*
X400738Y11020D01*
X400807Y10964D01*
X400879Y10911D01*
X400954Y10861D01*
X401030Y10815D01*
X401108Y10772D01*
X401188Y10733D01*
X401270Y10697D01*
X401353Y10664D01*
X401438Y10636D01*
X401523Y10611D01*
X401610Y10589D01*
X401698Y10572D01*
X401786Y10559D01*
X401875Y10549D01*
X401964Y10543D01*
X402053Y10541D01*
X404099Y10541D01*
D11*
X3810Y116840D02*
X3810Y142240D01*
X3810Y116840D02*
X3810Y91440D01*
X3810Y66040D01*
X3810Y40640D01*
X3810Y142240D02*
X40640Y142240D01*
X40640Y116840D01*
X40640Y91440D01*
X40640Y66040D01*
X40640Y40640D01*
X3810Y40640D01*
X3810Y66040D02*
X40640Y66040D01*
X40640Y91440D02*
X3810Y91440D01*
X3810Y116840D02*
X40640Y116840D01*
D12*
X76340Y150368D02*
X76340Y155956D01*
X77892Y155956D02*
X74788Y155956D01*
X69357Y155956D02*
X73082Y150368D01*
X69357Y150368D02*
X73082Y155956D01*
X67351Y151144D02*
X67351Y150834D01*
X67351Y151144D02*
X67041Y151144D01*
X67041Y150834D01*
X67351Y150834D01*
X67351Y153317D02*
X67351Y153628D01*
X67041Y153628D01*
X67041Y153317D01*
X67351Y153317D01*
X65035Y150368D02*
X63173Y155956D01*
X61310Y150368D01*
X61776Y151765D02*
X64570Y151765D01*
X59238Y150368D02*
X57686Y150368D01*
X57609Y150370D01*
X57531Y150376D01*
X57455Y150385D01*
X57378Y150399D01*
X57303Y150416D01*
X57229Y150437D01*
X57155Y150462D01*
X57083Y150490D01*
X57013Y150522D01*
X56944Y150557D01*
X56877Y150596D01*
X56812Y150638D01*
X56749Y150683D01*
X56688Y150731D01*
X56630Y150782D01*
X56575Y150836D01*
X56522Y150893D01*
X56473Y150952D01*
X56426Y151014D01*
X56382Y151078D01*
X56342Y151144D01*
X56305Y151212D01*
X56271Y151282D01*
X56241Y151353D01*
X56215Y151426D01*
X56192Y151500D01*
X56173Y151575D01*
X56158Y151650D01*
X56146Y151727D01*
X56138Y151804D01*
X56134Y151881D01*
X56134Y151959D01*
X56138Y152036D01*
X56146Y152113D01*
X56158Y152190D01*
X56173Y152265D01*
X56192Y152340D01*
X56215Y152414D01*
X56241Y152487D01*
X56271Y152558D01*
X56305Y152628D01*
X56342Y152696D01*
X56382Y152762D01*
X56426Y152826D01*
X56473Y152888D01*
X56522Y152947D01*
X56575Y153004D01*
X56630Y153058D01*
X56688Y153109D01*
X56749Y153157D01*
X56812Y153202D01*
X56877Y153244D01*
X56944Y153283D01*
X57013Y153318D01*
X57083Y153350D01*
X57155Y153378D01*
X57229Y153403D01*
X57303Y153424D01*
X57378Y153441D01*
X57455Y153455D01*
X57531Y153464D01*
X57609Y153470D01*
X57686Y153472D01*
X57376Y155956D02*
X59238Y155956D01*
X57376Y155956D02*
X57306Y155954D01*
X57237Y155948D01*
X57168Y155938D01*
X57100Y155925D01*
X57032Y155907D01*
X56966Y155886D01*
X56901Y155861D01*
X56837Y155833D01*
X56775Y155801D01*
X56715Y155766D01*
X56657Y155727D01*
X56602Y155685D01*
X56548Y155640D01*
X56498Y155592D01*
X56450Y155542D01*
X56405Y155488D01*
X56363Y155433D01*
X56324Y155375D01*
X56289Y155315D01*
X56257Y155253D01*
X56229Y155189D01*
X56204Y155124D01*
X56183Y155058D01*
X56165Y154990D01*
X56152Y154922D01*
X56142Y154853D01*
X56136Y154784D01*
X56134Y154714D01*
X56136Y154644D01*
X56142Y154575D01*
X56152Y154506D01*
X56165Y154438D01*
X56183Y154370D01*
X56204Y154304D01*
X56229Y154239D01*
X56257Y154175D01*
X56289Y154113D01*
X56324Y154053D01*
X56363Y153995D01*
X56405Y153940D01*
X56450Y153886D01*
X56498Y153836D01*
X56548Y153788D01*
X56602Y153743D01*
X56657Y153701D01*
X56715Y153662D01*
X56775Y153627D01*
X56837Y153595D01*
X56901Y153567D01*
X56966Y153542D01*
X57032Y153521D01*
X57100Y153503D01*
X57168Y153490D01*
X57237Y153480D01*
X57306Y153474D01*
X57376Y153472D01*
X58618Y153472D01*
X50282Y155956D02*
X50282Y150368D01*
X50282Y155956D02*
X48730Y155956D01*
X48653Y155954D01*
X48575Y155948D01*
X48499Y155939D01*
X48422Y155925D01*
X48347Y155908D01*
X48273Y155887D01*
X48199Y155862D01*
X48127Y155834D01*
X48057Y155802D01*
X47988Y155767D01*
X47921Y155728D01*
X47856Y155686D01*
X47793Y155641D01*
X47732Y155593D01*
X47674Y155542D01*
X47619Y155488D01*
X47566Y155431D01*
X47517Y155372D01*
X47470Y155310D01*
X47426Y155246D01*
X47386Y155180D01*
X47349Y155112D01*
X47315Y155042D01*
X47285Y154971D01*
X47259Y154898D01*
X47236Y154824D01*
X47217Y154749D01*
X47202Y154674D01*
X47190Y154597D01*
X47182Y154520D01*
X47178Y154443D01*
X47178Y154365D01*
X47182Y154288D01*
X47190Y154211D01*
X47202Y154134D01*
X47217Y154059D01*
X47236Y153984D01*
X47259Y153910D01*
X47285Y153837D01*
X47315Y153766D01*
X47349Y153696D01*
X47386Y153628D01*
X47426Y153562D01*
X47470Y153498D01*
X47517Y153436D01*
X47566Y153377D01*
X47619Y153320D01*
X47674Y153266D01*
X47732Y153215D01*
X47793Y153167D01*
X47856Y153122D01*
X47921Y153080D01*
X47988Y153041D01*
X48057Y153006D01*
X48127Y152974D01*
X48199Y152946D01*
X48273Y152921D01*
X48347Y152900D01*
X48422Y152883D01*
X48499Y152869D01*
X48575Y152860D01*
X48653Y152854D01*
X48730Y152852D01*
X50282Y152852D01*
X48419Y152852D02*
X47177Y150368D01*
X45142Y150368D02*
X41417Y155956D01*
X45142Y155956D02*
X41417Y150368D01*
X39411Y150834D02*
X39411Y151144D01*
X39101Y151144D01*
X39101Y150834D01*
X39411Y150834D01*
X39411Y153317D02*
X39411Y153628D01*
X39101Y153628D01*
X39101Y153317D01*
X39411Y153317D01*
X37095Y150368D02*
X35233Y155956D01*
X33370Y150368D01*
X33836Y151765D02*
X36630Y151765D01*
X31298Y151610D02*
X30057Y155956D01*
X31298Y151610D02*
X28194Y151610D01*
X29125Y152852D02*
X29125Y150368D01*
X223971Y38580D02*
X223973Y38510D01*
X223979Y38441D01*
X223989Y38372D01*
X224002Y38304D01*
X224020Y38236D01*
X224041Y38170D01*
X224066Y38105D01*
X224094Y38041D01*
X224126Y37979D01*
X224161Y37919D01*
X224200Y37861D01*
X224242Y37806D01*
X224287Y37752D01*
X224335Y37702D01*
X224385Y37654D01*
X224439Y37609D01*
X224494Y37567D01*
X224552Y37528D01*
X224612Y37493D01*
X224674Y37461D01*
X224738Y37433D01*
X224803Y37408D01*
X224869Y37387D01*
X224937Y37369D01*
X225005Y37356D01*
X225074Y37346D01*
X225143Y37340D01*
X225213Y37338D01*
X225312Y37340D01*
X225410Y37345D01*
X225508Y37355D01*
X225606Y37368D01*
X225703Y37384D01*
X225800Y37404D01*
X225895Y37428D01*
X225990Y37456D01*
X226084Y37487D01*
X226176Y37521D01*
X226267Y37559D01*
X226357Y37600D01*
X226445Y37645D01*
X226531Y37693D01*
X226615Y37744D01*
X226697Y37798D01*
X226778Y37856D01*
X226856Y37916D01*
X226931Y37979D01*
X227005Y38045D01*
X227075Y38114D01*
X226921Y41684D02*
X226919Y41754D01*
X226913Y41823D01*
X226903Y41892D01*
X226890Y41960D01*
X226872Y42028D01*
X226851Y42094D01*
X226826Y42159D01*
X226798Y42223D01*
X226766Y42285D01*
X226731Y42345D01*
X226692Y42403D01*
X226650Y42458D01*
X226605Y42512D01*
X226557Y42562D01*
X226507Y42610D01*
X226453Y42655D01*
X226398Y42697D01*
X226340Y42736D01*
X226280Y42771D01*
X226218Y42803D01*
X226154Y42831D01*
X226089Y42856D01*
X226023Y42877D01*
X225955Y42895D01*
X225887Y42908D01*
X225818Y42918D01*
X225749Y42924D01*
X225679Y42926D01*
X225585Y42924D01*
X225492Y42918D01*
X225399Y42909D01*
X225306Y42896D01*
X225214Y42879D01*
X225123Y42859D01*
X225032Y42834D01*
X224943Y42807D01*
X224855Y42775D01*
X224768Y42740D01*
X224682Y42702D01*
X224599Y42660D01*
X224516Y42615D01*
X224436Y42567D01*
X224358Y42515D01*
X224282Y42460D01*
X226300Y40598D02*
X226359Y40634D01*
X226415Y40674D01*
X226469Y40717D01*
X226521Y40762D01*
X226570Y40811D01*
X226616Y40862D01*
X226659Y40915D01*
X226700Y40971D01*
X226737Y41029D01*
X226772Y41089D01*
X226802Y41150D01*
X226830Y41213D01*
X226854Y41278D01*
X226874Y41344D01*
X226891Y41411D01*
X226904Y41478D01*
X226913Y41546D01*
X226919Y41615D01*
X226921Y41684D01*
X224593Y39666D02*
X224534Y39630D01*
X224478Y39590D01*
X224424Y39547D01*
X224372Y39502D01*
X224323Y39453D01*
X224277Y39402D01*
X224234Y39349D01*
X224193Y39293D01*
X224156Y39235D01*
X224121Y39176D01*
X224091Y39114D01*
X224063Y39051D01*
X224039Y38986D01*
X224019Y38920D01*
X224002Y38853D01*
X223989Y38786D01*
X223980Y38718D01*
X223974Y38649D01*
X223972Y38580D01*
X224592Y39666D02*
X226300Y40598D01*
X221972Y42926D02*
X220731Y37338D01*
X219489Y41063D01*
X218247Y37338D01*
X217005Y42926D01*
X214640Y42926D02*
X214640Y37338D01*
X214640Y42926D02*
X213088Y42926D01*
X213012Y42924D01*
X212936Y42919D01*
X212860Y42909D01*
X212785Y42896D01*
X212711Y42879D01*
X212637Y42859D01*
X212565Y42835D01*
X212494Y42808D01*
X212424Y42777D01*
X212356Y42743D01*
X212290Y42705D01*
X212226Y42664D01*
X212163Y42621D01*
X212103Y42574D01*
X212046Y42524D01*
X211991Y42471D01*
X211938Y42416D01*
X211888Y42359D01*
X211841Y42299D01*
X211798Y42236D01*
X211757Y42172D01*
X211719Y42106D01*
X211685Y42038D01*
X211654Y41968D01*
X211627Y41897D01*
X211603Y41825D01*
X211583Y41751D01*
X211566Y41677D01*
X211553Y41602D01*
X211543Y41526D01*
X211538Y41450D01*
X211536Y41374D01*
X211536Y38890D01*
X211538Y38814D01*
X211543Y38738D01*
X211553Y38662D01*
X211566Y38587D01*
X211583Y38513D01*
X211603Y38439D01*
X211627Y38367D01*
X211654Y38296D01*
X211685Y38226D01*
X211719Y38158D01*
X211757Y38092D01*
X211798Y38028D01*
X211841Y37965D01*
X211888Y37905D01*
X211938Y37848D01*
X211991Y37793D01*
X212046Y37740D01*
X212103Y37690D01*
X212163Y37643D01*
X212226Y37600D01*
X212290Y37559D01*
X212356Y37521D01*
X212424Y37487D01*
X212494Y37456D01*
X212565Y37429D01*
X212637Y37405D01*
X212711Y37385D01*
X212785Y37368D01*
X212860Y37355D01*
X212936Y37345D01*
X213012Y37340D01*
X213088Y37338D01*
X214640Y37338D01*
X209037Y37804D02*
X209037Y38114D01*
X208727Y38114D01*
X208727Y37804D01*
X209037Y37804D01*
X209037Y40287D02*
X209037Y40598D01*
X208727Y40598D01*
X208727Y40287D01*
X209037Y40287D01*
X225524Y31298D02*
X227076Y31298D01*
X225524Y31298D02*
X225447Y31296D01*
X225369Y31290D01*
X225293Y31281D01*
X225216Y31267D01*
X225141Y31250D01*
X225067Y31229D01*
X224993Y31204D01*
X224921Y31176D01*
X224851Y31144D01*
X224782Y31109D01*
X224715Y31070D01*
X224650Y31028D01*
X224587Y30983D01*
X224526Y30935D01*
X224468Y30884D01*
X224413Y30830D01*
X224360Y30773D01*
X224311Y30714D01*
X224264Y30652D01*
X224220Y30588D01*
X224180Y30522D01*
X224143Y30454D01*
X224109Y30384D01*
X224079Y30313D01*
X224053Y30240D01*
X224030Y30166D01*
X224011Y30091D01*
X223996Y30016D01*
X223984Y29939D01*
X223976Y29862D01*
X223972Y29785D01*
X223972Y29707D01*
X223976Y29630D01*
X223984Y29553D01*
X223996Y29476D01*
X224011Y29401D01*
X224030Y29326D01*
X224053Y29252D01*
X224079Y29179D01*
X224109Y29108D01*
X224143Y29038D01*
X224180Y28970D01*
X224220Y28904D01*
X224264Y28840D01*
X224311Y28778D01*
X224360Y28719D01*
X224413Y28662D01*
X224468Y28608D01*
X224526Y28557D01*
X224587Y28509D01*
X224650Y28464D01*
X224715Y28422D01*
X224782Y28383D01*
X224851Y28348D01*
X224921Y28316D01*
X224993Y28288D01*
X225067Y28263D01*
X225141Y28242D01*
X225216Y28225D01*
X225293Y28211D01*
X225369Y28202D01*
X225447Y28196D01*
X225524Y28194D01*
X227076Y28194D01*
X227076Y33782D01*
X225524Y33782D01*
X225454Y33780D01*
X225385Y33774D01*
X225316Y33764D01*
X225248Y33751D01*
X225180Y33733D01*
X225114Y33712D01*
X225049Y33687D01*
X224985Y33659D01*
X224923Y33627D01*
X224863Y33592D01*
X224805Y33553D01*
X224750Y33511D01*
X224696Y33466D01*
X224646Y33418D01*
X224598Y33368D01*
X224553Y33314D01*
X224511Y33259D01*
X224472Y33201D01*
X224437Y33141D01*
X224405Y33079D01*
X224377Y33015D01*
X224352Y32950D01*
X224331Y32884D01*
X224313Y32816D01*
X224300Y32748D01*
X224290Y32679D01*
X224284Y32610D01*
X224282Y32540D01*
X224284Y32470D01*
X224290Y32401D01*
X224300Y32332D01*
X224313Y32264D01*
X224331Y32196D01*
X224352Y32130D01*
X224377Y32065D01*
X224405Y32001D01*
X224437Y31939D01*
X224472Y31879D01*
X224511Y31821D01*
X224553Y31766D01*
X224598Y31712D01*
X224646Y31662D01*
X224696Y31614D01*
X224750Y31569D01*
X224805Y31527D01*
X224863Y31488D01*
X224923Y31453D01*
X224985Y31421D01*
X225049Y31393D01*
X225114Y31368D01*
X225180Y31347D01*
X225248Y31329D01*
X225316Y31316D01*
X225385Y31306D01*
X225454Y31300D01*
X225524Y31298D01*
X221856Y31298D02*
X219993Y31298D01*
X219993Y31299D02*
X219923Y31297D01*
X219854Y31291D01*
X219785Y31281D01*
X219717Y31268D01*
X219649Y31250D01*
X219583Y31229D01*
X219518Y31204D01*
X219454Y31176D01*
X219392Y31144D01*
X219332Y31109D01*
X219274Y31070D01*
X219219Y31028D01*
X219165Y30983D01*
X219115Y30935D01*
X219067Y30885D01*
X219022Y30831D01*
X218980Y30776D01*
X218941Y30718D01*
X218906Y30658D01*
X218874Y30596D01*
X218846Y30532D01*
X218821Y30467D01*
X218800Y30401D01*
X218782Y30333D01*
X218769Y30265D01*
X218759Y30196D01*
X218753Y30127D01*
X218751Y30057D01*
X218751Y29746D01*
X218753Y29669D01*
X218759Y29591D01*
X218768Y29515D01*
X218782Y29438D01*
X218799Y29363D01*
X218820Y29289D01*
X218845Y29215D01*
X218873Y29143D01*
X218905Y29073D01*
X218940Y29004D01*
X218979Y28937D01*
X219021Y28872D01*
X219066Y28809D01*
X219114Y28748D01*
X219165Y28690D01*
X219219Y28635D01*
X219276Y28582D01*
X219335Y28533D01*
X219397Y28486D01*
X219461Y28442D01*
X219527Y28402D01*
X219595Y28365D01*
X219665Y28331D01*
X219736Y28301D01*
X219809Y28275D01*
X219883Y28252D01*
X219958Y28233D01*
X220033Y28218D01*
X220110Y28206D01*
X220187Y28198D01*
X220264Y28194D01*
X220342Y28194D01*
X220419Y28198D01*
X220496Y28206D01*
X220573Y28218D01*
X220648Y28233D01*
X220723Y28252D01*
X220797Y28275D01*
X220870Y28301D01*
X220941Y28331D01*
X221011Y28365D01*
X221079Y28402D01*
X221145Y28442D01*
X221209Y28486D01*
X221271Y28533D01*
X221330Y28582D01*
X221387Y28635D01*
X221441Y28690D01*
X221492Y28748D01*
X221540Y28809D01*
X221585Y28872D01*
X221627Y28937D01*
X221666Y29004D01*
X221701Y29073D01*
X221733Y29143D01*
X221761Y29215D01*
X221786Y29289D01*
X221807Y29363D01*
X221824Y29438D01*
X221838Y29515D01*
X221847Y29591D01*
X221853Y29669D01*
X221855Y29746D01*
X221856Y29746D02*
X221856Y31298D01*
X221854Y31396D01*
X221848Y31493D01*
X221839Y31590D01*
X221825Y31687D01*
X221808Y31783D01*
X221787Y31878D01*
X221763Y31972D01*
X221734Y32066D01*
X221702Y32158D01*
X221667Y32249D01*
X221628Y32338D01*
X221585Y32426D01*
X221539Y32512D01*
X221490Y32596D01*
X221437Y32678D01*
X221382Y32758D01*
X221323Y32836D01*
X221261Y32911D01*
X221196Y32984D01*
X221128Y33054D01*
X221058Y33122D01*
X220985Y33187D01*
X220910Y33249D01*
X220832Y33308D01*
X220752Y33363D01*
X220670Y33416D01*
X220586Y33465D01*
X220500Y33511D01*
X220412Y33554D01*
X220323Y33593D01*
X220232Y33628D01*
X220140Y33660D01*
X220046Y33689D01*
X219952Y33713D01*
X219857Y33734D01*
X219761Y33751D01*
X219664Y33765D01*
X219567Y33774D01*
X219470Y33780D01*
X219372Y33782D01*
X99281Y150368D02*
X99211Y150370D01*
X99142Y150376D01*
X99073Y150386D01*
X99005Y150399D01*
X98937Y150417D01*
X98871Y150438D01*
X98806Y150463D01*
X98742Y150491D01*
X98680Y150523D01*
X98620Y150558D01*
X98562Y150597D01*
X98507Y150639D01*
X98453Y150684D01*
X98403Y150732D01*
X98355Y150782D01*
X98310Y150836D01*
X98268Y150891D01*
X98229Y150949D01*
X98194Y151009D01*
X98162Y151071D01*
X98134Y151135D01*
X98109Y151200D01*
X98088Y151266D01*
X98070Y151334D01*
X98057Y151402D01*
X98047Y151471D01*
X98041Y151540D01*
X98039Y151610D01*
X99281Y150368D02*
X99380Y150370D01*
X99478Y150375D01*
X99576Y150385D01*
X99674Y150398D01*
X99771Y150414D01*
X99868Y150434D01*
X99963Y150458D01*
X100058Y150486D01*
X100152Y150517D01*
X100244Y150551D01*
X100335Y150589D01*
X100425Y150630D01*
X100513Y150675D01*
X100599Y150723D01*
X100683Y150774D01*
X100765Y150828D01*
X100846Y150886D01*
X100924Y150946D01*
X100999Y151009D01*
X101073Y151075D01*
X101143Y151144D01*
X100988Y154714D02*
X100986Y154784D01*
X100980Y154853D01*
X100970Y154922D01*
X100957Y154990D01*
X100939Y155058D01*
X100918Y155124D01*
X100893Y155189D01*
X100865Y155253D01*
X100833Y155315D01*
X100798Y155375D01*
X100759Y155433D01*
X100717Y155488D01*
X100672Y155542D01*
X100624Y155592D01*
X100574Y155640D01*
X100520Y155685D01*
X100465Y155727D01*
X100407Y155766D01*
X100347Y155801D01*
X100285Y155833D01*
X100221Y155861D01*
X100156Y155886D01*
X100090Y155907D01*
X100022Y155925D01*
X99954Y155938D01*
X99885Y155948D01*
X99816Y155954D01*
X99746Y155956D01*
X99652Y155954D01*
X99559Y155948D01*
X99466Y155939D01*
X99373Y155926D01*
X99281Y155909D01*
X99190Y155889D01*
X99099Y155864D01*
X99010Y155837D01*
X98922Y155805D01*
X98835Y155770D01*
X98749Y155732D01*
X98666Y155690D01*
X98583Y155645D01*
X98503Y155597D01*
X98425Y155545D01*
X98349Y155490D01*
X100367Y153628D02*
X100426Y153664D01*
X100482Y153704D01*
X100536Y153747D01*
X100588Y153792D01*
X100637Y153841D01*
X100683Y153892D01*
X100726Y153945D01*
X100767Y154001D01*
X100804Y154059D01*
X100839Y154119D01*
X100869Y154180D01*
X100897Y154243D01*
X100921Y154308D01*
X100941Y154374D01*
X100958Y154441D01*
X100971Y154508D01*
X100980Y154576D01*
X100986Y154645D01*
X100988Y154714D01*
X98660Y152696D02*
X98601Y152660D01*
X98545Y152620D01*
X98491Y152577D01*
X98439Y152532D01*
X98390Y152483D01*
X98344Y152432D01*
X98301Y152379D01*
X98260Y152323D01*
X98223Y152265D01*
X98188Y152206D01*
X98158Y152144D01*
X98130Y152081D01*
X98106Y152016D01*
X98086Y151950D01*
X98069Y151883D01*
X98056Y151816D01*
X98047Y151748D01*
X98041Y151679D01*
X98039Y151610D01*
X98660Y152696D02*
X100367Y153628D01*
X96040Y155956D02*
X94798Y150368D01*
X93556Y154093D01*
X92314Y150368D01*
X91072Y155956D01*
X87665Y150368D02*
X86423Y150368D01*
X87665Y150368D02*
X87735Y150370D01*
X87804Y150376D01*
X87873Y150386D01*
X87941Y150399D01*
X88009Y150417D01*
X88075Y150438D01*
X88140Y150463D01*
X88204Y150491D01*
X88266Y150523D01*
X88326Y150558D01*
X88384Y150597D01*
X88439Y150639D01*
X88493Y150684D01*
X88543Y150732D01*
X88591Y150782D01*
X88636Y150836D01*
X88678Y150891D01*
X88717Y150949D01*
X88752Y151009D01*
X88784Y151071D01*
X88812Y151135D01*
X88837Y151200D01*
X88858Y151266D01*
X88876Y151334D01*
X88889Y151402D01*
X88899Y151471D01*
X88905Y151540D01*
X88907Y151610D01*
X88907Y154714D01*
X88905Y154784D01*
X88899Y154853D01*
X88889Y154922D01*
X88876Y154990D01*
X88858Y155058D01*
X88837Y155124D01*
X88812Y155189D01*
X88784Y155253D01*
X88752Y155315D01*
X88717Y155375D01*
X88678Y155433D01*
X88636Y155488D01*
X88591Y155542D01*
X88543Y155592D01*
X88493Y155640D01*
X88439Y155685D01*
X88384Y155727D01*
X88326Y155766D01*
X88266Y155801D01*
X88204Y155833D01*
X88140Y155861D01*
X88075Y155886D01*
X88009Y155907D01*
X87941Y155925D01*
X87873Y155938D01*
X87804Y155948D01*
X87735Y155954D01*
X87665Y155956D01*
X86423Y155956D01*
X84384Y151144D02*
X84384Y150834D01*
X84384Y151144D02*
X84074Y151144D01*
X84074Y150834D01*
X84384Y150834D01*
X84384Y153317D02*
X84384Y153628D01*
X84074Y153628D01*
X84074Y153317D01*
X84384Y153317D01*
X99281Y146812D02*
X101143Y141224D01*
X97418Y141224D02*
X99281Y146812D01*
X97884Y142621D02*
X100678Y142621D01*
X93639Y146812D02*
X93566Y146810D01*
X93493Y146804D01*
X93420Y146795D01*
X93349Y146781D01*
X93277Y146764D01*
X93207Y146744D01*
X93138Y146719D01*
X93071Y146691D01*
X93005Y146660D01*
X92941Y146625D01*
X92878Y146587D01*
X92818Y146545D01*
X92760Y146501D01*
X92704Y146453D01*
X92651Y146403D01*
X92601Y146350D01*
X92553Y146294D01*
X92509Y146236D01*
X92467Y146176D01*
X92429Y146114D01*
X92394Y146049D01*
X92363Y145983D01*
X92335Y145916D01*
X92310Y145847D01*
X92290Y145777D01*
X92273Y145705D01*
X92259Y145634D01*
X92250Y145561D01*
X92244Y145488D01*
X92242Y145415D01*
X93639Y146812D02*
X93723Y146810D01*
X93806Y146804D01*
X93889Y146795D01*
X93971Y146781D01*
X94053Y146764D01*
X94134Y146742D01*
X94214Y146717D01*
X94292Y146689D01*
X94370Y146657D01*
X94445Y146621D01*
X94519Y146582D01*
X94591Y146539D01*
X94661Y146493D01*
X94728Y146444D01*
X94794Y146391D01*
X94856Y146336D01*
X94916Y146278D01*
X94974Y146217D01*
X95028Y146154D01*
X95080Y146088D01*
X95128Y146020D01*
X95173Y145949D01*
X95215Y145877D01*
X95253Y145802D01*
X95288Y145726D01*
X95319Y145649D01*
X95347Y145570D01*
X92708Y144329D02*
X92654Y144382D01*
X92603Y144439D01*
X92555Y144498D01*
X92510Y144559D01*
X92469Y144622D01*
X92430Y144688D01*
X92395Y144755D01*
X92363Y144824D01*
X92335Y144895D01*
X92311Y144966D01*
X92290Y145039D01*
X92273Y145113D01*
X92259Y145188D01*
X92250Y145263D01*
X92244Y145339D01*
X92242Y145415D01*
X92708Y144328D02*
X95346Y141224D01*
X92242Y141224D01*
D13*
X311110Y55130D02*
X346110Y55130D01*
X346110Y120130D01*
X311110Y120130D01*
X311110Y55130D01*
X307610Y56630D02*
X288610Y56630D01*
D14*
X175060Y115380D02*
X175060Y123380D01*
X150060Y123380D02*
X150060Y115380D01*
X160560Y103380D02*
X164560Y103380D01*
X164560Y135380D02*
X160560Y135380D01*
D13*
X182560Y139380D02*
X182622Y139382D01*
X182683Y139388D01*
X182744Y139397D01*
X182804Y139410D01*
X182863Y139427D01*
X182921Y139448D01*
X182978Y139472D01*
X183033Y139499D01*
X183086Y139530D01*
X183138Y139564D01*
X183187Y139601D01*
X183234Y139641D01*
X183278Y139684D01*
X183319Y139729D01*
X183358Y139777D01*
X183394Y139828D01*
X183426Y139880D01*
X183455Y139934D01*
X183481Y139990D01*
X183503Y140048D01*
X183522Y140106D01*
X183537Y140166D01*
X183548Y140227D01*
X183556Y140288D01*
X183560Y140349D01*
X183560Y140411D01*
X183556Y140472D01*
X183548Y140533D01*
X183537Y140594D01*
X183522Y140654D01*
X183503Y140712D01*
X183481Y140770D01*
X183455Y140826D01*
X183426Y140880D01*
X183394Y140932D01*
X183358Y140983D01*
X183319Y141031D01*
X183278Y141076D01*
X183234Y141119D01*
X183187Y141159D01*
X183138Y141196D01*
X183086Y141230D01*
X183033Y141261D01*
X182978Y141288D01*
X182921Y141312D01*
X182863Y141333D01*
X182804Y141350D01*
X182744Y141363D01*
X182683Y141372D01*
X182622Y141378D01*
X182560Y141380D01*
X182498Y141378D01*
X182437Y141372D01*
X182376Y141363D01*
X182316Y141350D01*
X182257Y141333D01*
X182199Y141312D01*
X182142Y141288D01*
X182087Y141261D01*
X182034Y141230D01*
X181982Y141196D01*
X181933Y141159D01*
X181886Y141119D01*
X181842Y141076D01*
X181801Y141031D01*
X181762Y140983D01*
X181726Y140932D01*
X181694Y140880D01*
X181665Y140826D01*
X181639Y140770D01*
X181617Y140712D01*
X181598Y140654D01*
X181583Y140594D01*
X181572Y140533D01*
X181564Y140472D01*
X181560Y140411D01*
X181560Y140349D01*
X181564Y140288D01*
X181572Y140227D01*
X181583Y140166D01*
X181598Y140106D01*
X181617Y140048D01*
X181639Y139990D01*
X181665Y139934D01*
X181694Y139880D01*
X181726Y139828D01*
X181762Y139777D01*
X181801Y139729D01*
X181842Y139684D01*
X181886Y139641D01*
X181933Y139601D01*
X181982Y139564D01*
X182034Y139530D01*
X182087Y139499D01*
X182142Y139472D01*
X182199Y139448D01*
X182257Y139427D01*
X182316Y139410D01*
X182376Y139397D01*
X182437Y139388D01*
X182498Y139382D01*
X182560Y139380D01*
M02*
