G04 EAGLE Gerber RS-274X export*
G75*
%MOMM*%
%FSLAX34Y34*%
%LPD*%
%INTop Copper*%
%IPPOS*%
%AMOC8*
5,1,8,0,0,1.08239X$1,22.5*%
G01*
%ADD10R,0.400000X1.000000*%
%ADD11R,1.500000X1.300000*%
%ADD12R,1.600000X2.300000*%
%ADD13R,1.300000X1.500000*%
%ADD14R,1.200000X1.200000*%
%ADD15R,2.500000X0.500000*%
%ADD16R,2.500000X2.000000*%
%ADD17R,0.400000X1.499997*%
%ADD18C,1.879600*%
%ADD19R,0.635000X1.270000*%
%ADD20R,2.300000X1.600000*%
%ADD21C,0.406400*%
%ADD22C,0.858000*%
%ADD23C,0.254000*%
%ADD24C,0.203200*%

G36*
X435026Y2003D02*
X435026Y2003D01*
X435044Y2001D01*
X435226Y2022D01*
X435409Y2041D01*
X435426Y2046D01*
X435443Y2048D01*
X435618Y2105D01*
X435794Y2159D01*
X435809Y2167D01*
X435826Y2173D01*
X435986Y2263D01*
X436148Y2351D01*
X436161Y2362D01*
X436177Y2371D01*
X436316Y2491D01*
X436457Y2608D01*
X436468Y2622D01*
X436482Y2634D01*
X436594Y2779D01*
X436709Y2922D01*
X436717Y2938D01*
X436728Y2952D01*
X436810Y3117D01*
X436895Y3279D01*
X436900Y3296D01*
X436908Y3312D01*
X436955Y3491D01*
X437006Y3666D01*
X437008Y3684D01*
X437012Y3701D01*
X437039Y4032D01*
X437039Y181998D01*
X437037Y182016D01*
X437039Y182034D01*
X437018Y182216D01*
X436999Y182399D01*
X436994Y182416D01*
X436992Y182433D01*
X436935Y182608D01*
X436881Y182784D01*
X436873Y182799D01*
X436867Y182816D01*
X436777Y182976D01*
X436689Y183138D01*
X436678Y183151D01*
X436669Y183167D01*
X436549Y183306D01*
X436432Y183447D01*
X436418Y183458D01*
X436406Y183472D01*
X436261Y183584D01*
X436118Y183699D01*
X436102Y183707D01*
X436088Y183718D01*
X435923Y183800D01*
X435761Y183885D01*
X435744Y183890D01*
X435728Y183898D01*
X435549Y183945D01*
X435374Y183996D01*
X435356Y183998D01*
X435339Y184002D01*
X435008Y184029D01*
X326237Y184029D01*
X326153Y184021D01*
X326069Y184022D01*
X325953Y184001D01*
X325836Y183989D01*
X325756Y183965D01*
X325673Y183949D01*
X325564Y183906D01*
X325451Y183871D01*
X325377Y183831D01*
X325299Y183800D01*
X325201Y183735D01*
X325097Y183679D01*
X325033Y183626D01*
X324962Y183579D01*
X324878Y183497D01*
X324788Y183422D01*
X324735Y183356D01*
X324675Y183297D01*
X324609Y183199D01*
X324536Y183108D01*
X324497Y183033D01*
X324450Y182963D01*
X324404Y182855D01*
X324350Y182751D01*
X324327Y182670D01*
X324294Y182592D01*
X324271Y182477D01*
X324239Y182364D01*
X324232Y182280D01*
X324215Y182197D01*
X324216Y182079D01*
X324206Y181962D01*
X324216Y181879D01*
X324216Y181794D01*
X324239Y181679D01*
X324253Y181563D01*
X324279Y181482D01*
X324296Y181400D01*
X324341Y181291D01*
X324378Y181180D01*
X324419Y181106D01*
X324452Y181029D01*
X324518Y180931D01*
X324576Y180829D01*
X324631Y180765D01*
X324678Y180696D01*
X324762Y180613D01*
X324839Y180525D01*
X324905Y180473D01*
X324966Y180414D01*
X325064Y180350D01*
X325157Y180278D01*
X325232Y180240D01*
X325303Y180194D01*
X325440Y180137D01*
X325517Y180098D01*
X325558Y180087D01*
X325609Y180066D01*
X325893Y179974D01*
X327567Y179121D01*
X329088Y178016D01*
X330416Y176688D01*
X331521Y175167D01*
X332374Y173493D01*
X332955Y171706D01*
X332995Y171449D01*
X321818Y171449D01*
X321800Y171447D01*
X321783Y171449D01*
X321600Y171428D01*
X321418Y171409D01*
X321401Y171404D01*
X321383Y171402D01*
X321305Y171377D01*
X321168Y171416D01*
X321150Y171418D01*
X321133Y171422D01*
X320802Y171449D01*
X296418Y171449D01*
X296400Y171447D01*
X296383Y171449D01*
X296200Y171428D01*
X296018Y171409D01*
X296001Y171404D01*
X295983Y171402D01*
X295808Y171345D01*
X295633Y171291D01*
X295617Y171283D01*
X295600Y171277D01*
X295440Y171187D01*
X295279Y171099D01*
X295265Y171088D01*
X295249Y171079D01*
X295110Y170959D01*
X294969Y170842D01*
X294958Y170828D01*
X294945Y170816D01*
X294832Y170671D01*
X294717Y170528D01*
X294709Y170512D01*
X294698Y170498D01*
X294616Y170333D01*
X294576Y170257D01*
X294424Y170171D01*
X294262Y170083D01*
X294249Y170072D01*
X294233Y170063D01*
X294094Y169943D01*
X293953Y169825D01*
X293942Y169812D01*
X293928Y169800D01*
X293816Y169655D01*
X293701Y169512D01*
X293693Y169496D01*
X293682Y169482D01*
X293599Y169316D01*
X293515Y169154D01*
X293510Y169137D01*
X293502Y169121D01*
X293454Y168943D01*
X293404Y168768D01*
X293402Y168750D01*
X293398Y168733D01*
X293371Y168402D01*
X293371Y157225D01*
X293114Y157265D01*
X291327Y157846D01*
X289653Y158699D01*
X288132Y159804D01*
X286804Y161132D01*
X285699Y162653D01*
X284846Y164327D01*
X284608Y165059D01*
X284572Y165141D01*
X284546Y165225D01*
X284492Y165324D01*
X284446Y165428D01*
X284395Y165501D01*
X284353Y165578D01*
X284280Y165665D01*
X284215Y165757D01*
X284151Y165819D01*
X284094Y165887D01*
X284005Y165957D01*
X283923Y166035D01*
X283848Y166082D01*
X283779Y166138D01*
X283678Y166189D01*
X283583Y166249D01*
X283500Y166281D01*
X283421Y166321D01*
X283312Y166352D01*
X283206Y166392D01*
X283119Y166407D01*
X283033Y166431D01*
X282921Y166440D01*
X282809Y166458D01*
X282720Y166455D01*
X282632Y166462D01*
X282520Y166449D01*
X282407Y166445D01*
X282320Y166424D01*
X282232Y166414D01*
X282125Y166378D01*
X282015Y166352D01*
X281934Y166315D01*
X281850Y166287D01*
X281752Y166231D01*
X281649Y166184D01*
X281577Y166132D01*
X281500Y166088D01*
X281415Y166014D01*
X281324Y165947D01*
X281264Y165881D01*
X281197Y165823D01*
X281128Y165734D01*
X281051Y165650D01*
X281005Y165574D01*
X280951Y165504D01*
X280887Y165378D01*
X280843Y165306D01*
X280827Y165263D01*
X280800Y165209D01*
X279770Y162723D01*
X276697Y159650D01*
X272683Y157987D01*
X268337Y157987D01*
X265945Y158978D01*
X265923Y158985D01*
X265904Y158995D01*
X265731Y159043D01*
X265559Y159095D01*
X265537Y159097D01*
X265516Y159103D01*
X265336Y159116D01*
X265159Y159133D01*
X265136Y159131D01*
X265114Y159132D01*
X264935Y159110D01*
X264758Y159091D01*
X264737Y159085D01*
X264715Y159082D01*
X264544Y159025D01*
X264374Y158971D01*
X264354Y158961D01*
X264333Y158954D01*
X264177Y158864D01*
X264021Y158778D01*
X264004Y158764D01*
X263984Y158753D01*
X263731Y158538D01*
X258521Y153328D01*
X258516Y153321D01*
X258509Y153316D01*
X258389Y153166D01*
X258266Y153017D01*
X258262Y153009D01*
X258257Y153002D01*
X258167Y152830D01*
X258078Y152661D01*
X258075Y152653D01*
X258071Y152645D01*
X258018Y152459D01*
X257963Y152275D01*
X257962Y152266D01*
X257960Y152258D01*
X257944Y152066D01*
X257927Y151874D01*
X257928Y151865D01*
X257927Y151856D01*
X257949Y151667D01*
X257970Y151474D01*
X257973Y151465D01*
X257974Y151457D01*
X258033Y151275D01*
X258091Y151090D01*
X258096Y151082D01*
X258099Y151074D01*
X258194Y150905D01*
X258286Y150738D01*
X258292Y150731D01*
X258296Y150723D01*
X258422Y150577D01*
X258547Y150431D01*
X258554Y150425D01*
X258560Y150418D01*
X258711Y150301D01*
X258863Y150181D01*
X258871Y150177D01*
X258878Y150172D01*
X259050Y150086D01*
X259222Y149999D01*
X259230Y149996D01*
X259238Y149992D01*
X259425Y149942D01*
X259610Y149891D01*
X259618Y149890D01*
X259627Y149888D01*
X259958Y149861D01*
X326566Y149861D01*
X326588Y149863D01*
X326610Y149861D01*
X326788Y149883D01*
X326966Y149901D01*
X326988Y149907D01*
X327010Y149910D01*
X327180Y149966D01*
X327351Y150019D01*
X327371Y150029D01*
X327392Y150036D01*
X327547Y150125D01*
X327705Y150211D01*
X327722Y150225D01*
X327742Y150236D01*
X327877Y150354D01*
X328014Y150468D01*
X328028Y150486D01*
X328045Y150500D01*
X328155Y150643D01*
X328267Y150782D01*
X328277Y150802D01*
X328291Y150820D01*
X328442Y151115D01*
X328473Y151189D01*
X330395Y153111D01*
X332905Y154151D01*
X335623Y154151D01*
X335697Y154120D01*
X335719Y154113D01*
X335739Y154103D01*
X335911Y154055D01*
X336083Y154003D01*
X336105Y154001D01*
X336126Y153995D01*
X336306Y153982D01*
X336483Y153965D01*
X336506Y153968D01*
X336528Y153966D01*
X336707Y153988D01*
X336884Y154007D01*
X336905Y154013D01*
X336927Y154016D01*
X337098Y154073D01*
X337268Y154127D01*
X337288Y154137D01*
X337309Y154144D01*
X337464Y154233D01*
X337621Y154320D01*
X337639Y154334D01*
X337658Y154345D01*
X337911Y154560D01*
X339690Y156339D01*
X339707Y156360D01*
X339728Y156378D01*
X339834Y156516D01*
X339945Y156651D01*
X339958Y156675D01*
X339974Y156696D01*
X340052Y156852D01*
X340134Y157007D01*
X340142Y157032D01*
X340154Y157056D01*
X340199Y157225D01*
X340249Y157393D01*
X340251Y157419D01*
X340258Y157445D01*
X340285Y157776D01*
X340285Y171192D01*
X341178Y172085D01*
X365442Y172085D01*
X366335Y171192D01*
X366335Y153928D01*
X365442Y153035D01*
X344414Y153035D01*
X344387Y153033D01*
X344361Y153035D01*
X344187Y153013D01*
X344013Y152995D01*
X343988Y152988D01*
X343961Y152984D01*
X343795Y152928D01*
X343628Y152877D01*
X343605Y152865D01*
X343579Y152856D01*
X343428Y152769D01*
X343274Y152685D01*
X343254Y152668D01*
X343231Y152655D01*
X342978Y152440D01*
X341504Y150967D01*
X341490Y150950D01*
X341473Y150935D01*
X341362Y150793D01*
X341249Y150655D01*
X341239Y150636D01*
X341225Y150618D01*
X341144Y150458D01*
X341060Y150300D01*
X341054Y150278D01*
X341044Y150258D01*
X340997Y150085D01*
X340946Y149914D01*
X340944Y149892D01*
X340938Y149870D01*
X340925Y149692D01*
X340909Y149513D01*
X340912Y149491D01*
X340910Y149468D01*
X340933Y149291D01*
X340953Y149113D01*
X340959Y149091D01*
X340962Y149069D01*
X341064Y148753D01*
X341095Y148679D01*
X341095Y146186D01*
X341097Y146168D01*
X341095Y146150D01*
X341116Y145968D01*
X341135Y145785D01*
X341140Y145768D01*
X341142Y145751D01*
X341199Y145576D01*
X341253Y145400D01*
X341261Y145385D01*
X341267Y145368D01*
X341357Y145208D01*
X341445Y145046D01*
X341456Y145033D01*
X341465Y145017D01*
X341585Y144878D01*
X341702Y144737D01*
X341716Y144726D01*
X341728Y144712D01*
X341873Y144600D01*
X342016Y144485D01*
X342032Y144477D01*
X342046Y144466D01*
X342211Y144384D01*
X342373Y144299D01*
X342390Y144294D01*
X342406Y144286D01*
X342585Y144239D01*
X342760Y144188D01*
X342778Y144186D01*
X342795Y144182D01*
X343126Y144155D01*
X367542Y144155D01*
X368435Y143262D01*
X368435Y121998D01*
X367542Y121105D01*
X341278Y121105D01*
X340385Y121998D01*
X340385Y139422D01*
X340384Y139435D01*
X340385Y139449D01*
X340364Y139634D01*
X340345Y139823D01*
X340341Y139835D01*
X340340Y139849D01*
X340283Y140027D01*
X340227Y140208D01*
X340221Y140219D01*
X340217Y140232D01*
X340125Y140396D01*
X340035Y140562D01*
X340027Y140572D01*
X340020Y140584D01*
X339898Y140727D01*
X339778Y140871D01*
X339767Y140879D01*
X339759Y140889D01*
X339610Y141006D01*
X339464Y141123D01*
X339452Y141129D01*
X339442Y141138D01*
X339272Y141223D01*
X339107Y141309D01*
X339094Y141312D01*
X339082Y141318D01*
X338899Y141368D01*
X338720Y141420D01*
X338706Y141421D01*
X338693Y141425D01*
X338505Y141438D01*
X338318Y141453D01*
X338305Y141451D01*
X338292Y141452D01*
X338104Y141428D01*
X337919Y141406D01*
X337906Y141402D01*
X337893Y141400D01*
X337577Y141299D01*
X335623Y140489D01*
X332905Y140489D01*
X330395Y141529D01*
X328473Y143451D01*
X328442Y143525D01*
X328432Y143545D01*
X328425Y143566D01*
X328337Y143722D01*
X328252Y143880D01*
X328238Y143897D01*
X328227Y143917D01*
X328110Y144053D01*
X327996Y144191D01*
X327978Y144205D01*
X327964Y144222D01*
X327823Y144331D01*
X327683Y144444D01*
X327663Y144455D01*
X327646Y144468D01*
X327485Y144548D01*
X327327Y144631D01*
X327305Y144638D01*
X327285Y144648D01*
X327112Y144694D01*
X326940Y144744D01*
X326918Y144746D01*
X326896Y144752D01*
X326566Y144779D01*
X262498Y144779D01*
X262471Y144777D01*
X262444Y144779D01*
X262271Y144757D01*
X262097Y144739D01*
X262072Y144732D01*
X262045Y144728D01*
X261879Y144673D01*
X261712Y144621D01*
X261689Y144608D01*
X261663Y144600D01*
X261512Y144513D01*
X261358Y144429D01*
X261338Y144412D01*
X261314Y144399D01*
X261061Y144184D01*
X241769Y124892D01*
X241752Y124871D01*
X241731Y124853D01*
X241624Y124715D01*
X241514Y124580D01*
X241501Y124556D01*
X241485Y124535D01*
X241407Y124379D01*
X241325Y124224D01*
X241317Y124199D01*
X241305Y124175D01*
X241260Y124005D01*
X241210Y123838D01*
X241208Y123812D01*
X241201Y123786D01*
X241174Y123455D01*
X241174Y113792D01*
X241176Y113774D01*
X241174Y113756D01*
X241195Y113574D01*
X241214Y113391D01*
X241219Y113374D01*
X241221Y113357D01*
X241278Y113182D01*
X241332Y113006D01*
X241340Y112991D01*
X241346Y112974D01*
X241436Y112814D01*
X241524Y112652D01*
X241535Y112639D01*
X241544Y112623D01*
X241664Y112484D01*
X241781Y112343D01*
X241795Y112332D01*
X241807Y112318D01*
X241952Y112206D01*
X242095Y112091D01*
X242111Y112083D01*
X242125Y112072D01*
X242290Y111990D01*
X242452Y111905D01*
X242469Y111900D01*
X242485Y111892D01*
X242664Y111845D01*
X242839Y111794D01*
X242857Y111792D01*
X242874Y111788D01*
X243205Y111761D01*
X246176Y111761D01*
X262318Y95620D01*
X262338Y95603D01*
X262356Y95582D01*
X262494Y95475D01*
X262629Y95365D01*
X262653Y95352D01*
X262674Y95336D01*
X262831Y95258D01*
X262985Y95176D01*
X263010Y95168D01*
X263034Y95156D01*
X263204Y95111D01*
X263371Y95061D01*
X263397Y95059D01*
X263423Y95052D01*
X263754Y95025D01*
X290518Y95025D01*
X292601Y92942D01*
X292602Y92941D01*
X303051Y82492D01*
X303051Y77666D01*
X303053Y77639D01*
X303051Y77612D01*
X303073Y77439D01*
X303091Y77265D01*
X303098Y77240D01*
X303102Y77213D01*
X303157Y77048D01*
X303209Y76880D01*
X303222Y76857D01*
X303230Y76831D01*
X303317Y76680D01*
X303400Y76526D01*
X303418Y76506D01*
X303431Y76482D01*
X303646Y76229D01*
X304074Y75801D01*
X304087Y75790D01*
X304099Y75776D01*
X304243Y75663D01*
X304385Y75546D01*
X304401Y75538D01*
X304415Y75527D01*
X304578Y75444D01*
X304741Y75358D01*
X304758Y75353D01*
X304774Y75344D01*
X304951Y75295D01*
X305127Y75243D01*
X305144Y75241D01*
X305162Y75236D01*
X305345Y75223D01*
X305528Y75206D01*
X305545Y75208D01*
X305563Y75207D01*
X305746Y75230D01*
X305928Y75250D01*
X305945Y75255D01*
X305963Y75258D01*
X306137Y75316D01*
X306312Y75371D01*
X306327Y75380D01*
X306344Y75386D01*
X306504Y75478D01*
X306664Y75566D01*
X306678Y75578D01*
X306693Y75587D01*
X306946Y75801D01*
X307878Y76733D01*
X313142Y76733D01*
X314035Y75840D01*
X314035Y73297D01*
X314036Y73279D01*
X314035Y73261D01*
X314056Y73079D01*
X314075Y72896D01*
X314080Y72879D01*
X314082Y72861D01*
X314139Y72687D01*
X314193Y72511D01*
X314201Y72496D01*
X314207Y72479D01*
X314297Y72318D01*
X314384Y72157D01*
X314396Y72144D01*
X314405Y72128D01*
X314525Y71989D01*
X314642Y71848D01*
X314656Y71837D01*
X314668Y71823D01*
X314813Y71711D01*
X314956Y71596D01*
X314972Y71587D01*
X314986Y71576D01*
X315151Y71494D01*
X315313Y71410D01*
X315330Y71405D01*
X315346Y71397D01*
X315525Y71349D01*
X315700Y71299D01*
X315718Y71297D01*
X315735Y71293D01*
X316066Y71266D01*
X318574Y71266D01*
X323597Y66243D01*
X323597Y62825D01*
X323599Y62798D01*
X323597Y62771D01*
X323619Y62598D01*
X323637Y62424D01*
X323644Y62399D01*
X323648Y62372D01*
X323703Y62206D01*
X323755Y62039D01*
X323768Y62016D01*
X323776Y61990D01*
X323863Y61839D01*
X323947Y61685D01*
X323964Y61665D01*
X323977Y61641D01*
X324192Y61388D01*
X325266Y60314D01*
X325273Y60309D01*
X325278Y60302D01*
X325428Y60182D01*
X325577Y60059D01*
X325585Y60055D01*
X325592Y60050D01*
X325763Y59961D01*
X325933Y59871D01*
X325941Y59868D01*
X325949Y59864D01*
X326135Y59811D01*
X326319Y59756D01*
X326328Y59755D01*
X326336Y59753D01*
X326528Y59737D01*
X326720Y59720D01*
X326729Y59720D01*
X326738Y59720D01*
X326927Y59742D01*
X327120Y59763D01*
X327129Y59766D01*
X327137Y59767D01*
X327319Y59826D01*
X327504Y59884D01*
X327512Y59889D01*
X327520Y59892D01*
X327689Y59987D01*
X327856Y60079D01*
X327863Y60085D01*
X327871Y60089D01*
X328017Y60215D01*
X328163Y60340D01*
X328169Y60347D01*
X328176Y60353D01*
X328293Y60504D01*
X328413Y60656D01*
X328417Y60664D01*
X328422Y60671D01*
X328508Y60843D01*
X328595Y61015D01*
X328598Y61023D01*
X328602Y61031D01*
X328652Y61218D01*
X328703Y61402D01*
X328704Y61411D01*
X328706Y61420D01*
X328733Y61751D01*
X328733Y64843D01*
X338701Y74811D01*
X338712Y74825D01*
X338726Y74836D01*
X338840Y74981D01*
X338956Y75122D01*
X338964Y75138D01*
X338975Y75152D01*
X339059Y75316D01*
X339145Y75478D01*
X339150Y75495D01*
X339158Y75511D01*
X339207Y75688D01*
X339259Y75864D01*
X339261Y75882D01*
X339266Y75899D01*
X339279Y76082D01*
X339296Y76265D01*
X339294Y76283D01*
X339295Y76301D01*
X339272Y76482D01*
X339252Y76665D01*
X339247Y76682D01*
X339245Y76700D01*
X339187Y76873D01*
X339131Y77049D01*
X339122Y77065D01*
X339117Y77082D01*
X339025Y77240D01*
X338936Y77401D01*
X338924Y77415D01*
X338916Y77430D01*
X338701Y77683D01*
X337212Y79172D01*
X337212Y79173D01*
X316675Y99710D01*
X316654Y99727D01*
X316637Y99747D01*
X316499Y99854D01*
X316363Y99965D01*
X316340Y99977D01*
X316318Y99994D01*
X316162Y100072D01*
X316008Y100153D01*
X315982Y100161D01*
X315958Y100173D01*
X315789Y100218D01*
X315622Y100268D01*
X315595Y100270D01*
X315569Y100277D01*
X315238Y100305D01*
X308824Y100305D01*
X301036Y108092D01*
X301016Y108109D01*
X300998Y108129D01*
X300860Y108236D01*
X300725Y108347D01*
X300701Y108359D01*
X300680Y108376D01*
X300523Y108454D01*
X300369Y108535D01*
X300344Y108543D01*
X300320Y108555D01*
X300150Y108600D01*
X299983Y108650D01*
X299957Y108652D01*
X299931Y108659D01*
X299600Y108687D01*
X297878Y108687D01*
X297446Y109119D01*
X297382Y109171D01*
X297325Y109230D01*
X297227Y109299D01*
X297134Y109374D01*
X297062Y109413D01*
X296994Y109460D01*
X296884Y109507D01*
X296779Y109563D01*
X296700Y109586D01*
X296624Y109619D01*
X296507Y109644D01*
X296393Y109678D01*
X296311Y109685D01*
X296230Y109702D01*
X296111Y109703D01*
X295992Y109714D01*
X295910Y109705D01*
X295828Y109706D01*
X295711Y109684D01*
X295591Y109671D01*
X295513Y109646D01*
X295432Y109630D01*
X295322Y109585D01*
X295208Y109549D01*
X295136Y109509D01*
X295060Y109478D01*
X294960Y109412D01*
X294855Y109354D01*
X294793Y109301D01*
X294724Y109256D01*
X294639Y109171D01*
X294548Y109094D01*
X294497Y109029D01*
X294439Y108971D01*
X294352Y108846D01*
X294299Y108778D01*
X294280Y108742D01*
X294275Y108736D01*
X294273Y108731D01*
X294250Y108698D01*
X294223Y108651D01*
X293750Y108178D01*
X293171Y107844D01*
X292525Y107671D01*
X292221Y107671D01*
X292221Y117711D01*
X292221Y117712D01*
X292221Y127752D01*
X292525Y127752D01*
X293171Y127579D01*
X293750Y127244D01*
X294223Y126771D01*
X294250Y126724D01*
X294298Y126657D01*
X294338Y126585D01*
X294415Y126494D01*
X294485Y126397D01*
X294545Y126341D01*
X294598Y126278D01*
X294692Y126204D01*
X294780Y126123D01*
X294850Y126080D01*
X294914Y126029D01*
X295021Y125975D01*
X295123Y125912D01*
X295200Y125884D01*
X295273Y125846D01*
X295389Y125814D01*
X295501Y125773D01*
X295582Y125760D01*
X295661Y125738D01*
X295781Y125730D01*
X295899Y125711D01*
X295981Y125715D01*
X296063Y125709D01*
X296181Y125724D01*
X296301Y125729D01*
X296381Y125749D01*
X296462Y125759D01*
X296575Y125797D01*
X296692Y125826D01*
X296766Y125862D01*
X296844Y125888D01*
X296948Y125947D01*
X297056Y125998D01*
X297121Y126048D01*
X297193Y126089D01*
X297309Y126187D01*
X297378Y126239D01*
X297406Y126269D01*
X297446Y126303D01*
X297878Y126736D01*
X303142Y126736D01*
X304074Y125804D01*
X304087Y125792D01*
X304099Y125779D01*
X304243Y125665D01*
X304385Y125549D01*
X304401Y125540D01*
X304415Y125529D01*
X304579Y125446D01*
X304741Y125360D01*
X304758Y125355D01*
X304774Y125347D01*
X304951Y125298D01*
X305127Y125245D01*
X305145Y125244D01*
X305162Y125239D01*
X305345Y125226D01*
X305528Y125209D01*
X305546Y125211D01*
X305563Y125210D01*
X305745Y125233D01*
X305928Y125252D01*
X305945Y125258D01*
X305963Y125260D01*
X306137Y125318D01*
X306312Y125374D01*
X306328Y125383D01*
X306344Y125388D01*
X306503Y125480D01*
X306664Y125569D01*
X306678Y125580D01*
X306693Y125589D01*
X306946Y125804D01*
X307878Y126736D01*
X313142Y126736D01*
X314035Y125843D01*
X314035Y121637D01*
X314037Y121610D01*
X314035Y121584D01*
X314057Y121409D01*
X314075Y121236D01*
X314082Y121211D01*
X314086Y121184D01*
X314141Y121019D01*
X314193Y120851D01*
X314206Y120828D01*
X314214Y120803D01*
X314301Y120651D01*
X314384Y120497D01*
X314402Y120477D01*
X314415Y120454D01*
X314630Y120201D01*
X323973Y110857D01*
X323973Y108008D01*
X323976Y107981D01*
X323974Y107954D01*
X323996Y107780D01*
X324013Y107607D01*
X324021Y107582D01*
X324024Y107555D01*
X324080Y107389D01*
X324131Y107222D01*
X324144Y107199D01*
X324153Y107173D01*
X324240Y107022D01*
X324323Y106868D01*
X324340Y106848D01*
X324354Y106824D01*
X324568Y106571D01*
X336918Y94222D01*
X336925Y94216D01*
X336930Y94209D01*
X337081Y94089D01*
X337229Y93967D01*
X337237Y93963D01*
X337244Y93957D01*
X337414Y93869D01*
X337585Y93778D01*
X337594Y93776D01*
X337601Y93772D01*
X337786Y93718D01*
X337971Y93663D01*
X337980Y93663D01*
X337988Y93660D01*
X338180Y93645D01*
X338372Y93627D01*
X338381Y93628D01*
X338390Y93627D01*
X338579Y93649D01*
X338772Y93670D01*
X338781Y93673D01*
X338789Y93674D01*
X338971Y93734D01*
X339156Y93792D01*
X339164Y93796D01*
X339172Y93799D01*
X339341Y93894D01*
X339508Y93987D01*
X339515Y93993D01*
X339523Y93997D01*
X339669Y94123D01*
X339815Y94247D01*
X339821Y94254D01*
X339828Y94260D01*
X339945Y94412D01*
X340065Y94563D01*
X340069Y94571D01*
X340074Y94578D01*
X340160Y94750D01*
X340247Y94922D01*
X340250Y94931D01*
X340254Y94939D01*
X340304Y95125D01*
X340355Y95310D01*
X340356Y95319D01*
X340358Y95328D01*
X340385Y95658D01*
X340385Y98220D01*
X340383Y98247D01*
X340385Y98274D01*
X340363Y98447D01*
X340345Y98621D01*
X340338Y98646D01*
X340334Y98673D01*
X340279Y98839D01*
X340227Y99006D01*
X340214Y99029D01*
X340206Y99055D01*
X340119Y99206D01*
X340035Y99360D01*
X340018Y99380D01*
X340005Y99404D01*
X339905Y99522D01*
X339542Y100149D01*
X339369Y100795D01*
X339369Y101599D01*
X354410Y101599D01*
X369451Y101599D01*
X369451Y100795D01*
X369278Y100149D01*
X368909Y99510D01*
X368885Y99480D01*
X368775Y99345D01*
X368762Y99321D01*
X368746Y99300D01*
X368668Y99143D01*
X368586Y98989D01*
X368578Y98964D01*
X368566Y98940D01*
X368521Y98770D01*
X368471Y98603D01*
X368469Y98577D01*
X368462Y98551D01*
X368435Y98220D01*
X368435Y91938D01*
X368424Y91794D01*
X368408Y91612D01*
X368410Y91594D01*
X368408Y91575D01*
X368431Y91395D01*
X368435Y91363D01*
X368435Y83937D01*
X368424Y83795D01*
X368408Y83613D01*
X368410Y83595D01*
X368408Y83577D01*
X368431Y83394D01*
X368435Y83363D01*
X368435Y75937D01*
X368424Y75795D01*
X368408Y75613D01*
X368410Y75595D01*
X368408Y75577D01*
X368431Y75394D01*
X368435Y75363D01*
X368435Y68498D01*
X367542Y67605D01*
X342397Y67605D01*
X342370Y67603D01*
X342343Y67605D01*
X342169Y67583D01*
X341996Y67565D01*
X341971Y67558D01*
X341944Y67554D01*
X341778Y67499D01*
X341611Y67447D01*
X341588Y67434D01*
X341562Y67426D01*
X341411Y67339D01*
X341257Y67255D01*
X341237Y67238D01*
X341213Y67225D01*
X340960Y67010D01*
X336442Y62492D01*
X336425Y62471D01*
X336404Y62453D01*
X336297Y62316D01*
X336187Y62180D01*
X336174Y62157D01*
X336158Y62135D01*
X336080Y61978D01*
X335998Y61824D01*
X335990Y61799D01*
X335978Y61775D01*
X335933Y61605D01*
X335883Y61439D01*
X335881Y61412D01*
X335874Y61386D01*
X335847Y61055D01*
X335847Y52475D01*
X335849Y52448D01*
X335847Y52422D01*
X335869Y52248D01*
X335887Y52074D01*
X335894Y52049D01*
X335898Y52022D01*
X335953Y51857D01*
X336005Y51689D01*
X336018Y51666D01*
X336026Y51640D01*
X336113Y51489D01*
X336197Y51335D01*
X336214Y51315D01*
X336227Y51292D01*
X336442Y51039D01*
X336918Y50562D01*
X336925Y50557D01*
X336930Y50550D01*
X337080Y50429D01*
X337229Y50307D01*
X337237Y50303D01*
X337244Y50298D01*
X337414Y50210D01*
X337585Y50119D01*
X337594Y50116D01*
X337601Y50112D01*
X337786Y50059D01*
X337971Y50004D01*
X337980Y50003D01*
X337988Y50001D01*
X338181Y49985D01*
X338372Y49968D01*
X338381Y49968D01*
X338390Y49968D01*
X338579Y49990D01*
X338772Y50011D01*
X338781Y50014D01*
X338789Y50015D01*
X338973Y50075D01*
X339156Y50132D01*
X339164Y50137D01*
X339172Y50140D01*
X339341Y50235D01*
X339508Y50327D01*
X339515Y50333D01*
X339523Y50337D01*
X339668Y50463D01*
X339815Y50588D01*
X339821Y50595D01*
X339828Y50601D01*
X339944Y50751D01*
X340065Y50904D01*
X340069Y50912D01*
X340074Y50919D01*
X340160Y51091D01*
X340247Y51263D01*
X340250Y51271D01*
X340254Y51279D01*
X340304Y51467D01*
X340355Y51650D01*
X340356Y51659D01*
X340358Y51668D01*
X340385Y51999D01*
X340385Y53262D01*
X341278Y54155D01*
X367542Y54155D01*
X368435Y53262D01*
X368435Y31998D01*
X367542Y31105D01*
X341278Y31105D01*
X340385Y31998D01*
X340385Y39061D01*
X340384Y39070D01*
X340385Y39079D01*
X340364Y39271D01*
X340345Y39462D01*
X340343Y39470D01*
X340342Y39479D01*
X340284Y39662D01*
X340227Y39847D01*
X340223Y39855D01*
X340220Y39863D01*
X340127Y40032D01*
X340035Y40201D01*
X340030Y40208D01*
X340025Y40216D01*
X339900Y40363D01*
X339778Y40510D01*
X339771Y40516D01*
X339765Y40523D01*
X339614Y40642D01*
X339464Y40762D01*
X339456Y40767D01*
X339449Y40772D01*
X339278Y40859D01*
X339107Y40948D01*
X339098Y40950D01*
X339090Y40954D01*
X338905Y41006D01*
X338720Y41059D01*
X338711Y41060D01*
X338702Y41062D01*
X338510Y41077D01*
X338318Y41092D01*
X338310Y41091D01*
X338301Y41092D01*
X338110Y41068D01*
X337919Y41045D01*
X337910Y41043D01*
X337901Y41041D01*
X337720Y40981D01*
X337536Y40920D01*
X337528Y40916D01*
X337520Y40913D01*
X337353Y40817D01*
X337185Y40723D01*
X337178Y40717D01*
X337171Y40712D01*
X336918Y40498D01*
X336159Y39739D01*
X333649Y38699D01*
X330931Y38699D01*
X329052Y39478D01*
X329048Y39479D01*
X329044Y39481D01*
X328855Y39537D01*
X328667Y39594D01*
X328662Y39595D01*
X328658Y39596D01*
X328457Y39614D01*
X328266Y39632D01*
X328262Y39632D01*
X328257Y39632D01*
X328058Y39611D01*
X327865Y39591D01*
X327861Y39589D01*
X327857Y39589D01*
X327669Y39530D01*
X327481Y39471D01*
X327477Y39469D01*
X327473Y39467D01*
X327302Y39373D01*
X327128Y39278D01*
X327124Y39275D01*
X327120Y39273D01*
X326971Y39146D01*
X326820Y39018D01*
X326817Y39015D01*
X326813Y39012D01*
X326692Y38858D01*
X326569Y38704D01*
X326567Y38700D01*
X326564Y38696D01*
X326475Y38522D01*
X326385Y38345D01*
X326384Y38341D01*
X326382Y38337D01*
X326328Y38146D01*
X326275Y37958D01*
X326275Y37954D01*
X326274Y37949D01*
X326259Y37748D01*
X326244Y37557D01*
X326244Y37552D01*
X326244Y37548D01*
X326269Y37349D01*
X326293Y37157D01*
X326294Y37153D01*
X326295Y37148D01*
X326357Y36963D01*
X326419Y36775D01*
X326421Y36771D01*
X326423Y36767D01*
X326522Y36595D01*
X326619Y36425D01*
X326621Y36422D01*
X326624Y36418D01*
X326838Y36165D01*
X345307Y17696D01*
X345328Y17679D01*
X345346Y17658D01*
X345484Y17551D01*
X345619Y17441D01*
X345643Y17428D01*
X345664Y17412D01*
X345821Y17334D01*
X345975Y17252D01*
X346000Y17244D01*
X346024Y17232D01*
X346194Y17187D01*
X346361Y17137D01*
X346387Y17135D01*
X346413Y17128D01*
X346744Y17101D01*
X348644Y17101D01*
X348662Y17103D01*
X348680Y17101D01*
X348862Y17122D01*
X349045Y17141D01*
X349062Y17146D01*
X349079Y17148D01*
X349254Y17205D01*
X349430Y17259D01*
X349445Y17267D01*
X349462Y17273D01*
X349622Y17363D01*
X349784Y17451D01*
X349797Y17462D01*
X349813Y17471D01*
X349952Y17591D01*
X350093Y17708D01*
X350104Y17722D01*
X350118Y17734D01*
X350230Y17879D01*
X350345Y18022D01*
X350353Y18038D01*
X350364Y18052D01*
X350446Y18217D01*
X350531Y18379D01*
X350536Y18396D01*
X350544Y18412D01*
X350591Y18591D01*
X350642Y18766D01*
X350644Y18784D01*
X350648Y18801D01*
X350675Y19132D01*
X350675Y22692D01*
X351568Y23585D01*
X365832Y23585D01*
X366764Y22653D01*
X366778Y22641D01*
X366789Y22628D01*
X366933Y22514D01*
X367075Y22398D01*
X367091Y22389D01*
X367105Y22378D01*
X367269Y22295D01*
X367431Y22209D01*
X367448Y22204D01*
X367464Y22196D01*
X367641Y22146D01*
X367817Y22094D01*
X367835Y22093D01*
X367852Y22088D01*
X368035Y22074D01*
X368218Y22058D01*
X368236Y22060D01*
X368253Y22058D01*
X368435Y22081D01*
X368618Y22101D01*
X368635Y22107D01*
X368653Y22109D01*
X368827Y22167D01*
X369002Y22223D01*
X369018Y22231D01*
X369034Y22237D01*
X369193Y22329D01*
X369354Y22417D01*
X369368Y22429D01*
X369383Y22438D01*
X369636Y22653D01*
X370568Y23585D01*
X384832Y23585D01*
X385725Y22692D01*
X385725Y19132D01*
X385727Y19114D01*
X385725Y19096D01*
X385746Y18914D01*
X385765Y18731D01*
X385770Y18714D01*
X385772Y18697D01*
X385829Y18522D01*
X385883Y18346D01*
X385891Y18331D01*
X385897Y18314D01*
X385987Y18154D01*
X386075Y17992D01*
X386086Y17979D01*
X386095Y17963D01*
X386215Y17824D01*
X386332Y17683D01*
X386346Y17672D01*
X386358Y17658D01*
X386503Y17546D01*
X386646Y17431D01*
X386662Y17423D01*
X386676Y17412D01*
X386841Y17330D01*
X387003Y17245D01*
X387020Y17240D01*
X387036Y17232D01*
X387215Y17185D01*
X387390Y17134D01*
X387408Y17132D01*
X387425Y17128D01*
X387756Y17101D01*
X389844Y17101D01*
X389862Y17103D01*
X389880Y17101D01*
X390062Y17122D01*
X390245Y17141D01*
X390262Y17146D01*
X390279Y17148D01*
X390454Y17205D01*
X390630Y17259D01*
X390645Y17267D01*
X390662Y17273D01*
X390822Y17363D01*
X390984Y17451D01*
X390997Y17462D01*
X391013Y17471D01*
X391152Y17591D01*
X391293Y17708D01*
X391304Y17722D01*
X391318Y17734D01*
X391430Y17879D01*
X391545Y18022D01*
X391553Y18038D01*
X391564Y18052D01*
X391646Y18217D01*
X391731Y18379D01*
X391736Y18396D01*
X391744Y18412D01*
X391791Y18591D01*
X391842Y18766D01*
X391844Y18784D01*
X391848Y18801D01*
X391875Y19132D01*
X391875Y21872D01*
X392768Y22765D01*
X406032Y22765D01*
X406925Y21872D01*
X406925Y8608D01*
X406032Y7715D01*
X392768Y7715D01*
X391875Y8608D01*
X391875Y9988D01*
X391873Y10006D01*
X391875Y10024D01*
X391854Y10206D01*
X391835Y10389D01*
X391830Y10406D01*
X391828Y10423D01*
X391771Y10598D01*
X391717Y10774D01*
X391709Y10789D01*
X391703Y10806D01*
X391613Y10966D01*
X391525Y11128D01*
X391514Y11141D01*
X391505Y11157D01*
X391385Y11296D01*
X391268Y11437D01*
X391254Y11448D01*
X391242Y11462D01*
X391097Y11574D01*
X390954Y11689D01*
X390938Y11697D01*
X390924Y11708D01*
X390759Y11790D01*
X390597Y11875D01*
X390580Y11880D01*
X390564Y11888D01*
X390385Y11935D01*
X390210Y11986D01*
X390192Y11988D01*
X390175Y11992D01*
X389844Y12019D01*
X387756Y12019D01*
X387738Y12017D01*
X387720Y12019D01*
X387538Y11998D01*
X387355Y11979D01*
X387338Y11974D01*
X387321Y11972D01*
X387146Y11915D01*
X386970Y11861D01*
X386955Y11853D01*
X386938Y11847D01*
X386778Y11757D01*
X386616Y11669D01*
X386603Y11658D01*
X386587Y11649D01*
X386448Y11529D01*
X386307Y11412D01*
X386296Y11398D01*
X386282Y11386D01*
X386170Y11241D01*
X386055Y11098D01*
X386047Y11082D01*
X386036Y11068D01*
X385954Y10903D01*
X385869Y10741D01*
X385864Y10724D01*
X385856Y10708D01*
X385809Y10529D01*
X385758Y10354D01*
X385756Y10336D01*
X385752Y10319D01*
X385725Y9988D01*
X385725Y6428D01*
X384765Y5468D01*
X384759Y5461D01*
X384752Y5456D01*
X384631Y5305D01*
X384510Y5157D01*
X384505Y5149D01*
X384500Y5142D01*
X384411Y4972D01*
X384321Y4801D01*
X384318Y4792D01*
X384314Y4785D01*
X384261Y4600D01*
X384206Y4415D01*
X384205Y4406D01*
X384203Y4398D01*
X384187Y4207D01*
X384170Y4014D01*
X384171Y4005D01*
X384170Y3996D01*
X384192Y3807D01*
X384213Y3614D01*
X384216Y3605D01*
X384217Y3597D01*
X384276Y3415D01*
X384335Y3230D01*
X384339Y3222D01*
X384342Y3214D01*
X384436Y3047D01*
X384529Y2878D01*
X384535Y2871D01*
X384540Y2863D01*
X384665Y2718D01*
X384790Y2571D01*
X384797Y2565D01*
X384803Y2558D01*
X384953Y2442D01*
X385106Y2321D01*
X385114Y2317D01*
X385121Y2312D01*
X385292Y2227D01*
X385465Y2139D01*
X385473Y2136D01*
X385481Y2132D01*
X385667Y2083D01*
X385853Y2031D01*
X385862Y2030D01*
X385870Y2028D01*
X386201Y2001D01*
X435008Y2001D01*
X435026Y2003D01*
G37*
G36*
X38189Y2001D02*
X38189Y2001D01*
X38193Y2001D01*
X38387Y2021D01*
X38585Y2041D01*
X38589Y2042D01*
X38594Y2042D01*
X38779Y2100D01*
X38970Y2159D01*
X38974Y2161D01*
X38978Y2162D01*
X39150Y2256D01*
X39324Y2351D01*
X39327Y2353D01*
X39331Y2356D01*
X39482Y2483D01*
X39633Y2608D01*
X39636Y2612D01*
X39639Y2615D01*
X39763Y2769D01*
X39885Y2922D01*
X39887Y2926D01*
X39890Y2929D01*
X39980Y3104D01*
X40071Y3279D01*
X40072Y3284D01*
X40074Y3288D01*
X40127Y3475D01*
X40182Y3666D01*
X40183Y3671D01*
X40184Y3675D01*
X40199Y3868D01*
X40215Y4068D01*
X40215Y4072D01*
X40215Y4076D01*
X40192Y4267D01*
X40168Y4467D01*
X40167Y4472D01*
X40166Y4476D01*
X40105Y4661D01*
X40043Y4850D01*
X40041Y4854D01*
X40040Y4858D01*
X39942Y5030D01*
X39846Y5201D01*
X39843Y5204D01*
X39840Y5208D01*
X39709Y5359D01*
X39582Y5505D01*
X39579Y5508D01*
X39576Y5512D01*
X39419Y5632D01*
X39264Y5752D01*
X39260Y5754D01*
X39257Y5757D01*
X38962Y5909D01*
X35723Y7250D01*
X32650Y10323D01*
X30987Y14337D01*
X30987Y18683D01*
X32650Y22697D01*
X35723Y25770D01*
X39737Y27433D01*
X44083Y27433D01*
X48097Y25770D01*
X48306Y25561D01*
X48319Y25550D01*
X48331Y25537D01*
X48476Y25422D01*
X48617Y25306D01*
X48633Y25298D01*
X48647Y25287D01*
X48811Y25204D01*
X48973Y25118D01*
X48990Y25113D01*
X49006Y25105D01*
X49182Y25055D01*
X49359Y25003D01*
X49377Y25001D01*
X49394Y24997D01*
X49577Y24983D01*
X49760Y24967D01*
X49777Y24968D01*
X49795Y24967D01*
X49978Y24990D01*
X50160Y25010D01*
X50177Y25015D01*
X50195Y25018D01*
X50369Y25076D01*
X50544Y25131D01*
X50559Y25140D01*
X50576Y25146D01*
X50736Y25238D01*
X50896Y25326D01*
X50910Y25338D01*
X50925Y25347D01*
X51178Y25561D01*
X104198Y78581D01*
X111026Y78581D01*
X111044Y78583D01*
X111062Y78581D01*
X111244Y78602D01*
X111427Y78621D01*
X111444Y78626D01*
X111461Y78628D01*
X111636Y78685D01*
X111812Y78739D01*
X111827Y78747D01*
X111844Y78753D01*
X112004Y78843D01*
X112166Y78931D01*
X112179Y78942D01*
X112195Y78951D01*
X112334Y79071D01*
X112475Y79188D01*
X112486Y79202D01*
X112500Y79214D01*
X112612Y79359D01*
X112727Y79502D01*
X112735Y79518D01*
X112746Y79532D01*
X112828Y79697D01*
X112913Y79859D01*
X112918Y79876D01*
X112926Y79892D01*
X112973Y80071D01*
X113024Y80246D01*
X113026Y80264D01*
X113030Y80281D01*
X113057Y80612D01*
X113057Y81681D01*
X113141Y81784D01*
X113262Y81933D01*
X113267Y81941D01*
X113272Y81948D01*
X113361Y82118D01*
X113451Y82289D01*
X113454Y82298D01*
X113458Y82305D01*
X113511Y82489D01*
X113566Y82675D01*
X113567Y82684D01*
X113569Y82692D01*
X113585Y82883D01*
X113602Y83076D01*
X113601Y83085D01*
X113602Y83094D01*
X113580Y83282D01*
X113559Y83476D01*
X113556Y83485D01*
X113555Y83493D01*
X113495Y83676D01*
X113437Y83860D01*
X113433Y83868D01*
X113430Y83876D01*
X113335Y84045D01*
X113243Y84212D01*
X113237Y84219D01*
X113232Y84227D01*
X113107Y84372D01*
X112982Y84519D01*
X112975Y84525D01*
X112969Y84532D01*
X112818Y84649D01*
X112666Y84769D01*
X112658Y84773D01*
X112651Y84778D01*
X112479Y84864D01*
X112307Y84951D01*
X112299Y84954D01*
X112291Y84958D01*
X112103Y85008D01*
X111919Y85059D01*
X111911Y85060D01*
X111902Y85062D01*
X111571Y85089D01*
X94876Y85089D01*
X94858Y85087D01*
X94840Y85089D01*
X94658Y85068D01*
X94475Y85049D01*
X94458Y85044D01*
X94441Y85042D01*
X94266Y84985D01*
X94090Y84931D01*
X94075Y84923D01*
X94058Y84917D01*
X93898Y84827D01*
X93736Y84739D01*
X93723Y84728D01*
X93707Y84719D01*
X93568Y84599D01*
X93427Y84482D01*
X93416Y84468D01*
X93402Y84456D01*
X93290Y84311D01*
X93175Y84168D01*
X93167Y84152D01*
X93156Y84138D01*
X93074Y83973D01*
X92989Y83811D01*
X92984Y83794D01*
X92976Y83778D01*
X92929Y83599D01*
X92878Y83424D01*
X92876Y83406D01*
X92872Y83389D01*
X92845Y83058D01*
X92845Y77348D01*
X91952Y76455D01*
X75688Y76455D01*
X74795Y77348D01*
X74795Y88160D01*
X74793Y88187D01*
X74795Y88214D01*
X74773Y88388D01*
X74755Y88561D01*
X74748Y88586D01*
X74744Y88613D01*
X74688Y88779D01*
X74637Y88946D01*
X74624Y88969D01*
X74616Y88995D01*
X74529Y89146D01*
X74445Y89300D01*
X74428Y89320D01*
X74415Y89344D01*
X74200Y89597D01*
X56693Y107104D01*
X54609Y109188D01*
X54609Y109190D01*
X54588Y109372D01*
X54569Y109555D01*
X54564Y109572D01*
X54562Y109589D01*
X54505Y109764D01*
X54451Y109940D01*
X54443Y109955D01*
X54437Y109972D01*
X54347Y110132D01*
X54259Y110294D01*
X54248Y110307D01*
X54239Y110323D01*
X54119Y110462D01*
X54002Y110603D01*
X53988Y110614D01*
X53976Y110628D01*
X53831Y110740D01*
X53688Y110855D01*
X53672Y110863D01*
X53658Y110874D01*
X53493Y110956D01*
X53331Y111041D01*
X53314Y111046D01*
X53298Y111054D01*
X53119Y111101D01*
X52944Y111152D01*
X52926Y111154D01*
X52909Y111158D01*
X52578Y111185D01*
X43438Y111185D01*
X42545Y112078D01*
X42545Y119638D01*
X42543Y119656D01*
X42545Y119674D01*
X42524Y119856D01*
X42505Y120039D01*
X42500Y120056D01*
X42498Y120073D01*
X42441Y120248D01*
X42387Y120424D01*
X42379Y120439D01*
X42373Y120456D01*
X42283Y120616D01*
X42195Y120778D01*
X42184Y120791D01*
X42175Y120807D01*
X42055Y120946D01*
X41938Y121087D01*
X41924Y121098D01*
X41912Y121112D01*
X41767Y121224D01*
X41624Y121339D01*
X41608Y121347D01*
X41594Y121358D01*
X41429Y121440D01*
X41267Y121525D01*
X41250Y121530D01*
X41234Y121538D01*
X41055Y121585D01*
X40880Y121636D01*
X40862Y121638D01*
X40845Y121642D01*
X40514Y121669D01*
X39838Y121669D01*
X26413Y135094D01*
X26399Y135105D01*
X26388Y135119D01*
X26244Y135232D01*
X26102Y135349D01*
X26086Y135357D01*
X26072Y135368D01*
X25908Y135451D01*
X25746Y135537D01*
X25729Y135542D01*
X25713Y135550D01*
X25536Y135600D01*
X25360Y135652D01*
X25342Y135654D01*
X25325Y135658D01*
X25142Y135672D01*
X24959Y135688D01*
X24941Y135687D01*
X24924Y135688D01*
X24742Y135665D01*
X24559Y135645D01*
X24542Y135640D01*
X24524Y135637D01*
X24351Y135579D01*
X24175Y135524D01*
X24159Y135515D01*
X24143Y135509D01*
X23984Y135418D01*
X23823Y135329D01*
X23809Y135317D01*
X23794Y135308D01*
X23541Y135094D01*
X22697Y134250D01*
X18923Y132687D01*
X18915Y132682D01*
X18906Y132680D01*
X18738Y132588D01*
X18568Y132496D01*
X18561Y132491D01*
X18553Y132486D01*
X18407Y132363D01*
X18257Y132240D01*
X18252Y132233D01*
X18245Y132227D01*
X18125Y132077D01*
X18004Y131927D01*
X17999Y131919D01*
X17994Y131913D01*
X17906Y131741D01*
X17817Y131571D01*
X17814Y131562D01*
X17810Y131554D01*
X17758Y131370D01*
X17703Y131184D01*
X17703Y131176D01*
X17700Y131167D01*
X17685Y130976D01*
X17669Y130783D01*
X17670Y130774D01*
X17669Y130766D01*
X17692Y130575D01*
X17714Y130383D01*
X17717Y130375D01*
X17718Y130366D01*
X17778Y130183D01*
X17837Y130000D01*
X17841Y129992D01*
X17844Y129984D01*
X17940Y129816D01*
X18033Y129648D01*
X18039Y129642D01*
X18044Y129634D01*
X18170Y129489D01*
X18295Y129343D01*
X18302Y129337D01*
X18308Y129330D01*
X18460Y129213D01*
X18612Y129094D01*
X18620Y129090D01*
X18627Y129085D01*
X18923Y128933D01*
X22697Y127370D01*
X25770Y124297D01*
X27433Y120283D01*
X27433Y115937D01*
X25770Y111923D01*
X22697Y108850D01*
X20211Y107820D01*
X20133Y107778D01*
X20050Y107745D01*
X19956Y107684D01*
X19856Y107630D01*
X19788Y107574D01*
X19714Y107525D01*
X19633Y107446D01*
X19546Y107374D01*
X19490Y107305D01*
X19427Y107243D01*
X19363Y107149D01*
X19292Y107061D01*
X19251Y106983D01*
X19201Y106909D01*
X19158Y106805D01*
X19105Y106705D01*
X19080Y106620D01*
X19046Y106538D01*
X19024Y106427D01*
X18992Y106318D01*
X18984Y106230D01*
X18967Y106143D01*
X18967Y106030D01*
X18957Y105917D01*
X18967Y105829D01*
X18967Y105740D01*
X18990Y105629D01*
X19003Y105517D01*
X19030Y105432D01*
X19047Y105346D01*
X19091Y105241D01*
X19126Y105134D01*
X19169Y105056D01*
X19203Y104974D01*
X19267Y104881D01*
X19322Y104782D01*
X19380Y104715D01*
X19430Y104641D01*
X19510Y104562D01*
X19584Y104476D01*
X19654Y104422D01*
X19717Y104360D01*
X19812Y104298D01*
X19901Y104228D01*
X19980Y104188D01*
X20055Y104140D01*
X20185Y104085D01*
X20261Y104047D01*
X20305Y104035D01*
X20361Y104012D01*
X21093Y103774D01*
X22767Y102921D01*
X24288Y101816D01*
X25616Y100488D01*
X26721Y98967D01*
X27574Y97293D01*
X28155Y95506D01*
X28195Y95249D01*
X17018Y95249D01*
X17000Y95247D01*
X16983Y95249D01*
X16800Y95228D01*
X16618Y95209D01*
X16601Y95204D01*
X16583Y95202D01*
X16408Y95145D01*
X16233Y95091D01*
X16217Y95083D01*
X16200Y95077D01*
X16040Y94987D01*
X15879Y94899D01*
X15865Y94888D01*
X15849Y94879D01*
X15710Y94759D01*
X15569Y94642D01*
X15558Y94628D01*
X15545Y94616D01*
X15432Y94471D01*
X15317Y94328D01*
X15309Y94312D01*
X15298Y94298D01*
X15216Y94133D01*
X15132Y93971D01*
X15127Y93954D01*
X15119Y93938D01*
X15071Y93759D01*
X15020Y93584D01*
X15019Y93566D01*
X15014Y93549D01*
X14987Y93218D01*
X14987Y92202D01*
X14989Y92184D01*
X14987Y92166D01*
X15009Y91983D01*
X15027Y91801D01*
X15032Y91784D01*
X15034Y91767D01*
X15091Y91592D01*
X15145Y91416D01*
X15153Y91401D01*
X15159Y91384D01*
X15249Y91224D01*
X15337Y91062D01*
X15348Y91049D01*
X15357Y91033D01*
X15477Y90894D01*
X15595Y90753D01*
X15608Y90742D01*
X15620Y90728D01*
X15765Y90616D01*
X15908Y90501D01*
X15924Y90493D01*
X15938Y90482D01*
X16103Y90400D01*
X16266Y90315D01*
X16283Y90310D01*
X16299Y90302D01*
X16477Y90254D01*
X16652Y90204D01*
X16670Y90202D01*
X16687Y90198D01*
X17018Y90171D01*
X28195Y90171D01*
X28155Y89914D01*
X27574Y88127D01*
X26721Y86453D01*
X25616Y84932D01*
X24288Y83604D01*
X22767Y82499D01*
X21093Y81646D01*
X20361Y81408D01*
X20279Y81372D01*
X20195Y81346D01*
X20096Y81292D01*
X19992Y81246D01*
X19919Y81195D01*
X19842Y81153D01*
X19755Y81080D01*
X19663Y81015D01*
X19601Y80951D01*
X19533Y80894D01*
X19463Y80805D01*
X19385Y80723D01*
X19338Y80648D01*
X19282Y80579D01*
X19231Y80478D01*
X19171Y80383D01*
X19139Y80300D01*
X19099Y80221D01*
X19068Y80112D01*
X19028Y80006D01*
X19013Y79919D01*
X18989Y79833D01*
X18980Y79721D01*
X18962Y79609D01*
X18965Y79520D01*
X18958Y79432D01*
X18971Y79320D01*
X18975Y79207D01*
X18996Y79120D01*
X19006Y79032D01*
X19042Y78925D01*
X19068Y78815D01*
X19105Y78734D01*
X19133Y78650D01*
X19189Y78552D01*
X19236Y78449D01*
X19288Y78377D01*
X19332Y78300D01*
X19406Y78215D01*
X19473Y78124D01*
X19539Y78064D01*
X19597Y77997D01*
X19686Y77928D01*
X19770Y77851D01*
X19846Y77805D01*
X19916Y77751D01*
X20042Y77687D01*
X20114Y77643D01*
X20157Y77627D01*
X20211Y77600D01*
X22697Y76570D01*
X25770Y73497D01*
X27433Y69483D01*
X27433Y65499D01*
X27434Y65490D01*
X27433Y65481D01*
X27454Y65289D01*
X27473Y65098D01*
X27475Y65090D01*
X27476Y65081D01*
X27534Y64898D01*
X27591Y64713D01*
X27595Y64705D01*
X27598Y64697D01*
X27691Y64529D01*
X27783Y64359D01*
X27788Y64353D01*
X27793Y64345D01*
X27917Y64198D01*
X28040Y64050D01*
X28047Y64044D01*
X28053Y64038D01*
X28204Y63919D01*
X28354Y63798D01*
X28362Y63794D01*
X28369Y63788D01*
X28542Y63700D01*
X28711Y63612D01*
X28720Y63610D01*
X28728Y63606D01*
X28914Y63554D01*
X29098Y63501D01*
X29107Y63500D01*
X29116Y63498D01*
X29309Y63484D01*
X29500Y63468D01*
X29508Y63469D01*
X29517Y63468D01*
X29710Y63493D01*
X29899Y63515D01*
X29908Y63518D01*
X29917Y63519D01*
X30100Y63580D01*
X30282Y63640D01*
X30290Y63644D01*
X30298Y63647D01*
X30464Y63742D01*
X30633Y63838D01*
X30640Y63844D01*
X30647Y63848D01*
X30900Y64063D01*
X33440Y66603D01*
X33457Y66623D01*
X33478Y66641D01*
X33584Y66779D01*
X33695Y66914D01*
X33708Y66938D01*
X33724Y66959D01*
X33802Y67115D01*
X33884Y67270D01*
X33892Y67296D01*
X33904Y67319D01*
X33949Y67488D01*
X33999Y67656D01*
X34001Y67682D01*
X34008Y67708D01*
X34035Y68039D01*
X34035Y72417D01*
X34033Y72439D01*
X34035Y72461D01*
X34013Y72639D01*
X33995Y72817D01*
X33989Y72839D01*
X33986Y72861D01*
X33930Y73031D01*
X33877Y73202D01*
X33867Y73222D01*
X33860Y73243D01*
X33771Y73399D01*
X33685Y73556D01*
X33671Y73574D01*
X33660Y73593D01*
X33542Y73729D01*
X33428Y73866D01*
X33410Y73880D01*
X33396Y73897D01*
X33253Y74006D01*
X33114Y74118D01*
X33094Y74128D01*
X33076Y74142D01*
X32997Y74183D01*
X31039Y76141D01*
X29999Y78651D01*
X29999Y81369D01*
X31039Y83879D01*
X32961Y85801D01*
X35471Y86841D01*
X38189Y86841D01*
X40699Y85801D01*
X42621Y83879D01*
X43661Y81369D01*
X43661Y78651D01*
X43416Y78059D01*
X43412Y78046D01*
X43405Y78035D01*
X43354Y77854D01*
X43299Y77674D01*
X43298Y77661D01*
X43294Y77648D01*
X43279Y77459D01*
X43261Y77273D01*
X43262Y77260D01*
X43261Y77246D01*
X43283Y77060D01*
X43303Y76873D01*
X43307Y76860D01*
X43308Y76847D01*
X43366Y76669D01*
X43422Y76488D01*
X43429Y76477D01*
X43433Y76464D01*
X43525Y76300D01*
X43616Y76135D01*
X43624Y76125D01*
X43631Y76113D01*
X43754Y75971D01*
X43875Y75827D01*
X43885Y75819D01*
X43894Y75808D01*
X44043Y75693D01*
X44190Y75576D01*
X44201Y75570D01*
X44212Y75562D01*
X44381Y75478D01*
X44548Y75392D01*
X44561Y75388D01*
X44573Y75382D01*
X44755Y75333D01*
X44935Y75282D01*
X44948Y75281D01*
X44961Y75278D01*
X45292Y75251D01*
X48071Y75251D01*
X48071Y65209D01*
X40793Y65209D01*
X40766Y65207D01*
X40740Y65209D01*
X40566Y65187D01*
X40392Y65169D01*
X40367Y65162D01*
X40340Y65158D01*
X40175Y65103D01*
X40007Y65051D01*
X39984Y65038D01*
X39959Y65030D01*
X39807Y64943D01*
X39653Y64859D01*
X39633Y64842D01*
X39610Y64829D01*
X39357Y64614D01*
X25741Y50999D01*
X25730Y50985D01*
X25716Y50973D01*
X25603Y50830D01*
X25486Y50687D01*
X25478Y50671D01*
X25466Y50657D01*
X25383Y50493D01*
X25297Y50331D01*
X25292Y50314D01*
X25284Y50298D01*
X25235Y50121D01*
X25183Y49946D01*
X25181Y49928D01*
X25176Y49910D01*
X25163Y49728D01*
X25146Y49545D01*
X25148Y49527D01*
X25147Y49509D01*
X25170Y49327D01*
X25190Y49144D01*
X25195Y49127D01*
X25197Y49109D01*
X25256Y48936D01*
X25311Y48760D01*
X25320Y48745D01*
X25325Y48728D01*
X25417Y48568D01*
X25506Y48408D01*
X25517Y48395D01*
X25526Y48379D01*
X25741Y48126D01*
X25770Y48097D01*
X27433Y44083D01*
X27433Y39737D01*
X25770Y35723D01*
X22697Y32650D01*
X18683Y30987D01*
X14337Y30987D01*
X10323Y32650D01*
X7250Y35723D01*
X5909Y38962D01*
X5907Y38965D01*
X5905Y38970D01*
X5812Y39142D01*
X5718Y39316D01*
X5716Y39320D01*
X5713Y39324D01*
X5591Y39471D01*
X5462Y39627D01*
X5459Y39630D01*
X5456Y39633D01*
X5303Y39756D01*
X5149Y39881D01*
X5145Y39883D01*
X5142Y39885D01*
X4969Y39975D01*
X4793Y40068D01*
X4789Y40069D01*
X4785Y40071D01*
X4596Y40125D01*
X4406Y40181D01*
X4402Y40181D01*
X4398Y40182D01*
X4200Y40199D01*
X4005Y40215D01*
X4001Y40215D01*
X3996Y40215D01*
X3802Y40192D01*
X3605Y40170D01*
X3601Y40169D01*
X3597Y40168D01*
X3411Y40108D01*
X3222Y40047D01*
X3218Y40045D01*
X3214Y40043D01*
X3041Y39946D01*
X2870Y39851D01*
X2867Y39848D01*
X2863Y39846D01*
X2714Y39717D01*
X2565Y39589D01*
X2562Y39585D01*
X2558Y39582D01*
X2438Y39428D01*
X2316Y39272D01*
X2314Y39268D01*
X2312Y39264D01*
X2223Y39086D01*
X2136Y38912D01*
X2134Y38908D01*
X2132Y38904D01*
X2081Y38712D01*
X2029Y38524D01*
X2029Y38519D01*
X2028Y38515D01*
X2001Y38184D01*
X2001Y4032D01*
X2003Y4014D01*
X2001Y3996D01*
X2022Y3814D01*
X2041Y3631D01*
X2046Y3614D01*
X2048Y3597D01*
X2105Y3422D01*
X2159Y3246D01*
X2167Y3231D01*
X2173Y3214D01*
X2263Y3054D01*
X2351Y2892D01*
X2362Y2879D01*
X2371Y2863D01*
X2491Y2724D01*
X2608Y2583D01*
X2622Y2572D01*
X2634Y2558D01*
X2779Y2446D01*
X2922Y2331D01*
X2938Y2323D01*
X2952Y2312D01*
X3117Y2230D01*
X3279Y2145D01*
X3296Y2140D01*
X3312Y2132D01*
X3491Y2085D01*
X3666Y2034D01*
X3684Y2032D01*
X3701Y2028D01*
X4032Y2001D01*
X38184Y2001D01*
X38189Y2001D01*
G37*
G36*
X125805Y104666D02*
X125805Y104666D01*
X125814Y104665D01*
X126006Y104686D01*
X126197Y104705D01*
X126205Y104707D01*
X126214Y104708D01*
X126397Y104766D01*
X126582Y104823D01*
X126590Y104827D01*
X126598Y104830D01*
X126767Y104923D01*
X126936Y105015D01*
X126943Y105020D01*
X126951Y105025D01*
X127097Y105149D01*
X127245Y105272D01*
X127251Y105279D01*
X127257Y105285D01*
X127377Y105436D01*
X127497Y105586D01*
X127502Y105594D01*
X127507Y105601D01*
X127595Y105774D01*
X127683Y105943D01*
X127685Y105952D01*
X127689Y105960D01*
X127741Y106146D01*
X127794Y106330D01*
X127795Y106339D01*
X127797Y106348D01*
X127812Y106541D01*
X127827Y106732D01*
X127826Y106740D01*
X127827Y106749D01*
X127803Y106942D01*
X127780Y107131D01*
X127778Y107140D01*
X127776Y107149D01*
X127715Y107332D01*
X127655Y107514D01*
X127651Y107522D01*
X127648Y107530D01*
X127553Y107696D01*
X127458Y107865D01*
X127452Y107872D01*
X127447Y107879D01*
X127233Y108132D01*
X124217Y111148D01*
X124196Y111165D01*
X124178Y111186D01*
X124040Y111292D01*
X123905Y111403D01*
X123881Y111416D01*
X123860Y111432D01*
X123712Y111506D01*
X114041Y121177D01*
X114041Y127003D01*
X114039Y127030D01*
X114041Y127056D01*
X114019Y127230D01*
X114001Y127404D01*
X113993Y127429D01*
X113990Y127456D01*
X113935Y127621D01*
X113883Y127789D01*
X113870Y127812D01*
X113862Y127838D01*
X113775Y127989D01*
X113691Y128143D01*
X113674Y128163D01*
X113661Y128186D01*
X113446Y128439D01*
X113057Y128828D01*
X113057Y129888D01*
X113055Y129906D01*
X113057Y129924D01*
X113036Y130106D01*
X113017Y130289D01*
X113012Y130306D01*
X113010Y130323D01*
X112953Y130498D01*
X112899Y130674D01*
X112891Y130689D01*
X112885Y130706D01*
X112795Y130866D01*
X112707Y131028D01*
X112696Y131041D01*
X112687Y131057D01*
X112567Y131196D01*
X112450Y131337D01*
X112436Y131348D01*
X112424Y131362D01*
X112279Y131474D01*
X112136Y131589D01*
X112120Y131597D01*
X112106Y131608D01*
X111941Y131690D01*
X111779Y131775D01*
X111762Y131780D01*
X111746Y131788D01*
X111567Y131835D01*
X111392Y131886D01*
X111374Y131888D01*
X111357Y131892D01*
X111026Y131919D01*
X75308Y131919D01*
X48689Y158538D01*
X48672Y158552D01*
X48657Y158569D01*
X48516Y158680D01*
X48377Y158793D01*
X48358Y158803D01*
X48340Y158817D01*
X48179Y158898D01*
X48022Y158982D01*
X48000Y158988D01*
X47980Y158998D01*
X47807Y159046D01*
X47636Y159096D01*
X47614Y159098D01*
X47592Y159104D01*
X47413Y159117D01*
X47235Y159133D01*
X47213Y159130D01*
X47190Y159132D01*
X47013Y159109D01*
X46835Y159089D01*
X46813Y159083D01*
X46791Y159080D01*
X46475Y158978D01*
X44083Y157987D01*
X39737Y157987D01*
X35723Y159650D01*
X32650Y162723D01*
X30987Y166737D01*
X30987Y171083D01*
X32650Y175097D01*
X35723Y178170D01*
X37431Y178877D01*
X37431Y178878D01*
X39737Y179833D01*
X44083Y179833D01*
X48097Y178170D01*
X51170Y175097D01*
X52733Y171323D01*
X52738Y171315D01*
X52740Y171306D01*
X52832Y171138D01*
X52924Y170968D01*
X52929Y170961D01*
X52934Y170953D01*
X53057Y170807D01*
X53180Y170657D01*
X53187Y170652D01*
X53193Y170645D01*
X53343Y170525D01*
X53493Y170404D01*
X53501Y170399D01*
X53507Y170394D01*
X53679Y170306D01*
X53849Y170217D01*
X53858Y170214D01*
X53866Y170210D01*
X54050Y170158D01*
X54236Y170103D01*
X54244Y170103D01*
X54253Y170100D01*
X54444Y170085D01*
X54637Y170069D01*
X54646Y170070D01*
X54654Y170069D01*
X54845Y170092D01*
X55037Y170114D01*
X55045Y170117D01*
X55054Y170118D01*
X55237Y170178D01*
X55420Y170237D01*
X55428Y170241D01*
X55436Y170244D01*
X55604Y170340D01*
X55772Y170433D01*
X55778Y170439D01*
X55786Y170444D01*
X55931Y170570D01*
X56077Y170695D01*
X56083Y170702D01*
X56090Y170708D01*
X56207Y170860D01*
X56326Y171012D01*
X56330Y171020D01*
X56335Y171027D01*
X56487Y171323D01*
X58050Y175097D01*
X61123Y178170D01*
X62831Y178877D01*
X62831Y178878D01*
X65137Y179833D01*
X69483Y179833D01*
X73497Y178170D01*
X76570Y175097D01*
X78133Y171323D01*
X78138Y171315D01*
X78140Y171306D01*
X78232Y171138D01*
X78324Y170968D01*
X78329Y170961D01*
X78334Y170953D01*
X78457Y170807D01*
X78580Y170657D01*
X78587Y170652D01*
X78593Y170645D01*
X78743Y170525D01*
X78893Y170404D01*
X78901Y170399D01*
X78907Y170394D01*
X79079Y170306D01*
X79249Y170217D01*
X79258Y170214D01*
X79266Y170210D01*
X79450Y170158D01*
X79636Y170103D01*
X79644Y170103D01*
X79653Y170100D01*
X79844Y170085D01*
X80037Y170069D01*
X80046Y170070D01*
X80054Y170069D01*
X80245Y170092D01*
X80437Y170114D01*
X80445Y170117D01*
X80454Y170118D01*
X80637Y170178D01*
X80820Y170237D01*
X80828Y170241D01*
X80836Y170244D01*
X81004Y170340D01*
X81172Y170433D01*
X81178Y170439D01*
X81186Y170444D01*
X81331Y170570D01*
X81477Y170695D01*
X81483Y170702D01*
X81490Y170708D01*
X81607Y170860D01*
X81726Y171012D01*
X81730Y171020D01*
X81735Y171027D01*
X81887Y171323D01*
X83450Y175097D01*
X86523Y178170D01*
X88231Y178877D01*
X88231Y178878D01*
X90537Y179833D01*
X94883Y179833D01*
X98897Y178170D01*
X101970Y175097D01*
X103533Y171323D01*
X103538Y171315D01*
X103540Y171306D01*
X103632Y171138D01*
X103724Y170968D01*
X103729Y170961D01*
X103734Y170953D01*
X103857Y170807D01*
X103980Y170657D01*
X103987Y170652D01*
X103993Y170645D01*
X104143Y170525D01*
X104293Y170404D01*
X104301Y170399D01*
X104307Y170394D01*
X104479Y170306D01*
X104649Y170217D01*
X104658Y170214D01*
X104666Y170210D01*
X104850Y170158D01*
X105036Y170103D01*
X105044Y170103D01*
X105053Y170100D01*
X105244Y170085D01*
X105437Y170069D01*
X105446Y170070D01*
X105454Y170069D01*
X105645Y170092D01*
X105837Y170114D01*
X105845Y170117D01*
X105854Y170118D01*
X106037Y170178D01*
X106220Y170237D01*
X106228Y170241D01*
X106236Y170244D01*
X106404Y170340D01*
X106572Y170433D01*
X106578Y170439D01*
X106586Y170444D01*
X106731Y170570D01*
X106877Y170695D01*
X106883Y170702D01*
X106890Y170708D01*
X107007Y170860D01*
X107126Y171012D01*
X107130Y171020D01*
X107135Y171027D01*
X107287Y171323D01*
X108850Y175097D01*
X111923Y178170D01*
X113631Y178877D01*
X113631Y178878D01*
X115937Y179833D01*
X120283Y179833D01*
X124297Y178170D01*
X127370Y175097D01*
X128933Y171323D01*
X128938Y171315D01*
X128940Y171306D01*
X129032Y171138D01*
X129124Y170968D01*
X129129Y170961D01*
X129134Y170953D01*
X129257Y170807D01*
X129380Y170657D01*
X129387Y170652D01*
X129393Y170645D01*
X129543Y170525D01*
X129693Y170404D01*
X129701Y170399D01*
X129707Y170394D01*
X129879Y170306D01*
X130049Y170217D01*
X130058Y170214D01*
X130066Y170210D01*
X130250Y170158D01*
X130436Y170103D01*
X130444Y170103D01*
X130453Y170100D01*
X130644Y170085D01*
X130837Y170069D01*
X130846Y170070D01*
X130854Y170069D01*
X131045Y170092D01*
X131237Y170114D01*
X131245Y170117D01*
X131254Y170118D01*
X131437Y170178D01*
X131620Y170237D01*
X131628Y170241D01*
X131636Y170244D01*
X131804Y170340D01*
X131972Y170433D01*
X131978Y170439D01*
X131986Y170444D01*
X132131Y170570D01*
X132277Y170695D01*
X132283Y170702D01*
X132290Y170708D01*
X132407Y170860D01*
X132526Y171012D01*
X132530Y171020D01*
X132535Y171027D01*
X132687Y171323D01*
X134250Y175097D01*
X137323Y178170D01*
X139031Y178877D01*
X139031Y178878D01*
X141337Y179833D01*
X145683Y179833D01*
X149697Y178170D01*
X152770Y175097D01*
X154333Y171323D01*
X154338Y171315D01*
X154340Y171306D01*
X154432Y171138D01*
X154524Y170968D01*
X154529Y170961D01*
X154534Y170953D01*
X154657Y170807D01*
X154780Y170657D01*
X154787Y170652D01*
X154793Y170645D01*
X154943Y170525D01*
X155093Y170404D01*
X155101Y170399D01*
X155107Y170394D01*
X155279Y170306D01*
X155449Y170217D01*
X155458Y170214D01*
X155466Y170210D01*
X155650Y170158D01*
X155836Y170103D01*
X155844Y170103D01*
X155853Y170100D01*
X156044Y170085D01*
X156237Y170069D01*
X156246Y170070D01*
X156254Y170069D01*
X156445Y170092D01*
X156637Y170114D01*
X156645Y170117D01*
X156654Y170118D01*
X156837Y170178D01*
X157020Y170237D01*
X157028Y170241D01*
X157036Y170244D01*
X157204Y170340D01*
X157372Y170433D01*
X157378Y170439D01*
X157386Y170444D01*
X157531Y170570D01*
X157677Y170695D01*
X157683Y170702D01*
X157690Y170708D01*
X157807Y170860D01*
X157926Y171012D01*
X157930Y171020D01*
X157935Y171027D01*
X158087Y171323D01*
X159650Y175097D01*
X162723Y178170D01*
X164431Y178877D01*
X164431Y178878D01*
X166737Y179833D01*
X171083Y179833D01*
X175097Y178170D01*
X178170Y175097D01*
X179733Y171323D01*
X179738Y171315D01*
X179740Y171306D01*
X179832Y171138D01*
X179924Y170968D01*
X179929Y170961D01*
X179934Y170953D01*
X180057Y170807D01*
X180180Y170657D01*
X180187Y170652D01*
X180193Y170645D01*
X180343Y170525D01*
X180493Y170404D01*
X180501Y170399D01*
X180507Y170394D01*
X180679Y170306D01*
X180849Y170217D01*
X180858Y170214D01*
X180866Y170210D01*
X181051Y170157D01*
X181236Y170103D01*
X181244Y170103D01*
X181253Y170100D01*
X181444Y170085D01*
X181637Y170069D01*
X181646Y170070D01*
X181654Y170069D01*
X181847Y170093D01*
X182037Y170114D01*
X182045Y170117D01*
X182054Y170118D01*
X182239Y170179D01*
X182420Y170237D01*
X182428Y170241D01*
X182436Y170244D01*
X182604Y170340D01*
X182772Y170434D01*
X182778Y170439D01*
X182786Y170444D01*
X182931Y170570D01*
X183077Y170695D01*
X183083Y170702D01*
X183090Y170708D01*
X183207Y170861D01*
X183326Y171012D01*
X183330Y171020D01*
X183335Y171027D01*
X183487Y171323D01*
X185050Y175097D01*
X188123Y178170D01*
X189831Y178877D01*
X189831Y178878D01*
X192137Y179833D01*
X196483Y179833D01*
X200497Y178170D01*
X203570Y175097D01*
X205133Y171323D01*
X205138Y171315D01*
X205140Y171306D01*
X205232Y171138D01*
X205324Y170968D01*
X205329Y170961D01*
X205334Y170953D01*
X205457Y170807D01*
X205580Y170657D01*
X205587Y170652D01*
X205593Y170645D01*
X205743Y170525D01*
X205893Y170404D01*
X205901Y170399D01*
X205907Y170394D01*
X206079Y170306D01*
X206249Y170217D01*
X206258Y170214D01*
X206266Y170210D01*
X206451Y170157D01*
X206636Y170103D01*
X206644Y170103D01*
X206653Y170100D01*
X206844Y170085D01*
X207037Y170069D01*
X207046Y170070D01*
X207054Y170069D01*
X207247Y170093D01*
X207437Y170114D01*
X207445Y170117D01*
X207454Y170118D01*
X207639Y170179D01*
X207820Y170237D01*
X207828Y170241D01*
X207836Y170244D01*
X208004Y170340D01*
X208172Y170434D01*
X208178Y170439D01*
X208186Y170444D01*
X208331Y170570D01*
X208477Y170695D01*
X208483Y170702D01*
X208490Y170708D01*
X208607Y170861D01*
X208726Y171012D01*
X208730Y171020D01*
X208735Y171027D01*
X208887Y171323D01*
X210450Y175097D01*
X213523Y178170D01*
X215231Y178877D01*
X215231Y178878D01*
X217537Y179833D01*
X221883Y179833D01*
X225897Y178170D01*
X228970Y175097D01*
X230533Y171323D01*
X230538Y171315D01*
X230540Y171306D01*
X230632Y171138D01*
X230724Y170968D01*
X230729Y170961D01*
X230734Y170953D01*
X230857Y170807D01*
X230980Y170657D01*
X230987Y170652D01*
X230993Y170645D01*
X231143Y170525D01*
X231293Y170404D01*
X231301Y170399D01*
X231307Y170394D01*
X231479Y170306D01*
X231649Y170217D01*
X231658Y170214D01*
X231666Y170210D01*
X231851Y170157D01*
X232036Y170103D01*
X232044Y170103D01*
X232053Y170100D01*
X232244Y170085D01*
X232437Y170069D01*
X232446Y170070D01*
X232454Y170069D01*
X232647Y170093D01*
X232837Y170114D01*
X232845Y170117D01*
X232854Y170118D01*
X233039Y170179D01*
X233220Y170237D01*
X233228Y170241D01*
X233236Y170244D01*
X233404Y170340D01*
X233572Y170434D01*
X233578Y170439D01*
X233586Y170444D01*
X233731Y170570D01*
X233877Y170695D01*
X233883Y170702D01*
X233890Y170708D01*
X234007Y170861D01*
X234126Y171012D01*
X234130Y171020D01*
X234135Y171027D01*
X234287Y171323D01*
X235850Y175097D01*
X238923Y178170D01*
X240631Y178877D01*
X240631Y178878D01*
X242937Y179833D01*
X247283Y179833D01*
X251297Y178170D01*
X254370Y175097D01*
X255933Y171323D01*
X255938Y171315D01*
X255940Y171306D01*
X256032Y171138D01*
X256124Y170968D01*
X256129Y170961D01*
X256134Y170953D01*
X256257Y170807D01*
X256380Y170657D01*
X256387Y170652D01*
X256393Y170645D01*
X256543Y170525D01*
X256693Y170404D01*
X256701Y170399D01*
X256707Y170394D01*
X256879Y170306D01*
X257049Y170217D01*
X257058Y170214D01*
X257066Y170210D01*
X257251Y170157D01*
X257436Y170103D01*
X257444Y170103D01*
X257453Y170100D01*
X257644Y170085D01*
X257837Y170069D01*
X257846Y170070D01*
X257854Y170069D01*
X258047Y170093D01*
X258237Y170114D01*
X258245Y170117D01*
X258254Y170118D01*
X258439Y170179D01*
X258620Y170237D01*
X258628Y170241D01*
X258636Y170244D01*
X258804Y170340D01*
X258972Y170434D01*
X258978Y170439D01*
X258986Y170444D01*
X259131Y170570D01*
X259277Y170695D01*
X259283Y170702D01*
X259290Y170708D01*
X259407Y170861D01*
X259526Y171012D01*
X259530Y171020D01*
X259535Y171027D01*
X259687Y171323D01*
X261250Y175097D01*
X264323Y178170D01*
X266031Y178877D01*
X266031Y178878D01*
X268337Y179833D01*
X272683Y179833D01*
X276697Y178170D01*
X279770Y175097D01*
X280800Y172611D01*
X280842Y172533D01*
X280875Y172450D01*
X280937Y172356D01*
X280990Y172256D01*
X281046Y172188D01*
X281095Y172113D01*
X281174Y172033D01*
X281246Y171946D01*
X281315Y171890D01*
X281378Y171827D01*
X281471Y171763D01*
X281559Y171692D01*
X281637Y171651D01*
X281711Y171601D01*
X281815Y171558D01*
X281915Y171505D01*
X282001Y171480D01*
X282083Y171446D01*
X282193Y171424D01*
X282302Y171392D01*
X282390Y171384D01*
X282477Y171367D01*
X282591Y171367D01*
X282703Y171357D01*
X282791Y171367D01*
X282880Y171367D01*
X282991Y171390D01*
X283103Y171403D01*
X283188Y171430D01*
X283275Y171447D01*
X283379Y171491D01*
X283486Y171526D01*
X283564Y171569D01*
X283646Y171603D01*
X283739Y171667D01*
X283838Y171722D01*
X283905Y171780D01*
X283979Y171830D01*
X284058Y171910D01*
X284144Y171984D01*
X284198Y172054D01*
X284261Y172117D01*
X284322Y172212D01*
X284392Y172301D01*
X284432Y172380D01*
X284480Y172455D01*
X284535Y172585D01*
X284573Y172661D01*
X284585Y172705D01*
X284608Y172761D01*
X284846Y173493D01*
X285699Y175167D01*
X286804Y176688D01*
X288132Y178016D01*
X289653Y179121D01*
X291327Y179974D01*
X291611Y180066D01*
X291688Y180100D01*
X291769Y180125D01*
X291872Y180181D01*
X291979Y180228D01*
X292049Y180276D01*
X292123Y180317D01*
X292213Y180392D01*
X292309Y180459D01*
X292367Y180520D01*
X292432Y180574D01*
X292505Y180666D01*
X292586Y180751D01*
X292631Y180822D01*
X292684Y180888D01*
X292738Y180992D01*
X292801Y181092D01*
X292831Y181170D01*
X292870Y181245D01*
X292902Y181358D01*
X292944Y181468D01*
X292958Y181551D01*
X292981Y181632D01*
X292991Y181749D01*
X293010Y181865D01*
X293007Y181949D01*
X293014Y182034D01*
X293000Y182150D01*
X292996Y182267D01*
X292977Y182350D01*
X292967Y182433D01*
X292931Y182545D01*
X292904Y182659D01*
X292868Y182736D01*
X292842Y182816D01*
X292785Y182919D01*
X292736Y183025D01*
X292686Y183093D01*
X292644Y183167D01*
X292568Y183256D01*
X292499Y183351D01*
X292436Y183408D01*
X292381Y183472D01*
X292288Y183543D01*
X292202Y183623D01*
X292130Y183667D01*
X292063Y183718D01*
X291958Y183771D01*
X291858Y183831D01*
X291778Y183860D01*
X291703Y183898D01*
X291589Y183928D01*
X291479Y183968D01*
X291395Y183980D01*
X291314Y184002D01*
X291165Y184014D01*
X291081Y184027D01*
X291038Y184025D01*
X290983Y184029D01*
X4032Y184029D01*
X4014Y184027D01*
X3996Y184029D01*
X3814Y184008D01*
X3631Y183989D01*
X3614Y183984D01*
X3597Y183982D01*
X3422Y183925D01*
X3246Y183871D01*
X3231Y183863D01*
X3214Y183857D01*
X3054Y183767D01*
X2892Y183679D01*
X2879Y183668D01*
X2863Y183659D01*
X2724Y183539D01*
X2583Y183422D01*
X2572Y183408D01*
X2558Y183396D01*
X2446Y183251D01*
X2331Y183108D01*
X2323Y183092D01*
X2312Y183078D01*
X2230Y182913D01*
X2145Y182751D01*
X2140Y182734D01*
X2132Y182718D01*
X2085Y182539D01*
X2034Y182364D01*
X2032Y182346D01*
X2028Y182329D01*
X2001Y181998D01*
X2001Y147236D01*
X2001Y147231D01*
X2001Y147227D01*
X2021Y147033D01*
X2041Y146835D01*
X2042Y146831D01*
X2042Y146826D01*
X2100Y146641D01*
X2159Y146450D01*
X2161Y146446D01*
X2162Y146442D01*
X2256Y146270D01*
X2351Y146096D01*
X2353Y146093D01*
X2356Y146089D01*
X2483Y145938D01*
X2608Y145787D01*
X2612Y145784D01*
X2615Y145781D01*
X2769Y145657D01*
X2922Y145535D01*
X2926Y145533D01*
X2929Y145530D01*
X3104Y145440D01*
X3279Y145349D01*
X3284Y145348D01*
X3288Y145346D01*
X3475Y145293D01*
X3666Y145238D01*
X3671Y145237D01*
X3675Y145236D01*
X3868Y145221D01*
X4068Y145205D01*
X4072Y145205D01*
X4076Y145205D01*
X4270Y145229D01*
X4467Y145252D01*
X4472Y145253D01*
X4476Y145254D01*
X4661Y145315D01*
X4850Y145377D01*
X4854Y145379D01*
X4858Y145380D01*
X5030Y145478D01*
X5201Y145574D01*
X5204Y145577D01*
X5208Y145580D01*
X5359Y145711D01*
X5505Y145838D01*
X5508Y145841D01*
X5512Y145844D01*
X5632Y146001D01*
X5752Y146156D01*
X5754Y146160D01*
X5757Y146163D01*
X5909Y146458D01*
X7250Y149697D01*
X10323Y152770D01*
X14337Y154433D01*
X18683Y154433D01*
X22697Y152770D01*
X25770Y149697D01*
X27433Y145683D01*
X27433Y142102D01*
X27435Y142075D01*
X27433Y142048D01*
X27455Y141875D01*
X27473Y141701D01*
X27480Y141676D01*
X27484Y141649D01*
X27539Y141483D01*
X27591Y141316D01*
X27604Y141293D01*
X27612Y141267D01*
X27699Y141116D01*
X27783Y140962D01*
X27800Y140942D01*
X27813Y140918D01*
X28028Y140665D01*
X39078Y129615D01*
X39085Y129610D01*
X39090Y129603D01*
X39240Y129483D01*
X39389Y129360D01*
X39397Y129356D01*
X39404Y129351D01*
X39574Y129262D01*
X39745Y129172D01*
X39754Y129169D01*
X39761Y129165D01*
X39946Y129112D01*
X40131Y129057D01*
X40140Y129056D01*
X40148Y129054D01*
X40340Y129038D01*
X40532Y129021D01*
X40541Y129022D01*
X40550Y129021D01*
X40739Y129043D01*
X40932Y129064D01*
X40941Y129067D01*
X40949Y129068D01*
X41131Y129127D01*
X41316Y129185D01*
X41324Y129190D01*
X41332Y129193D01*
X41501Y129288D01*
X41668Y129380D01*
X41675Y129386D01*
X41683Y129390D01*
X41829Y129516D01*
X41975Y129641D01*
X41981Y129648D01*
X41988Y129654D01*
X42105Y129805D01*
X42225Y129957D01*
X42229Y129965D01*
X42234Y129972D01*
X42320Y130144D01*
X42407Y130316D01*
X42410Y130324D01*
X42414Y130332D01*
X42464Y130518D01*
X42515Y130704D01*
X42516Y130712D01*
X42518Y130721D01*
X42545Y131052D01*
X42545Y136342D01*
X43438Y137235D01*
X60702Y137235D01*
X61595Y136342D01*
X61595Y121879D01*
X61596Y121870D01*
X61595Y121861D01*
X61616Y121669D01*
X61635Y121478D01*
X61637Y121470D01*
X61638Y121461D01*
X61696Y121278D01*
X61753Y121093D01*
X61757Y121085D01*
X61760Y121077D01*
X61853Y120908D01*
X61945Y120739D01*
X61950Y120732D01*
X61955Y120724D01*
X62079Y120578D01*
X62202Y120430D01*
X62209Y120424D01*
X62215Y120417D01*
X62366Y120298D01*
X62516Y120178D01*
X62524Y120173D01*
X62531Y120168D01*
X62704Y120080D01*
X62873Y119992D01*
X62882Y119990D01*
X62890Y119986D01*
X63076Y119934D01*
X63260Y119881D01*
X63269Y119880D01*
X63278Y119878D01*
X63471Y119863D01*
X63662Y119848D01*
X63670Y119849D01*
X63679Y119848D01*
X63872Y119872D01*
X64061Y119895D01*
X64070Y119897D01*
X64079Y119899D01*
X64262Y119960D01*
X64444Y120020D01*
X64452Y120024D01*
X64460Y120027D01*
X64626Y120122D01*
X64795Y120217D01*
X64802Y120223D01*
X64809Y120228D01*
X65062Y120442D01*
X67251Y122631D01*
X69761Y123671D01*
X72479Y123671D01*
X74989Y122631D01*
X76850Y120770D01*
X76871Y120753D01*
X76889Y120732D01*
X77027Y120625D01*
X77162Y120515D01*
X77186Y120502D01*
X77207Y120486D01*
X77364Y120408D01*
X77518Y120326D01*
X77543Y120318D01*
X77567Y120306D01*
X77737Y120261D01*
X77904Y120211D01*
X77930Y120209D01*
X77956Y120202D01*
X78287Y120175D01*
X94948Y120175D01*
X97179Y117943D01*
X97180Y117943D01*
X109863Y105260D01*
X109883Y105243D01*
X109901Y105222D01*
X110039Y105115D01*
X110174Y105005D01*
X110198Y104992D01*
X110219Y104976D01*
X110376Y104898D01*
X110530Y104816D01*
X110555Y104808D01*
X110579Y104796D01*
X110749Y104751D01*
X110916Y104701D01*
X110942Y104699D01*
X110968Y104692D01*
X111299Y104665D01*
X125796Y104665D01*
X125805Y104666D01*
G37*
G36*
X231974Y40563D02*
X231974Y40563D01*
X231996Y40561D01*
X232174Y40583D01*
X232352Y40601D01*
X232374Y40607D01*
X232396Y40610D01*
X232566Y40666D01*
X232737Y40719D01*
X232757Y40729D01*
X232778Y40736D01*
X232933Y40825D01*
X233091Y40911D01*
X233108Y40925D01*
X233128Y40936D01*
X233263Y41054D01*
X233400Y41168D01*
X233414Y41186D01*
X233431Y41200D01*
X233541Y41343D01*
X233653Y41482D01*
X233663Y41502D01*
X233677Y41520D01*
X233828Y41815D01*
X233859Y41889D01*
X234474Y42504D01*
X234491Y42525D01*
X234512Y42543D01*
X234618Y42680D01*
X234729Y42816D01*
X234742Y42840D01*
X234758Y42861D01*
X234836Y43017D01*
X234918Y43172D01*
X234926Y43197D01*
X234938Y43221D01*
X234983Y43390D01*
X235033Y43558D01*
X235035Y43584D01*
X235042Y43610D01*
X235069Y43941D01*
X235069Y50341D01*
X240611Y50341D01*
X240611Y47005D01*
X240592Y46935D01*
X240578Y46850D01*
X240554Y46766D01*
X240545Y46652D01*
X240527Y46538D01*
X240530Y46451D01*
X240523Y46365D01*
X240537Y46251D01*
X240541Y46135D01*
X240561Y46051D01*
X240572Y45965D01*
X240608Y45856D01*
X240635Y45744D01*
X240671Y45665D01*
X240698Y45583D01*
X240755Y45483D01*
X240804Y45378D01*
X240855Y45308D01*
X240898Y45233D01*
X240973Y45146D01*
X241041Y45053D01*
X241105Y44995D01*
X241162Y44930D01*
X241254Y44859D01*
X241339Y44782D01*
X241413Y44737D01*
X241481Y44684D01*
X241610Y44618D01*
X241684Y44574D01*
X241725Y44559D01*
X241777Y44533D01*
X242737Y44135D01*
X242750Y44131D01*
X242761Y44125D01*
X242942Y44073D01*
X243122Y44019D01*
X243135Y44017D01*
X243148Y44014D01*
X243336Y43998D01*
X243523Y43980D01*
X243536Y43982D01*
X243550Y43981D01*
X243737Y44003D01*
X243923Y44022D01*
X243936Y44026D01*
X243949Y44028D01*
X244129Y44086D01*
X244308Y44142D01*
X244319Y44148D01*
X244332Y44152D01*
X244497Y44245D01*
X244661Y44335D01*
X244671Y44344D01*
X244683Y44350D01*
X244825Y44473D01*
X244969Y44594D01*
X244977Y44605D01*
X244988Y44613D01*
X245103Y44762D01*
X245220Y44909D01*
X245226Y44921D01*
X245234Y44932D01*
X245318Y45101D01*
X245404Y45267D01*
X245408Y45280D01*
X245414Y45292D01*
X245463Y45475D01*
X245514Y45655D01*
X245515Y45668D01*
X245518Y45681D01*
X245545Y46012D01*
X245545Y60647D01*
X245543Y60674D01*
X245545Y60700D01*
X245523Y60874D01*
X245505Y61048D01*
X245498Y61073D01*
X245494Y61100D01*
X245438Y61266D01*
X245387Y61433D01*
X245375Y61456D01*
X245366Y61481D01*
X245279Y61633D01*
X245195Y61787D01*
X245178Y61807D01*
X245165Y61830D01*
X244950Y62083D01*
X244006Y63027D01*
X243993Y63039D01*
X243981Y63052D01*
X243837Y63166D01*
X243695Y63282D01*
X243679Y63291D01*
X243665Y63302D01*
X243501Y63385D01*
X243339Y63471D01*
X243322Y63476D01*
X243306Y63484D01*
X243129Y63533D01*
X242953Y63586D01*
X242935Y63587D01*
X242918Y63592D01*
X242736Y63606D01*
X242552Y63622D01*
X242535Y63620D01*
X242517Y63622D01*
X242335Y63599D01*
X242152Y63579D01*
X242135Y63573D01*
X242117Y63571D01*
X241943Y63513D01*
X241768Y63457D01*
X241753Y63449D01*
X241736Y63443D01*
X241577Y63352D01*
X241416Y63263D01*
X241402Y63251D01*
X241387Y63242D01*
X241134Y63027D01*
X240804Y62698D01*
X240706Y62578D01*
X240602Y62462D01*
X240578Y62422D01*
X240549Y62386D01*
X240476Y62249D01*
X240397Y62115D01*
X240382Y62071D01*
X240360Y62030D01*
X240316Y61882D01*
X240265Y61735D01*
X240259Y61689D01*
X240245Y61644D01*
X240231Y61490D01*
X240210Y61336D01*
X240213Y61290D01*
X240209Y61243D01*
X240226Y61089D01*
X240235Y60934D01*
X240247Y60889D01*
X240252Y60843D01*
X240299Y60695D01*
X240339Y60545D01*
X240362Y60498D01*
X240374Y60459D01*
X240416Y60384D01*
X240427Y60359D01*
X240611Y59675D01*
X240611Y56339D01*
X233038Y56339D01*
X233020Y56337D01*
X233003Y56339D01*
X232820Y56318D01*
X232638Y56299D01*
X232621Y56294D01*
X232603Y56292D01*
X232428Y56235D01*
X232253Y56181D01*
X232237Y56173D01*
X232220Y56167D01*
X232071Y56083D01*
X232017Y56110D01*
X231854Y56195D01*
X231837Y56200D01*
X231821Y56208D01*
X231643Y56255D01*
X231468Y56306D01*
X231450Y56308D01*
X231433Y56312D01*
X231102Y56339D01*
X223529Y56339D01*
X223529Y59675D01*
X223702Y60321D01*
X224037Y60900D01*
X224450Y61313D01*
X224467Y61334D01*
X224488Y61352D01*
X224595Y61490D01*
X224705Y61625D01*
X224718Y61649D01*
X224734Y61670D01*
X224812Y61827D01*
X224894Y61981D01*
X224902Y62006D01*
X224914Y62030D01*
X224959Y62200D01*
X225009Y62367D01*
X225011Y62393D01*
X225018Y62419D01*
X225045Y62750D01*
X225045Y69511D01*
X225044Y69520D01*
X225045Y69529D01*
X225024Y69721D01*
X225005Y69912D01*
X225003Y69920D01*
X225002Y69929D01*
X224944Y70112D01*
X224887Y70297D01*
X224883Y70305D01*
X224880Y70313D01*
X224787Y70482D01*
X224695Y70651D01*
X224690Y70658D01*
X224685Y70666D01*
X224560Y70813D01*
X224438Y70960D01*
X224431Y70966D01*
X224425Y70973D01*
X224273Y71092D01*
X224124Y71212D01*
X224116Y71217D01*
X224109Y71222D01*
X223937Y71310D01*
X223767Y71398D01*
X223758Y71400D01*
X223750Y71404D01*
X223564Y71456D01*
X223380Y71509D01*
X223371Y71510D01*
X223362Y71512D01*
X223170Y71527D01*
X222978Y71542D01*
X222970Y71541D01*
X222961Y71542D01*
X222768Y71518D01*
X222579Y71495D01*
X222570Y71493D01*
X222561Y71491D01*
X222378Y71430D01*
X222196Y71370D01*
X222188Y71366D01*
X222180Y71363D01*
X222014Y71268D01*
X221845Y71173D01*
X221838Y71167D01*
X221831Y71162D01*
X221578Y70948D01*
X219769Y69139D01*
X217259Y68099D01*
X214541Y68099D01*
X212031Y69139D01*
X210109Y71061D01*
X209069Y73571D01*
X209069Y76289D01*
X210109Y78799D01*
X212031Y80721D01*
X214651Y81806D01*
X214658Y81808D01*
X214685Y81812D01*
X214851Y81867D01*
X215018Y81919D01*
X215041Y81932D01*
X215067Y81940D01*
X215218Y82027D01*
X215372Y82111D01*
X215392Y82128D01*
X215416Y82141D01*
X215669Y82356D01*
X223051Y89738D01*
X223068Y89759D01*
X223089Y89777D01*
X223196Y89915D01*
X223306Y90050D01*
X223319Y90074D01*
X223335Y90095D01*
X223413Y90252D01*
X223495Y90406D01*
X223503Y90431D01*
X223515Y90455D01*
X223560Y90625D01*
X223610Y90792D01*
X223612Y90818D01*
X223619Y90844D01*
X223646Y91175D01*
X223646Y98540D01*
X223644Y98560D01*
X223646Y98579D01*
X223624Y98760D01*
X223606Y98941D01*
X223601Y98960D01*
X223598Y98979D01*
X223542Y99152D01*
X223488Y99326D01*
X223479Y99343D01*
X223473Y99362D01*
X223383Y99520D01*
X223296Y99680D01*
X223284Y99695D01*
X223274Y99712D01*
X223155Y99849D01*
X223039Y99989D01*
X223023Y100001D01*
X223010Y100016D01*
X222867Y100127D01*
X222725Y100241D01*
X222708Y100250D01*
X222692Y100263D01*
X222529Y100343D01*
X222368Y100427D01*
X222349Y100432D01*
X222331Y100441D01*
X222155Y100488D01*
X221981Y100538D01*
X221961Y100540D01*
X221942Y100545D01*
X221611Y100572D01*
X213271Y100556D01*
X213247Y100554D01*
X213222Y100556D01*
X213046Y100534D01*
X212871Y100516D01*
X212847Y100508D01*
X212822Y100505D01*
X212655Y100449D01*
X212486Y100397D01*
X212464Y100385D01*
X212441Y100377D01*
X212287Y100289D01*
X212132Y100205D01*
X212113Y100189D01*
X212092Y100176D01*
X211839Y99961D01*
X207479Y95601D01*
X207462Y95581D01*
X207441Y95563D01*
X207335Y95426D01*
X207224Y95290D01*
X207211Y95266D01*
X207195Y95245D01*
X207117Y95089D01*
X207035Y94934D01*
X207027Y94909D01*
X207015Y94885D01*
X206970Y94716D01*
X206920Y94548D01*
X206918Y94522D01*
X206911Y94496D01*
X206884Y94165D01*
X206884Y84458D01*
X205991Y83565D01*
X190249Y83565D01*
X189356Y84458D01*
X189356Y86868D01*
X189354Y86886D01*
X189356Y86904D01*
X189335Y87085D01*
X189316Y87269D01*
X189311Y87286D01*
X189309Y87303D01*
X189252Y87478D01*
X189198Y87654D01*
X189190Y87669D01*
X189184Y87686D01*
X189094Y87846D01*
X189006Y88008D01*
X188995Y88021D01*
X188986Y88037D01*
X188866Y88176D01*
X188749Y88317D01*
X188735Y88328D01*
X188723Y88342D01*
X188578Y88454D01*
X188435Y88569D01*
X188419Y88577D01*
X188405Y88588D01*
X188240Y88670D01*
X188078Y88755D01*
X188061Y88760D01*
X188045Y88768D01*
X187866Y88815D01*
X187691Y88866D01*
X187673Y88868D01*
X187656Y88872D01*
X187325Y88899D01*
X186908Y88899D01*
X168255Y107552D01*
X168234Y107569D01*
X168216Y107590D01*
X168078Y107697D01*
X167943Y107807D01*
X167919Y107820D01*
X167898Y107836D01*
X167741Y107914D01*
X167587Y107996D01*
X167562Y108004D01*
X167538Y108016D01*
X167368Y108061D01*
X167201Y108111D01*
X167175Y108113D01*
X167149Y108120D01*
X166818Y108147D01*
X164607Y108147D01*
X164598Y108146D01*
X164589Y108147D01*
X164397Y108126D01*
X164206Y108107D01*
X164198Y108105D01*
X164189Y108104D01*
X164007Y108046D01*
X163821Y107989D01*
X163813Y107985D01*
X163805Y107982D01*
X163637Y107889D01*
X163467Y107797D01*
X163461Y107792D01*
X163453Y107787D01*
X163304Y107661D01*
X163158Y107540D01*
X163153Y107533D01*
X163146Y107527D01*
X163025Y107374D01*
X162906Y107226D01*
X162902Y107218D01*
X162896Y107211D01*
X162808Y107038D01*
X162720Y106869D01*
X162718Y106860D01*
X162714Y106852D01*
X162662Y106666D01*
X162609Y106482D01*
X162608Y106473D01*
X162606Y106464D01*
X162592Y106271D01*
X162576Y106080D01*
X162577Y106072D01*
X162576Y106063D01*
X162601Y105870D01*
X162623Y105681D01*
X162626Y105672D01*
X162627Y105663D01*
X162688Y105480D01*
X162748Y105298D01*
X162752Y105290D01*
X162755Y105282D01*
X162850Y105116D01*
X162946Y104947D01*
X162952Y104940D01*
X162956Y104933D01*
X163171Y104680D01*
X165417Y102433D01*
X165418Y102433D01*
X169977Y97874D01*
X172209Y95642D01*
X172209Y84596D01*
X172211Y84578D01*
X172209Y84560D01*
X172230Y84378D01*
X172249Y84195D01*
X172254Y84178D01*
X172256Y84161D01*
X172313Y83986D01*
X172367Y83810D01*
X172375Y83795D01*
X172381Y83778D01*
X172472Y83617D01*
X172559Y83456D01*
X172570Y83443D01*
X172579Y83427D01*
X172699Y83288D01*
X172816Y83147D01*
X172830Y83136D01*
X172842Y83122D01*
X172987Y83010D01*
X173130Y82895D01*
X173146Y82887D01*
X173160Y82876D01*
X173325Y82794D01*
X173487Y82709D01*
X173504Y82704D01*
X173520Y82696D01*
X173699Y82649D01*
X173874Y82598D01*
X173892Y82596D01*
X173909Y82592D01*
X174240Y82565D01*
X178650Y82565D01*
X179543Y81672D01*
X179543Y79342D01*
X179545Y79324D01*
X179543Y79306D01*
X179564Y79124D01*
X179583Y78941D01*
X179588Y78924D01*
X179590Y78907D01*
X179647Y78732D01*
X179701Y78556D01*
X179709Y78541D01*
X179715Y78524D01*
X179805Y78363D01*
X179893Y78202D01*
X179904Y78189D01*
X179913Y78173D01*
X180033Y78034D01*
X180150Y77893D01*
X180164Y77882D01*
X180176Y77868D01*
X180321Y77756D01*
X180464Y77641D01*
X180480Y77633D01*
X180494Y77622D01*
X180644Y77547D01*
X201875Y56316D01*
X201896Y56299D01*
X201914Y56278D01*
X202052Y56171D01*
X202187Y56061D01*
X202211Y56048D01*
X202232Y56032D01*
X202389Y55954D01*
X202543Y55872D01*
X202568Y55864D01*
X202592Y55852D01*
X202762Y55807D01*
X202929Y55757D01*
X202955Y55755D01*
X202981Y55748D01*
X203312Y55721D01*
X215283Y55721D01*
X220068Y50936D01*
X220089Y50919D01*
X220107Y50898D01*
X220245Y50791D01*
X220380Y50681D01*
X220404Y50668D01*
X220425Y50652D01*
X220581Y50574D01*
X220736Y50492D01*
X220761Y50484D01*
X220785Y50472D01*
X220955Y50427D01*
X221122Y50377D01*
X221148Y50375D01*
X221174Y50368D01*
X221505Y50341D01*
X229071Y50341D01*
X229071Y42775D01*
X229073Y42748D01*
X229071Y42721D01*
X229093Y42548D01*
X229111Y42374D01*
X229119Y42348D01*
X229122Y42322D01*
X229177Y42157D01*
X229229Y41989D01*
X229242Y41966D01*
X229250Y41940D01*
X229337Y41789D01*
X229420Y41635D01*
X229438Y41615D01*
X229451Y41591D01*
X229666Y41338D01*
X229849Y41156D01*
X229869Y41139D01*
X229887Y41118D01*
X230025Y41011D01*
X230160Y40901D01*
X230184Y40888D01*
X230205Y40872D01*
X230361Y40794D01*
X230516Y40712D01*
X230541Y40704D01*
X230565Y40692D01*
X230734Y40647D01*
X230902Y40597D01*
X230928Y40595D01*
X230954Y40588D01*
X231285Y40561D01*
X231952Y40561D01*
X231974Y40563D01*
G37*
G36*
X193820Y13972D02*
X193820Y13972D01*
X193837Y13971D01*
X194020Y13992D01*
X194202Y14011D01*
X194219Y14016D01*
X194237Y14018D01*
X194412Y14075D01*
X194587Y14129D01*
X194603Y14137D01*
X194620Y14143D01*
X194780Y14233D01*
X194941Y14320D01*
X194955Y14332D01*
X194971Y14341D01*
X195110Y14461D01*
X195251Y14578D01*
X195262Y14592D01*
X195275Y14604D01*
X195388Y14749D01*
X195503Y14892D01*
X195511Y14908D01*
X195522Y14922D01*
X195604Y15087D01*
X195644Y15163D01*
X195796Y15249D01*
X195958Y15337D01*
X195971Y15348D01*
X195987Y15357D01*
X196126Y15477D01*
X196267Y15595D01*
X196278Y15608D01*
X196292Y15620D01*
X196404Y15765D01*
X196519Y15908D01*
X196527Y15924D01*
X196538Y15938D01*
X196620Y16103D01*
X196705Y16266D01*
X196710Y16283D01*
X196718Y16299D01*
X196765Y16477D01*
X196816Y16652D01*
X196818Y16670D01*
X196822Y16687D01*
X196849Y17018D01*
X196849Y28195D01*
X197106Y28155D01*
X198893Y27574D01*
X200567Y26721D01*
X202088Y25616D01*
X203416Y24288D01*
X204521Y22767D01*
X205374Y21093D01*
X205612Y20361D01*
X205648Y20280D01*
X205674Y20195D01*
X205728Y20096D01*
X205774Y19992D01*
X205825Y19919D01*
X205867Y19842D01*
X205940Y19755D01*
X206005Y19663D01*
X206069Y19601D01*
X206126Y19533D01*
X206215Y19463D01*
X206297Y19385D01*
X206372Y19338D01*
X206441Y19282D01*
X206542Y19231D01*
X206637Y19171D01*
X206721Y19139D01*
X206799Y19099D01*
X206908Y19068D01*
X207014Y19028D01*
X207102Y19013D01*
X207187Y18989D01*
X207299Y18980D01*
X207411Y18962D01*
X207500Y18965D01*
X207588Y18958D01*
X207700Y18971D01*
X207813Y18975D01*
X207900Y18996D01*
X207988Y19006D01*
X208095Y19042D01*
X208205Y19068D01*
X208286Y19105D01*
X208370Y19133D01*
X208468Y19189D01*
X208571Y19236D01*
X208643Y19288D01*
X208720Y19332D01*
X208805Y19407D01*
X208896Y19473D01*
X208957Y19539D01*
X209023Y19597D01*
X209092Y19686D01*
X209169Y19770D01*
X209215Y19846D01*
X209269Y19916D01*
X209333Y20042D01*
X209377Y20114D01*
X209393Y20157D01*
X209420Y20211D01*
X210450Y22697D01*
X213523Y25770D01*
X217537Y27433D01*
X220443Y27433D01*
X220452Y27434D01*
X220461Y27433D01*
X220655Y27454D01*
X220844Y27473D01*
X220852Y27475D01*
X220861Y27476D01*
X221045Y27534D01*
X221229Y27591D01*
X221237Y27595D01*
X221245Y27598D01*
X221413Y27690D01*
X221583Y27783D01*
X221590Y27788D01*
X221598Y27793D01*
X221745Y27917D01*
X221892Y28040D01*
X221898Y28047D01*
X221905Y28053D01*
X222024Y28204D01*
X222145Y28354D01*
X222149Y28362D01*
X222154Y28369D01*
X222242Y28541D01*
X222330Y28711D01*
X222333Y28720D01*
X222337Y28728D01*
X222389Y28914D01*
X222441Y29098D01*
X222442Y29107D01*
X222445Y29116D01*
X222459Y29309D01*
X222474Y29500D01*
X222473Y29508D01*
X222474Y29517D01*
X222450Y29708D01*
X222427Y29899D01*
X222425Y29908D01*
X222424Y29917D01*
X222362Y30100D01*
X222303Y30282D01*
X222298Y30290D01*
X222295Y30298D01*
X222199Y30465D01*
X222105Y30633D01*
X222099Y30640D01*
X222094Y30647D01*
X221880Y30900D01*
X213752Y39028D01*
X213731Y39045D01*
X213713Y39066D01*
X213576Y39173D01*
X213440Y39283D01*
X213417Y39296D01*
X213395Y39312D01*
X213238Y39390D01*
X213084Y39472D01*
X213059Y39480D01*
X213035Y39492D01*
X212865Y39537D01*
X212699Y39587D01*
X212672Y39589D01*
X212646Y39596D01*
X212315Y39623D01*
X193546Y39623D01*
X193528Y39621D01*
X193510Y39623D01*
X193328Y39602D01*
X193145Y39583D01*
X193128Y39578D01*
X193111Y39576D01*
X192936Y39519D01*
X192760Y39465D01*
X192745Y39457D01*
X192728Y39451D01*
X192568Y39361D01*
X192406Y39273D01*
X192393Y39262D01*
X192377Y39253D01*
X192238Y39133D01*
X192097Y39016D01*
X192086Y39002D01*
X192072Y38990D01*
X191960Y38845D01*
X191845Y38702D01*
X191837Y38686D01*
X191826Y38672D01*
X191744Y38507D01*
X191659Y38345D01*
X191654Y38328D01*
X191646Y38312D01*
X191599Y38133D01*
X191548Y37958D01*
X191546Y37940D01*
X191542Y37923D01*
X191515Y37592D01*
X191515Y35048D01*
X190622Y34155D01*
X176358Y34155D01*
X176129Y34385D01*
X176065Y34437D01*
X176008Y34496D01*
X175910Y34564D01*
X175817Y34640D01*
X175745Y34679D01*
X175677Y34725D01*
X175567Y34773D01*
X175461Y34829D01*
X175383Y34852D01*
X175307Y34885D01*
X175190Y34909D01*
X175076Y34943D01*
X174993Y34951D01*
X174913Y34968D01*
X174794Y34969D01*
X174675Y34980D01*
X174593Y34971D01*
X174510Y34972D01*
X174393Y34949D01*
X174274Y34936D01*
X174196Y34912D01*
X174115Y34896D01*
X174004Y34851D01*
X173890Y34815D01*
X173818Y34775D01*
X173742Y34744D01*
X173643Y34678D01*
X173538Y34620D01*
X173475Y34567D01*
X173407Y34521D01*
X173322Y34437D01*
X173231Y34360D01*
X173180Y34295D01*
X173122Y34237D01*
X173081Y34178D01*
X172550Y33647D01*
X171971Y33312D01*
X171325Y33139D01*
X167739Y33139D01*
X167739Y41962D01*
X167737Y41980D01*
X167739Y41997D01*
X167718Y42180D01*
X167699Y42362D01*
X167694Y42379D01*
X167692Y42397D01*
X167635Y42572D01*
X167581Y42747D01*
X167573Y42763D01*
X167567Y42780D01*
X167477Y42940D01*
X167389Y43101D01*
X167378Y43115D01*
X167369Y43131D01*
X167324Y43183D01*
X167409Y43288D01*
X167417Y43304D01*
X167428Y43318D01*
X167510Y43483D01*
X167595Y43646D01*
X167600Y43663D01*
X167608Y43679D01*
X167655Y43857D01*
X167706Y44032D01*
X167708Y44050D01*
X167712Y44067D01*
X167739Y44398D01*
X167739Y53416D01*
X167738Y53429D01*
X167739Y53443D01*
X167718Y53629D01*
X167699Y53816D01*
X167695Y53829D01*
X167694Y53843D01*
X167637Y54021D01*
X167581Y54201D01*
X167575Y54213D01*
X167571Y54226D01*
X167479Y54390D01*
X167389Y54555D01*
X167381Y54566D01*
X167374Y54577D01*
X167252Y54721D01*
X167132Y54865D01*
X167121Y54873D01*
X167112Y54883D01*
X166965Y54999D01*
X166818Y55117D01*
X166806Y55123D01*
X166795Y55131D01*
X166627Y55216D01*
X166461Y55302D01*
X166448Y55306D01*
X166436Y55312D01*
X166255Y55362D01*
X166074Y55414D01*
X166060Y55415D01*
X166047Y55418D01*
X165860Y55431D01*
X165672Y55447D01*
X165659Y55445D01*
X165646Y55446D01*
X165460Y55422D01*
X165273Y55400D01*
X165271Y55399D01*
X163272Y55399D01*
X163254Y55397D01*
X163236Y55399D01*
X163054Y55378D01*
X162871Y55359D01*
X162854Y55354D01*
X162837Y55352D01*
X162662Y55295D01*
X162486Y55241D01*
X162471Y55233D01*
X162454Y55227D01*
X162294Y55137D01*
X162132Y55049D01*
X162119Y55038D01*
X162103Y55029D01*
X161964Y54909D01*
X161823Y54792D01*
X161812Y54778D01*
X161798Y54766D01*
X161686Y54621D01*
X161571Y54478D01*
X161563Y54462D01*
X161552Y54448D01*
X161470Y54283D01*
X161385Y54121D01*
X161380Y54104D01*
X161372Y54088D01*
X161324Y53909D01*
X161274Y53734D01*
X161272Y53716D01*
X161268Y53699D01*
X161241Y53368D01*
X161241Y46429D01*
X155449Y46429D01*
X155449Y51015D01*
X155622Y51661D01*
X155957Y52240D01*
X156430Y52713D01*
X157009Y53048D01*
X157655Y53221D01*
X158275Y53221D01*
X158284Y53222D01*
X158293Y53221D01*
X158485Y53242D01*
X158676Y53261D01*
X158684Y53263D01*
X158693Y53264D01*
X158876Y53322D01*
X159061Y53379D01*
X159069Y53383D01*
X159077Y53386D01*
X159246Y53479D01*
X159415Y53571D01*
X159422Y53576D01*
X159430Y53581D01*
X159577Y53706D01*
X159724Y53828D01*
X159730Y53835D01*
X159737Y53841D01*
X159856Y53993D01*
X159976Y54142D01*
X159981Y54150D01*
X159986Y54157D01*
X160074Y54329D01*
X160162Y54499D01*
X160164Y54508D01*
X160168Y54516D01*
X160220Y54702D01*
X160273Y54886D01*
X160274Y54895D01*
X160276Y54904D01*
X160290Y55095D01*
X160306Y55288D01*
X160305Y55296D01*
X160306Y55305D01*
X160282Y55498D01*
X160259Y55687D01*
X160257Y55696D01*
X160255Y55705D01*
X160194Y55888D01*
X160134Y56070D01*
X160130Y56078D01*
X160127Y56086D01*
X160032Y56252D01*
X159937Y56421D01*
X159931Y56428D01*
X159926Y56435D01*
X159712Y56688D01*
X158039Y58361D01*
X156999Y60871D01*
X156999Y63589D01*
X157870Y65691D01*
X157874Y65704D01*
X157880Y65715D01*
X157932Y65896D01*
X157943Y65933D01*
X157958Y65953D01*
X158102Y66252D01*
X158102Y66253D01*
X158103Y66257D01*
X158105Y66262D01*
X158106Y66262D01*
X158157Y66454D01*
X158209Y66641D01*
X158209Y66646D01*
X158210Y66651D01*
X158237Y66982D01*
X158237Y76040D01*
X158237Y83581D01*
X158541Y83581D01*
X159187Y83408D01*
X159771Y83070D01*
X159778Y83062D01*
X159916Y82955D01*
X160051Y82845D01*
X160075Y82832D01*
X160096Y82816D01*
X160253Y82738D01*
X160407Y82656D01*
X160432Y82648D01*
X160456Y82636D01*
X160626Y82591D01*
X160793Y82541D01*
X160819Y82539D01*
X160845Y82532D01*
X161176Y82505D01*
X164588Y82505D01*
X164606Y82507D01*
X164624Y82505D01*
X164806Y82526D01*
X164989Y82545D01*
X165006Y82550D01*
X165023Y82552D01*
X165198Y82609D01*
X165374Y82663D01*
X165389Y82671D01*
X165406Y82677D01*
X165566Y82767D01*
X165728Y82855D01*
X165741Y82866D01*
X165757Y82875D01*
X165896Y82995D01*
X166037Y83112D01*
X166048Y83126D01*
X166062Y83138D01*
X166174Y83283D01*
X166289Y83426D01*
X166297Y83442D01*
X166308Y83456D01*
X166390Y83621D01*
X166475Y83783D01*
X166480Y83800D01*
X166488Y83816D01*
X166535Y83995D01*
X166586Y84170D01*
X166588Y84188D01*
X166592Y84205D01*
X166619Y84536D01*
X166619Y92485D01*
X166617Y92512D01*
X166619Y92538D01*
X166597Y92712D01*
X166579Y92886D01*
X166572Y92911D01*
X166568Y92938D01*
X166513Y93103D01*
X166461Y93271D01*
X166448Y93294D01*
X166440Y93319D01*
X166353Y93471D01*
X166269Y93625D01*
X166252Y93645D01*
X166239Y93668D01*
X166024Y93921D01*
X161465Y98480D01*
X161445Y98497D01*
X161427Y98518D01*
X161289Y98625D01*
X161154Y98735D01*
X161130Y98748D01*
X161109Y98764D01*
X160952Y98842D01*
X160798Y98924D01*
X160773Y98932D01*
X160749Y98944D01*
X160579Y98989D01*
X160412Y99039D01*
X160386Y99041D01*
X160360Y99048D01*
X160029Y99075D01*
X149169Y99075D01*
X149160Y99074D01*
X149151Y99075D01*
X148961Y99055D01*
X148768Y99035D01*
X148760Y99033D01*
X148751Y99032D01*
X148567Y98974D01*
X148383Y98917D01*
X148375Y98913D01*
X148367Y98910D01*
X148198Y98817D01*
X148029Y98725D01*
X148022Y98720D01*
X148014Y98715D01*
X147868Y98591D01*
X147720Y98468D01*
X147714Y98461D01*
X147707Y98455D01*
X147588Y98304D01*
X147468Y98154D01*
X147463Y98146D01*
X147458Y98139D01*
X147370Y97966D01*
X147282Y97797D01*
X147280Y97788D01*
X147275Y97780D01*
X147224Y97593D01*
X147171Y97410D01*
X147170Y97401D01*
X147168Y97392D01*
X147153Y97198D01*
X147138Y97008D01*
X147139Y97000D01*
X147138Y96991D01*
X147162Y96799D01*
X147185Y96609D01*
X147187Y96600D01*
X147189Y96591D01*
X147250Y96409D01*
X147310Y96226D01*
X147314Y96218D01*
X147317Y96210D01*
X147413Y96042D01*
X147507Y95875D01*
X147513Y95868D01*
X147518Y95861D01*
X147732Y95608D01*
X148031Y95309D01*
X149071Y92799D01*
X149071Y90081D01*
X148031Y87571D01*
X146492Y86032D01*
X146487Y86025D01*
X146480Y86020D01*
X146360Y85870D01*
X146237Y85721D01*
X146233Y85713D01*
X146228Y85706D01*
X146138Y85533D01*
X146049Y85365D01*
X146046Y85356D01*
X146042Y85349D01*
X145989Y85164D01*
X145934Y84979D01*
X145933Y84970D01*
X145931Y84962D01*
X145915Y84769D01*
X145898Y84578D01*
X145898Y84569D01*
X145898Y84560D01*
X145920Y84371D01*
X145941Y84178D01*
X145944Y84169D01*
X145945Y84161D01*
X146004Y83978D01*
X146062Y83794D01*
X146067Y83786D01*
X146070Y83778D01*
X146164Y83611D01*
X146257Y83442D01*
X146263Y83435D01*
X146267Y83427D01*
X146393Y83282D01*
X146518Y83135D01*
X146525Y83129D01*
X146531Y83122D01*
X146681Y83006D01*
X146834Y82885D01*
X146842Y82881D01*
X146849Y82876D01*
X147020Y82790D01*
X147193Y82703D01*
X147201Y82700D01*
X147209Y82696D01*
X147395Y82646D01*
X147580Y82595D01*
X147589Y82594D01*
X147598Y82592D01*
X147929Y82565D01*
X151296Y82565D01*
X151323Y82567D01*
X151350Y82565D01*
X151523Y82587D01*
X151697Y82605D01*
X151722Y82612D01*
X151749Y82616D01*
X151915Y82671D01*
X152082Y82723D01*
X152105Y82736D01*
X152131Y82744D01*
X152282Y82831D01*
X152436Y82915D01*
X152456Y82932D01*
X152480Y82945D01*
X152598Y83045D01*
X153225Y83408D01*
X153871Y83581D01*
X154175Y83581D01*
X154175Y76040D01*
X154175Y68499D01*
X153872Y68499D01*
X153688Y68549D01*
X153607Y68562D01*
X153528Y68585D01*
X153408Y68594D01*
X153290Y68614D01*
X153208Y68611D01*
X153126Y68617D01*
X153008Y68603D01*
X152888Y68599D01*
X152808Y68580D01*
X152727Y68571D01*
X152613Y68533D01*
X152496Y68506D01*
X152422Y68471D01*
X152344Y68446D01*
X152240Y68387D01*
X152131Y68337D01*
X152065Y68288D01*
X151993Y68248D01*
X151903Y68170D01*
X151806Y68099D01*
X151751Y68038D01*
X151688Y67985D01*
X151615Y67890D01*
X151534Y67802D01*
X151492Y67731D01*
X151442Y67667D01*
X151388Y67560D01*
X151327Y67457D01*
X151299Y67380D01*
X151262Y67306D01*
X151231Y67190D01*
X151191Y67078D01*
X151179Y66997D01*
X151158Y66917D01*
X151145Y66765D01*
X151133Y66679D01*
X151135Y66639D01*
X151131Y66586D01*
X151131Y38724D01*
X151133Y38697D01*
X151131Y38671D01*
X151153Y38497D01*
X151171Y38323D01*
X151178Y38298D01*
X151182Y38271D01*
X151238Y38105D01*
X151289Y37938D01*
X151301Y37915D01*
X151310Y37889D01*
X151397Y37738D01*
X151481Y37584D01*
X151498Y37564D01*
X151511Y37541D01*
X151726Y37288D01*
X151982Y37032D01*
X151989Y37026D01*
X151994Y37019D01*
X152145Y36898D01*
X152293Y36776D01*
X152301Y36772D01*
X152308Y36767D01*
X152478Y36678D01*
X152649Y36588D01*
X152657Y36585D01*
X152665Y36581D01*
X152850Y36528D01*
X153035Y36473D01*
X153044Y36472D01*
X153052Y36470D01*
X153244Y36454D01*
X153436Y36437D01*
X153445Y36438D01*
X153454Y36437D01*
X153644Y36459D01*
X153836Y36480D01*
X153844Y36483D01*
X153853Y36484D01*
X154037Y36544D01*
X154220Y36601D01*
X154228Y36606D01*
X154236Y36609D01*
X154405Y36704D01*
X154572Y36796D01*
X154579Y36802D01*
X154587Y36806D01*
X154734Y36933D01*
X154879Y37057D01*
X154885Y37064D01*
X154892Y37070D01*
X155010Y37222D01*
X155129Y37373D01*
X155133Y37381D01*
X155138Y37388D01*
X155224Y37560D01*
X155311Y37732D01*
X155314Y37740D01*
X155318Y37748D01*
X155368Y37935D01*
X155419Y38119D01*
X155420Y38128D01*
X155422Y38137D01*
X155449Y38468D01*
X155449Y39931D01*
X161241Y39931D01*
X161241Y33139D01*
X160778Y33139D01*
X160769Y33138D01*
X160760Y33139D01*
X160567Y33118D01*
X160377Y33099D01*
X160369Y33097D01*
X160360Y33096D01*
X160175Y33037D01*
X159992Y32981D01*
X159984Y32977D01*
X159976Y32974D01*
X159808Y32881D01*
X159638Y32789D01*
X159631Y32784D01*
X159624Y32779D01*
X159476Y32655D01*
X159329Y32532D01*
X159323Y32525D01*
X159317Y32519D01*
X159197Y32367D01*
X159077Y32218D01*
X159072Y32210D01*
X159067Y32203D01*
X158979Y32030D01*
X158891Y31861D01*
X158889Y31852D01*
X158885Y31844D01*
X158833Y31658D01*
X158780Y31474D01*
X158779Y31465D01*
X158777Y31456D01*
X158762Y31260D01*
X158747Y31072D01*
X158748Y31064D01*
X158747Y31055D01*
X158771Y30862D01*
X158794Y30673D01*
X158796Y30664D01*
X158798Y30655D01*
X158859Y30472D01*
X158919Y30290D01*
X158923Y30282D01*
X158926Y30274D01*
X159022Y30107D01*
X159116Y29939D01*
X159122Y29932D01*
X159127Y29925D01*
X159341Y29672D01*
X162131Y26882D01*
X162148Y26868D01*
X162163Y26851D01*
X162304Y26741D01*
X162443Y26627D01*
X162462Y26617D01*
X162480Y26603D01*
X162641Y26522D01*
X162798Y26438D01*
X162820Y26432D01*
X162840Y26422D01*
X163013Y26375D01*
X163184Y26324D01*
X163206Y26322D01*
X163228Y26316D01*
X163407Y26303D01*
X163585Y26287D01*
X163607Y26290D01*
X163630Y26288D01*
X163807Y26311D01*
X163985Y26331D01*
X164007Y26337D01*
X164029Y26340D01*
X164345Y26442D01*
X166737Y27433D01*
X171083Y27433D01*
X175097Y25770D01*
X178170Y22697D01*
X179200Y20211D01*
X179242Y20133D01*
X179275Y20050D01*
X179336Y19956D01*
X179390Y19856D01*
X179446Y19788D01*
X179495Y19714D01*
X179574Y19633D01*
X179646Y19546D01*
X179715Y19490D01*
X179777Y19427D01*
X179871Y19363D01*
X179959Y19292D01*
X180037Y19251D01*
X180111Y19201D01*
X180215Y19158D01*
X180315Y19105D01*
X180400Y19080D01*
X180482Y19046D01*
X180593Y19024D01*
X180702Y18992D01*
X180790Y18984D01*
X180877Y18967D01*
X180990Y18967D01*
X181103Y18957D01*
X181191Y18967D01*
X181280Y18967D01*
X181391Y18990D01*
X181254Y18945D01*
X181078Y18891D01*
X181063Y18883D01*
X181046Y18877D01*
X180886Y18787D01*
X180724Y18699D01*
X180711Y18688D01*
X180695Y18679D01*
X180556Y18559D01*
X180415Y18442D01*
X180404Y18428D01*
X180390Y18416D01*
X180278Y18271D01*
X180163Y18128D01*
X180155Y18112D01*
X180144Y18098D01*
X180062Y17933D01*
X179977Y17771D01*
X179972Y17754D01*
X179964Y17738D01*
X179917Y17559D01*
X179866Y17384D01*
X179864Y17366D01*
X179860Y17349D01*
X179833Y17018D01*
X179833Y16002D01*
X179835Y15984D01*
X179833Y15966D01*
X179854Y15784D01*
X179873Y15601D01*
X179878Y15584D01*
X179880Y15567D01*
X179937Y15392D01*
X179991Y15216D01*
X179999Y15201D01*
X180005Y15184D01*
X180095Y15024D01*
X180183Y14862D01*
X180194Y14849D01*
X180203Y14833D01*
X180323Y14694D01*
X180440Y14553D01*
X180454Y14542D01*
X180466Y14528D01*
X180611Y14416D01*
X180754Y14301D01*
X180770Y14293D01*
X180784Y14282D01*
X180949Y14200D01*
X181111Y14115D01*
X181128Y14110D01*
X181144Y14102D01*
X181323Y14054D01*
X181498Y14004D01*
X181516Y14002D01*
X181533Y13998D01*
X181864Y13971D01*
X193802Y13971D01*
X193820Y13972D01*
G37*
%LPC*%
G36*
X396278Y121105D02*
X396278Y121105D01*
X395385Y121998D01*
X395385Y143262D01*
X396278Y144155D01*
X422542Y144155D01*
X423435Y143262D01*
X423435Y121998D01*
X422542Y121105D01*
X396278Y121105D01*
G37*
%LPD*%
%LPC*%
G36*
X396278Y31105D02*
X396278Y31105D01*
X395385Y31998D01*
X395385Y53262D01*
X396278Y54155D01*
X422542Y54155D01*
X423435Y53262D01*
X423435Y31998D01*
X422542Y31105D01*
X396278Y31105D01*
G37*
%LPD*%
%LPC*%
G36*
X287855Y107671D02*
X287855Y107671D01*
X287209Y107844D01*
X286630Y108178D01*
X286068Y108740D01*
X286054Y108751D01*
X286043Y108765D01*
X285898Y108879D01*
X285756Y108995D01*
X285741Y109004D01*
X285727Y109015D01*
X285562Y109098D01*
X285401Y109184D01*
X285384Y109189D01*
X285368Y109197D01*
X285190Y109246D01*
X285015Y109299D01*
X284997Y109300D01*
X284980Y109305D01*
X284797Y109318D01*
X284614Y109335D01*
X284596Y109333D01*
X284578Y109334D01*
X284396Y109311D01*
X284214Y109292D01*
X284197Y109286D01*
X284179Y109284D01*
X284005Y109226D01*
X283830Y109170D01*
X283814Y109161D01*
X283797Y109156D01*
X283638Y109064D01*
X283477Y108975D01*
X283464Y108964D01*
X283448Y108955D01*
X283195Y108740D01*
X283142Y108687D01*
X277878Y108687D01*
X276946Y109619D01*
X276933Y109630D01*
X276921Y109644D01*
X276777Y109758D01*
X276635Y109874D01*
X276619Y109882D01*
X276605Y109893D01*
X276441Y109977D01*
X276279Y110062D01*
X276262Y110067D01*
X276246Y110076D01*
X276069Y110125D01*
X275893Y110177D01*
X275875Y110179D01*
X275858Y110184D01*
X275675Y110197D01*
X275492Y110214D01*
X275474Y110212D01*
X275457Y110213D01*
X275275Y110190D01*
X275092Y110170D01*
X275075Y110165D01*
X275057Y110162D01*
X274883Y110104D01*
X274708Y110049D01*
X274692Y110040D01*
X274676Y110034D01*
X274517Y109943D01*
X274356Y109854D01*
X274342Y109842D01*
X274327Y109833D01*
X274074Y109619D01*
X273142Y108687D01*
X267878Y108687D01*
X266985Y109580D01*
X266985Y125843D01*
X267878Y126736D01*
X273142Y126736D01*
X274074Y125804D01*
X274087Y125793D01*
X274099Y125779D01*
X274244Y125665D01*
X274385Y125549D01*
X274401Y125540D01*
X274415Y125529D01*
X274579Y125446D01*
X274741Y125360D01*
X274758Y125355D01*
X274774Y125347D01*
X274951Y125298D01*
X275127Y125245D01*
X275145Y125244D01*
X275162Y125239D01*
X275345Y125226D01*
X275528Y125209D01*
X275546Y125211D01*
X275563Y125210D01*
X275745Y125233D01*
X275928Y125252D01*
X275945Y125258D01*
X275963Y125260D01*
X276136Y125318D01*
X276312Y125374D01*
X276328Y125383D01*
X276344Y125388D01*
X276503Y125480D01*
X276664Y125569D01*
X276678Y125580D01*
X276693Y125589D01*
X276946Y125804D01*
X277878Y126736D01*
X283142Y126736D01*
X283195Y126682D01*
X283209Y126671D01*
X283221Y126657D01*
X283365Y126544D01*
X283507Y126427D01*
X283523Y126419D01*
X283537Y126408D01*
X283700Y126325D01*
X283862Y126239D01*
X283880Y126233D01*
X283896Y126225D01*
X284072Y126176D01*
X284248Y126124D01*
X284266Y126122D01*
X284283Y126117D01*
X284466Y126104D01*
X284649Y126087D01*
X284667Y126089D01*
X284685Y126088D01*
X284867Y126111D01*
X285050Y126131D01*
X285067Y126136D01*
X285084Y126138D01*
X285258Y126197D01*
X285433Y126252D01*
X285449Y126261D01*
X285466Y126267D01*
X285626Y126359D01*
X285786Y126447D01*
X285799Y126459D01*
X285815Y126468D01*
X286068Y126682D01*
X286630Y127244D01*
X287209Y127579D01*
X287855Y127752D01*
X288159Y127752D01*
X288159Y117712D01*
X288159Y117711D01*
X288159Y107671D01*
X287855Y107671D01*
G37*
%LPD*%
%LPC*%
G36*
X378117Y103129D02*
X378117Y103129D01*
X375728Y104119D01*
X373899Y105948D01*
X373359Y107252D01*
X373357Y107256D01*
X373355Y107260D01*
X373262Y107433D01*
X373168Y107607D01*
X373166Y107611D01*
X373163Y107614D01*
X373040Y107763D01*
X372912Y107917D01*
X372909Y107920D01*
X372906Y107924D01*
X372858Y107962D01*
X372863Y107999D01*
X372882Y108070D01*
X372896Y108240D01*
X372908Y108326D01*
X372906Y108359D01*
X372909Y108401D01*
X372909Y110923D01*
X373899Y113312D01*
X375728Y115141D01*
X377581Y115909D01*
X378117Y116131D01*
X380703Y116131D01*
X383092Y115141D01*
X384921Y113312D01*
X385911Y110923D01*
X385911Y108337D01*
X384921Y105948D01*
X383092Y104119D01*
X380703Y103129D01*
X378117Y103129D01*
G37*
%LPD*%
%LPC*%
G36*
X378117Y59129D02*
X378117Y59129D01*
X375728Y60119D01*
X373899Y61948D01*
X372909Y64337D01*
X372909Y66923D01*
X373899Y69312D01*
X375728Y71141D01*
X375921Y71221D01*
X378117Y72131D01*
X380703Y72131D01*
X383092Y71141D01*
X384921Y69312D01*
X385911Y66923D01*
X385911Y64337D01*
X384921Y61948D01*
X383092Y60119D01*
X380703Y59129D01*
X378117Y59129D01*
G37*
%LPD*%
%LPC*%
G36*
X318514Y157265D02*
X318514Y157265D01*
X316727Y157846D01*
X315053Y158699D01*
X313532Y159804D01*
X312204Y161132D01*
X311099Y162653D01*
X310420Y163986D01*
X310392Y164029D01*
X310371Y164076D01*
X310284Y164198D01*
X310202Y164325D01*
X310167Y164361D01*
X310137Y164403D01*
X310027Y164506D01*
X309922Y164614D01*
X309880Y164643D01*
X309843Y164678D01*
X309715Y164757D01*
X309591Y164842D01*
X309544Y164863D01*
X309500Y164889D01*
X309359Y164942D01*
X309221Y165001D01*
X309171Y165011D01*
X309123Y165029D01*
X308974Y165053D01*
X308827Y165083D01*
X308776Y165084D01*
X308725Y165092D01*
X308574Y165085D01*
X308424Y165086D01*
X308374Y165077D01*
X308323Y165075D01*
X308176Y165038D01*
X308029Y165010D01*
X307982Y164991D01*
X307932Y164978D01*
X307796Y164914D01*
X307656Y164857D01*
X307614Y164829D01*
X307567Y164807D01*
X307447Y164717D01*
X307321Y164634D01*
X307285Y164597D01*
X307244Y164567D01*
X307143Y164456D01*
X307037Y164349D01*
X307009Y164306D01*
X306974Y164268D01*
X306853Y164072D01*
X306814Y164013D01*
X306809Y164000D01*
X306800Y163986D01*
X306121Y162653D01*
X305016Y161132D01*
X303688Y159804D01*
X302167Y158699D01*
X300493Y157846D01*
X298706Y157265D01*
X298449Y157225D01*
X298449Y166371D01*
X318771Y166371D01*
X318771Y157225D01*
X318514Y157265D01*
G37*
%LPD*%
%LPC*%
G36*
X56069Y65209D02*
X56069Y65209D01*
X56069Y75251D01*
X60405Y75251D01*
X61051Y75078D01*
X61630Y74743D01*
X62103Y74270D01*
X62438Y73691D01*
X62611Y73045D01*
X62611Y65209D01*
X56069Y65209D01*
G37*
%LPD*%
%LPC*%
G36*
X420309Y166559D02*
X420309Y166559D01*
X420309Y173101D01*
X428145Y173101D01*
X428791Y172928D01*
X429370Y172593D01*
X429843Y172120D01*
X430178Y171541D01*
X430351Y170895D01*
X430351Y166559D01*
X420309Y166559D01*
G37*
%LPD*%
%LPC*%
G36*
X402269Y166559D02*
X402269Y166559D01*
X402269Y170895D01*
X402442Y171541D01*
X402777Y172120D01*
X403250Y172593D01*
X403829Y172928D01*
X404475Y173101D01*
X412311Y173101D01*
X412311Y166559D01*
X402269Y166559D01*
G37*
%LPD*%
%LPC*%
G36*
X56069Y47169D02*
X56069Y47169D01*
X56069Y57211D01*
X62611Y57211D01*
X62611Y49375D01*
X62438Y48729D01*
X62103Y48150D01*
X61630Y47677D01*
X61051Y47342D01*
X60405Y47169D01*
X56069Y47169D01*
G37*
%LPD*%
%LPC*%
G36*
X420309Y152019D02*
X420309Y152019D01*
X420309Y158561D01*
X430351Y158561D01*
X430351Y154225D01*
X430178Y153579D01*
X429843Y153000D01*
X429370Y152527D01*
X428791Y152192D01*
X428145Y152019D01*
X420309Y152019D01*
G37*
%LPD*%
%LPC*%
G36*
X43735Y47169D02*
X43735Y47169D01*
X43089Y47342D01*
X42510Y47677D01*
X42037Y48150D01*
X41702Y48729D01*
X41529Y49375D01*
X41529Y57211D01*
X48071Y57211D01*
X48071Y47169D01*
X43735Y47169D01*
G37*
%LPD*%
%LPC*%
G36*
X404475Y152019D02*
X404475Y152019D01*
X403829Y152192D01*
X403250Y152527D01*
X402777Y153000D01*
X402442Y153579D01*
X402269Y154225D01*
X402269Y158561D01*
X412311Y158561D01*
X412311Y152019D01*
X404475Y152019D01*
G37*
%LPD*%
%LPC*%
G36*
X181588Y19030D02*
X181588Y19030D01*
X181674Y19047D01*
X181779Y19091D01*
X181886Y19126D01*
X181964Y19169D01*
X182046Y19203D01*
X182139Y19267D01*
X182238Y19322D01*
X182305Y19380D01*
X182379Y19430D01*
X182458Y19510D01*
X182544Y19584D01*
X182598Y19654D01*
X182660Y19717D01*
X182722Y19812D01*
X182792Y19901D01*
X182832Y19980D01*
X182880Y20055D01*
X182935Y20185D01*
X182973Y20261D01*
X182985Y20305D01*
X183008Y20361D01*
X183246Y21093D01*
X184099Y22767D01*
X185204Y24288D01*
X186532Y25616D01*
X188053Y26721D01*
X189727Y27574D01*
X191514Y28155D01*
X191771Y28195D01*
X191771Y19049D01*
X181864Y19049D01*
X181846Y19047D01*
X181828Y19049D01*
X181646Y19028D01*
X181552Y19018D01*
X181588Y19030D01*
G37*
%LPD*%
%LPC*%
G36*
X323849Y166371D02*
X323849Y166371D01*
X332995Y166371D01*
X332955Y166114D01*
X332374Y164327D01*
X331521Y162653D01*
X330416Y161132D01*
X329088Y159804D01*
X327567Y158699D01*
X325893Y157846D01*
X324106Y157265D01*
X323849Y157225D01*
X323849Y166371D01*
G37*
%LPD*%
%LPC*%
G36*
X356441Y105661D02*
X356441Y105661D01*
X356441Y108671D01*
X367245Y108671D01*
X367891Y108498D01*
X368470Y108163D01*
X368943Y107690D01*
X369119Y107386D01*
X369162Y107326D01*
X369197Y107262D01*
X369279Y107163D01*
X369354Y107059D01*
X369407Y107009D01*
X369454Y106952D01*
X369506Y106911D01*
X369479Y106814D01*
X369479Y106810D01*
X369478Y106806D01*
X369451Y106475D01*
X369451Y105661D01*
X356441Y105661D01*
G37*
%LPD*%
%LPC*%
G36*
X339369Y105661D02*
X339369Y105661D01*
X339369Y106465D01*
X339542Y107111D01*
X339877Y107690D01*
X340350Y108163D01*
X340929Y108498D01*
X341575Y108671D01*
X352379Y108671D01*
X352379Y105661D01*
X339369Y105661D01*
G37*
%LPD*%
%LPC*%
G36*
X423399Y18239D02*
X423399Y18239D01*
X423399Y23781D01*
X426735Y23781D01*
X427381Y23608D01*
X427960Y23273D01*
X428433Y22800D01*
X428768Y22221D01*
X428941Y21575D01*
X428941Y18239D01*
X423399Y18239D01*
G37*
%LPD*%
%LPC*%
G36*
X411859Y18239D02*
X411859Y18239D01*
X411859Y21575D01*
X412032Y22221D01*
X412367Y22800D01*
X412840Y23273D01*
X413419Y23608D01*
X414065Y23781D01*
X417401Y23781D01*
X417401Y18239D01*
X411859Y18239D01*
G37*
%LPD*%
%LPC*%
G36*
X423399Y6699D02*
X423399Y6699D01*
X423399Y12241D01*
X428941Y12241D01*
X428941Y8905D01*
X428768Y8259D01*
X428433Y7680D01*
X427960Y7207D01*
X427381Y6872D01*
X426735Y6699D01*
X423399Y6699D01*
G37*
%LPD*%
%LPC*%
G36*
X414065Y6699D02*
X414065Y6699D01*
X413419Y6872D01*
X412840Y7207D01*
X412367Y7680D01*
X412032Y8259D01*
X411859Y8905D01*
X411859Y12241D01*
X417401Y12241D01*
X417401Y6699D01*
X414065Y6699D01*
G37*
%LPD*%
D10*
X176018Y76040D03*
X169414Y76040D03*
X162810Y75980D03*
X156206Y76040D03*
X149602Y76040D03*
X142998Y76040D03*
X136394Y76040D03*
X129790Y76040D03*
X123186Y76040D03*
X116582Y76040D03*
X116582Y134460D03*
X123186Y134460D03*
X129790Y134460D03*
X136394Y134460D03*
X142998Y134460D03*
X149602Y134460D03*
X156206Y134460D03*
X162810Y134520D03*
X169414Y134460D03*
X176018Y134460D03*
D11*
X83820Y84480D03*
X83820Y103480D03*
D12*
X52070Y61210D03*
X52070Y124210D03*
D13*
X183490Y43180D03*
X164490Y43180D03*
D14*
X420400Y15240D03*
X399400Y15240D03*
D13*
X377700Y14560D03*
X358700Y14560D03*
D15*
X354410Y87630D03*
X354410Y79630D03*
X354410Y103630D03*
X354410Y95630D03*
D16*
X409410Y132630D03*
X409410Y42630D03*
X354410Y132630D03*
X354410Y42630D03*
D15*
X354410Y71630D03*
D17*
X310510Y117711D03*
X290190Y117711D03*
X300510Y117711D03*
X280510Y117711D03*
X270510Y117711D03*
X270510Y67709D03*
X280510Y67709D03*
X290190Y67709D03*
X300510Y67709D03*
X310510Y67709D03*
D18*
X16510Y143510D03*
X16510Y118110D03*
X16510Y92710D03*
X16510Y67310D03*
X16510Y41910D03*
D19*
X202184Y119380D03*
X194056Y119380D03*
X202184Y91440D03*
X194056Y91440D03*
D18*
X41910Y168910D03*
X67310Y168910D03*
X92710Y168910D03*
X118110Y168910D03*
X143510Y168910D03*
X168910Y168910D03*
X194310Y168910D03*
X219710Y168910D03*
X245110Y168910D03*
X270510Y168910D03*
X270510Y16510D03*
X245110Y16510D03*
X219710Y16510D03*
X194310Y16510D03*
X168910Y16510D03*
X143510Y16510D03*
X118110Y16510D03*
X92710Y16510D03*
X67310Y16510D03*
X41910Y16510D03*
X295910Y16510D03*
X321310Y16510D03*
X295910Y168910D03*
X321310Y168910D03*
D20*
X416310Y162560D03*
X353310Y162560D03*
D19*
X228346Y119380D03*
X236474Y119380D03*
D14*
X232070Y53340D03*
X253070Y53340D03*
D13*
X252070Y71120D03*
X233070Y71120D03*
D19*
X228346Y91440D03*
X236474Y91440D03*
D21*
X343090Y103630D02*
X354410Y103630D01*
X343090Y103630D02*
X315640Y131080D01*
D22*
X383220Y87630D03*
D21*
X383220Y91214D01*
X370407Y104027D01*
X354807Y104027D01*
X354410Y103630D01*
X290190Y117711D02*
X290190Y125730D01*
X290190Y117711D02*
X290190Y108900D01*
X282890Y101600D02*
X265110Y101600D01*
X265110Y100330D01*
D22*
X265110Y100330D03*
D21*
X282890Y101600D02*
X290190Y108900D01*
X290190Y125730D02*
X295540Y131080D01*
X315640Y131080D01*
D22*
X80010Y67310D03*
D23*
X156206Y69871D02*
X156206Y76040D01*
D24*
X156206Y91436D01*
X156210Y91440D01*
D22*
X156210Y91440D03*
D23*
X156206Y69871D02*
X154460Y68125D01*
X154460Y55090D01*
X164490Y45060D02*
X164490Y43180D01*
X164490Y45060D02*
X154460Y55090D01*
X189890Y16510D02*
X194310Y16510D01*
X164490Y41910D02*
X164490Y43180D01*
X164490Y41910D02*
X189890Y16510D01*
D24*
X52070Y61210D02*
X52070Y67310D01*
D23*
X80010Y67310D01*
D24*
X407670Y87630D02*
X430530Y64770D01*
X407670Y87630D02*
X397510Y87630D01*
D22*
X215999Y62230D03*
X397510Y87630D03*
X384810Y138430D03*
X397510Y113030D03*
X410210Y100330D03*
X422910Y87630D03*
X422910Y113030D03*
X422910Y62230D03*
X410210Y74930D03*
X397510Y62230D03*
X384810Y36830D03*
D24*
X232070Y53340D02*
X223180Y53340D01*
X215999Y60521D02*
X215999Y62230D01*
X215999Y60521D02*
X223180Y53340D01*
X420400Y15240D02*
X430530Y25370D01*
X430530Y64770D01*
X416310Y162560D02*
X401320Y162560D01*
X386080Y147320D01*
X386080Y139700D01*
X384810Y138430D01*
D23*
X20546Y96746D02*
X16510Y92710D01*
X20546Y96746D02*
X41350Y96746D01*
X52070Y86026D01*
X52070Y67310D01*
D22*
X41910Y144780D03*
D24*
X130266Y141782D02*
X130266Y134460D01*
X129790Y134460D01*
X130266Y141782D02*
X117108Y154940D01*
X106680Y154940D01*
X92710Y168910D01*
X162810Y63250D02*
X163830Y62230D01*
D22*
X163830Y62230D03*
D24*
X162810Y63250D02*
X162810Y75980D01*
X136394Y34794D02*
X118110Y16510D01*
X129874Y87630D02*
X86970Y87630D01*
X83820Y84480D01*
X82550Y85750D01*
X81640Y85750D01*
X57150Y110240D01*
X52070Y124210D02*
X40890Y124210D01*
X52070Y124210D02*
X57150Y119130D01*
X57150Y110240D01*
X136394Y76040D02*
X136394Y34794D01*
X136394Y76040D02*
X135124Y77310D01*
X135124Y82380D01*
X129874Y87630D01*
X21590Y143510D02*
X16510Y143510D01*
X21590Y143510D02*
X40890Y124210D01*
X398720Y14560D02*
X399400Y15240D01*
X398720Y14560D02*
X377700Y14560D01*
X313526Y117711D02*
X310510Y117711D01*
X313526Y117711D02*
X321433Y109805D01*
X321433Y106114D01*
X339917Y87630D01*
X354410Y87630D01*
X300510Y112211D02*
X300510Y117711D01*
X300510Y112211D02*
X309876Y102845D01*
X317132Y102845D01*
X340348Y79630D01*
X354410Y79630D01*
X300510Y81440D02*
X300510Y67709D01*
X210820Y119380D02*
X202184Y119380D01*
X289466Y92484D02*
X300510Y81440D01*
X220980Y109220D02*
X210820Y119380D01*
X261860Y92484D02*
X289466Y92484D01*
X261860Y92484D02*
X245124Y109220D01*
X220980Y109220D01*
X290130Y67769D02*
X290190Y67709D01*
X290130Y67769D02*
X290130Y79120D01*
X202184Y91440D02*
X202184Y93980D01*
X204244Y96040D01*
X204244Y95960D01*
X211378Y103094D01*
X242116Y103149D02*
X260147Y85118D01*
X284132Y85118D01*
X290130Y79120D01*
X242116Y103149D02*
X211378Y103094D01*
D21*
X332290Y63370D02*
X332290Y45530D01*
X340550Y71630D02*
X354410Y71630D01*
X340550Y71630D02*
X332290Y63370D01*
D22*
X332290Y45530D03*
D21*
X284160Y54610D02*
X280510Y58260D01*
X284160Y54610D02*
X304480Y54610D01*
D23*
X169414Y94484D02*
X162028Y101870D01*
X175870Y50800D02*
X183490Y43180D01*
X175870Y50800D02*
X175870Y62890D01*
X169414Y69346D01*
D21*
X183490Y43180D02*
X214630Y43180D01*
X241300Y16510D01*
X245110Y16510D01*
D23*
X169414Y69346D02*
X169414Y76040D01*
X169414Y94484D01*
D22*
X71120Y116840D03*
D24*
X71120Y116180D01*
X83820Y103480D01*
D23*
X109300Y101870D02*
X162028Y101870D01*
X109300Y101870D02*
X93790Y117380D01*
D22*
X320040Y55880D03*
D21*
X317101Y67709D02*
X310510Y67709D01*
X320040Y64770D02*
X320040Y55880D01*
X320040Y64770D02*
X317101Y67709D01*
D24*
X320040Y55880D02*
X320040Y39370D01*
X344850Y14560D02*
X358700Y14560D01*
X344850Y14560D02*
X320040Y39370D01*
D21*
X245110Y24130D02*
X245110Y16510D01*
X245110Y24130D02*
X266700Y45720D01*
X308610Y45720D01*
X318770Y55880D01*
X320040Y55880D01*
X248380Y16510D02*
X245110Y16510D01*
X263874Y32004D02*
X280416Y32004D01*
X295910Y16510D01*
X263874Y32004D02*
X248380Y16510D01*
X310510Y60640D02*
X310510Y67709D01*
X310510Y60640D02*
X304480Y54610D01*
X280510Y58260D02*
X280510Y67709D01*
D22*
X36830Y80010D03*
D23*
X36830Y66040D01*
X16510Y45720D01*
X16510Y41910D01*
X72320Y117380D02*
X93790Y117380D01*
X72320Y117380D02*
X71120Y116180D01*
D24*
X118110Y168910D02*
X136394Y150626D01*
X136394Y134460D01*
D22*
X215900Y74930D03*
D24*
X215900Y78994D02*
X228346Y91440D01*
X215900Y78994D02*
X215900Y74930D01*
X142998Y134460D02*
X142998Y168398D01*
X143510Y168910D01*
X186690Y129540D02*
X222250Y129540D01*
X186690Y129540D02*
X180340Y123190D01*
X147696Y123190D01*
X228346Y123444D02*
X228346Y119380D01*
X228346Y123444D02*
X222250Y129540D01*
X143792Y133666D02*
X142998Y134460D01*
X143792Y133666D02*
X143792Y127094D01*
X147696Y123190D01*
X149602Y149602D02*
X168910Y168910D01*
X149602Y149602D02*
X149602Y134460D01*
X167132Y155702D02*
X178935Y155702D01*
X192143Y168910D02*
X194310Y168910D01*
X192143Y168910D02*
X178935Y155702D01*
X167132Y155702D02*
X156206Y144776D01*
X156206Y134460D01*
X200294Y149494D02*
X219710Y168910D01*
X200294Y149494D02*
X169537Y149494D01*
X162810Y142767D01*
X162810Y134520D01*
X220042Y143842D02*
X245110Y168910D01*
X220042Y143842D02*
X173089Y143842D01*
X169414Y140167D01*
X169414Y134460D01*
X238600Y137000D02*
X270510Y168910D01*
X238600Y137000D02*
X177288Y137000D01*
X176018Y135730D01*
X176018Y134460D01*
X105250Y76040D02*
X45720Y16510D01*
X41910Y16510D01*
X105250Y76040D02*
X116582Y76040D01*
X123186Y76040D02*
X123186Y67306D01*
X72390Y16510D01*
X67310Y16510D01*
X92710Y19050D02*
X129790Y56130D01*
X92710Y19050D02*
X92710Y16510D01*
X129790Y56130D02*
X129790Y76040D01*
X142240Y75282D02*
X142998Y76040D01*
X142240Y75282D02*
X142240Y17780D01*
X143510Y16510D01*
X142998Y76040D02*
X142998Y90682D01*
X142240Y91440D01*
D22*
X142240Y91440D03*
D24*
X149602Y76040D02*
X148590Y75028D01*
X148590Y36830D01*
X168910Y16510D01*
D22*
X239650Y38020D03*
D24*
X201418Y53180D02*
X179828Y74770D01*
X177288Y74770D01*
X176018Y76040D01*
X201418Y53180D02*
X214231Y53180D01*
X229391Y38020D02*
X239650Y38020D01*
X229391Y38020D02*
X214231Y53180D01*
X260604Y147320D02*
X334264Y147320D01*
X260604Y147320D02*
X236474Y123190D01*
X236474Y119380D01*
D22*
X334264Y147320D03*
D24*
X349504Y162560D01*
X353310Y162560D01*
X253340Y69850D02*
X252070Y71120D01*
X253340Y69850D02*
X253340Y53314D01*
X253070Y53340D01*
X236474Y74524D02*
X236474Y91440D01*
X236474Y74524D02*
X233070Y71120D01*
X194056Y91440D02*
X187960Y91440D01*
X168712Y110688D01*
X128270Y110688D01*
X76360Y134460D02*
X41910Y168910D01*
X76360Y134460D02*
X116582Y134460D01*
X124674Y114284D02*
X128270Y110688D01*
X124674Y114284D02*
X124527Y114284D01*
X116582Y122229D01*
X116582Y134460D01*
X132080Y116570D02*
X194056Y116570D01*
X194056Y119380D01*
X75827Y168910D02*
X67310Y168910D01*
X101227Y143510D02*
X119380Y143510D01*
X123186Y139704D01*
X123186Y134460D01*
X101227Y143510D02*
X75827Y168910D01*
X123186Y125464D02*
X132080Y116570D01*
X123186Y125464D02*
X123186Y134460D01*
M02*
