M48
;GenerationSoftware,Autodesk,EAGLE,9.6.1*%
;CreationDate,2024-08-31T13:04:14Z*%
FMAT,2
ICI,OFF
METRIC,TZ,000.000
T3C0.350
T2C0.900
T1C1.016
%
G90
M71
T1
X11811Y1651
X1651Y11811
X1651Y9271
X1651Y6731
X1651Y4191
X4191Y16891
X6731Y16891
X9271Y16891
X11811Y16891
X14351Y16891
X16891Y16891
X19431Y16891
X21971Y16891
X24511Y16891
X27051Y16891
X27051Y1651
X24511Y1651
X21971Y1651
X19431Y1651
X16891Y1651
X14351Y1651
X9271Y1651
X1651Y14351
X6731Y1651
X4191Y1651
X29591Y1651
X32131Y1651
X29591Y16891
X32131Y16891
T2
X37941Y6563
X37941Y10963
T3
X38322Y8763
X26511Y10033
X8001Y6731
X15621Y9144
X21600Y6223
X39751Y8763
X38481Y13843
X41021Y10033
X42291Y8763
X42291Y11303
X42291Y6223
X41021Y7493
X39751Y6223
X38481Y3683
X4191Y14478
X16383Y6223
X33229Y4553
X7112Y11684
X32004Y5588
X3683Y8001
X10414Y12619
X21590Y7493
X14224Y9144
X23965Y3802
X33426Y14732
X39751Y11303
X9368Y14778
M30