G04 EAGLE Gerber RS-274X export*
G75*
%MOMM*%
%FSLAX34Y34*%
%LPD*%
%INSilkscreen Bottom*%
%IPPOS*%
%AMOC8*
5,1,8,0,0,1.08239X$1,22.5*%
G01*
%ADD10C,0.076200*%
%ADD11C,0.203200*%
%ADD12C,0.200000*%
%ADD13C,0.100000*%


D10*
X51097Y37973D02*
X51097Y45339D01*
X49051Y45339D01*
X48962Y45337D01*
X48873Y45331D01*
X48784Y45321D01*
X48696Y45308D01*
X48608Y45291D01*
X48521Y45269D01*
X48436Y45244D01*
X48351Y45216D01*
X48268Y45183D01*
X48186Y45147D01*
X48106Y45108D01*
X48028Y45065D01*
X47952Y45019D01*
X47877Y44969D01*
X47805Y44916D01*
X47736Y44860D01*
X47669Y44801D01*
X47604Y44740D01*
X47543Y44675D01*
X47484Y44608D01*
X47428Y44539D01*
X47375Y44467D01*
X47325Y44392D01*
X47279Y44316D01*
X47236Y44238D01*
X47197Y44158D01*
X47161Y44076D01*
X47128Y43993D01*
X47100Y43908D01*
X47075Y43823D01*
X47053Y43736D01*
X47036Y43648D01*
X47023Y43560D01*
X47013Y43471D01*
X47007Y43382D01*
X47005Y43293D01*
X47007Y43204D01*
X47013Y43115D01*
X47023Y43026D01*
X47036Y42938D01*
X47053Y42850D01*
X47075Y42763D01*
X47100Y42678D01*
X47128Y42593D01*
X47161Y42510D01*
X47197Y42428D01*
X47236Y42348D01*
X47279Y42270D01*
X47325Y42194D01*
X47375Y42119D01*
X47428Y42047D01*
X47484Y41978D01*
X47543Y41911D01*
X47604Y41846D01*
X47669Y41785D01*
X47736Y41726D01*
X47805Y41670D01*
X47877Y41617D01*
X47952Y41567D01*
X48028Y41521D01*
X48106Y41478D01*
X48186Y41439D01*
X48268Y41403D01*
X48351Y41370D01*
X48436Y41342D01*
X48521Y41317D01*
X48608Y41295D01*
X48696Y41278D01*
X48784Y41265D01*
X48873Y41255D01*
X48962Y41249D01*
X49051Y41247D01*
X51097Y41247D01*
X48642Y41247D02*
X47005Y37973D01*
X41622Y37973D02*
X41544Y37975D01*
X41466Y37980D01*
X41389Y37990D01*
X41312Y38003D01*
X41236Y38019D01*
X41161Y38039D01*
X41087Y38063D01*
X41014Y38090D01*
X40942Y38121D01*
X40872Y38155D01*
X40804Y38192D01*
X40737Y38233D01*
X40672Y38277D01*
X40610Y38323D01*
X40550Y38373D01*
X40492Y38425D01*
X40437Y38480D01*
X40385Y38538D01*
X40335Y38598D01*
X40289Y38660D01*
X40245Y38725D01*
X40204Y38791D01*
X40167Y38860D01*
X40133Y38930D01*
X40102Y39002D01*
X40075Y39075D01*
X40051Y39149D01*
X40031Y39224D01*
X40015Y39300D01*
X40002Y39377D01*
X39992Y39454D01*
X39987Y39532D01*
X39985Y39610D01*
X41622Y37973D02*
X41736Y37975D01*
X41849Y37980D01*
X41963Y37990D01*
X42076Y38003D01*
X42188Y38020D01*
X42300Y38040D01*
X42411Y38064D01*
X42522Y38092D01*
X42631Y38123D01*
X42739Y38158D01*
X42846Y38197D01*
X42952Y38239D01*
X43056Y38284D01*
X43159Y38333D01*
X43260Y38386D01*
X43359Y38441D01*
X43457Y38500D01*
X43552Y38562D01*
X43645Y38627D01*
X43737Y38695D01*
X43825Y38766D01*
X43912Y38840D01*
X43996Y38917D01*
X44077Y38996D01*
X43872Y43702D02*
X43870Y43780D01*
X43865Y43858D01*
X43855Y43935D01*
X43842Y44012D01*
X43826Y44088D01*
X43806Y44163D01*
X43782Y44237D01*
X43755Y44310D01*
X43724Y44382D01*
X43690Y44452D01*
X43653Y44521D01*
X43612Y44587D01*
X43568Y44652D01*
X43522Y44714D01*
X43472Y44774D01*
X43420Y44832D01*
X43365Y44887D01*
X43307Y44939D01*
X43247Y44989D01*
X43185Y45035D01*
X43120Y45079D01*
X43054Y45120D01*
X42985Y45157D01*
X42915Y45191D01*
X42843Y45222D01*
X42770Y45249D01*
X42696Y45273D01*
X42621Y45293D01*
X42545Y45309D01*
X42468Y45322D01*
X42391Y45332D01*
X42313Y45337D01*
X42235Y45339D01*
X42125Y45337D01*
X42016Y45331D01*
X41906Y45321D01*
X41798Y45308D01*
X41689Y45290D01*
X41582Y45269D01*
X41475Y45243D01*
X41369Y45214D01*
X41264Y45182D01*
X41161Y45145D01*
X41059Y45105D01*
X40958Y45061D01*
X40859Y45013D01*
X40762Y44963D01*
X40667Y44908D01*
X40574Y44850D01*
X40483Y44789D01*
X40394Y44725D01*
X43054Y42269D02*
X43121Y42311D01*
X43186Y42355D01*
X43248Y42403D01*
X43308Y42453D01*
X43366Y42506D01*
X43421Y42562D01*
X43473Y42621D01*
X43523Y42681D01*
X43570Y42745D01*
X43613Y42810D01*
X43654Y42877D01*
X43691Y42946D01*
X43725Y43017D01*
X43756Y43089D01*
X43783Y43163D01*
X43807Y43237D01*
X43827Y43313D01*
X43843Y43390D01*
X43856Y43467D01*
X43866Y43545D01*
X43871Y43624D01*
X43873Y43702D01*
X40803Y41042D02*
X40737Y41001D01*
X40672Y40956D01*
X40610Y40909D01*
X40550Y40858D01*
X40492Y40805D01*
X40437Y40749D01*
X40384Y40691D01*
X40335Y40630D01*
X40288Y40567D01*
X40245Y40502D01*
X40204Y40435D01*
X40167Y40366D01*
X40133Y40295D01*
X40102Y40223D01*
X40075Y40149D01*
X40051Y40074D01*
X40031Y39999D01*
X40015Y39922D01*
X40002Y39845D01*
X39992Y39767D01*
X39987Y39688D01*
X39985Y39610D01*
X40803Y41042D02*
X43054Y42270D01*
X35447Y45339D02*
X35447Y37973D01*
X37493Y45339D02*
X33401Y45339D01*
X51619Y114173D02*
X51541Y114175D01*
X51463Y114180D01*
X51386Y114190D01*
X51309Y114203D01*
X51233Y114219D01*
X51158Y114239D01*
X51084Y114263D01*
X51011Y114290D01*
X50939Y114321D01*
X50869Y114355D01*
X50801Y114392D01*
X50734Y114433D01*
X50669Y114477D01*
X50607Y114523D01*
X50547Y114573D01*
X50489Y114625D01*
X50434Y114680D01*
X50382Y114738D01*
X50332Y114798D01*
X50286Y114860D01*
X50242Y114925D01*
X50201Y114991D01*
X50164Y115060D01*
X50130Y115130D01*
X50099Y115202D01*
X50072Y115275D01*
X50048Y115349D01*
X50028Y115424D01*
X50012Y115500D01*
X49999Y115577D01*
X49989Y115654D01*
X49984Y115732D01*
X49982Y115810D01*
X51619Y114173D02*
X51733Y114175D01*
X51846Y114180D01*
X51960Y114190D01*
X52073Y114203D01*
X52185Y114220D01*
X52297Y114240D01*
X52408Y114264D01*
X52519Y114292D01*
X52628Y114323D01*
X52736Y114358D01*
X52843Y114397D01*
X52949Y114439D01*
X53053Y114484D01*
X53156Y114533D01*
X53257Y114586D01*
X53356Y114641D01*
X53454Y114700D01*
X53549Y114762D01*
X53642Y114827D01*
X53734Y114895D01*
X53822Y114966D01*
X53909Y115040D01*
X53993Y115117D01*
X54074Y115196D01*
X53870Y119902D02*
X53868Y119980D01*
X53863Y120058D01*
X53853Y120135D01*
X53840Y120212D01*
X53824Y120288D01*
X53804Y120363D01*
X53780Y120437D01*
X53753Y120510D01*
X53722Y120582D01*
X53688Y120652D01*
X53651Y120721D01*
X53610Y120787D01*
X53566Y120852D01*
X53520Y120914D01*
X53470Y120974D01*
X53418Y121032D01*
X53363Y121087D01*
X53305Y121139D01*
X53245Y121189D01*
X53183Y121235D01*
X53118Y121279D01*
X53052Y121320D01*
X52983Y121357D01*
X52913Y121391D01*
X52841Y121422D01*
X52768Y121449D01*
X52694Y121473D01*
X52619Y121493D01*
X52543Y121509D01*
X52466Y121522D01*
X52389Y121532D01*
X52311Y121537D01*
X52233Y121539D01*
X52123Y121537D01*
X52014Y121531D01*
X51904Y121521D01*
X51796Y121508D01*
X51687Y121490D01*
X51580Y121469D01*
X51473Y121443D01*
X51367Y121414D01*
X51262Y121382D01*
X51159Y121345D01*
X51057Y121305D01*
X50956Y121261D01*
X50857Y121213D01*
X50760Y121163D01*
X50665Y121108D01*
X50572Y121050D01*
X50481Y120989D01*
X50392Y120925D01*
X53051Y118469D02*
X53118Y118511D01*
X53183Y118555D01*
X53245Y118603D01*
X53305Y118653D01*
X53363Y118706D01*
X53418Y118762D01*
X53470Y118821D01*
X53520Y118881D01*
X53567Y118945D01*
X53610Y119010D01*
X53651Y119077D01*
X53688Y119146D01*
X53722Y119217D01*
X53753Y119289D01*
X53780Y119363D01*
X53804Y119437D01*
X53824Y119513D01*
X53840Y119590D01*
X53853Y119667D01*
X53863Y119745D01*
X53868Y119824D01*
X53870Y119902D01*
X50801Y117242D02*
X50735Y117201D01*
X50670Y117156D01*
X50608Y117109D01*
X50548Y117058D01*
X50490Y117005D01*
X50435Y116949D01*
X50382Y116891D01*
X50333Y116830D01*
X50286Y116767D01*
X50243Y116702D01*
X50202Y116635D01*
X50165Y116566D01*
X50131Y116495D01*
X50100Y116423D01*
X50073Y116349D01*
X50049Y116274D01*
X50029Y116199D01*
X50013Y116122D01*
X50000Y116045D01*
X49990Y115967D01*
X49985Y115888D01*
X49983Y115810D01*
X50801Y117242D02*
X53051Y118470D01*
X47255Y121539D02*
X45618Y114173D01*
X43982Y119084D01*
X42345Y114173D01*
X40708Y121539D01*
X37493Y121539D02*
X37493Y114173D01*
X37493Y121539D02*
X35447Y121539D01*
X35358Y121537D01*
X35269Y121531D01*
X35180Y121521D01*
X35092Y121508D01*
X35004Y121491D01*
X34917Y121469D01*
X34832Y121444D01*
X34747Y121416D01*
X34664Y121383D01*
X34582Y121347D01*
X34502Y121308D01*
X34424Y121265D01*
X34348Y121219D01*
X34273Y121169D01*
X34201Y121116D01*
X34132Y121060D01*
X34065Y121001D01*
X34000Y120940D01*
X33939Y120875D01*
X33880Y120808D01*
X33824Y120739D01*
X33771Y120667D01*
X33721Y120592D01*
X33675Y120516D01*
X33632Y120438D01*
X33593Y120358D01*
X33557Y120276D01*
X33524Y120193D01*
X33496Y120108D01*
X33471Y120023D01*
X33449Y119936D01*
X33432Y119848D01*
X33419Y119760D01*
X33409Y119671D01*
X33403Y119582D01*
X33401Y119493D01*
X33401Y116219D01*
X33403Y116130D01*
X33409Y116041D01*
X33419Y115952D01*
X33432Y115864D01*
X33449Y115776D01*
X33471Y115689D01*
X33496Y115604D01*
X33524Y115519D01*
X33557Y115436D01*
X33593Y115354D01*
X33632Y115274D01*
X33675Y115196D01*
X33721Y115120D01*
X33771Y115045D01*
X33824Y114973D01*
X33880Y114904D01*
X33939Y114837D01*
X34000Y114772D01*
X34065Y114711D01*
X34132Y114652D01*
X34201Y114596D01*
X34273Y114543D01*
X34348Y114493D01*
X34424Y114447D01*
X34502Y114404D01*
X34582Y114365D01*
X34664Y114329D01*
X34747Y114296D01*
X34832Y114268D01*
X34917Y114243D01*
X35004Y114221D01*
X35092Y114204D01*
X35180Y114191D01*
X35269Y114181D01*
X35358Y114175D01*
X35447Y114173D01*
X37493Y114173D01*
X50078Y139573D02*
X52124Y139573D01*
X50078Y139573D02*
X49989Y139575D01*
X49900Y139581D01*
X49811Y139591D01*
X49723Y139604D01*
X49635Y139621D01*
X49548Y139643D01*
X49463Y139668D01*
X49378Y139696D01*
X49295Y139729D01*
X49213Y139765D01*
X49133Y139804D01*
X49055Y139847D01*
X48979Y139893D01*
X48904Y139943D01*
X48832Y139996D01*
X48763Y140052D01*
X48696Y140111D01*
X48631Y140172D01*
X48570Y140237D01*
X48511Y140304D01*
X48455Y140373D01*
X48402Y140445D01*
X48352Y140520D01*
X48306Y140596D01*
X48263Y140674D01*
X48224Y140754D01*
X48188Y140836D01*
X48155Y140919D01*
X48127Y141004D01*
X48102Y141089D01*
X48080Y141176D01*
X48063Y141264D01*
X48050Y141352D01*
X48040Y141441D01*
X48034Y141530D01*
X48032Y141619D01*
X48034Y141708D01*
X48040Y141797D01*
X48050Y141886D01*
X48063Y141974D01*
X48080Y142062D01*
X48102Y142149D01*
X48127Y142234D01*
X48155Y142319D01*
X48188Y142402D01*
X48224Y142484D01*
X48263Y142564D01*
X48306Y142642D01*
X48352Y142718D01*
X48402Y142793D01*
X48455Y142865D01*
X48511Y142934D01*
X48570Y143001D01*
X48631Y143066D01*
X48696Y143127D01*
X48763Y143186D01*
X48832Y143242D01*
X48904Y143295D01*
X48979Y143345D01*
X49055Y143391D01*
X49133Y143434D01*
X49213Y143473D01*
X49295Y143509D01*
X49378Y143542D01*
X49463Y143570D01*
X49548Y143595D01*
X49635Y143617D01*
X49723Y143634D01*
X49811Y143647D01*
X49900Y143657D01*
X49989Y143663D01*
X50078Y143665D01*
X49668Y146939D02*
X52124Y146939D01*
X49668Y146939D02*
X49589Y146937D01*
X49510Y146931D01*
X49431Y146922D01*
X49353Y146909D01*
X49276Y146891D01*
X49200Y146871D01*
X49125Y146846D01*
X49051Y146818D01*
X48978Y146787D01*
X48907Y146751D01*
X48838Y146713D01*
X48771Y146671D01*
X48706Y146626D01*
X48643Y146578D01*
X48582Y146527D01*
X48525Y146473D01*
X48469Y146417D01*
X48417Y146358D01*
X48367Y146296D01*
X48321Y146232D01*
X48277Y146166D01*
X48237Y146098D01*
X48201Y146028D01*
X48167Y145956D01*
X48137Y145882D01*
X48111Y145808D01*
X48088Y145732D01*
X48070Y145655D01*
X48054Y145578D01*
X48043Y145499D01*
X48035Y145421D01*
X48031Y145342D01*
X48031Y145262D01*
X48035Y145183D01*
X48043Y145105D01*
X48054Y145026D01*
X48070Y144949D01*
X48088Y144872D01*
X48111Y144796D01*
X48137Y144722D01*
X48167Y144648D01*
X48201Y144576D01*
X48237Y144506D01*
X48277Y144438D01*
X48321Y144372D01*
X48367Y144308D01*
X48417Y144246D01*
X48469Y144187D01*
X48525Y144131D01*
X48582Y144077D01*
X48643Y144026D01*
X48706Y143978D01*
X48771Y143933D01*
X48838Y143891D01*
X48907Y143853D01*
X48978Y143817D01*
X49051Y143786D01*
X49125Y143758D01*
X49200Y143733D01*
X49276Y143713D01*
X49353Y143695D01*
X49431Y143682D01*
X49510Y143673D01*
X49589Y143667D01*
X49668Y143665D01*
X51305Y143665D01*
X45218Y146939D02*
X42762Y139573D01*
X40307Y146939D01*
X37493Y139573D02*
X35447Y139573D01*
X35358Y139575D01*
X35269Y139581D01*
X35180Y139591D01*
X35092Y139604D01*
X35004Y139621D01*
X34917Y139643D01*
X34832Y139668D01*
X34747Y139696D01*
X34664Y139729D01*
X34582Y139765D01*
X34502Y139804D01*
X34424Y139847D01*
X34348Y139893D01*
X34273Y139943D01*
X34201Y139996D01*
X34132Y140052D01*
X34065Y140111D01*
X34000Y140172D01*
X33939Y140237D01*
X33880Y140304D01*
X33824Y140373D01*
X33771Y140445D01*
X33721Y140520D01*
X33675Y140596D01*
X33632Y140674D01*
X33593Y140754D01*
X33557Y140836D01*
X33524Y140919D01*
X33496Y141004D01*
X33471Y141089D01*
X33449Y141176D01*
X33432Y141264D01*
X33419Y141352D01*
X33409Y141441D01*
X33403Y141530D01*
X33401Y141619D01*
X33403Y141708D01*
X33409Y141797D01*
X33419Y141886D01*
X33432Y141974D01*
X33449Y142062D01*
X33471Y142149D01*
X33496Y142234D01*
X33524Y142319D01*
X33557Y142402D01*
X33593Y142484D01*
X33632Y142564D01*
X33675Y142642D01*
X33721Y142718D01*
X33771Y142793D01*
X33824Y142865D01*
X33880Y142934D01*
X33939Y143001D01*
X34000Y143066D01*
X34065Y143127D01*
X34132Y143186D01*
X34201Y143242D01*
X34273Y143295D01*
X34348Y143345D01*
X34424Y143391D01*
X34502Y143434D01*
X34582Y143473D01*
X34664Y143509D01*
X34747Y143542D01*
X34832Y143570D01*
X34917Y143595D01*
X35004Y143617D01*
X35092Y143634D01*
X35180Y143647D01*
X35269Y143657D01*
X35358Y143663D01*
X35447Y143665D01*
X35038Y146939D02*
X37493Y146939D01*
X35038Y146939D02*
X34959Y146937D01*
X34880Y146931D01*
X34801Y146922D01*
X34723Y146909D01*
X34646Y146891D01*
X34570Y146871D01*
X34495Y146846D01*
X34421Y146818D01*
X34348Y146787D01*
X34277Y146751D01*
X34208Y146713D01*
X34141Y146671D01*
X34076Y146626D01*
X34013Y146578D01*
X33952Y146527D01*
X33895Y146473D01*
X33839Y146417D01*
X33787Y146358D01*
X33737Y146296D01*
X33691Y146232D01*
X33647Y146166D01*
X33607Y146098D01*
X33571Y146028D01*
X33537Y145956D01*
X33507Y145882D01*
X33481Y145808D01*
X33458Y145732D01*
X33440Y145655D01*
X33424Y145578D01*
X33413Y145499D01*
X33405Y145421D01*
X33401Y145342D01*
X33401Y145262D01*
X33405Y145183D01*
X33413Y145105D01*
X33424Y145026D01*
X33440Y144949D01*
X33458Y144872D01*
X33481Y144796D01*
X33507Y144722D01*
X33537Y144648D01*
X33571Y144576D01*
X33607Y144506D01*
X33647Y144438D01*
X33691Y144372D01*
X33737Y144308D01*
X33787Y144246D01*
X33839Y144187D01*
X33895Y144131D01*
X33952Y144077D01*
X34013Y144026D01*
X34076Y143978D01*
X34141Y143933D01*
X34208Y143891D01*
X34277Y143853D01*
X34348Y143817D01*
X34421Y143786D01*
X34495Y143758D01*
X34570Y143733D01*
X34646Y143713D01*
X34723Y143695D01*
X34801Y143682D01*
X34880Y143673D01*
X34959Y143667D01*
X35038Y143665D01*
X36675Y143665D01*
X49007Y92865D02*
X50234Y92865D01*
X49007Y92865D02*
X49007Y88773D01*
X51462Y88773D01*
X51540Y88775D01*
X51618Y88780D01*
X51695Y88790D01*
X51772Y88803D01*
X51848Y88819D01*
X51923Y88839D01*
X51997Y88863D01*
X52070Y88890D01*
X52142Y88921D01*
X52212Y88955D01*
X52281Y88992D01*
X52347Y89033D01*
X52412Y89077D01*
X52474Y89123D01*
X52534Y89173D01*
X52592Y89225D01*
X52647Y89280D01*
X52699Y89338D01*
X52749Y89398D01*
X52795Y89460D01*
X52839Y89525D01*
X52880Y89592D01*
X52917Y89660D01*
X52951Y89730D01*
X52982Y89802D01*
X53009Y89875D01*
X53033Y89949D01*
X53053Y90024D01*
X53069Y90100D01*
X53082Y90177D01*
X53092Y90254D01*
X53097Y90332D01*
X53099Y90410D01*
X53099Y94502D01*
X53097Y94580D01*
X53092Y94658D01*
X53082Y94735D01*
X53069Y94812D01*
X53053Y94888D01*
X53033Y94963D01*
X53009Y95037D01*
X52982Y95110D01*
X52951Y95182D01*
X52917Y95252D01*
X52880Y95321D01*
X52839Y95387D01*
X52795Y95452D01*
X52749Y95514D01*
X52699Y95574D01*
X52647Y95632D01*
X52592Y95687D01*
X52534Y95739D01*
X52474Y95789D01*
X52412Y95835D01*
X52347Y95879D01*
X52281Y95920D01*
X52212Y95957D01*
X52142Y95991D01*
X52070Y96022D01*
X51997Y96049D01*
X51923Y96073D01*
X51848Y96093D01*
X51772Y96109D01*
X51695Y96122D01*
X51618Y96132D01*
X51540Y96137D01*
X51462Y96139D01*
X49007Y96139D01*
X45296Y96139D02*
X45296Y88773D01*
X41204Y88773D02*
X45296Y96139D01*
X41204Y96139D02*
X41204Y88773D01*
X37493Y88773D02*
X37493Y96139D01*
X35447Y96139D01*
X35358Y96137D01*
X35269Y96131D01*
X35180Y96121D01*
X35092Y96108D01*
X35004Y96091D01*
X34917Y96069D01*
X34832Y96044D01*
X34747Y96016D01*
X34664Y95983D01*
X34582Y95947D01*
X34502Y95908D01*
X34424Y95865D01*
X34348Y95819D01*
X34273Y95769D01*
X34201Y95716D01*
X34132Y95660D01*
X34065Y95601D01*
X34000Y95540D01*
X33939Y95475D01*
X33880Y95408D01*
X33824Y95339D01*
X33771Y95267D01*
X33721Y95192D01*
X33675Y95116D01*
X33632Y95038D01*
X33593Y94958D01*
X33557Y94876D01*
X33524Y94793D01*
X33496Y94708D01*
X33471Y94623D01*
X33449Y94536D01*
X33432Y94448D01*
X33419Y94360D01*
X33409Y94271D01*
X33403Y94182D01*
X33401Y94093D01*
X33401Y90819D01*
X33403Y90730D01*
X33409Y90641D01*
X33419Y90552D01*
X33432Y90464D01*
X33449Y90376D01*
X33471Y90289D01*
X33496Y90204D01*
X33524Y90119D01*
X33557Y90036D01*
X33593Y89954D01*
X33632Y89874D01*
X33675Y89796D01*
X33721Y89720D01*
X33771Y89645D01*
X33824Y89573D01*
X33880Y89504D01*
X33939Y89437D01*
X34000Y89372D01*
X34065Y89311D01*
X34132Y89252D01*
X34201Y89196D01*
X34273Y89143D01*
X34348Y89093D01*
X34424Y89047D01*
X34502Y89004D01*
X34582Y88965D01*
X34664Y88929D01*
X34747Y88896D01*
X34832Y88868D01*
X34917Y88843D01*
X35004Y88821D01*
X35092Y88804D01*
X35180Y88791D01*
X35269Y88781D01*
X35358Y88775D01*
X35447Y88773D01*
X37493Y88773D01*
X48897Y66280D02*
X48899Y66202D01*
X48904Y66124D01*
X48914Y66047D01*
X48927Y65970D01*
X48943Y65894D01*
X48963Y65819D01*
X48987Y65745D01*
X49014Y65672D01*
X49045Y65600D01*
X49079Y65530D01*
X49116Y65461D01*
X49157Y65395D01*
X49201Y65330D01*
X49247Y65268D01*
X49297Y65208D01*
X49349Y65150D01*
X49404Y65095D01*
X49462Y65043D01*
X49522Y64993D01*
X49584Y64947D01*
X49649Y64903D01*
X49716Y64862D01*
X49784Y64825D01*
X49854Y64791D01*
X49926Y64760D01*
X49999Y64733D01*
X50073Y64709D01*
X50148Y64689D01*
X50224Y64673D01*
X50301Y64660D01*
X50378Y64650D01*
X50456Y64645D01*
X50534Y64643D01*
X50648Y64645D01*
X50761Y64650D01*
X50875Y64660D01*
X50988Y64673D01*
X51100Y64690D01*
X51212Y64710D01*
X51323Y64734D01*
X51434Y64762D01*
X51543Y64793D01*
X51651Y64828D01*
X51758Y64867D01*
X51864Y64909D01*
X51968Y64954D01*
X52071Y65003D01*
X52172Y65056D01*
X52271Y65111D01*
X52369Y65170D01*
X52464Y65232D01*
X52557Y65297D01*
X52649Y65365D01*
X52737Y65436D01*
X52824Y65510D01*
X52908Y65587D01*
X52989Y65666D01*
X52784Y70372D02*
X52782Y70450D01*
X52777Y70528D01*
X52767Y70605D01*
X52754Y70682D01*
X52738Y70758D01*
X52718Y70833D01*
X52694Y70907D01*
X52667Y70980D01*
X52636Y71052D01*
X52602Y71122D01*
X52565Y71191D01*
X52524Y71257D01*
X52480Y71322D01*
X52434Y71384D01*
X52384Y71444D01*
X52332Y71502D01*
X52277Y71557D01*
X52219Y71609D01*
X52159Y71659D01*
X52097Y71705D01*
X52032Y71749D01*
X51966Y71790D01*
X51897Y71827D01*
X51827Y71861D01*
X51755Y71892D01*
X51682Y71919D01*
X51608Y71943D01*
X51533Y71963D01*
X51457Y71979D01*
X51380Y71992D01*
X51303Y72002D01*
X51225Y72007D01*
X51147Y72009D01*
X51037Y72007D01*
X50928Y72001D01*
X50818Y71991D01*
X50710Y71978D01*
X50601Y71960D01*
X50494Y71939D01*
X50387Y71913D01*
X50281Y71884D01*
X50176Y71852D01*
X50073Y71815D01*
X49971Y71775D01*
X49870Y71731D01*
X49771Y71683D01*
X49674Y71633D01*
X49579Y71578D01*
X49486Y71520D01*
X49395Y71459D01*
X49306Y71395D01*
X51966Y68939D02*
X52033Y68981D01*
X52098Y69025D01*
X52160Y69073D01*
X52220Y69123D01*
X52278Y69176D01*
X52333Y69232D01*
X52385Y69291D01*
X52435Y69351D01*
X52482Y69415D01*
X52525Y69480D01*
X52566Y69547D01*
X52603Y69616D01*
X52637Y69687D01*
X52668Y69759D01*
X52695Y69833D01*
X52719Y69907D01*
X52739Y69983D01*
X52755Y70060D01*
X52768Y70137D01*
X52778Y70215D01*
X52783Y70294D01*
X52785Y70372D01*
X49715Y67712D02*
X49649Y67671D01*
X49584Y67626D01*
X49522Y67579D01*
X49462Y67528D01*
X49404Y67475D01*
X49349Y67419D01*
X49296Y67361D01*
X49247Y67300D01*
X49200Y67237D01*
X49157Y67172D01*
X49116Y67105D01*
X49079Y67036D01*
X49045Y66965D01*
X49014Y66893D01*
X48987Y66819D01*
X48963Y66744D01*
X48943Y66669D01*
X48927Y66592D01*
X48914Y66515D01*
X48904Y66437D01*
X48899Y66358D01*
X48897Y66280D01*
X49715Y67712D02*
X51966Y68940D01*
X46170Y72009D02*
X44533Y64643D01*
X42896Y69554D01*
X41259Y64643D01*
X39622Y72009D01*
X35038Y64643D02*
X33401Y64643D01*
X35038Y64643D02*
X35116Y64645D01*
X35194Y64650D01*
X35271Y64660D01*
X35348Y64673D01*
X35424Y64689D01*
X35499Y64709D01*
X35573Y64733D01*
X35646Y64760D01*
X35718Y64791D01*
X35788Y64825D01*
X35857Y64862D01*
X35923Y64903D01*
X35988Y64947D01*
X36050Y64993D01*
X36110Y65043D01*
X36168Y65095D01*
X36223Y65150D01*
X36275Y65208D01*
X36325Y65268D01*
X36371Y65330D01*
X36415Y65395D01*
X36456Y65462D01*
X36493Y65530D01*
X36527Y65600D01*
X36558Y65672D01*
X36585Y65745D01*
X36609Y65819D01*
X36629Y65894D01*
X36645Y65970D01*
X36658Y66047D01*
X36668Y66124D01*
X36673Y66202D01*
X36675Y66280D01*
X36675Y70372D01*
X36673Y70450D01*
X36668Y70528D01*
X36658Y70605D01*
X36645Y70682D01*
X36629Y70758D01*
X36609Y70833D01*
X36585Y70907D01*
X36558Y70980D01*
X36527Y71052D01*
X36493Y71122D01*
X36456Y71191D01*
X36415Y71257D01*
X36371Y71322D01*
X36325Y71384D01*
X36275Y71444D01*
X36223Y71502D01*
X36168Y71557D01*
X36110Y71609D01*
X36050Y71659D01*
X35988Y71705D01*
X35923Y71749D01*
X35857Y71790D01*
X35788Y71827D01*
X35718Y71861D01*
X35646Y71892D01*
X35573Y71919D01*
X35499Y71943D01*
X35424Y71963D01*
X35348Y71979D01*
X35271Y71992D01*
X35194Y72002D01*
X35116Y72007D01*
X35038Y72009D01*
X33401Y72009D01*
D11*
X22860Y156210D02*
X10160Y156210D01*
X22860Y156210D02*
X29210Y149860D01*
X29210Y137160D01*
X22860Y130810D01*
X29210Y124460D01*
X29210Y111760D01*
X22860Y105410D01*
X29210Y99060D01*
X29210Y86360D01*
X22860Y80010D01*
X29210Y73660D01*
X29210Y60960D01*
X22860Y54610D01*
X29210Y48260D01*
X29210Y35560D01*
X22860Y29210D01*
X10160Y29210D01*
X3810Y35560D01*
X3810Y48260D01*
X10160Y54610D01*
X3810Y60960D01*
X3810Y73660D01*
X10160Y80010D01*
X3810Y86360D01*
X3810Y99060D01*
X10160Y105410D01*
X3810Y111760D01*
X3810Y124460D01*
X10160Y130810D01*
X3810Y137160D01*
X3810Y149860D01*
X10160Y156210D01*
D10*
X423799Y162433D02*
X423799Y169799D01*
X421753Y169799D01*
X421664Y169797D01*
X421575Y169791D01*
X421486Y169781D01*
X421398Y169768D01*
X421310Y169751D01*
X421223Y169729D01*
X421138Y169704D01*
X421053Y169676D01*
X420970Y169643D01*
X420888Y169607D01*
X420808Y169568D01*
X420730Y169525D01*
X420654Y169479D01*
X420579Y169429D01*
X420507Y169376D01*
X420438Y169320D01*
X420371Y169261D01*
X420306Y169200D01*
X420245Y169135D01*
X420186Y169068D01*
X420130Y168999D01*
X420077Y168927D01*
X420027Y168852D01*
X419981Y168776D01*
X419938Y168698D01*
X419899Y168618D01*
X419863Y168536D01*
X419830Y168453D01*
X419802Y168368D01*
X419777Y168283D01*
X419755Y168196D01*
X419738Y168108D01*
X419725Y168020D01*
X419715Y167931D01*
X419709Y167842D01*
X419707Y167753D01*
X419709Y167664D01*
X419715Y167575D01*
X419725Y167486D01*
X419738Y167398D01*
X419755Y167310D01*
X419777Y167223D01*
X419802Y167138D01*
X419830Y167053D01*
X419863Y166970D01*
X419899Y166888D01*
X419938Y166808D01*
X419981Y166730D01*
X420027Y166654D01*
X420077Y166579D01*
X420130Y166507D01*
X420186Y166438D01*
X420245Y166371D01*
X420306Y166306D01*
X420371Y166245D01*
X420438Y166186D01*
X420507Y166130D01*
X420579Y166077D01*
X420654Y166027D01*
X420730Y165981D01*
X420808Y165938D01*
X420888Y165899D01*
X420970Y165863D01*
X421053Y165830D01*
X421138Y165802D01*
X421223Y165777D01*
X421310Y165755D01*
X421398Y165738D01*
X421486Y165725D01*
X421575Y165715D01*
X421664Y165709D01*
X421753Y165707D01*
X423799Y165707D01*
X417255Y169799D02*
X414799Y166321D01*
X412344Y169799D01*
X414799Y166321D02*
X414799Y162433D01*
X409169Y166525D02*
X407123Y166525D01*
X407034Y166523D01*
X406945Y166517D01*
X406856Y166507D01*
X406768Y166494D01*
X406680Y166477D01*
X406593Y166455D01*
X406508Y166430D01*
X406423Y166402D01*
X406340Y166369D01*
X406258Y166333D01*
X406178Y166294D01*
X406100Y166251D01*
X406024Y166205D01*
X405949Y166155D01*
X405877Y166102D01*
X405808Y166046D01*
X405741Y165987D01*
X405676Y165926D01*
X405615Y165861D01*
X405556Y165794D01*
X405500Y165725D01*
X405447Y165653D01*
X405397Y165578D01*
X405351Y165502D01*
X405308Y165424D01*
X405269Y165344D01*
X405233Y165262D01*
X405200Y165179D01*
X405172Y165094D01*
X405147Y165009D01*
X405125Y164922D01*
X405108Y164834D01*
X405095Y164746D01*
X405085Y164657D01*
X405079Y164568D01*
X405077Y164479D01*
X405079Y164390D01*
X405085Y164301D01*
X405095Y164212D01*
X405108Y164124D01*
X405125Y164036D01*
X405147Y163949D01*
X405172Y163864D01*
X405200Y163779D01*
X405233Y163696D01*
X405269Y163614D01*
X405308Y163534D01*
X405351Y163456D01*
X405397Y163380D01*
X405447Y163305D01*
X405500Y163233D01*
X405556Y163164D01*
X405615Y163097D01*
X405676Y163032D01*
X405741Y162971D01*
X405808Y162912D01*
X405877Y162856D01*
X405949Y162803D01*
X406024Y162753D01*
X406100Y162707D01*
X406178Y162664D01*
X406258Y162625D01*
X406340Y162589D01*
X406423Y162556D01*
X406508Y162528D01*
X406593Y162503D01*
X406680Y162481D01*
X406768Y162464D01*
X406856Y162451D01*
X406945Y162441D01*
X407034Y162435D01*
X407123Y162433D01*
X409169Y162433D01*
X409169Y169799D01*
X407123Y169799D01*
X407044Y169797D01*
X406965Y169791D01*
X406886Y169782D01*
X406808Y169769D01*
X406731Y169751D01*
X406655Y169731D01*
X406580Y169706D01*
X406506Y169678D01*
X406433Y169647D01*
X406362Y169611D01*
X406293Y169573D01*
X406226Y169531D01*
X406161Y169486D01*
X406098Y169438D01*
X406037Y169387D01*
X405980Y169333D01*
X405924Y169277D01*
X405872Y169218D01*
X405822Y169156D01*
X405776Y169092D01*
X405732Y169026D01*
X405692Y168958D01*
X405656Y168888D01*
X405622Y168816D01*
X405592Y168742D01*
X405566Y168668D01*
X405543Y168592D01*
X405525Y168515D01*
X405509Y168438D01*
X405498Y168359D01*
X405490Y168281D01*
X405486Y168202D01*
X405486Y168122D01*
X405490Y168043D01*
X405498Y167965D01*
X405509Y167886D01*
X405525Y167809D01*
X405543Y167732D01*
X405566Y167656D01*
X405592Y167582D01*
X405622Y167508D01*
X405656Y167436D01*
X405692Y167366D01*
X405732Y167298D01*
X405776Y167232D01*
X405822Y167168D01*
X405872Y167106D01*
X405924Y167047D01*
X405980Y166991D01*
X406037Y166937D01*
X406098Y166886D01*
X406161Y166838D01*
X406226Y166793D01*
X406293Y166751D01*
X406362Y166713D01*
X406433Y166677D01*
X406506Y166646D01*
X406580Y166618D01*
X406655Y166593D01*
X406731Y166573D01*
X406808Y166555D01*
X406886Y166542D01*
X406965Y166533D01*
X407044Y166527D01*
X407123Y166525D01*
X401971Y164479D02*
X401971Y169799D01*
X401971Y164479D02*
X401969Y164390D01*
X401963Y164301D01*
X401953Y164212D01*
X401940Y164124D01*
X401923Y164036D01*
X401901Y163949D01*
X401876Y163864D01*
X401848Y163779D01*
X401815Y163696D01*
X401779Y163614D01*
X401740Y163534D01*
X401697Y163456D01*
X401651Y163380D01*
X401601Y163305D01*
X401548Y163233D01*
X401492Y163164D01*
X401433Y163097D01*
X401372Y163032D01*
X401307Y162971D01*
X401240Y162912D01*
X401171Y162856D01*
X401099Y162803D01*
X401024Y162753D01*
X400948Y162707D01*
X400870Y162664D01*
X400790Y162625D01*
X400708Y162589D01*
X400625Y162556D01*
X400540Y162528D01*
X400455Y162503D01*
X400368Y162481D01*
X400280Y162464D01*
X400192Y162451D01*
X400103Y162441D01*
X400014Y162435D01*
X399925Y162433D01*
X399836Y162435D01*
X399747Y162441D01*
X399658Y162451D01*
X399570Y162464D01*
X399482Y162481D01*
X399395Y162503D01*
X399310Y162528D01*
X399225Y162556D01*
X399142Y162589D01*
X399060Y162625D01*
X398980Y162664D01*
X398902Y162707D01*
X398826Y162753D01*
X398751Y162803D01*
X398679Y162856D01*
X398610Y162912D01*
X398543Y162971D01*
X398478Y163032D01*
X398417Y163097D01*
X398358Y163164D01*
X398302Y163233D01*
X398249Y163305D01*
X398199Y163380D01*
X398153Y163456D01*
X398110Y163534D01*
X398071Y163614D01*
X398035Y163696D01*
X398002Y163779D01*
X397974Y163864D01*
X397949Y163949D01*
X397927Y164036D01*
X397910Y164124D01*
X397897Y164212D01*
X397887Y164301D01*
X397881Y164390D01*
X397879Y164479D01*
X397879Y169799D01*
X391304Y166525D02*
X390076Y166525D01*
X390076Y162433D01*
X392531Y162433D01*
X392609Y162435D01*
X392687Y162440D01*
X392764Y162450D01*
X392841Y162463D01*
X392917Y162479D01*
X392992Y162499D01*
X393066Y162523D01*
X393139Y162550D01*
X393211Y162581D01*
X393281Y162615D01*
X393350Y162652D01*
X393416Y162693D01*
X393481Y162737D01*
X393543Y162783D01*
X393603Y162833D01*
X393661Y162885D01*
X393716Y162940D01*
X393768Y162998D01*
X393818Y163058D01*
X393864Y163120D01*
X393908Y163185D01*
X393949Y163252D01*
X393986Y163320D01*
X394020Y163390D01*
X394051Y163462D01*
X394078Y163535D01*
X394102Y163609D01*
X394122Y163684D01*
X394138Y163760D01*
X394151Y163837D01*
X394161Y163914D01*
X394166Y163992D01*
X394168Y164070D01*
X394168Y168162D01*
X394166Y168240D01*
X394161Y168318D01*
X394151Y168395D01*
X394138Y168472D01*
X394122Y168548D01*
X394102Y168623D01*
X394078Y168697D01*
X394051Y168770D01*
X394020Y168842D01*
X393986Y168912D01*
X393949Y168981D01*
X393908Y169047D01*
X393864Y169112D01*
X393818Y169174D01*
X393768Y169234D01*
X393716Y169292D01*
X393661Y169347D01*
X393603Y169399D01*
X393543Y169449D01*
X393481Y169495D01*
X393416Y169539D01*
X393350Y169580D01*
X393281Y169617D01*
X393211Y169651D01*
X393139Y169682D01*
X393066Y169709D01*
X392992Y169733D01*
X392917Y169753D01*
X392841Y169769D01*
X392764Y169782D01*
X392687Y169792D01*
X392609Y169797D01*
X392531Y169799D01*
X390076Y169799D01*
X386609Y162433D02*
X384563Y162433D01*
X384474Y162435D01*
X384385Y162441D01*
X384296Y162451D01*
X384208Y162464D01*
X384120Y162481D01*
X384033Y162503D01*
X383948Y162528D01*
X383863Y162556D01*
X383780Y162589D01*
X383698Y162625D01*
X383618Y162664D01*
X383540Y162707D01*
X383464Y162753D01*
X383389Y162803D01*
X383317Y162856D01*
X383248Y162912D01*
X383181Y162971D01*
X383116Y163032D01*
X383055Y163097D01*
X382996Y163164D01*
X382940Y163233D01*
X382887Y163305D01*
X382837Y163380D01*
X382791Y163456D01*
X382748Y163534D01*
X382709Y163614D01*
X382673Y163696D01*
X382640Y163779D01*
X382612Y163864D01*
X382587Y163949D01*
X382565Y164036D01*
X382548Y164124D01*
X382535Y164212D01*
X382525Y164301D01*
X382519Y164390D01*
X382517Y164479D01*
X382519Y164568D01*
X382525Y164657D01*
X382535Y164746D01*
X382548Y164834D01*
X382565Y164922D01*
X382587Y165009D01*
X382612Y165094D01*
X382640Y165179D01*
X382673Y165262D01*
X382709Y165344D01*
X382748Y165424D01*
X382791Y165502D01*
X382837Y165578D01*
X382887Y165653D01*
X382940Y165725D01*
X382996Y165794D01*
X383055Y165861D01*
X383116Y165926D01*
X383181Y165987D01*
X383248Y166046D01*
X383317Y166102D01*
X383389Y166155D01*
X383464Y166205D01*
X383540Y166251D01*
X383618Y166294D01*
X383698Y166333D01*
X383780Y166369D01*
X383863Y166402D01*
X383948Y166430D01*
X384033Y166455D01*
X384120Y166477D01*
X384208Y166494D01*
X384296Y166507D01*
X384385Y166517D01*
X384474Y166523D01*
X384563Y166525D01*
X384154Y169799D02*
X386609Y169799D01*
X384154Y169799D02*
X384075Y169797D01*
X383996Y169791D01*
X383917Y169782D01*
X383839Y169769D01*
X383762Y169751D01*
X383686Y169731D01*
X383611Y169706D01*
X383537Y169678D01*
X383464Y169647D01*
X383393Y169611D01*
X383324Y169573D01*
X383257Y169531D01*
X383192Y169486D01*
X383129Y169438D01*
X383068Y169387D01*
X383011Y169333D01*
X382955Y169277D01*
X382903Y169218D01*
X382853Y169156D01*
X382807Y169092D01*
X382763Y169026D01*
X382723Y168958D01*
X382687Y168888D01*
X382653Y168816D01*
X382623Y168742D01*
X382597Y168668D01*
X382574Y168592D01*
X382556Y168515D01*
X382540Y168438D01*
X382529Y168359D01*
X382521Y168281D01*
X382517Y168202D01*
X382517Y168122D01*
X382521Y168043D01*
X382529Y167965D01*
X382540Y167886D01*
X382556Y167809D01*
X382574Y167732D01*
X382597Y167656D01*
X382623Y167582D01*
X382653Y167508D01*
X382687Y167436D01*
X382723Y167366D01*
X382763Y167298D01*
X382807Y167232D01*
X382853Y167168D01*
X382903Y167106D01*
X382955Y167047D01*
X383011Y166991D01*
X383068Y166937D01*
X383129Y166886D01*
X383192Y166838D01*
X383257Y166793D01*
X383324Y166751D01*
X383393Y166713D01*
X383464Y166677D01*
X383537Y166646D01*
X383611Y166618D01*
X383686Y166593D01*
X383762Y166573D01*
X383839Y166555D01*
X383917Y166542D01*
X383996Y166533D01*
X384075Y166527D01*
X384154Y166525D01*
X385791Y166525D01*
X377043Y169800D02*
X376958Y169798D01*
X376873Y169792D01*
X376789Y169782D01*
X376705Y169769D01*
X376621Y169751D01*
X376539Y169730D01*
X376458Y169705D01*
X376378Y169676D01*
X376299Y169643D01*
X376222Y169607D01*
X376147Y169567D01*
X376073Y169524D01*
X376002Y169478D01*
X375933Y169428D01*
X375866Y169375D01*
X375802Y169319D01*
X375741Y169260D01*
X375682Y169199D01*
X375626Y169135D01*
X375573Y169068D01*
X375523Y168999D01*
X375477Y168928D01*
X375434Y168854D01*
X375394Y168779D01*
X375358Y168702D01*
X375325Y168623D01*
X375296Y168543D01*
X375271Y168462D01*
X375250Y168380D01*
X375232Y168296D01*
X375219Y168212D01*
X375209Y168128D01*
X375203Y168043D01*
X375201Y167958D01*
X377043Y169799D02*
X377139Y169797D01*
X377235Y169791D01*
X377330Y169781D01*
X377425Y169768D01*
X377520Y169750D01*
X377613Y169729D01*
X377706Y169704D01*
X377797Y169675D01*
X377888Y169643D01*
X377977Y169607D01*
X378064Y169567D01*
X378150Y169524D01*
X378234Y169478D01*
X378316Y169428D01*
X378396Y169374D01*
X378473Y169318D01*
X378548Y169258D01*
X378621Y169196D01*
X378691Y169130D01*
X378759Y169062D01*
X378824Y168991D01*
X378885Y168918D01*
X378944Y168842D01*
X379000Y168763D01*
X379052Y168683D01*
X379101Y168600D01*
X379147Y168516D01*
X379189Y168430D01*
X379227Y168342D01*
X379262Y168253D01*
X379294Y168162D01*
X375816Y166526D02*
X375756Y166585D01*
X375699Y166647D01*
X375644Y166711D01*
X375593Y166778D01*
X375544Y166847D01*
X375498Y166917D01*
X375455Y166990D01*
X375415Y167064D01*
X375379Y167140D01*
X375346Y167218D01*
X375316Y167297D01*
X375289Y167377D01*
X375266Y167458D01*
X375247Y167540D01*
X375231Y167622D01*
X375218Y167706D01*
X375209Y167790D01*
X375204Y167874D01*
X375202Y167958D01*
X375816Y166525D02*
X379294Y162433D01*
X375202Y162433D01*
X371900Y165298D02*
X366990Y165298D01*
X361438Y169800D02*
X361353Y169798D01*
X361268Y169792D01*
X361184Y169782D01*
X361100Y169769D01*
X361016Y169751D01*
X360934Y169730D01*
X360853Y169705D01*
X360773Y169676D01*
X360694Y169643D01*
X360617Y169607D01*
X360542Y169567D01*
X360468Y169524D01*
X360397Y169478D01*
X360328Y169428D01*
X360261Y169375D01*
X360197Y169319D01*
X360136Y169260D01*
X360077Y169199D01*
X360021Y169135D01*
X359968Y169068D01*
X359918Y168999D01*
X359872Y168928D01*
X359829Y168854D01*
X359789Y168779D01*
X359753Y168702D01*
X359720Y168623D01*
X359691Y168543D01*
X359666Y168462D01*
X359645Y168380D01*
X359627Y168296D01*
X359614Y168212D01*
X359604Y168128D01*
X359598Y168043D01*
X359596Y167958D01*
X361438Y169799D02*
X361534Y169797D01*
X361630Y169791D01*
X361725Y169781D01*
X361820Y169768D01*
X361915Y169750D01*
X362008Y169729D01*
X362101Y169704D01*
X362192Y169675D01*
X362283Y169643D01*
X362372Y169607D01*
X362459Y169567D01*
X362545Y169524D01*
X362629Y169478D01*
X362711Y169428D01*
X362791Y169374D01*
X362868Y169318D01*
X362943Y169258D01*
X363016Y169196D01*
X363086Y169130D01*
X363154Y169062D01*
X363219Y168991D01*
X363280Y168918D01*
X363339Y168842D01*
X363395Y168763D01*
X363447Y168683D01*
X363496Y168600D01*
X363542Y168516D01*
X363584Y168430D01*
X363622Y168342D01*
X363657Y168253D01*
X363689Y168162D01*
X360210Y166526D02*
X360150Y166585D01*
X360093Y166647D01*
X360038Y166711D01*
X359987Y166778D01*
X359938Y166847D01*
X359892Y166917D01*
X359849Y166990D01*
X359809Y167064D01*
X359773Y167140D01*
X359740Y167218D01*
X359710Y167297D01*
X359683Y167377D01*
X359660Y167458D01*
X359641Y167540D01*
X359625Y167622D01*
X359612Y167706D01*
X359603Y167790D01*
X359598Y167874D01*
X359596Y167958D01*
X360210Y166525D02*
X363688Y162433D01*
X359596Y162433D01*
X356167Y162433D02*
X356167Y169799D01*
X356167Y162433D02*
X354121Y162433D01*
X354052Y162435D01*
X353984Y162441D01*
X353915Y162450D01*
X353848Y162464D01*
X353781Y162481D01*
X353715Y162502D01*
X353651Y162526D01*
X353588Y162555D01*
X353527Y162586D01*
X353468Y162621D01*
X353410Y162659D01*
X353355Y162701D01*
X353303Y162745D01*
X353253Y162793D01*
X353205Y162843D01*
X353161Y162895D01*
X353119Y162950D01*
X353081Y163008D01*
X353046Y163067D01*
X353015Y163128D01*
X352986Y163191D01*
X352962Y163255D01*
X352941Y163321D01*
X352924Y163388D01*
X352910Y163455D01*
X352901Y163524D01*
X352895Y163592D01*
X352893Y163661D01*
X352893Y166116D01*
X352895Y166185D01*
X352901Y166253D01*
X352910Y166322D01*
X352924Y166389D01*
X352941Y166456D01*
X352962Y166522D01*
X352986Y166586D01*
X353015Y166649D01*
X353046Y166710D01*
X353081Y166769D01*
X353119Y166827D01*
X353161Y166882D01*
X353205Y166934D01*
X353253Y166984D01*
X353303Y167032D01*
X353355Y167076D01*
X353410Y167118D01*
X353468Y167156D01*
X353527Y167191D01*
X353588Y167222D01*
X353651Y167251D01*
X353715Y167275D01*
X353781Y167296D01*
X353848Y167313D01*
X353915Y167327D01*
X353984Y167336D01*
X354052Y167342D01*
X354121Y167344D01*
X356167Y167344D01*
X423799Y157607D02*
X423799Y150241D01*
X423799Y157607D02*
X421753Y157607D01*
X421664Y157605D01*
X421575Y157599D01*
X421486Y157589D01*
X421398Y157576D01*
X421310Y157559D01*
X421223Y157537D01*
X421138Y157512D01*
X421053Y157484D01*
X420970Y157451D01*
X420888Y157415D01*
X420808Y157376D01*
X420730Y157333D01*
X420654Y157287D01*
X420579Y157237D01*
X420507Y157184D01*
X420438Y157128D01*
X420371Y157069D01*
X420306Y157008D01*
X420245Y156943D01*
X420186Y156876D01*
X420130Y156807D01*
X420077Y156735D01*
X420027Y156660D01*
X419981Y156584D01*
X419938Y156506D01*
X419899Y156426D01*
X419863Y156344D01*
X419830Y156261D01*
X419802Y156176D01*
X419777Y156091D01*
X419755Y156004D01*
X419738Y155916D01*
X419725Y155828D01*
X419715Y155739D01*
X419709Y155650D01*
X419707Y155561D01*
X419709Y155472D01*
X419715Y155383D01*
X419725Y155294D01*
X419738Y155206D01*
X419755Y155118D01*
X419777Y155031D01*
X419802Y154946D01*
X419830Y154861D01*
X419863Y154778D01*
X419899Y154696D01*
X419938Y154616D01*
X419981Y154538D01*
X420027Y154462D01*
X420077Y154387D01*
X420130Y154315D01*
X420186Y154246D01*
X420245Y154179D01*
X420306Y154114D01*
X420371Y154053D01*
X420438Y153994D01*
X420507Y153938D01*
X420579Y153885D01*
X420654Y153835D01*
X420730Y153789D01*
X420808Y153746D01*
X420888Y153707D01*
X420970Y153671D01*
X421053Y153638D01*
X421138Y153610D01*
X421223Y153585D01*
X421310Y153563D01*
X421398Y153546D01*
X421486Y153533D01*
X421575Y153523D01*
X421664Y153517D01*
X421753Y153515D01*
X423799Y153515D01*
X421344Y153515D02*
X419707Y150241D01*
X415386Y150241D02*
X413340Y150241D01*
X415386Y150241D02*
X415455Y150243D01*
X415523Y150249D01*
X415592Y150258D01*
X415659Y150272D01*
X415726Y150289D01*
X415792Y150310D01*
X415856Y150334D01*
X415919Y150363D01*
X415980Y150394D01*
X416039Y150429D01*
X416097Y150467D01*
X416152Y150509D01*
X416204Y150553D01*
X416254Y150601D01*
X416302Y150651D01*
X416346Y150703D01*
X416388Y150758D01*
X416426Y150816D01*
X416461Y150875D01*
X416492Y150936D01*
X416521Y150999D01*
X416545Y151063D01*
X416566Y151129D01*
X416583Y151196D01*
X416597Y151263D01*
X416606Y151332D01*
X416612Y151400D01*
X416614Y151469D01*
X416613Y151469D02*
X416613Y153515D01*
X416614Y153515D02*
X416612Y153594D01*
X416606Y153673D01*
X416597Y153752D01*
X416584Y153830D01*
X416566Y153907D01*
X416546Y153983D01*
X416521Y154058D01*
X416493Y154132D01*
X416462Y154205D01*
X416426Y154276D01*
X416388Y154345D01*
X416346Y154412D01*
X416301Y154477D01*
X416253Y154540D01*
X416202Y154601D01*
X416148Y154658D01*
X416092Y154714D01*
X416033Y154766D01*
X415971Y154816D01*
X415907Y154862D01*
X415841Y154906D01*
X415773Y154946D01*
X415703Y154982D01*
X415631Y155016D01*
X415557Y155046D01*
X415483Y155072D01*
X415407Y155095D01*
X415330Y155113D01*
X415253Y155129D01*
X415174Y155140D01*
X415096Y155148D01*
X415017Y155152D01*
X414937Y155152D01*
X414858Y155148D01*
X414780Y155140D01*
X414701Y155129D01*
X414624Y155113D01*
X414547Y155095D01*
X414471Y155072D01*
X414397Y155046D01*
X414323Y155016D01*
X414251Y154982D01*
X414181Y154946D01*
X414113Y154906D01*
X414047Y154862D01*
X413983Y154816D01*
X413921Y154766D01*
X413862Y154714D01*
X413806Y154658D01*
X413752Y154601D01*
X413701Y154540D01*
X413653Y154477D01*
X413608Y154412D01*
X413566Y154345D01*
X413528Y154276D01*
X413492Y154205D01*
X413461Y154132D01*
X413433Y154058D01*
X413408Y153983D01*
X413388Y153907D01*
X413370Y153830D01*
X413357Y153752D01*
X413348Y153673D01*
X413342Y153594D01*
X413340Y153515D01*
X413340Y152696D01*
X416613Y152696D01*
X410517Y155152D02*
X408881Y150241D01*
X407244Y155152D01*
X402729Y150241D02*
X401092Y150241D01*
X402729Y150241D02*
X402807Y150243D01*
X402885Y150248D01*
X402962Y150258D01*
X403039Y150271D01*
X403115Y150287D01*
X403190Y150307D01*
X403264Y150331D01*
X403337Y150358D01*
X403409Y150389D01*
X403479Y150423D01*
X403548Y150460D01*
X403614Y150501D01*
X403679Y150545D01*
X403741Y150591D01*
X403801Y150641D01*
X403859Y150693D01*
X403914Y150748D01*
X403966Y150806D01*
X404016Y150866D01*
X404062Y150928D01*
X404106Y150993D01*
X404147Y151060D01*
X404184Y151128D01*
X404218Y151198D01*
X404249Y151270D01*
X404276Y151343D01*
X404300Y151417D01*
X404320Y151492D01*
X404336Y151568D01*
X404349Y151645D01*
X404359Y151722D01*
X404364Y151800D01*
X404366Y151878D01*
X404366Y155970D01*
X404364Y156048D01*
X404359Y156126D01*
X404349Y156203D01*
X404336Y156280D01*
X404320Y156356D01*
X404300Y156431D01*
X404276Y156505D01*
X404249Y156578D01*
X404218Y156650D01*
X404184Y156720D01*
X404147Y156789D01*
X404106Y156855D01*
X404062Y156920D01*
X404016Y156982D01*
X403966Y157042D01*
X403914Y157100D01*
X403859Y157155D01*
X403801Y157207D01*
X403741Y157257D01*
X403679Y157303D01*
X403614Y157347D01*
X403548Y157388D01*
X403479Y157425D01*
X403409Y157459D01*
X403337Y157490D01*
X403264Y157517D01*
X403190Y157541D01*
X403115Y157561D01*
X403039Y157577D01*
X402962Y157590D01*
X402885Y157600D01*
X402807Y157605D01*
X402729Y157607D01*
X401092Y157607D01*
X187664Y81915D02*
X187664Y76186D01*
X187666Y76108D01*
X187671Y76030D01*
X187681Y75953D01*
X187694Y75876D01*
X187710Y75800D01*
X187730Y75725D01*
X187754Y75651D01*
X187781Y75578D01*
X187812Y75506D01*
X187846Y75436D01*
X187883Y75368D01*
X187924Y75301D01*
X187968Y75236D01*
X188014Y75174D01*
X188064Y75114D01*
X188116Y75056D01*
X188171Y75001D01*
X188229Y74949D01*
X188289Y74899D01*
X188351Y74853D01*
X188416Y74809D01*
X188483Y74768D01*
X188551Y74731D01*
X188621Y74697D01*
X188693Y74666D01*
X188766Y74639D01*
X188840Y74615D01*
X188915Y74595D01*
X188991Y74579D01*
X189068Y74566D01*
X189145Y74556D01*
X189223Y74551D01*
X189301Y74549D01*
X190119Y74549D01*
X183868Y74549D02*
X183868Y81915D01*
X181822Y81915D01*
X181733Y81913D01*
X181644Y81907D01*
X181555Y81897D01*
X181467Y81884D01*
X181379Y81867D01*
X181292Y81845D01*
X181207Y81820D01*
X181122Y81792D01*
X181039Y81759D01*
X180957Y81723D01*
X180877Y81684D01*
X180799Y81641D01*
X180723Y81595D01*
X180648Y81545D01*
X180576Y81492D01*
X180507Y81436D01*
X180440Y81377D01*
X180375Y81316D01*
X180314Y81251D01*
X180255Y81184D01*
X180199Y81115D01*
X180146Y81043D01*
X180096Y80968D01*
X180050Y80892D01*
X180007Y80814D01*
X179968Y80734D01*
X179932Y80652D01*
X179899Y80569D01*
X179871Y80484D01*
X179846Y80399D01*
X179824Y80312D01*
X179807Y80224D01*
X179794Y80136D01*
X179784Y80047D01*
X179778Y79958D01*
X179776Y79869D01*
X179778Y79780D01*
X179784Y79691D01*
X179794Y79602D01*
X179807Y79514D01*
X179824Y79426D01*
X179846Y79339D01*
X179871Y79254D01*
X179899Y79169D01*
X179932Y79086D01*
X179968Y79004D01*
X180007Y78924D01*
X180050Y78846D01*
X180096Y78770D01*
X180146Y78695D01*
X180199Y78623D01*
X180255Y78554D01*
X180314Y78487D01*
X180375Y78422D01*
X180440Y78361D01*
X180507Y78302D01*
X180576Y78246D01*
X180648Y78193D01*
X180723Y78143D01*
X180799Y78097D01*
X180877Y78054D01*
X180957Y78015D01*
X181039Y77979D01*
X181122Y77946D01*
X181207Y77918D01*
X181292Y77893D01*
X181379Y77871D01*
X181467Y77854D01*
X181555Y77841D01*
X181644Y77831D01*
X181733Y77825D01*
X181822Y77823D01*
X183868Y77823D01*
X176914Y80278D02*
X174868Y81915D01*
X174868Y74549D01*
X176914Y74549D02*
X172822Y74549D01*
X165619Y77414D02*
X160708Y77414D01*
X153144Y74549D02*
X153144Y81915D01*
X151098Y81915D01*
X151009Y81913D01*
X150920Y81907D01*
X150831Y81897D01*
X150743Y81884D01*
X150655Y81867D01*
X150568Y81845D01*
X150483Y81820D01*
X150398Y81792D01*
X150315Y81759D01*
X150233Y81723D01*
X150153Y81684D01*
X150075Y81641D01*
X149999Y81595D01*
X149924Y81545D01*
X149852Y81492D01*
X149783Y81436D01*
X149716Y81377D01*
X149651Y81316D01*
X149590Y81251D01*
X149531Y81184D01*
X149475Y81115D01*
X149422Y81043D01*
X149372Y80968D01*
X149326Y80892D01*
X149283Y80814D01*
X149244Y80734D01*
X149208Y80652D01*
X149175Y80569D01*
X149147Y80484D01*
X149122Y80399D01*
X149100Y80312D01*
X149083Y80224D01*
X149070Y80136D01*
X149060Y80047D01*
X149054Y79958D01*
X149052Y79869D01*
X149054Y79780D01*
X149060Y79691D01*
X149070Y79602D01*
X149083Y79514D01*
X149100Y79426D01*
X149122Y79339D01*
X149147Y79254D01*
X149175Y79169D01*
X149208Y79086D01*
X149244Y79004D01*
X149283Y78924D01*
X149326Y78846D01*
X149372Y78770D01*
X149422Y78695D01*
X149475Y78623D01*
X149531Y78554D01*
X149590Y78487D01*
X149651Y78422D01*
X149716Y78361D01*
X149783Y78302D01*
X149852Y78246D01*
X149924Y78193D01*
X149999Y78143D01*
X150075Y78097D01*
X150153Y78054D01*
X150233Y78015D01*
X150315Y77979D01*
X150398Y77946D01*
X150483Y77918D01*
X150568Y77893D01*
X150655Y77871D01*
X150743Y77854D01*
X150831Y77841D01*
X150920Y77831D01*
X151009Y77825D01*
X151098Y77823D01*
X153144Y77823D01*
X146599Y74549D02*
X144144Y81915D01*
X141689Y74549D01*
X142303Y76391D02*
X145986Y76391D01*
X138875Y76186D02*
X137238Y81915D01*
X138875Y76186D02*
X134783Y76186D01*
X136011Y77823D02*
X136011Y74549D01*
X131882Y73731D02*
X128608Y82733D01*
X125464Y81915D02*
X125464Y76595D01*
X125462Y76506D01*
X125456Y76417D01*
X125446Y76328D01*
X125433Y76240D01*
X125416Y76152D01*
X125394Y76065D01*
X125369Y75980D01*
X125341Y75895D01*
X125308Y75812D01*
X125272Y75730D01*
X125233Y75650D01*
X125190Y75572D01*
X125144Y75496D01*
X125094Y75421D01*
X125041Y75349D01*
X124985Y75280D01*
X124926Y75213D01*
X124865Y75148D01*
X124800Y75087D01*
X124733Y75028D01*
X124664Y74972D01*
X124592Y74919D01*
X124517Y74869D01*
X124441Y74823D01*
X124363Y74780D01*
X124283Y74741D01*
X124201Y74705D01*
X124118Y74672D01*
X124033Y74644D01*
X123948Y74619D01*
X123861Y74597D01*
X123773Y74580D01*
X123685Y74567D01*
X123596Y74557D01*
X123507Y74551D01*
X123418Y74549D01*
X123329Y74551D01*
X123240Y74557D01*
X123151Y74567D01*
X123063Y74580D01*
X122975Y74597D01*
X122888Y74619D01*
X122803Y74644D01*
X122718Y74672D01*
X122635Y74705D01*
X122553Y74741D01*
X122473Y74780D01*
X122395Y74823D01*
X122319Y74869D01*
X122244Y74919D01*
X122172Y74972D01*
X122103Y75028D01*
X122036Y75087D01*
X121971Y75148D01*
X121910Y75213D01*
X121851Y75280D01*
X121795Y75349D01*
X121742Y75421D01*
X121692Y75496D01*
X121646Y75572D01*
X121603Y75650D01*
X121564Y75730D01*
X121528Y75812D01*
X121495Y75895D01*
X121467Y75980D01*
X121442Y76065D01*
X121420Y76152D01*
X121403Y76240D01*
X121390Y76328D01*
X121380Y76417D01*
X121374Y76506D01*
X121372Y76595D01*
X121372Y81915D01*
X114056Y76186D02*
X114058Y76108D01*
X114063Y76030D01*
X114073Y75953D01*
X114086Y75876D01*
X114102Y75800D01*
X114122Y75725D01*
X114146Y75651D01*
X114173Y75578D01*
X114204Y75506D01*
X114238Y75436D01*
X114275Y75367D01*
X114316Y75301D01*
X114360Y75236D01*
X114406Y75174D01*
X114456Y75114D01*
X114508Y75056D01*
X114563Y75001D01*
X114621Y74949D01*
X114681Y74899D01*
X114743Y74853D01*
X114808Y74809D01*
X114875Y74768D01*
X114943Y74731D01*
X115013Y74697D01*
X115085Y74666D01*
X115158Y74639D01*
X115232Y74615D01*
X115307Y74595D01*
X115383Y74579D01*
X115460Y74566D01*
X115537Y74556D01*
X115615Y74551D01*
X115693Y74549D01*
X115807Y74551D01*
X115920Y74556D01*
X116034Y74566D01*
X116147Y74579D01*
X116259Y74596D01*
X116371Y74616D01*
X116482Y74640D01*
X116593Y74668D01*
X116702Y74699D01*
X116810Y74734D01*
X116917Y74773D01*
X117023Y74815D01*
X117127Y74860D01*
X117230Y74909D01*
X117331Y74962D01*
X117430Y75017D01*
X117528Y75076D01*
X117623Y75138D01*
X117716Y75203D01*
X117808Y75271D01*
X117896Y75342D01*
X117983Y75416D01*
X118067Y75493D01*
X118148Y75572D01*
X117944Y80278D02*
X117942Y80356D01*
X117937Y80434D01*
X117927Y80511D01*
X117914Y80588D01*
X117898Y80664D01*
X117878Y80739D01*
X117854Y80813D01*
X117827Y80886D01*
X117796Y80958D01*
X117762Y81028D01*
X117725Y81097D01*
X117684Y81163D01*
X117640Y81228D01*
X117594Y81290D01*
X117544Y81350D01*
X117492Y81408D01*
X117437Y81463D01*
X117379Y81515D01*
X117319Y81565D01*
X117257Y81611D01*
X117192Y81655D01*
X117126Y81696D01*
X117057Y81733D01*
X116987Y81767D01*
X116915Y81798D01*
X116842Y81825D01*
X116768Y81849D01*
X116693Y81869D01*
X116617Y81885D01*
X116540Y81898D01*
X116463Y81908D01*
X116385Y81913D01*
X116307Y81915D01*
X116197Y81913D01*
X116088Y81907D01*
X115978Y81897D01*
X115870Y81884D01*
X115761Y81866D01*
X115654Y81845D01*
X115547Y81819D01*
X115441Y81790D01*
X115336Y81758D01*
X115233Y81721D01*
X115131Y81681D01*
X115030Y81637D01*
X114931Y81589D01*
X114834Y81539D01*
X114739Y81484D01*
X114646Y81426D01*
X114555Y81365D01*
X114466Y81301D01*
X117126Y78845D02*
X117193Y78887D01*
X117258Y78931D01*
X117320Y78979D01*
X117380Y79029D01*
X117438Y79082D01*
X117493Y79138D01*
X117545Y79197D01*
X117595Y79257D01*
X117642Y79321D01*
X117685Y79386D01*
X117726Y79453D01*
X117763Y79522D01*
X117797Y79593D01*
X117828Y79665D01*
X117855Y79739D01*
X117879Y79813D01*
X117899Y79889D01*
X117915Y79966D01*
X117928Y80043D01*
X117938Y80121D01*
X117943Y80200D01*
X117945Y80278D01*
X114875Y77618D02*
X114809Y77577D01*
X114744Y77532D01*
X114682Y77485D01*
X114622Y77434D01*
X114564Y77381D01*
X114509Y77325D01*
X114456Y77267D01*
X114407Y77206D01*
X114360Y77143D01*
X114317Y77078D01*
X114276Y77011D01*
X114239Y76942D01*
X114205Y76871D01*
X114174Y76799D01*
X114147Y76725D01*
X114123Y76650D01*
X114103Y76575D01*
X114087Y76498D01*
X114074Y76421D01*
X114064Y76343D01*
X114059Y76264D01*
X114057Y76186D01*
X114875Y77618D02*
X117126Y78846D01*
X110716Y78641D02*
X108670Y78641D01*
X108581Y78639D01*
X108492Y78633D01*
X108403Y78623D01*
X108315Y78610D01*
X108227Y78593D01*
X108140Y78571D01*
X108055Y78546D01*
X107970Y78518D01*
X107887Y78485D01*
X107805Y78449D01*
X107725Y78410D01*
X107647Y78367D01*
X107571Y78321D01*
X107496Y78271D01*
X107424Y78218D01*
X107355Y78162D01*
X107288Y78103D01*
X107223Y78042D01*
X107162Y77977D01*
X107103Y77910D01*
X107047Y77841D01*
X106994Y77769D01*
X106944Y77694D01*
X106898Y77618D01*
X106855Y77540D01*
X106816Y77460D01*
X106780Y77378D01*
X106747Y77295D01*
X106719Y77210D01*
X106694Y77125D01*
X106672Y77038D01*
X106655Y76950D01*
X106642Y76862D01*
X106632Y76773D01*
X106626Y76684D01*
X106624Y76595D01*
X106626Y76506D01*
X106632Y76417D01*
X106642Y76328D01*
X106655Y76240D01*
X106672Y76152D01*
X106694Y76065D01*
X106719Y75980D01*
X106747Y75895D01*
X106780Y75812D01*
X106816Y75730D01*
X106855Y75650D01*
X106898Y75572D01*
X106944Y75496D01*
X106994Y75421D01*
X107047Y75349D01*
X107103Y75280D01*
X107162Y75213D01*
X107223Y75148D01*
X107288Y75087D01*
X107355Y75028D01*
X107424Y74972D01*
X107496Y74919D01*
X107571Y74869D01*
X107647Y74823D01*
X107725Y74780D01*
X107805Y74741D01*
X107887Y74705D01*
X107970Y74672D01*
X108055Y74644D01*
X108140Y74619D01*
X108227Y74597D01*
X108315Y74580D01*
X108403Y74567D01*
X108492Y74557D01*
X108581Y74551D01*
X108670Y74549D01*
X110716Y74549D01*
X110716Y81915D01*
X108670Y81915D01*
X108591Y81913D01*
X108512Y81907D01*
X108433Y81898D01*
X108355Y81885D01*
X108278Y81867D01*
X108202Y81847D01*
X108127Y81822D01*
X108053Y81794D01*
X107980Y81763D01*
X107909Y81727D01*
X107840Y81689D01*
X107773Y81647D01*
X107708Y81602D01*
X107645Y81554D01*
X107584Y81503D01*
X107527Y81449D01*
X107471Y81393D01*
X107419Y81334D01*
X107369Y81272D01*
X107323Y81208D01*
X107279Y81142D01*
X107239Y81074D01*
X107203Y81004D01*
X107169Y80932D01*
X107139Y80858D01*
X107113Y80784D01*
X107090Y80708D01*
X107072Y80631D01*
X107056Y80554D01*
X107045Y80475D01*
X107037Y80397D01*
X107033Y80318D01*
X107033Y80238D01*
X107037Y80159D01*
X107045Y80081D01*
X107056Y80002D01*
X107072Y79925D01*
X107090Y79848D01*
X107113Y79772D01*
X107139Y79698D01*
X107169Y79624D01*
X107203Y79552D01*
X107239Y79482D01*
X107279Y79414D01*
X107323Y79348D01*
X107369Y79284D01*
X107419Y79222D01*
X107471Y79163D01*
X107527Y79107D01*
X107584Y79053D01*
X107645Y79002D01*
X107708Y78954D01*
X107773Y78909D01*
X107840Y78867D01*
X107909Y78829D01*
X107980Y78793D01*
X108053Y78762D01*
X108127Y78734D01*
X108202Y78709D01*
X108278Y78689D01*
X108355Y78671D01*
X108433Y78658D01*
X108512Y78649D01*
X108591Y78643D01*
X108670Y78641D01*
X104084Y73731D02*
X100811Y73731D01*
X97615Y74549D02*
X97615Y81915D01*
X95569Y81915D01*
X95480Y81913D01*
X95391Y81907D01*
X95302Y81897D01*
X95214Y81884D01*
X95126Y81867D01*
X95039Y81845D01*
X94954Y81820D01*
X94869Y81792D01*
X94786Y81759D01*
X94704Y81723D01*
X94624Y81684D01*
X94546Y81641D01*
X94470Y81595D01*
X94395Y81545D01*
X94323Y81492D01*
X94254Y81436D01*
X94187Y81377D01*
X94122Y81316D01*
X94061Y81251D01*
X94002Y81184D01*
X93946Y81115D01*
X93893Y81043D01*
X93843Y80968D01*
X93797Y80892D01*
X93754Y80814D01*
X93715Y80734D01*
X93679Y80652D01*
X93646Y80569D01*
X93618Y80484D01*
X93593Y80399D01*
X93571Y80312D01*
X93554Y80224D01*
X93541Y80136D01*
X93531Y80047D01*
X93525Y79958D01*
X93523Y79869D01*
X93525Y79780D01*
X93531Y79691D01*
X93541Y79602D01*
X93554Y79514D01*
X93571Y79426D01*
X93593Y79339D01*
X93618Y79254D01*
X93646Y79169D01*
X93679Y79086D01*
X93715Y79004D01*
X93754Y78924D01*
X93797Y78846D01*
X93843Y78770D01*
X93893Y78695D01*
X93946Y78623D01*
X94002Y78554D01*
X94061Y78487D01*
X94122Y78422D01*
X94187Y78361D01*
X94254Y78302D01*
X94323Y78246D01*
X94395Y78193D01*
X94470Y78143D01*
X94546Y78097D01*
X94624Y78054D01*
X94704Y78015D01*
X94786Y77979D01*
X94869Y77946D01*
X94954Y77918D01*
X95039Y77893D01*
X95126Y77871D01*
X95214Y77854D01*
X95302Y77841D01*
X95391Y77831D01*
X95480Y77825D01*
X95569Y77823D01*
X97615Y77823D01*
X95160Y77823D02*
X93523Y74549D01*
X90760Y74549D02*
X85850Y81915D01*
X90760Y81915D02*
X85850Y74549D01*
X187664Y69723D02*
X187664Y63994D01*
X187666Y63916D01*
X187671Y63838D01*
X187681Y63761D01*
X187694Y63684D01*
X187710Y63608D01*
X187730Y63533D01*
X187754Y63459D01*
X187781Y63386D01*
X187812Y63314D01*
X187846Y63244D01*
X187883Y63176D01*
X187924Y63109D01*
X187968Y63044D01*
X188014Y62982D01*
X188064Y62922D01*
X188116Y62864D01*
X188171Y62809D01*
X188229Y62757D01*
X188289Y62707D01*
X188351Y62661D01*
X188416Y62617D01*
X188483Y62576D01*
X188551Y62539D01*
X188621Y62505D01*
X188693Y62474D01*
X188766Y62447D01*
X188840Y62423D01*
X188915Y62403D01*
X188991Y62387D01*
X189068Y62374D01*
X189145Y62364D01*
X189223Y62359D01*
X189301Y62357D01*
X190119Y62357D01*
X183868Y62357D02*
X183868Y69723D01*
X181822Y69723D01*
X181733Y69721D01*
X181644Y69715D01*
X181555Y69705D01*
X181467Y69692D01*
X181379Y69675D01*
X181292Y69653D01*
X181207Y69628D01*
X181122Y69600D01*
X181039Y69567D01*
X180957Y69531D01*
X180877Y69492D01*
X180799Y69449D01*
X180723Y69403D01*
X180648Y69353D01*
X180576Y69300D01*
X180507Y69244D01*
X180440Y69185D01*
X180375Y69124D01*
X180314Y69059D01*
X180255Y68992D01*
X180199Y68923D01*
X180146Y68851D01*
X180096Y68776D01*
X180050Y68700D01*
X180007Y68622D01*
X179968Y68542D01*
X179932Y68460D01*
X179899Y68377D01*
X179871Y68292D01*
X179846Y68207D01*
X179824Y68120D01*
X179807Y68032D01*
X179794Y67944D01*
X179784Y67855D01*
X179778Y67766D01*
X179776Y67677D01*
X179778Y67588D01*
X179784Y67499D01*
X179794Y67410D01*
X179807Y67322D01*
X179824Y67234D01*
X179846Y67147D01*
X179871Y67062D01*
X179899Y66977D01*
X179932Y66894D01*
X179968Y66812D01*
X180007Y66732D01*
X180050Y66654D01*
X180096Y66578D01*
X180146Y66503D01*
X180199Y66431D01*
X180255Y66362D01*
X180314Y66295D01*
X180375Y66230D01*
X180440Y66169D01*
X180507Y66110D01*
X180576Y66054D01*
X180648Y66001D01*
X180723Y65951D01*
X180799Y65905D01*
X180877Y65862D01*
X180957Y65823D01*
X181039Y65787D01*
X181122Y65754D01*
X181207Y65726D01*
X181292Y65701D01*
X181379Y65679D01*
X181467Y65662D01*
X181555Y65649D01*
X181644Y65639D01*
X181733Y65633D01*
X181822Y65631D01*
X183868Y65631D01*
X174663Y69724D02*
X174578Y69722D01*
X174493Y69716D01*
X174409Y69706D01*
X174325Y69693D01*
X174241Y69675D01*
X174159Y69654D01*
X174078Y69629D01*
X173998Y69600D01*
X173919Y69567D01*
X173842Y69531D01*
X173767Y69491D01*
X173693Y69448D01*
X173622Y69402D01*
X173553Y69352D01*
X173486Y69299D01*
X173422Y69243D01*
X173361Y69184D01*
X173302Y69123D01*
X173246Y69059D01*
X173193Y68992D01*
X173143Y68923D01*
X173097Y68852D01*
X173054Y68778D01*
X173014Y68703D01*
X172978Y68626D01*
X172945Y68547D01*
X172916Y68467D01*
X172891Y68386D01*
X172870Y68304D01*
X172852Y68220D01*
X172839Y68136D01*
X172829Y68052D01*
X172823Y67967D01*
X172821Y67882D01*
X174663Y69723D02*
X174759Y69721D01*
X174855Y69715D01*
X174950Y69705D01*
X175045Y69692D01*
X175140Y69674D01*
X175233Y69653D01*
X175326Y69628D01*
X175417Y69599D01*
X175508Y69567D01*
X175597Y69531D01*
X175684Y69491D01*
X175770Y69448D01*
X175854Y69402D01*
X175936Y69352D01*
X176016Y69298D01*
X176093Y69242D01*
X176168Y69182D01*
X176241Y69120D01*
X176311Y69054D01*
X176379Y68986D01*
X176444Y68915D01*
X176505Y68842D01*
X176564Y68766D01*
X176620Y68687D01*
X176672Y68607D01*
X176721Y68524D01*
X176767Y68440D01*
X176809Y68354D01*
X176847Y68266D01*
X176882Y68177D01*
X176914Y68086D01*
X173436Y66450D02*
X173376Y66509D01*
X173319Y66571D01*
X173264Y66635D01*
X173213Y66702D01*
X173164Y66771D01*
X173118Y66841D01*
X173075Y66914D01*
X173035Y66988D01*
X172999Y67064D01*
X172966Y67142D01*
X172936Y67221D01*
X172909Y67301D01*
X172886Y67382D01*
X172867Y67464D01*
X172851Y67546D01*
X172838Y67630D01*
X172829Y67714D01*
X172824Y67798D01*
X172822Y67882D01*
X173436Y66449D02*
X176914Y62357D01*
X172822Y62357D01*
X165619Y65222D02*
X160708Y65222D01*
X153144Y62357D02*
X153144Y69723D01*
X151098Y69723D01*
X151009Y69721D01*
X150920Y69715D01*
X150831Y69705D01*
X150743Y69692D01*
X150655Y69675D01*
X150568Y69653D01*
X150483Y69628D01*
X150398Y69600D01*
X150315Y69567D01*
X150233Y69531D01*
X150153Y69492D01*
X150075Y69449D01*
X149999Y69403D01*
X149924Y69353D01*
X149852Y69300D01*
X149783Y69244D01*
X149716Y69185D01*
X149651Y69124D01*
X149590Y69059D01*
X149531Y68992D01*
X149475Y68923D01*
X149422Y68851D01*
X149372Y68776D01*
X149326Y68700D01*
X149283Y68622D01*
X149244Y68542D01*
X149208Y68460D01*
X149175Y68377D01*
X149147Y68292D01*
X149122Y68207D01*
X149100Y68120D01*
X149083Y68032D01*
X149070Y67944D01*
X149060Y67855D01*
X149054Y67766D01*
X149052Y67677D01*
X149054Y67588D01*
X149060Y67499D01*
X149070Y67410D01*
X149083Y67322D01*
X149100Y67234D01*
X149122Y67147D01*
X149147Y67062D01*
X149175Y66977D01*
X149208Y66894D01*
X149244Y66812D01*
X149283Y66732D01*
X149326Y66654D01*
X149372Y66578D01*
X149422Y66503D01*
X149475Y66431D01*
X149531Y66362D01*
X149590Y66295D01*
X149651Y66230D01*
X149716Y66169D01*
X149783Y66110D01*
X149852Y66054D01*
X149924Y66001D01*
X149999Y65951D01*
X150075Y65905D01*
X150153Y65862D01*
X150233Y65823D01*
X150315Y65787D01*
X150398Y65754D01*
X150483Y65726D01*
X150568Y65701D01*
X150655Y65679D01*
X150743Y65662D01*
X150831Y65649D01*
X150920Y65639D01*
X151009Y65633D01*
X151098Y65631D01*
X153144Y65631D01*
X146599Y62357D02*
X144144Y69723D01*
X141689Y62357D01*
X142303Y64199D02*
X145986Y64199D01*
X138875Y62357D02*
X136829Y62357D01*
X136740Y62359D01*
X136651Y62365D01*
X136562Y62375D01*
X136474Y62388D01*
X136386Y62405D01*
X136299Y62427D01*
X136214Y62452D01*
X136129Y62480D01*
X136046Y62513D01*
X135964Y62549D01*
X135884Y62588D01*
X135806Y62631D01*
X135730Y62677D01*
X135655Y62727D01*
X135583Y62780D01*
X135514Y62836D01*
X135447Y62895D01*
X135382Y62956D01*
X135321Y63021D01*
X135262Y63088D01*
X135206Y63157D01*
X135153Y63229D01*
X135103Y63304D01*
X135057Y63380D01*
X135014Y63458D01*
X134975Y63538D01*
X134939Y63620D01*
X134906Y63703D01*
X134878Y63788D01*
X134853Y63873D01*
X134831Y63960D01*
X134814Y64048D01*
X134801Y64136D01*
X134791Y64225D01*
X134785Y64314D01*
X134783Y64403D01*
X134785Y64492D01*
X134791Y64581D01*
X134801Y64670D01*
X134814Y64758D01*
X134831Y64846D01*
X134853Y64933D01*
X134878Y65018D01*
X134906Y65103D01*
X134939Y65186D01*
X134975Y65268D01*
X135014Y65348D01*
X135057Y65426D01*
X135103Y65502D01*
X135153Y65577D01*
X135206Y65649D01*
X135262Y65718D01*
X135321Y65785D01*
X135382Y65850D01*
X135447Y65911D01*
X135514Y65970D01*
X135583Y66026D01*
X135655Y66079D01*
X135730Y66129D01*
X135806Y66175D01*
X135884Y66218D01*
X135964Y66257D01*
X136046Y66293D01*
X136129Y66326D01*
X136214Y66354D01*
X136299Y66379D01*
X136386Y66401D01*
X136474Y66418D01*
X136562Y66431D01*
X136651Y66441D01*
X136740Y66447D01*
X136829Y66449D01*
X136420Y69723D02*
X138875Y69723D01*
X136420Y69723D02*
X136341Y69721D01*
X136262Y69715D01*
X136183Y69706D01*
X136105Y69693D01*
X136028Y69675D01*
X135952Y69655D01*
X135877Y69630D01*
X135803Y69602D01*
X135730Y69571D01*
X135659Y69535D01*
X135590Y69497D01*
X135523Y69455D01*
X135458Y69410D01*
X135395Y69362D01*
X135334Y69311D01*
X135277Y69257D01*
X135221Y69201D01*
X135169Y69142D01*
X135119Y69080D01*
X135073Y69016D01*
X135029Y68950D01*
X134989Y68882D01*
X134953Y68812D01*
X134919Y68740D01*
X134889Y68666D01*
X134863Y68592D01*
X134840Y68516D01*
X134822Y68439D01*
X134806Y68362D01*
X134795Y68283D01*
X134787Y68205D01*
X134783Y68126D01*
X134783Y68046D01*
X134787Y67967D01*
X134795Y67889D01*
X134806Y67810D01*
X134822Y67733D01*
X134840Y67656D01*
X134863Y67580D01*
X134889Y67506D01*
X134919Y67432D01*
X134953Y67360D01*
X134989Y67290D01*
X135029Y67222D01*
X135073Y67156D01*
X135119Y67092D01*
X135169Y67030D01*
X135221Y66971D01*
X135277Y66915D01*
X135334Y66861D01*
X135395Y66810D01*
X135458Y66762D01*
X135523Y66717D01*
X135590Y66675D01*
X135659Y66637D01*
X135730Y66601D01*
X135803Y66570D01*
X135877Y66542D01*
X135952Y66517D01*
X136028Y66497D01*
X136105Y66479D01*
X136183Y66466D01*
X136262Y66457D01*
X136341Y66451D01*
X136420Y66449D01*
X138057Y66449D01*
X131882Y61539D02*
X128608Y70541D01*
X125464Y69723D02*
X125464Y64403D01*
X125462Y64314D01*
X125456Y64225D01*
X125446Y64136D01*
X125433Y64048D01*
X125416Y63960D01*
X125394Y63873D01*
X125369Y63788D01*
X125341Y63703D01*
X125308Y63620D01*
X125272Y63538D01*
X125233Y63458D01*
X125190Y63380D01*
X125144Y63304D01*
X125094Y63229D01*
X125041Y63157D01*
X124985Y63088D01*
X124926Y63021D01*
X124865Y62956D01*
X124800Y62895D01*
X124733Y62836D01*
X124664Y62780D01*
X124592Y62727D01*
X124517Y62677D01*
X124441Y62631D01*
X124363Y62588D01*
X124283Y62549D01*
X124201Y62513D01*
X124118Y62480D01*
X124033Y62452D01*
X123948Y62427D01*
X123861Y62405D01*
X123773Y62388D01*
X123685Y62375D01*
X123596Y62365D01*
X123507Y62359D01*
X123418Y62357D01*
X123329Y62359D01*
X123240Y62365D01*
X123151Y62375D01*
X123063Y62388D01*
X122975Y62405D01*
X122888Y62427D01*
X122803Y62452D01*
X122718Y62480D01*
X122635Y62513D01*
X122553Y62549D01*
X122473Y62588D01*
X122395Y62631D01*
X122319Y62677D01*
X122244Y62727D01*
X122172Y62780D01*
X122103Y62836D01*
X122036Y62895D01*
X121971Y62956D01*
X121910Y63021D01*
X121851Y63088D01*
X121795Y63157D01*
X121742Y63229D01*
X121692Y63304D01*
X121646Y63380D01*
X121603Y63458D01*
X121564Y63538D01*
X121528Y63620D01*
X121495Y63703D01*
X121467Y63788D01*
X121442Y63873D01*
X121420Y63960D01*
X121403Y64048D01*
X121390Y64136D01*
X121380Y64225D01*
X121374Y64314D01*
X121372Y64403D01*
X121372Y69723D01*
X114056Y63994D02*
X114058Y63916D01*
X114063Y63838D01*
X114073Y63761D01*
X114086Y63684D01*
X114102Y63608D01*
X114122Y63533D01*
X114146Y63459D01*
X114173Y63386D01*
X114204Y63314D01*
X114238Y63244D01*
X114275Y63175D01*
X114316Y63109D01*
X114360Y63044D01*
X114406Y62982D01*
X114456Y62922D01*
X114508Y62864D01*
X114563Y62809D01*
X114621Y62757D01*
X114681Y62707D01*
X114743Y62661D01*
X114808Y62617D01*
X114875Y62576D01*
X114943Y62539D01*
X115013Y62505D01*
X115085Y62474D01*
X115158Y62447D01*
X115232Y62423D01*
X115307Y62403D01*
X115383Y62387D01*
X115460Y62374D01*
X115537Y62364D01*
X115615Y62359D01*
X115693Y62357D01*
X115807Y62359D01*
X115920Y62364D01*
X116034Y62374D01*
X116147Y62387D01*
X116259Y62404D01*
X116371Y62424D01*
X116482Y62448D01*
X116593Y62476D01*
X116702Y62507D01*
X116810Y62542D01*
X116917Y62581D01*
X117023Y62623D01*
X117127Y62668D01*
X117230Y62717D01*
X117331Y62770D01*
X117430Y62825D01*
X117528Y62884D01*
X117623Y62946D01*
X117716Y63011D01*
X117808Y63079D01*
X117896Y63150D01*
X117983Y63224D01*
X118067Y63301D01*
X118148Y63380D01*
X117944Y68086D02*
X117942Y68164D01*
X117937Y68242D01*
X117927Y68319D01*
X117914Y68396D01*
X117898Y68472D01*
X117878Y68547D01*
X117854Y68621D01*
X117827Y68694D01*
X117796Y68766D01*
X117762Y68836D01*
X117725Y68905D01*
X117684Y68971D01*
X117640Y69036D01*
X117594Y69098D01*
X117544Y69158D01*
X117492Y69216D01*
X117437Y69271D01*
X117379Y69323D01*
X117319Y69373D01*
X117257Y69419D01*
X117192Y69463D01*
X117126Y69504D01*
X117057Y69541D01*
X116987Y69575D01*
X116915Y69606D01*
X116842Y69633D01*
X116768Y69657D01*
X116693Y69677D01*
X116617Y69693D01*
X116540Y69706D01*
X116463Y69716D01*
X116385Y69721D01*
X116307Y69723D01*
X116197Y69721D01*
X116088Y69715D01*
X115978Y69705D01*
X115870Y69692D01*
X115761Y69674D01*
X115654Y69653D01*
X115547Y69627D01*
X115441Y69598D01*
X115336Y69566D01*
X115233Y69529D01*
X115131Y69489D01*
X115030Y69445D01*
X114931Y69397D01*
X114834Y69347D01*
X114739Y69292D01*
X114646Y69234D01*
X114555Y69173D01*
X114466Y69109D01*
X117126Y66653D02*
X117193Y66695D01*
X117258Y66739D01*
X117320Y66787D01*
X117380Y66837D01*
X117438Y66890D01*
X117493Y66946D01*
X117545Y67005D01*
X117595Y67065D01*
X117642Y67129D01*
X117685Y67194D01*
X117726Y67261D01*
X117763Y67330D01*
X117797Y67401D01*
X117828Y67473D01*
X117855Y67547D01*
X117879Y67621D01*
X117899Y67697D01*
X117915Y67774D01*
X117928Y67851D01*
X117938Y67929D01*
X117943Y68008D01*
X117945Y68086D01*
X114875Y65426D02*
X114809Y65385D01*
X114744Y65340D01*
X114682Y65293D01*
X114622Y65242D01*
X114564Y65189D01*
X114509Y65133D01*
X114456Y65075D01*
X114407Y65014D01*
X114360Y64951D01*
X114317Y64886D01*
X114276Y64819D01*
X114239Y64750D01*
X114205Y64679D01*
X114174Y64607D01*
X114147Y64533D01*
X114123Y64458D01*
X114103Y64383D01*
X114087Y64306D01*
X114074Y64229D01*
X114064Y64151D01*
X114059Y64072D01*
X114057Y63994D01*
X114875Y65426D02*
X117126Y66654D01*
X110716Y66449D02*
X108670Y66449D01*
X108581Y66447D01*
X108492Y66441D01*
X108403Y66431D01*
X108315Y66418D01*
X108227Y66401D01*
X108140Y66379D01*
X108055Y66354D01*
X107970Y66326D01*
X107887Y66293D01*
X107805Y66257D01*
X107725Y66218D01*
X107647Y66175D01*
X107571Y66129D01*
X107496Y66079D01*
X107424Y66026D01*
X107355Y65970D01*
X107288Y65911D01*
X107223Y65850D01*
X107162Y65785D01*
X107103Y65718D01*
X107047Y65649D01*
X106994Y65577D01*
X106944Y65502D01*
X106898Y65426D01*
X106855Y65348D01*
X106816Y65268D01*
X106780Y65186D01*
X106747Y65103D01*
X106719Y65018D01*
X106694Y64933D01*
X106672Y64846D01*
X106655Y64758D01*
X106642Y64670D01*
X106632Y64581D01*
X106626Y64492D01*
X106624Y64403D01*
X106626Y64314D01*
X106632Y64225D01*
X106642Y64136D01*
X106655Y64048D01*
X106672Y63960D01*
X106694Y63873D01*
X106719Y63788D01*
X106747Y63703D01*
X106780Y63620D01*
X106816Y63538D01*
X106855Y63458D01*
X106898Y63380D01*
X106944Y63304D01*
X106994Y63229D01*
X107047Y63157D01*
X107103Y63088D01*
X107162Y63021D01*
X107223Y62956D01*
X107288Y62895D01*
X107355Y62836D01*
X107424Y62780D01*
X107496Y62727D01*
X107571Y62677D01*
X107647Y62631D01*
X107725Y62588D01*
X107805Y62549D01*
X107887Y62513D01*
X107970Y62480D01*
X108055Y62452D01*
X108140Y62427D01*
X108227Y62405D01*
X108315Y62388D01*
X108403Y62375D01*
X108492Y62365D01*
X108581Y62359D01*
X108670Y62357D01*
X110716Y62357D01*
X110716Y69723D01*
X108670Y69723D01*
X108591Y69721D01*
X108512Y69715D01*
X108433Y69706D01*
X108355Y69693D01*
X108278Y69675D01*
X108202Y69655D01*
X108127Y69630D01*
X108053Y69602D01*
X107980Y69571D01*
X107909Y69535D01*
X107840Y69497D01*
X107773Y69455D01*
X107708Y69410D01*
X107645Y69362D01*
X107584Y69311D01*
X107527Y69257D01*
X107471Y69201D01*
X107419Y69142D01*
X107369Y69080D01*
X107323Y69016D01*
X107279Y68950D01*
X107239Y68882D01*
X107203Y68812D01*
X107169Y68740D01*
X107139Y68666D01*
X107113Y68592D01*
X107090Y68516D01*
X107072Y68439D01*
X107056Y68362D01*
X107045Y68283D01*
X107037Y68205D01*
X107033Y68126D01*
X107033Y68046D01*
X107037Y67967D01*
X107045Y67889D01*
X107056Y67810D01*
X107072Y67733D01*
X107090Y67656D01*
X107113Y67580D01*
X107139Y67506D01*
X107169Y67432D01*
X107203Y67360D01*
X107239Y67290D01*
X107279Y67222D01*
X107323Y67156D01*
X107369Y67092D01*
X107419Y67030D01*
X107471Y66971D01*
X107527Y66915D01*
X107584Y66861D01*
X107645Y66810D01*
X107708Y66762D01*
X107773Y66717D01*
X107840Y66675D01*
X107909Y66637D01*
X107980Y66601D01*
X108053Y66570D01*
X108127Y66542D01*
X108202Y66517D01*
X108278Y66497D01*
X108355Y66479D01*
X108433Y66466D01*
X108512Y66457D01*
X108591Y66451D01*
X108670Y66449D01*
X104084Y61539D02*
X100811Y61539D01*
X96352Y62357D02*
X96352Y69723D01*
X98398Y69723D02*
X94305Y69723D01*
X87069Y69723D02*
X91979Y62357D01*
X87069Y62357D02*
X91979Y69723D01*
X187664Y57531D02*
X187664Y51802D01*
X187666Y51724D01*
X187671Y51646D01*
X187681Y51569D01*
X187694Y51492D01*
X187710Y51416D01*
X187730Y51341D01*
X187754Y51267D01*
X187781Y51194D01*
X187812Y51122D01*
X187846Y51052D01*
X187883Y50984D01*
X187924Y50917D01*
X187968Y50852D01*
X188014Y50790D01*
X188064Y50730D01*
X188116Y50672D01*
X188171Y50617D01*
X188229Y50565D01*
X188289Y50515D01*
X188351Y50469D01*
X188416Y50425D01*
X188483Y50384D01*
X188551Y50347D01*
X188621Y50313D01*
X188693Y50282D01*
X188766Y50255D01*
X188840Y50231D01*
X188915Y50211D01*
X188991Y50195D01*
X189068Y50182D01*
X189145Y50172D01*
X189223Y50167D01*
X189301Y50165D01*
X190119Y50165D01*
X183868Y50165D02*
X183868Y57531D01*
X181822Y57531D01*
X181733Y57529D01*
X181644Y57523D01*
X181555Y57513D01*
X181467Y57500D01*
X181379Y57483D01*
X181292Y57461D01*
X181207Y57436D01*
X181122Y57408D01*
X181039Y57375D01*
X180957Y57339D01*
X180877Y57300D01*
X180799Y57257D01*
X180723Y57211D01*
X180648Y57161D01*
X180576Y57108D01*
X180507Y57052D01*
X180440Y56993D01*
X180375Y56932D01*
X180314Y56867D01*
X180255Y56800D01*
X180199Y56731D01*
X180146Y56659D01*
X180096Y56584D01*
X180050Y56508D01*
X180007Y56430D01*
X179968Y56350D01*
X179932Y56268D01*
X179899Y56185D01*
X179871Y56100D01*
X179846Y56015D01*
X179824Y55928D01*
X179807Y55840D01*
X179794Y55752D01*
X179784Y55663D01*
X179778Y55574D01*
X179776Y55485D01*
X179778Y55396D01*
X179784Y55307D01*
X179794Y55218D01*
X179807Y55130D01*
X179824Y55042D01*
X179846Y54955D01*
X179871Y54870D01*
X179899Y54785D01*
X179932Y54702D01*
X179968Y54620D01*
X180007Y54540D01*
X180050Y54462D01*
X180096Y54386D01*
X180146Y54311D01*
X180199Y54239D01*
X180255Y54170D01*
X180314Y54103D01*
X180375Y54038D01*
X180440Y53977D01*
X180507Y53918D01*
X180576Y53862D01*
X180648Y53809D01*
X180723Y53759D01*
X180799Y53713D01*
X180877Y53670D01*
X180957Y53631D01*
X181039Y53595D01*
X181122Y53562D01*
X181207Y53534D01*
X181292Y53509D01*
X181379Y53487D01*
X181467Y53470D01*
X181555Y53457D01*
X181644Y53447D01*
X181733Y53441D01*
X181822Y53439D01*
X183868Y53439D01*
X176914Y50165D02*
X174868Y50165D01*
X174779Y50167D01*
X174690Y50173D01*
X174601Y50183D01*
X174513Y50196D01*
X174425Y50213D01*
X174338Y50235D01*
X174253Y50260D01*
X174168Y50288D01*
X174085Y50321D01*
X174003Y50357D01*
X173923Y50396D01*
X173845Y50439D01*
X173769Y50485D01*
X173694Y50535D01*
X173622Y50588D01*
X173553Y50644D01*
X173486Y50703D01*
X173421Y50764D01*
X173360Y50829D01*
X173301Y50896D01*
X173245Y50965D01*
X173192Y51037D01*
X173142Y51112D01*
X173096Y51188D01*
X173053Y51266D01*
X173014Y51346D01*
X172978Y51428D01*
X172945Y51511D01*
X172917Y51596D01*
X172892Y51681D01*
X172870Y51768D01*
X172853Y51856D01*
X172840Y51944D01*
X172830Y52033D01*
X172824Y52122D01*
X172822Y52211D01*
X172824Y52300D01*
X172830Y52389D01*
X172840Y52478D01*
X172853Y52566D01*
X172870Y52654D01*
X172892Y52741D01*
X172917Y52826D01*
X172945Y52911D01*
X172978Y52994D01*
X173014Y53076D01*
X173053Y53156D01*
X173096Y53234D01*
X173142Y53310D01*
X173192Y53385D01*
X173245Y53457D01*
X173301Y53526D01*
X173360Y53593D01*
X173421Y53658D01*
X173486Y53719D01*
X173553Y53778D01*
X173622Y53834D01*
X173694Y53887D01*
X173769Y53937D01*
X173845Y53983D01*
X173923Y54026D01*
X174003Y54065D01*
X174085Y54101D01*
X174168Y54134D01*
X174253Y54162D01*
X174338Y54187D01*
X174425Y54209D01*
X174513Y54226D01*
X174601Y54239D01*
X174690Y54249D01*
X174779Y54255D01*
X174868Y54257D01*
X174459Y57531D02*
X176914Y57531D01*
X174459Y57531D02*
X174380Y57529D01*
X174301Y57523D01*
X174222Y57514D01*
X174144Y57501D01*
X174067Y57483D01*
X173991Y57463D01*
X173916Y57438D01*
X173842Y57410D01*
X173769Y57379D01*
X173698Y57343D01*
X173629Y57305D01*
X173562Y57263D01*
X173497Y57218D01*
X173434Y57170D01*
X173373Y57119D01*
X173316Y57065D01*
X173260Y57009D01*
X173208Y56950D01*
X173158Y56888D01*
X173112Y56824D01*
X173068Y56758D01*
X173028Y56690D01*
X172992Y56620D01*
X172958Y56548D01*
X172928Y56474D01*
X172902Y56400D01*
X172879Y56324D01*
X172861Y56247D01*
X172845Y56170D01*
X172834Y56091D01*
X172826Y56013D01*
X172822Y55934D01*
X172822Y55854D01*
X172826Y55775D01*
X172834Y55697D01*
X172845Y55618D01*
X172861Y55541D01*
X172879Y55464D01*
X172902Y55388D01*
X172928Y55314D01*
X172958Y55240D01*
X172992Y55168D01*
X173028Y55098D01*
X173068Y55030D01*
X173112Y54964D01*
X173158Y54900D01*
X173208Y54838D01*
X173260Y54779D01*
X173316Y54723D01*
X173373Y54669D01*
X173434Y54618D01*
X173497Y54570D01*
X173562Y54525D01*
X173629Y54483D01*
X173698Y54445D01*
X173769Y54409D01*
X173842Y54378D01*
X173916Y54350D01*
X173991Y54325D01*
X174067Y54305D01*
X174144Y54287D01*
X174222Y54274D01*
X174301Y54265D01*
X174380Y54259D01*
X174459Y54257D01*
X176096Y54257D01*
X165619Y53030D02*
X160708Y53030D01*
X153144Y50165D02*
X153144Y57531D01*
X151098Y57531D01*
X151009Y57529D01*
X150920Y57523D01*
X150831Y57513D01*
X150743Y57500D01*
X150655Y57483D01*
X150568Y57461D01*
X150483Y57436D01*
X150398Y57408D01*
X150315Y57375D01*
X150233Y57339D01*
X150153Y57300D01*
X150075Y57257D01*
X149999Y57211D01*
X149924Y57161D01*
X149852Y57108D01*
X149783Y57052D01*
X149716Y56993D01*
X149651Y56932D01*
X149590Y56867D01*
X149531Y56800D01*
X149475Y56731D01*
X149422Y56659D01*
X149372Y56584D01*
X149326Y56508D01*
X149283Y56430D01*
X149244Y56350D01*
X149208Y56268D01*
X149175Y56185D01*
X149147Y56100D01*
X149122Y56015D01*
X149100Y55928D01*
X149083Y55840D01*
X149070Y55752D01*
X149060Y55663D01*
X149054Y55574D01*
X149052Y55485D01*
X149054Y55396D01*
X149060Y55307D01*
X149070Y55218D01*
X149083Y55130D01*
X149100Y55042D01*
X149122Y54955D01*
X149147Y54870D01*
X149175Y54785D01*
X149208Y54702D01*
X149244Y54620D01*
X149283Y54540D01*
X149326Y54462D01*
X149372Y54386D01*
X149422Y54311D01*
X149475Y54239D01*
X149531Y54170D01*
X149590Y54103D01*
X149651Y54038D01*
X149716Y53977D01*
X149783Y53918D01*
X149852Y53862D01*
X149924Y53809D01*
X149999Y53759D01*
X150075Y53713D01*
X150153Y53670D01*
X150233Y53631D01*
X150315Y53595D01*
X150398Y53562D01*
X150483Y53534D01*
X150568Y53509D01*
X150655Y53487D01*
X150743Y53470D01*
X150831Y53457D01*
X150920Y53447D01*
X151009Y53441D01*
X151098Y53439D01*
X153144Y53439D01*
X146599Y50165D02*
X144144Y57531D01*
X141689Y50165D01*
X142303Y52007D02*
X145986Y52007D01*
X138875Y53848D02*
X138873Y54001D01*
X138867Y54154D01*
X138858Y54306D01*
X138844Y54459D01*
X138827Y54611D01*
X138806Y54762D01*
X138781Y54913D01*
X138752Y55063D01*
X138720Y55213D01*
X138683Y55361D01*
X138643Y55509D01*
X138600Y55656D01*
X138552Y55801D01*
X138501Y55945D01*
X138447Y56088D01*
X138388Y56230D01*
X138327Y56369D01*
X138261Y56508D01*
X138235Y56578D01*
X138205Y56647D01*
X138173Y56715D01*
X138136Y56781D01*
X138097Y56845D01*
X138054Y56907D01*
X138009Y56966D01*
X137960Y57024D01*
X137909Y57078D01*
X137855Y57131D01*
X137798Y57180D01*
X137739Y57227D01*
X137678Y57270D01*
X137615Y57311D01*
X137550Y57348D01*
X137483Y57383D01*
X137414Y57413D01*
X137344Y57441D01*
X137273Y57464D01*
X137201Y57485D01*
X137128Y57501D01*
X137054Y57514D01*
X136979Y57524D01*
X136904Y57529D01*
X136829Y57531D01*
X136754Y57529D01*
X136679Y57524D01*
X136604Y57514D01*
X136530Y57501D01*
X136457Y57485D01*
X136385Y57464D01*
X136314Y57441D01*
X136244Y57413D01*
X136175Y57383D01*
X136108Y57348D01*
X136043Y57311D01*
X135980Y57270D01*
X135919Y57227D01*
X135860Y57180D01*
X135803Y57131D01*
X135749Y57078D01*
X135698Y57024D01*
X135650Y56966D01*
X135604Y56907D01*
X135561Y56845D01*
X135522Y56781D01*
X135486Y56715D01*
X135453Y56648D01*
X135423Y56578D01*
X135397Y56508D01*
X135332Y56370D01*
X135270Y56230D01*
X135212Y56088D01*
X135157Y55945D01*
X135106Y55801D01*
X135058Y55656D01*
X135015Y55509D01*
X134975Y55362D01*
X134938Y55213D01*
X134906Y55063D01*
X134877Y54913D01*
X134852Y54762D01*
X134831Y54611D01*
X134814Y54459D01*
X134800Y54306D01*
X134791Y54154D01*
X134785Y54001D01*
X134783Y53848D01*
X138876Y53848D02*
X138874Y53695D01*
X138868Y53542D01*
X138859Y53389D01*
X138845Y53237D01*
X138828Y53085D01*
X138807Y52934D01*
X138782Y52783D01*
X138753Y52632D01*
X138721Y52483D01*
X138684Y52334D01*
X138644Y52187D01*
X138601Y52040D01*
X138553Y51895D01*
X138502Y51750D01*
X138447Y51608D01*
X138389Y51466D01*
X138327Y51326D01*
X138262Y51188D01*
X138261Y51188D02*
X138235Y51118D01*
X138205Y51048D01*
X138173Y50981D01*
X138136Y50915D01*
X138097Y50851D01*
X138054Y50789D01*
X138008Y50730D01*
X137960Y50672D01*
X137909Y50618D01*
X137855Y50565D01*
X137798Y50516D01*
X137739Y50469D01*
X137678Y50426D01*
X137615Y50385D01*
X137550Y50348D01*
X137483Y50313D01*
X137414Y50283D01*
X137344Y50255D01*
X137273Y50232D01*
X137201Y50211D01*
X137128Y50195D01*
X137054Y50182D01*
X136979Y50172D01*
X136904Y50167D01*
X136829Y50165D01*
X135397Y51188D02*
X135332Y51326D01*
X135270Y51466D01*
X135212Y51608D01*
X135157Y51751D01*
X135106Y51895D01*
X135058Y52040D01*
X135015Y52187D01*
X134975Y52335D01*
X134938Y52483D01*
X134906Y52633D01*
X134877Y52783D01*
X134852Y52934D01*
X134831Y53085D01*
X134814Y53237D01*
X134800Y53390D01*
X134791Y53542D01*
X134785Y53695D01*
X134783Y53848D01*
X135397Y51188D02*
X135423Y51117D01*
X135453Y51048D01*
X135486Y50981D01*
X135522Y50915D01*
X135561Y50851D01*
X135604Y50789D01*
X135650Y50730D01*
X135698Y50672D01*
X135749Y50618D01*
X135803Y50565D01*
X135860Y50516D01*
X135919Y50469D01*
X135980Y50426D01*
X136043Y50385D01*
X136108Y50348D01*
X136175Y50313D01*
X136244Y50283D01*
X136314Y50255D01*
X136385Y50232D01*
X136457Y50211D01*
X136530Y50195D01*
X136604Y50182D01*
X136679Y50172D01*
X136754Y50167D01*
X136829Y50165D01*
X138466Y51802D02*
X135192Y55894D01*
X128608Y58349D02*
X131882Y49347D01*
X125346Y54257D02*
X123300Y54257D01*
X123211Y54255D01*
X123122Y54249D01*
X123033Y54239D01*
X122945Y54226D01*
X122857Y54209D01*
X122770Y54187D01*
X122685Y54162D01*
X122600Y54134D01*
X122517Y54101D01*
X122435Y54065D01*
X122355Y54026D01*
X122277Y53983D01*
X122201Y53937D01*
X122126Y53887D01*
X122054Y53834D01*
X121985Y53778D01*
X121918Y53719D01*
X121853Y53658D01*
X121792Y53593D01*
X121733Y53526D01*
X121677Y53457D01*
X121624Y53385D01*
X121574Y53310D01*
X121528Y53234D01*
X121485Y53156D01*
X121446Y53076D01*
X121410Y52994D01*
X121377Y52911D01*
X121349Y52826D01*
X121324Y52741D01*
X121302Y52654D01*
X121285Y52566D01*
X121272Y52478D01*
X121262Y52389D01*
X121256Y52300D01*
X121254Y52211D01*
X121256Y52122D01*
X121262Y52033D01*
X121272Y51944D01*
X121285Y51856D01*
X121302Y51768D01*
X121324Y51681D01*
X121349Y51596D01*
X121377Y51511D01*
X121410Y51428D01*
X121446Y51346D01*
X121485Y51266D01*
X121528Y51188D01*
X121574Y51112D01*
X121624Y51037D01*
X121677Y50965D01*
X121733Y50896D01*
X121792Y50829D01*
X121853Y50764D01*
X121918Y50703D01*
X121985Y50644D01*
X122054Y50588D01*
X122126Y50535D01*
X122201Y50485D01*
X122277Y50439D01*
X122355Y50396D01*
X122435Y50357D01*
X122517Y50321D01*
X122600Y50288D01*
X122685Y50260D01*
X122770Y50235D01*
X122857Y50213D01*
X122945Y50196D01*
X123033Y50183D01*
X123122Y50173D01*
X123211Y50167D01*
X123300Y50165D01*
X125346Y50165D01*
X125346Y57531D01*
X123300Y57531D01*
X123221Y57529D01*
X123142Y57523D01*
X123063Y57514D01*
X122985Y57501D01*
X122908Y57483D01*
X122832Y57463D01*
X122757Y57438D01*
X122683Y57410D01*
X122610Y57379D01*
X122539Y57343D01*
X122470Y57305D01*
X122403Y57263D01*
X122338Y57218D01*
X122275Y57170D01*
X122214Y57119D01*
X122157Y57065D01*
X122101Y57009D01*
X122049Y56950D01*
X121999Y56888D01*
X121953Y56824D01*
X121909Y56758D01*
X121869Y56690D01*
X121833Y56620D01*
X121799Y56548D01*
X121769Y56474D01*
X121743Y56400D01*
X121720Y56324D01*
X121702Y56247D01*
X121686Y56170D01*
X121675Y56091D01*
X121667Y56013D01*
X121663Y55934D01*
X121663Y55854D01*
X121667Y55775D01*
X121675Y55697D01*
X121686Y55618D01*
X121702Y55541D01*
X121720Y55464D01*
X121743Y55388D01*
X121769Y55314D01*
X121799Y55240D01*
X121833Y55168D01*
X121869Y55098D01*
X121909Y55030D01*
X121953Y54964D01*
X121999Y54900D01*
X122049Y54838D01*
X122101Y54779D01*
X122157Y54723D01*
X122214Y54669D01*
X122275Y54618D01*
X122338Y54570D01*
X122403Y54525D01*
X122470Y54483D01*
X122539Y54445D01*
X122610Y54409D01*
X122683Y54378D01*
X122757Y54350D01*
X122832Y54325D01*
X122908Y54305D01*
X122985Y54287D01*
X123063Y54274D01*
X123142Y54265D01*
X123221Y54259D01*
X123300Y54257D01*
X116834Y57531D02*
X116834Y50165D01*
X118880Y57531D02*
X114788Y57531D01*
X111809Y57531D02*
X111809Y50165D01*
X107717Y50165D02*
X111809Y57531D01*
X107717Y57531D02*
X107717Y50165D01*
X187664Y45339D02*
X187664Y39610D01*
X187666Y39532D01*
X187671Y39454D01*
X187681Y39377D01*
X187694Y39300D01*
X187710Y39224D01*
X187730Y39149D01*
X187754Y39075D01*
X187781Y39002D01*
X187812Y38930D01*
X187846Y38860D01*
X187883Y38792D01*
X187924Y38725D01*
X187968Y38660D01*
X188014Y38598D01*
X188064Y38538D01*
X188116Y38480D01*
X188171Y38425D01*
X188229Y38373D01*
X188289Y38323D01*
X188351Y38277D01*
X188416Y38233D01*
X188483Y38192D01*
X188551Y38155D01*
X188621Y38121D01*
X188693Y38090D01*
X188766Y38063D01*
X188840Y38039D01*
X188915Y38019D01*
X188991Y38003D01*
X189068Y37990D01*
X189145Y37980D01*
X189223Y37975D01*
X189301Y37973D01*
X190119Y37973D01*
X183868Y37973D02*
X183868Y45339D01*
X181822Y45339D01*
X181733Y45337D01*
X181644Y45331D01*
X181555Y45321D01*
X181467Y45308D01*
X181379Y45291D01*
X181292Y45269D01*
X181207Y45244D01*
X181122Y45216D01*
X181039Y45183D01*
X180957Y45147D01*
X180877Y45108D01*
X180799Y45065D01*
X180723Y45019D01*
X180648Y44969D01*
X180576Y44916D01*
X180507Y44860D01*
X180440Y44801D01*
X180375Y44740D01*
X180314Y44675D01*
X180255Y44608D01*
X180199Y44539D01*
X180146Y44467D01*
X180096Y44392D01*
X180050Y44316D01*
X180007Y44238D01*
X179968Y44158D01*
X179932Y44076D01*
X179899Y43993D01*
X179871Y43908D01*
X179846Y43823D01*
X179824Y43736D01*
X179807Y43648D01*
X179794Y43560D01*
X179784Y43471D01*
X179778Y43382D01*
X179776Y43293D01*
X179778Y43204D01*
X179784Y43115D01*
X179794Y43026D01*
X179807Y42938D01*
X179824Y42850D01*
X179846Y42763D01*
X179871Y42678D01*
X179899Y42593D01*
X179932Y42510D01*
X179968Y42428D01*
X180007Y42348D01*
X180050Y42270D01*
X180096Y42194D01*
X180146Y42119D01*
X180199Y42047D01*
X180255Y41978D01*
X180314Y41911D01*
X180375Y41846D01*
X180440Y41785D01*
X180507Y41726D01*
X180576Y41670D01*
X180648Y41617D01*
X180723Y41567D01*
X180799Y41521D01*
X180877Y41478D01*
X180957Y41439D01*
X181039Y41403D01*
X181122Y41370D01*
X181207Y41342D01*
X181292Y41317D01*
X181379Y41295D01*
X181467Y41278D01*
X181555Y41265D01*
X181644Y41255D01*
X181733Y41249D01*
X181822Y41247D01*
X183868Y41247D01*
X176914Y39610D02*
X175277Y45339D01*
X176914Y39610D02*
X172822Y39610D01*
X174049Y41247D02*
X174049Y37973D01*
X165619Y40838D02*
X160708Y40838D01*
X153144Y37973D02*
X153144Y45339D01*
X151098Y45339D01*
X151009Y45337D01*
X150920Y45331D01*
X150831Y45321D01*
X150743Y45308D01*
X150655Y45291D01*
X150568Y45269D01*
X150483Y45244D01*
X150398Y45216D01*
X150315Y45183D01*
X150233Y45147D01*
X150153Y45108D01*
X150075Y45065D01*
X149999Y45019D01*
X149924Y44969D01*
X149852Y44916D01*
X149783Y44860D01*
X149716Y44801D01*
X149651Y44740D01*
X149590Y44675D01*
X149531Y44608D01*
X149475Y44539D01*
X149422Y44467D01*
X149372Y44392D01*
X149326Y44316D01*
X149283Y44238D01*
X149244Y44158D01*
X149208Y44076D01*
X149175Y43993D01*
X149147Y43908D01*
X149122Y43823D01*
X149100Y43736D01*
X149083Y43648D01*
X149070Y43560D01*
X149060Y43471D01*
X149054Y43382D01*
X149052Y43293D01*
X149054Y43204D01*
X149060Y43115D01*
X149070Y43026D01*
X149083Y42938D01*
X149100Y42850D01*
X149122Y42763D01*
X149147Y42678D01*
X149175Y42593D01*
X149208Y42510D01*
X149244Y42428D01*
X149283Y42348D01*
X149326Y42270D01*
X149372Y42194D01*
X149422Y42119D01*
X149475Y42047D01*
X149531Y41978D01*
X149590Y41911D01*
X149651Y41846D01*
X149716Y41785D01*
X149783Y41726D01*
X149852Y41670D01*
X149924Y41617D01*
X149999Y41567D01*
X150075Y41521D01*
X150153Y41478D01*
X150233Y41439D01*
X150315Y41403D01*
X150398Y41370D01*
X150483Y41342D01*
X150568Y41317D01*
X150655Y41295D01*
X150743Y41278D01*
X150831Y41265D01*
X150920Y41255D01*
X151009Y41249D01*
X151098Y41247D01*
X153144Y41247D01*
X146599Y37973D02*
X144144Y45339D01*
X141689Y37973D01*
X142303Y39815D02*
X145986Y39815D01*
X138875Y43702D02*
X136829Y45339D01*
X136829Y37973D01*
X138875Y37973D02*
X134783Y37973D01*
X131882Y37155D02*
X128608Y46157D01*
X125448Y45339D02*
X125448Y37973D01*
X122174Y37973D01*
X119108Y37973D02*
X115835Y37973D01*
X119108Y37973D02*
X119108Y45339D01*
X115835Y45339D01*
X116653Y42065D02*
X119108Y42065D01*
X112784Y45339D02*
X112784Y37973D01*
X112784Y45339D02*
X110738Y45339D01*
X110649Y45337D01*
X110560Y45331D01*
X110471Y45321D01*
X110383Y45308D01*
X110295Y45291D01*
X110208Y45269D01*
X110123Y45244D01*
X110038Y45216D01*
X109955Y45183D01*
X109873Y45147D01*
X109793Y45108D01*
X109715Y45065D01*
X109639Y45019D01*
X109564Y44969D01*
X109492Y44916D01*
X109423Y44860D01*
X109356Y44801D01*
X109291Y44740D01*
X109230Y44675D01*
X109171Y44608D01*
X109115Y44539D01*
X109062Y44467D01*
X109012Y44392D01*
X108966Y44316D01*
X108923Y44238D01*
X108884Y44158D01*
X108848Y44076D01*
X108815Y43993D01*
X108787Y43908D01*
X108762Y43823D01*
X108740Y43736D01*
X108723Y43648D01*
X108710Y43560D01*
X108700Y43471D01*
X108694Y43382D01*
X108692Y43293D01*
X108692Y40019D01*
X108694Y39930D01*
X108700Y39841D01*
X108710Y39752D01*
X108723Y39664D01*
X108740Y39576D01*
X108762Y39489D01*
X108787Y39404D01*
X108815Y39319D01*
X108848Y39236D01*
X108884Y39154D01*
X108923Y39074D01*
X108966Y38996D01*
X109012Y38920D01*
X109062Y38845D01*
X109115Y38773D01*
X109171Y38704D01*
X109230Y38637D01*
X109291Y38572D01*
X109356Y38511D01*
X109423Y38452D01*
X109492Y38396D01*
X109564Y38343D01*
X109639Y38293D01*
X109715Y38247D01*
X109793Y38204D01*
X109873Y38165D01*
X109955Y38129D01*
X110038Y38096D01*
X110123Y38068D01*
X110208Y38043D01*
X110295Y38021D01*
X110383Y38004D01*
X110471Y37991D01*
X110560Y37981D01*
X110649Y37975D01*
X110738Y37973D01*
X112784Y37973D01*
D12*
X311110Y55130D02*
X346110Y55130D01*
X346110Y120130D01*
X311110Y120130D01*
X311110Y55130D01*
X307610Y56630D02*
X288610Y56630D01*
D13*
X175060Y115380D02*
X175060Y123380D01*
X150060Y123380D02*
X150060Y115380D01*
X160560Y103380D02*
X164560Y103380D01*
X164560Y135380D02*
X160560Y135380D01*
D12*
X182560Y139380D02*
X182622Y139382D01*
X182683Y139388D01*
X182744Y139397D01*
X182804Y139410D01*
X182863Y139427D01*
X182921Y139448D01*
X182978Y139472D01*
X183033Y139499D01*
X183086Y139530D01*
X183138Y139564D01*
X183187Y139601D01*
X183234Y139641D01*
X183278Y139684D01*
X183319Y139729D01*
X183358Y139777D01*
X183394Y139828D01*
X183426Y139880D01*
X183455Y139934D01*
X183481Y139990D01*
X183503Y140048D01*
X183522Y140106D01*
X183537Y140166D01*
X183548Y140227D01*
X183556Y140288D01*
X183560Y140349D01*
X183560Y140411D01*
X183556Y140472D01*
X183548Y140533D01*
X183537Y140594D01*
X183522Y140654D01*
X183503Y140712D01*
X183481Y140770D01*
X183455Y140826D01*
X183426Y140880D01*
X183394Y140932D01*
X183358Y140983D01*
X183319Y141031D01*
X183278Y141076D01*
X183234Y141119D01*
X183187Y141159D01*
X183138Y141196D01*
X183086Y141230D01*
X183033Y141261D01*
X182978Y141288D01*
X182921Y141312D01*
X182863Y141333D01*
X182804Y141350D01*
X182744Y141363D01*
X182683Y141372D01*
X182622Y141378D01*
X182560Y141380D01*
X182498Y141378D01*
X182437Y141372D01*
X182376Y141363D01*
X182316Y141350D01*
X182257Y141333D01*
X182199Y141312D01*
X182142Y141288D01*
X182087Y141261D01*
X182034Y141230D01*
X181982Y141196D01*
X181933Y141159D01*
X181886Y141119D01*
X181842Y141076D01*
X181801Y141031D01*
X181762Y140983D01*
X181726Y140932D01*
X181694Y140880D01*
X181665Y140826D01*
X181639Y140770D01*
X181617Y140712D01*
X181598Y140654D01*
X181583Y140594D01*
X181572Y140533D01*
X181564Y140472D01*
X181560Y140411D01*
X181560Y140349D01*
X181564Y140288D01*
X181572Y140227D01*
X181583Y140166D01*
X181598Y140106D01*
X181617Y140048D01*
X181639Y139990D01*
X181665Y139934D01*
X181694Y139880D01*
X181726Y139828D01*
X181762Y139777D01*
X181801Y139729D01*
X181842Y139684D01*
X181886Y139641D01*
X181933Y139601D01*
X181982Y139564D01*
X182034Y139530D01*
X182087Y139499D01*
X182142Y139472D01*
X182199Y139448D01*
X182257Y139427D01*
X182316Y139410D01*
X182376Y139397D01*
X182437Y139388D01*
X182498Y139382D01*
X182560Y139380D01*
M02*
