G04 EAGLE Gerber RS-274X export*
G75*
%MOMM*%
%FSLAX34Y34*%
%LPD*%
%INSoldermask Bottom*%
%IPPOS*%
%AMOC8*
5,1,8,0,0,1.08239X$1,22.5*%
G01*
%ADD10C,1.103200*%
%ADD11R,2.103200X1.103200*%
%ADD12R,2.103200X3.403200*%
%ADD13R,1.703200X1.503200*%
%ADD14C,2.082800*%
%ADD15R,1.503200X1.703200*%
%ADD16C,1.061200*%

G36*
X370898Y56143D02*
X370898Y56143D01*
X370956Y56141D01*
X371038Y56163D01*
X371122Y56175D01*
X371175Y56199D01*
X371231Y56213D01*
X371304Y56256D01*
X371381Y56291D01*
X371426Y56329D01*
X371476Y56359D01*
X371534Y56420D01*
X371598Y56475D01*
X371630Y56523D01*
X371670Y56566D01*
X371709Y56641D01*
X371756Y56711D01*
X371773Y56767D01*
X371800Y56819D01*
X371811Y56887D01*
X371841Y56982D01*
X371844Y57082D01*
X371855Y57150D01*
X371855Y118110D01*
X371848Y118161D01*
X371849Y118181D01*
X371848Y118185D01*
X371849Y118226D01*
X371827Y118308D01*
X371815Y118392D01*
X371792Y118445D01*
X371777Y118501D01*
X371734Y118574D01*
X371699Y118651D01*
X371661Y118696D01*
X371632Y118746D01*
X371570Y118804D01*
X371516Y118868D01*
X371467Y118900D01*
X371424Y118940D01*
X371349Y118979D01*
X371279Y119026D01*
X371223Y119043D01*
X371171Y119070D01*
X371103Y119081D01*
X371008Y119111D01*
X370908Y119114D01*
X370840Y119125D01*
X334010Y119125D01*
X333952Y119117D01*
X333894Y119119D01*
X333812Y119097D01*
X333729Y119085D01*
X333675Y119062D01*
X333619Y119047D01*
X333546Y119004D01*
X333469Y118969D01*
X333424Y118931D01*
X333374Y118902D01*
X333316Y118840D01*
X333252Y118786D01*
X333220Y118737D01*
X333180Y118694D01*
X333141Y118619D01*
X333095Y118549D01*
X333077Y118493D01*
X333050Y118441D01*
X333039Y118373D01*
X333009Y118278D01*
X333006Y118178D01*
X332995Y118110D01*
X332995Y57150D01*
X333003Y57092D01*
X333001Y57034D01*
X333023Y56952D01*
X333035Y56869D01*
X333059Y56815D01*
X333073Y56759D01*
X333116Y56686D01*
X333151Y56609D01*
X333189Y56564D01*
X333219Y56514D01*
X333280Y56456D01*
X333335Y56392D01*
X333383Y56360D01*
X333426Y56320D01*
X333501Y56281D01*
X333571Y56235D01*
X333627Y56217D01*
X333679Y56190D01*
X333747Y56179D01*
X333842Y56149D01*
X333942Y56146D01*
X334010Y56135D01*
X370840Y56135D01*
X370898Y56143D01*
G37*
D10*
X379410Y65630D03*
X379410Y109630D03*
D11*
X298110Y64630D03*
X298110Y87630D03*
X298110Y110630D03*
D12*
X359110Y87630D03*
D13*
X265110Y140310D03*
X265110Y121310D03*
X265110Y45110D03*
X265110Y64110D03*
D14*
X16510Y143510D03*
X16510Y118110D03*
X16510Y92710D03*
X16510Y67310D03*
X16510Y41910D03*
X41910Y168910D03*
X67310Y168910D03*
X92710Y168910D03*
X118110Y168910D03*
X143510Y168910D03*
X168910Y168910D03*
X194310Y168910D03*
X219710Y168910D03*
X245110Y168910D03*
X270510Y168910D03*
X270510Y16510D03*
X245110Y16510D03*
X219710Y16510D03*
X194310Y16510D03*
X168910Y16510D03*
X143510Y16510D03*
X118110Y16510D03*
X92710Y16510D03*
X67310Y16510D03*
X41910Y16510D03*
X295910Y16510D03*
X321310Y16510D03*
X295910Y168910D03*
X321310Y168910D03*
D15*
X315570Y140970D03*
X296570Y140970D03*
D13*
X196850Y127610D03*
X196850Y108610D03*
D15*
X172060Y131380D03*
X172060Y107380D03*
X153060Y107380D03*
X153060Y131380D03*
D16*
X383220Y87630D03*
X265110Y100330D03*
X80010Y67310D03*
X156210Y91440D03*
X215999Y62230D03*
X397510Y87630D03*
X384810Y138430D03*
X397510Y113030D03*
X410210Y100330D03*
X422910Y87630D03*
X422910Y113030D03*
X422910Y62230D03*
X410210Y74930D03*
X397510Y62230D03*
X384810Y36830D03*
X41910Y144780D03*
X163830Y62230D03*
X332290Y45530D03*
X71120Y116840D03*
X320040Y55880D03*
X36830Y80010D03*
X104140Y126190D03*
X93680Y147780D03*
X215900Y74930D03*
X142240Y91440D03*
X239650Y38020D03*
X334264Y147320D03*
M02*
