G04 EAGLE Gerber RS-274X export*
G75*
%MOMM*%
%FSLAX34Y34*%
%LPD*%
%INSoldermask Top*%
%IPPOS*%
%AMOC8*
5,1,8,0,0,1.08239X$1,22.5*%
G01*
%ADD10R,0.603200X1.203200*%
%ADD11R,1.703200X1.503200*%
%ADD12R,1.803200X2.503200*%
%ADD13R,1.503200X1.703200*%
%ADD14R,1.403200X1.403200*%
%ADD15R,2.703200X0.703200*%
%ADD16R,2.703200X2.203200*%
%ADD17C,1.103200*%
%ADD18R,0.603200X1.703197*%
%ADD19C,2.082800*%
%ADD20R,0.838200X1.473200*%
%ADD21R,2.503200X1.803200*%
%ADD22C,1.061200*%


D10*
X176018Y76040D03*
X169414Y76040D03*
X162810Y75980D03*
X156206Y76040D03*
X149602Y76040D03*
X142998Y76040D03*
X136394Y76040D03*
X129790Y76040D03*
X123186Y76040D03*
X116582Y76040D03*
X116582Y134460D03*
X123186Y134460D03*
X129790Y134460D03*
X136394Y134460D03*
X142998Y134460D03*
X149602Y134460D03*
X156206Y134460D03*
X162810Y134520D03*
X169414Y134460D03*
X176018Y134460D03*
D11*
X83820Y84480D03*
X83820Y103480D03*
D12*
X52070Y61210D03*
X52070Y124210D03*
D13*
X179680Y46990D03*
X160680Y46990D03*
D14*
X420400Y15240D03*
X399400Y15240D03*
D13*
X377700Y14560D03*
X358700Y14560D03*
D15*
X354410Y87630D03*
X354410Y79630D03*
X354410Y103630D03*
X354410Y95630D03*
D16*
X409410Y132630D03*
X409410Y42630D03*
X354410Y132630D03*
X354410Y42630D03*
D15*
X354410Y71630D03*
D17*
X379410Y65630D03*
X379410Y109630D03*
D18*
X310510Y117711D03*
X290190Y117711D03*
X300510Y117711D03*
X280510Y117711D03*
X270510Y117711D03*
X270510Y67709D03*
X280510Y67709D03*
X290190Y67709D03*
X300510Y67709D03*
X310510Y67709D03*
D19*
X16510Y143510D03*
X16510Y118110D03*
X16510Y92710D03*
X16510Y67310D03*
X16510Y41910D03*
D20*
X202184Y119380D03*
X194056Y119380D03*
X202184Y91440D03*
X194056Y91440D03*
D19*
X41910Y168910D03*
X67310Y168910D03*
X92710Y168910D03*
X118110Y168910D03*
X143510Y168910D03*
X168910Y168910D03*
X194310Y168910D03*
X219710Y168910D03*
X245110Y168910D03*
X270510Y168910D03*
X270510Y16510D03*
X245110Y16510D03*
X219710Y16510D03*
X194310Y16510D03*
X168910Y16510D03*
X143510Y16510D03*
X118110Y16510D03*
X92710Y16510D03*
X67310Y16510D03*
X41910Y16510D03*
X295910Y16510D03*
X321310Y16510D03*
X295910Y168910D03*
X321310Y168910D03*
D21*
X416310Y162560D03*
X353310Y162560D03*
D20*
X228346Y119380D03*
X236474Y119380D03*
D14*
X232070Y53340D03*
X253070Y53340D03*
D13*
X252070Y71120D03*
X233070Y71120D03*
D20*
X228346Y91440D03*
X236474Y91440D03*
D22*
X383220Y87630D03*
X265110Y100330D03*
X80010Y67310D03*
X156210Y91440D03*
X215999Y62230D03*
X397510Y87630D03*
X384810Y138430D03*
X397510Y113030D03*
X410210Y100330D03*
X422910Y87630D03*
X422910Y113030D03*
X422910Y62230D03*
X410210Y74930D03*
X397510Y62230D03*
X384810Y36830D03*
X163830Y62230D03*
X334830Y41720D03*
X71120Y116840D03*
X320040Y55880D03*
X36830Y80010D03*
X106680Y127460D03*
X93680Y147780D03*
X215900Y74930D03*
X142240Y91440D03*
X232030Y39290D03*
X334264Y147320D03*
M02*
