G04 EAGLE Gerber RS-274X export*
G75*
%MOMM*%
%FSLAX34Y34*%
%LPD*%
%INSolderpaste Top*%
%IPPOS*%
%AMOC8*
5,1,8,0,0,1.08239X$1,22.5*%
G01*
%ADD10R,0.400000X1.000000*%
%ADD11R,1.500000X1.300000*%
%ADD12R,1.600000X2.300000*%
%ADD13R,1.300000X1.500000*%
%ADD14R,1.200000X1.200000*%
%ADD15R,2.500000X0.500000*%
%ADD16R,2.500000X2.000000*%
%ADD17R,0.400000X1.499997*%
%ADD18R,2.489200X2.235200*%
%ADD19R,2.300000X1.600000*%


D10*
X176018Y76040D03*
X169414Y76040D03*
X162810Y75980D03*
X156206Y76040D03*
X149602Y76040D03*
X142998Y76040D03*
X136394Y76040D03*
X129790Y76040D03*
X123186Y76040D03*
X116582Y76040D03*
X116582Y134460D03*
X123186Y134460D03*
X129790Y134460D03*
X136394Y134460D03*
X142998Y134460D03*
X149602Y134460D03*
X156206Y134460D03*
X162810Y134520D03*
X169414Y134460D03*
X176018Y134460D03*
D11*
X83820Y84480D03*
X83820Y103480D03*
D12*
X52070Y61210D03*
X52070Y124210D03*
D13*
X183490Y43180D03*
X164490Y43180D03*
D14*
X420400Y15240D03*
X399400Y15240D03*
D13*
X377700Y14560D03*
X358700Y14560D03*
D15*
X354410Y87630D03*
X354410Y79630D03*
X354410Y103630D03*
X354410Y95630D03*
D16*
X409410Y132630D03*
X409410Y42630D03*
X354410Y132630D03*
X354410Y42630D03*
D15*
X354410Y71630D03*
D17*
X310510Y117711D03*
X290190Y117711D03*
X300510Y117711D03*
X280510Y117711D03*
X270510Y117711D03*
X270510Y67709D03*
X280510Y67709D03*
X290190Y67709D03*
X300510Y67709D03*
X310510Y67709D03*
D18*
X198120Y119380D03*
X198120Y91440D03*
D19*
X416310Y162560D03*
X353310Y162560D03*
D18*
X232410Y119380D03*
D14*
X232070Y53340D03*
X253070Y53340D03*
D13*
X252070Y71120D03*
X233070Y71120D03*
D18*
X232410Y91440D03*
M02*
